<svg width="153" height="38" viewBox="0 0 153 38" fill="none" xmlns="http://www.w3.org/2000/svg">
<path d="M16.9638 22.3714C16.9638 24.5487 14.6587 24.4984 14.4149 24.4984H9.7204V20.3045H14.4149C16.8849 20.3045 16.9638 21.9422 16.9638 22.3714ZM14.0533 18.617C14.0922 18.617 16.2842 18.6683 16.2842 16.7528C16.2842 15.956 16.0805 14.9113 14.0533 14.9113H9.7204V18.617H14.0533ZM26 11.8335V27.1665C25.9966 28.1823 25.539 29.1556 24.727 29.8739C23.9151 30.5922 22.8148 30.997 21.6665 31H4.33353C3.18524 30.997 2.08495 30.5922 1.27298 29.8739C0.461017 29.1556 0.00336833 28.1823 0 27.1665L0 11.8335C0.00336833 10.8177 0.461017 9.84438 1.27298 9.1261C2.08495 8.40782 3.18524 8.00298 4.33353 8H21.6665C22.8148 8.00298 23.9151 8.40782 24.727 9.1261C25.539 9.84438 25.9966 10.8177 26 11.8335ZM19.619 22.6758C19.619 21.5685 19.233 19.6833 16.7723 19.2181V19.1807C18.1019 18.6786 18.9394 17.7303 18.9394 16.3242C18.9394 15.9648 19.0554 12.9984 14.4358 12.9984H7.06527V26.4149C14.5072 26.4149 15.1827 26.5011 16.5599 26.1217C17.3846 25.8948 19.619 25.1987 19.619 22.6758Z" fill="white"/>
<path d="M43.625 18.925C44.6417 19.1083 45.4917 19.6083 46.175 20.425C46.875 21.2417 47.225 22.2 47.225 23.3C47.225 24.2 47.0083 25.0083 46.575 25.725C46.1583 26.425 45.525 26.9833 44.675 27.4C43.8417 27.8 42.825 28 41.625 28H36.05V10.45H41.525C43.275 10.45 44.5917 10.8583 45.475 11.675C46.375 12.475 46.825 13.5167 46.825 14.8C46.825 15.9167 46.525 16.825 45.925 17.525C45.325 18.2083 44.5583 18.675 43.625 18.925ZM37.175 18.425H41.575C42.8917 18.425 43.9 18.1167 44.6 17.5C45.3167 16.8667 45.675 16 45.675 14.9C45.675 13.8333 45.325 12.9917 44.625 12.375C43.925 11.7583 42.8667 11.45 41.45 11.45H37.175V18.425ZM41.55 27.025C42.9667 27.025 44.075 26.6917 44.875 26.025C45.6917 25.3417 46.1 24.4083 46.1 23.225C46.1 22.0583 45.6833 21.1333 44.85 20.45C44.0333 19.75 42.9083 19.4 41.475 19.4H37.175V27.025H41.55ZM56.5025 28.2C55.2359 28.2 54.0942 27.9167 53.0775 27.35C52.0609 26.7833 51.2609 25.975 50.6775 24.925C50.1109 23.8583 49.8275 22.6167 49.8275 21.2C49.8275 19.8 50.1192 18.575 50.7025 17.525C51.2859 16.4583 52.0859 15.65 53.1025 15.1C54.1359 14.5333 55.2859 14.25 56.5525 14.25C57.8192 14.25 58.9609 14.5333 59.9775 15.1C60.9942 15.65 61.7859 16.45 62.3525 17.5C62.9359 18.55 63.2275 19.7833 63.2275 21.2C63.2275 22.6167 62.9359 23.8583 62.3525 24.925C61.7692 25.975 60.9609 26.7833 59.9275 27.35C58.9109 27.9167 57.7692 28.2 56.5025 28.2ZM56.5025 27.2C57.4859 27.2 58.4025 26.9833 59.2525 26.55C60.1192 26.1 60.8109 25.425 61.3275 24.525C61.8442 23.625 62.1025 22.5167 62.1025 21.2C62.1025 19.9 61.8442 18.8 61.3275 17.9C60.8109 17 60.1275 16.3333 59.2775 15.9C58.4275 15.45 57.5109 15.225 56.5275 15.225C55.5442 15.225 54.6275 15.45 53.7775 15.9C52.9442 16.3333 52.2692 17 51.7525 17.9C51.2359 18.8 50.9775 19.9 50.9775 21.2C50.9775 22.5167 51.2275 23.625 51.7275 24.525C52.2442 25.425 52.9192 26.1 53.7525 26.55C54.6025 26.9833 55.5192 27.2 56.5025 27.2ZM72.6158 28.2C71.3492 28.2 70.2075 27.9167 69.1908 27.35C68.1742 26.7833 67.3742 25.975 66.7908 24.925C66.2242 23.8583 65.9408 22.6167 65.9408 21.2C65.9408 19.8 66.2325 18.575 66.8158 17.525C67.3992 16.4583 68.1992 15.65 69.2158 15.1C70.2492 14.5333 71.3992 14.25 72.6658 14.25C73.9325 14.25 75.0742 14.5333 76.0908 15.1C77.1075 15.65 77.8992 16.45 78.4658 17.5C79.0492 18.55 79.3408 19.7833 79.3408 21.2C79.3408 22.6167 79.0492 23.8583 78.4658 24.925C77.8825 25.975 77.0742 26.7833 76.0408 27.35C75.0242 27.9167 73.8825 28.2 72.6158 28.2ZM72.6158 27.2C73.5992 27.2 74.5158 26.9833 75.3658 26.55C76.2325 26.1 76.9242 25.425 77.4408 24.525C77.9575 23.625 78.2158 22.5167 78.2158 21.2C78.2158 19.9 77.9575 18.8 77.4408 17.9C76.9242 17 76.2408 16.3333 75.3908 15.9C74.5408 15.45 73.6242 15.225 72.6408 15.225C71.6575 15.225 70.7408 15.45 69.8908 15.9C69.0575 16.3333 68.3825 17 67.8658 17.9C67.3492 18.8 67.0908 19.9 67.0908 21.2C67.0908 22.5167 67.3408 23.625 67.8408 24.525C68.3575 25.425 69.0325 26.1 69.8658 26.55C70.7158 26.9833 71.6325 27.2 72.6158 27.2ZM84.4291 15.4V24.375C84.4291 25.375 84.6124 26.0667 84.9791 26.45C85.3458 26.8167 85.9958 27 86.9291 27H88.4541V28H86.7541C85.5708 28 84.6958 27.725 84.1291 27.175C83.5791 26.6083 83.3041 25.675 83.3041 24.375V15.4H81.2541V14.425H83.3041V10.975H84.4291V14.425H88.4541V15.4H84.4291ZM95.9461 28.2C94.4294 28.2 93.1878 27.8667 92.2211 27.2C91.2711 26.5333 90.7378 25.5833 90.6211 24.35H91.7711C91.8544 25.2333 92.2544 25.9333 92.9711 26.45C93.7044 26.9667 94.6961 27.225 95.9461 27.225C96.9794 27.225 97.7961 26.9667 98.3961 26.45C99.0128 25.9167 99.3211 25.2667 99.3211 24.5C99.3211 23.9667 99.1544 23.5333 98.8211 23.2C98.5044 22.85 98.1044 22.5833 97.6211 22.4C97.1378 22.2167 96.4794 22.0167 95.6461 21.8C94.6461 21.5333 93.8378 21.275 93.2211 21.025C92.6044 20.7583 92.0794 20.3667 91.6461 19.85C91.2128 19.3333 90.9961 18.6417 90.9961 17.775C90.9961 17.1417 91.1878 16.5583 91.5711 16.025C91.9544 15.475 92.4878 15.0417 93.1711 14.725C93.8544 14.4083 94.6294 14.25 95.4961 14.25C96.9128 14.25 98.0544 14.6083 98.9211 15.325C99.8044 16.025 100.279 17 100.346 18.25H99.2211C99.1711 17.35 98.8211 16.6167 98.1711 16.05C97.5211 15.4833 96.6211 15.2 95.4711 15.2C94.5044 15.2 93.7044 15.45 93.0711 15.95C92.4378 16.45 92.1211 17.0583 92.1211 17.775C92.1211 18.4083 92.2961 18.925 92.6461 19.325C93.0128 19.7083 93.4544 20.0083 93.9711 20.225C94.5044 20.425 95.2044 20.6417 96.0711 20.875C97.0211 21.125 97.7794 21.375 98.3461 21.625C98.9294 21.8583 99.4211 22.2083 99.8211 22.675C100.221 23.125 100.421 23.7333 100.421 24.5C100.421 25.2 100.229 25.8333 99.8461 26.4C99.4628 26.9667 98.9294 27.4083 98.2461 27.725C97.5628 28.0417 96.7961 28.2 95.9461 28.2ZM105.523 15.4V24.375C105.523 25.375 105.706 26.0667 106.073 26.45C106.44 26.8167 107.09 27 108.023 27H109.548V28H107.848C106.665 28 105.79 27.725 105.223 27.175C104.673 26.6083 104.398 25.675 104.398 24.375V15.4H102.348V14.425H104.398V10.975H105.523V14.425H109.548V15.4H105.523ZM113.64 17.225C113.973 16.225 114.565 15.4667 115.415 14.95C116.265 14.4167 117.348 14.15 118.665 14.15V15.325H118.29C116.957 15.325 115.848 15.7083 114.965 16.475C114.082 17.225 113.64 18.4583 113.64 20.175V28H112.515V14.425H113.64V17.225ZM120.555 21.2C120.555 19.8 120.83 18.575 121.38 17.525C121.947 16.475 122.722 15.6667 123.705 15.1C124.705 14.5333 125.838 14.25 127.105 14.25C128.538 14.25 129.755 14.6 130.755 15.3C131.755 16 132.455 16.8917 132.855 17.975V14.425H133.98V28H132.855V24.425C132.455 25.525 131.747 26.4333 130.73 27.15C129.73 27.85 128.522 28.2 127.105 28.2C125.838 28.2 124.705 27.9167 123.705 27.35C122.722 26.7667 121.947 25.95 121.38 24.9C120.83 23.8333 120.555 22.6 120.555 21.2ZM132.855 21.2C132.855 20.0167 132.605 18.975 132.105 18.075C131.622 17.1583 130.955 16.4583 130.105 15.975C129.255 15.475 128.305 15.225 127.255 15.225C126.155 15.225 125.188 15.4667 124.355 15.95C123.522 16.4167 122.872 17.1 122.405 18C121.938 18.9 121.705 19.9667 121.705 21.2C121.705 22.4333 121.938 23.5 122.405 24.4C122.872 25.3 123.522 25.9917 124.355 26.475C125.205 26.9583 126.172 27.2 127.255 27.2C128.305 27.2 129.255 26.9583 130.105 26.475C130.972 25.975 131.647 25.275 132.13 24.375C132.613 23.4583 132.855 22.4 132.855 21.2ZM139.201 18C139.585 16.9 140.276 16 141.276 15.3C142.293 14.6 143.518 14.25 144.951 14.25C146.218 14.25 147.343 14.5333 148.326 15.1C149.326 15.6667 150.101 16.475 150.651 17.525C151.218 18.575 151.501 19.8 151.501 21.2C151.501 22.6 151.218 23.8333 150.651 24.9C150.101 25.95 149.326 26.7667 148.326 27.35C147.343 27.9167 146.218 28.2 144.951 28.2C143.535 28.2 142.318 27.85 141.301 27.15C140.301 26.4333 139.601 25.5333 139.201 24.45V34.4H138.076V14.425H139.201V18ZM150.351 21.2C150.351 19.9667 150.118 18.9 149.651 18C149.185 17.1 148.526 16.4167 147.676 15.95C146.843 15.4667 145.876 15.225 144.776 15.225C143.726 15.225 142.776 15.475 141.926 15.975C141.076 16.4583 140.41 17.1583 139.926 18.075C139.443 18.975 139.201 20.0167 139.201 21.2C139.201 22.4 139.443 23.4583 139.926 24.375C140.41 25.275 141.076 25.975 141.926 26.475C142.776 26.9583 143.726 27.2 144.776 27.2C145.876 27.2 146.843 26.9583 147.676 26.475C148.526 25.9917 149.185 25.3 149.651 24.4C150.118 23.5 150.351 22.4333 150.351 21.2Z" fill="white"/>
</svg>
