<svg width="153" height="26" viewBox="0 0 153 26" fill="none" xmlns="http://www.w3.org/2000/svg">
<path d="M16.3114 15.6211C16.3114 17.9877 14.0949 17.933 13.8605 17.933H9.34654V13.3744H13.8605C16.2355 13.3744 16.3114 15.1546 16.3114 15.6211ZM13.5128 11.5402C13.5502 11.5402 15.6579 11.596 15.6579 9.51395C15.6579 8.64788 15.4621 7.51228 13.5128 7.51228H9.34654V11.5402H13.5128ZM25 4.16685V20.8331C24.9968 21.9373 24.5567 22.9952 23.776 23.776C22.9952 24.5567 21.9373 24.9968 20.8331 25H4.16685C3.06273 24.9968 2.00476 24.5567 1.22402 23.776C0.443285 22.9952 0.00323878 21.9373 0 20.8331L0 4.16685C0.00323878 3.06273 0.443285 2.00476 1.22402 1.22402C2.00476 0.443285 3.06273 0.00323878 4.16685 0H20.8331C21.9373 0.00323878 22.9952 0.443285 23.776 1.22402C24.5567 2.00476 24.9968 3.06273 25 4.16685ZM18.8644 15.952C18.8644 14.7483 18.4933 12.6992 16.1272 12.1936V12.1529C17.4057 11.6071 18.2109 10.5765 18.2109 9.04799C18.2109 8.65737 18.3225 5.43304 13.8806 5.43304H6.79353V20.0162C13.9492 20.0162 14.5988 20.1099 15.923 19.6975C16.716 19.4509 18.8644 18.6942 18.8644 15.952Z" fill="white"/>
<path d="M35.225 2.55H38.775C40.6583 2.55 42.0833 2.93333 43.05 3.7C44.0333 4.45 44.525 5.53333 44.525 6.95C44.525 7.73333 44.325 8.45833 43.925 9.125C43.5417 9.775 42.975 10.3 42.225 10.7C43.4583 11.1 44.3917 11.7 45.025 12.5C45.675 13.3 46 14.25 46 15.35C46 16.8333 45.4583 18.0667 44.375 19.05C43.2917 20.0167 41.8917 20.5 40.175 20.5H35.225V2.55ZM37 4.3V10.05H38.025C39.5917 10.05 40.7583 9.8 41.525 9.3C42.2917 8.8 42.675 8.01667 42.675 6.95C42.675 5.18333 41.475 4.3 39.075 4.3H37ZM37 11.85V18.75H39.225C40.5083 18.75 41.45 18.625 42.05 18.375C42.6667 18.1083 43.1667 17.7083 43.55 17.175C43.9333 16.625 44.125 16.0667 44.125 15.5C44.125 14.9333 44.0167 14.4333 43.8 14C43.5833 13.5667 43.2583 13.1833 42.825 12.85C42.4083 12.5167 41.9 12.2667 41.3 12.1C40.7167 11.9333 39.6167 11.85 38 11.85H37ZM49.1305 13.95C49.1305 12 49.7971 10.3333 51.1305 8.95C52.4805 7.56667 54.1138 6.875 56.0305 6.875C57.9638 6.875 59.5971 7.56667 60.9305 8.95C62.2805 10.3333 62.9555 11.9917 62.9555 13.925C62.9555 15.8583 62.2888 17.5167 60.9555 18.9C59.6388 20.2667 58.0055 20.95 56.0555 20.95C54.1055 20.95 52.4638 20.2667 51.1305 18.9C49.7971 17.5167 49.1305 15.8667 49.1305 13.95ZM61.2305 13.975C61.2305 12.5083 60.7138 11.2417 59.6805 10.175C58.6638 9.09167 57.4471 8.55 56.0305 8.55C54.6305 8.55 53.4221 9.09167 52.4055 10.175C51.3888 11.2417 50.8805 12.5167 50.8805 14C50.8805 15.4833 51.3721 16.7417 52.3555 17.775C53.3388 18.8083 54.5555 19.325 56.0055 19.325C57.4721 19.325 58.7055 18.8083 59.7055 17.775C60.7221 16.725 61.2305 15.4583 61.2305 13.975ZM66.0123 13.95C66.0123 12 66.679 10.3333 68.0123 8.95C69.3623 7.56667 70.9956 6.875 72.9123 6.875C74.8456 6.875 76.479 7.56667 77.8123 8.95C79.1623 10.3333 79.8373 11.9917 79.8373 13.925C79.8373 15.8583 79.1706 17.5167 77.8373 18.9C76.5206 20.2667 74.8873 20.95 72.9373 20.95C70.9873 20.95 69.3456 20.2667 68.0123 18.9C66.679 17.5167 66.0123 15.8667 66.0123 13.95ZM78.1123 13.975C78.1123 12.5083 77.5956 11.2417 76.5623 10.175C75.5456 9.09167 74.329 8.55 72.9123 8.55C71.5123 8.55 70.304 9.09167 69.2873 10.175C68.2706 11.2417 67.7623 12.5167 67.7623 14C67.7623 15.4833 68.254 16.7417 69.2373 17.775C70.2206 18.8083 71.4373 19.325 72.8873 19.325C74.354 19.325 75.5873 18.8083 76.5873 17.775C77.604 16.725 78.1123 15.4583 78.1123 13.975ZM86.7441 18.4C86.7441 18.85 86.8025 19.1167 86.9191 19.2C87.0358 19.2833 87.3358 19.325 87.8191 19.325H88.8441V20.775C88.1441 20.8917 87.5941 20.95 87.1941 20.95C86.4441 20.95 85.8941 20.7667 85.5441 20.4C85.1941 20.0333 85.0191 19.4583 85.0191 18.675V8.675H82.6691V7.225H85.0191V2.1H86.7441V7.225H89.4441V8.675H86.7441V18.4ZM99.1658 8.675L98.0658 9.8C97.1492 8.91667 96.2575 8.475 95.3908 8.475C94.8242 8.475 94.3492 8.65833 93.9658 9.025C93.5825 9.375 93.3908 9.81667 93.3908 10.35C93.3908 10.8667 93.5908 11.3167 93.9908 11.7C94.4075 12.0667 95.1158 12.5167 96.1158 13.05C97.1158 13.5667 97.8742 14.1333 98.3908 14.75C98.9242 15.35 99.1908 16.0917 99.1908 16.975C99.1908 18.0917 98.7992 19.0333 98.0158 19.8C97.2492 20.5667 96.2992 20.95 95.1658 20.95C94.4158 20.95 93.6908 20.7833 92.9908 20.45C92.3075 20.1167 91.7242 19.65 91.2408 19.05L92.3158 17.85C93.1992 18.8333 94.1242 19.325 95.0908 19.325C95.7742 19.325 96.3575 19.1 96.8408 18.65C97.3242 18.2 97.5658 17.675 97.5658 17.075C97.5658 16.4583 97.3492 15.9583 96.9158 15.575C96.4992 15.175 95.7908 14.725 94.7908 14.225C93.8075 13.725 93.0658 13.1833 92.5658 12.6C92.0825 12 91.8408 11.2333 91.8408 10.3C91.8408 9.35 92.1825 8.54167 92.8658 7.875C93.5658 7.20833 94.4825 6.875 95.6158 6.875C96.7658 6.875 97.9492 7.475 99.1658 8.675ZM105.908 18.4C105.908 18.85 105.967 19.1167 106.083 19.2C106.2 19.2833 106.5 19.325 106.983 19.325H108.008V20.775C107.308 20.8917 106.758 20.95 106.358 20.95C105.608 20.95 105.058 20.7667 104.708 20.4C104.358 20.0333 104.183 19.4583 104.183 18.675V8.675H101.833V7.225H104.183V2.1H105.908V7.225H108.608V8.675H105.908V18.4ZM111.005 7.225H112.755V9.15C113.222 8.36667 113.672 7.79167 114.105 7.425C114.555 7.05833 115.047 6.875 115.58 6.875C116.13 6.875 116.68 7.025 117.23 7.325L116.33 8.775C116.08 8.625 115.822 8.55 115.555 8.55C115.038 8.55 114.547 8.81667 114.08 9.35C113.63 9.88333 113.297 10.575 113.08 11.425C112.863 12.2583 112.755 13.7833 112.755 16V20.5H111.005V7.225ZM132.899 7.225V20.5H131.224V18.225C129.708 20.0417 127.974 20.95 126.024 20.95C124.074 20.95 122.424 20.2583 121.074 18.875C119.741 17.475 119.074 15.8167 119.074 13.9C119.074 11.9667 119.749 10.3167 121.099 8.95C122.449 7.56667 124.066 6.875 125.949 6.875C128.116 6.875 129.874 7.8 131.224 9.65V7.225H132.899ZM131.324 13.925C131.324 12.4083 130.816 11.1333 129.799 10.1C128.783 9.05 127.533 8.525 126.049 8.525C124.583 8.525 123.341 9.06667 122.324 10.15C121.308 11.2167 120.799 12.4833 120.799 13.95C120.799 15.4167 121.316 16.6917 122.349 17.775C123.383 18.8417 124.616 19.375 126.049 19.375C127.499 19.375 128.741 18.8583 129.774 17.825C130.808 16.7917 131.324 15.4917 131.324 13.925ZM137.265 7.225H138.965V9.65C140.315 7.8 142.073 6.875 144.24 6.875C146.107 6.875 147.715 7.56667 149.065 8.95C150.415 10.3167 151.09 11.9667 151.09 13.9C151.09 15.8333 150.423 17.4917 149.09 18.875C147.757 20.2583 146.157 20.95 144.29 20.95C142.257 20.95 140.482 20.0417 138.965 18.225V25.35H137.265V7.225ZM149.39 13.925C149.39 12.4417 148.873 11.175 147.84 10.125C146.823 9.05833 145.573 8.525 144.09 8.525C142.607 8.525 141.357 9.05 140.34 10.1C139.34 11.1333 138.84 12.4167 138.84 13.95C138.84 15.4833 139.357 16.775 140.39 17.825C141.423 18.8583 142.657 19.375 144.09 19.375C145.54 19.375 146.782 18.85 147.815 17.8C148.865 16.7333 149.39 15.4417 149.39 13.925Z" fill="white"/>
</svg>
