<svg width="152" height="40" viewBox="0 0 152 40" fill="none" xmlns="http://www.w3.org/2000/svg">
<path d="M25.3359 24.8695C25.3359 28.1828 22.2328 28.1062 21.9047 28.1062H15.5852V21.7242H21.9047C25.2297 21.7242 25.3359 24.2164 25.3359 24.8695ZM21.418 19.1562C21.4703 19.1562 24.4211 19.2344 24.4211 16.3195C24.4211 15.107 24.1469 13.5172 21.418 13.5172H15.5852V19.1562H21.418ZM37.5 8.83359V32.1664C37.4955 33.7122 36.8794 35.1933 35.7864 36.2864C34.6933 37.3794 33.2122 37.9955 31.6664 38H8.33359C6.78782 37.9955 5.30666 37.3794 4.21363 36.2864C3.1206 35.1933 2.50453 33.7122 2.5 32.1664V8.83359C2.50453 7.28782 3.1206 5.80666 4.21363 4.71363C5.30666 3.6206 6.78782 3.00453 8.33359 3H31.6664C33.2122 3.00453 34.6933 3.6206 35.7864 4.71363C36.8794 5.80666 37.4955 7.28782 37.5 8.83359ZM28.9102 25.3328C28.9102 23.6477 28.3906 20.7789 25.0781 20.0711V20.0141C26.868 19.25 27.9953 17.807 27.9953 15.6672C27.9953 15.1203 28.1516 10.6062 21.9328 10.6062H12.0109V31.0227C22.0289 31.0227 22.9383 31.1539 24.7922 30.5766C25.9023 30.2313 28.9102 29.1719 28.9102 25.3328Z" fill="white"/>
<path d="M61.275 26.825L59.1 29H50.475V16.025L52.65 13.9H50.175V11.725H57.25L59.425 13.9V16.975L57.9 18.5H59.425L61.275 20.35V26.825ZM56.95 18.5V13.9H52.95V20.35L54.775 18.5H56.95ZM58.8 26.825V20.35H52.95V26.825H58.8ZM73.8158 26.825L71.6658 29H67.0408L64.8908 26.825V18.2L67.0408 16.025H71.6658L73.8158 18.2V26.825ZM71.3658 26.825V18.2H67.3658V26.825H71.3658ZM86.5844 26.825L84.4344 29H79.8094L77.6594 26.825V18.2L79.8094 16.025H84.4344L86.5844 18.2V26.825ZM84.1344 26.825V18.2H80.1344V26.825H84.1344ZM97.0029 16.025L94.8279 18.2H93.2779V26.825H96.3529V29H92.9779L90.8029 26.825V18.2H87.7279L89.9029 16.025H90.8029V14.2L93.2779 11.725V16.025H97.0029ZM106.182 18.2H100.007V20.35H103.407L105.582 22.525V26.825L103.407 29H97.5316V26.825H103.107V22.525H99.7066L97.5316 20.35V18.2L99.7066 16.025H103.982L106.182 18.2ZM114.972 16.025L112.797 18.2H111.247V26.825H114.322V29H110.947L108.772 26.825V18.2H105.697L107.872 16.025H108.772V14.2L111.247 11.725V16.025H114.972ZM125.45 20.35L122.975 22.825V18.2H119.3V29H116.825V16.025H119.3V17.9L121.1 16.025H123.3L125.45 18.2V20.35ZM136.723 29H134.248V27.15L132.398 29H129.923L127.773 26.825V22.525L129.923 20.35H133.998L131.948 22.5H130.223V26.825H134.248V18.2H127.448L129.298 16.025H134.573L136.723 18.2V29ZM149.898 26.825L147.773 29H143.423V35.475H140.948V16.025H143.423V17.9L145.223 16.025H147.773L149.898 18.2V26.825ZM147.423 26.825V18.2H143.423V28.7L145.223 26.825H147.423Z" fill="white"/>
</svg>
