<svg width="180" height="38" viewBox="0 0 180 38" fill="none" xmlns="http://www.w3.org/2000/svg">
<path d="M19.9574 22.3714C19.9574 24.5487 17.2454 24.4984 16.9586 24.4984H11.4357V20.3045H16.9586C19.8645 20.3045 19.9574 21.9422 19.9574 22.3714ZM16.5333 18.617C16.579 18.617 19.1578 18.6683 19.1578 16.7528C19.1578 15.956 18.9182 14.9113 16.5333 14.9113H11.4357V18.617H16.5333ZM30.5881 11.8335V27.1665C30.5841 28.1823 30.0457 29.1556 29.0905 29.8739C28.1352 30.5922 26.8408 30.997 25.4898 31H5.09824C3.74732 30.997 2.45287 30.5922 1.49762 29.8739C0.54237 29.1556 0.00396272 28.1823 0 27.1665L0 11.8335C0.00396272 10.8177 0.54237 9.84438 1.49762 9.1261C2.45287 8.40782 3.74732 8.00298 5.09824 8H25.4898C26.8408 8.00298 28.1352 8.40782 29.0905 9.1261C30.0457 9.84438 30.5841 10.8177 30.5881 11.8335ZM23.081 22.6758C23.081 21.5685 22.627 19.6833 19.7321 19.2181V19.1807C21.2963 18.6786 22.2815 17.7303 22.2815 16.3242C22.2815 15.9648 22.4181 12.9984 16.9832 12.9984H8.31204V26.4149C17.0672 26.4149 17.8619 26.5011 19.4822 26.1217C20.4524 25.8948 23.081 25.1987 23.081 22.6758Z" fill="white"/>
<path d="M49.6259 18.925C50.6425 19.1083 51.4925 19.6083 52.1759 20.425C52.8759 21.2417 53.2259 22.2 53.2259 23.3C53.2259 24.2 53.0092 25.0083 52.5759 25.725C52.1592 26.425 51.5259 26.9833 50.6759 27.4C49.8425 27.8 48.8259 28 47.6259 28H42.0509V10.45H47.5259C49.2759 10.45 50.5925 10.8583 51.4759 11.675C52.3759 12.475 52.8259 13.5167 52.8259 14.8C52.8259 15.9167 52.5259 16.825 51.9259 17.525C51.3259 18.2083 50.5592 18.675 49.6259 18.925ZM43.1759 18.425H47.5759C48.8925 18.425 49.9009 18.1167 50.6009 17.5C51.3175 16.8667 51.6759 16 51.6759 14.9C51.6759 13.8333 51.3259 12.9917 50.6259 12.375C49.9259 11.7583 48.8675 11.45 47.4509 11.45H43.1759V18.425ZM47.5509 27.025C48.9675 27.025 50.0759 26.6917 50.8759 26.025C51.6925 25.3417 52.1009 24.4083 52.1009 23.225C52.1009 22.0583 51.6842 21.1333 50.8509 20.45C50.0342 19.75 48.9092 19.4 47.4759 19.4H43.1759V27.025H47.5509ZM62.5034 28.2C61.2367 28.2 60.0951 27.9167 59.0784 27.35C58.0617 26.7833 57.2617 25.975 56.6784 24.925C56.1117 23.8583 55.8284 22.6167 55.8284 21.2C55.8284 19.8 56.1201 18.575 56.7034 17.525C57.2867 16.4583 58.0867 15.65 59.1034 15.1C60.1367 14.5333 61.2867 14.25 62.5534 14.25C63.8201 14.25 64.9617 14.5333 65.9784 15.1C66.9951 15.65 67.7867 16.45 68.3534 17.5C68.9367 18.55 69.2284 19.7833 69.2284 21.2C69.2284 22.6167 68.9367 23.8583 68.3534 24.925C67.7701 25.975 66.9617 26.7833 65.9284 27.35C64.9117 27.9167 63.7701 28.2 62.5034 28.2ZM62.5034 27.2C63.4867 27.2 64.4034 26.9833 65.2534 26.55C66.1201 26.1 66.8117 25.425 67.3284 24.525C67.8451 23.625 68.1034 22.5167 68.1034 21.2C68.1034 19.9 67.8451 18.8 67.3284 17.9C66.8117 17 66.1284 16.3333 65.2784 15.9C64.4284 15.45 63.5117 15.225 62.5284 15.225C61.5451 15.225 60.6284 15.45 59.7784 15.9C58.9451 16.3333 58.2701 17 57.7534 17.9C57.2367 18.8 56.9784 19.9 56.9784 21.2C56.9784 22.5167 57.2284 23.625 57.7284 24.525C58.2451 25.425 58.9201 26.1 59.7534 26.55C60.6034 26.9833 61.5201 27.2 62.5034 27.2ZM78.6167 28.2C77.35 28.2 76.2083 27.9167 75.1917 27.35C74.175 26.7833 73.375 25.975 72.7917 24.925C72.225 23.8583 71.9417 22.6167 71.9417 21.2C71.9417 19.8 72.2333 18.575 72.8167 17.525C73.4 16.4583 74.2 15.65 75.2167 15.1C76.25 14.5333 77.4 14.25 78.6667 14.25C79.9333 14.25 81.075 14.5333 82.0917 15.1C83.1083 15.65 83.9 16.45 84.4667 17.5C85.05 18.55 85.3417 19.7833 85.3417 21.2C85.3417 22.6167 85.05 23.8583 84.4667 24.925C83.8833 25.975 83.075 26.7833 82.0417 27.35C81.025 27.9167 79.8833 28.2 78.6167 28.2ZM78.6167 27.2C79.6 27.2 80.5167 26.9833 81.3667 26.55C82.2333 26.1 82.925 25.425 83.4417 24.525C83.9583 23.625 84.2167 22.5167 84.2167 21.2C84.2167 19.9 83.9583 18.8 83.4417 17.9C82.925 17 82.2417 16.3333 81.3917 15.9C80.5417 15.45 79.625 15.225 78.6417 15.225C77.6583 15.225 76.7417 15.45 75.8917 15.9C75.0583 16.3333 74.3833 17 73.8667 17.9C73.35 18.8 73.0917 19.9 73.0917 21.2C73.0917 22.5167 73.3417 23.625 73.8417 24.525C74.3583 25.425 75.0333 26.1 75.8667 26.55C76.7167 26.9833 77.6333 27.2 78.6167 27.2ZM90.43 15.4V24.375C90.43 25.375 90.6133 26.0667 90.98 26.45C91.3466 26.8167 91.9966 27 92.93 27H94.455V28H92.755C91.5716 28 90.6966 27.725 90.13 27.175C89.58 26.6083 89.305 25.675 89.305 24.375V15.4H87.255V14.425H89.305V10.975H90.43V14.425H94.455V15.4H90.43ZM101.947 28.2C100.43 28.2 99.1886 27.8667 98.2219 27.2C97.2719 26.5333 96.7386 25.5833 96.6219 24.35H97.7719C97.8553 25.2333 98.2553 25.9333 98.9719 26.45C99.7053 26.9667 100.697 27.225 101.947 27.225C102.98 27.225 103.797 26.9667 104.397 26.45C105.014 25.9167 105.322 25.2667 105.322 24.5C105.322 23.9667 105.155 23.5333 104.822 23.2C104.505 22.85 104.105 22.5833 103.622 22.4C103.139 22.2167 102.48 22.0167 101.647 21.8C100.647 21.5333 99.8386 21.275 99.2219 21.025C98.6053 20.7583 98.0803 20.3667 97.6469 19.85C97.2136 19.3333 96.9969 18.6417 96.9969 17.775C96.9969 17.1417 97.1886 16.5583 97.5719 16.025C97.9553 15.475 98.4886 15.0417 99.1719 14.725C99.8553 14.4083 100.63 14.25 101.497 14.25C102.914 14.25 104.055 14.6083 104.922 15.325C105.805 16.025 106.28 17 106.347 18.25H105.222C105.172 17.35 104.822 16.6167 104.172 16.05C103.522 15.4833 102.622 15.2 101.472 15.2C100.505 15.2 99.7053 15.45 99.0719 15.95C98.4386 16.45 98.1219 17.0583 98.1219 17.775C98.1219 18.4083 98.2969 18.925 98.6469 19.325C99.0136 19.7083 99.4553 20.0083 99.9719 20.225C100.505 20.425 101.205 20.6417 102.072 20.875C103.022 21.125 103.78 21.375 104.347 21.625C104.93 21.8583 105.422 22.2083 105.822 22.675C106.222 23.125 106.422 23.7333 106.422 24.5C106.422 25.2 106.23 25.8333 105.847 26.4C105.464 26.9667 104.93 27.4083 104.247 27.725C103.564 28.0417 102.797 28.2 101.947 28.2ZM111.524 15.4V24.375C111.524 25.375 111.707 26.0667 112.074 26.45C112.44 26.8167 113.09 27 114.024 27H115.549V28H113.849C112.665 28 111.79 27.725 111.224 27.175C110.674 26.6083 110.399 25.675 110.399 24.375V15.4H108.349V14.425H110.399V10.975H111.524V14.425H115.549V15.4H111.524ZM119.641 17.225C119.974 16.225 120.566 15.4667 121.416 14.95C122.266 14.4167 123.349 14.15 124.666 14.15V15.325H124.291C122.957 15.325 121.849 15.7083 120.966 16.475C120.082 17.225 119.641 18.4583 119.641 20.175V28H118.516V14.425H119.641V17.225ZM126.556 21.2C126.556 19.8 126.831 18.575 127.381 17.525C127.948 16.475 128.723 15.6667 129.706 15.1C130.706 14.5333 131.839 14.25 133.106 14.25C134.539 14.25 135.756 14.6 136.756 15.3C137.756 16 138.456 16.8917 138.856 17.975V14.425H139.981V28H138.856V24.425C138.456 25.525 137.748 26.4333 136.731 27.15C135.731 27.85 134.523 28.2 133.106 28.2C131.839 28.2 130.706 27.9167 129.706 27.35C128.723 26.7667 127.948 25.95 127.381 24.9C126.831 23.8333 126.556 22.6 126.556 21.2ZM138.856 21.2C138.856 20.0167 138.606 18.975 138.106 18.075C137.623 17.1583 136.956 16.4583 136.106 15.975C135.256 15.475 134.306 15.225 133.256 15.225C132.156 15.225 131.189 15.4667 130.356 15.95C129.523 16.4167 128.873 17.1 128.406 18C127.939 18.9 127.706 19.9667 127.706 21.2C127.706 22.4333 127.939 23.5 128.406 24.4C128.873 25.3 129.523 25.9917 130.356 26.475C131.206 26.9583 132.173 27.2 133.256 27.2C134.306 27.2 135.256 26.9583 136.106 26.475C136.973 25.975 137.648 25.275 138.131 24.375C138.614 23.4583 138.856 22.4 138.856 21.2ZM145.202 18C145.586 16.9 146.277 16 147.277 15.3C148.294 14.6 149.519 14.25 150.952 14.25C152.219 14.25 153.344 14.5333 154.327 15.1C155.327 15.6667 156.102 16.475 156.652 17.525C157.219 18.575 157.502 19.8 157.502 21.2C157.502 22.6 157.219 23.8333 156.652 24.9C156.102 25.95 155.327 26.7667 154.327 27.35C153.344 27.9167 152.219 28.2 150.952 28.2C149.536 28.2 148.319 27.85 147.302 27.15C146.302 26.4333 145.602 25.5333 145.202 24.45V34.4H144.077V14.425H145.202V18ZM156.352 21.2C156.352 19.9667 156.119 18.9 155.652 18C155.186 17.1 154.527 16.4167 153.677 15.95C152.844 15.4667 151.877 15.225 150.777 15.225C149.727 15.225 148.777 15.475 147.927 15.975C147.077 16.4583 146.411 17.1583 145.927 18.075C145.444 18.975 145.202 20.0167 145.202 21.2C145.202 22.4 145.444 23.4583 145.927 24.375C146.411 25.275 147.077 25.975 147.927 26.475C148.777 26.9583 149.727 27.2 150.777 27.2C151.877 27.2 152.844 26.9583 153.677 26.475C154.527 25.9917 155.186 25.3 155.652 24.4C156.119 23.5 156.352 22.4333 156.352 21.2Z" fill="white"/>
</svg>
