<svg width="147" height="29" viewBox="0 0 147 29" fill="none" xmlns="http://www.w3.org/2000/svg">
<path d="M13.6639 1.0009C14.8485 2.60039 13.287 4.71716 12.0398 5.90014C10.8304 7.04713 9.35931 8.00611 8.02281 9.04785C6.57539 10.1481 5.26689 11.3292 4.08655 12.5968L4.03055 12.6598C2.14588 14.5255 1 16.9563 1 19.611C1 20.4134 1.10446 21.1961 1.3037 21.9491L1.28755 21.8771C2.49696 25.0239 5.64167 27.3746 9.52193 27.9719L9.58762 27.98C7.51772 27.236 6.04983 25.623 5.83444 23.706L5.83229 23.6853C5.97229 21.6738 7.2711 19.9384 9.17407 18.9264L9.20315 18.912C9.07715 19.1576 9.00391 19.4428 9.00391 19.7423C9.00391 20.1741 9.15577 20.5772 9.41747 20.9145L9.411 20.9064C9.82132 21.3724 10.475 21.6711 11.2127 21.6711C12.4437 21.6711 13.442 20.8372 13.442 19.8089C13.442 19.2206 13.1157 18.6961 12.6052 18.3551L12.6009 18.3524C11.4389 17.5788 10.7001 16.3967 10.7001 15.0707C10.7001 14.889 10.7141 14.71 10.741 14.5345L10.7389 14.5552C10.9984 13.7474 11.5283 13.0619 12.2412 12.5509L12.2477 12.5464C11.6963 13.7582 13.2633 14.9519 14.2971 15.5484C16.3832 16.5757 18.1472 17.5734 19.8348 18.6511L19.7024 18.5702C21.39 19.6551 22.4669 21.3436 22.4669 23.2427C22.4669 23.3533 22.4637 23.4622 22.4561 23.571L22.4572 23.5558C22.0049 25.6581 20.2139 27.3359 17.8619 27.9692L17.8134 27.98C22.6877 27.0804 27.7257 23.9219 27.8258 19.4059C27.9508 15.9973 25.2648 12.9791 20.8838 11.1052C20.971 11.2402 21.0227 11.4012 21.0227 11.5712C21.0227 11.7853 20.9419 11.9842 20.803 12.147L20.8052 12.1443C20.3776 12.6984 19.6431 13.0601 18.8063 13.0601C18.0783 13.0601 17.4268 12.7857 16.9928 12.3539L16.9895 12.3512C15.3676 10.6114 17.0229 8.73569 17.2545 6.8933C17.2566 6.83213 17.2577 6.76106 17.2577 6.68909C17.2577 4.33573 15.8447 2.25765 13.6887 1.01529L13.6607 1L13.6639 1.0009Z" fill="white" stroke="white" stroke-width="0.3"/>
<path d="M43.3 22.2C41.7933 22.2 40.48 21.9 39.36 21.3C38.24 20.6867 37.3733 19.8533 36.76 18.8C36.16 17.7467 35.86 16.5467 35.86 15.2C35.86 14.1867 36.04 13.2333 36.4 12.34C36.7733 11.4467 37.3 10.66 37.98 9.98C38.6733 9.3 39.5 8.76667 40.46 8.38C41.42 7.99333 42.4867 7.8 43.66 7.8C44.58 7.8 45.42 7.89333 46.18 8.08C46.94 8.26667 47.7 8.54667 48.46 8.92V11.6H47.78C47.54 10.6533 47.0267 9.93333 46.24 9.44C45.4533 8.94667 44.4867 8.7 43.34 8.7C42.18 8.7 41.1933 8.96667 40.38 9.5C39.5667 10.02 38.9467 10.7267 38.52 11.62C38.0933 12.5133 37.88 13.5333 37.88 14.68C37.88 15.4933 38 16.2933 38.24 17.08C38.4933 17.8667 38.86 18.58 39.34 19.22C39.82 19.86 40.4133 20.3667 41.12 20.74C41.84 21.1133 42.6667 21.3 43.6 21.3C44.2533 21.3 44.8267 21.2267 45.32 21.08C45.8267 20.92 46.26 20.6 46.62 20.12C46.9933 19.64 47.3133 18.9267 47.58 17.98H48.26V21.16C47.3133 21.5333 46.4267 21.8 45.6 21.96C44.7733 22.12 44.0067 22.2 43.3 22.2ZM55.5359 22.2C54.4693 22.2 53.5293 21.9733 52.7159 21.52C51.9026 21.0667 51.2693 20.4333 50.8159 19.62C50.3626 18.8067 50.1359 17.8667 50.1359 16.8C50.1359 15.76 50.3626 14.8333 50.8159 14.02C51.2693 13.2067 51.8959 12.5667 52.6959 12.1C53.5093 11.6333 54.4559 11.4 55.5359 11.4C56.6159 11.4 57.5626 11.6267 58.3759 12.08C59.1893 12.5333 59.8226 13.1667 60.2759 13.98C60.7293 14.78 60.9559 15.7133 60.9559 16.78C60.9559 17.82 60.7293 18.7467 60.2759 19.56C59.8226 20.3733 59.1893 21.02 58.3759 21.5C57.5759 21.9667 56.6293 22.2 55.5359 22.2ZM55.8959 21.32C56.8159 21.32 57.5626 20.9867 58.1359 20.32C58.7226 19.64 59.0159 18.64 59.0159 17.32C59.0159 16.4 58.8626 15.56 58.5559 14.8C58.2626 14.0267 57.8293 13.4133 57.2559 12.96C56.6959 12.5067 56.0093 12.28 55.1959 12.28C54.2759 12.28 53.5226 12.62 52.9359 13.3C52.3626 13.9667 52.0759 14.9667 52.0759 16.3C52.0759 17.2067 52.2226 18.0467 52.5159 18.82C52.8226 19.58 53.2559 20.1867 53.8159 20.64C54.3893 21.0933 55.0826 21.32 55.8959 21.32ZM67.1978 22.2C66.3045 22.2 65.5045 21.98 64.7978 21.54C64.0911 21.1 63.5378 20.4933 63.1378 19.72C62.7511 18.9333 62.5578 18.04 62.5578 17.04C62.5578 15.96 62.7911 15 63.2578 14.16C63.7378 13.3067 64.3845 12.6333 65.1978 12.14C66.0111 11.6467 66.9245 11.4 67.9378 11.4C68.4311 11.4 68.9045 11.4533 69.3578 11.56C69.8245 11.6667 70.2645 11.86 70.6778 12.14V8.7C70.6778 8.24667 70.5645 7.94 70.3378 7.78C70.1245 7.62 69.7178 7.50667 69.1178 7.44V6.88L72.1978 6H72.4778V19.42C72.4778 19.8333 72.5645 20.14 72.7378 20.34C72.9245 20.5267 73.3378 20.6533 73.9778 20.72L74.0778 20.74V21.32L71.0178 22.04H70.7378V20.66H70.5578C70.1711 21.06 69.7978 21.3733 69.4378 21.6C69.0778 21.8267 68.7178 21.98 68.3578 22.06C67.9978 22.1533 67.6111 22.2 67.1978 22.2ZM68.1378 20.8C68.6178 20.8 69.0645 20.7267 69.4778 20.58C69.9045 20.4333 70.3045 20.1733 70.6778 19.8V15.16C70.6778 14.48 70.5378 13.9267 70.2578 13.5C69.9778 13.0733 69.6178 12.76 69.1778 12.56C68.7511 12.36 68.2911 12.26 67.7978 12.26C66.7045 12.26 65.8711 12.6067 65.2978 13.3C64.7245 13.9933 64.4378 14.9867 64.4378 16.28C64.4378 17.16 64.5911 17.9467 64.8978 18.64C65.2178 19.32 65.6511 19.8533 66.1978 20.24C66.7578 20.6133 67.4045 20.8 68.1378 20.8ZM80.1741 22.2C79.1874 22.2 78.3207 21.9733 77.5741 21.52C76.8274 21.0533 76.2474 20.42 75.8341 19.62C75.4207 18.82 75.2141 17.92 75.2141 16.92C75.2141 15.8533 75.4474 14.9067 75.9141 14.08C76.3941 13.2533 77.0341 12.6 77.8341 12.12C78.6341 11.64 79.5207 11.4 80.4941 11.4C81.5341 11.4 82.3741 11.7 83.0141 12.3C83.6541 12.9 83.9741 13.7733 83.9741 14.92C83.9741 15 83.9741 15.0867 83.9741 15.18C83.9741 15.26 83.9607 15.3733 83.9341 15.52L83.8941 15.8H76.7341V15H81.9941C82.0341 14.76 82.0541 14.5333 82.0541 14.32C82.0541 13.6933 81.8807 13.1933 81.5341 12.82C81.2007 12.4467 80.7207 12.26 80.0941 12.26C79.1741 12.26 78.4341 12.62 77.8741 13.34C77.3141 14.0467 77.0341 14.9867 77.0341 16.16C77.0341 17.0267 77.2007 17.8067 77.5341 18.5C77.8674 19.1933 78.3407 19.74 78.9541 20.14C79.5674 20.5267 80.2941 20.72 81.1341 20.72C81.5874 20.72 82.0341 20.6467 82.4741 20.5C82.9141 20.34 83.3674 20.0867 83.8341 19.74L84.2341 20.12C83.6207 20.8533 82.9941 21.3867 82.3541 21.72C81.7141 22.04 80.9874 22.2 80.1741 22.2ZM85.4619 22V21.34L86.0019 21.26C86.4285 21.1933 86.7085 21.0733 86.8419 20.9C86.9885 20.7267 87.0619 20.4333 87.0619 20.02V14.18C87.0619 13.7267 86.9485 13.42 86.7219 13.26C86.5085 13.1 86.1019 12.9867 85.5019 12.92V12.36L88.5819 11.48H88.8619V20.02C88.8619 20.4333 88.9285 20.7267 89.0619 20.9C89.2085 21.0733 89.4952 21.1933 89.9219 21.26L90.4619 21.34V22H85.4619ZM87.7619 9.94C87.4285 9.94 87.1485 9.83333 86.9219 9.62C86.6952 9.39333 86.5819 9.10667 86.5819 8.76C86.5819 8.41333 86.6952 8.13333 86.9219 7.92C87.1485 7.70667 87.4285 7.6 87.7619 7.6C88.0819 7.6 88.3552 7.70667 88.5819 7.92C88.8085 8.13333 88.9219 8.41333 88.9219 8.76C88.9219 9.10667 88.8085 9.39333 88.5819 9.62C88.3552 9.83333 88.0819 9.94 87.7619 9.94ZM95.2394 27.14C94.106 27.14 93.1927 26.9133 92.4994 26.46C91.8194 26.0067 91.4794 25.42 91.4794 24.7C91.4794 24.42 91.5527 24.1 91.6994 23.74C91.8594 23.3933 92.166 22.9933 92.6194 22.54L93.7194 21.44L94.5394 21.56C94.0727 22.0933 93.7127 22.5267 93.4594 22.86C93.2194 23.1933 93.0994 23.5533 93.0994 23.94C93.0994 24.54 93.3794 24.9933 93.9394 25.3C94.4994 25.6067 95.2594 25.76 96.2194 25.76C97.366 25.76 98.2594 25.5467 98.8994 25.12C99.5394 24.6933 99.8594 24.1333 99.8594 23.44C99.8594 23 99.7127 22.68 99.4194 22.48C99.126 22.28 98.606 22.1533 97.8594 22.1L94.1194 21.82C93.4527 21.7667 92.9194 21.6133 92.5194 21.36C92.1327 21.0933 91.9394 20.7533 91.9394 20.34C91.9394 19.9933 92.0594 19.7067 92.2994 19.48C92.5394 19.2533 92.846 18.9667 93.2194 18.62L93.8394 18.02H94.7394L94.1394 18.7C93.926 18.9267 93.786 19.0933 93.7194 19.2C93.666 19.2933 93.6394 19.3933 93.6394 19.5C93.6394 19.6733 93.7127 19.8133 93.8594 19.92C94.006 20.0133 94.2527 20.0733 94.5994 20.1L98.3594 20.42C100.066 20.5533 100.919 21.32 100.919 22.72C100.919 23.5467 100.659 24.2933 100.139 24.96C99.6327 25.6267 98.946 26.1533 98.0794 26.54C97.226 26.94 96.2794 27.14 95.2394 27.14ZM95.6394 18.48C94.8794 18.48 94.206 18.3333 93.6194 18.04C93.0327 17.7333 92.5727 17.3133 92.2394 16.78C91.906 16.2467 91.7394 15.6333 91.7394 14.94C91.7394 14.26 91.906 13.6533 92.2394 13.12C92.586 12.5867 93.0527 12.1667 93.6394 11.86C94.2394 11.5533 94.9194 11.4 95.6794 11.4L96.5794 11.56C97.4594 11.7067 98.1794 12.08 98.7394 12.68C99.2994 13.2667 99.5794 14.0067 99.5794 14.9C99.5794 15.58 99.406 16.1933 99.0594 16.74C98.726 17.2733 98.2594 17.7 97.6594 18.02C97.0727 18.3267 96.3994 18.48 95.6394 18.48ZM95.8394 17.64C96.466 17.64 96.9527 17.4333 97.2994 17.02C97.646 16.5933 97.8194 15.9933 97.8194 15.22C97.8194 14.6467 97.726 14.14 97.5394 13.7C97.3527 13.2467 97.086 12.8933 96.7394 12.64C96.3927 12.3733 95.9727 12.24 95.4794 12.24C94.8527 12.24 94.366 12.4533 94.0194 12.88C93.6727 13.2933 93.4994 13.8933 93.4994 14.68C93.4994 15.24 93.586 15.7467 93.7594 16.2C93.946 16.64 94.2127 16.9933 94.5594 17.26C94.9194 17.5133 95.346 17.64 95.8394 17.64ZM95.6794 11.76V11.4L100.579 10.46H101.019V11.76H95.6794ZM101.751 22V21.34L102.291 21.26C102.718 21.1933 102.998 21.0733 103.131 20.9C103.278 20.7267 103.351 20.4333 103.351 20.02V14.18C103.351 13.7267 103.238 13.42 103.011 13.26C102.798 13.1 102.391 12.9867 101.791 12.92V12.36L104.811 11.48H105.091V12.94H105.211C105.851 12.38 106.444 11.9867 106.991 11.76C107.538 11.52 108.178 11.4 108.911 11.4C109.858 11.4 110.598 11.64 111.131 12.12C111.678 12.5867 111.951 13.2533 111.951 14.12V20.02C111.951 20.4333 112.018 20.7267 112.151 20.9C112.298 21.0733 112.584 21.1933 113.011 21.26L113.551 21.34V22H108.551V21.34L109.091 21.26C109.518 21.1933 109.798 21.0733 109.931 20.9C110.078 20.7267 110.151 20.4333 110.151 20.02V14.78C110.151 14.2733 110.058 13.8733 109.871 13.58C109.684 13.2733 109.418 13.0533 109.071 12.92C108.738 12.7733 108.318 12.7 107.811 12.7C107.278 12.7 106.804 12.7867 106.391 12.96C105.991 13.1333 105.578 13.4 105.151 13.76V20.02C105.151 20.4333 105.218 20.7267 105.351 20.9C105.498 21.0733 105.784 21.1933 106.211 21.26L106.751 21.34V22H101.751ZM114.427 22V21.34L114.967 21.26C115.393 21.1933 115.673 21.0733 115.807 20.9C115.953 20.7267 116.027 20.4333 116.027 20.02V14.18C116.027 13.7267 115.913 13.42 115.687 13.26C115.473 13.1 115.067 12.9867 114.467 12.92V12.36L117.547 11.48H117.827V20.02C117.827 20.4333 117.893 20.7267 118.027 20.9C118.173 21.0733 118.46 21.1933 118.887 21.26L119.427 21.34V22H114.427ZM116.727 9.94C116.393 9.94 116.113 9.83333 115.887 9.62C115.66 9.39333 115.547 9.10667 115.547 8.76C115.547 8.41333 115.66 8.13333 115.887 7.92C116.113 7.70667 116.393 7.6 116.727 7.6C117.047 7.6 117.32 7.70667 117.547 7.92C117.773 8.13333 117.887 8.41333 117.887 8.76C117.887 9.10667 117.773 9.39333 117.547 9.62C117.32 9.83333 117.047 9.94 116.727 9.94ZM124.304 22.2C123.478 22.2 122.818 21.9867 122.324 21.56C121.844 21.1333 121.604 20.44 121.604 19.48V12.86H120.344V12.18C121.344 11.62 122.144 10.8667 122.744 9.92H123.424V11.56V12.14V18.9C123.424 19.42 123.511 19.8133 123.684 20.08C123.858 20.3467 124.091 20.5267 124.384 20.62C124.691 20.7 125.024 20.74 125.384 20.74C125.798 20.74 126.178 20.68 126.524 20.56C126.871 20.4267 127.184 20.28 127.464 20.12L127.824 20.54C127.398 20.98 126.884 21.3667 126.284 21.7C125.684 22.0333 125.024 22.2 124.304 22.2ZM122.544 12.86V11.6H127.604V11.96L127.084 12.86H122.544ZM133.319 22.2C132.332 22.2 131.465 21.9733 130.719 21.52C129.972 21.0533 129.392 20.42 128.979 19.62C128.565 18.82 128.359 17.92 128.359 16.92C128.359 15.8533 128.592 14.9067 129.059 14.08C129.539 13.2533 130.179 12.6 130.979 12.12C131.779 11.64 132.665 11.4 133.639 11.4C134.679 11.4 135.519 11.7 136.159 12.3C136.799 12.9 137.119 13.7733 137.119 14.92C137.119 15 137.119 15.0867 137.119 15.18C137.119 15.26 137.105 15.3733 137.079 15.52L137.039 15.8H129.879V15H135.139C135.179 14.76 135.199 14.5333 135.199 14.32C135.199 13.6933 135.025 13.1933 134.679 12.82C134.345 12.4467 133.865 12.26 133.239 12.26C132.319 12.26 131.579 12.62 131.019 13.34C130.459 14.0467 130.179 14.9867 130.179 16.16C130.179 17.0267 130.345 17.8067 130.679 18.5C131.012 19.1933 131.485 19.74 132.099 20.14C132.712 20.5267 133.439 20.72 134.279 20.72C134.732 20.72 135.179 20.6467 135.619 20.5C136.059 20.34 136.512 20.0867 136.979 19.74L137.379 20.12C136.765 20.8533 136.139 21.3867 135.499 21.72C134.859 22.04 134.132 22.2 133.319 22.2ZM138.606 22V21.34L139.146 21.26C139.573 21.1933 139.853 21.08 139.986 20.92C140.133 20.7467 140.206 20.4467 140.206 20.02V14.18C140.206 13.74 140.1 13.44 139.886 13.28C139.673 13.1067 139.26 12.9867 138.646 12.92V12.36L141.666 11.48H141.946V13.08H142.126C142.446 12.6267 142.846 12.24 143.326 11.92C143.806 11.6 144.373 11.44 145.026 11.44C145.506 11.44 145.866 11.54 146.106 11.74C146.36 11.9267 146.486 12.1867 146.486 12.52C146.486 12.7467 146.4 12.9467 146.226 13.12C146.053 13.2933 145.853 13.4133 145.626 13.48C145.4 13.5333 145.18 13.5 144.966 13.38L144.066 12.86C143.893 12.7533 143.693 12.7533 143.466 12.86C143.24 12.9667 143.02 13.1133 142.806 13.3C142.593 13.4867 142.413 13.6733 142.266 13.86C142.12 14.0467 142.033 14.1733 142.006 14.24V20.02C142.006 20.4467 142.086 20.7467 142.246 20.92C142.406 21.08 142.726 21.1867 143.206 21.24L144.006 21.34V22H138.606Z" fill="white"/>
</svg>
