<svg width="181" height="38" viewBox="0 0 181 38" fill="none" xmlns="http://www.w3.org/2000/svg">
<path d="M12.0946 8.00077C13.1324 9.36312 11.7644 11.1661 10.6718 12.1737C9.61224 13.1506 8.32342 13.9674 7.15254 14.8547C5.88448 15.7918 4.73813 16.7979 3.70406 17.8775L3.655 17.9311C2.00388 19.5203 1 21.5906 1 23.8518C1 24.5352 1.09152 25.2019 1.26607 25.8432L1.25191 25.7819C2.31146 28.4622 5.06647 30.4643 8.46589 30.9731L8.52344 30.98C6.71004 30.3463 5.42406 28.9725 5.23536 27.3396L5.23347 27.322C5.35612 25.6087 6.49398 24.1307 8.16114 23.2687L8.18661 23.2564C8.07623 23.4656 8.01207 23.7085 8.01207 23.9636C8.01207 24.3314 8.1451 24.6747 8.37437 24.962L8.36871 24.9551C8.72818 25.352 9.30088 25.6064 9.94718 25.6064C11.0256 25.6064 11.9002 24.8961 11.9002 24.0203C11.9002 23.5192 11.6143 23.0725 11.1671 22.7821L11.1633 22.7798C10.1453 22.1208 9.49808 21.114 9.49808 19.9846C9.49808 19.8298 9.51034 19.6773 9.53393 19.5279L9.53204 19.5456C9.75942 18.8575 10.2236 18.2736 10.8482 17.8384L10.8539 17.8346C10.3708 18.8667 11.7436 19.8835 12.6494 20.3915C14.4769 21.2665 16.0224 22.1163 17.5008 23.0342L17.3848 22.9652C18.8632 23.8893 19.8067 25.3275 19.8067 26.945C19.8067 27.0393 19.8039 27.132 19.7973 27.2247L19.7982 27.2117C19.402 29.0024 17.8329 30.4314 15.7723 30.9708L15.7299 30.98C20.0001 30.2138 24.4138 27.5235 24.5016 23.6771C24.611 20.7738 22.2579 18.2031 18.4198 16.6071C18.4962 16.722 18.5415 16.8591 18.5415 17.004C18.5415 17.1863 18.4707 17.3557 18.349 17.4944L18.3509 17.4921C17.9763 17.9641 17.3329 18.2721 16.5998 18.2721C15.962 18.2721 15.3912 18.0384 15.0109 17.6706L15.0081 17.6683C13.5872 16.1864 15.0373 14.5888 15.2402 13.0196C15.2421 12.9675 15.243 12.9069 15.243 12.8456C15.243 10.8412 14.0052 9.07119 12.1163 8.01303L12.0917 8L12.0946 8.00077Z" fill="white" stroke="white" stroke-width="0.3"/>
<path d="M34.0901 19.25C34.0901 17.5167 34.4485 15.975 35.1651 14.625C35.8985 13.2583 36.8985 12.1917 38.1651 11.425C39.4485 10.6583 40.8818 10.275 42.4651 10.275C44.4651 10.275 46.1485 10.7417 47.5151 11.675C48.8818 12.6083 49.8818 13.9167 50.5151 15.6H49.2151C48.7151 14.2667 47.8818 13.2167 46.7151 12.45C45.5651 11.6667 44.1485 11.275 42.4651 11.275C41.1151 11.275 39.8901 11.6 38.7901 12.25C37.6901 12.8833 36.8235 13.8083 36.1901 15.025C35.5568 16.225 35.2401 17.6333 35.2401 19.25C35.2401 20.85 35.5568 22.25 36.1901 23.45C36.8235 24.6333 37.6901 25.55 38.7901 26.2C39.8901 26.85 41.1151 27.175 42.4651 27.175C44.1485 27.175 45.5651 26.7917 46.7151 26.025C47.8818 25.2417 48.7151 24.1833 49.2151 22.85H50.5151C49.8818 24.5333 48.8818 25.8417 47.5151 26.775C46.1485 27.7083 44.4651 28.175 42.4651 28.175C40.8818 28.175 39.4485 27.8 38.1651 27.05C36.8985 26.2833 35.8985 25.225 35.1651 23.875C34.4485 22.5083 34.0901 20.9667 34.0901 19.25ZM60.0034 28.2C58.7368 28.2 57.5951 27.9167 56.5784 27.35C55.5618 26.7833 54.7618 25.975 54.1784 24.925C53.6118 23.8583 53.3284 22.6167 53.3284 21.2C53.3284 19.8 53.6201 18.575 54.2034 17.525C54.7868 16.4583 55.5868 15.65 56.6034 15.1C57.6368 14.5333 58.7868 14.25 60.0534 14.25C61.3201 14.25 62.4618 14.5333 63.4784 15.1C64.4951 15.65 65.2868 16.45 65.8534 17.5C66.4368 18.55 66.7284 19.7833 66.7284 21.2C66.7284 22.6167 66.4368 23.8583 65.8534 24.925C65.2701 25.975 64.4618 26.7833 63.4284 27.35C62.4118 27.9167 61.2701 28.2 60.0034 28.2ZM60.0034 27.2C60.9868 27.2 61.9034 26.9833 62.7534 26.55C63.6201 26.1 64.3118 25.425 64.8284 24.525C65.3451 23.625 65.6034 22.5167 65.6034 21.2C65.6034 19.9 65.3451 18.8 64.8284 17.9C64.3118 17 63.6284 16.3333 62.7784 15.9C61.9284 15.45 61.0118 15.225 60.0284 15.225C59.0451 15.225 58.1284 15.45 57.2784 15.9C56.4451 16.3333 55.7701 17 55.2534 17.9C54.7368 18.8 54.4784 19.9 54.4784 21.2C54.4784 22.5167 54.7284 23.625 55.2284 24.525C55.7451 25.425 56.4201 26.1 57.2534 26.55C58.1034 26.9833 59.0201 27.2 60.0034 27.2ZM69.4417 21.2C69.4417 19.8 69.7167 18.575 70.2667 17.525C70.8334 16.475 71.6084 15.6667 72.5917 15.1C73.5917 14.5333 74.725 14.25 75.9917 14.25C77.375 14.25 78.575 14.6 79.5917 15.3C80.6084 15.9833 81.325 16.875 81.7417 17.975V9.5H82.8667V28H81.7417V24.4C81.3417 25.5167 80.6417 26.4333 79.6417 27.15C78.6417 27.85 77.425 28.2 75.9917 28.2C74.725 28.2 73.5917 27.9167 72.5917 27.35C71.6084 26.7667 70.8334 25.95 70.2667 24.9C69.7167 23.8333 69.4417 22.6 69.4417 21.2ZM81.7417 21.2C81.7417 20.0167 81.4917 18.975 80.9917 18.075C80.5084 17.1583 79.8417 16.4583 78.9917 15.975C78.1417 15.475 77.1917 15.225 76.1417 15.225C75.0417 15.225 74.075 15.4667 73.2417 15.95C72.4084 16.4167 71.7584 17.1 71.2917 18C70.825 18.9 70.5917 19.9667 70.5917 21.2C70.5917 22.4333 70.825 23.5 71.2917 24.4C71.7584 25.3 72.4084 25.9917 73.2417 26.475C74.0917 26.9583 75.0584 27.2 76.1417 27.2C77.1917 27.2 78.1417 26.9583 78.9917 26.475C79.8584 25.975 80.5334 25.275 81.0167 24.375C81.5 23.4583 81.7417 22.4 81.7417 21.2ZM99.188 20.3C99.188 20.9 99.1713 21.35 99.138 21.65H87.413C87.4463 22.8667 87.713 23.8917 88.213 24.725C88.713 25.5583 89.3713 26.1833 90.188 26.6C91.0047 27.0167 91.8963 27.225 92.863 27.225C94.1963 27.225 95.313 26.9 96.213 26.25C97.113 25.5833 97.6797 24.6833 97.913 23.55H99.088C98.8213 24.9333 98.138 26.0583 97.038 26.925C95.938 27.775 94.5463 28.2 92.863 28.2C91.5963 28.2 90.463 27.9167 89.463 27.35C88.463 26.7833 87.6797 25.975 87.113 24.925C86.5463 23.8583 86.263 22.6167 86.263 21.2C86.263 19.7833 86.538 18.55 87.088 17.5C87.6547 16.45 88.438 15.65 89.438 15.1C90.438 14.5333 91.5797 14.25 92.863 14.25C94.163 14.25 95.288 14.5333 96.238 15.1C97.2047 15.65 97.938 16.3917 98.438 17.325C98.938 18.2417 99.188 19.2333 99.188 20.3ZM98.063 20.725C98.113 19.525 97.8963 18.5083 97.413 17.675C96.9463 16.8417 96.3047 16.225 95.488 15.825C94.6713 15.4083 93.788 15.2 92.838 15.2C91.888 15.2 91.0047 15.4083 90.188 15.825C89.388 16.225 88.7297 16.8417 88.213 17.675C87.713 18.5083 87.4463 19.525 87.413 20.725H98.063ZM103.163 11.4C102.896 11.4 102.671 11.3167 102.488 11.15C102.305 10.9667 102.213 10.725 102.213 10.425C102.213 10.1417 102.305 9.90833 102.488 9.725C102.671 9.54167 102.896 9.45 103.163 9.45C103.43 9.45 103.655 9.54167 103.838 9.725C104.021 9.90833 104.113 10.1417 104.113 10.425C104.113 10.725 104.021 10.9667 103.838 11.15C103.655 11.3167 103.43 11.4 103.163 11.4ZM103.713 14.425V28H102.588V14.425H103.713ZM113.687 14.25C115.12 14.25 116.337 14.6 117.337 15.3C118.337 15.9833 119.037 16.8667 119.437 17.95V14.425H120.562V28.425C120.562 29.675 120.287 30.7667 119.737 31.7C119.187 32.65 118.445 33.375 117.512 33.875C116.579 34.3917 115.537 34.65 114.387 34.65C112.687 34.65 111.279 34.2417 110.162 33.425C109.045 32.6083 108.312 31.5083 107.962 30.125H109.087C109.42 31.2083 110.045 32.0667 110.962 32.7C111.879 33.35 113.02 33.675 114.387 33.675C115.337 33.675 116.195 33.4583 116.962 33.025C117.729 32.6083 118.329 32 118.762 31.2C119.212 30.4167 119.437 29.4917 119.437 28.425V24.45C119.037 25.5333 118.329 26.4333 117.312 27.15C116.312 27.85 115.104 28.2 113.687 28.2C112.42 28.2 111.287 27.9167 110.287 27.35C109.304 26.7667 108.529 25.95 107.962 24.9C107.412 23.8333 107.137 22.6 107.137 21.2C107.137 19.8 107.412 18.575 107.962 17.525C108.529 16.475 109.304 15.6667 110.287 15.1C111.287 14.5333 112.42 14.25 113.687 14.25ZM119.437 21.2C119.437 20.0167 119.187 18.975 118.687 18.075C118.204 17.1583 117.537 16.4583 116.687 15.975C115.837 15.475 114.887 15.225 113.837 15.225C112.737 15.225 111.77 15.4667 110.937 15.95C110.104 16.4167 109.454 17.1 108.987 18C108.52 18.9 108.287 19.9667 108.287 21.2C108.287 22.4333 108.52 23.5 108.987 24.4C109.454 25.3 110.104 25.9917 110.937 26.475C111.787 26.9583 112.754 27.2 113.837 27.2C114.887 27.2 115.837 26.9583 116.687 26.475C117.554 25.975 118.229 25.275 118.712 24.375C119.195 23.4583 119.437 22.4 119.437 21.2ZM130.783 14.15C132.4 14.15 133.717 14.65 134.733 15.65C135.75 16.6333 136.258 18.1 136.258 20.05V28H135.158V20.125C135.158 18.5083 134.75 17.275 133.933 16.425C133.117 15.5583 132.008 15.125 130.608 15.125C129.142 15.125 127.967 15.5917 127.083 16.525C126.217 17.4583 125.783 18.8417 125.783 20.675V28H124.658V14.425H125.783V17.3C126.167 16.2833 126.8 15.5083 127.683 14.975C128.583 14.425 129.617 14.15 130.783 14.15ZM140.809 11.4C140.543 11.4 140.318 11.3167 140.134 11.15C139.951 10.9667 139.859 10.725 139.859 10.425C139.859 10.1417 139.951 9.90833 140.134 9.725C140.318 9.54167 140.543 9.45 140.809 9.45C141.076 9.45 141.301 9.54167 141.484 9.725C141.668 9.90833 141.759 10.1417 141.759 10.425C141.759 10.725 141.668 10.9667 141.484 11.15C141.301 11.3167 141.076 11.4 140.809 11.4ZM141.359 14.425V28H140.234V14.425H141.359ZM147.159 15.4V24.375C147.159 25.375 147.342 26.0667 147.709 26.45C148.075 26.8167 148.725 27 149.659 27H151.184V28H149.484C148.3 28 147.425 27.725 146.859 27.175C146.309 26.6083 146.034 25.675 146.034 24.375V15.4H143.984V14.425H146.034V10.975H147.159V14.425H151.184V15.4H147.159ZM166.375 20.3C166.375 20.9 166.359 21.35 166.325 21.65H154.6C154.634 22.8667 154.9 23.8917 155.4 24.725C155.9 25.5583 156.559 26.1833 157.375 26.6C158.192 27.0167 159.084 27.225 160.05 27.225C161.384 27.225 162.5 26.9 163.4 26.25C164.3 25.5833 164.867 24.6833 165.1 23.55H166.275C166.009 24.9333 165.325 26.0583 164.225 26.925C163.125 27.775 161.734 28.2 160.05 28.2C158.784 28.2 157.65 27.9167 156.65 27.35C155.65 26.7833 154.867 25.975 154.3 24.925C153.734 23.8583 153.45 22.6167 153.45 21.2C153.45 19.7833 153.725 18.55 154.275 17.5C154.842 16.45 155.625 15.65 156.625 15.1C157.625 14.5333 158.767 14.25 160.05 14.25C161.35 14.25 162.475 14.5333 163.425 15.1C164.392 15.65 165.125 16.3917 165.625 17.325C166.125 18.2417 166.375 19.2333 166.375 20.3ZM165.25 20.725C165.3 19.525 165.084 18.5083 164.6 17.675C164.134 16.8417 163.492 16.225 162.675 15.825C161.859 15.4083 160.975 15.2 160.025 15.2C159.075 15.2 158.192 15.4083 157.375 15.825C156.575 16.225 155.917 16.8417 155.4 17.675C154.9 18.5083 154.634 19.525 154.6 20.725H165.25ZM170.9 17.225C171.234 16.225 171.825 15.4667 172.675 14.95C173.525 14.4167 174.609 14.15 175.925 14.15V15.325H175.55C174.217 15.325 173.109 15.7083 172.225 16.475C171.342 17.225 170.9 18.4583 170.9 20.175V28H169.775V14.425H170.9V17.225Z" fill="white"/>
</svg>
