<svg width="176" height="38" viewBox="0 0 176 38" fill="none" xmlns="http://www.w3.org/2000/svg">
<path d="M11.7759 8.00077C12.7839 9.36312 11.4551 11.1661 10.3939 12.1737C9.36484 13.1506 8.11305 13.9674 6.9758 14.8547C5.74417 15.7918 4.63075 16.7979 3.62638 17.8775L3.57873 17.9311C1.97504 19.5203 1 21.5906 1 23.8518C1 24.5352 1.08889 25.2019 1.25842 25.8432L1.24468 25.7819C2.27379 28.4622 4.94966 30.4643 8.25142 30.9731L8.30732 30.98C6.54601 30.3463 5.29697 28.9725 5.11369 27.3396L5.11186 27.322C5.23099 25.6087 6.33616 24.1307 7.95543 23.2687L7.98017 23.2564C7.87295 23.4656 7.81064 23.7085 7.81064 23.9636C7.81064 24.3314 7.93985 24.6747 8.16253 24.962L8.15703 24.9551C8.50618 25.352 9.06243 25.6064 9.69016 25.6064C10.7376 25.6064 11.5871 24.8961 11.5871 24.0203C11.5871 23.5192 11.3094 23.0725 10.8751 22.7821L10.8714 22.7798C9.8826 22.1208 9.25396 21.114 9.25396 19.9846C9.25396 19.8298 9.26587 19.6773 9.28878 19.5279L9.28695 19.5456C9.5078 18.8575 9.95866 18.2736 10.5653 17.8384L10.5708 17.8346C10.1016 18.8667 11.435 19.8835 12.3147 20.3915C14.0898 21.2665 15.5908 22.1163 17.0268 23.0342L16.9141 22.9652C18.3501 23.8893 19.2665 25.3275 19.2665 26.945C19.2665 27.0393 19.2637 27.132 19.2573 27.2247L19.2582 27.2117C18.8733 29.0024 17.3494 30.4314 15.348 30.9708L15.3067 30.98C19.4543 30.2138 23.7412 27.5235 23.8264 23.6771C23.9327 20.7738 21.6473 18.2031 17.9194 16.6071C17.9936 16.722 18.0376 16.8591 18.0376 17.004C18.0376 17.1863 17.9689 17.3557 17.8506 17.4944L17.8525 17.4921C17.4887 17.9641 16.8637 18.2721 16.1517 18.2721C15.5322 18.2721 14.9778 18.0384 14.6084 17.6706L14.6057 17.6683C13.2256 16.1864 14.6341 14.5888 14.8311 13.0196C14.833 12.9675 14.8339 12.9069 14.8339 12.8456C14.8339 10.8412 13.6316 9.07119 11.7969 8.01303L11.7731 8L11.7759 8.00077Z" fill="white" stroke="white" stroke-width="0.3"/>
<path d="M33.18 19.25C33.18 17.5167 33.5383 15.975 34.255 14.625C34.9883 13.2583 35.9883 12.1917 37.255 11.425C38.5383 10.6583 39.9717 10.275 41.555 10.275C43.555 10.275 45.2383 10.7417 46.605 11.675C47.9717 12.6083 48.9717 13.9167 49.605 15.6H48.305C47.805 14.2667 46.9717 13.2167 45.805 12.45C44.655 11.6667 43.2383 11.275 41.555 11.275C40.205 11.275 38.98 11.6 37.88 12.25C36.78 12.8833 35.9133 13.8083 35.28 15.025C34.6467 16.225 34.33 17.6333 34.33 19.25C34.33 20.85 34.6467 22.25 35.28 23.45C35.9133 24.6333 36.78 25.55 37.88 26.2C38.98 26.85 40.205 27.175 41.555 27.175C43.2383 27.175 44.655 26.7917 45.805 26.025C46.9717 25.2417 47.805 24.1833 48.305 22.85H49.605C48.9717 24.5333 47.9717 25.8417 46.605 26.775C45.2383 27.7083 43.555 28.175 41.555 28.175C39.9717 28.175 38.5383 27.8 37.255 27.05C35.9883 26.2833 34.9883 25.225 34.255 23.875C33.5383 22.5083 33.18 20.9667 33.18 19.25ZM59.0933 28.2C57.8266 28.2 56.6849 27.9167 55.6683 27.35C54.6516 26.7833 53.8516 25.975 53.2683 24.925C52.7016 23.8583 52.4183 22.6167 52.4183 21.2C52.4183 19.8 52.7099 18.575 53.2933 17.525C53.8766 16.4583 54.6766 15.65 55.6933 15.1C56.7266 14.5333 57.8766 14.25 59.1433 14.25C60.4099 14.25 61.5516 14.5333 62.5683 15.1C63.5849 15.65 64.3766 16.45 64.9433 17.5C65.5266 18.55 65.8183 19.7833 65.8183 21.2C65.8183 22.6167 65.5266 23.8583 64.9433 24.925C64.3599 25.975 63.5516 26.7833 62.5183 27.35C61.5016 27.9167 60.3599 28.2 59.0933 28.2ZM59.0933 27.2C60.0766 27.2 60.9933 26.9833 61.8433 26.55C62.7099 26.1 63.4016 25.425 63.9183 24.525C64.4349 23.625 64.6933 22.5167 64.6933 21.2C64.6933 19.9 64.4349 18.8 63.9183 17.9C63.4016 17 62.7183 16.3333 61.8683 15.9C61.0183 15.45 60.1016 15.225 59.1183 15.225C58.1349 15.225 57.2183 15.45 56.3683 15.9C55.5349 16.3333 54.8599 17 54.3433 17.9C53.8266 18.8 53.5683 19.9 53.5683 21.2C53.5683 22.5167 53.8183 23.625 54.3183 24.525C54.8349 25.425 55.5099 26.1 56.3433 26.55C57.1933 26.9833 58.1099 27.2 59.0933 27.2ZM68.5315 21.2C68.5315 19.8 68.8065 18.575 69.3565 17.525C69.9232 16.475 70.6982 15.6667 71.6815 15.1C72.6815 14.5333 73.8149 14.25 75.0815 14.25C76.4649 14.25 77.6649 14.6 78.6815 15.3C79.6982 15.9833 80.4149 16.875 80.8315 17.975V9.5H81.9565V28H80.8315V24.4C80.4315 25.5167 79.7315 26.4333 78.7315 27.15C77.7315 27.85 76.5149 28.2 75.0815 28.2C73.8149 28.2 72.6815 27.9167 71.6815 27.35C70.6982 26.7667 69.9232 25.95 69.3565 24.9C68.8065 23.8333 68.5315 22.6 68.5315 21.2ZM80.8315 21.2C80.8315 20.0167 80.5815 18.975 80.0815 18.075C79.5982 17.1583 78.9315 16.4583 78.0815 15.975C77.2315 15.475 76.2815 15.225 75.2315 15.225C74.1315 15.225 73.1649 15.4667 72.3315 15.95C71.4982 16.4167 70.8482 17.1 70.3815 18C69.9149 18.9 69.6815 19.9667 69.6815 21.2C69.6815 22.4333 69.9149 23.5 70.3815 24.4C70.8482 25.3 71.4982 25.9917 72.3315 26.475C73.1815 26.9583 74.1482 27.2 75.2315 27.2C76.2815 27.2 77.2315 26.9583 78.0815 26.475C78.9482 25.975 79.6232 25.275 80.1065 24.375C80.5899 23.4583 80.8315 22.4 80.8315 21.2ZM98.2778 20.3C98.2778 20.9 98.2612 21.35 98.2278 21.65H86.5028C86.5362 22.8667 86.8028 23.8917 87.3028 24.725C87.8028 25.5583 88.4612 26.1833 89.2778 26.6C90.0945 27.0167 90.9862 27.225 91.9528 27.225C93.2862 27.225 94.4028 26.9 95.3028 26.25C96.2028 25.5833 96.7695 24.6833 97.0028 23.55H98.1778C97.9112 24.9333 97.2278 26.0583 96.1278 26.925C95.0278 27.775 93.6362 28.2 91.9528 28.2C90.6862 28.2 89.5528 27.9167 88.5528 27.35C87.5528 26.7833 86.7695 25.975 86.2028 24.925C85.6362 23.8583 85.3528 22.6167 85.3528 21.2C85.3528 19.7833 85.6278 18.55 86.1778 17.5C86.7445 16.45 87.5278 15.65 88.5278 15.1C89.5278 14.5333 90.6695 14.25 91.9528 14.25C93.2528 14.25 94.3778 14.5333 95.3278 15.1C96.2945 15.65 97.0278 16.3917 97.5278 17.325C98.0278 18.2417 98.2778 19.2333 98.2778 20.3ZM97.1528 20.725C97.2028 19.525 96.9862 18.5083 96.5028 17.675C96.0362 16.8417 95.3945 16.225 94.5778 15.825C93.7612 15.4083 92.8778 15.2 91.9278 15.2C90.9778 15.2 90.0945 15.4083 89.2778 15.825C88.4778 16.225 87.8195 16.8417 87.3028 17.675C86.8028 18.5083 86.5362 19.525 86.5028 20.725H97.1528ZM102.253 11.4C101.986 11.4 101.761 11.3167 101.578 11.15C101.395 10.9667 101.303 10.725 101.303 10.425C101.303 10.1417 101.395 9.90833 101.578 9.725C101.761 9.54167 101.986 9.45 102.253 9.45C102.52 9.45 102.745 9.54167 102.928 9.725C103.111 9.90833 103.203 10.1417 103.203 10.425C103.203 10.725 103.111 10.9667 102.928 11.15C102.745 11.3167 102.52 11.4 102.253 11.4ZM102.803 14.425V28H101.678V14.425H102.803ZM112.777 14.25C114.21 14.25 115.427 14.6 116.427 15.3C117.427 15.9833 118.127 16.8667 118.527 17.95V14.425H119.652V28.425C119.652 29.675 119.377 30.7667 118.827 31.7C118.277 32.65 117.535 33.375 116.602 33.875C115.669 34.3917 114.627 34.65 113.477 34.65C111.777 34.65 110.369 34.2417 109.252 33.425C108.135 32.6083 107.402 31.5083 107.052 30.125H108.177C108.51 31.2083 109.135 32.0667 110.052 32.7C110.969 33.35 112.11 33.675 113.477 33.675C114.427 33.675 115.285 33.4583 116.052 33.025C116.819 32.6083 117.419 32 117.852 31.2C118.302 30.4167 118.527 29.4917 118.527 28.425V24.45C118.127 25.5333 117.419 26.4333 116.402 27.15C115.402 27.85 114.194 28.2 112.777 28.2C111.51 28.2 110.377 27.9167 109.377 27.35C108.394 26.7667 107.619 25.95 107.052 24.9C106.502 23.8333 106.227 22.6 106.227 21.2C106.227 19.8 106.502 18.575 107.052 17.525C107.619 16.475 108.394 15.6667 109.377 15.1C110.377 14.5333 111.51 14.25 112.777 14.25ZM118.527 21.2C118.527 20.0167 118.277 18.975 117.777 18.075C117.294 17.1583 116.627 16.4583 115.777 15.975C114.927 15.475 113.977 15.225 112.927 15.225C111.827 15.225 110.86 15.4667 110.027 15.95C109.194 16.4167 108.544 17.1 108.077 18C107.61 18.9 107.377 19.9667 107.377 21.2C107.377 22.4333 107.61 23.5 108.077 24.4C108.544 25.3 109.194 25.9917 110.027 26.475C110.877 26.9583 111.844 27.2 112.927 27.2C113.977 27.2 114.927 26.9583 115.777 26.475C116.644 25.975 117.319 25.275 117.802 24.375C118.285 23.4583 118.527 22.4 118.527 21.2ZM129.873 14.15C131.49 14.15 132.806 14.65 133.823 15.65C134.84 16.6333 135.348 18.1 135.348 20.05V28H134.248V20.125C134.248 18.5083 133.84 17.275 133.023 16.425C132.206 15.5583 131.098 15.125 129.698 15.125C128.231 15.125 127.056 15.5917 126.173 16.525C125.306 17.4583 124.873 18.8417 124.873 20.675V28H123.748V14.425H124.873V17.3C125.256 16.2833 125.89 15.5083 126.773 14.975C127.673 14.425 128.706 14.15 129.873 14.15ZM139.899 11.4C139.633 11.4 139.408 11.3167 139.224 11.15C139.041 10.9667 138.949 10.725 138.949 10.425C138.949 10.1417 139.041 9.90833 139.224 9.725C139.408 9.54167 139.633 9.45 139.899 9.45C140.166 9.45 140.391 9.54167 140.574 9.725C140.758 9.90833 140.849 10.1417 140.849 10.425C140.849 10.725 140.758 10.9667 140.574 11.15C140.391 11.3167 140.166 11.4 139.899 11.4ZM140.449 14.425V28H139.324V14.425H140.449ZM146.248 15.4V24.375C146.248 25.375 146.432 26.0667 146.798 26.45C147.165 26.8167 147.815 27 148.748 27H150.273V28H148.573C147.39 28 146.515 27.725 145.948 27.175C145.398 26.6083 145.123 25.675 145.123 24.375V15.4H143.073V14.425H145.123V10.975H146.248V14.425H150.273V15.4H146.248ZM165.465 20.3C165.465 20.9 165.449 21.35 165.415 21.65H153.69C153.724 22.8667 153.99 23.8917 154.49 24.725C154.99 25.5583 155.649 26.1833 156.465 26.6C157.282 27.0167 158.174 27.225 159.14 27.225C160.474 27.225 161.59 26.9 162.49 26.25C163.39 25.5833 163.957 24.6833 164.19 23.55H165.365C165.099 24.9333 164.415 26.0583 163.315 26.925C162.215 27.775 160.824 28.2 159.14 28.2C157.874 28.2 156.74 27.9167 155.74 27.35C154.74 26.7833 153.957 25.975 153.39 24.925C152.824 23.8583 152.54 22.6167 152.54 21.2C152.54 19.7833 152.815 18.55 153.365 17.5C153.932 16.45 154.715 15.65 155.715 15.1C156.715 14.5333 157.857 14.25 159.14 14.25C160.44 14.25 161.565 14.5333 162.515 15.1C163.482 15.65 164.215 16.3917 164.715 17.325C165.215 18.2417 165.465 19.2333 165.465 20.3ZM164.34 20.725C164.39 19.525 164.174 18.5083 163.69 17.675C163.224 16.8417 162.582 16.225 161.765 15.825C160.949 15.4083 160.065 15.2 159.115 15.2C158.165 15.2 157.282 15.4083 156.465 15.825C155.665 16.225 155.007 16.8417 154.49 17.675C153.99 18.5083 153.724 19.525 153.69 20.725H164.34ZM169.99 17.225C170.324 16.225 170.915 15.4667 171.765 14.95C172.615 14.4167 173.699 14.15 175.015 14.15V15.325H174.64C173.307 15.325 172.199 15.7083 171.315 16.475C170.432 17.225 169.99 18.4583 169.99 20.175V28H168.865V14.425H169.99V17.225Z" fill="white"/>
</svg>
