<svg width="194" height="41" viewBox="0 0 194 41" fill="none" xmlns="http://www.w3.org/2000/svg">
<path d="M19.328 1.0013C21.0424 3.31221 18.7824 6.37046 16.9775 8.07959C15.2272 9.73674 13.0981 11.1222 11.1638 12.6273C9.06904 14.2169 7.1753 15.9234 5.46704 17.7547L5.38599 17.8457C2.65838 20.5413 1 24.0532 1 27.8887C1 29.048 1.15119 30.1788 1.43953 31.2667L1.41615 31.1627C3.1665 35.7091 7.7177 39.1053 13.3335 39.9683L13.4285 39.98C10.4328 38.9051 8.30842 36.5747 7.9967 33.805L7.99358 33.7751C8.1962 30.8689 10.0759 28.3618 12.83 26.8996L12.8721 26.8788C12.6897 27.2336 12.5837 27.6456 12.5837 28.0784C12.5837 28.7023 12.8035 29.2846 13.1823 29.772L13.1729 29.7603C13.7668 30.4335 14.7128 30.865 15.7805 30.865C17.562 30.865 19.0069 29.6602 19.0069 28.1746C19.0069 27.3246 18.5346 26.5669 17.7958 26.0743L17.7896 26.0704C16.1078 24.9526 15.0386 23.2448 15.0386 21.329C15.0386 21.0664 15.0589 20.8078 15.0978 20.5543L15.0947 20.5842C15.4703 19.4171 16.2372 18.4267 17.269 17.6884L17.2783 17.6819C16.4803 19.4327 18.7481 21.1574 20.2444 22.0191C23.2635 23.5034 25.8165 24.9448 28.2589 26.5019L28.0672 26.3849C30.5096 27.9524 32.0682 30.3919 32.0682 33.1357C32.0682 33.2955 32.0635 33.4528 32.0526 33.6101L32.0542 33.588C31.3996 36.6254 28.8075 39.0494 25.4035 39.9644L25.3334 39.98C32.3877 38.6803 39.679 34.1169 39.824 27.5923C40.0048 22.6677 36.1175 18.3071 29.777 15.5998C29.9033 15.7947 29.9781 16.0274 29.9781 16.273C29.9781 16.5824 29.8612 16.8696 29.6601 17.1049L29.6632 17.101C29.0445 17.9016 27.9815 18.4241 26.7704 18.4241C25.7168 18.4241 24.7738 18.0277 24.1457 17.4038L24.141 17.3999C21.7937 14.8862 24.1893 12.1763 24.5244 9.51449C24.5275 9.42611 24.5291 9.32343 24.5291 9.21945C24.5291 5.81937 22.4842 2.81701 19.3638 1.0221L19.3233 1L19.328 1.0013Z" fill="white" stroke="white"/>
<path d="M66.275 29.25C64.3917 29.25 62.75 28.875 61.35 28.125C59.95 27.3583 58.8667 26.3167 58.1 25C57.35 23.6833 56.975 22.1833 56.975 20.5C56.975 19.2333 57.2 18.0417 57.65 16.925C58.1167 15.8083 58.775 14.825 59.625 13.975C60.4917 13.125 61.525 12.4583 62.725 11.975C63.925 11.4917 65.2583 11.25 66.725 11.25C67.7917 11.25 68.7917 11.3583 69.725 11.575C70.675 11.775 71.675 12.1333 72.725 12.65V16H71.975C71.6583 14.7167 70.975 13.7833 69.925 13.2C68.8917 12.6 67.6917 12.3 66.325 12.3C64.875 12.3 63.6417 12.6333 62.625 13.3C61.6083 13.9667 60.8333 14.8667 60.3 16C59.7667 17.1333 59.5 18.4167 59.5 19.85C59.5 20.8667 59.65 21.875 59.95 22.875C60.2667 23.8583 60.725 24.7583 61.325 25.575C61.925 26.375 62.6667 27.0167 63.55 27.5C64.4333 27.9667 65.4583 28.2 66.625 28.2C67.4583 28.2 68.1917 28.1083 68.825 27.925C69.4583 27.7417 70.0083 27.35 70.475 26.75C70.9583 26.1333 71.375 25.2083 71.725 23.975H72.475V27.95C71.2917 28.4167 70.1833 28.75 69.15 28.95C68.1167 29.15 67.1583 29.25 66.275 29.25ZM81.3746 29.25C80.0413 29.25 78.8663 28.9667 77.8496 28.4C76.8329 27.8333 76.0413 27.0417 75.4746 26.025C74.9079 25.0083 74.6246 23.8333 74.6246 22.5C74.6246 21.2333 74.9079 20.0917 75.4746 19.075C76.0413 18.0583 76.8246 17.25 77.8246 16.65C78.8413 16.05 80.0246 15.75 81.3746 15.75C82.7246 15.75 83.9079 16.0333 84.9246 16.6C85.9413 17.1667 86.7329 17.9583 87.2996 18.975C87.8663 19.975 88.1496 21.1417 88.1496 22.475C88.1496 23.7417 87.8663 24.8917 87.2996 25.925C86.7329 26.9417 85.9413 27.75 84.9246 28.35C83.9246 28.95 82.7413 29.25 81.3746 29.25ZM81.7746 28.275C82.9079 28.275 83.8496 27.85 84.5996 27C85.3496 26.15 85.7246 24.8667 85.7246 23.15C85.7246 22.0167 85.5413 20.9667 85.1746 20C84.8246 19.0167 84.2996 18.225 83.5996 17.625C82.8996 17.025 82.0329 16.725 80.9996 16.725C79.8663 16.725 78.9246 17.15 78.1746 18C77.4246 18.85 77.0496 20.1417 77.0496 21.875C77.0496 22.9917 77.2246 24.0417 77.5746 25.025C77.9413 25.9917 78.4746 26.775 79.1746 27.375C79.8746 27.975 80.7413 28.275 81.7746 28.275ZM95.7816 29.25C94.6483 29.25 93.64 28.975 92.7566 28.425C91.8733 27.875 91.1816 27.1167 90.6816 26.15C90.1983 25.1833 89.9566 24.0833 89.9566 22.85C89.9566 21.4833 90.2483 20.2667 90.8316 19.2C91.4316 18.1333 92.24 17.2917 93.2566 16.675C94.2733 16.0583 95.415 15.75 96.6816 15.75C97.265 15.75 97.8483 15.8167 98.4316 15.95C99.015 16.0833 99.5733 16.325 100.107 16.675V12.35C100.107 11.8167 99.99 11.4417 99.7566 11.225C99.5233 10.9917 98.99 10.825 98.1566 10.725V10.1L102.007 9H102.357V25.85C102.357 26.3667 102.473 26.7417 102.707 26.975C102.94 27.2083 103.49 27.375 104.357 27.475V28.15L100.532 29.05H100.182V27.325H99.9566C99.49 27.825 99.015 28.2167 98.5316 28.5C98.065 28.7833 97.5983 28.975 97.1316 29.075C96.6816 29.1917 96.2316 29.25 95.7816 29.25ZM96.9566 27.625C97.4733 27.625 97.9983 27.5333 98.5316 27.35C99.065 27.15 99.59 26.7833 100.107 26.25V20.45C100.107 19.5667 99.9316 18.85 99.5816 18.3C99.2316 17.75 98.7816 17.35 98.2316 17.1C97.6983 16.8333 97.1233 16.7 96.5066 16.7C95.14 16.7 94.0983 17.1333 93.3816 18C92.665 18.8667 92.3066 20.1167 92.3066 21.75C92.3066 22.9333 92.4983 23.9667 92.8816 24.85C93.265 25.7333 93.8066 26.4167 94.5066 26.9C95.2066 27.3833 96.0233 27.625 96.9566 27.625ZM111.757 29.25C110.523 29.25 109.44 28.9667 108.507 28.4C107.573 27.8167 106.848 27.0333 106.332 26.05C105.832 25.0667 105.582 23.9583 105.582 22.725C105.582 21.375 105.873 20.175 106.457 19.125C107.057 18.075 107.857 17.25 108.857 16.65C109.857 16.05 110.957 15.75 112.157 15.75C113.473 15.75 114.532 16.125 115.332 16.875C116.132 17.625 116.532 18.7167 116.532 20.15C116.532 20.25 116.532 20.3583 116.532 20.475C116.532 20.575 116.515 20.7167 116.482 20.9L116.432 21.25H107.457V20.3H114.057C114.107 19.9667 114.132 19.6583 114.132 19.375C114.132 18.5417 113.915 17.8917 113.482 17.425C113.048 16.9583 112.423 16.725 111.607 16.725C110.49 16.725 109.582 17.1667 108.882 18.05C108.198 18.9333 107.857 20.1167 107.857 21.6C107.857 22.7167 108.057 23.725 108.457 24.625C108.873 25.5083 109.457 26.2083 110.207 26.725C110.973 27.225 111.873 27.475 112.907 27.475C113.49 27.475 114.057 27.375 114.607 27.175C115.157 26.975 115.74 26.6417 116.357 26.175L116.857 26.65C116.057 27.5667 115.248 28.2333 114.432 28.65C113.615 29.05 112.723 29.25 111.757 29.25ZM118.147 29V28.25L118.897 28.125C119.397 28.0417 119.73 27.9083 119.897 27.725C120.063 27.525 120.147 27.1667 120.147 26.65V19.2C120.147 18.6667 120.03 18.2917 119.797 18.075C119.563 17.8417 119.03 17.675 118.197 17.575V16.95L122.047 15.85H122.397V26.65C122.397 27.1667 122.48 27.525 122.647 27.725C122.813 27.9083 123.147 28.0417 123.647 28.125L124.397 28.25V29H118.147ZM121.022 13.925C120.605 13.925 120.255 13.7917 119.972 13.525C119.688 13.2417 119.547 12.8833 119.547 12.45C119.547 12.0167 119.688 11.6667 119.972 11.4C120.255 11.1333 120.605 11 121.022 11C121.422 11 121.763 11.1333 122.047 11.4C122.33 11.6667 122.472 12.0167 122.472 12.45C122.472 12.8833 122.33 13.2417 122.047 13.525C121.763 13.7917 121.422 13.925 121.022 13.925ZM130.149 35.425C128.733 35.425 127.591 35.1417 126.724 34.575C125.874 34.0083 125.449 33.275 125.449 32.375C125.449 32.025 125.541 31.625 125.724 31.175C125.924 30.7417 126.308 30.2417 126.874 29.675L128.249 28.3L129.199 28.45C128.633 29.1 128.191 29.6333 127.874 30.05C127.574 30.4833 127.424 30.9333 127.424 31.4C127.424 32.15 127.783 32.7167 128.499 33.1C129.233 33.5 130.233 33.7 131.499 33.7C132.899 33.7 133.991 33.4333 134.774 32.9C135.574 32.3667 135.974 31.6667 135.974 30.8C135.974 30.25 135.791 29.85 135.424 29.6C135.058 29.35 134.391 29.1917 133.424 29.125L128.599 28.775C127.833 28.7083 127.208 28.5167 126.724 28.2C126.258 27.8667 126.024 27.4417 126.024 26.925C126.024 26.4917 126.174 26.1333 126.474 25.85C126.774 25.5667 127.158 25.2083 127.624 24.775L128.399 24.025H129.474L128.724 24.875C128.491 25.1417 128.333 25.3417 128.249 25.475C128.183 25.5917 128.149 25.7167 128.149 25.85C128.149 26.0667 128.233 26.2417 128.399 26.375C128.583 26.5083 128.874 26.5917 129.274 26.625L134.049 27.025C136.183 27.1917 137.249 28.15 137.249 29.9C137.249 30.9333 136.924 31.8667 136.274 32.7C135.641 33.5333 134.791 34.1917 133.724 34.675C132.658 35.175 131.466 35.425 130.149 35.425ZM130.624 24.6C129.691 24.6 128.858 24.4167 128.124 24.05C127.391 23.6667 126.816 23.1417 126.399 22.475C125.983 21.8083 125.774 21.05 125.774 20.2C125.774 19.3333 125.983 18.5667 126.399 17.9C126.833 17.2333 127.424 16.7083 128.174 16.325C128.924 15.9417 129.774 15.75 130.724 15.75L131.749 15.825C132.883 16.025 133.799 16.5083 134.499 17.275C135.216 18.0417 135.574 18.9833 135.574 20.1C135.574 20.9667 135.358 21.7417 134.924 22.425C134.508 23.0917 133.924 23.625 133.174 24.025C132.424 24.4083 131.574 24.6 130.624 24.6ZM130.874 23.625C131.674 23.625 132.291 23.3583 132.724 22.825C133.158 22.275 133.374 21.4917 133.374 20.475C133.374 19.7083 133.258 19.05 133.024 18.5C132.791 17.9333 132.458 17.5 132.024 17.2C131.591 16.8833 131.074 16.725 130.474 16.725C129.674 16.725 129.058 17 128.624 17.55C128.191 18.0833 127.974 18.8583 127.974 19.875C127.974 20.6417 128.091 21.3083 128.324 21.875C128.558 22.425 128.891 22.8583 129.324 23.175C129.774 23.475 130.291 23.625 130.874 23.625ZM130.724 16.125V15.75L136.924 14.55H137.399V16.125H130.724ZM138.069 29V28.25L138.819 28.125C139.319 28.0417 139.652 27.9083 139.819 27.725C139.985 27.525 140.069 27.1667 140.069 26.65V19.2C140.069 18.6667 139.952 18.2917 139.719 18.075C139.485 17.8417 138.952 17.675 138.119 17.575V16.95L141.894 15.85H142.244V17.675H142.394C143.194 16.975 143.935 16.4833 144.619 16.2C145.302 15.9 146.102 15.75 147.019 15.75C148.202 15.75 149.127 16.05 149.794 16.65C150.477 17.2333 150.819 18.0667 150.819 19.15V26.65C150.819 27.1667 150.902 27.525 151.069 27.725C151.235 27.9083 151.569 28.0417 152.069 28.125L152.819 28.25V29H146.569V28.25L147.319 28.125C147.819 28.0417 148.152 27.9083 148.319 27.725C148.485 27.525 148.569 27.1667 148.569 26.65V19.9C148.569 19.2833 148.46 18.7833 148.244 18.4C148.027 18.0167 147.702 17.7333 147.269 17.55C146.852 17.35 146.31 17.25 145.644 17.25C144.994 17.25 144.41 17.3667 143.894 17.6C143.377 17.8167 142.852 18.1667 142.319 18.65V26.65C142.319 27.1667 142.402 27.525 142.569 27.725C142.735 27.9083 143.069 28.0417 143.569 28.125L144.319 28.25V29H138.069ZM153.669 29V28.25L154.419 28.125C154.919 28.0417 155.252 27.9083 155.419 27.725C155.586 27.525 155.669 27.1667 155.669 26.65V19.2C155.669 18.6667 155.552 18.2917 155.319 18.075C155.086 17.8417 154.552 17.675 153.719 17.575V16.95L157.569 15.85H157.919V26.65C157.919 27.1667 158.002 27.525 158.169 27.725C158.336 27.9083 158.669 28.0417 159.169 28.125L159.919 28.25V29H153.669ZM156.544 13.925C156.127 13.925 155.777 13.7917 155.494 13.525C155.211 13.2417 155.069 12.8833 155.069 12.45C155.069 12.0167 155.211 11.6667 155.494 11.4C155.777 11.1333 156.127 11 156.544 11C156.944 11 157.286 11.1333 157.569 11.4C157.852 11.6667 157.994 12.0167 157.994 12.45C157.994 12.8833 157.852 13.2417 157.569 13.525C157.286 13.7917 156.944 13.925 156.544 13.925ZM165.822 29.25C164.789 29.25 163.964 28.9833 163.347 28.45C162.73 27.9167 162.422 27.05 162.422 25.85V17.5H160.847V16.75C162.147 16.0333 163.18 15.0833 163.947 13.9H164.697V15.95V16.675V25.175C164.697 25.825 164.805 26.3167 165.022 26.65C165.239 26.9833 165.53 27.2083 165.897 27.325C166.28 27.425 166.689 27.475 167.122 27.475C167.689 27.475 168.18 27.3917 168.597 27.225C169.014 27.0583 169.405 26.8667 169.772 26.65L170.222 27.175C169.705 27.7083 169.08 28.1917 168.347 28.625C167.614 29.0417 166.772 29.25 165.822 29.25ZM163.597 17.5V16H169.922V16.375L169.272 17.5H163.597ZM176.845 29.25C175.611 29.25 174.528 28.9667 173.595 28.4C172.661 27.8167 171.936 27.0333 171.42 26.05C170.92 25.0667 170.67 23.9583 170.67 22.725C170.67 21.375 170.961 20.175 171.545 19.125C172.145 18.075 172.945 17.25 173.945 16.65C174.945 16.05 176.045 15.75 177.245 15.75C178.561 15.75 179.62 16.125 180.42 16.875C181.22 17.625 181.62 18.7167 181.62 20.15C181.62 20.25 181.62 20.3583 181.62 20.475C181.62 20.575 181.603 20.7167 181.57 20.9L181.52 21.25H172.545V20.3H179.145C179.195 19.9667 179.22 19.6583 179.22 19.375C179.22 18.5417 179.003 17.8917 178.57 17.425C178.136 16.9583 177.511 16.725 176.695 16.725C175.578 16.725 174.67 17.1667 173.97 18.05C173.286 18.9333 172.945 20.1167 172.945 21.6C172.945 22.7167 173.145 23.725 173.545 24.625C173.961 25.5083 174.545 26.2083 175.295 26.725C176.061 27.225 176.961 27.475 177.995 27.475C178.578 27.475 179.145 27.375 179.695 27.175C180.245 26.975 180.828 26.6417 181.445 26.175L181.945 26.65C181.145 27.5667 180.336 28.2333 179.52 28.65C178.703 29.05 177.811 29.25 176.845 29.25ZM183.235 29V28.25L183.985 28.125C184.501 28.0417 184.835 27.9083 184.985 27.725C185.151 27.525 185.235 27.1667 185.235 26.65V19.2C185.235 18.6333 185.101 18.25 184.835 18.05C184.585 17.8333 184.068 17.675 183.285 17.575V16.95L187.06 15.85H187.41V17.85H187.635C188.051 17.25 188.56 16.7583 189.16 16.375C189.776 15.9917 190.476 15.8 191.26 15.8C191.86 15.8 192.31 15.925 192.61 16.175C192.926 16.425 193.085 16.75 193.085 17.15C193.085 17.4167 192.976 17.6583 192.76 17.875C192.56 18.0917 192.318 18.2417 192.035 18.325C191.751 18.3917 191.476 18.35 191.21 18.2L190.01 17.5C189.81 17.3833 189.568 17.4 189.285 17.55C189.001 17.7 188.718 17.9 188.435 18.15C188.168 18.3833 187.943 18.6167 187.76 18.85C187.576 19.0667 187.485 19.1917 187.485 19.225V26.65C187.485 27.1667 187.568 27.525 187.735 27.725C187.901 27.9083 188.235 28.0333 188.735 28.1L189.985 28.25V29H183.235Z" fill="white"/>
</svg>
