<svg width="180" height="38" viewBox="0 0 180 38" fill="none" xmlns="http://www.w3.org/2000/svg">
<path d="M0 9L4.03381 25.7862L22.1917 28L40.3496 25.7862L44.3835 9H0ZM36.1887 12.3929L35.6339 14.3989L22.3073 16.4897L22.2726 16.494H35.16L33.6806 22.7114L22.3304 23.9286L10.9109 22.6902L10.1712 19.556H15.8232L16.193 21.1804L22.2726 21.7444L28.595 21.0913L29.0226 18.4788L9.80135 18.4576V18.4533L9.77823 18.4576L9.36213 16.494L22.3189 14.5134L23.0701 14.3989H8.86513L8.19476 12.3929H36.1887Z" fill="white"/>
<path d="M65.4604 19.25C65.4604 17.5167 65.8187 15.975 66.5354 14.625C67.2687 13.2583 68.2687 12.1917 69.5354 11.425C70.8187 10.6583 72.2521 10.275 73.8354 10.275C75.8354 10.275 77.5187 10.7417 78.8854 11.675C80.2521 12.6083 81.2521 13.9167 81.8854 15.6H80.5854C80.0854 14.2667 79.2521 13.2167 78.0854 12.45C76.9354 11.6667 75.5187 11.275 73.8354 11.275C72.4854 11.275 71.2604 11.6 70.1604 12.25C69.0604 12.8833 68.1937 13.8083 67.5604 15.025C66.9271 16.225 66.6104 17.6333 66.6104 19.25C66.6104 20.85 66.9271 22.25 67.5604 23.45C68.1937 24.6333 69.0604 25.55 70.1604 26.2C71.2604 26.85 72.4854 27.175 73.8354 27.175C75.5187 27.175 76.9354 26.7917 78.0854 26.025C79.2521 25.2417 80.0854 24.1833 80.5854 22.85H81.8854C81.2521 24.5333 80.2521 25.8417 78.8854 26.775C77.5187 27.7083 75.8354 28.175 73.8354 28.175C72.2521 28.175 70.8187 27.8 69.5354 27.05C68.2687 26.2833 67.2687 25.225 66.5354 23.875C65.8187 22.5083 65.4604 20.9667 65.4604 19.25ZM90.4737 28.175C89.3404 28.175 88.3487 27.975 87.4987 27.575C86.6487 27.175 85.982 26.6333 85.4987 25.95C85.032 25.2667 84.7654 24.5083 84.6987 23.675H85.8737C86.007 24.5917 86.432 25.4083 87.1487 26.125C87.882 26.8417 88.9904 27.2 90.4737 27.2C91.3404 27.2 92.0904 27.0417 92.7237 26.725C93.3737 26.4083 93.8737 25.975 94.2237 25.425C94.5737 24.875 94.7487 24.2667 94.7487 23.6C94.7487 22.75 94.5404 22.075 94.1237 21.575C93.7237 21.075 93.2154 20.7 92.5987 20.45C91.9987 20.2 91.182 19.9333 90.1487 19.65C89.0154 19.35 88.0987 19.05 87.3987 18.75C86.7154 18.45 86.132 17.9917 85.6487 17.375C85.182 16.7417 84.9487 15.8833 84.9487 14.8C84.9487 13.9667 85.1654 13.2083 85.5987 12.525C86.0487 11.825 86.682 11.275 87.4987 10.875C88.3154 10.475 89.257 10.275 90.3237 10.275C91.8737 10.275 93.1237 10.6583 94.0737 11.425C95.0237 12.1917 95.5904 13.1333 95.7737 14.25H94.5737C94.4737 13.8 94.2487 13.3417 93.8987 12.875C93.5654 12.4083 93.082 12.025 92.4487 11.725C91.832 11.4083 91.0904 11.25 90.2237 11.25C89.057 11.25 88.0737 11.575 87.2737 12.225C86.4737 12.8583 86.0737 13.7083 86.0737 14.775C86.0737 15.625 86.282 16.3083 86.6987 16.825C87.1154 17.325 87.6237 17.7083 88.2237 17.975C88.8404 18.225 89.6654 18.4833 90.6987 18.75C91.8487 19.0667 92.757 19.375 93.4237 19.675C94.107 19.9583 94.682 20.4167 95.1487 21.05C95.632 21.6667 95.8737 22.5083 95.8737 23.575C95.8737 24.3583 95.6654 25.1 95.2487 25.8C94.832 26.5 94.2154 27.075 93.3987 27.525C92.5987 27.9583 91.6237 28.175 90.4737 28.175ZM104.316 28.175C103.183 28.175 102.191 27.975 101.341 27.575C100.491 27.175 99.8248 26.6333 99.3415 25.95C98.8748 25.2667 98.6081 24.5083 98.5415 23.675H99.7165C99.8498 24.5917 100.275 25.4083 100.991 26.125C101.725 26.8417 102.833 27.2 104.316 27.2C105.183 27.2 105.933 27.0417 106.566 26.725C107.216 26.4083 107.716 25.975 108.066 25.425C108.416 24.875 108.591 24.2667 108.591 23.6C108.591 22.75 108.383 22.075 107.966 21.575C107.566 21.075 107.058 20.7 106.441 20.45C105.841 20.2 105.025 19.9333 103.991 19.65C102.858 19.35 101.941 19.05 101.241 18.75C100.558 18.45 99.9748 17.9917 99.4915 17.375C99.0248 16.7417 98.7915 15.8833 98.7915 14.8C98.7915 13.9667 99.0081 13.2083 99.4415 12.525C99.8915 11.825 100.525 11.275 101.341 10.875C102.158 10.475 103.1 10.275 104.166 10.275C105.716 10.275 106.966 10.6583 107.916 11.425C108.866 12.1917 109.433 13.1333 109.616 14.25H108.416C108.316 13.8 108.091 13.3417 107.741 12.875C107.408 12.4083 106.925 12.025 106.291 11.725C105.675 11.4083 104.933 11.25 104.066 11.25C102.9 11.25 101.916 11.575 101.116 12.225C100.316 12.8583 99.9165 13.7083 99.9165 14.775C99.9165 15.625 100.125 16.3083 100.541 16.825C100.958 17.325 101.466 17.7083 102.066 17.975C102.683 18.225 103.508 18.4833 104.541 18.75C105.691 19.0667 106.6 19.375 107.266 19.675C107.95 19.9583 108.525 20.4167 108.991 21.05C109.475 21.6667 109.716 22.5083 109.716 23.575C109.716 24.3583 109.508 25.1 109.091 25.8C108.675 26.5 108.058 27.075 107.241 27.525C106.441 27.9583 105.466 28.175 104.316 28.175Z" fill="white"/>
</svg>
