<svg width="73" height="38" viewBox="0 0 73 38" fill="none" xmlns="http://www.w3.org/2000/svg">
<path d="M0 9L1.63594 25.7862L9 28L16.3641 25.7862L18 9H0ZM14.6766 12.3929L14.4516 14.3989L9.04688 16.4897L9.03281 16.494H14.2594L13.6594 22.7114L9.05625 23.9286L4.425 22.6902L4.125 19.556H6.41719L6.56719 21.1804L9.03281 21.7444L11.5969 21.0913L11.7703 18.4788L3.975 18.4576V18.4533L3.96562 18.4576L3.79688 16.494L9.05156 14.5134L9.35625 14.3989H3.59531L3.32344 12.3929H14.6766Z" fill="white"/>
<path d="M27.35 19.25C27.35 17.5167 27.7083 15.975 28.425 14.625C29.1583 13.2583 30.1583 12.1917 31.425 11.425C32.7083 10.6583 34.1417 10.275 35.725 10.275C37.725 10.275 39.4083 10.7417 40.775 11.675C42.1417 12.6083 43.1417 13.9167 43.775 15.6H42.475C41.975 14.2667 41.1417 13.2167 39.975 12.45C38.825 11.6667 37.4083 11.275 35.725 11.275C34.375 11.275 33.15 11.6 32.05 12.25C30.95 12.8833 30.0833 13.8083 29.45 15.025C28.8167 16.225 28.5 17.6333 28.5 19.25C28.5 20.85 28.8167 22.25 29.45 23.45C30.0833 24.6333 30.95 25.55 32.05 26.2C33.15 26.85 34.375 27.175 35.725 27.175C37.4083 27.175 38.825 26.7917 39.975 26.025C41.1417 25.2417 41.975 24.1833 42.475 22.85H43.775C43.1417 24.5333 42.1417 25.8417 40.775 26.775C39.4083 27.7083 37.725 28.175 35.725 28.175C34.1417 28.175 32.7083 27.8 31.425 27.05C30.1583 26.2833 29.1583 25.225 28.425 23.875C27.7083 22.5083 27.35 20.9667 27.35 19.25ZM52.3633 28.175C51.2299 28.175 50.2383 27.975 49.3883 27.575C48.5383 27.175 47.8716 26.6333 47.3883 25.95C46.9216 25.2667 46.6549 24.5083 46.5883 23.675H47.7633C47.8966 24.5917 48.3216 25.4083 49.0383 26.125C49.7716 26.8417 50.8799 27.2 52.3633 27.2C53.2299 27.2 53.9799 27.0417 54.6133 26.725C55.2633 26.4083 55.7633 25.975 56.1133 25.425C56.4633 24.875 56.6383 24.2667 56.6383 23.6C56.6383 22.75 56.4299 22.075 56.0133 21.575C55.6133 21.075 55.1049 20.7 54.4883 20.45C53.8883 20.2 53.0716 19.9333 52.0383 19.65C50.9049 19.35 49.9883 19.05 49.2883 18.75C48.6049 18.45 48.0216 17.9917 47.5383 17.375C47.0716 16.7417 46.8383 15.8833 46.8383 14.8C46.8383 13.9667 47.0549 13.2083 47.4883 12.525C47.9383 11.825 48.5716 11.275 49.3883 10.875C50.2049 10.475 51.1466 10.275 52.2133 10.275C53.7633 10.275 55.0133 10.6583 55.9633 11.425C56.9133 12.1917 57.4799 13.1333 57.6633 14.25H56.4633C56.3633 13.8 56.1383 13.3417 55.7883 12.875C55.4549 12.4083 54.9716 12.025 54.3383 11.725C53.7216 11.4083 52.9799 11.25 52.1133 11.25C50.9466 11.25 49.9633 11.575 49.1633 12.225C48.3633 12.8583 47.9633 13.7083 47.9633 14.775C47.9633 15.625 48.1716 16.3083 48.5883 16.825C49.0049 17.325 49.5133 17.7083 50.1133 17.975C50.7299 18.225 51.5549 18.4833 52.5883 18.75C53.7383 19.0667 54.6466 19.375 55.3133 19.675C55.9966 19.9583 56.5716 20.4167 57.0383 21.05C57.5216 21.6667 57.7633 22.5083 57.7633 23.575C57.7633 24.3583 57.5549 25.1 57.1383 25.8C56.7216 26.5 56.1049 27.075 55.2883 27.525C54.4883 27.9583 53.5133 28.175 52.3633 28.175ZM66.2061 28.175C65.0727 28.175 64.0811 27.975 63.2311 27.575C62.3811 27.175 61.7144 26.6333 61.2311 25.95C60.7644 25.2667 60.4977 24.5083 60.4311 23.675H61.6061C61.7394 24.5917 62.1644 25.4083 62.8811 26.125C63.6144 26.8417 64.7227 27.2 66.2061 27.2C67.0727 27.2 67.8227 27.0417 68.4561 26.725C69.1061 26.4083 69.6061 25.975 69.9561 25.425C70.3061 24.875 70.4811 24.2667 70.4811 23.6C70.4811 22.75 70.2727 22.075 69.8561 21.575C69.4561 21.075 68.9477 20.7 68.3311 20.45C67.7311 20.2 66.9144 19.9333 65.8811 19.65C64.7477 19.35 63.8311 19.05 63.1311 18.75C62.4477 18.45 61.8644 17.9917 61.3811 17.375C60.9144 16.7417 60.6811 15.8833 60.6811 14.8C60.6811 13.9667 60.8977 13.2083 61.3311 12.525C61.7811 11.825 62.4144 11.275 63.2311 10.875C64.0477 10.475 64.9894 10.275 66.0561 10.275C67.6061 10.275 68.8561 10.6583 69.8061 11.425C70.7561 12.1917 71.3227 13.1333 71.5061 14.25H70.3061C70.2061 13.8 69.9811 13.3417 69.6311 12.875C69.2977 12.4083 68.8144 12.025 68.1811 11.725C67.5644 11.4083 66.8227 11.25 65.9561 11.25C64.7894 11.25 63.8061 11.575 63.0061 12.225C62.2061 12.8583 61.8061 13.7083 61.8061 14.775C61.8061 15.625 62.0144 16.3083 62.4311 16.825C62.8477 17.325 63.3561 17.7083 63.9561 17.975C64.5727 18.225 65.3977 18.4833 66.4311 18.75C67.5811 19.0667 68.4894 19.375 69.1561 19.675C69.8394 19.9583 70.4144 20.4167 70.8811 21.05C71.3644 21.6667 71.6061 22.5083 71.6061 23.575C71.6061 24.3583 71.3977 25.1 70.9811 25.8C70.5644 26.5 69.9477 27.075 69.1311 27.525C68.3311 27.9583 67.3561 28.175 66.2061 28.175Z" fill="white"/>
</svg>
