<svg width="77" height="30" viewBox="0 0 77 30" fill="none" xmlns="http://www.w3.org/2000/svg">
<path d="M0 4L1.8529 23.4366L10.1936 26L18.5343 23.4366L20.3872 4H0ZM16.623 7.92857L16.3681 10.2513L10.2467 12.6723L10.2307 12.6772H16.1505L15.4709 19.8763L10.2573 21.2857L5.01184 19.8518L4.67206 16.2228H7.26823L7.43813 18.1036L10.2307 18.7567L13.1349 18.0004L13.3313 14.9754L4.50216 14.9509V14.946L4.49155 14.9509L4.30042 12.6772L10.252 10.3839L10.5971 10.2513H4.07212L3.76419 7.92857H16.623Z" fill="white"/>
<path d="M37.3975 5.95801C37.9671 5.95801 38.4798 6.05566 38.9355 6.25098C39.4076 6.43001 39.8389 6.63346 40.2295 6.86133C40.6364 7.08919 41.0189 7.30078 41.377 7.49609C41.735 7.67513 42.1012 7.76465 42.4756 7.76465C42.7686 7.74837 43.1022 7.70768 43.4766 7.64258C43.8021 7.57747 44.1764 7.47982 44.5996 7.34961C45.0391 7.20312 45.5273 6.99154 46.0645 6.71484C45.5273 7.23568 45.0879 7.67513 44.7461 8.0332C44.4206 8.375 44.1683 8.65983 43.9893 8.8877C43.7777 9.14811 43.623 9.35156 43.5254 9.49805C43.4277 9.67708 43.2812 9.94564 43.0859 10.3037C42.9069 10.6292 42.6628 11.0687 42.3535 11.6221C42.0443 12.1592 41.6536 12.8672 41.1816 13.7461C41.1816 12.623 41.0677 11.7523 40.8398 11.1338C40.6283 10.5153 40.3923 10.0433 40.1318 9.71777C39.8226 9.34342 39.4727 9.10742 39.082 9.00977C38.724 8.96094 38.3659 9.02604 38.0078 9.20508C37.6497 9.36784 37.2917 9.61198 36.9336 9.9375C36.5918 10.263 36.2581 10.6536 35.9326 11.1094C35.6234 11.5488 35.3385 12.0127 35.0781 12.501C34.834 12.9893 34.6305 13.4857 34.4678 13.9902C34.305 14.4785 34.1992 14.9342 34.1504 15.3574C34.1016 15.7318 34.0934 16.1712 34.126 16.6758C34.1585 17.1641 34.2318 17.6686 34.3457 18.1895C34.4596 18.694 34.6061 19.1904 34.7852 19.6787C34.9642 20.167 35.1839 20.6064 35.4443 20.9971C35.721 21.3714 36.0303 21.6807 36.3721 21.9248C36.7139 22.1527 37.1045 22.2585 37.5439 22.2422C38.0322 22.2096 38.5124 22.0632 38.9844 21.8027C39.3913 21.5911 39.8063 21.2656 40.2295 20.8262C40.6527 20.3704 41.0189 19.7275 41.3281 18.8975L44.9414 19.5566C43.8997 20.8262 42.8825 21.7783 41.8896 22.4131C40.9131 23.0479 40.0342 23.4954 39.2529 23.7559C38.3415 24.0488 37.4788 24.1872 36.665 24.1709C35.6396 24.057 34.6794 23.7477 33.7842 23.2432C32.889 22.7386 32.1159 22.1283 31.4648 21.4121C30.8301 20.6797 30.3337 19.8822 29.9756 19.0195C29.6175 18.1569 29.4629 17.3105 29.5117 16.4805C29.5443 15.9271 29.6582 15.2842 29.8535 14.5518C30.0488 13.8031 30.3092 13.0381 30.6348 12.2568C30.9766 11.4756 31.3835 10.7106 31.8555 9.96191C32.3275 9.21322 32.8483 8.5459 33.418 7.95996C33.9876 7.35775 34.6061 6.8776 35.2734 6.51953C35.957 6.14518 36.665 5.95801 37.3975 5.95801ZM60.6396 6.12891C60.4118 6.64974 60.2083 7.10547 60.0293 7.49609C59.8503 7.88672 59.6956 8.22038 59.5654 8.49707C59.4189 8.80632 59.2969 9.08301 59.1992 9.32715C59.1178 9.50618 59.012 9.75033 58.8818 10.0596C58.7516 10.3363 58.5889 10.7025 58.3936 11.1582C58.2145 11.5977 57.9785 12.1673 57.6855 12.8672C57.5391 12.265 57.36 11.736 57.1484 11.2803C56.9368 10.8245 56.709 10.4258 56.4648 10.084C56.2207 9.74219 55.9603 9.46549 55.6836 9.25391C55.4232 9.02604 55.1628 8.83887 54.9023 8.69238C54.3001 8.36686 53.6654 8.18783 52.998 8.15527C52.1191 8.2041 51.4274 8.35059 50.9229 8.59473C50.4346 8.82259 50.0765 9.09115 49.8486 9.40039C49.6208 9.69336 49.4987 10.0026 49.4824 10.3281C49.4661 10.6374 49.5068 10.8978 49.6045 11.1094C49.6859 11.3047 49.9707 11.5326 50.459 11.793C50.9635 12.0534 51.5658 12.3545 52.2656 12.6963C52.9818 13.0218 53.7467 13.3962 54.5605 13.8193C55.3743 14.2262 56.123 14.682 56.8066 15.1865C57.5065 15.6748 58.0924 16.2119 58.5645 16.7979C59.0527 17.3675 59.3213 17.9779 59.3701 18.6289C59.4189 19.459 59.4108 20.2077 59.3457 20.875C59.2806 21.5423 59.0527 22.112 58.6621 22.584C58.2715 23.056 57.6611 23.4303 56.8311 23.707C56.0173 23.9837 54.8861 24.1546 53.4375 24.2197C51.9401 24.2848 50.7113 24.2035 49.751 23.9756C48.7907 23.7477 48.0094 23.4385 47.4072 23.0479C46.8213 22.6572 46.3818 22.2259 46.0889 21.7539C45.8122 21.2819 45.6087 20.8343 45.4785 20.4111C45.3483 19.9717 45.2588 19.5973 45.21 19.2881C45.1611 18.9626 45.0798 18.7673 44.9658 18.7021C44.8356 18.6208 44.7054 18.5475 44.5752 18.4824C44.4613 18.4173 44.3392 18.3604 44.209 18.3115C44.0788 18.2464 43.9486 18.1895 43.8184 18.1406L50.9229 16.9932C50.516 17.3187 50.1986 17.6198 49.9707 17.8965C49.7591 18.1732 49.5964 18.4173 49.4824 18.6289C49.3522 18.873 49.2627 19.1009 49.2139 19.3125C49.1813 19.5404 49.2546 19.8252 49.4336 20.167C49.6126 20.5088 49.8568 20.8424 50.166 21.168C50.4915 21.4772 50.8659 21.7376 51.2891 21.9492C51.7122 22.1608 52.1517 22.2503 52.6074 22.2178C53.1771 22.1689 53.641 22.0306 53.999 21.8027C54.3571 21.5586 54.6257 21.2575 54.8047 20.8994C55 20.5413 55.1139 20.1507 55.1465 19.7275C55.179 19.3044 55.1383 18.8893 55.0244 18.4824C54.9268 18.0592 54.764 17.6686 54.5361 17.3105C54.3083 16.9362 54.0397 16.627 53.7305 16.3828C53.4538 16.1875 53.0225 16.0003 52.4365 15.8213C51.8669 15.6423 51.224 15.4469 50.5078 15.2354C49.8079 15.0238 49.0837 14.7796 48.335 14.5029C47.6025 14.2262 46.9352 13.8844 46.333 13.4775C45.7471 13.0706 45.2751 12.5905 44.917 12.0371C44.5752 11.4837 44.445 10.8164 44.5264 10.0352C44.5915 9.36784 44.8031 8.81445 45.1611 8.375C45.5355 7.91927 45.9993 7.5612 46.5527 7.30078C47.1224 7.02409 47.749 6.82064 48.4326 6.69043C49.1325 6.56022 49.8405 6.48698 50.5566 6.4707C51.2891 6.43815 52.0052 6.44629 52.7051 6.49512C53.4212 6.54395 54.0641 6.60091 54.6338 6.66602C55.2035 6.73112 55.6836 6.79622 56.0742 6.86133C56.4811 6.91016 56.7334 6.94271 56.8311 6.95898C57.2542 6.99154 57.6774 6.9834 58.1006 6.93457C58.4749 6.90202 58.8818 6.82878 59.3213 6.71484C59.777 6.58464 60.2165 6.38932 60.6396 6.12891ZM76.3379 6.12891C76.11 6.64974 75.9066 7.10547 75.7275 7.49609C75.5485 7.88672 75.3939 8.22038 75.2637 8.49707C75.1172 8.80632 74.9951 9.08301 74.8975 9.32715C74.8161 9.50618 74.7103 9.75033 74.5801 10.0596C74.4499 10.3363 74.2871 10.7025 74.0918 11.1582C73.9128 11.5977 73.6768 12.1673 73.3838 12.8672C73.2373 12.265 73.0583 11.736 72.8467 11.2803C72.6351 10.8245 72.4072 10.4258 72.1631 10.084C71.9189 9.74219 71.6585 9.46549 71.3818 9.25391C71.1214 9.02604 70.861 8.83887 70.6006 8.69238C69.9984 8.36686 69.3636 8.18783 68.6963 8.15527C67.8174 8.2041 67.1257 8.35059 66.6211 8.59473C66.1328 8.82259 65.7747 9.09115 65.5469 9.40039C65.319 9.69336 65.1969 10.0026 65.1807 10.3281C65.1644 10.6374 65.2051 10.8978 65.3027 11.1094C65.3841 11.3047 65.6689 11.5326 66.1572 11.793C66.6618 12.0534 67.264 12.3545 67.9639 12.6963C68.68 13.0218 69.445 13.3962 70.2588 13.8193C71.0726 14.2262 71.8213 14.682 72.5049 15.1865C73.2048 15.6748 73.7907 16.2119 74.2627 16.7979C74.751 17.3675 75.0195 17.9779 75.0684 18.6289C75.1172 19.459 75.109 20.2077 75.0439 20.875C74.9788 21.5423 74.751 22.112 74.3604 22.584C73.9697 23.056 73.3594 23.4303 72.5293 23.707C71.7155 23.9837 70.5843 24.1546 69.1357 24.2197C67.6383 24.2848 66.4095 24.2035 65.4492 23.9756C64.4889 23.7477 63.7077 23.4385 63.1055 23.0479C62.5195 22.6572 62.0801 22.2259 61.7871 21.7539C61.5104 21.2819 61.307 20.8343 61.1768 20.4111C61.0465 19.9717 60.957 19.5973 60.9082 19.2881C60.8594 18.9626 60.778 18.7673 60.6641 18.7021C60.5339 18.6208 60.4036 18.5475 60.2734 18.4824C60.1595 18.4173 60.0374 18.3604 59.9072 18.3115C59.777 18.2464 59.6468 18.1895 59.5166 18.1406L66.6211 16.9932C66.2142 17.3187 65.8968 17.6198 65.6689 17.8965C65.4574 18.1732 65.2946 18.4173 65.1807 18.6289C65.0505 18.873 64.9609 19.1009 64.9121 19.3125C64.8796 19.5404 64.9528 19.8252 65.1318 20.167C65.3109 20.5088 65.555 20.8424 65.8643 21.168C66.1898 21.4772 66.5641 21.7376 66.9873 21.9492C67.4105 22.1608 67.8499 22.2503 68.3057 22.2178C68.8753 22.1689 69.3392 22.0306 69.6973 21.8027C70.0553 21.5586 70.3239 21.2575 70.5029 20.8994C70.6982 20.5413 70.8122 20.1507 70.8447 19.7275C70.8773 19.3044 70.8366 18.8893 70.7227 18.4824C70.625 18.0592 70.4622 17.6686 70.2344 17.3105C70.0065 16.9362 69.738 16.627 69.4287 16.3828C69.152 16.1875 68.7207 16.0003 68.1348 15.8213C67.5651 15.6423 66.9222 15.4469 66.2061 15.2354C65.5062 15.0238 64.7819 14.7796 64.0332 14.5029C63.3008 14.2262 62.6335 13.8844 62.0312 13.4775C61.4453 13.0706 60.9733 12.5905 60.6152 12.0371C60.2734 11.4837 60.1432 10.8164 60.2246 10.0352C60.2897 9.36784 60.5013 8.81445 60.8594 8.375C61.2337 7.91927 61.6976 7.5612 62.251 7.30078C62.8206 7.02409 63.4473 6.82064 64.1309 6.69043C64.8307 6.56022 65.5387 6.48698 66.2549 6.4707C66.9873 6.43815 67.7035 6.44629 68.4033 6.49512C69.1195 6.54395 69.7624 6.60091 70.332 6.66602C70.9017 6.73112 71.3818 6.79622 71.7725 6.86133C72.1794 6.91016 72.4316 6.94271 72.5293 6.95898C72.9525 6.99154 73.3757 6.9834 73.7988 6.93457C74.1732 6.90202 74.5801 6.82878 75.0195 6.71484C75.4753 6.58464 75.9147 6.38932 76.3379 6.12891Z" fill="white"/>
</svg>
