<svg width="70" height="23" viewBox="0 0 70 23" fill="none" xmlns="http://www.w3.org/2000/svg">
<path d="M0 0L1.81771 20.3201L10 23L18.1823 20.3201L20 0H0ZM16.3073 4.10714L16.0573 6.53549L10.0521 9.06652L10.0365 9.07165H15.8438L15.1771 16.598L10.0625 18.0714L4.91667 16.5723L4.58333 12.7783H7.13021L7.29688 14.7446L10.0365 15.4275L12.8854 14.6368L13.0781 11.4743L4.41667 11.4487V11.4435L4.40625 11.4487L4.21875 9.07165L10.0573 6.67411L10.3958 6.53549H3.99479L3.69271 4.10714H16.3073Z" fill="white"/>
<path d="M40.2773 17.1069H41.8887V17.1924C41.8887 17.7214 41.7056 18.2625 41.3394 18.8159C40.9731 19.3612 40.4767 19.7599 39.8501 20.0122C39.2235 20.2726 38.4829 20.4028 37.6284 20.4028C35.9194 20.4028 34.5197 19.8088 33.4292 18.6206C32.3468 17.4325 31.8057 15.6502 31.8057 13.2739C31.8057 10.9139 32.3468 9.13574 33.4292 7.93945C34.5116 6.74316 35.9154 6.14502 37.6406 6.14502C38.487 6.14502 39.2235 6.27523 39.8501 6.53564C40.4767 6.78792 40.9731 7.19482 41.3394 7.75635C41.7056 8.30973 41.8887 8.84277 41.8887 9.35547V9.44092H40.2773V9.35547C40.2773 9.02995 40.1715 8.71663 39.96 8.41553C39.7565 8.10628 39.4635 7.87435 39.0811 7.71973C38.6986 7.5651 38.2388 7.48779 37.7017 7.48779C36.3263 7.48779 35.3009 8.03304 34.6255 9.12354C33.95 10.2059 33.6123 11.5894 33.6123 13.2739C33.6123 14.9748 33.95 16.3664 34.6255 17.4487C35.3091 18.5229 36.3304 19.0601 37.6895 19.0601C38.6253 19.0601 39.2886 18.8688 39.6792 18.4863C40.078 18.0957 40.2773 17.6644 40.2773 17.1924V17.1069ZM45.7622 16.9727H47.52V17.0581C47.52 17.8068 47.7804 18.3276 48.3013 18.6206C48.8302 18.9136 49.5301 19.0601 50.4009 19.0601C51.1659 19.0601 51.8047 18.8363 52.3174 18.3887C52.8382 17.9411 53.0986 17.3551 53.0986 16.6309C53.0986 16.0368 52.8748 15.5526 52.4272 15.1782C51.9878 14.812 51.3123 14.4417 50.4009 14.0674L49.7051 13.7866C48.7529 13.396 48.0409 13.0094 47.5688 12.627C47.0968 12.2363 46.7428 11.8091 46.5068 11.3452C46.279 10.8732 46.165 10.3483 46.165 9.77051C46.165 8.75326 46.5231 7.89469 47.2393 7.19482C47.9635 6.49495 49.0907 6.14502 50.6206 6.14502C52.0285 6.14502 53.0173 6.40544 53.5869 6.92627C54.1566 7.4471 54.4414 8.05339 54.4414 8.74512V8.84277H52.6958V8.74512C52.6958 8.52539 52.6063 8.30973 52.4272 8.09814C52.2482 7.88656 51.9837 7.73193 51.6338 7.63428C51.2839 7.53662 50.8973 7.48779 50.4741 7.48779C49.6115 7.48779 48.9727 7.70345 48.5576 8.13477C48.1507 8.56608 47.9473 9.05843 47.9473 9.61182C47.9473 9.97803 48.0449 10.3239 48.2402 10.6494C48.4355 10.9749 48.7041 11.2476 49.0459 11.4673C49.3877 11.6789 49.9655 11.9637 50.7793 12.3218L51.6094 12.6758C52.9277 13.2454 53.8066 13.8477 54.2461 14.4824C54.6855 15.109 54.9053 15.7886 54.9053 16.521C54.9053 17.1965 54.7262 17.8516 54.3682 18.4863C54.0101 19.113 53.5137 19.589 52.8789 19.9146C52.2441 20.2401 51.3978 20.4028 50.3398 20.4028C49.3389 20.4028 48.5007 20.2808 47.8252 20.0366C47.1497 19.8006 46.637 19.41 46.2871 18.8647C45.9372 18.3195 45.7622 17.7173 45.7622 17.0581V16.9727ZM58.7788 16.9727H60.5366V17.0581C60.5366 17.8068 60.797 18.3276 61.3179 18.6206C61.8468 18.9136 62.5467 19.0601 63.4175 19.0601C64.1825 19.0601 64.8213 18.8363 65.334 18.3887C65.8548 17.9411 66.1152 17.3551 66.1152 16.6309C66.1152 16.0368 65.8914 15.5526 65.4438 15.1782C65.0044 14.812 64.3289 14.4417 63.4175 14.0674L62.7217 13.7866C61.7695 13.396 61.0575 13.0094 60.5854 12.627C60.1134 12.2363 59.7594 11.8091 59.5234 11.3452C59.2956 10.8732 59.1816 10.3483 59.1816 9.77051C59.1816 8.75326 59.5397 7.89469 60.2559 7.19482C60.9801 6.49495 62.1073 6.14502 63.6372 6.14502C65.0451 6.14502 66.0339 6.40544 66.6035 6.92627C67.1732 7.4471 67.458 8.05339 67.458 8.74512V8.84277H65.7124V8.74512C65.7124 8.52539 65.6229 8.30973 65.4438 8.09814C65.2648 7.88656 65.0003 7.73193 64.6504 7.63428C64.3005 7.53662 63.9139 7.48779 63.4907 7.48779C62.6281 7.48779 61.9893 7.70345 61.5742 8.13477C61.1673 8.56608 60.9639 9.05843 60.9639 9.61182C60.9639 9.97803 61.0615 10.3239 61.2568 10.6494C61.4521 10.9749 61.7207 11.2476 62.0625 11.4673C62.4043 11.6789 62.9821 11.9637 63.7959 12.3218L64.626 12.6758C65.9443 13.2454 66.8232 13.8477 67.2627 14.4824C67.7021 15.109 67.9219 15.7886 67.9219 16.521C67.9219 17.1965 67.7428 17.8516 67.3848 18.4863C67.0267 19.113 66.5303 19.589 65.8955 19.9146C65.2607 20.2401 64.4144 20.4028 63.3564 20.4028C62.3555 20.4028 61.5173 20.2808 60.8418 20.0366C60.1663 19.8006 59.6536 19.41 59.3037 18.8647C58.9538 18.3195 58.7788 17.7173 58.7788 17.0581V16.9727Z" fill="white"/>
</svg>
