<svg width="169" height="31" viewBox="0 0 169 31" fill="none" xmlns="http://www.w3.org/2000/svg">
<path d="M70.675 7.325H62.175V12.575H70.6V14.675H62.175V21.375H70.6V23.5H60.025V5.2H70.675V7.325ZM83.4283 23.5H80.9033L77.3783 18.1L73.8783 23.5H71.4033L76.1283 16.325L71.8783 9.875H74.3783L77.3783 14.525L80.3533 9.875H82.8533L78.6283 16.3L83.4283 23.5ZM87.215 11.95C88.565 10.3333 90.2317 9.525 92.215 9.525C94.1984 9.525 95.8817 10.2333 97.265 11.65C98.6484 13.05 99.34 14.7417 99.34 16.725C99.34 18.7083 98.6567 20.4083 97.29 21.825C95.9234 23.2417 94.2734 23.95 92.34 23.95C90.4067 23.95 88.6984 23.1333 87.215 21.5V28.325H85.165V9.875H87.215V11.95ZM92.215 22.025C93.5817 22.025 94.765 21.5167 95.765 20.5C96.7817 19.4667 97.29 18.225 97.29 16.775C97.29 15.325 96.79 14.0917 95.79 13.075C94.8067 12.0417 93.5984 11.525 92.165 11.525C90.7317 11.525 89.5234 12.0333 88.54 13.05C87.5734 14.05 87.09 15.2917 87.09 16.775C87.09 18.2583 87.59 19.5083 88.59 20.525C89.59 21.525 90.7984 22.025 92.215 22.025ZM107.931 10.075L106.856 11.825C106.573 11.675 106.298 11.6 106.031 11.6C105.514 11.6 105.048 11.8583 104.631 12.375C104.214 12.875 103.898 13.5417 103.681 14.375C103.481 15.1917 103.381 16.675 103.381 18.825V23.5H101.281V9.875H103.381V11.35C103.798 10.7333 104.214 10.275 104.631 9.975C105.064 9.675 105.548 9.525 106.081 9.525C106.631 9.525 107.248 9.70833 107.931 10.075ZM123.126 17.05H111.176C111.259 18.55 111.759 19.7583 112.676 20.675C113.609 21.575 114.717 22.025 116.001 22.025C118.184 22.025 119.851 20.95 121.001 18.8L122.751 19.7C121.967 21.15 121.042 22.225 119.976 22.925C118.909 23.6083 117.634 23.95 116.151 23.95C114.101 23.95 112.409 23.25 111.076 21.85C109.742 20.4333 109.076 18.7333 109.076 16.75C109.076 14.7667 109.742 13.0667 111.076 11.65C112.426 10.2333 114.092 9.525 116.076 9.525C118.059 9.525 119.717 10.2 121.051 11.55C122.384 12.8833 123.076 14.7167 123.126 17.05ZM120.826 15.225C120.576 14.0583 120.009 13.15 119.126 12.5C118.242 11.85 117.226 11.525 116.076 11.525C113.742 11.525 112.192 12.7583 111.426 15.225H120.826ZM133.06 11.475L131.735 12.85C130.752 11.9333 129.852 11.475 129.035 11.475C128.519 11.475 128.085 11.6417 127.735 11.975C127.385 12.2917 127.21 12.6917 127.21 13.175C127.21 13.6417 127.402 14.0583 127.785 14.425C128.185 14.775 128.885 15.2167 129.885 15.75C130.885 16.2667 131.652 16.8417 132.185 17.475C132.735 18.1083 133.01 18.8833 133.01 19.8C133.01 20.9667 132.602 21.95 131.785 22.75C130.985 23.55 129.994 23.95 128.81 23.95C127.16 23.95 125.785 23.25 124.685 21.85L125.985 20.4C126.885 21.45 127.802 21.975 128.735 21.975C129.369 21.975 129.91 21.7667 130.36 21.35C130.81 20.9333 131.035 20.45 131.035 19.9C131.035 19.3333 130.827 18.8667 130.41 18.5C130.01 18.1167 129.31 17.675 128.31 17.175C127.327 16.675 126.577 16.125 126.06 15.525C125.56 14.9083 125.31 14.1083 125.31 13.125C125.31 12.125 125.669 11.275 126.385 10.575C127.119 9.875 128.077 9.525 129.26 9.525C130.46 9.525 131.727 10.175 133.06 11.475ZM142.753 11.475L141.428 12.85C140.444 11.9333 139.544 11.475 138.728 11.475C138.211 11.475 137.778 11.6417 137.428 11.975C137.078 12.2917 136.903 12.6917 136.903 13.175C136.903 13.6417 137.094 14.0583 137.478 14.425C137.878 14.775 138.578 15.2167 139.578 15.75C140.578 16.2667 141.344 16.8417 141.878 17.475C142.428 18.1083 142.703 18.8833 142.703 19.8C142.703 20.9667 142.294 21.95 141.478 22.75C140.678 23.55 139.686 23.95 138.503 23.95C136.853 23.95 135.478 23.25 134.378 21.85L135.678 20.4C136.578 21.45 137.494 21.975 138.428 21.975C139.061 21.975 139.603 21.7667 140.053 21.35C140.503 20.9333 140.728 20.45 140.728 19.9C140.728 19.3333 140.519 18.8667 140.103 18.5C139.703 18.1167 139.003 17.675 138.003 17.175C137.019 16.675 136.269 16.125 135.753 15.525C135.253 14.9083 135.003 14.1083 135.003 13.125C135.003 12.125 135.361 11.275 136.078 10.575C136.811 9.875 137.769 9.525 138.953 9.525C140.153 9.525 141.419 10.175 142.753 11.475ZM153.67 17.5C153.67 19.1833 153.537 20.4333 153.27 21.25C153.02 22.0667 152.52 22.725 151.77 23.225C151.037 23.7083 150.237 23.95 149.37 23.95C148.52 23.95 147.728 23.8167 146.995 23.55C146.278 23.2833 145.428 22.725 144.445 21.875L145.595 20.175C146.562 20.875 147.295 21.3417 147.795 21.575C148.295 21.8083 148.778 21.925 149.245 21.925C149.728 21.925 150.17 21.75 150.57 21.4C150.97 21.05 151.22 20.6 151.32 20.05C151.437 19.4833 151.495 18.6083 151.495 17.425V5.2H153.67V17.5ZM164.731 9.225C164.064 8.325 163.497 7.725 163.031 7.425C162.564 7.10833 162.014 6.95 161.381 6.95C160.764 6.95 160.239 7.15 159.806 7.55C159.389 7.95 159.181 8.46667 159.181 9.1C159.181 9.71667 159.381 10.2583 159.781 10.725C160.181 11.1917 161.097 11.9583 162.531 13.025C163.981 14.075 165.039 15.0667 165.706 16C166.372 16.9333 166.706 17.9167 166.706 18.95C166.706 20.3 166.181 21.475 165.131 22.475C164.097 23.4583 162.889 23.95 161.506 23.95C159.072 23.95 157.164 22.5917 155.781 19.875L157.606 18.825C158.689 20.8417 159.906 21.85 161.256 21.85C162.122 21.85 162.864 21.575 163.481 21.025C164.097 20.475 164.406 19.8333 164.406 19.1C164.406 18.3667 164.147 17.675 163.631 17.025C163.114 16.3583 162.222 15.55 160.956 14.6C159.689 13.6333 158.814 12.9 158.331 12.4C157.864 11.9 157.522 11.3667 157.306 10.8C157.089 10.2333 156.981 9.66667 156.981 9.1C156.981 7.88333 157.397 6.85833 158.231 6.025C159.081 5.175 160.172 4.75 161.506 4.75C162.539 4.75 163.439 5.01667 164.206 5.55C164.972 6.06667 165.722 6.84167 166.456 7.875L164.731 9.225Z" fill="white"/>
<path d="M49.729 0.99974H48.879C47.828 0.99974 46.838 1.48974 46.199 2.32374L37.499 13.7007L28.799 2.32374C28.162 1.48974 27.171 0.99974 26.121 0.99974H25.271L36.242 15.3457L25.036 29.9997H25.886C26.937 29.9997 27.927 29.5097 28.565 28.6757L37.5 16.9917L46.435 28.6757C47.073 29.5097 48.063 29.9997 49.114 29.9997H49.964L38.758 15.3457L49.729 0.99974ZM21.289 24.2417C18.735 28.1227 13.707 30.1117 8.9 28.3577C4.671 26.8147 2 22.6107 2 18.1087V16.9997H14H25V12.8657C25 6.36074 20.182 0.66574 13.705 0.0567399C6.273 -0.64226 0 5.20974 0 12.4997V18.0727C0 23.4437 3.215 28.4367 8.269 30.2557C14.872 32.6317 21.817 29.0857 24.165 22.9997H23.527C22.616 22.9997 21.789 23.4807 21.289 24.2417ZM2 12.4997C2 6.70974 6.71 1.99974 12.5 1.99974C18.29 1.99974 23 6.70974 23 12.4997V14.9997H2V12.4997Z" fill="white"/>
</svg>
