<svg width="130" height="25" viewBox="0 0 130 25" fill="none" xmlns="http://www.w3.org/2000/svg">
<path d="M45.993 4.922L49.227 4.985C50.305 4.985 51.047 5.111 51.453 5.363C51.411 5.755 51.264 6.014 51.012 6.14C50.76 6.266 50.396 6.329 49.92 6.329L45.384 6.266C44.236 6.266 43.27 6.301 42.486 6.371C42.332 7.155 42.255 8.282 42.255 9.752L42.276 10.697C42.276 11.103 42.269 11.537 42.255 11.999C42.899 12.111 43.739 12.167 44.775 12.167L47.274 12.146C48.226 12.146 48.772 12.195 48.912 12.293C49.052 12.391 49.122 12.496 49.122 12.608C49.122 13.14 48.443 13.406 47.085 13.406L42.318 13.259C42.304 13.595 42.29 14.169 42.276 14.981C42.248 16.675 42.185 17.956 42.087 18.824C42.983 18.88 43.627 18.908 44.019 18.908C44.411 18.908 44.817 18.901 45.237 18.887C45.657 18.873 46.441 18.831 47.589 18.761C48.737 18.691 49.591 18.656 50.151 18.656C50.725 18.656 51.117 18.698 51.327 18.782C51.537 18.852 51.642 19.02 51.642 19.286C51.642 19.454 51.593 19.573 51.495 19.643C51.411 19.699 51.334 19.748 51.264 19.79C51.194 19.818 51.103 19.846 50.991 19.874C50.893 19.888 50.802 19.902 50.718 19.916C50.648 19.93 50.543 19.944 50.403 19.958C50.277 19.958 50.172 19.965 50.088 19.979C50.018 19.979 49.92 19.979 49.794 19.979H49.5C46.756 20.105 44.999 20.168 44.229 20.168C41.919 20.168 40.764 19.846 40.764 19.202C40.736 17.9 40.722 16.661 40.722 15.485C40.722 11.607 40.848 8.38 41.1 5.804C41.394 5.342 42.248 5.076 43.662 5.006C44.544 4.95 45.321 4.922 45.993 4.922ZM52.5895 10.13C52.8275 9.808 53.1285 9.647 53.4925 9.647C53.6325 9.647 53.7725 9.682 53.9125 9.752C54.2065 11.628 54.8225 13.35 55.7605 14.918C56.3765 13.77 57.1185 12.153 57.9865 10.067C58.3225 9.885 58.5885 9.794 58.7845 9.794C58.9945 9.794 59.1625 9.815 59.2885 9.857C59.0085 10.767 58.6795 11.614 58.3015 12.398C57.9235 13.182 57.5665 13.903 57.2305 14.561C56.8945 15.219 56.6495 15.702 56.4955 16.01C56.8875 16.5 57.2165 16.892 57.4825 17.186C57.7625 17.466 58.1475 17.76 58.6375 18.068C59.2815 18.488 59.8905 18.698 60.4645 18.698C60.7585 18.698 60.9615 18.754 61.0735 18.866C60.9195 19.342 60.5485 19.58 59.9605 19.58C58.9805 19.58 58.0005 19.195 57.0205 18.425C56.6565 18.131 56.4395 17.956 56.3695 17.9C56.3135 17.83 56.1245 17.641 55.8025 17.333C55.6905 17.501 55.5295 17.795 55.3195 18.215C55.1235 18.635 54.9555 18.971 54.8155 19.223C54.6755 19.461 54.4865 19.65 54.2485 19.79C54.0105 19.916 53.8005 19.979 53.6185 19.979C53.4505 19.979 53.2895 19.958 53.1355 19.916C53.3595 19.454 53.6885 18.824 54.1225 18.026C54.5705 17.228 54.8715 16.682 55.0255 16.388C54.3255 15.296 53.7655 14.281 53.3455 13.343C52.9395 12.391 52.6875 11.32 52.5895 10.13ZM62.6006 19.349C62.6426 20.483 62.7826 22.086 63.0206 24.158C62.7546 24.424 62.4396 24.557 62.0756 24.557C62.0056 24.557 61.9286 24.55 61.8446 24.536C61.8306 23.99 61.7256 22.751 61.5296 20.819C61.3476 18.887 61.2566 17.41 61.2566 16.388C61.2566 15.352 61.3196 14.456 61.4456 13.7C61.5716 12.944 61.7886 12.237 62.0966 11.579C62.7266 10.221 63.8886 9.542 65.5826 9.542C66.6326 9.542 67.4936 10.116 68.1656 11.264C68.8376 12.412 69.1736 13.749 69.1736 15.275C69.1736 16.479 68.7816 17.536 67.9976 18.446C67.2136 19.356 66.1286 19.811 64.7426 19.811C63.8886 19.811 63.1746 19.657 62.6006 19.349ZM65.4146 10.676C64.2246 10.676 63.4336 11.292 63.0416 12.524C62.7056 13.574 62.5376 15.023 62.5376 16.871C62.5376 17.543 62.5446 18.04 62.5586 18.362C63.8046 18.628 64.6516 18.761 65.0996 18.761C65.9116 18.761 66.5556 18.439 67.0316 17.795C67.5076 17.137 67.7456 16.339 67.7456 15.401C67.7456 14.015 67.5356 12.881 67.1156 11.999C66.7096 11.117 66.1426 10.676 65.4146 10.676ZM73.3253 17.942L73.3883 19.139C73.3883 19.447 73.2973 19.664 73.1153 19.79C72.9473 19.902 72.7723 19.958 72.5903 19.958C72.4223 19.958 72.2473 19.93 72.0653 19.874C71.7573 18.25 71.5193 16.227 71.3513 13.805C71.1973 11.383 71.1063 10.011 71.0783 9.689C71.2883 9.493 71.5053 9.395 71.7293 9.395C71.9673 9.395 72.1773 9.423 72.3593 9.479C72.4153 9.885 72.4573 10.781 72.4853 12.167C72.5133 13.553 72.5483 14.421 72.5903 14.771C72.7863 13.595 73.1363 12.496 73.6403 11.474C73.9203 10.9 74.2843 10.445 74.7323 10.109C75.1943 9.759 75.6843 9.584 76.2023 9.584C76.7343 9.584 77.2173 9.822 77.6513 10.298C78.0993 10.76 78.3233 11.18 78.3233 11.558C78.3233 11.698 78.2393 11.81 78.0713 11.894C77.9033 11.964 77.7143 11.999 77.5043 11.999C77.3083 11.999 77.1543 11.922 77.0423 11.768C76.9303 11.614 76.8533 11.446 76.8113 11.264C76.7693 11.068 76.6783 10.893 76.5383 10.739C76.3983 10.585 76.2093 10.508 75.9713 10.508C75.3413 10.508 74.8023 11.075 74.3543 12.209C73.6683 13.903 73.3253 15.814 73.3253 17.942ZM80.3569 15.737C80.3289 16.017 80.3149 16.206 80.3149 16.304C80.3149 17.144 80.5669 17.795 81.0709 18.257C81.5889 18.719 82.1979 18.95 82.8979 18.95C83.5979 18.95 84.1649 18.852 84.5989 18.656C85.0469 18.46 85.3689 18.25 85.5649 18.026C86.0689 17.396 86.5309 17.081 86.9509 17.081C87.1049 17.081 87.2869 17.123 87.4969 17.207C87.3569 17.893 86.8249 18.523 85.9009 19.097C84.9909 19.657 83.8429 19.937 82.4569 19.937C81.4769 19.937 80.6299 19.629 79.9159 19.013C79.2159 18.383 78.8659 17.529 78.8659 16.451C78.8659 15.373 79.0759 14.33 79.4959 13.322C79.9299 12.3 80.5459 11.432 81.3439 10.718C82.1559 9.99 82.9749 9.626 83.8009 9.626C84.6409 9.626 85.3129 9.801 85.8169 10.151C86.3349 10.487 86.5939 10.984 86.5939 11.642C86.5939 12.86 86.0479 13.868 84.9559 14.666C83.8779 15.45 82.7299 15.842 81.5119 15.842C81.1899 15.842 80.8049 15.807 80.3569 15.737ZM81.9529 15.044C82.6109 15.044 83.1989 14.834 83.7169 14.414C84.2349 13.994 84.5989 13.553 84.8089 13.091C85.0329 12.629 85.1449 12.209 85.1449 11.831C85.1449 11.453 84.9979 11.124 84.7039 10.844C84.4099 10.55 84.0669 10.403 83.6749 10.403C82.9749 10.403 82.3239 10.886 81.7219 11.852C81.1339 12.818 80.7139 13.819 80.4619 14.855C81.0779 14.981 81.5749 15.044 81.9529 15.044ZM94.4827 11.6C94.3567 11.278 94.1187 11.026 93.7687 10.844C93.4187 10.662 92.9847 10.571 92.4667 10.571C91.9487 10.571 91.4587 10.725 90.9967 11.033C90.5487 11.341 90.3247 11.754 90.3247 12.272C90.3247 12.79 90.5347 13.203 90.9547 13.511C91.3887 13.805 91.9067 14.029 92.5087 14.183C93.1247 14.337 93.7407 14.505 94.3567 14.687C94.9727 14.855 95.4907 15.142 95.9107 15.548C96.3447 15.94 96.5617 16.458 96.5617 17.102C96.5617 18.04 96.1697 18.754 95.3857 19.244C94.6157 19.734 93.6847 19.979 92.5927 19.979C91.9487 19.979 91.1017 19.804 90.0517 19.454C89.0157 19.104 88.4977 18.684 88.4977 18.194C88.4977 17.83 88.8057 17.648 89.4217 17.648C89.6037 17.648 89.8417 17.76 90.1357 17.984C91.0317 18.642 91.9487 18.971 92.8867 18.971C93.3907 18.971 93.8247 18.887 94.1887 18.719C94.8607 18.397 95.1967 17.879 95.1967 17.165C95.1967 16.731 94.9797 16.381 94.5457 16.115C94.1257 15.849 93.6077 15.639 92.9917 15.485C92.3897 15.331 91.7807 15.163 91.1647 14.981C90.5487 14.799 90.0237 14.498 89.5897 14.078C89.1697 13.644 88.9597 13.098 88.9597 12.44C88.9597 11.586 89.3447 10.893 90.1147 10.361C90.8847 9.829 91.8367 9.563 92.9707 9.563C93.7407 9.563 94.4337 9.766 95.0497 10.172C95.6797 10.564 95.9947 11.138 95.9947 11.894C95.9947 12.398 95.7077 12.65 95.1337 12.65C94.8957 12.65 94.7347 12.608 94.6507 12.524C94.5807 12.44 94.5387 12.293 94.5247 12.083C94.5247 11.859 94.5107 11.698 94.4827 11.6ZM103.629 11.6C103.503 11.278 103.265 11.026 102.915 10.844C102.565 10.662 102.131 10.571 101.613 10.571C101.095 10.571 100.605 10.725 100.143 11.033C99.6951 11.341 99.4711 11.754 99.4711 12.272C99.4711 12.79 99.6811 13.203 100.101 13.511C100.535 13.805 101.053 14.029 101.655 14.183C102.271 14.337 102.887 14.505 103.503 14.687C104.119 14.855 104.637 15.142 105.057 15.548C105.491 15.94 105.708 16.458 105.708 17.102C105.708 18.04 105.316 18.754 104.532 19.244C103.762 19.734 102.831 19.979 101.739 19.979C101.095 19.979 100.248 19.804 99.1981 19.454C98.1621 19.104 97.6441 18.684 97.6441 18.194C97.6441 17.83 97.9521 17.648 98.5681 17.648C98.7501 17.648 98.9881 17.76 99.2821 17.984C100.178 18.642 101.095 18.971 102.033 18.971C102.537 18.971 102.971 18.887 103.335 18.719C104.007 18.397 104.343 17.879 104.343 17.165C104.343 16.731 104.126 16.381 103.692 16.115C103.272 15.849 102.754 15.639 102.138 15.485C101.536 15.331 100.927 15.163 100.311 14.981C99.6951 14.799 99.1701 14.498 98.7361 14.078C98.3161 13.644 98.1061 13.098 98.1061 12.44C98.1061 11.586 98.4911 10.893 99.2611 10.361C100.031 9.829 100.983 9.563 102.117 9.563C102.887 9.563 103.58 9.766 104.196 10.172C104.826 10.564 105.141 11.138 105.141 11.894C105.141 12.398 104.854 12.65 104.28 12.65C104.042 12.65 103.881 12.608 103.797 12.524C103.727 12.44 103.685 12.293 103.671 12.083C103.671 11.859 103.657 11.698 103.629 11.6ZM114.309 5.3C114.309 6.35 114.386 7.974 114.54 10.172C114.694 12.37 114.771 14.022 114.771 15.128C114.771 16.766 114.477 17.998 113.889 18.824C113.301 19.65 112.237 20.063 110.697 20.063C109.773 20.063 108.912 19.867 108.114 19.475C107.316 19.083 106.763 18.558 106.455 17.9C106.805 17.606 107.106 17.459 107.358 17.459C107.624 17.459 107.862 17.55 108.072 17.732C108.296 17.9 108.492 18.089 108.66 18.299C108.842 18.509 109.15 18.705 109.584 18.887C110.032 19.055 110.613 19.139 111.327 19.139C112.055 19.139 112.566 18.824 112.86 18.194C113.168 17.564 113.322 16.654 113.322 15.464C113.322 14.274 113.252 12.797 113.112 11.033C112.972 9.269 112.902 7.974 112.902 7.148C112.902 6.308 112.972 5.776 113.112 5.552C113.252 5.328 113.434 5.216 113.658 5.216C113.896 5.216 114.113 5.244 114.309 5.3ZM119.213 5.867C119.745 5.517 120.326 5.258 120.956 5.09C121.586 4.922 122.209 4.838 122.825 4.838C123.441 4.838 124.015 4.88 124.547 4.964C125.093 5.034 125.646 5.16 126.206 5.342C126.78 5.524 127.249 5.804 127.613 6.182C127.977 6.56 128.18 7.008 128.222 7.526C128.236 7.736 128.152 7.897 127.97 8.009C127.802 8.107 127.606 8.156 127.382 8.156C127.172 8.156 127.011 8.107 126.899 8.009C126.801 7.897 126.703 7.736 126.605 7.526C126.073 6.448 124.911 5.909 123.119 5.909C121.901 5.909 120.9 6.168 120.116 6.686C119.346 7.204 118.961 7.96 118.961 8.954C118.961 9.514 119.136 9.997 119.486 10.403C119.836 10.795 120.291 11.103 120.851 11.327C121.425 11.551 122.048 11.754 122.72 11.936C123.406 12.118 124.085 12.321 124.757 12.545C125.443 12.769 126.066 13.035 126.626 13.343C127.2 13.651 127.662 14.085 128.012 14.645C128.362 15.191 128.537 15.849 128.537 16.619C128.537 17.739 127.984 18.691 126.878 19.475C125.786 20.259 124.407 20.651 122.741 20.651C121.453 20.651 120.193 20.378 118.961 19.832C117.729 19.286 117.113 18.726 117.113 18.152C117.113 17.998 117.204 17.858 117.386 17.732C117.568 17.592 117.743 17.522 117.911 17.522C118.093 17.522 118.261 17.578 118.415 17.69C118.569 17.788 118.744 17.928 118.94 18.11C119.136 18.292 119.311 18.432 119.465 18.53C120.529 19.202 121.719 19.538 123.035 19.538C123.959 19.538 124.862 19.258 125.744 18.698C126.626 18.124 127.067 17.361 127.067 16.409C127.067 15.765 126.829 15.233 126.353 14.813C125.877 14.379 125.282 14.071 124.568 13.889C123.854 13.693 123.077 13.476 122.237 13.238C121.411 13 120.641 12.755 119.927 12.503C119.213 12.251 118.618 11.845 118.142 11.285C117.666 10.725 117.428 10.06 117.428 9.29C117.428 8.506 117.589 7.827 117.911 7.253C118.247 6.665 118.681 6.203 119.213 5.867Z" fill="white"/>
<path d="M32.805 1.64498H32.2443C31.5509 1.64498 30.8979 1.9611 30.4763 2.49915L24.7372 9.839L18.998 2.49915C18.5778 1.9611 17.924 1.64498 17.2314 1.64498H16.6706L23.9079 10.9003L16.5156 20.3543H17.0763C17.7697 20.3543 18.4227 20.0381 18.8436 19.5001L24.7378 11.9622L30.632 19.5001C31.0529 20.0381 31.706 20.3543 32.3993 20.3543H32.96L25.5677 10.9003L32.805 1.64498ZM14.0438 16.6395C12.359 19.1433 9.04216 20.4265 5.87111 19.2949C3.08134 18.2995 1.31935 15.5873 1.31935 12.6828V11.9673H9.23545H16.4919V9.3003C16.4919 5.10361 13.3136 1.4295 9.04084 1.03661C4.13814 0.585648 0 4.36105 0 9.06417V12.6596C0 16.1247 2.12086 19.3459 5.45485 20.5194C9.81069 22.0523 14.3921 19.7646 15.941 15.8382H15.5202C14.9192 15.8382 14.3737 16.1485 14.0438 16.6395ZM1.31935 9.06417C1.31935 5.32877 4.42642 2.29013 8.24594 2.29013C12.0655 2.29013 15.1725 5.32877 15.1725 9.06417V10.677H1.31935V9.06417Z" fill="white"/>
</svg>
