<svg width="180" height="38" viewBox="0 0 180 38" fill="none" xmlns="http://www.w3.org/2000/svg">
<path d="M46.9554 11.4V18.725H53.9554V19.675H46.9554V27.05H54.7054V28H45.8304V10.45H54.7054V11.4H46.9554ZM65.2856 28L61.4606 22.025L57.7106 28H56.5106L60.8856 21.15L56.5606 14.425H57.8356L61.6106 20.275L65.3106 14.425H66.4856L62.1606 21.175L66.5606 28H65.2856ZM70.1976 18C70.5809 16.9 71.2726 16 72.2726 15.3C73.2892 14.6 74.5142 14.25 75.9476 14.25C77.2142 14.25 78.3392 14.5333 79.3226 15.1C80.3226 15.6667 81.0976 16.475 81.6476 17.525C82.2142 18.575 82.4976 19.8 82.4976 21.2C82.4976 22.6 82.2142 23.8333 81.6476 24.9C81.0976 25.95 80.3226 26.7667 79.3226 27.35C78.3392 27.9167 77.2142 28.2 75.9476 28.2C74.5309 28.2 73.3142 27.85 72.2976 27.15C71.2976 26.4333 70.5976 25.5333 70.1976 24.45V34.4H69.0726V14.425H70.1976V18ZM81.3476 21.2C81.3476 19.9667 81.1142 18.9 80.6476 18C80.1809 17.1 79.5226 16.4167 78.6726 15.95C77.8392 15.4667 76.8726 15.225 75.7726 15.225C74.7226 15.225 73.7726 15.475 72.9226 15.975C72.0726 16.4583 71.4059 17.1583 70.9226 18.075C70.4392 18.975 70.1976 20.0167 70.1976 21.2C70.1976 22.4 70.4392 23.4583 70.9226 24.375C71.4059 25.275 72.0726 25.975 72.9226 26.475C73.7726 26.9583 74.7226 27.2 75.7726 27.2C76.8726 27.2 77.8392 26.9583 78.6726 26.475C79.5226 25.9917 80.1809 25.3 80.6476 24.4C81.1142 23.5 81.3476 22.4333 81.3476 21.2ZM87.0188 17.225C87.3522 16.225 87.9438 15.4667 88.7938 14.95C89.6438 14.4167 90.7272 14.15 92.0438 14.15V15.325H91.6688C90.3355 15.325 89.2272 15.7083 88.3438 16.475C87.4605 17.225 87.0188 18.4583 87.0188 20.175V28H85.8938V14.425H87.0188V17.225ZM106.859 20.3C106.859 20.9 106.842 21.35 106.809 21.65H95.0841C95.1174 22.8667 95.3841 23.8917 95.8841 24.725C96.3841 25.5583 97.0424 26.1833 97.8591 26.6C98.6757 27.0167 99.5674 27.225 100.534 27.225C101.867 27.225 102.984 26.9 103.884 26.25C104.784 25.5833 105.351 24.6833 105.584 23.55H106.759C106.492 24.9333 105.809 26.0583 104.709 26.925C103.609 27.775 102.217 28.2 100.534 28.2C99.2674 28.2 98.1341 27.9167 97.1341 27.35C96.1341 26.7833 95.3507 25.975 94.7841 24.925C94.2174 23.8583 93.9341 22.6167 93.9341 21.2C93.9341 19.7833 94.2091 18.55 94.7591 17.5C95.3257 16.45 96.1091 15.65 97.1091 15.1C98.1091 14.5333 99.2507 14.25 100.534 14.25C101.834 14.25 102.959 14.5333 103.909 15.1C104.876 15.65 105.609 16.3917 106.109 17.325C106.609 18.2417 106.859 19.2333 106.859 20.3ZM105.734 20.725C105.784 19.525 105.567 18.5083 105.084 17.675C104.617 16.8417 103.976 16.225 103.159 15.825C102.342 15.4083 101.459 15.2 100.509 15.2C99.5591 15.2 98.6757 15.4083 97.8591 15.825C97.0591 16.225 96.4007 16.8417 95.8841 17.675C95.3841 18.5083 95.1174 19.525 95.0841 20.725H105.734ZM114.784 28.2C113.267 28.2 112.026 27.8667 111.059 27.2C110.109 26.5333 109.576 25.5833 109.459 24.35H110.609C110.692 25.2333 111.092 25.9333 111.809 26.45C112.542 26.9667 113.534 27.225 114.784 27.225C115.817 27.225 116.634 26.9667 117.234 26.45C117.851 25.9167 118.159 25.2667 118.159 24.5C118.159 23.9667 117.992 23.5333 117.659 23.2C117.342 22.85 116.942 22.5833 116.459 22.4C115.976 22.2167 115.317 22.0167 114.484 21.8C113.484 21.5333 112.676 21.275 112.059 21.025C111.442 20.7583 110.917 20.3667 110.484 19.85C110.051 19.3333 109.834 18.6417 109.834 17.775C109.834 17.1417 110.026 16.5583 110.409 16.025C110.792 15.475 111.326 15.0417 112.009 14.725C112.692 14.4083 113.467 14.25 114.334 14.25C115.751 14.25 116.892 14.6083 117.759 15.325C118.642 16.025 119.117 17 119.184 18.25H118.059C118.009 17.35 117.659 16.6167 117.009 16.05C116.359 15.4833 115.459 15.2 114.309 15.2C113.342 15.2 112.542 15.45 111.909 15.95C111.276 16.45 110.959 17.0583 110.959 17.775C110.959 18.4083 111.134 18.925 111.484 19.325C111.851 19.7083 112.292 20.0083 112.809 20.225C113.342 20.425 114.042 20.6417 114.909 20.875C115.859 21.125 116.617 21.375 117.184 21.625C117.767 21.8583 118.259 22.2083 118.659 22.675C119.059 23.125 119.259 23.7333 119.259 24.5C119.259 25.2 119.067 25.8333 118.684 26.4C118.301 26.9667 117.767 27.4083 117.084 27.725C116.401 28.0417 115.634 28.2 114.784 28.2ZM127.211 28.2C125.694 28.2 124.453 27.8667 123.486 27.2C122.536 26.5333 122.003 25.5833 121.886 24.35H123.036C123.119 25.2333 123.519 25.9333 124.236 26.45C124.969 26.9667 125.961 27.225 127.211 27.225C128.244 27.225 129.061 26.9667 129.661 26.45C130.278 25.9167 130.586 25.2667 130.586 24.5C130.586 23.9667 130.419 23.5333 130.086 23.2C129.769 22.85 129.369 22.5833 128.886 22.4C128.403 22.2167 127.744 22.0167 126.911 21.8C125.911 21.5333 125.103 21.275 124.486 21.025C123.869 20.7583 123.344 20.3667 122.911 19.85C122.478 19.3333 122.261 18.6417 122.261 17.775C122.261 17.1417 122.453 16.5583 122.836 16.025C123.219 15.475 123.753 15.0417 124.436 14.725C125.119 14.4083 125.894 14.25 126.761 14.25C128.178 14.25 129.319 14.6083 130.186 15.325C131.069 16.025 131.544 17 131.611 18.25H130.486C130.436 17.35 130.086 16.6167 129.436 16.05C128.786 15.4833 127.886 15.2 126.736 15.2C125.769 15.2 124.969 15.45 124.336 15.95C123.703 16.45 123.386 17.0583 123.386 17.775C123.386 18.4083 123.561 18.925 123.911 19.325C124.278 19.7083 124.719 20.0083 125.236 20.225C125.769 20.425 126.469 20.6417 127.336 20.875C128.286 21.125 129.044 21.375 129.611 21.625C130.194 21.8583 130.686 22.2083 131.086 22.675C131.486 23.125 131.686 23.7333 131.686 24.5C131.686 25.2 131.494 25.8333 131.111 26.4C130.728 26.9667 130.194 27.4083 129.511 27.725C128.828 28.0417 128.061 28.2 127.211 28.2ZM142.438 10.45V24.075C142.438 25.2917 142.063 26.2833 141.313 27.05C140.563 27.8 139.546 28.175 138.263 28.175C136.913 28.175 135.846 27.7667 135.063 26.95C134.296 26.1167 133.913 24.975 133.913 23.525H135.038C135.038 24.5917 135.296 25.4667 135.813 26.15C136.329 26.8333 137.146 27.175 138.263 27.175C139.329 27.175 140.096 26.875 140.563 26.275C141.046 25.6583 141.288 24.925 141.288 24.075V10.45H142.438ZM151.76 28.175C150.627 28.175 149.635 27.975 148.785 27.575C147.935 27.175 147.268 26.6333 146.785 25.95C146.318 25.2667 146.052 24.5083 145.985 23.675H147.16C147.293 24.5917 147.718 25.4083 148.435 26.125C149.168 26.8417 150.277 27.2 151.76 27.2C152.627 27.2 153.377 27.0417 154.01 26.725C154.66 26.4083 155.16 25.975 155.51 25.425C155.86 24.875 156.035 24.2667 156.035 23.6C156.035 22.75 155.827 22.075 155.41 21.575C155.01 21.075 154.502 20.7 153.885 20.45C153.285 20.2 152.468 19.9333 151.435 19.65C150.302 19.35 149.385 19.05 148.685 18.75C148.002 18.45 147.418 17.9917 146.935 17.375C146.468 16.7417 146.235 15.8833 146.235 14.8C146.235 13.9667 146.452 13.2083 146.885 12.525C147.335 11.825 147.968 11.275 148.785 10.875C149.602 10.475 150.543 10.275 151.61 10.275C153.16 10.275 154.41 10.6583 155.36 11.425C156.31 12.1917 156.877 13.1333 157.06 14.25H155.86C155.76 13.8 155.535 13.3417 155.185 12.875C154.852 12.4083 154.368 12.025 153.735 11.725C153.118 11.4083 152.377 11.25 151.51 11.25C150.343 11.25 149.36 11.575 148.56 12.225C147.76 12.8583 147.36 13.7083 147.36 14.775C147.36 15.625 147.568 16.3083 147.985 16.825C148.402 17.325 148.91 17.7083 149.51 17.975C150.127 18.225 150.952 18.4833 151.985 18.75C153.135 19.0667 154.043 19.375 154.71 19.675C155.393 19.9583 155.968 20.4167 156.435 21.05C156.918 21.6667 157.16 22.5083 157.16 23.575C157.16 24.3583 156.952 25.1 156.535 25.8C156.118 26.5 155.502 27.075 154.685 27.525C153.885 27.9583 152.91 28.175 151.76 28.175Z" fill="white"/>
<path d="M34.1424 11.516H33.5588C32.8372 11.516 32.1575 11.7689 31.7188 12.1993L25.7457 18.0712L19.7725 12.1993C19.3352 11.7689 18.6548 11.516 17.9339 11.516H17.3503L24.8826 18.9202L17.1889 26.4834H17.7725C18.4941 26.4834 19.1738 26.2305 19.6118 25.8001L25.7463 19.7697L31.8808 25.8001C32.3189 26.2305 32.9986 26.4834 33.7202 26.4834H34.3037L26.61 18.9202L34.1424 11.516ZM14.6164 23.5116C12.8629 25.5147 9.4108 26.5412 6.11047 25.6359C3.20696 24.8396 1.37314 22.6698 1.37314 20.3462V19.7739H9.61197H17.1642V17.6402C17.1642 14.2829 13.8563 11.3436 9.40943 11.0293C4.30685 10.6685 0 13.6888 0 17.4513V20.3277C0 23.0997 2.20732 25.6767 5.67724 26.6155C10.2107 27.8418 14.9789 26.0117 16.5909 22.8706H16.1529C15.5274 22.8706 14.9597 23.1188 14.6164 23.5116ZM1.37314 17.4513C1.37314 14.463 4.60688 12.0321 8.58212 12.0321C12.5574 12.0321 15.7911 14.463 15.7911 17.4513V18.7416H1.37314V17.4513Z" fill="white"/>
</svg>
