<svg width="152" height="38" viewBox="0 0 152 38" fill="none" xmlns="http://www.w3.org/2000/svg">
<path d="M40.135 11.4V18.725H47.135V19.675H40.135V27.05H47.885V28H39.01V10.45H47.885V11.4H40.135ZM58.4653 28L54.6403 22.025L50.8903 28H49.6903L54.0653 21.15L49.7403 14.425H51.0153L54.7903 20.275L58.4903 14.425H59.6653L55.3403 21.175L59.7403 28H58.4653ZM63.3772 18C63.7605 16.9 64.4522 16 65.4522 15.3C66.4688 14.6 67.6938 14.25 69.1272 14.25C70.3938 14.25 71.5188 14.5333 72.5022 15.1C73.5022 15.6667 74.2772 16.475 74.8272 17.525C75.3938 18.575 75.6772 19.8 75.6772 21.2C75.6772 22.6 75.3938 23.8333 74.8272 24.9C74.2772 25.95 73.5022 26.7667 72.5022 27.35C71.5188 27.9167 70.3938 28.2 69.1272 28.2C67.7105 28.2 66.4938 27.85 65.4772 27.15C64.4772 26.4333 63.7772 25.5333 63.3772 24.45V34.4H62.2522V14.425H63.3772V18ZM74.5272 21.2C74.5272 19.9667 74.2938 18.9 73.8272 18C73.3605 17.1 72.7022 16.4167 71.8522 15.95C71.0188 15.4667 70.0522 15.225 68.9522 15.225C67.9022 15.225 66.9522 15.475 66.1022 15.975C65.2522 16.4583 64.5855 17.1583 64.1022 18.075C63.6188 18.975 63.3772 20.0167 63.3772 21.2C63.3772 22.4 63.6188 23.4583 64.1022 24.375C64.5855 25.275 65.2522 25.975 66.1022 26.475C66.9522 26.9583 67.9022 27.2 68.9522 27.2C70.0522 27.2 71.0188 26.9583 71.8522 26.475C72.7022 25.9917 73.3605 25.3 73.8272 24.4C74.2938 23.5 74.5272 22.4333 74.5272 21.2ZM80.1985 17.225C80.5318 16.225 81.1235 15.4667 81.9735 14.95C82.8235 14.4167 83.9068 14.15 85.2235 14.15V15.325H84.8485C83.5151 15.325 82.4068 15.7083 81.5235 16.475C80.6401 17.225 80.1985 18.4583 80.1985 20.175V28H79.0735V14.425H80.1985V17.225ZM100.039 20.3C100.039 20.9 100.022 21.35 99.9887 21.65H88.2637C88.297 22.8667 88.5637 23.8917 89.0637 24.725C89.5637 25.5583 90.222 26.1833 91.0387 26.6C91.8554 27.0167 92.747 27.225 93.7137 27.225C95.047 27.225 96.1637 26.9 97.0637 26.25C97.9637 25.5833 98.5304 24.6833 98.7637 23.55H99.9387C99.672 24.9333 98.9887 26.0583 97.8887 26.925C96.7887 27.775 95.397 28.2 93.7137 28.2C92.447 28.2 91.3137 27.9167 90.3137 27.35C89.3137 26.7833 88.5304 25.975 87.9637 24.925C87.397 23.8583 87.1137 22.6167 87.1137 21.2C87.1137 19.7833 87.3887 18.55 87.9387 17.5C88.5054 16.45 89.2887 15.65 90.2887 15.1C91.2887 14.5333 92.4304 14.25 93.7137 14.25C95.0137 14.25 96.1387 14.5333 97.0887 15.1C98.0554 15.65 98.7887 16.3917 99.2887 17.325C99.7887 18.2417 100.039 19.2333 100.039 20.3ZM98.9137 20.725C98.9637 19.525 98.747 18.5083 98.2637 17.675C97.797 16.8417 97.1554 16.225 96.3387 15.825C95.522 15.4083 94.6387 15.2 93.6887 15.2C92.7387 15.2 91.8554 15.4083 91.0387 15.825C90.2387 16.225 89.5804 16.8417 89.0637 17.675C88.5637 18.5083 88.297 19.525 88.2637 20.725H98.9137ZM107.964 28.2C106.447 28.2 105.205 27.8667 104.239 27.2C103.289 26.5333 102.755 25.5833 102.639 24.35H103.789C103.872 25.2333 104.272 25.9333 104.989 26.45C105.722 26.9667 106.714 27.225 107.964 27.225C108.997 27.225 109.814 26.9667 110.414 26.45C111.03 25.9167 111.339 25.2667 111.339 24.5C111.339 23.9667 111.172 23.5333 110.839 23.2C110.522 22.85 110.122 22.5833 109.639 22.4C109.155 22.2167 108.497 22.0167 107.664 21.8C106.664 21.5333 105.855 21.275 105.239 21.025C104.622 20.7583 104.097 20.3667 103.664 19.85C103.23 19.3333 103.014 18.6417 103.014 17.775C103.014 17.1417 103.205 16.5583 103.589 16.025C103.972 15.475 104.505 15.0417 105.189 14.725C105.872 14.4083 106.647 14.25 107.514 14.25C108.93 14.25 110.072 14.6083 110.939 15.325C111.822 16.025 112.297 17 112.364 18.25H111.239C111.189 17.35 110.839 16.6167 110.189 16.05C109.539 15.4833 108.639 15.2 107.489 15.2C106.522 15.2 105.722 15.45 105.089 15.95C104.455 16.45 104.139 17.0583 104.139 17.775C104.139 18.4083 104.314 18.925 104.664 19.325C105.03 19.7083 105.472 20.0083 105.989 20.225C106.522 20.425 107.222 20.6417 108.089 20.875C109.039 21.125 109.797 21.375 110.364 21.625C110.947 21.8583 111.439 22.2083 111.839 22.675C112.239 23.125 112.439 23.7333 112.439 24.5C112.439 25.2 112.247 25.8333 111.864 26.4C111.48 26.9667 110.947 27.4083 110.264 27.725C109.58 28.0417 108.814 28.2 107.964 28.2ZM120.39 28.2C118.874 28.2 117.632 27.8667 116.665 27.2C115.715 26.5333 115.182 25.5833 115.065 24.35H116.215C116.299 25.2333 116.699 25.9333 117.415 26.45C118.149 26.9667 119.14 27.225 120.39 27.225C121.424 27.225 122.24 26.9667 122.84 26.45C123.457 25.9167 123.765 25.2667 123.765 24.5C123.765 23.9667 123.599 23.5333 123.265 23.2C122.949 22.85 122.549 22.5833 122.065 22.4C121.582 22.2167 120.924 22.0167 120.09 21.8C119.09 21.5333 118.282 21.275 117.665 21.025C117.049 20.7583 116.524 20.3667 116.09 19.85C115.657 19.3333 115.44 18.6417 115.44 17.775C115.44 17.1417 115.632 16.5583 116.015 16.025C116.399 15.475 116.932 15.0417 117.615 14.725C118.299 14.4083 119.074 14.25 119.94 14.25C121.357 14.25 122.499 14.6083 123.365 15.325C124.249 16.025 124.724 17 124.79 18.25H123.665C123.615 17.35 123.265 16.6167 122.615 16.05C121.965 15.4833 121.065 15.2 119.915 15.2C118.949 15.2 118.149 15.45 117.515 15.95C116.882 16.45 116.565 17.0583 116.565 17.775C116.565 18.4083 116.74 18.925 117.09 19.325C117.457 19.7083 117.899 20.0083 118.415 20.225C118.949 20.425 119.649 20.6417 120.515 20.875C121.465 21.125 122.224 21.375 122.79 21.625C123.374 21.8583 123.865 22.2083 124.265 22.675C124.665 23.125 124.865 23.7333 124.865 24.5C124.865 25.2 124.674 25.8333 124.29 26.4C123.907 26.9667 123.374 27.4083 122.69 27.725C122.007 28.0417 121.24 28.2 120.39 28.2ZM135.617 10.45V24.075C135.617 25.2917 135.242 26.2833 134.492 27.05C133.742 27.8 132.726 28.175 131.442 28.175C130.092 28.175 129.026 27.7667 128.242 26.95C127.476 26.1167 127.092 24.975 127.092 23.525H128.217C128.217 24.5917 128.476 25.4667 128.992 26.15C129.509 26.8333 130.326 27.175 131.442 27.175C132.509 27.175 133.276 26.875 133.742 26.275C134.226 25.6583 134.467 24.925 134.467 24.075V10.45H135.617ZM144.939 28.175C143.806 28.175 142.814 27.975 141.964 27.575C141.114 27.175 140.448 26.6333 139.964 25.95C139.498 25.2667 139.231 24.5083 139.164 23.675H140.339C140.473 24.5917 140.898 25.4083 141.614 26.125C142.348 26.8417 143.456 27.2 144.939 27.2C145.806 27.2 146.556 27.0417 147.189 26.725C147.839 26.4083 148.339 25.975 148.689 25.425C149.039 24.875 149.214 24.2667 149.214 23.6C149.214 22.75 149.006 22.075 148.589 21.575C148.189 21.075 147.681 20.7 147.064 20.45C146.464 20.2 145.648 19.9333 144.614 19.65C143.481 19.35 142.564 19.05 141.864 18.75C141.181 18.45 140.598 17.9917 140.114 17.375C139.648 16.7417 139.414 15.8833 139.414 14.8C139.414 13.9667 139.631 13.2083 140.064 12.525C140.514 11.825 141.148 11.275 141.964 10.875C142.781 10.475 143.723 10.275 144.789 10.275C146.339 10.275 147.589 10.6583 148.539 11.425C149.489 12.1917 150.056 13.1333 150.239 14.25H149.039C148.939 13.8 148.714 13.3417 148.364 12.875C148.031 12.4083 147.548 12.025 146.914 11.725C146.298 11.4083 145.556 11.25 144.689 11.25C143.523 11.25 142.539 11.575 141.739 12.225C140.939 12.8583 140.539 13.7083 140.539 14.775C140.539 15.625 140.748 16.3083 141.164 16.825C141.581 17.325 142.089 17.7083 142.689 17.975C143.306 18.225 144.131 18.4833 145.164 18.75C146.314 19.0667 147.223 19.375 147.889 19.675C148.573 19.9583 149.148 20.4167 149.614 21.05C150.098 21.6667 150.339 22.5083 150.339 23.575C150.339 24.3583 150.131 25.1 149.714 25.8C149.298 26.5 148.681 27.075 147.864 27.525C147.064 27.9583 146.089 28.175 144.939 28.175Z" fill="white"/>
<path d="M28.8238 11.516H28.3311C27.7219 11.516 27.1481 11.7689 26.7777 12.1993L21.7351 18.0712L16.6924 12.1993C16.3232 11.7689 15.7488 11.516 15.1402 11.516H14.6475L21.0065 18.9202L14.5113 26.4834H15.004C15.6132 26.4834 16.187 26.2305 16.5568 25.8001L21.7356 19.7697L26.9145 25.8001C27.2843 26.2305 27.8581 26.4834 28.4673 26.4834H28.96L22.4648 18.9202L28.8238 11.516ZM12.3395 23.5116C10.8591 25.5147 7.94481 26.5412 5.15859 25.6359C2.70739 24.8396 1.15923 22.6698 1.15923 20.3462V19.7739H8.11464H14.4904V17.6402C14.4904 14.2829 11.6978 11.3436 7.94366 11.0293C3.63594 10.6685 0 13.6888 0 17.4513V20.3277C0 23.0997 1.86347 25.6767 4.79286 26.6155C8.62007 27.8418 12.6455 26.0117 14.0065 22.8706H13.6367C13.1086 22.8706 12.6293 23.1188 12.3395 23.5116ZM1.15923 17.4513C1.15923 14.463 3.88923 12.0321 7.24522 12.0321C10.6012 12.0321 13.3312 14.463 13.3312 17.4513V18.7416H1.15923V17.4513Z" fill="white"/>
</svg>
