<svg width="170" height="30" viewBox="0 0 170 30" fill="none" xmlns="http://www.w3.org/2000/svg">
<path d="M41.5459 6.37305C42.5876 6.35677 43.4421 6.54395 44.1094 6.93457C44.793 7.3252 45.3464 7.78906 45.7695 8.32617C46.1927 8.86328 46.5182 9.40853 46.7461 9.96191C46.974 10.499 47.153 10.9222 47.2832 11.2314C47.3158 11.3128 47.3809 11.4186 47.4785 11.5488C47.5599 11.6628 47.6738 11.8011 47.8203 11.9639C47.9831 12.1104 48.1865 12.2812 48.4307 12.4766C47.9261 12.4928 47.4785 12.5091 47.0879 12.5254C46.6973 12.5254 46.3636 12.5335 46.0869 12.5498C45.7777 12.5661 45.501 12.5824 45.2568 12.5986C45.0127 12.6149 44.7116 12.6393 44.3535 12.6719C44.028 12.7044 43.6292 12.737 43.1572 12.7695C42.6852 12.8021 42.1074 12.8509 41.4238 12.916C41.8307 12.4277 42.1481 11.9964 42.376 11.6221C42.6201 11.2314 42.7992 10.8896 42.9131 10.5967C43.0433 10.2874 43.1165 10.0189 43.1328 9.79102C43.1654 9.56315 43.1572 9.36784 43.1084 9.20508C43.0107 8.83073 42.7585 8.56217 42.3516 8.39941C41.1797 8.07389 40.1543 8.33431 39.2754 9.18066C38.4128 10.0107 37.7943 11.3779 37.4199 13.2822C37.2409 14.2262 37.07 15.2109 36.9072 16.2363C36.7607 17.2454 36.7038 18.1732 36.7363 19.0195C36.7689 19.8496 36.9316 20.5251 37.2246 21.0459C37.5176 21.5667 38.0221 21.8109 38.7383 21.7783C39.4382 21.7458 40.0322 21.6318 40.5205 21.4365C41.0088 21.2249 41.3994 20.9808 41.6924 20.7041C41.9854 20.4111 42.1888 20.1019 42.3027 19.7764C42.4329 19.4346 42.4818 19.1172 42.4492 18.8242C42.3841 18.5964 42.2132 18.3522 41.9365 18.0918C41.6924 17.8639 41.3262 17.6117 40.8379 17.335C40.3496 17.042 39.6497 16.7409 38.7383 16.4316C39.6009 16.3828 40.3089 16.3503 40.8623 16.334C41.432 16.3014 41.8796 16.2689 42.2051 16.2363C42.5957 16.2038 42.8968 16.1794 43.1084 16.1631C43.3037 16.1468 43.5885 16.1305 43.9629 16.1143C44.2884 16.098 44.7035 16.0898 45.208 16.0898C45.7288 16.0898 46.3799 16.0817 47.1611 16.0654C46.8682 16.3584 46.6403 16.627 46.4775 16.8711C46.3962 17.0013 46.3229 17.1152 46.2578 17.2129C46.1927 17.3757 46.1683 17.7093 46.1846 18.2139C46.1846 18.637 46.2171 19.2637 46.2822 20.0938C46.3473 20.9076 46.4694 22.0225 46.6484 23.4385L43.4014 23.8779L43.5479 20.582C43.1735 21.4772 42.7015 22.1445 42.1318 22.584C41.5785 23.0234 41.0495 23.3327 40.5449 23.5117C39.9427 23.7233 39.3161 23.821 38.665 23.8047C37.8187 23.7233 36.9723 23.528 36.126 23.2188C35.2796 22.9095 34.5309 22.4375 33.8799 21.8027C33.2288 21.1517 32.7243 20.3135 32.3662 19.2881C32.0244 18.2627 31.9186 16.9932 32.0488 15.4795C32.1953 13.9658 32.5534 12.6475 33.123 11.5244C33.709 10.3851 34.4333 9.44108 35.2959 8.69238C36.1585 7.94368 37.127 7.38216 38.2012 7.00781C39.2917 6.61719 40.4066 6.4056 41.5459 6.37305ZM48.4307 13.0869L52.9229 13.1357C52.6624 14.1286 52.4671 14.9749 52.3369 15.6748C52.223 16.3747 52.1497 16.9606 52.1172 17.4326C52.0521 17.9697 52.0358 18.4255 52.0684 18.7998C52.1172 19.1416 52.1986 19.5078 52.3125 19.8984C52.4102 20.224 52.5566 20.5983 52.752 21.0215C52.9473 21.4447 53.2077 21.8678 53.5332 22.291C53.3379 22.2259 53.1263 22.1771 52.8984 22.1445C52.6706 22.112 52.459 22.0876 52.2637 22.0713C52.0358 22.055 51.8079 22.055 51.5801 22.0713C51.3522 22.0876 51.0999 22.112 50.8232 22.1445C50.5954 22.1771 50.3187 22.2178 49.9932 22.2666C49.6676 22.3154 49.3258 22.3805 48.9678 22.4619C49.2119 21.7295 49.3991 21.0947 49.5293 20.5576C49.6758 20.0205 49.7816 19.5729 49.8467 19.2148C49.9118 18.7917 49.9525 18.4499 49.9688 18.1895C49.9688 17.8639 49.9688 17.4977 49.9688 17.0908C49.9688 16.6676 49.9688 16.2607 49.9688 15.8701C49.9688 15.4795 49.9606 15.1377 49.9443 14.8447C49.9281 14.5355 49.8955 14.3402 49.8467 14.2588L49.6025 14.0146C49.5049 13.9333 49.3584 13.8193 49.1631 13.6729C48.984 13.5101 48.7399 13.3148 48.4307 13.0869ZM50.1641 9.32715C50.5059 9.14811 50.8477 9.09928 51.1895 9.18066C51.5475 9.26204 51.8242 9.41667 52.0195 9.64453C52.2148 9.8724 52.2799 10.141 52.2148 10.4502C52.166 10.7594 51.9056 11.0605 51.4336 11.3535C50.9616 11.6302 50.5465 11.7279 50.1885 11.6465C49.8304 11.5651 49.5781 11.3942 49.4316 11.1338C49.2852 10.8734 49.2607 10.5723 49.3584 10.2305C49.4561 9.8724 49.7246 9.57129 50.1641 9.32715ZM54.1191 8.61914C54.6074 8.66797 55.0143 8.70866 55.3398 8.74121C55.6816 8.77376 55.9583 8.79818 56.1699 8.81445C56.4141 8.83073 56.6094 8.83887 56.7559 8.83887C56.9023 8.85514 57.0977 8.85514 57.3418 8.83887C57.5534 8.82259 57.8301 8.80632 58.1719 8.79004C58.5137 8.75749 58.945 8.70866 59.4658 8.64355C59.3519 8.80632 59.2624 8.9528 59.1973 9.08301C59.1322 9.19694 59.0752 9.30273 59.0264 9.40039L58.8799 9.69336C58.8473 9.79102 58.8148 9.88867 58.7822 9.98633C58.7497 10.0677 58.7171 10.1654 58.6846 10.2793C58.6683 10.3932 58.652 10.5153 58.6357 10.6455H62.3955L62.0537 12.623L58.6113 12.4277C58.5299 13.2578 58.473 13.9007 58.4404 14.3564C58.4079 14.8122 58.3753 15.1458 58.3428 15.3574L58.2939 15.7969C58.2451 16.4154 58.1963 17.0908 58.1475 17.8232C58.0986 18.5394 58.0824 19.2067 58.0986 19.8252C58.1149 20.4437 58.1719 20.9645 58.2695 21.3877C58.3672 21.7946 58.5381 21.998 58.7822 21.998C59.0264 21.998 59.2542 21.9329 59.4658 21.8027C59.6774 21.6725 59.8564 21.5179 60.0029 21.3389C60.1657 21.1598 60.2878 20.9808 60.3691 20.8018C60.4505 20.6064 60.4912 20.46 60.4912 20.3623C60.4912 20.2646 60.4668 20.1507 60.418 20.0205C60.3366 19.7764 60.1901 19.4671 59.9785 19.0928C60.4505 19.2067 60.8656 19.3206 61.2236 19.4346C61.4027 19.4997 61.5654 19.5648 61.7119 19.6299C61.8747 19.695 62.0618 19.7682 62.2734 19.8496C62.4525 19.931 62.6803 20.0286 62.957 20.1426C63.2337 20.2565 63.5592 20.3949 63.9336 20.5576C63.5755 20.6227 63.3151 20.7285 63.1523 20.875C63.0547 20.9401 62.9814 21.0133 62.9326 21.0947C62.8187 21.2738 62.6885 21.5179 62.542 21.8271C62.3955 22.1201 62.1758 22.4131 61.8828 22.7061C61.5898 22.999 61.1911 23.2594 60.6865 23.4873C60.1982 23.7152 59.5391 23.8454 58.709 23.8779C57.8464 23.9105 57.1872 23.764 56.7314 23.4385C56.292 23.113 55.9665 22.7386 55.7549 22.3154C55.5596 21.876 55.4456 21.4447 55.4131 21.0215C55.3805 20.5983 55.3561 20.3135 55.3398 20.167C55.3236 20.0205 55.3236 19.6543 55.3398 19.0684C55.3561 18.4824 55.3805 17.8395 55.4131 17.1396C55.4456 16.4235 55.4782 15.7399 55.5107 15.0889C55.5433 14.4215 55.5596 13.9333 55.5596 13.624C55.5596 13.4613 55.5677 13.2904 55.584 13.1113C55.584 12.9648 55.584 12.8102 55.584 12.6475C55.6003 12.4684 55.6084 12.2975 55.6084 12.1348L52.0684 12.1104L51.9219 10.7188L55.4863 10.8164C55.4538 10.6374 55.4131 10.4746 55.3643 10.3281C55.3317 10.1654 55.2992 10.0352 55.2666 9.9375C55.2178 9.82357 55.1689 9.72591 55.1201 9.64453C55.055 9.56315 54.9818 9.47363 54.9004 9.37598C54.819 9.2946 54.7132 9.1888 54.583 9.05859C54.4528 8.92839 54.2982 8.7819 54.1191 8.61914ZM80.4863 14.625C80.8118 14.6413 81.1292 14.6494 81.4385 14.6494C81.7477 14.6331 82.0244 14.6169 82.2686 14.6006C82.5452 14.5843 82.8057 14.5599 83.0498 14.5273L84.002 14.4541C84.3275 14.4378 84.7262 14.4215 85.1982 14.4053C85.6702 14.389 86.2399 14.3727 86.9072 14.3564C86.5492 14.4867 86.2399 14.6331 85.9795 14.7959C85.7354 14.9587 85.5319 15.1051 85.3691 15.2354C85.1901 15.3981 85.0355 15.5527 84.9053 15.6992C84.7588 15.8945 84.6042 16.1468 84.4414 16.4561C84.2949 16.749 84.1322 17.0583 83.9531 17.3838C83.7741 17.7093 83.5788 18.043 83.3672 18.3848C83.1719 18.7103 82.9521 19.0033 82.708 19.2637C82.5615 19.4264 82.4069 19.5973 82.2441 19.7764C82.1139 19.9391 81.9593 20.1182 81.7803 20.3135C81.6012 20.5088 81.4222 20.696 81.2432 20.875C81.6501 21.3307 82.0163 21.7132 82.3418 22.0225C82.6836 22.3317 82.9684 22.5758 83.1963 22.7549C83.473 22.9827 83.709 23.1618 83.9043 23.292C84.0996 23.4222 84.3275 23.5524 84.5879 23.6826C84.7995 23.7965 85.0518 23.9186 85.3447 24.0488C85.6377 24.179 85.9632 24.3092 86.3213 24.4395C84.5146 24.5697 83.1149 24.6592 82.1221 24.708C81.1292 24.7731 80.4049 24.8219 79.9492 24.8545C79.4121 24.9033 79.0866 24.9277 78.9727 24.9277C78.9401 24.944 78.9727 24.9115 79.0703 24.8301C79.168 24.765 79.2819 24.6673 79.4121 24.5371C79.5423 24.4232 79.6644 24.2848 79.7783 24.1221C79.8923 23.9756 79.9492 23.821 79.9492 23.6582C79.9492 23.528 79.9411 23.3896 79.9248 23.2432C79.9085 23.113 79.8841 22.9665 79.8516 22.8037C79.819 22.641 79.762 22.4701 79.6807 22.291C79.3551 22.8118 78.9482 23.2025 78.46 23.4629C77.9717 23.7233 77.4997 23.9105 77.0439 24.0244C76.5068 24.1546 75.9616 24.2116 75.4082 24.1953C73.9108 24.0977 72.8773 23.7152 72.3076 23.0479C71.7542 22.3805 71.5182 21.404 71.5996 20.1182C71.6647 19.6136 71.8193 19.0602 72.0635 18.458C72.2751 17.9372 72.5843 17.3431 72.9912 16.6758C73.4144 16.0085 74.0085 15.2842 74.7734 14.5029C73.9596 13.5589 73.3493 12.7126 72.9424 11.9639C72.5518 11.1989 72.2751 10.5479 72.1123 10.0107C71.9333 9.37598 71.86 8.82259 71.8926 8.35059C72.0065 7.61816 72.2181 7.07292 72.5273 6.71484C72.8529 6.35677 73.2191 6.11263 73.626 5.98242C74.0492 5.85221 74.4967 5.78711 74.9688 5.78711C75.4408 5.78711 75.8802 5.77083 76.2871 5.73828C76.694 5.70573 77.1579 5.71387 77.6787 5.7627C78.2158 5.79525 78.7285 5.87663 79.2168 6.00684C79.7051 6.12077 80.1364 6.29167 80.5107 6.51953C80.8851 6.73112 81.1292 6.99967 81.2432 7.3252C81.3571 7.65072 81.4385 7.9681 81.4873 8.27734C81.5361 8.57031 81.5199 8.87956 81.4385 9.20508C81.3734 9.5306 81.2188 9.88053 80.9746 10.2549C80.7305 10.613 80.3805 11.0117 79.9248 11.4512C79.583 11.8255 79.2412 12.1836 78.8994 12.5254C78.6064 12.8184 78.2809 13.1276 77.9229 13.4531C77.5648 13.7786 77.223 14.0635 76.8975 14.3076C77.0602 14.6169 77.2311 14.918 77.4102 15.2109C77.5892 15.4876 77.752 15.7399 77.8984 15.9678C78.0775 16.2445 78.2484 16.5049 78.4111 16.749C78.6064 17.0745 78.8099 17.3919 79.0215 17.7012C79.2493 18.0104 79.4528 18.279 79.6318 18.5068C79.8271 18.7347 79.9899 18.9137 80.1201 19.0439C80.2503 19.1742 80.3317 19.223 80.3643 19.1904C80.3805 19.1579 80.4538 19.0033 80.584 18.7266C80.7305 18.4499 80.8851 18.1406 81.0479 17.7988C81.2269 17.4408 81.3815 17.0908 81.5117 16.749C81.6582 16.4072 81.7477 16.1549 81.7803 15.9922C81.764 15.862 81.7152 15.7155 81.6338 15.5527C81.5524 15.4225 81.4222 15.2842 81.2432 15.1377C81.0804 14.9749 80.8281 14.804 80.4863 14.625ZM75.75 12.5498C76.5638 11.6221 77.1579 10.8734 77.5322 10.3037C77.9066 9.73405 78.1589 9.28646 78.2891 8.96094C78.4518 8.58659 78.4925 8.3099 78.4111 8.13086C78.2646 7.95182 78.0368 7.78906 77.7275 7.64258C77.4183 7.49609 77.0846 7.42285 76.7266 7.42285C76.3685 7.40658 76.0023 7.47982 75.6279 7.64258C75.2699 7.78906 74.9606 8.08203 74.7002 8.52148C74.6025 8.73307 74.57 9.02604 74.6025 9.40039C74.6351 9.72591 74.7246 10.141 74.8711 10.6455C75.0339 11.1501 75.3268 11.7848 75.75 12.5498ZM75.2617 20.1914C75.4733 20.5007 75.7337 20.7122 76.043 20.8262C76.3197 20.9401 76.6696 20.9645 77.0928 20.8994C77.5322 20.8343 78.0612 20.5902 78.6797 20.167C78.4355 19.8415 78.224 19.5485 78.0449 19.2881C77.8659 19.0114 77.7113 18.7835 77.5811 18.6045C77.4346 18.3929 77.3125 18.2139 77.2148 18.0674C77.1172 17.9209 76.9951 17.7419 76.8486 17.5303C76.7184 17.3512 76.5638 17.1315 76.3848 16.8711C76.2057 16.6107 75.9941 16.3014 75.75 15.9434C75.2292 16.5618 74.8955 17.221 74.749 17.9209C74.6188 18.6045 74.7897 19.3613 75.2617 20.1914ZM102.459 6.37305C103.501 6.35677 104.355 6.54395 105.022 6.93457C105.706 7.3252 106.259 7.78906 106.683 8.32617C107.106 8.86328 107.431 9.40853 107.659 9.96191C107.887 10.499 108.066 10.9222 108.196 11.2314C108.229 11.3128 108.294 11.4186 108.392 11.5488C108.473 11.6628 108.587 11.8011 108.733 11.9639C108.896 12.1104 109.1 12.2812 109.344 12.4766C108.839 12.4928 108.392 12.5091 108.001 12.5254C107.61 12.5254 107.277 12.5335 107 12.5498C106.691 12.5661 106.414 12.5824 106.17 12.5986C105.926 12.6149 105.625 12.6393 105.267 12.6719C104.941 12.7044 104.542 12.737 104.07 12.7695C103.598 12.8021 103.021 12.8509 102.337 12.916C102.744 12.4277 103.061 11.9964 103.289 11.6221C103.533 11.2314 103.712 10.8896 103.826 10.5967C103.956 10.2874 104.03 10.0189 104.046 9.79102C104.078 9.56315 104.07 9.36784 104.021 9.20508C103.924 8.83073 103.672 8.56217 103.265 8.39941C102.093 8.07389 101.067 8.33431 100.188 9.18066C99.3258 10.0107 98.7074 11.3779 98.333 13.2822C98.154 14.2262 97.9831 15.2109 97.8203 16.2363C97.6738 17.2454 97.6169 18.1732 97.6494 19.0195C97.682 19.8496 97.8447 20.5251 98.1377 21.0459C98.4307 21.5667 98.9352 21.8109 99.6514 21.7783C100.351 21.7458 100.945 21.6318 101.434 21.4365C101.922 21.2249 102.312 20.9808 102.605 20.7041C102.898 20.4111 103.102 20.1019 103.216 19.7764C103.346 19.4346 103.395 19.1172 103.362 18.8242C103.297 18.5964 103.126 18.3522 102.85 18.0918C102.605 17.8639 102.239 17.6117 101.751 17.335C101.263 17.042 100.563 16.7409 99.6514 16.4316C100.514 16.3828 101.222 16.3503 101.775 16.334C102.345 16.3014 102.793 16.2689 103.118 16.2363C103.509 16.2038 103.81 16.1794 104.021 16.1631C104.217 16.1468 104.502 16.1305 104.876 16.1143C105.201 16.098 105.617 16.0898 106.121 16.0898C106.642 16.0898 107.293 16.0817 108.074 16.0654C107.781 16.3584 107.553 16.627 107.391 16.8711C107.309 17.0013 107.236 17.1152 107.171 17.2129C107.106 17.3757 107.081 17.7093 107.098 18.2139C107.098 18.637 107.13 19.2637 107.195 20.0938C107.26 20.9076 107.382 22.0225 107.562 23.4385L104.314 23.8779L104.461 20.582C104.087 21.4772 103.615 22.1445 103.045 22.584C102.492 23.0234 101.963 23.3327 101.458 23.5117C100.856 23.7233 100.229 23.821 99.5781 23.8047C98.7318 23.7233 97.8854 23.528 97.0391 23.2188C96.1927 22.9095 95.444 22.4375 94.793 21.8027C94.1419 21.1517 93.6374 20.3135 93.2793 19.2881C92.9375 18.2627 92.8317 16.9932 92.9619 15.4795C93.1084 13.9658 93.4665 12.6475 94.0361 11.5244C94.6221 10.3851 95.3464 9.44108 96.209 8.69238C97.0716 7.94368 98.04 7.38216 99.1143 7.00781C100.205 6.61719 101.32 6.4056 102.459 6.37305ZM109.344 13.0869L113.836 13.1357C113.576 14.1286 113.38 14.9749 113.25 15.6748C113.136 16.3747 113.063 16.9606 113.03 17.4326C112.965 17.9697 112.949 18.4255 112.981 18.7998C113.03 19.1416 113.112 19.5078 113.226 19.8984C113.323 20.224 113.47 20.5983 113.665 21.0215C113.86 21.4447 114.121 21.8678 114.446 22.291C114.251 22.2259 114.039 22.1771 113.812 22.1445C113.584 22.112 113.372 22.0876 113.177 22.0713C112.949 22.055 112.721 22.055 112.493 22.0713C112.265 22.0876 112.013 22.112 111.736 22.1445C111.508 22.1771 111.232 22.2178 110.906 22.2666C110.581 22.3154 110.239 22.3805 109.881 22.4619C110.125 21.7295 110.312 21.0947 110.442 20.5576C110.589 20.0205 110.695 19.5729 110.76 19.2148C110.825 18.7917 110.866 18.4499 110.882 18.1895C110.882 17.8639 110.882 17.4977 110.882 17.0908C110.882 16.6676 110.882 16.2607 110.882 15.8701C110.882 15.4795 110.874 15.1377 110.857 14.8447C110.841 14.5355 110.809 14.3402 110.76 14.2588L110.516 14.0146C110.418 13.9333 110.271 13.8193 110.076 13.6729C109.897 13.5101 109.653 13.3148 109.344 13.0869ZM111.077 9.32715C111.419 9.14811 111.761 9.09928 112.103 9.18066C112.461 9.26204 112.737 9.41667 112.933 9.64453C113.128 9.8724 113.193 10.141 113.128 10.4502C113.079 10.7594 112.819 11.0605 112.347 11.3535C111.875 11.6302 111.46 11.7279 111.102 11.6465C110.743 11.5651 110.491 11.3942 110.345 11.1338C110.198 10.8734 110.174 10.5723 110.271 10.2305C110.369 9.8724 110.638 9.57129 111.077 9.32715ZM115.032 8.61914C115.521 8.66797 115.927 8.70866 116.253 8.74121C116.595 8.77376 116.871 8.79818 117.083 8.81445C117.327 8.83073 117.522 8.83887 117.669 8.83887C117.815 8.85514 118.011 8.85514 118.255 8.83887C118.466 8.82259 118.743 8.80632 119.085 8.79004C119.427 8.75749 119.858 8.70866 120.379 8.64355C120.265 8.80632 120.175 8.9528 120.11 9.08301C120.045 9.19694 119.988 9.30273 119.939 9.40039L119.793 9.69336C119.76 9.79102 119.728 9.88867 119.695 9.98633C119.663 10.0677 119.63 10.1654 119.598 10.2793C119.581 10.3932 119.565 10.5153 119.549 10.6455H123.309L122.967 12.623L119.524 12.4277C119.443 13.2578 119.386 13.9007 119.354 14.3564C119.321 14.8122 119.288 15.1458 119.256 15.3574L119.207 15.7969C119.158 16.4154 119.109 17.0908 119.061 17.8232C119.012 18.5394 118.995 19.2067 119.012 19.8252C119.028 20.4437 119.085 20.9645 119.183 21.3877C119.28 21.7946 119.451 21.998 119.695 21.998C119.939 21.998 120.167 21.9329 120.379 21.8027C120.59 21.6725 120.77 21.5179 120.916 21.3389C121.079 21.1598 121.201 20.9808 121.282 20.8018C121.364 20.6064 121.404 20.46 121.404 20.3623C121.404 20.2646 121.38 20.1507 121.331 20.0205C121.25 19.7764 121.103 19.4671 120.892 19.0928C121.364 19.2067 121.779 19.3206 122.137 19.4346C122.316 19.4997 122.479 19.5648 122.625 19.6299C122.788 19.695 122.975 19.7682 123.187 19.8496C123.366 19.931 123.593 20.0286 123.87 20.1426C124.147 20.2565 124.472 20.3949 124.847 20.5576C124.489 20.6227 124.228 20.7285 124.065 20.875C123.968 20.9401 123.895 21.0133 123.846 21.0947C123.732 21.2738 123.602 21.5179 123.455 21.8271C123.309 22.1201 123.089 22.4131 122.796 22.7061C122.503 22.999 122.104 23.2594 121.6 23.4873C121.111 23.7152 120.452 23.8454 119.622 23.8779C118.759 23.9105 118.1 23.764 117.645 23.4385C117.205 23.113 116.88 22.7386 116.668 22.3154C116.473 21.876 116.359 21.4447 116.326 21.0215C116.294 20.5983 116.269 20.3135 116.253 20.167C116.237 20.0205 116.237 19.6543 116.253 19.0684C116.269 18.4824 116.294 17.8395 116.326 17.1396C116.359 16.4235 116.391 15.7399 116.424 15.0889C116.456 14.4215 116.473 13.9333 116.473 13.624C116.473 13.4613 116.481 13.2904 116.497 13.1113C116.497 12.9648 116.497 12.8102 116.497 12.6475C116.513 12.4684 116.521 12.2975 116.521 12.1348L112.981 12.1104L112.835 10.7188L116.399 10.8164C116.367 10.6374 116.326 10.4746 116.277 10.3281C116.245 10.1654 116.212 10.0352 116.18 9.9375C116.131 9.82357 116.082 9.72591 116.033 9.64453C115.968 9.56315 115.895 9.47363 115.813 9.37598C115.732 9.2946 115.626 9.1888 115.496 9.05859C115.366 8.92839 115.211 8.7819 115.032 8.61914ZM122.723 6.66602C123.292 6.73112 123.772 6.77995 124.163 6.8125C124.554 6.82878 124.863 6.84505 125.091 6.86133C125.368 6.8776 125.587 6.88574 125.75 6.88574C126.027 6.88574 126.344 6.8776 126.702 6.86133C127.011 6.84505 127.369 6.82064 127.776 6.78809C128.2 6.73926 128.655 6.66602 129.144 6.56836C128.916 6.8125 128.729 7.0485 128.582 7.27637C128.436 7.48796 128.322 7.68327 128.24 7.8623C128.143 8.05762 128.061 8.23665 127.996 8.39941C127.931 8.611 127.858 8.93652 127.776 9.37598C127.695 9.75033 127.605 10.2793 127.508 10.9629C127.426 11.6465 127.321 12.5417 127.19 13.6484C127.744 13.6647 128.224 13.6729 128.631 13.6729C129.038 13.6566 129.38 13.6484 129.656 13.6484H130.462C130.69 13.6322 130.95 13.6159 131.243 13.5996C131.731 13.5833 132.472 13.5345 133.465 13.4531C133.546 12.7044 133.587 12.0615 133.587 11.5244C133.603 10.971 133.595 10.5072 133.562 10.1328C133.53 9.70964 133.481 9.35156 133.416 9.05859C133.367 8.89583 133.294 8.70052 133.196 8.47266C133.115 8.27734 133.001 8.04134 132.854 7.76465C132.724 7.47168 132.545 7.12174 132.317 6.71484C132.741 6.77995 133.115 6.82878 133.44 6.86133C133.782 6.8776 134.067 6.89388 134.295 6.91016C134.555 6.92643 134.775 6.93457 134.954 6.93457C135.133 6.93457 135.369 6.92643 135.662 6.91016C135.906 6.89388 136.207 6.88574 136.565 6.88574C136.924 6.86947 137.363 6.84505 137.884 6.8125C137.754 7.04036 137.64 7.27637 137.542 7.52051C137.444 7.76465 137.363 7.98438 137.298 8.17969C137.233 8.40755 137.168 8.63542 137.103 8.86328C137.021 9.20508 136.948 9.7015 136.883 10.3525C136.834 11.0036 136.785 11.7279 136.736 12.5254C136.704 13.3229 136.671 14.153 136.639 15.0156C136.622 15.8783 136.606 16.6921 136.59 17.457C136.59 18.222 136.598 18.9056 136.614 19.5078C136.631 20.0938 136.663 20.5088 136.712 20.7529C136.761 21.0459 136.842 21.347 136.956 21.6562C137.054 21.9329 137.184 22.234 137.347 22.5596C137.509 22.8688 137.721 23.1618 137.981 23.4385L132.098 23.8779C132.342 23.6501 132.537 23.4303 132.684 23.2188C132.83 22.9909 132.944 22.7956 133.025 22.6328C133.107 22.4538 133.164 22.2829 133.196 22.1201C133.213 21.9248 133.237 21.583 133.27 21.0947C133.302 20.6878 133.335 20.11 133.367 19.3613C133.4 18.6126 133.432 17.6198 133.465 16.3828C133.237 16.3828 132.96 16.391 132.635 16.4072C132.326 16.4072 132.033 16.4154 131.756 16.4316C131.43 16.4479 131.089 16.4561 130.73 16.4561C130.372 16.4723 129.998 16.4886 129.607 16.5049C129.282 16.5374 128.916 16.57 128.509 16.6025C128.118 16.6188 127.728 16.6432 127.337 16.6758C127.304 17.3594 127.304 17.9616 127.337 18.4824C127.369 18.987 127.418 19.4183 127.483 19.7764C127.549 20.1995 127.63 20.5658 127.728 20.875C127.825 21.168 127.931 21.4609 128.045 21.7539C128.143 22.0143 128.257 22.291 128.387 22.584C128.533 22.877 128.68 23.1374 128.826 23.3652C128.517 23.3327 128.232 23.3083 127.972 23.292C127.711 23.2594 127.483 23.2269 127.288 23.1943C127.06 23.1781 126.84 23.1618 126.629 23.1455C126.417 23.1455 126.165 23.1374 125.872 23.1211C125.612 23.1048 125.286 23.0967 124.896 23.0967C124.505 23.0804 124.049 23.0723 123.528 23.0723C123.838 22.763 124.082 22.4619 124.261 22.1689C124.456 21.8597 124.594 21.583 124.676 21.3389C124.773 21.0459 124.839 20.7773 124.871 20.5332C124.887 20.3216 124.896 19.9229 124.896 19.3369C124.912 18.751 124.912 18.0837 124.896 17.335C124.896 16.57 124.887 15.7725 124.871 14.9424C124.855 14.096 124.83 13.3066 124.798 12.5742C124.782 11.8418 124.757 11.2152 124.725 10.6943C124.708 10.1572 124.692 9.82357 124.676 9.69336C124.594 9.40039 124.472 9.08301 124.31 8.74121C124.163 8.46452 123.968 8.14714 123.724 7.78906C123.479 7.41471 123.146 7.04036 122.723 6.66602ZM138.714 12.7695C139.137 12.8509 139.503 12.916 139.812 12.9648C140.138 12.9974 140.415 13.0299 140.643 13.0625C140.903 13.0951 141.131 13.1195 141.326 13.1357C141.521 13.152 141.749 13.1683 142.01 13.1846C142.449 13.2008 143.068 13.2008 143.865 13.1846C143.393 13.152 143.019 13.2741 142.742 13.5508C142.482 13.8112 142.286 14.1123 142.156 14.4541C141.993 14.861 141.904 15.333 141.888 15.8701C141.855 16.5863 141.871 17.2373 141.937 17.8232C142.018 18.3929 142.156 18.8812 142.352 19.2881C142.563 19.6787 142.84 19.9717 143.182 20.167C143.523 20.346 143.963 20.3949 144.5 20.3135C145.037 20.2321 145.444 20.0449 145.721 19.752C146.014 19.4427 146.225 19.0684 146.355 18.6289C146.486 18.1732 146.559 17.6605 146.575 17.0908C146.608 16.5212 146.632 15.9271 146.648 15.3086C146.648 14.6901 146.64 14.2507 146.624 13.9902C146.624 13.7135 146.616 13.5345 146.6 13.4531C146.583 13.3717 146.559 13.3392 146.526 13.3555C146.494 13.3555 146.453 13.3148 146.404 13.2334C146.372 13.1683 146.323 13.1032 146.258 13.0381C146.209 12.973 146.144 12.8997 146.062 12.8184C145.981 12.7207 145.892 12.623 145.794 12.5254C146.217 12.5417 146.591 12.5579 146.917 12.5742C147.259 12.5742 147.544 12.5824 147.771 12.5986C148.032 12.6149 148.26 12.6312 148.455 12.6475C148.634 12.6637 148.87 12.6882 149.163 12.7207C149.407 12.7533 149.725 12.7858 150.115 12.8184C150.506 12.8509 150.97 12.8997 151.507 12.9648C151.132 13.0462 150.831 13.1683 150.604 13.3311C150.376 13.4938 150.197 13.6566 150.066 13.8193C149.92 13.9984 149.814 14.1937 149.749 14.4053C149.7 14.682 149.7 15.1051 149.749 15.6748C149.782 16.1794 149.863 16.8711 149.993 17.75C150.123 18.6289 150.327 19.7845 150.604 21.2168L148.675 22.3643L148.284 19.1172C147.812 19.9147 147.308 20.5332 146.771 20.9727C146.25 21.3958 145.761 21.7051 145.306 21.9004C144.769 22.1283 144.248 22.2585 143.743 22.291C143.076 22.291 142.498 22.2503 142.01 22.1689C141.538 22.0713 141.131 21.9492 140.789 21.8027C140.447 21.6562 140.171 21.4935 139.959 21.3145C139.764 21.1191 139.617 20.9238 139.52 20.7285C139.292 20.3216 139.17 19.8008 139.153 19.166C139.137 18.515 139.161 17.8721 139.227 17.2373C139.292 16.5863 139.365 15.9922 139.446 15.4551C139.528 14.918 139.552 14.5518 139.52 14.3564C139.487 14.21 139.438 14.0472 139.373 13.8682C139.308 13.7217 139.227 13.5589 139.129 13.3799C139.031 13.1846 138.893 12.9811 138.714 12.7695ZM151.873 6.86133C152.247 6.95898 152.589 7.03223 152.898 7.08105C153.224 7.11361 153.501 7.13802 153.729 7.1543C154.005 7.17057 154.257 7.17871 154.485 7.17871C154.713 7.17871 154.998 7.16243 155.34 7.12988C155.942 7.08105 156.797 6.95898 157.903 6.76367C157.724 6.89388 157.553 7.02409 157.391 7.1543C157.244 7.26823 157.114 7.38216 157 7.49609L156.634 7.8623C156.422 8.15527 156.211 8.65169 155.999 9.35156C155.82 9.95378 155.625 10.8001 155.413 11.8906C155.218 12.9811 155.039 14.4297 154.876 16.2363C155.674 15.4551 156.422 14.8691 157.122 14.4785C157.838 14.0716 158.465 13.7786 159.002 13.5996C159.637 13.4043 160.215 13.2985 160.735 13.2822C161.403 13.3311 161.98 13.4694 162.469 13.6973C162.973 13.9089 163.396 14.1693 163.738 14.4785C164.096 14.7715 164.381 15.0807 164.593 15.4062C164.821 15.7155 164.992 15.9922 165.105 16.2363C165.171 16.3991 165.219 16.7002 165.252 17.1396C165.301 17.5628 165.309 18.0511 165.276 18.6045C165.244 19.1579 165.154 19.7438 165.008 20.3623C164.878 20.9645 164.658 21.526 164.349 22.0469C164.056 22.5514 163.665 22.9746 163.177 23.3164C162.705 23.6582 162.111 23.8454 161.395 23.8779C160.564 23.8779 159.759 23.7803 158.978 23.585C158.31 23.4222 157.602 23.1374 156.854 22.7305C156.121 22.3073 155.494 21.7051 154.974 20.9238C154.974 21.1191 154.974 21.3145 154.974 21.5098C154.974 21.6888 154.982 21.8434 154.998 21.9736C155.014 22.1527 155.031 22.3073 155.047 22.4375C155.063 22.584 155.104 22.7386 155.169 22.9014C155.218 23.0316 155.291 23.1943 155.389 23.3896C155.503 23.5687 155.649 23.7477 155.828 23.9268C155.649 23.9105 155.47 23.9023 155.291 23.9023C155.112 23.8861 154.933 23.8861 154.754 23.9023C154.559 23.9186 154.363 23.9349 154.168 23.9512C153.973 23.9674 153.769 23.9919 153.558 24.0244C153.379 24.057 153.167 24.0977 152.923 24.1465C152.679 24.1953 152.426 24.2523 152.166 24.3174C152.215 24.1709 152.256 23.9593 152.288 23.6826C152.321 23.3896 152.353 23.0723 152.386 22.7305C152.435 22.3724 152.467 21.998 152.483 21.6074C152.516 21.2168 152.549 20.8262 152.581 20.4355C152.646 19.5404 152.703 18.5638 152.752 17.5059C152.801 15.862 152.809 14.332 152.776 12.916C152.76 12.3138 152.728 11.7035 152.679 11.085C152.646 10.4665 152.597 9.88867 152.532 9.35156C152.467 8.79818 152.378 8.3099 152.264 7.88672C152.166 7.44727 152.036 7.10547 151.873 6.86133ZM155.047 18.751C155.307 19.223 155.584 19.6299 155.877 19.9717C156.17 20.2972 156.463 20.5739 156.756 20.8018C157.049 21.0296 157.334 21.2087 157.61 21.3389C157.903 21.4691 158.18 21.5667 158.44 21.6318C159.043 21.7946 159.637 21.8109 160.223 21.6807C160.809 21.5179 161.264 21.1924 161.59 20.7041C161.915 20.2158 162.168 19.6624 162.347 19.0439C162.428 18.751 162.477 18.3766 162.493 17.9209C162.526 17.4652 162.477 17.0257 162.347 16.6025C162.233 16.1631 162.021 15.7806 161.712 15.4551C161.403 15.1133 160.955 14.9098 160.369 14.8447C159.962 14.8447 159.49 14.9587 158.953 15.1865C158.481 15.3818 157.92 15.7074 157.269 16.1631C156.618 16.6025 155.877 17.2617 155.047 18.1406V18.751Z" fill="white"/>
<path d="M8.10059 22.0137C8.10059 22.1113 7.98828 22.1895 7.84668 22.1895C7.68555 22.2041 7.57324 22.126 7.57324 22.0137C7.57324 21.916 7.68555 21.8379 7.82715 21.8379C7.97363 21.8232 8.10059 21.9014 8.10059 22.0137ZM6.58203 21.7939C6.54785 21.8916 6.64551 22.0039 6.79199 22.0332C6.91895 22.082 7.06543 22.0332 7.09473 21.9355C7.12402 21.8379 7.03125 21.7256 6.88477 21.6816C6.75781 21.6475 6.61621 21.6963 6.58203 21.7939ZM8.74023 21.7109C8.59863 21.7451 8.50098 21.8379 8.51562 21.9502C8.53027 22.0479 8.65723 22.1113 8.80371 22.0771C8.94531 22.043 9.04297 21.9502 9.02832 21.8525C9.01367 21.7598 8.88184 21.6963 8.74023 21.7109ZM11.9531 3C5.18066 3 0 8.1416 0 14.9141C0 20.3291 3.4082 24.9629 8.27637 26.5938C8.90137 26.7061 9.12109 26.3203 9.12109 26.0029C9.12109 25.7002 9.10645 24.0303 9.10645 23.0049C9.10645 23.0049 5.68848 23.7373 4.9707 21.5498C4.9707 21.5498 4.41406 20.1289 3.61328 19.7627C3.61328 19.7627 2.49512 18.9961 3.69141 19.0107C3.69141 19.0107 4.90723 19.1084 5.57617 20.2705C6.64551 22.1553 8.4375 21.6133 9.13574 21.291C9.24805 20.5098 9.56543 19.9678 9.91699 19.6455C7.1875 19.3428 4.43359 18.9473 4.43359 14.25C4.43359 12.9072 4.80469 12.2334 5.58594 11.374C5.45898 11.0566 5.04395 9.74805 5.71289 8.05859C6.7334 7.74121 9.08203 9.37695 9.08203 9.37695C10.0586 9.10352 11.1084 8.96191 12.1484 8.96191C13.1885 8.96191 14.2383 9.10352 15.2148 9.37695C15.2148 9.37695 17.5635 7.73633 18.584 8.05859C19.2529 9.75293 18.8379 11.0566 18.7109 11.374C19.4922 12.2383 19.9707 12.9121 19.9707 14.25C19.9707 18.9619 17.0947 19.3379 14.3652 19.6455C14.8145 20.0312 15.1953 20.7637 15.1953 21.9111C15.1953 23.5566 15.1807 25.5928 15.1807 25.9932C15.1807 26.3105 15.4053 26.6963 16.0254 26.584C20.9082 24.9629 24.2188 20.3291 24.2188 14.9141C24.2188 8.1416 18.7256 3 11.9531 3ZM4.74609 19.8408C4.68262 19.8896 4.69727 20.002 4.78027 20.0947C4.8584 20.1729 4.9707 20.207 5.03418 20.1436C5.09766 20.0947 5.08301 19.9824 5 19.8896C4.92188 19.8115 4.80957 19.7773 4.74609 19.8408ZM4.21875 19.4453C4.18457 19.5088 4.2334 19.5869 4.33105 19.6357C4.40918 19.6846 4.50684 19.6699 4.54102 19.6016C4.5752 19.5381 4.52637 19.46 4.42871 19.4111C4.33105 19.3818 4.25293 19.3965 4.21875 19.4453ZM5.80078 21.1836C5.72266 21.2471 5.75195 21.3936 5.86426 21.4863C5.97656 21.5986 6.11816 21.6133 6.18164 21.5352C6.24512 21.4717 6.21582 21.3252 6.11816 21.2324C6.01074 21.1201 5.86426 21.1055 5.80078 21.1836ZM5.24414 20.4658C5.16602 20.5146 5.16602 20.6416 5.24414 20.7539C5.32227 20.8662 5.4541 20.915 5.51758 20.8662C5.5957 20.8027 5.5957 20.6758 5.51758 20.5635C5.44922 20.4512 5.32227 20.4023 5.24414 20.4658Z" fill="white"/>
</svg>
