<svg width="180" height="38" viewBox="0 0 180 38" fill="none" xmlns="http://www.w3.org/2000/svg">
<path d="M48.4734 15.625C47.9734 14.3083 47.14 13.2583 45.9734 12.475C44.8234 11.6917 43.4567 11.3 41.8734 11.3C40.49 11.3 39.24 11.625 38.1234 12.275C37.0067 12.925 36.1234 13.85 35.4734 15.05C34.8234 16.25 34.4984 17.65 34.4984 19.25C34.4984 20.85 34.8234 22.25 35.4734 23.45C36.1234 24.65 37.0067 25.575 38.1234 26.225C39.24 26.8583 40.49 27.175 41.8734 27.175C43.2067 27.175 44.415 26.875 45.4984 26.275C46.5817 25.675 47.4484 24.825 48.0984 23.725C48.7484 22.6083 49.1067 21.3083 49.1734 19.825H41.3484V18.875H50.3234V19.625C50.2734 21.2583 49.8817 22.725 49.1484 24.025C48.415 25.325 47.415 26.3417 46.1484 27.075C44.8817 27.8083 43.4567 28.175 41.8734 28.175C40.2567 28.175 38.7984 27.8 37.4984 27.05C36.1984 26.2833 35.1817 25.225 34.4484 23.875C33.715 22.5083 33.3484 20.9667 33.3484 19.25C33.3484 17.5167 33.715 15.975 34.4484 14.625C35.1817 13.2583 36.1984 12.2 37.4984 11.45C38.7984 10.6833 40.2567 10.3 41.8734 10.3C43.7567 10.3 45.3817 10.775 46.7484 11.725C48.1317 12.6583 49.14 13.9583 49.7734 15.625H48.4734ZM54.3011 11.4C54.0344 11.4 53.8094 11.3167 53.6261 11.15C53.4428 10.9667 53.3511 10.725 53.3511 10.425C53.3511 10.1417 53.4428 9.90833 53.6261 9.725C53.8094 9.54167 54.0344 9.45 54.3011 9.45C54.5678 9.45 54.7928 9.54167 54.9761 9.725C55.1594 9.90833 55.2511 10.1417 55.2511 10.425C55.2511 10.725 55.1594 10.9667 54.9761 11.15C54.7928 11.3167 54.5678 11.4 54.3011 11.4ZM54.8511 14.425V28H53.7261V14.425H54.8511ZM60.6501 15.4V24.375C60.6501 25.375 60.8334 26.0667 61.2001 26.45C61.5668 26.8167 62.2168 27 63.1501 27H64.6751V28H62.9751C61.7918 28 60.9168 27.725 60.3501 27.175C59.8001 26.6083 59.5251 25.675 59.5251 24.375V15.4H57.4751V14.425H59.5251V10.975H60.6501V14.425H64.6751V15.4H60.6501ZM87.8228 21.925C87.2228 22.975 86.6478 23.8667 86.0978 24.6L89.3978 28H87.9728L85.4478 25.425C84.5978 26.4083 83.6894 27.1333 82.7228 27.6C81.7728 28.05 80.6894 28.275 79.4728 28.275C78.3561 28.275 77.3561 28.0583 76.4728 27.625C75.5894 27.175 74.8978 26.5583 74.3978 25.775C73.9144 24.975 73.6728 24.0583 73.6728 23.025C73.6728 21.775 74.0228 20.7 74.7228 19.8C75.4394 18.8833 76.4728 18.1667 77.8228 17.65C77.1728 16.9667 76.6978 16.3333 76.3978 15.75C76.1144 15.15 75.9728 14.5167 75.9728 13.85C75.9728 12.7833 76.3478 11.9167 77.0978 11.25C77.8644 10.5833 78.8644 10.25 80.0978 10.25C80.8311 10.25 81.5061 10.4 82.1228 10.7C82.7394 11 83.2228 11.425 83.5728 11.975C83.9228 12.525 84.0978 13.1667 84.0978 13.9H82.9728C82.9728 13.0667 82.6894 12.4083 82.1228 11.925C81.5561 11.4417 80.8728 11.2 80.0728 11.2C79.1894 11.2 78.4728 11.45 77.9228 11.95C77.3728 12.4333 77.0978 13.0667 77.0978 13.85C77.0978 14.4333 77.2478 14.9917 77.5478 15.525C77.8478 16.0417 78.3228 16.6333 78.9728 17.3L85.3478 23.85C85.8144 23.1833 86.3394 22.3667 86.9228 21.4L88.3228 18.975H89.5228L87.8228 21.925ZM79.4728 27.275C80.5394 27.275 81.4811 27.0667 82.2978 26.65C83.1311 26.2333 83.9311 25.5667 84.6978 24.65L78.5478 18.4L78.4728 18.425C76.0228 19.325 74.7978 20.85 74.7978 23C74.7978 23.8167 74.9978 24.55 75.3978 25.2C75.7978 25.85 76.3478 26.3583 77.0478 26.725C77.7644 27.0917 78.5728 27.275 79.4728 27.275ZM113.586 15.625C113.086 14.3083 112.252 13.2583 111.086 12.475C109.936 11.6917 108.569 11.3 106.986 11.3C105.602 11.3 104.352 11.625 103.236 12.275C102.119 12.925 101.236 13.85 100.586 15.05C99.9357 16.25 99.6107 17.65 99.6107 19.25C99.6107 20.85 99.9357 22.25 100.586 23.45C101.236 24.65 102.119 25.575 103.236 26.225C104.352 26.8583 105.602 27.175 106.986 27.175C108.319 27.175 109.527 26.875 110.611 26.275C111.694 25.675 112.561 24.825 113.211 23.725C113.861 22.6083 114.219 21.3083 114.286 19.825H106.461V18.875H115.436V19.625C115.386 21.2583 114.994 22.725 114.261 24.025C113.527 25.325 112.527 26.3417 111.261 27.075C109.994 27.8083 108.569 28.175 106.986 28.175C105.369 28.175 103.911 27.8 102.611 27.05C101.311 26.2833 100.294 25.225 99.5607 23.875C98.8273 22.5083 98.4607 20.9667 98.4607 19.25C98.4607 17.5167 98.8273 15.975 99.5607 14.625C100.294 13.2583 101.311 12.2 102.611 11.45C103.911 10.6833 105.369 10.3 106.986 10.3C108.869 10.3 110.494 10.775 111.861 11.725C113.244 12.6583 114.252 13.9583 114.886 15.625H113.586ZM119.413 11.4C119.147 11.4 118.922 11.3167 118.738 11.15C118.555 10.9667 118.463 10.725 118.463 10.425C118.463 10.1417 118.555 9.90833 118.738 9.725C118.922 9.54167 119.147 9.45 119.413 9.45C119.68 9.45 119.905 9.54167 120.088 9.725C120.272 9.90833 120.363 10.1417 120.363 10.425C120.363 10.725 120.272 10.9667 120.088 11.15C119.905 11.3167 119.68 11.4 119.413 11.4ZM119.963 14.425V28H118.838V14.425H119.963ZM125.762 15.4V24.375C125.762 25.375 125.946 26.0667 126.312 26.45C126.679 26.8167 127.329 27 128.262 27H129.787V28H128.087C126.904 28 126.029 27.725 125.462 27.175C124.912 26.6083 124.637 25.675 124.637 24.375V15.4H122.587V14.425H124.637V10.975H125.762V14.425H129.787V15.4H125.762ZM145.254 10.45V28H144.129V19.5H133.879V28H132.754V10.45H133.879V18.55H144.129V10.45H145.254ZM160.855 14.425V28H159.73V25.05C159.347 26.0833 158.705 26.875 157.805 27.425C156.922 27.9583 155.905 28.225 154.755 28.225C153.139 28.225 151.814 27.7333 150.78 26.75C149.764 25.75 149.255 24.275 149.255 22.325V14.425H150.355V22.25C150.355 23.8667 150.764 25.1083 151.58 25.975C152.397 26.825 153.505 27.25 154.905 27.25C156.372 27.25 157.539 26.7833 158.405 25.85C159.289 24.9167 159.73 23.5333 159.73 21.7V14.425H160.855ZM166.082 18C166.498 16.9 167.207 16 168.207 15.3C169.207 14.6 170.415 14.25 171.832 14.25C173.098 14.25 174.223 14.5333 175.207 15.1C176.207 15.6667 176.982 16.475 177.532 17.525C178.098 18.575 178.382 19.8 178.382 21.2C178.382 22.6 178.098 23.8333 177.532 24.9C176.982 25.95 176.207 26.7667 175.207 27.35C174.223 27.9167 173.098 28.2 171.832 28.2C170.415 28.2 169.198 27.85 168.182 27.15C167.182 26.45 166.482 25.55 166.082 24.45V28H164.957V9.5H166.082V18ZM177.232 21.2C177.232 19.9667 176.998 18.9 176.532 18C176.065 17.1 175.407 16.4167 174.557 15.95C173.723 15.4667 172.757 15.225 171.657 15.225C170.607 15.225 169.657 15.475 168.807 15.975C167.957 16.4583 167.29 17.1583 166.807 18.075C166.323 18.975 166.082 20.0167 166.082 21.2C166.082 22.4 166.323 23.4583 166.807 24.375C167.29 25.275 167.957 25.975 168.807 26.475C169.657 26.9583 170.607 27.2 171.657 27.2C172.757 27.2 173.723 26.9583 174.557 26.475C175.407 25.9917 176.065 25.3 176.532 24.4C176.998 23.5 177.232 22.4333 177.232 21.2Z" fill="white"/>
<path d="M8.10063 26.0137C8.10063 26.1113 7.98833 26.1895 7.84672 26.1895C7.68559 26.2041 7.57329 26.126 7.57329 26.0137C7.57329 25.916 7.68559 25.8379 7.82719 25.8379C7.97368 25.8232 8.10063 25.9014 8.10063 26.0137ZM6.58207 25.7939C6.54789 25.8916 6.64555 26.0039 6.79203 26.0332C6.91898 26.082 7.06547 26.0332 7.09477 25.9355C7.12406 25.8379 7.03129 25.7256 6.8848 25.6816C6.75785 25.6475 6.61625 25.6963 6.58207 25.7939ZM8.74028 25.7109C8.59868 25.7451 8.50102 25.8379 8.51567 25.9502C8.53032 26.0479 8.65728 26.1113 8.80376 26.0771C8.94536 26.043 9.04302 25.9502 9.02837 25.8525C9.01372 25.7598 8.88189 25.6963 8.74028 25.7109ZM11.9532 7C5.18069 7 0 12.1416 0 18.9141C0 24.3291 3.40822 28.9629 8.27641 30.5938C8.90142 30.7061 9.12115 30.3203 9.12115 30.0029C9.12115 29.7002 9.1065 28.0303 9.1065 27.0049C9.1065 27.0049 5.68851 27.7373 4.97073 25.5498C4.97073 25.5498 4.41409 24.1289 3.6133 23.7627C3.6133 23.7627 2.49513 22.9961 3.69143 23.0107C3.69143 23.0107 4.90725 23.1084 5.5762 24.2705C6.64555 26.1553 8.43755 25.6133 9.13579 25.291C9.2481 24.5098 9.56548 23.9678 9.91705 23.6455C7.18754 23.3428 4.43362 22.9473 4.43362 18.25C4.43362 16.9072 4.80471 16.2334 5.58597 15.374C5.45902 15.0566 5.04397 13.748 5.71292 12.0586C6.73344 11.7412 9.08208 13.377 9.08208 13.377C10.0587 13.1035 11.1085 12.9619 12.1485 12.9619C13.1886 12.9619 14.2384 13.1035 15.2149 13.377C15.2149 13.377 17.5636 11.7363 18.5841 12.0586C19.253 13.7529 18.838 15.0566 18.711 15.374C19.4923 16.2383 19.9708 16.9121 19.9708 18.25C19.9708 22.9619 17.0948 23.3379 14.3653 23.6455C14.8145 24.0312 15.1954 24.7637 15.1954 25.9111C15.1954 27.5566 15.1807 29.5928 15.1807 29.9932C15.1807 30.3105 15.4054 30.6963 16.0255 30.584C20.9083 28.9629 24.2189 24.3291 24.2189 18.9141C24.2189 12.1416 18.7257 7 11.9532 7ZM4.74612 23.8408C4.68264 23.8896 4.69729 24.002 4.7803 24.0947C4.85843 24.1729 4.97073 24.207 5.03421 24.1436C5.09768 24.0947 5.08304 23.9824 5.00003 23.8896C4.9219 23.8115 4.8096 23.7773 4.74612 23.8408ZM4.21877 23.4453C4.18459 23.5088 4.23342 23.5869 4.33108 23.6357C4.4092 23.6846 4.50686 23.6699 4.54104 23.6016C4.57522 23.5381 4.52639 23.46 4.42874 23.4111C4.33108 23.3818 4.25295 23.3965 4.21877 23.4453ZM5.80081 25.1836C5.72269 25.2471 5.75199 25.3936 5.86429 25.4863C5.9766 25.5986 6.1182 25.6133 6.18168 25.5352C6.24515 25.4717 6.21586 25.3252 6.1182 25.2324C6.01078 25.1201 5.86429 25.1055 5.80081 25.1836ZM5.24417 24.4658C5.16604 24.5146 5.16604 24.6416 5.24417 24.7539C5.3223 24.8662 5.45413 24.915 5.51761 24.8662C5.59573 24.8027 5.59573 24.6758 5.51761 24.5635C5.44925 24.4512 5.3223 24.4023 5.24417 24.4658Z" fill="white"/>
</svg>
