<svg width="180" height="38" viewBox="0 0 180 38" fill="none" xmlns="http://www.w3.org/2000/svg">
<path d="M48.475 15.625C47.975 14.3083 47.1417 13.2583 45.975 12.475C44.825 11.6917 43.4583 11.3 41.875 11.3C40.4917 11.3 39.2417 11.625 38.125 12.275C37.0083 12.925 36.125 13.85 35.475 15.05C34.825 16.25 34.5 17.65 34.5 19.25C34.5 20.85 34.825 22.25 35.475 23.45C36.125 24.65 37.0083 25.575 38.125 26.225C39.2417 26.8583 40.4917 27.175 41.875 27.175C43.2083 27.175 44.4167 26.875 45.5 26.275C46.5833 25.675 47.45 24.825 48.1 23.725C48.75 22.6083 49.1083 21.3083 49.175 19.825H41.35V18.875H50.325V19.625C50.275 21.2583 49.8833 22.725 49.15 24.025C48.4167 25.325 47.4167 26.3417 46.15 27.075C44.8833 27.8083 43.4583 28.175 41.875 28.175C40.2583 28.175 38.8 27.8 37.5 27.05C36.2 26.2833 35.1833 25.225 34.45 23.875C33.7167 22.5083 33.35 20.9667 33.35 19.25C33.35 17.5167 33.7167 15.975 34.45 14.625C35.1833 13.2583 36.2 12.2 37.5 11.45C38.8 10.6833 40.2583 10.3 41.875 10.3C43.7583 10.3 45.3833 10.775 46.75 11.725C48.1333 12.6583 49.1417 13.9583 49.775 15.625H48.475ZM54.3027 11.4C54.0361 11.4 53.8111 11.3167 53.6277 11.15C53.4444 10.9667 53.3527 10.725 53.3527 10.425C53.3527 10.1417 53.4444 9.90833 53.6277 9.725C53.8111 9.54167 54.0361 9.45 54.3027 9.45C54.5694 9.45 54.7944 9.54167 54.9777 9.725C55.1611 9.90833 55.2527 10.1417 55.2527 10.425C55.2527 10.725 55.1611 10.9667 54.9777 11.15C54.7944 11.3167 54.5694 11.4 54.3027 11.4ZM54.8527 14.425V28H53.7277V14.425H54.8527ZM60.6518 15.4V24.375C60.6518 25.375 60.8351 26.0667 61.2018 26.45C61.5684 26.8167 62.2184 27 63.1518 27H64.6768V28H62.9768C61.7934 28 60.9184 27.725 60.3518 27.175C59.8018 26.6083 59.5268 25.675 59.5268 24.375V15.4H57.4768V14.425H59.5268V10.975H60.6518V14.425H64.6768V15.4H60.6518ZM87.8244 21.925C87.2244 22.975 86.6494 23.8667 86.0994 24.6L89.3994 28H87.9744L85.4494 25.425C84.5994 26.4083 83.6911 27.1333 82.7244 27.6C81.7744 28.05 80.6911 28.275 79.4744 28.275C78.3577 28.275 77.3577 28.0583 76.4744 27.625C75.5911 27.175 74.8994 26.5583 74.3994 25.775C73.9161 24.975 73.6744 24.0583 73.6744 23.025C73.6744 21.775 74.0244 20.7 74.7244 19.8C75.4411 18.8833 76.4744 18.1667 77.8244 17.65C77.1744 16.9667 76.6994 16.3333 76.3994 15.75C76.1161 15.15 75.9744 14.5167 75.9744 13.85C75.9744 12.7833 76.3494 11.9167 77.0994 11.25C77.8661 10.5833 78.8661 10.25 80.0994 10.25C80.8327 10.25 81.5077 10.4 82.1244 10.7C82.7411 11 83.2244 11.425 83.5744 11.975C83.9244 12.525 84.0994 13.1667 84.0994 13.9H82.9744C82.9744 13.0667 82.6911 12.4083 82.1244 11.925C81.5577 11.4417 80.8744 11.2 80.0744 11.2C79.1911 11.2 78.4744 11.45 77.9244 11.95C77.3744 12.4333 77.0994 13.0667 77.0994 13.85C77.0994 14.4333 77.2494 14.9917 77.5494 15.525C77.8494 16.0417 78.3244 16.6333 78.9744 17.3L85.3494 23.85C85.8161 23.1833 86.3411 22.3667 86.9244 21.4L88.3244 18.975H89.5244L87.8244 21.925ZM79.4744 27.275C80.5411 27.275 81.4827 27.0667 82.2994 26.65C83.1327 26.2333 83.9327 25.5667 84.6994 24.65L78.5494 18.4L78.4744 18.425C76.0244 19.325 74.7994 20.85 74.7994 23C74.7994 23.8167 74.9994 24.55 75.3994 25.2C75.7994 25.85 76.3494 26.3583 77.0494 26.725C77.7661 27.0917 78.5744 27.275 79.4744 27.275ZM113.587 15.625C113.087 14.3083 112.254 13.2583 111.087 12.475C109.937 11.6917 108.571 11.3 106.987 11.3C105.604 11.3 104.354 11.625 103.237 12.275C102.121 12.925 101.237 13.85 100.587 15.05C99.9373 16.25 99.6123 17.65 99.6123 19.25C99.6123 20.85 99.9373 22.25 100.587 23.45C101.237 24.65 102.121 25.575 103.237 26.225C104.354 26.8583 105.604 27.175 106.987 27.175C108.321 27.175 109.529 26.875 110.612 26.275C111.696 25.675 112.562 24.825 113.212 23.725C113.862 22.6083 114.221 21.3083 114.287 19.825H106.462V18.875H115.437V19.625C115.387 21.2583 114.996 22.725 114.262 24.025C113.529 25.325 112.529 26.3417 111.262 27.075C109.996 27.8083 108.571 28.175 106.987 28.175C105.371 28.175 103.912 27.8 102.612 27.05C101.312 26.2833 100.296 25.225 99.5623 23.875C98.829 22.5083 98.4623 20.9667 98.4623 19.25C98.4623 17.5167 98.829 15.975 99.5623 14.625C100.296 13.2583 101.312 12.2 102.612 11.45C103.912 10.6833 105.371 10.3 106.987 10.3C108.871 10.3 110.496 10.775 111.862 11.725C113.246 12.6583 114.254 13.9583 114.887 15.625H113.587ZM119.415 11.4C119.148 11.4 118.923 11.3167 118.74 11.15C118.557 10.9667 118.465 10.725 118.465 10.425C118.465 10.1417 118.557 9.90833 118.74 9.725C118.923 9.54167 119.148 9.45 119.415 9.45C119.682 9.45 119.907 9.54167 120.09 9.725C120.273 9.90833 120.365 10.1417 120.365 10.425C120.365 10.725 120.273 10.9667 120.09 11.15C119.907 11.3167 119.682 11.4 119.415 11.4ZM119.965 14.425V28H118.84V14.425H119.965ZM125.764 15.4V24.375C125.764 25.375 125.947 26.0667 126.314 26.45C126.681 26.8167 127.331 27 128.264 27H129.789V28H128.089C126.906 28 126.031 27.725 125.464 27.175C124.914 26.6083 124.639 25.675 124.639 24.375V15.4H122.589V14.425H124.639V10.975H125.764V14.425H129.789V15.4H125.764ZM145.256 10.45V28H144.131V19.5H133.881V28H132.756V10.45H133.881V18.55H144.131V10.45H145.256ZM160.857 14.425V28H159.732V25.05C159.349 26.0833 158.707 26.875 157.807 27.425C156.924 27.9583 155.907 28.225 154.757 28.225C153.14 28.225 151.815 27.7333 150.782 26.75C149.765 25.75 149.257 24.275 149.257 22.325V14.425H150.357V22.25C150.357 23.8667 150.765 25.1083 151.582 25.975C152.399 26.825 153.507 27.25 154.907 27.25C156.374 27.25 157.54 26.7833 158.407 25.85C159.29 24.9167 159.732 23.5333 159.732 21.7V14.425H160.857ZM166.083 18C166.5 16.9 167.208 16 168.208 15.3C169.208 14.6 170.417 14.25 171.833 14.25C173.1 14.25 174.225 14.5333 175.208 15.1C176.208 15.6667 176.983 16.475 177.533 17.525C178.1 18.575 178.383 19.8 178.383 21.2C178.383 22.6 178.1 23.8333 177.533 24.9C176.983 25.95 176.208 26.7667 175.208 27.35C174.225 27.9167 173.1 28.2 171.833 28.2C170.417 28.2 169.2 27.85 168.183 27.15C167.183 26.45 166.483 25.55 166.083 24.45V28H164.958V9.5H166.083V18ZM177.233 21.2C177.233 19.9667 177 18.9 176.533 18C176.067 17.1 175.408 16.4167 174.558 15.95C173.725 15.4667 172.758 15.225 171.658 15.225C170.608 15.225 169.658 15.475 168.808 15.975C167.958 16.4583 167.292 17.1583 166.808 18.075C166.325 18.975 166.083 20.0167 166.083 21.2C166.083 22.4 166.325 23.4583 166.808 24.375C167.292 25.275 167.958 25.975 168.808 26.475C169.658 26.9583 170.608 27.2 171.658 27.2C172.758 27.2 173.725 26.9583 174.558 26.475C175.408 25.9917 176.067 25.3 176.533 24.4C177 23.5 177.233 22.4333 177.233 21.2Z" fill="white"/>
<path d="M8.10059 26.0137C8.10059 26.1113 7.98828 26.1895 7.84668 26.1895C7.68555 26.2041 7.57324 26.126 7.57324 26.0137C7.57324 25.916 7.68555 25.8379 7.82715 25.8379C7.97363 25.8232 8.10059 25.9014 8.10059 26.0137ZM6.58203 25.7939C6.54785 25.8916 6.64551 26.0039 6.79199 26.0332C6.91895 26.082 7.06543 26.0332 7.09473 25.9355C7.12402 25.8379 7.03125 25.7256 6.88477 25.6816C6.75781 25.6475 6.61621 25.6963 6.58203 25.7939ZM8.74023 25.7109C8.59863 25.7451 8.50098 25.8379 8.51562 25.9502C8.53027 26.0479 8.65723 26.1113 8.80371 26.0771C8.94531 26.043 9.04297 25.9502 9.02832 25.8525C9.01367 25.7598 8.88184 25.6963 8.74023 25.7109ZM11.9531 7C5.18066 7 0 12.1416 0 18.9141C0 24.3291 3.4082 28.9629 8.27637 30.5938C8.90137 30.7061 9.12109 30.3203 9.12109 30.0029C9.12109 29.7002 9.10645 28.0303 9.10645 27.0049C9.10645 27.0049 5.68848 27.7373 4.9707 25.5498C4.9707 25.5498 4.41406 24.1289 3.61328 23.7627C3.61328 23.7627 2.49512 22.9961 3.69141 23.0107C3.69141 23.0107 4.90723 23.1084 5.57617 24.2705C6.64551 26.1553 8.4375 25.6133 9.13574 25.291C9.24805 24.5098 9.56543 23.9678 9.91699 23.6455C7.1875 23.3428 4.43359 22.9473 4.43359 18.25C4.43359 16.9072 4.80469 16.2334 5.58594 15.374C5.45898 15.0566 5.04395 13.748 5.71289 12.0586C6.7334 11.7412 9.08203 13.377 9.08203 13.377C10.0586 13.1035 11.1084 12.9619 12.1484 12.9619C13.1885 12.9619 14.2383 13.1035 15.2148 13.377C15.2148 13.377 17.5635 11.7363 18.584 12.0586C19.2529 13.7529 18.8379 15.0566 18.7109 15.374C19.4922 16.2383 19.9707 16.9121 19.9707 18.25C19.9707 22.9619 17.0947 23.3379 14.3652 23.6455C14.8145 24.0312 15.1953 24.7637 15.1953 25.9111C15.1953 27.5566 15.1807 29.5928 15.1807 29.9932C15.1807 30.3105 15.4053 30.6963 16.0254 30.584C20.9082 28.9629 24.2188 24.3291 24.2188 18.9141C24.2188 12.1416 18.7256 7 11.9531 7ZM4.74609 23.8408C4.68262 23.8896 4.69727 24.002 4.78027 24.0947C4.8584 24.1729 4.9707 24.207 5.03418 24.1436C5.09766 24.0947 5.08301 23.9824 5 23.8896C4.92188 23.8115 4.80957 23.7773 4.74609 23.8408ZM4.21875 23.4453C4.18457 23.5088 4.2334 23.5869 4.33105 23.6357C4.40918 23.6846 4.50684 23.6699 4.54102 23.6016C4.5752 23.5381 4.52637 23.46 4.42871 23.4111C4.33105 23.3818 4.25293 23.3965 4.21875 23.4453ZM5.80078 25.1836C5.72266 25.2471 5.75195 25.3936 5.86426 25.4863C5.97656 25.5986 6.11816 25.6133 6.18164 25.5352C6.24512 25.4717 6.21582 25.3252 6.11816 25.2324C6.01074 25.1201 5.86426 25.1055 5.80078 25.1836ZM5.24414 24.4658C5.16602 24.5146 5.16602 24.6416 5.24414 24.7539C5.32227 24.8662 5.4541 24.915 5.51758 24.8662C5.5957 24.8027 5.5957 24.6758 5.51758 24.5635C5.44922 24.4512 5.32227 24.4023 5.24414 24.4658Z" fill="white"/>
</svg>
