<svg width="114" height="43" viewBox="0 0 114 43" fill="none" xmlns="http://www.w3.org/2000/svg">
<path d="M63.5459 13.373C64.5876 13.3568 65.4421 13.5439 66.1094 13.9346C66.793 14.3252 67.3464 14.7891 67.7695 15.3262C68.1927 15.8633 68.5182 16.4085 68.7461 16.9619C68.974 17.499 69.153 17.9222 69.2832 18.2314C69.3158 18.3128 69.3809 18.4186 69.4785 18.5488C69.5599 18.6628 69.6738 18.8011 69.8203 18.9639C69.9831 19.1104 70.1865 19.2812 70.4307 19.4766C69.9261 19.4928 69.4785 19.5091 69.0879 19.5254C68.6973 19.5254 68.3636 19.5335 68.0869 19.5498C67.7777 19.5661 67.501 19.5824 67.2568 19.5986C67.0127 19.6149 66.7116 19.6393 66.3535 19.6719C66.028 19.7044 65.6292 19.737 65.1572 19.7695C64.6852 19.8021 64.1074 19.8509 63.4238 19.916C63.8307 19.4277 64.1481 18.9964 64.376 18.6221C64.6201 18.2314 64.7992 17.8896 64.9131 17.5967C65.0433 17.2874 65.1165 17.0189 65.1328 16.791C65.1654 16.5632 65.1572 16.3678 65.1084 16.2051C65.0107 15.8307 64.7585 15.5622 64.3516 15.3994C63.1797 15.0739 62.1543 15.3343 61.2754 16.1807C60.4128 17.0107 59.7943 18.3779 59.4199 20.2822C59.2409 21.2262 59.07 22.2109 58.9072 23.2363C58.7607 24.2454 58.7038 25.1732 58.7363 26.0195C58.7689 26.8496 58.9316 27.5251 59.2246 28.0459C59.5176 28.5667 60.0221 28.8109 60.7383 28.7783C61.4382 28.7458 62.0322 28.6318 62.5205 28.4365C63.0088 28.2249 63.3994 27.9808 63.6924 27.7041C63.9854 27.4111 64.1888 27.1019 64.3027 26.7764C64.4329 26.4346 64.4818 26.1172 64.4492 25.8242C64.3841 25.5964 64.2132 25.3522 63.9365 25.0918C63.6924 24.8639 63.3262 24.6117 62.8379 24.335C62.3496 24.042 61.6497 23.7409 60.7383 23.4316C61.6009 23.3828 62.3089 23.3503 62.8623 23.334C63.432 23.3014 63.8796 23.2689 64.2051 23.2363C64.5957 23.2038 64.8968 23.1794 65.1084 23.1631C65.3037 23.1468 65.5885 23.1305 65.9629 23.1143C66.2884 23.098 66.7035 23.0898 67.208 23.0898C67.7288 23.0898 68.3799 23.0817 69.1611 23.0654C68.8682 23.3584 68.6403 23.627 68.4775 23.8711C68.3962 24.0013 68.3229 24.1152 68.2578 24.2129C68.1927 24.3757 68.1683 24.7093 68.1846 25.2139C68.1846 25.637 68.2171 26.2637 68.2822 27.0938C68.3473 27.9076 68.4694 29.0225 68.6484 30.4385L65.4014 30.8779L65.5479 27.582C65.1735 28.4772 64.7015 29.1445 64.1318 29.584C63.5785 30.0234 63.0495 30.3327 62.5449 30.5117C61.9427 30.7233 61.3161 30.821 60.665 30.8047C59.8187 30.7233 58.9723 30.528 58.126 30.2188C57.2796 29.9095 56.5309 29.4375 55.8799 28.8027C55.2288 28.1517 54.7243 27.3135 54.3662 26.2881C54.0244 25.2627 53.9186 23.9932 54.0488 22.4795C54.1953 20.9658 54.5534 19.6475 55.123 18.5244C55.709 17.3851 56.4333 16.4411 57.2959 15.6924C58.1585 14.9437 59.127 14.3822 60.2012 14.0078C61.2917 13.6172 62.4066 13.4056 63.5459 13.373ZM81.1973 17.0596C81.0508 17.4176 80.9206 17.7432 80.8066 18.0361C80.709 18.3291 80.6195 18.5895 80.5381 18.8174C80.4567 19.0778 80.3835 19.3057 80.3184 19.501C80.2533 19.7288 80.18 19.9893 80.0986 20.2822C80.0173 20.5426 79.9115 20.8682 79.7812 21.2588C79.6673 21.6331 79.529 22.0807 79.3662 22.6016C79.236 21.8203 79 21.2018 78.6582 20.7461C78.3164 20.2741 77.9665 19.9079 77.6084 19.6475C77.1852 19.3545 76.7295 19.1429 76.2412 19.0127C75.3623 18.8662 74.7275 18.8825 74.3369 19.0615C73.9463 19.2406 73.6859 19.4684 73.5557 19.7451C73.4906 19.859 73.4173 20.0055 73.3359 20.1846C73.2708 20.3473 73.2139 20.5182 73.165 20.6973C73.1325 20.8763 73.1243 21.0553 73.1406 21.2344C73.1569 21.4134 73.2301 21.5599 73.3604 21.6738C73.4417 21.7552 73.6533 21.8691 73.9951 22.0156C74.3369 22.1458 74.7438 22.3005 75.2158 22.4795C75.7041 22.6423 76.2168 22.8213 76.7539 23.0166C77.3073 23.2119 77.8281 23.4072 78.3164 23.6025C78.8047 23.7979 79.2279 23.9932 79.5859 24.1885C79.944 24.3838 80.18 24.5628 80.2939 24.7256C80.3916 24.8883 80.4974 25.1081 80.6113 25.3848C80.7415 25.6452 80.8311 25.9382 80.8799 26.2637C80.945 26.5729 80.9613 26.8984 80.9287 27.2402C80.9124 27.5658 80.8229 27.8913 80.6602 28.2168C80.4974 28.5423 80.237 28.8434 79.8789 29.1201C79.5371 29.3968 79.0732 29.6247 78.4873 29.8037C77.8037 30.0153 77.1445 30.0723 76.5098 29.9746C75.875 29.877 75.2891 29.7305 74.752 29.5352C74.2311 29.3398 73.7754 29.1527 73.3848 28.9736C72.9941 28.7783 72.7174 28.6969 72.5547 28.7295C72.3757 28.762 72.1722 28.8516 71.9443 28.998C71.7165 29.1445 71.4967 29.2992 71.2852 29.4619C71.0898 29.6084 70.9189 29.7467 70.7725 29.877C70.626 29.9909 70.5527 30.0316 70.5527 29.999C70.5527 29.9665 70.5771 29.8688 70.626 29.7061C70.6911 29.5433 70.7562 29.348 70.8213 29.1201C70.9027 28.876 70.9759 28.6156 71.041 28.3389C71.1224 28.0459 71.1794 27.7692 71.2119 27.5088C71.2445 27.2972 71.2852 27.0368 71.334 26.7275C71.3665 26.4508 71.4072 26.1172 71.4561 25.7266C71.5212 25.3197 71.5944 24.8314 71.6758 24.2617C71.7572 24.6849 71.8711 25.0511 72.0176 25.3604C72.1803 25.6696 72.335 25.9382 72.4814 26.166C72.6605 26.4264 72.8314 26.6462 72.9941 26.8252C73.2383 27.0531 73.5231 27.2646 73.8486 27.46C74.1904 27.6553 74.5322 27.8262 74.874 27.9727C75.2158 28.1029 75.5413 28.1842 75.8506 28.2168C76.1598 28.2493 76.4202 28.2168 76.6318 28.1191C76.8434 28.0215 77.0225 27.8424 77.1689 27.582C77.3317 27.3216 77.4456 27.0368 77.5107 26.7275C77.5758 26.4183 77.6003 26.1253 77.584 25.8486C77.5677 25.5557 77.4945 25.3197 77.3643 25.1406C77.2666 25.0267 77.0387 24.8802 76.6807 24.7012C76.3389 24.5221 75.9238 24.3268 75.4355 24.1152C74.9635 23.9036 74.459 23.6839 73.9219 23.4561C73.401 23.2282 72.9046 23.0003 72.4326 22.7725C71.9769 22.5283 71.5944 22.3005 71.2852 22.0889C70.9922 21.861 70.8294 21.6576 70.7969 21.4785C70.7643 21.2181 70.7399 20.9333 70.7236 20.624C70.7074 20.2985 70.7236 19.9811 70.7725 19.6719C70.8376 19.3464 70.9515 19.0371 71.1143 18.7441C71.2933 18.4512 71.5537 18.207 71.8955 18.0117C72.1234 17.8815 72.4245 17.7839 72.7988 17.7188C73.1732 17.6536 73.5882 17.6211 74.0439 17.6211C74.4997 17.6048 74.9717 17.6211 75.46 17.6699C75.9482 17.7025 76.4121 17.7513 76.8516 17.8164C77.3073 17.8652 77.7142 17.9303 78.0723 18.0117C78.4466 18.0931 78.7314 18.1663 78.9268 18.2314C79.1546 18.3128 79.3988 18.321 79.6592 18.2559C79.887 18.207 80.1312 18.1012 80.3916 17.9385C80.652 17.7757 80.9206 17.4827 81.1973 17.0596ZM83.9072 21.1123C83.9886 21.0146 84.0374 20.8356 84.0537 20.5752C84.0863 20.2985 84.1514 19.9893 84.249 19.6475C84.363 19.3057 84.5501 18.9476 84.8105 18.5732C85.071 18.1989 85.4941 17.849 86.0801 17.5234C86.6497 17.1979 87.2031 17.0026 87.7402 16.9375C88.2773 16.8724 88.79 16.8968 89.2783 17.0107C89.7666 17.1247 90.2223 17.3037 90.6455 17.5479C91.085 17.792 91.4837 18.0605 91.8418 18.3535C92.0859 18.5488 92.2812 18.8337 92.4277 19.208C92.5742 19.5661 92.6882 19.973 92.7695 20.4287C92.8509 20.8844 92.9079 21.3646 92.9404 21.8691C92.9893 22.3574 93.0218 22.8376 93.0381 23.3096C93.0544 23.7653 93.0625 24.1885 93.0625 24.5791C93.0788 24.9535 93.1113 25.2627 93.1602 25.5068C93.2253 25.8649 93.3392 26.1742 93.502 26.4346C93.6647 26.6787 93.8438 26.8903 94.0391 27.0693C94.2344 27.2321 94.4297 27.3623 94.625 27.46C94.8203 27.5576 94.9912 27.6309 95.1377 27.6797C95.2354 27.7285 95.3249 27.7611 95.4062 27.7773C95.569 27.8424 95.6829 27.8424 95.748 27.7773C95.6504 28.0052 95.5609 28.2005 95.4795 28.3633C95.3981 28.526 95.333 28.6644 95.2842 28.7783C95.2191 28.9085 95.1621 29.0143 95.1133 29.0957C95.0645 29.1934 95.0075 29.2829 94.9424 29.3643C94.8936 29.4456 94.8285 29.5352 94.7471 29.6328C94.6657 29.7305 94.5843 29.8363 94.5029 29.9502C94.2913 29.8688 94.0879 29.7712 93.8926 29.6572C93.7135 29.5433 93.5508 29.4375 93.4043 29.3398C93.2253 29.2259 93.0625 29.112 92.916 28.998C92.7695 28.8841 92.6312 28.7539 92.501 28.6074C92.387 28.4772 92.265 28.3389 92.1348 28.1924C92.0208 28.0459 91.9232 27.8831 91.8418 27.7041C91.7441 27.9157 91.5081 28.2168 91.1338 28.6074C90.7757 28.998 90.3037 29.3561 89.7178 29.6816C89.1318 29.9909 88.4482 30.2106 87.667 30.3408C86.902 30.471 86.0557 30.3815 85.1279 30.0723C84.721 29.9421 84.3385 29.7549 83.9805 29.5107C83.6224 29.2503 83.3132 28.9411 83.0527 28.583C82.8086 28.2249 82.6296 27.818 82.5156 27.3623C82.418 26.8903 82.4261 26.3695 82.54 25.7998C82.654 25.2301 82.8574 24.75 83.1504 24.3594C83.4434 23.9688 83.7933 23.6514 84.2002 23.4072C84.6071 23.1631 85.0628 22.9759 85.5674 22.8457C86.0719 22.7155 86.5928 22.626 87.1299 22.5771C87.5531 22.5609 87.9762 22.5853 88.3994 22.6504C88.7575 22.7155 89.1318 22.8376 89.5225 23.0166C89.9131 23.1794 90.2467 23.4316 90.5234 23.7734C90.5072 22.9108 90.4746 22.2272 90.4258 21.7227C90.3932 21.2018 90.3607 20.8031 90.3281 20.5264C90.263 20.2008 90.2061 19.973 90.1572 19.8428C90.0758 19.7288 89.9863 19.5986 89.8887 19.4521C89.8073 19.3057 89.7015 19.1755 89.5713 19.0615C89.4411 18.9313 89.2783 18.8255 89.083 18.7441C88.8877 18.6628 88.6598 18.6302 88.3994 18.6465C88.1227 18.6628 87.903 18.736 87.7402 18.8662C87.5775 18.9964 87.4473 19.151 87.3496 19.3301C87.2682 19.4928 87.2194 19.6719 87.2031 19.8672C87.1868 20.0625 87.195 20.2334 87.2275 20.3799C87.2601 20.4775 87.3089 20.5833 87.374 20.6973C87.4391 20.7949 87.5286 20.9007 87.6426 21.0146C87.7565 21.1286 87.9111 21.2262 88.1064 21.3076C87.7321 21.3564 87.3984 21.3971 87.1055 21.4297C86.8125 21.446 86.5602 21.4704 86.3486 21.5029C86.1045 21.5355 85.8929 21.5599 85.7139 21.5762C85.5348 21.5924 85.3232 21.625 85.0791 21.6738C84.8675 21.7064 84.6071 21.7471 84.2979 21.7959C83.9886 21.8447 83.6305 21.9098 83.2236 21.9912C83.3213 21.8773 83.4108 21.7715 83.4922 21.6738C83.5736 21.5599 83.6468 21.4622 83.7119 21.3809C83.777 21.2832 83.8421 21.1937 83.9072 21.1123ZM87.5693 24.0176C87.2764 24.0339 86.9834 24.1071 86.6904 24.2373C86.3975 24.3512 86.137 24.5221 85.9092 24.75C85.6813 24.9616 85.486 25.2139 85.3232 25.5068C85.1768 25.7835 85.1035 26.0928 85.1035 26.4346C85.1035 26.7764 85.1849 27.0775 85.3477 27.3379C85.5267 27.582 85.7546 27.7855 86.0312 27.9482C86.3242 28.111 86.6335 28.2087 86.959 28.2412C87.3008 28.2738 87.6344 28.2412 87.96 28.1436C88.2692 28.0296 88.5622 27.8506 88.8389 27.6064C89.1156 27.346 89.3516 27.0693 89.5469 26.7764C89.7422 26.4671 89.8805 26.166 89.9619 25.873C90.0433 25.5638 90.0514 25.3115 89.9863 25.1162C89.8561 24.693 89.5632 24.4001 89.1074 24.2373C88.6517 24.0583 88.139 23.985 87.5693 24.0176ZM94.7715 19.623C95.2923 19.5417 95.7155 19.4766 96.041 19.4277C96.3828 19.3626 96.6595 19.3138 96.8711 19.2812C97.1152 19.2324 97.3024 19.1917 97.4326 19.1592C97.5628 19.1266 97.75 19.0778 97.9941 19.0127C98.2057 18.9476 98.4824 18.8743 98.8242 18.793C99.166 18.6953 99.5973 18.5651 100.118 18.4023C99.988 18.5651 99.8822 18.7116 99.8008 18.8418C99.7357 18.9557 99.6706 19.0534 99.6055 19.1348C99.5404 19.2324 99.4834 19.3219 99.4346 19.4033C99.3857 19.4847 99.3369 19.6068 99.2881 19.7695C99.2555 19.8997 99.2148 20.0869 99.166 20.3311C99.1172 20.5589 99.0765 20.86 99.0439 21.2344C99.9229 20.681 100.729 20.266 101.461 19.9893C102.21 19.7126 102.861 19.5173 103.414 19.4033C104.065 19.2731 104.651 19.2243 105.172 19.2568C105.823 19.3057 106.425 19.4521 106.979 19.6963C107.548 19.9242 108.061 20.2008 108.517 20.5264C108.972 20.8519 109.371 21.21 109.713 21.6006C110.055 21.9912 110.323 22.3818 110.519 22.7725C110.649 23.0329 110.73 23.4072 110.763 23.8955C110.812 24.3838 110.763 24.9046 110.616 25.458C110.47 26.0114 110.209 26.5566 109.835 27.0938C109.477 27.6146 108.964 28.0296 108.297 28.3389C107.141 28.8597 105.994 29.1527 104.854 29.2178C104.366 29.2503 103.862 29.234 103.341 29.1689C102.836 29.1038 102.324 28.9655 101.803 28.7539C101.298 28.5423 100.81 28.2412 100.338 27.8506C99.8659 27.4437 99.4346 26.9229 99.0439 26.2881C98.9137 27.1182 98.8161 27.8424 98.751 28.4609C98.7021 29.0632 98.6696 29.5677 98.6533 29.9746C98.637 30.4466 98.637 30.8454 98.6533 31.1709C98.6859 31.4964 98.751 31.8464 98.8486 32.2207C98.93 32.5462 99.0439 32.9206 99.1904 33.3438C99.3532 33.7832 99.5566 34.2389 99.8008 34.7109C99.7031 34.6784 99.5648 34.654 99.3857 34.6377C99.223 34.6377 99.0521 34.654 98.873 34.6865C98.6777 34.7191 98.458 34.7516 98.2139 34.7842C97.986 34.833 97.7337 34.89 97.457 34.9551C97.2292 35.0039 96.9606 35.0609 96.6514 35.126C96.3584 35.2074 96.0573 35.2969 95.748 35.3945C95.9271 35.1829 96.0654 34.9388 96.1631 34.6621C96.277 34.4017 96.3665 34.1576 96.4316 33.9297C96.4967 33.653 96.5537 33.3763 96.6025 33.0996C96.6188 32.8555 96.6432 32.3916 96.6758 31.708C96.7246 31.0407 96.7653 30.2676 96.7979 29.3887C96.8304 28.4935 96.8548 27.5576 96.8711 26.5811C96.9036 25.6045 96.9199 24.7012 96.9199 23.8711C96.9362 23.0247 96.9362 22.3086 96.9199 21.7227C96.9036 21.1367 96.8711 20.7949 96.8223 20.6973C96.7572 20.5833 96.6351 20.4613 96.4561 20.3311C96.3096 20.2171 96.098 20.1032 95.8213 19.9893C95.5609 19.8753 95.2109 19.7533 94.7715 19.623ZM100.582 24.0664C100.468 24.4408 100.444 24.807 100.509 25.165C100.574 25.5231 100.737 25.8568 100.997 26.166C101.274 26.4753 101.656 26.752 102.145 26.9961C102.649 27.224 103.276 27.3949 104.024 27.5088C104.773 27.6227 105.343 27.6064 105.733 27.46C106.124 27.3135 106.409 27.0856 106.588 26.7764C106.783 26.4508 106.913 26.0765 106.979 25.6533C107.044 25.2139 107.125 24.7581 107.223 24.2861C107.32 23.8304 107.304 23.3665 107.174 22.8945C107.044 22.4062 106.856 21.9668 106.612 21.5762C106.384 21.1855 106.124 20.8682 105.831 20.624C105.554 20.3636 105.31 20.2334 105.099 20.2334C104.594 20.2334 104.098 20.3636 103.609 20.624C103.121 20.8844 102.674 21.21 102.267 21.6006C101.86 21.9912 101.502 22.4144 101.192 22.8701C100.899 23.3096 100.696 23.7083 100.582 24.0664Z" fill="white"/>
<path d="M25.6176 41.9591C24.9594 41.8684 24.2653 41.6167 23.8822 41.3341C23.6143 41.1106 23.4641 40.8116 23.4632 40.5002C23.4632 40.192 23.6536 39.7468 23.9753 39.3084C24.1604 39.0578 24.3088 38.7906 24.4176 38.5122C24.4811 38.3187 24.6208 37.9985 24.7288 37.7981L24.9214 37.4351L24.9721 34.9762C24.9997 33.6235 25.0505 32.3632 25.0843 32.1714C25.1938 31.6091 25.3732 31.0572 25.6198 30.5241L25.7975 30.1663L25.5372 30.0412C25.2938 29.9231 25.0928 29.7536 24.3097 29.0001C23.3425 28.0755 22.0727 27.5686 20.2716 27.3905C19.6802 27.3454 19.0874 27.3129 18.4939 27.2929C15.8441 27.1936 14.333 26.7467 12.9701 25.6628C11.9542 24.8512 11.423 23.9077 11.2071 22.5189C10.915 20.6388 10.5933 19.6713 10.0007 18.8888C9.85552 18.6963 9.68753 18.5156 9.49916 18.3494L9.25789 18.1559L8.72879 18.4299C8.43461 18.5806 8.03249 18.7775 7.83355 18.8665C7.1763 19.1593 6.5429 19.4859 5.93726 19.8443C4.46425 20.7124 2.84943 21.7998 1.96478 22.5189C1.5669 22.8409 1.35737 22.9761 1.27272 22.9676C0.663195 22.894 1.13304 20.7758 2.11081 19.1833C3.37007 17.1336 5.48223 15.2398 7.93514 13.959C9.94572 12.9093 13.1944 11.4658 14.6991 10.9572C17.3658 10.0548 20.8198 9.0771 23.1859 8.55483C23.6854 8.44524 23.9923 8.34593 24.1954 8.22949C24.661 7.9675 25.1139 7.84421 25.6367 7.83565C26.0727 7.83051 26.115 7.81853 26.5362 7.59592C27.0335 7.33565 27.1753 7.31853 27.6748 7.45894L28.0007 7.55312L28.3965 7.33565L28.7944 7.11818L29.3658 7.12846C29.7997 7.13531 29.9986 7.11647 30.1848 7.04969C30.4261 6.96407 30.4346 6.9538 30.5023 6.63017C30.6547 5.93496 30.6716 5.58564 30.5806 5.16783C30.4579 4.61303 30.4473 2.45549 30.5637 2.03596C30.6885 1.58048 30.769 1.48973 31.188 1.32192C31.8166 1.07021 32.2864 1 33.3721 1C34.6928 1 35.3615 1.14384 35.8568 1.53082C36.3055 1.88357 36.3816 2.69521 36.1467 4.61303C36.0113 5.71235 35.9943 6.02229 36.0303 6.74318C36.0515 7.20722 36.0875 7.64045 36.1086 7.7038C36.1446 7.8151 36.1764 7.82195 36.6568 7.83052C37.1245 7.83736 37.207 7.85449 37.6536 8.04456C38.0853 8.22607 38.407 8.44524 38.4705 8.60107C38.4832 8.63531 38.5552 8.63703 38.6906 8.6062C38.9404 8.54627 39.1668 8.61134 39.3446 8.79285C39.4525 8.90415 39.5203 8.92641 39.7742 8.92641C40.1129 8.92641 40.2314 8.99148 40.5129 9.3271C40.6452 9.47707 40.825 9.59539 41.0335 9.66957C41.4991 9.85792 42.1234 10.3785 42.3668 10.7894C42.7372 11.4093 42.8155 12.1199 42.5806 12.7655C42.4959 13.0052 42.4959 13.0138 42.6695 13.2484C43.0377 13.7449 43.1711 14.3614 43.0229 14.8819L42.9361 15.1901L43.1859 15.3905C44.4197 16.3888 44.2377 18.0121 42.7308 19.4659C42.57 19.62 42.3816 19.8631 42.3118 20.0104C42.0155 20.632 41.6896 21.0686 41.2557 21.4282L40.824 21.7878H40.3711C39.9266 21.7878 39.3023 21.6679 38.9213 21.5052C38.7626 21.4385 38.752 21.4402 38.7838 21.5224C38.8896 21.8169 39.1309 23.0121 39.2176 23.6714C39.351 24.6885 39.3107 26.1679 39.133 26.8032C39.0066 27.2739 38.7948 27.7269 38.5044 28.1474C38.3436 28.3632 38.3287 28.4128 38.3647 28.668C38.4155 29.0395 38.3076 29.6543 38.1213 30.0601C37.9012 30.5344 37.8187 30.757 37.77 30.995C37.7277 31.2039 37.7277 31.2056 37.9097 31.2056C38.1531 31.2056 38.2801 31.3221 38.2801 31.5464C38.2801 31.6491 38.1742 32.1868 38.043 32.745C37.6811 34.2998 37.6578 34.4796 37.6536 35.9899C37.6473 37.5464 37.6451 37.5344 38.0854 37.7656L39.0674 38.2827C39.9124 38.7382 40.8183 39.1151 41.7679 39.406C43.1499 39.8478 43.3404 39.9608 43.3404 40.3375C43.3404 40.5002 43.3002 40.5653 43.1287 40.6988C42.5954 41.1149 41.5541 41.2074 39.4525 41.0276C38.3621 40.9436 37.2675 40.9008 36.1721 40.8992C33.2832 40.8649 32.8557 40.7845 32.479 40.2005C32.2631 39.8666 32.3012 39.43 32.6039 38.7142C32.7385 38.3994 32.8536 38.0794 32.9489 37.7553C33.1457 36.9762 33.0123 36.055 32.551 35.0087L32.1594 34.1217C31.7658 33.2176 31.5541 31.5635 31.7869 31.1902C31.8293 31.1217 31.9012 31.1046 32.0959 31.1149L32.3478 31.132L32.551 30.7827C32.7097 30.5121 32.8854 30.3306 33.3552 29.9471L33.9584 29.4573L33.9287 29.1457C33.8991 28.8477 33.4145 27.3871 33.3446 27.3905C33.3256 27.3905 33.1901 27.5412 33.0399 27.7245C32.6801 28.1662 31.8716 28.8512 31.4187 29.0978C31.2198 29.2073 31.0547 29.3323 31.0547 29.3752C31.0504 29.5515 30.8557 29.906 30.6293 30.1543C30.4049 30.3991 30.3901 30.4334 30.424 30.6508C30.4748 30.9642 30.3541 31.9745 30.2039 32.5002C30.0712 32.8938 29.889 33.2754 29.66 33.6389C29.0885 34.5978 28.661 35.4505 28.5489 35.8478C28.4719 36.2292 28.4238 36.614 28.4049 37.0002C28.3774 37.4522 28.3203 37.8975 28.278 37.9882C28.2229 38.1166 28.2208 38.2142 28.2737 38.4094C28.3118 38.5499 28.3372 38.8649 28.3309 39.1115C28.3224 39.454 28.3563 39.6766 28.479 40.0773C28.6907 40.7571 28.7372 41.1851 28.6335 41.4403C28.57 41.5978 28.4981 41.6612 28.2822 41.7485C27.7806 41.954 26.3796 42.0653 25.6176 41.9591ZM27.6282 41.4146C27.9182 41.3478 28.1616 41.1423 28.1616 40.9643C28.1616 40.8872 28.0769 40.6509 27.9774 40.4403C27.787 40.0464 27.4399 39.007 27.4399 38.8341C27.4399 38.7416 27.4483 38.7399 27.6198 38.8136L27.7997 38.8906L27.7954 38.7023C27.7742 38.5302 27.7287 38.3608 27.66 38.1971C27.5034 37.8153 27.4822 37.8067 26.4875 37.7622L25.806 37.7331L25.5626 37.9266C25.4229 38.0385 25.3026 38.1652 25.2049 38.3033C25.0949 38.4796 25.0526 38.7399 25.1245 38.7999C25.1415 38.8153 25.3044 38.7999 25.4843 38.7656C25.5912 38.7398 25.7012 38.7232 25.8124 38.716C25.8124 38.7245 25.6303 38.841 25.406 38.9745C24.4113 39.5704 24.0663 39.9403 24.0663 40.4077C24.0663 40.8975 24.6293 41.2776 25.5224 41.3906C26.1362 41.4694 27.3298 41.4831 27.6282 41.4146ZM41.0758 40.6184C41.3234 40.3752 41.2938 40.1303 40.9785 39.8478C40.797 39.6979 40.5886 39.5709 40.3605 39.4711C40.1221 39.3696 39.8904 39.2582 39.6663 39.1372C39.4843 39.0344 38.9002 38.7605 38.3711 38.5207C37.9918 38.3568 37.6198 38.182 37.2557 37.9968L37.1076 37.9026V36.0618C37.1076 34.2467 37.1033 34.2245 36.9848 34.2502C36.407 34.3786 35.4483 34.4368 34.2293 34.418L32.9192 34.4009L33.1055 34.7742C33.4589 35.4865 33.643 36.4351 33.6409 37.5242C33.6409 37.9317 33.6113 38.0824 33.4864 38.3666C33.4224 38.508 33.361 38.6501 33.3023 38.793C33.279 38.8529 33.37 38.8957 33.7129 38.9779C33.9563 39.0379 34.3245 39.0995 34.5319 39.1183L34.9086 39.1492L34.8705 39.4591C34.8282 39.8101 34.8769 40.1749 34.9848 40.2913C35.0462 40.3564 35.3002 40.3803 36.4451 40.4249C37.3171 40.4591 38.261 40.531 39.0039 40.6201C39.6494 40.6971 40.3435 40.7639 40.5488 40.7656C40.8917 40.7708 40.9298 40.7605 41.0758 40.6184ZM27.8441 37.4831C27.8758 37.4659 27.9224 37.1029 27.9436 36.6766C28.0092 35.4779 28.0642 35.3067 28.8113 33.9557C29.4187 32.8529 29.7446 31.8238 29.715 31.0909L29.6981 30.656L29.4716 30.8375C28.9912 31.2228 29.3213 30.6149 29.8885 30.0721C30.3182 29.6611 30.4663 29.4299 30.5383 29.0669C30.5679 28.9197 30.6377 28.8443 30.9192 28.6731C31.9817 28.0138 32.7541 27.1834 33.2536 26.1679C33.3721 25.9265 33.6727 25.1063 33.9203 24.3426C34.3817 22.9282 34.6293 22.3237 34.8515 22.06C34.9362 21.959 34.9679 21.9436 34.9467 22.0104C34.8197 22.4128 34.7774 22.5755 34.6716 23.1011C34.6039 23.4282 34.4811 24.0669 34.4007 24.519C34.2356 25.4299 34.0705 26.019 33.8483 26.4779L33.7002 26.7827L34.1002 27.6132C34.5086 28.4642 34.6991 29.0772 34.7393 29.6765L34.7605 30.0053L34.4346 30.0601C34.011 30.1221 33.6339 30.3149 33.3827 30.5978C33.0949 30.9231 32.9425 31.1937 33.0166 31.2553C33.0483 31.281 33.4547 31.3409 33.916 31.3837C34.6399 31.4522 34.9108 31.4556 35.861 31.406C36.2712 31.3908 36.6802 31.3588 37.0864 31.3101C37.1753 31.2844 37.2621 31.1371 37.4123 30.757C37.7552 29.8837 37.8208 29.5704 37.7806 28.9591L37.7467 28.4162L37.9203 28.2364C38.3266 27.8186 38.6398 27.0686 38.7668 26.1988C38.9256 25.1268 38.6398 22.8837 38.1002 20.9556C37.8462 20.0429 37.7404 19.4932 37.7404 19.0891V18.7347L37.3319 18.7689C35.8779 18.8991 34.1192 18.8631 33.0399 18.6833C32.4557 18.5874 30.9743 18.2381 30.6483 18.12L30.3965 18.0292L30.3605 18.2604C30.341 18.3905 30.3128 18.5197 30.2758 18.6474C30.2272 18.7929 30.2462 18.822 30.5531 19.0686C30.934 19.3768 31.0526 19.5412 31.0526 19.7569C31.0526 19.8854 30.9573 19.9933 30.4959 20.3854C30.1573 20.673 29.7256 20.9761 29.3954 21.1542L28.8536 21.4487L28.6293 22.0926C27.7954 24.4727 27.6388 26.6286 28.1848 28.1782L28.3203 28.5652L28.0557 28.8306C27.061 29.8443 26.4769 30.6132 26.388 31.0395C26.3711 31.1252 26.2864 31.4077 26.2018 31.668C25.9901 32.3289 25.8251 33.2998 25.7531 34.3495C25.6988 35.2289 25.6255 36.1075 25.533 36.9848L25.497 37.2451L25.9097 37.3478C26.1383 37.4043 26.4875 37.4728 26.6864 37.4968C27.0547 37.5447 27.7425 37.5361 27.8462 37.4831H27.8441ZM35.8716 33.805C36.5129 33.7741 37.1012 33.692 37.2155 33.6166C37.2642 33.5858 37.3213 33.4454 37.3425 33.3084L37.3785 33.055L36.8705 33.1457C36.4669 33.2089 36.0592 33.2535 35.6494 33.2793C34.6737 33.3141 33.6961 33.2912 32.7245 33.2108C32.4028 33.1714 32.4007 33.1731 32.5065 33.5139C32.5848 33.7707 32.6018 33.7776 33.4483 33.8307C34.0113 33.8649 34.7901 33.8581 35.8716 33.805ZM35.3319 32.6406C36.17 32.5841 37.224 32.4385 37.4271 32.3495C37.4928 32.3204 37.5563 32.2228 37.5795 32.1115L37.6557 31.7553L37.6938 31.5858L37.4906 31.62C36.5742 31.7758 35.8779 31.8221 34.4854 31.8221C33.133 31.8221 32.9785 31.8118 32.6229 31.7142C32.4847 31.6662 32.3371 31.6384 32.1869 31.632C32.1277 31.6611 32.1235 32.043 32.1764 32.3084C32.2081 32.4711 32.2399 32.4985 32.4409 32.5447C33.0695 32.6817 34.1256 32.7176 35.3319 32.6389V32.6406ZM19.9901 26.608C22.1065 26.1183 24.8748 24.6611 27.1372 22.846C27.878 22.2501 27.9626 22.1662 28.0621 21.9042L28.1975 21.5635C28.2124 21.5361 28.079 21.4864 27.9055 21.4522C27.4483 21.3631 27.1076 21.1542 27.1034 20.959C27.1034 20.846 27.0187 20.733 26.7859 20.5224C26.3901 20.1662 26.2928 20.0121 26.2505 19.6713L26.2166 19.4008L25.7594 19.1302C25.497 18.9761 24.5658 18.5617 23.5838 18.1628C22.8352 17.8665 22.1016 17.546 21.3848 17.2021C20.5595 16.7501 20.0028 16.2158 19.6917 15.5806C19.6304 15.4504 19.5584 15.3443 19.533 15.3443C19.4632 15.3443 17.6071 16.7997 16.8113 17.4795C14.8558 19.1525 13.5034 20.6046 12.6547 21.9487C12.4431 22.2826 12.2103 22.6765 12.1425 22.8237L12.0156 23.0926L12.1701 23.5378C12.2547 23.7827 12.4452 24.1765 12.5933 24.4111C13.114 25.2399 13.7383 25.7416 14.7605 26.1491C15.8611 26.5892 16.8346 26.7416 18.4642 26.7262C19.3446 26.7176 19.5965 26.7005 19.9901 26.608ZM3.28541 20.7467C4.67589 19.7501 6.59334 18.6576 8.94466 17.5241C10.4833 16.7826 16.4219 14.3785 19.1584 13.3905C19.6536 13.2107 20.1023 13.0463 20.1531 13.0223C20.2018 13.0001 20.3457 12.7141 20.4727 12.3905C21.0568 10.9024 21.3446 10.6079 22.3944 10.4161C22.5277 10.3922 22.5595 10.3579 22.5595 10.2466C22.5595 10.0583 22.7245 9.60621 22.8663 9.40587C22.9722 9.25176 22.9743 9.24319 22.8769 9.26545C22.8198 9.28087 22.4748 9.36135 22.1087 9.44696C17.0716 10.6233 12.6653 12.1867 8.86001 14.1422C4.79652 16.2312 2.46425 18.7313 1.78489 21.7261L1.73409 21.9487L2.2251 21.5532C2.49388 21.3357 2.97219 20.971 3.28541 20.7467ZM40.697 21.3118C41.0991 21.1439 41.7277 20.3734 41.9605 19.7672C42.0298 19.5522 42.1619 19.3537 42.3457 19.1885C42.9637 18.6405 43.4695 17.6388 43.4716 16.9556C43.4716 15.8939 42.733 15.4847 41.6451 15.9419C41.5097 15.9984 41.389 16.036 41.3764 16.0241C41.315 15.9744 41.624 15.733 41.9901 15.5446C42.4832 15.2877 42.5763 15.1336 42.5763 14.5754C42.5763 14.1114 42.4303 13.7312 42.1002 13.3203C41.952 13.1405 41.8928 13.0172 41.916 12.947L42.0684 12.4949C42.2716 11.9007 42.1975 11.2209 41.8822 10.7877C41.4017 10.1285 40.8113 9.80655 39.9901 9.7569L39.5139 9.72779L39.7975 9.9795C40.6271 10.7141 41.0314 11.6285 40.8726 12.411C40.7901 12.8083 40.7097 12.8905 40.2314 13.048L39.9562 13.1388L39.988 13.4453C40.043 13.9504 39.9372 14.3151 39.5393 14.9949C39.3425 15.334 39.1922 15.6388 39.207 15.6713C39.2599 15.786 39.7996 16.0052 40.2293 16.0891L40.6525 16.1713L40.388 16.2398C40.0473 16.3306 39.9689 16.4556 39.9668 16.9196C39.9668 17.3391 40.0409 17.5121 40.4261 17.9744C40.5954 18.1765 40.7118 18.3802 40.7308 18.5018C40.7626 18.6919 40.752 18.7039 40.5615 18.7604C40.3471 18.8072 40.1272 18.8358 39.9055 18.846C39.1287 18.8854 39.0695 18.9025 38.7245 19.1713C38.407 19.4162 38.4007 19.4299 38.4007 19.697C38.4007 20.0652 38.57 20.8015 38.6801 20.9025C38.8155 21.0275 39.6028 21.3391 39.9076 21.3871C40.1734 21.4386 40.4532 21.4119 40.697 21.3118ZM29.2473 20.8083C29.7531 20.4881 30.1467 20.1679 30.3732 19.8922C30.5108 19.7244 30.5192 19.6919 30.4494 19.5549C30.3393 19.3374 29.5795 18.7843 29.1563 18.6182C28.8757 18.5145 28.5775 18.4452 28.2716 18.4128L27.751 18.3545L27.4251 18.0258C26.7605 17.358 26.388 16.8391 25.8547 15.8306C25.3975 14.971 24.9891 14.4692 24.3457 13.9778C24.0811 13.7758 23.8864 13.6097 23.9097 13.6097C23.9351 13.6097 24.2505 13.7347 24.6145 13.8888C25.224 14.1473 25.2938 14.1662 25.569 14.1388C26.5531 14.0429 27.4166 13.1268 27.7362 11.8442C27.8272 11.4778 28.0049 11.1096 28.1975 10.8905C28.206 10.8819 28.5827 11.0874 29.0335 11.3477C30.1637 11.9983 30.4134 12.0942 31.0547 12.1148C31.4822 12.1285 31.7192 12.1011 32.4769 11.9538C34.0959 11.6353 35.8504 11.5052 36.9213 11.6233C37.5245 11.6901 38.3859 11.9025 39.0377 12.1473C39.6748 12.387 39.7975 12.4007 40.0049 12.2535C40.1742 12.1336 40.1764 12.1165 40.1742 11.6679C40.17 11.0069 39.8695 10.2911 39.4123 9.86477C39.1795 9.64388 38.534 9.28258 37.8885 9.00689C37.6559 8.90814 37.4252 8.80653 37.1965 8.7021C36.8959 8.55997 36.5425 8.57709 35.6049 8.77744C34.515 9.0086 34.225 9.00518 32.9742 8.74662C31.9182 8.52744 31.8483 8.52401 30.8113 8.65586C30.2589 8.72607 28.8684 8.68497 28.4028 8.58566C28.1707 8.53381 27.9412 8.4744 27.715 8.40757C27.3129 8.286 26.6102 8.26545 25.9753 8.3562C24.7055 8.53942 23.7446 9.09251 23.3975 9.84594C23.2198 10.2295 23.243 10.4093 23.4864 10.5326C23.861 10.7244 24.3669 11.2535 24.3669 11.4572C24.3669 11.4744 24.2483 11.387 24.1023 11.2638C23.751 10.9658 23.4251 10.834 23.0441 10.834C22.7977 10.8384 22.5579 10.8989 22.352 11.0085C22.1461 11.1182 21.9826 11.2725 21.8801 11.4538C21.7694 11.689 21.6754 11.9291 21.5986 12.173C21.3658 12.8614 21.1626 13.221 20.7267 13.7004C20.333 14.1336 20.2801 14.3271 20.4177 14.8151C20.7647 16.0463 21.3658 16.5463 23.8864 17.7021C25.2092 18.3083 25.8928 18.6491 26.388 18.9504C26.7669 19.1782 26.7774 19.1902 26.7436 19.3665C26.6653 19.7655 26.9806 20.2056 27.6028 20.5566C27.7616 20.6457 27.861 20.7398 27.861 20.8015C27.861 20.9248 28.2758 21.0926 28.587 21.0926C28.7563 21.0926 28.8938 21.0344 29.2494 20.8083H29.2473ZM39.4377 18.5583C40.3986 18.5806 40.4515 18.5258 39.9351 18.0429C39.3975 17.5378 39.2515 17.1319 39.4483 16.6833L39.5266 16.5086L39.1901 16.3751C39.0792 16.3269 38.9638 16.2857 38.8451 16.2518C38.785 16.4278 38.7293 16.6048 38.6779 16.7826C38.5552 17.1936 38.4028 18.2484 38.4007 18.7004C38.4007 18.7398 38.4811 18.7227 38.6229 18.6525C38.8176 18.5583 38.9192 18.5463 39.4377 18.5583ZM36.225 18.5155C36.8028 18.4898 37.4018 18.4539 37.5584 18.4367L37.842 18.4059L37.8779 17.6319C37.9266 16.536 38.1213 15.8888 38.7097 14.8545C39.1287 14.1182 39.3044 13.4727 39.2176 12.9949C39.1795 12.786 39.1647 12.7723 38.8197 12.6507C38.1831 12.4466 37.52 12.3012 36.843 12.2175C36.1869 12.1405 34.2737 12.185 33.552 12.2946C33.2557 12.3391 32.7118 12.4316 32.3457 12.5018C31.4441 12.673 30.9658 12.6507 30.2801 12.4076C29.6028 12.1662 29.1711 11.9487 28.7626 11.6405C28.443 11.399 28.4134 11.387 28.3266 11.4675C28.2631 11.5275 28.2272 11.7072 28.206 12.0977C28.1764 12.6918 28.0663 13.0052 27.7404 13.4281C27.6675 13.5138 27.6065 13.6057 27.5584 13.7021C27.5584 13.7227 27.8102 13.9521 28.1171 14.209C29.1732 15.0994 29.6917 15.3288 30.5256 15.2775C30.8007 15.2603 30.9912 15.2672 30.9912 15.2946C30.9912 15.3443 30.4536 15.6884 30.2272 15.7843C30.1256 15.8271 30.1002 15.8751 30.1171 15.9778L30.2441 16.6765C30.3203 17.0806 30.3795 17.2638 30.4557 17.3186C30.6526 17.4556 31.6769 17.8837 32.3182 18.0926C33.1668 18.3717 33.624 18.471 34.2737 18.5155C35.0631 18.5686 35.0801 18.5686 36.225 18.5155ZM29.3891 17.7843C29.406 17.7586 29.3425 17.3734 29.2409 16.9247C29.1076 16.3151 29.0335 16.0943 28.951 16.0378C28.8875 15.9967 28.5848 15.8186 28.2758 15.6422C27.877 15.404 27.4974 15.1455 27.1393 14.8682L26.5658 14.4162L26.2653 14.5446L25.9393 14.6867C25.9676 14.7916 26.0132 14.893 26.0748 14.9881C26.1594 15.1473 26.3415 15.5412 26.4769 15.8614C26.8261 16.6987 27.0928 17.0994 27.7806 17.8271L28.043 18.1028L28.5298 18.1645C28.7965 18.1987 29.0737 18.2432 29.1457 18.2655C29.2642 18.3015 29.279 18.2861 29.315 18.0686C29.3257 17.9719 29.3499 17.8766 29.387 17.7843H29.3891ZM39.861 9.46237C40.2843 9.42984 40.3562 9.37676 40.1721 9.22607C40.0621 9.13532 39.7933 9.12504 39.5795 9.20552C39.4356 9.25861 39.406 9.24662 39.1838 9.05141C38.951 8.84251 38.9383 8.83737 38.6462 8.86648C38.3816 8.89217 38.3414 8.8836 38.3076 8.79627C38.2026 8.65403 38.0745 8.52387 37.9266 8.40929C37.7396 8.2354 37.5037 8.10035 37.2388 8.01545C36.7245 7.85791 36.4388 7.87504 35.9499 8.0925C34.5383 8.71751 34.5954 8.71066 33.2346 8.42983C31.9584 8.16613 31.0039 7.90415 30.7012 7.73291C30.4473 7.59079 29.8991 7.44181 29.4462 7.39044C29.1076 7.35277 28.8875 7.4127 28.5658 7.63017L28.3965 7.74319L28.5489 7.96237C28.7647 8.2723 28.7436 8.28942 28.4176 8.06511C28.0727 7.82538 27.6621 7.66442 27.3912 7.66271C27.2028 7.66271 26.6399 7.85962 26.5721 7.95038C26.5531 7.97435 26.7266 8.00689 26.9552 8.02401C27.1986 8.04113 27.5288 8.1062 27.751 8.18326C28.3266 8.38189 28.6272 8.44696 29.1563 8.49148C29.734 8.536 30.788 8.48292 30.9086 8.40072C30.97 8.35792 31.152 8.35107 31.5351 8.37504C32.0388 8.40586 32.2483 8.44353 33.4462 8.70552C34.1404 8.85963 34.6272 8.84764 35.4547 8.661C35.8356 8.57538 36.3139 8.48977 36.515 8.47264C36.8536 8.44353 36.9213 8.45552 37.4462 8.64901C38.2928 8.95723 38.7372 9.15586 38.9869 9.33395C39.2346 9.50518 39.2621 9.51032 39.861 9.46409V9.46237ZM35.1457 8.29113L35.6494 8.0788L35.6388 7.65928C35.6305 7.37652 35.615 7.09392 35.5922 6.81167L35.5563 6.38188L35.0526 6.69695C34.7541 6.8853 34.4642 7.02572 34.3351 7.04455C33.9732 7.10106 32.1848 7.04455 32.0155 6.97263C31.7952 6.8391 31.5891 6.69074 31.3996 6.52914L30.934 6.15242L30.9277 6.37503C30.9277 6.49489 30.9044 6.7038 30.8769 6.83393C30.8303 7.07024 30.8346 7.07709 31.152 7.40414C31.3298 7.58736 31.4737 7.75004 31.4737 7.76716C31.4737 7.8973 33.861 8.49661 34.3986 8.50346C34.57 8.50346 34.788 8.44182 35.1457 8.29113ZM34.1891 6.76887C34.7859 6.6764 35.0779 6.32708 35.2959 5.44523C35.5287 4.49659 35.6473 3.00515 35.5351 2.36816C35.4356 1.79624 34.6483 1.53767 33.1309 1.57877C32.1912 1.60446 31.8018 1.6798 31.4822 1.89898C31.2832 2.03596 31.279 2.04795 31.1922 2.68152C31.0229 3.89899 31.2684 5.63359 31.7002 6.28599C31.9055 6.59934 32.0896 6.71407 32.4727 6.76544C32.9023 6.82537 33.8166 6.82709 34.1891 6.76887Z" fill="white" stroke="white" stroke-width="0.3"/>
</svg>
