<svg width="180" height="38" viewBox="0 0 180 38" fill="none" xmlns="http://www.w3.org/2000/svg">
<path d="M85.4471 15.625C84.9471 14.3083 84.1138 13.2583 82.9471 12.475C81.7971 11.6917 80.4304 11.3 78.8471 11.3C77.4638 11.3 76.2138 11.625 75.0971 12.275C73.9804 12.925 73.0971 13.85 72.4471 15.05C71.7971 16.25 71.4721 17.65 71.4721 19.25C71.4721 20.85 71.7971 22.25 72.4471 23.45C73.0971 24.65 73.9804 25.575 75.0971 26.225C76.2138 26.8583 77.4638 27.175 78.8471 27.175C80.1804 27.175 81.3888 26.875 82.4721 26.275C83.5554 25.675 84.4221 24.825 85.0721 23.725C85.7221 22.6083 86.0804 21.3083 86.1471 19.825H78.3221V18.875H87.2971V19.625C87.2471 21.2583 86.8554 22.725 86.1221 24.025C85.3888 25.325 84.3888 26.3417 83.1221 27.075C81.8554 27.8083 80.4304 28.175 78.8471 28.175C77.2304 28.175 75.7721 27.8 74.4721 27.05C73.1721 26.2833 72.1554 25.225 71.4221 23.875C70.6888 22.5083 70.3221 20.9667 70.3221 19.25C70.3221 17.5167 70.6888 15.975 71.4221 14.625C72.1554 13.2583 73.1721 12.2 74.4721 11.45C75.7721 10.6833 77.2304 10.3 78.8471 10.3C80.7304 10.3 82.3554 10.775 83.7221 11.725C85.1054 12.6583 86.1138 13.9583 86.7471 15.625H85.4471ZM95.2248 28.2C93.7082 28.2 92.4665 27.8667 91.4998 27.2C90.5498 26.5333 90.0165 25.5833 89.8998 24.35H91.0498C91.1332 25.2333 91.5332 25.9333 92.2498 26.45C92.9832 26.9667 93.9748 27.225 95.2248 27.225C96.2582 27.225 97.0748 26.9667 97.6748 26.45C98.2915 25.9167 98.5998 25.2667 98.5998 24.5C98.5998 23.9667 98.4332 23.5333 98.0998 23.2C97.7832 22.85 97.3832 22.5833 96.8998 22.4C96.4165 22.2167 95.7582 22.0167 94.9248 21.8C93.9248 21.5333 93.1165 21.275 92.4998 21.025C91.8832 20.7583 91.3582 20.3667 90.9248 19.85C90.4915 19.3333 90.2748 18.6417 90.2748 17.775C90.2748 17.1417 90.4665 16.5583 90.8498 16.025C91.2332 15.475 91.7665 15.0417 92.4498 14.725C93.1332 14.4083 93.9082 14.25 94.7748 14.25C96.1915 14.25 97.3332 14.6083 98.1998 15.325C99.0832 16.025 99.5582 17 99.6248 18.25H98.4998C98.4498 17.35 98.0998 16.6167 97.4498 16.05C96.7998 15.4833 95.8998 15.2 94.7498 15.2C93.7832 15.2 92.9832 15.45 92.3498 15.95C91.7165 16.45 91.3998 17.0583 91.3998 17.775C91.3998 18.4083 91.5748 18.925 91.9248 19.325C92.2915 19.7083 92.7332 20.0083 93.2498 20.225C93.7832 20.425 94.4832 20.6417 95.3498 20.875C96.2998 21.125 97.0582 21.375 97.6248 21.625C98.2082 21.8583 98.6998 22.2083 99.0998 22.675C99.4998 23.125 99.6998 23.7333 99.6998 24.5C99.6998 25.2 99.5082 25.8333 99.1248 26.4C98.7415 26.9667 98.2082 27.4083 97.5248 27.725C96.8415 28.0417 96.0748 28.2 95.2248 28.2ZM102.427 21.2C102.427 19.8 102.702 18.575 103.252 17.525C103.818 16.475 104.593 15.6667 105.577 15.1C106.577 14.5333 107.71 14.25 108.977 14.25C110.41 14.25 111.627 14.6 112.627 15.3C113.627 16 114.327 16.8917 114.727 17.975V14.425H115.852V28H114.727V24.425C114.327 25.525 113.618 26.4333 112.602 27.15C111.602 27.85 110.393 28.2 108.977 28.2C107.71 28.2 106.577 27.9167 105.577 27.35C104.593 26.7667 103.818 25.95 103.252 24.9C102.702 23.8333 102.427 22.6 102.427 21.2ZM114.727 21.2C114.727 20.0167 114.477 18.975 113.977 18.075C113.493 17.1583 112.827 16.4583 111.977 15.975C111.127 15.475 110.177 15.225 109.127 15.225C108.027 15.225 107.06 15.4667 106.227 15.95C105.393 16.4167 104.743 17.1 104.277 18C103.81 18.9 103.577 19.9667 103.577 21.2C103.577 22.4333 103.81 23.5 104.277 24.4C104.743 25.3 105.393 25.9917 106.227 26.475C107.077 26.9583 108.043 27.2 109.127 27.2C110.177 27.2 111.127 26.9583 111.977 26.475C112.843 25.975 113.518 25.275 114.002 24.375C114.485 23.4583 114.727 22.4 114.727 21.2ZM121.073 18C121.456 16.9 122.148 16 123.148 15.3C124.165 14.6 125.39 14.25 126.823 14.25C128.09 14.25 129.215 14.5333 130.198 15.1C131.198 15.6667 131.973 16.475 132.523 17.525C133.09 18.575 133.373 19.8 133.373 21.2C133.373 22.6 133.09 23.8333 132.523 24.9C131.973 25.95 131.198 26.7667 130.198 27.35C129.215 27.9167 128.09 28.2 126.823 28.2C125.406 28.2 124.19 27.85 123.173 27.15C122.173 26.4333 121.473 25.5333 121.073 24.45V34.4H119.948V14.425H121.073V18ZM132.223 21.2C132.223 19.9667 131.99 18.9 131.523 18C131.056 17.1 130.398 16.4167 129.548 15.95C128.715 15.4667 127.748 15.225 126.648 15.225C125.598 15.225 124.648 15.475 123.798 15.975C122.948 16.4583 122.281 17.1583 121.798 18.075C121.315 18.975 121.073 20.0167 121.073 21.2C121.073 22.4 121.315 23.4583 121.798 24.375C122.281 25.275 122.948 25.975 123.798 26.475C124.648 26.9583 125.598 27.2 126.648 27.2C127.748 27.2 128.715 26.9583 129.548 26.475C130.398 25.9917 131.056 25.3 131.523 24.4C131.99 23.5 132.223 22.4333 132.223 21.2Z" fill="white"/>
<mask id="path-2-inside-1_9_52" fill="white">
<path d="M31.7819 33.4443C30.9322 33.3791 30.036 33.1981 29.5414 32.995C29.1956 32.8343 29.0016 32.6194 29.0004 32.3955C29.0004 32.174 29.2463 31.8539 29.6616 31.5388C29.9006 31.3586 30.0922 31.1665 30.2327 30.9664C30.3147 30.8273 30.495 30.5971 30.6344 30.4531L30.883 30.1921L30.9486 28.4245C30.9841 27.452 31.0497 26.5461 31.0934 26.4082C31.2348 26.004 31.4664 25.6073 31.7847 25.224L32.0142 24.9668L31.6781 24.8769C31.3639 24.792 31.1043 24.6701 30.0934 24.1285C28.8447 23.4638 27.2053 23.0994 24.8801 22.9714C24.1165 22.9389 23.3512 22.9155 22.5849 22.9012C19.1641 22.8298 17.2132 22.5085 15.4536 21.7294C14.1421 21.1459 13.4563 20.4676 13.1776 19.4693C12.8005 18.1178 12.3852 17.4223 11.6202 16.8597C11.4327 16.7213 11.2158 16.5915 10.9726 16.472L10.6611 16.3329L9.97804 16.5298C9.59825 16.6382 9.07911 16.7797 8.82227 16.8437C7.97374 17.0542 7.15601 17.289 6.37411 17.5466C4.47242 18.1707 2.38766 18.9523 1.24555 19.4693C0.731877 19.7008 0.461378 19.798 0.352085 19.7918C-0.434822 19.7389 0.171752 18.2162 1.43408 17.0714C3.05981 15.598 5.78666 14.2366 8.95342 13.3158C11.5491 12.5613 15.7432 11.5236 17.6859 11.158C21.1286 10.5093 25.5878 9.80639 28.6425 9.43095C29.2873 9.35217 29.6835 9.28077 29.9458 9.19707C30.5469 9.00873 31.1316 8.9201 31.8065 8.91395C32.3694 8.91026 32.424 8.90164 32.9678 8.74162C33.6098 8.55451 33.7929 8.5422 34.4377 8.64314L34.8585 8.71084L35.3695 8.55451L35.8831 8.39818L36.6209 8.40557C37.181 8.41049 37.4378 8.39695 37.6783 8.34894C37.9897 8.2874 38.0007 8.28001 38.0881 8.04736C38.2848 7.54759 38.3067 7.29648 38.1892 6.99613C38.0307 6.5973 38.0171 5.04631 38.1674 4.74472C38.3286 4.41729 38.4324 4.35205 38.9734 4.23142C39.7849 4.05047 40.3915 4 41.7931 4C43.4981 4 44.3615 4.1034 45.0009 4.38159C45.5801 4.63517 45.6785 5.21864 45.3752 6.5973C45.2003 7.38757 45.1785 7.61037 45.2249 8.1286C45.2522 8.46219 45.2987 8.77362 45.326 8.81916C45.3725 8.89918 45.4135 8.9041 46.0337 8.91026C46.6375 8.91518 46.7441 8.92749 47.3206 9.06412C47.878 9.1946 48.2933 9.35217 48.3753 9.46418C48.3917 9.4888 48.4846 9.49003 48.6594 9.46788C48.9819 9.42479 49.2742 9.47157 49.5037 9.60205C49.6431 9.68206 49.7305 9.69806 50.0584 9.69806C50.4956 9.69806 50.6486 9.74484 51.012 9.9861C51.1828 10.0939 51.415 10.179 51.6841 10.2323C52.2852 10.3677 53.0913 10.7419 53.4055 11.0373C53.8836 11.4829 53.9847 11.9938 53.6814 12.4579C53.5722 12.6302 53.5722 12.6363 53.7962 12.805C54.2716 13.162 54.4438 13.6051 54.2525 13.9793L54.1405 14.2009L54.4629 14.3449C56.0558 15.0625 55.8209 16.2295 53.8754 17.2746C53.6678 17.3853 53.4246 17.5601 53.3344 17.666C52.9519 18.1128 52.5311 18.4267 51.971 18.6852L51.4136 18.9437H50.8289C50.2551 18.9437 49.4491 18.8576 48.9573 18.7406C48.7523 18.6926 48.7387 18.6938 48.7797 18.7529C48.9163 18.9646 49.2278 19.8238 49.3398 20.2978C49.5119 21.0289 49.46 22.0925 49.2305 22.5492C49.0673 22.8875 48.7939 23.2132 48.419 23.5155C48.2113 23.6706 48.1922 23.7063 48.2387 23.8897C48.3042 24.1568 48.1649 24.5987 47.9245 24.8904C47.6403 25.2314 47.5337 25.3914 47.4709 25.5625C47.4162 25.7127 47.4162 25.7139 47.6512 25.7139C47.9654 25.7139 48.1294 25.7976 48.1294 25.9589C48.1294 26.0328 47.9928 26.4193 47.8234 26.8206C47.3561 27.9383 47.3261 28.0675 47.3206 29.1532C47.3124 30.2721 47.3097 30.2635 47.878 30.4297L49.1458 30.8015C50.2367 31.1289 51.4063 31.3998 52.6322 31.609C54.4164 31.9265 54.6623 32.0078 54.6623 32.2786C54.6623 32.3955 54.6104 32.4423 54.3891 32.5383C53.7006 32.8374 52.3563 32.9039 49.6431 32.7747C48.2353 32.7143 46.8221 32.6835 45.408 32.6823C41.6784 32.6577 41.1265 32.5999 40.6401 32.1801C40.3614 31.9401 40.4106 31.6262 40.8013 31.1116C40.9751 30.8853 41.1237 30.6553 41.2467 30.4223C41.5008 29.8622 41.3286 29.2 40.733 28.4479L40.2275 27.8102C39.7193 27.1603 39.4461 25.9712 39.7466 25.7029C39.8013 25.6536 39.8942 25.6413 40.1455 25.6487L40.4707 25.661L40.733 25.4099C40.9379 25.2154 41.1647 25.0849 41.7713 24.8092L42.55 24.4571L42.5117 24.2331C42.4735 24.0189 41.8478 22.9689 41.7576 22.9714C41.733 22.9714 41.5582 23.0797 41.3642 23.2114C40.8997 23.529 39.8559 24.0214 39.2712 24.1986C39.0144 24.2774 38.8012 24.3673 38.8012 24.3981C38.7958 24.5248 38.5444 24.7797 38.2521 24.9581C37.9624 25.1342 37.9433 25.1588 37.987 25.3151C38.0526 25.5404 37.8969 26.2666 37.7029 26.6445C37.5316 26.9275 37.2963 27.2018 37.0007 27.4631C36.2629 28.1524 35.711 28.7655 35.5662 29.051C35.4668 29.3252 35.4048 29.6019 35.3804 29.8795C35.3449 30.2044 35.2711 30.5245 35.2164 30.5897C35.1454 30.682 35.1427 30.7522 35.211 30.8925C35.2602 30.9935 35.293 31.22 35.2848 31.3972C35.2738 31.6434 35.3175 31.8034 35.476 32.0915C35.7493 32.5802 35.8094 32.8879 35.6755 33.0713C35.5935 33.1846 35.5006 33.2301 35.2219 33.2929C34.5744 33.4406 32.7656 33.5206 31.7819 33.4443ZM34.3776 33.0529C34.752 33.0048 35.0662 32.8571 35.0662 32.7291C35.0662 32.6737 34.9569 32.5039 34.8285 32.3524C34.5826 32.0693 34.1345 31.3221 34.1345 31.1978C34.1345 31.1313 34.1454 31.1301 34.3667 31.183L34.5989 31.2384L34.5935 31.103C34.5661 30.9794 34.5074 30.8576 34.4186 30.7399C34.2164 30.4654 34.1891 30.4592 32.9049 30.4272L32.0251 30.4063L31.7109 30.5454C31.5306 30.6259 31.3752 30.717 31.2491 30.8162C31.107 30.943 31.0524 31.1301 31.1453 31.1732C31.1672 31.1843 31.3775 31.1732 31.6098 31.1486C31.7478 31.1301 31.8897 31.1181 32.0333 31.1129C32.0333 31.119 31.7983 31.2027 31.5087 31.2988C30.2245 31.7271 29.7791 31.993 29.7791 32.3291C29.7791 32.6811 30.5059 32.9544 31.659 33.0356C32.4513 33.0922 33.9924 33.1021 34.3776 33.0529ZM51.7388 32.4805C52.0585 32.3057 52.0202 32.1296 51.6131 31.9265C51.3788 31.8188 51.1098 31.7275 50.8152 31.6557C50.5075 31.5828 50.2083 31.5027 49.919 31.4157C49.6841 31.3418 48.9299 31.1449 48.2469 30.9726C47.7572 30.8547 47.2769 30.729 46.8069 30.5959L46.6157 30.5282V29.2049C46.6157 27.9001 46.6102 27.8841 46.4572 27.9026C45.7113 27.9949 44.4735 28.0367 42.8997 28.0232L41.2084 28.0109L41.4489 28.2792C41.9052 28.7913 42.1429 29.4733 42.1401 30.2561C42.1401 30.5491 42.1019 30.6574 41.9407 30.8618C41.858 30.9634 41.7788 31.0656 41.703 31.1683C41.6729 31.2114 41.7904 31.2421 42.233 31.3012C42.5473 31.3443 43.0227 31.3886 43.2904 31.4022L43.7768 31.4243L43.7276 31.6471C43.673 31.8995 43.7358 32.1617 43.8752 32.2454C43.9544 32.2921 44.2823 32.3094 45.7605 32.3414C46.8862 32.366 48.1048 32.4177 49.0638 32.4817C49.8972 32.5371 50.7934 32.5851 51.0584 32.5863C51.5011 32.59 51.5502 32.5826 51.7388 32.4805ZM34.6563 30.2266C34.6973 30.2143 34.7574 29.9533 34.7847 29.6468C34.8694 28.7852 34.9405 28.6621 35.905 27.6908C36.6892 26.8981 37.1099 26.1583 37.0717 25.6315L37.0498 25.3188L36.7575 25.4493C36.1372 25.7262 36.5635 25.2893 37.2957 24.8991C37.8504 24.6036 38.0417 24.4374 38.1346 24.1765C38.1728 24.0706 38.263 24.0165 38.6264 23.8934C39.998 23.4194 40.9953 22.8224 41.6401 22.0925C41.7931 21.9189 42.1811 21.3293 42.5008 20.7803C43.0965 19.7635 43.4161 19.329 43.703 19.1394C43.8123 19.0668 43.8533 19.0557 43.826 19.1037C43.662 19.393 43.6074 19.51 43.4708 19.8879C43.3833 20.123 43.2249 20.5821 43.121 20.9071C42.9079 21.5619 42.6948 21.9854 42.4079 22.3153L42.2166 22.5344L42.7331 23.1314C43.2604 23.7432 43.5063 24.1839 43.5582 24.6147L43.5855 24.851L43.1648 24.8904C42.618 24.935 42.131 25.0736 41.8068 25.277C41.4352 25.5108 41.2385 25.7053 41.3341 25.7496C41.3751 25.7681 41.8997 25.8112 42.4953 25.842C43.4298 25.8912 43.7795 25.8937 45.0063 25.858C45.5359 25.8471 46.0639 25.8241 46.5884 25.789C46.7031 25.7706 46.8151 25.6647 47.0091 25.3914C47.4518 24.7636 47.5365 24.5384 47.4846 24.0989L47.4408 23.7087L47.6649 23.5795C48.1895 23.2791 48.5939 22.74 48.7578 22.1146C48.9627 21.3441 48.5939 19.7315 47.8971 18.3455C47.5693 17.6894 47.4326 17.2942 47.4326 17.0037V16.7489L46.9053 16.7736C45.0282 16.8671 42.7576 16.8413 41.3642 16.712C40.61 16.6431 38.6974 16.392 38.2766 16.307L37.9515 16.2418L37.905 16.408C37.8799 16.5015 37.8435 16.5944 37.7958 16.6862C37.7329 16.7908 37.7575 16.8117 38.1537 16.989C38.6455 17.2105 38.7985 17.3287 38.7985 17.4838C38.7985 17.5761 38.6756 17.6537 38.0799 17.9356C37.6427 18.1424 37.0854 18.3603 36.6591 18.4883L35.9596 18.7L35.67 19.1628C34.5935 20.8738 34.3913 22.4236 35.0962 23.5376L35.2711 23.8158L34.9296 24.0066C33.6454 24.7353 32.8912 25.288 32.7765 25.5945C32.7546 25.6561 32.6453 25.8592 32.536 26.0463C32.2628 26.5214 32.0497 27.2194 31.9568 27.974C31.8868 28.6061 31.792 29.2377 31.6726 29.8684L31.6262 30.0555L32.159 30.1294C32.4541 30.17 32.9049 30.2192 33.1617 30.2364C33.6372 30.2709 34.5252 30.2648 34.6591 30.2266H34.6563ZM45.02 27.5825C45.8479 27.5604 46.6075 27.5013 46.755 27.4471C46.8179 27.425 46.8916 27.324 46.919 27.2255L46.9654 27.0434L46.3097 27.1086C45.7886 27.154 45.2622 27.1861 44.7331 27.2046C43.4734 27.2297 42.2114 27.2132 40.957 27.1554C40.5417 27.1271 40.539 27.1283 40.6756 27.3733C40.7767 27.5579 40.7986 27.5628 41.8915 27.601C42.6183 27.6256 43.6238 27.6207 45.02 27.5825ZM44.3233 26.7455C45.4053 26.7049 46.766 26.6002 47.0283 26.5362C47.113 26.5153 47.1949 26.4451 47.225 26.3651L47.3233 26.1091L47.3725 25.9872L47.1102 26.0118C45.9271 26.1238 45.0282 26.1571 43.2303 26.1571C41.4844 26.1571 41.2849 26.1497 40.8259 26.0795C40.6475 26.045 40.4569 26.025 40.263 26.0204C40.1865 26.0414 40.1811 26.3159 40.2494 26.5067C40.2904 26.6236 40.3313 26.6433 40.5909 26.6765C41.4024 26.775 42.7658 26.8009 44.3233 26.7442V26.7455ZM24.5167 22.4088C27.249 22.0568 30.8229 21.0093 33.7437 19.7044C34.7 19.2761 34.8093 19.2158 34.9378 19.0274L35.1126 18.7825C35.1317 18.7628 34.9596 18.7271 34.7356 18.7025C34.1454 18.6384 33.7055 18.4883 33.7 18.3479C33.7 18.2667 33.5907 18.1855 33.2902 18.034C32.7792 17.778 32.6535 17.6672 32.5989 17.4223L32.5552 17.2278L31.965 17.0333C31.6262 16.9225 30.424 16.6246 29.1562 16.3378C28.1897 16.1248 27.2427 15.8945 26.3173 15.6472C25.2517 15.3223 24.5331 14.9382 24.1314 14.4815C24.0522 14.388 23.9593 14.3117 23.9265 14.3117C23.8363 14.3117 21.4401 15.358 20.4128 15.8467C17.8881 17.0493 16.1421 18.0931 15.0465 19.0594C14.7733 19.2995 14.4727 19.5826 14.3853 19.6884L14.2213 19.8817L14.4208 20.2017C14.5301 20.3778 14.776 20.6609 14.9672 20.8295C15.6394 21.4253 16.4454 21.786 17.7651 22.0789C19.1859 22.3953 20.4428 22.5049 22.5467 22.4938C23.6833 22.4876 24.0085 22.4753 24.5167 22.4088ZM2.95052 18.1953C4.74565 17.4789 7.22113 16.6935 10.2567 15.8787C12.2431 15.3457 19.91 13.6174 23.4429 12.9071C24.0823 12.7779 24.6615 12.6597 24.7271 12.6425C24.7899 12.6265 24.9757 12.4209 25.1397 12.1883C25.8938 11.1186 26.2654 10.9069 27.6206 10.769C27.7927 10.7518 27.8337 10.7271 27.8337 10.6471C27.8337 10.5117 28.0469 10.1867 28.2299 10.0427C28.3665 9.93194 28.3693 9.92579 28.2436 9.94179C28.1698 9.95287 27.7244 10.0107 27.2517 10.0723C20.7488 10.9179 15.0601 12.0418 10.1474 13.4475C4.90139 14.9493 1.89038 16.7465 1.01331 18.8994L0.94773 19.0594L1.58163 18.7751C1.92863 18.6187 2.54614 18.3566 2.95052 18.1953ZM51.2497 18.6015C51.7688 18.4809 52.5803 17.927 52.8809 17.4912C52.9704 17.3366 53.141 17.1939 53.3782 17.0751C54.176 16.6812 54.829 15.9611 54.8318 15.47C54.8318 14.7068 53.8782 14.4126 52.4738 14.7413C52.2989 14.7819 52.1432 14.809 52.1268 14.8003C52.0475 14.7646 52.4464 14.5911 52.9191 14.4557C53.5558 14.271 53.676 14.1603 53.676 13.759C53.676 13.4254 53.4875 13.1521 53.0612 12.8567C52.8699 12.7274 52.7934 12.6388 52.8235 12.5883L53.0202 12.2634C53.2825 11.8362 53.1869 11.3475 52.7798 11.0361C52.1595 10.5622 51.3972 10.3308 50.3371 10.2951L49.7223 10.2741L50.0885 10.4551C51.1595 10.9832 51.6814 11.6405 51.4765 12.203C51.3699 12.4886 51.2661 12.5477 50.6486 12.661L50.2934 12.7262L50.3344 12.9465C50.4054 13.3097 50.2688 13.5719 49.7551 14.0605C49.501 14.3043 49.307 14.5234 49.3261 14.5468C49.3944 14.6292 50.0912 14.7868 50.6458 14.8471L51.1923 14.9062L50.8508 14.9554C50.4109 15.0207 50.3098 15.1105 50.307 15.4441C50.307 15.7457 50.4027 15.87 50.8999 16.2024C51.1185 16.3476 51.2688 16.4941 51.2934 16.5815C51.3344 16.7182 51.3207 16.7268 51.0748 16.7674C50.798 16.801 50.5141 16.8217 50.2278 16.8289C49.225 16.8573 49.1485 16.8696 48.7032 17.0628C48.2933 17.2389 48.2851 17.2487 48.2851 17.4407C48.2851 17.7054 48.5037 18.2347 48.6458 18.3073C48.8207 18.3972 49.8371 18.6212 50.2305 18.6557C50.5737 18.6927 50.935 18.6735 51.2497 18.6015ZM36.4678 18.2396C37.1209 18.0094 37.6291 17.7792 37.9214 17.5811C38.099 17.4604 38.11 17.437 38.0198 17.3386C37.8777 17.1822 36.8968 16.7846 36.3504 16.6652C35.9881 16.5906 35.6032 16.5408 35.2083 16.5175L34.5361 16.4757L34.1153 16.2393C33.2574 15.7593 32.7765 15.3863 32.0879 14.6612C31.4978 14.0433 30.9704 13.6826 30.1398 13.3294C29.7983 13.1841 29.5469 13.0647 29.5769 13.0647C29.6097 13.0647 30.0168 13.1546 30.4868 13.2654C31.2737 13.4512 31.3639 13.4648 31.7191 13.4451C32.9896 13.3761 34.1044 12.7176 34.517 11.7956C34.6345 11.5322 34.864 11.2675 35.1126 11.11C35.1236 11.1038 35.6099 11.2515 36.1919 11.4386C37.6509 11.9064 37.9734 11.9753 38.8012 11.9901C39.3532 11.9999 39.6592 11.9802 40.6374 11.8744C42.7276 11.6454 44.9927 11.5519 46.3752 11.6368C47.1539 11.6848 48.266 11.8375 49.1075 12.0135C49.93 12.1858 50.0884 12.1957 50.3562 12.0898C50.5748 12.0036 50.5775 11.9913 50.5748 11.6688C50.5693 11.1937 50.1813 10.6791 49.5912 10.3726C49.2906 10.2138 48.4573 9.9541 47.6239 9.75592C47.3236 9.68493 47.0258 9.61188 46.7304 9.53681C46.3424 9.43464 45.8861 9.44695 44.6757 9.59097C43.2686 9.75715 42.8943 9.75469 41.2795 9.56881C39.916 9.41125 39.8259 9.40879 38.487 9.50357C37.7739 9.55404 35.9788 9.5245 35.3777 9.4531C35.078 9.41583 34.7817 9.37312 34.4897 9.32509C33.9705 9.23769 33.0634 9.22292 32.2437 9.28816C30.6043 9.41987 29.3638 9.81746 28.9157 10.3591C28.6862 10.6348 28.7163 10.7641 29.0305 10.8527C29.5141 10.9906 30.1671 11.3709 30.1671 11.5174C30.1671 11.5297 30.0141 11.4669 29.8256 11.3783C29.372 11.1641 28.9512 11.0693 28.4594 11.0693C28.1413 11.0725 27.8317 11.116 27.5659 11.1948C27.3001 11.2736 27.089 11.3846 26.9567 11.5149C26.8137 11.684 26.6924 11.8566 26.5933 12.0319C26.2927 12.5268 26.0304 12.7853 25.4675 13.1299C24.9593 13.4414 24.891 13.5805 25.0686 13.9313C25.5167 14.8163 26.2927 15.1758 29.5469 16.0067C31.2546 16.4424 32.1371 16.6874 32.7765 16.904C33.2656 17.0678 33.2792 17.0764 33.2355 17.2032C33.1344 17.49 33.5415 17.8063 34.3448 18.0587C34.5498 18.1227 34.6782 18.1904 34.6782 18.2347C34.6782 18.3233 35.2137 18.444 35.6154 18.444C35.834 18.444 36.0116 18.4021 36.4706 18.2396H36.4678ZM49.624 16.6221C50.8644 16.6382 50.9327 16.5988 50.2661 16.2516C49.572 15.8885 49.3835 15.5968 49.6376 15.2743L49.7387 15.1487L49.3043 15.0527C49.161 15.0181 49.0122 14.9884 48.8589 14.9641C48.7813 15.0906 48.7093 15.2178 48.6431 15.3457C48.4846 15.6411 48.2879 16.3993 48.2851 16.7243C48.2851 16.7526 48.3889 16.7403 48.572 16.6899C48.8234 16.6222 48.9545 16.6135 49.624 16.6221ZM45.4763 16.5914C46.2222 16.5729 46.9955 16.5471 47.1977 16.5348L47.5638 16.5126L47.6102 15.9562C47.6731 15.1684 47.9245 14.7031 48.684 13.9596C49.225 13.4303 49.4518 12.9662 49.3398 12.6228C49.2906 12.4726 49.2715 12.4628 48.8261 12.3754C48.0042 12.2286 47.1481 12.1241 46.2741 12.0639C45.4271 12.0086 42.9571 12.0406 42.0254 12.1193C41.6429 12.1513 40.9407 12.2178 40.468 12.2683C39.304 12.3914 38.6865 12.3754 37.8012 12.2006C36.9269 12.027 36.3695 11.8707 35.8421 11.6491C35.4296 11.4756 35.3913 11.4669 35.2793 11.5248C35.1973 11.5679 35.1509 11.6971 35.1236 11.9778C35.0853 12.4049 34.9432 12.6302 34.5224 12.9342C34.4284 12.9958 34.3496 13.0619 34.2875 13.1312C34.2875 13.146 34.6126 13.3109 35.0088 13.4955C36.3722 14.1356 37.0416 14.3006 38.1182 14.2637C38.4734 14.2513 38.7193 14.2563 38.7193 14.276C38.7193 14.3117 38.0253 14.5591 37.7329 14.628C37.6018 14.6588 37.569 14.6933 37.5908 14.7671L37.7548 15.2693C37.8531 15.5598 37.9296 15.6916 38.028 15.7309C38.2821 15.8294 39.6045 16.1372 40.4324 16.2873C41.5281 16.488 42.1183 16.5594 42.9571 16.5914C43.9763 16.6295 43.9981 16.6295 45.4763 16.5914ZM36.6509 16.0658C36.6728 16.0473 36.5908 15.7703 36.4597 15.4478C36.2875 15.0096 36.1919 14.8508 36.0853 14.8102C36.0034 14.7807 35.6126 14.6526 35.2137 14.5258C34.6988 14.3546 34.2088 14.1688 33.7465 13.9695L33.006 13.6445L32.618 13.7368L32.1972 13.839C32.2337 13.9144 32.2925 13.9873 32.3721 14.0556C32.4814 14.1701 32.7164 14.4532 32.8912 14.6834C33.3421 15.2853 33.6864 15.5734 34.5744 16.0965L34.9132 16.2947L35.5416 16.339C35.8859 16.3637 36.2438 16.3957 36.3367 16.4117C36.4897 16.4375 36.5088 16.4264 36.5553 16.2701C36.5691 16.2006 36.6003 16.1321 36.6482 16.0658H36.6509ZM50.1704 10.0833C50.7169 10.06 50.8098 10.0218 50.5721 9.91348C50.43 9.84824 50.083 9.84085 49.807 9.89871C49.6212 9.93687 49.583 9.92825 49.2961 9.78792C48.9955 9.63775 48.9791 9.63405 48.6021 9.65498C48.2605 9.67344 48.2086 9.66729 48.1649 9.60451C48.0294 9.50226 47.864 9.40869 47.6731 9.32632C47.4316 9.20132 47.1271 9.10423 46.7851 9.0432C46.1211 8.92995 45.7523 8.94226 45.1211 9.09859C43.2986 9.54789 43.3724 9.54296 41.6155 9.34109C39.9679 9.15152 38.7357 8.96319 38.345 8.84009C38.0171 8.73792 37.3094 8.63083 36.7247 8.5939C36.2875 8.56682 36.0034 8.6099 35.588 8.76623L35.3695 8.84748L35.5662 9.00504C35.8449 9.22784 35.8176 9.24015 35.3968 9.0789C34.9514 8.90656 34.4213 8.79085 34.0716 8.78962C33.8284 8.78962 33.1016 8.93118 33.0142 8.99642C32.9896 9.01365 33.2137 9.03704 33.5087 9.04935C33.823 9.06166 34.2492 9.10844 34.5361 9.16383C35.2793 9.30662 35.6673 9.3534 36.3504 9.3854C37.0963 9.41741 38.457 9.37925 38.6127 9.32016C38.692 9.28939 38.9269 9.28446 39.4215 9.3017C40.0718 9.32385 40.3423 9.35093 41.8888 9.53927C42.785 9.65006 43.4134 9.64144 44.4817 9.50727C44.9736 9.44572 45.5911 9.38417 45.8506 9.37186C46.2878 9.35094 46.3752 9.35955 47.0528 9.49865C48.1458 9.72022 48.7196 9.86301 49.042 9.99103C49.3617 10.1141 49.3972 10.1178 50.1704 10.0846V10.0833ZM44.0828 9.24138L44.7331 9.08874L44.7194 8.78716C44.7087 8.58389 44.6887 8.38074 44.6593 8.17784L44.6129 7.86887L43.9626 8.09537C43.5773 8.23077 43.203 8.33171 43.0363 8.34525C42.5691 8.38587 40.2603 8.34525 40.0417 8.29355C39.7572 8.19755 39.4913 8.0909 39.2466 7.97473L38.6455 7.70393L38.6373 7.86395C38.6373 7.95012 38.6073 8.10029 38.5717 8.19384C38.5116 8.36371 38.5171 8.36864 38.9269 8.60375C39.1564 8.73546 39.3422 8.8524 39.3422 8.86471C39.3422 8.95826 42.4243 9.38909 43.1183 9.39402C43.3396 9.39402 43.6211 9.3497 44.0828 9.24138ZM42.8478 8.14707C43.6183 8.0806 43.9954 7.82948 44.2768 7.19554C44.5774 6.5136 44.7304 5.44144 44.5856 4.98353C44.4571 4.57239 43.4407 4.38652 41.4817 4.41606C40.2685 4.43452 39.7658 4.48869 39.3532 4.64625C39.0963 4.74472 39.0909 4.75334 38.9789 5.20879C38.7603 6.084 39.0772 7.33095 39.6346 7.79994C39.8996 8.0252 40.1374 8.10768 40.6319 8.1446C41.1866 8.18769 42.3669 8.18892 42.8478 8.14707Z"/>
</mask>
<path d="M31.7819 33.4443C30.9322 33.3791 30.036 33.1981 29.5414 32.995C29.1956 32.8343 29.0016 32.6194 29.0004 32.3955C29.0004 32.174 29.2463 31.8539 29.6616 31.5388C29.9006 31.3586 30.0922 31.1665 30.2327 30.9664C30.3147 30.8273 30.495 30.5971 30.6344 30.4531L30.883 30.1921L30.9486 28.4245C30.9841 27.452 31.0497 26.5461 31.0934 26.4082C31.2348 26.004 31.4664 25.6073 31.7847 25.224L32.0142 24.9668L31.6781 24.8769C31.3639 24.792 31.1043 24.6701 30.0934 24.1285C28.8447 23.4638 27.2053 23.0994 24.8801 22.9714C24.1165 22.9389 23.3512 22.9155 22.5849 22.9012C19.1641 22.8298 17.2132 22.5085 15.4536 21.7294C14.1421 21.1459 13.4563 20.4676 13.1776 19.4693C12.8005 18.1178 12.3852 17.4223 11.6202 16.8597C11.4327 16.7213 11.2158 16.5915 10.9726 16.472L10.6611 16.3329L9.97804 16.5298C9.59825 16.6382 9.07911 16.7797 8.82227 16.8437C7.97374 17.0542 7.15601 17.289 6.37411 17.5466C4.47242 18.1707 2.38766 18.9523 1.24555 19.4693C0.731877 19.7008 0.461378 19.798 0.352085 19.7918C-0.434822 19.7389 0.171752 18.2162 1.43408 17.0714C3.05981 15.598 5.78666 14.2366 8.95342 13.3158C11.5491 12.5613 15.7432 11.5236 17.6859 11.158C21.1286 10.5093 25.5878 9.80639 28.6425 9.43095C29.2873 9.35217 29.6835 9.28077 29.9458 9.19707C30.5469 9.00873 31.1316 8.9201 31.8065 8.91395C32.3694 8.91026 32.424 8.90164 32.9678 8.74162C33.6098 8.55451 33.7929 8.5422 34.4377 8.64314L34.8585 8.71084L35.3695 8.55451L35.8831 8.39818L36.6209 8.40557C37.181 8.41049 37.4378 8.39695 37.6783 8.34894C37.9897 8.2874 38.0007 8.28001 38.0881 8.04736C38.2848 7.54759 38.3067 7.29648 38.1892 6.99613C38.0307 6.5973 38.0171 5.04631 38.1674 4.74472C38.3286 4.41729 38.4324 4.35205 38.9734 4.23142C39.7849 4.05047 40.3915 4 41.7931 4C43.4981 4 44.3615 4.1034 45.0009 4.38159C45.5801 4.63517 45.6785 5.21864 45.3752 6.5973C45.2003 7.38757 45.1785 7.61037 45.2249 8.1286C45.2522 8.46219 45.2987 8.77362 45.326 8.81916C45.3725 8.89918 45.4135 8.9041 46.0337 8.91026C46.6375 8.91518 46.7441 8.92749 47.3206 9.06412C47.878 9.1946 48.2933 9.35217 48.3753 9.46418C48.3917 9.4888 48.4846 9.49003 48.6594 9.46788C48.9819 9.42479 49.2742 9.47157 49.5037 9.60205C49.6431 9.68206 49.7305 9.69806 50.0584 9.69806C50.4956 9.69806 50.6486 9.74484 51.012 9.9861C51.1828 10.0939 51.415 10.179 51.6841 10.2323C52.2852 10.3677 53.0913 10.7419 53.4055 11.0373C53.8836 11.4829 53.9847 11.9938 53.6814 12.4579C53.5722 12.6302 53.5722 12.6363 53.7962 12.805C54.2716 13.162 54.4438 13.6051 54.2525 13.9793L54.1405 14.2009L54.4629 14.3449C56.0558 15.0625 55.8209 16.2295 53.8754 17.2746C53.6678 17.3853 53.4246 17.5601 53.3344 17.666C52.9519 18.1128 52.5311 18.4267 51.971 18.6852L51.4136 18.9437H50.8289C50.2551 18.9437 49.4491 18.8576 48.9573 18.7406C48.7523 18.6926 48.7387 18.6938 48.7797 18.7529C48.9163 18.9646 49.2278 19.8238 49.3398 20.2978C49.5119 21.0289 49.46 22.0925 49.2305 22.5492C49.0673 22.8875 48.7939 23.2132 48.419 23.5155C48.2113 23.6706 48.1922 23.7063 48.2387 23.8897C48.3042 24.1568 48.1649 24.5987 47.9245 24.8904C47.6403 25.2314 47.5337 25.3914 47.4709 25.5625C47.4162 25.7127 47.4162 25.7139 47.6512 25.7139C47.9654 25.7139 48.1294 25.7976 48.1294 25.9589C48.1294 26.0328 47.9928 26.4193 47.8234 26.8206C47.3561 27.9383 47.3261 28.0675 47.3206 29.1532C47.3124 30.2721 47.3097 30.2635 47.878 30.4297L49.1458 30.8015C50.2367 31.1289 51.4063 31.3998 52.6322 31.609C54.4164 31.9265 54.6623 32.0078 54.6623 32.2786C54.6623 32.3955 54.6104 32.4423 54.3891 32.5383C53.7006 32.8374 52.3563 32.9039 49.6431 32.7747C48.2353 32.7143 46.8221 32.6835 45.408 32.6823C41.6784 32.6577 41.1265 32.5999 40.6401 32.1801C40.3614 31.9401 40.4106 31.6262 40.8013 31.1116C40.9751 30.8853 41.1237 30.6553 41.2467 30.4223C41.5008 29.8622 41.3286 29.2 40.733 28.4479L40.2275 27.8102C39.7193 27.1603 39.4461 25.9712 39.7466 25.7029C39.8013 25.6536 39.8942 25.6413 40.1455 25.6487L40.4707 25.661L40.733 25.4099C40.9379 25.2154 41.1647 25.0849 41.7713 24.8092L42.55 24.4571L42.5117 24.2331C42.4735 24.0189 41.8478 22.9689 41.7576 22.9714C41.733 22.9714 41.5582 23.0797 41.3642 23.2114C40.8997 23.529 39.8559 24.0214 39.2712 24.1986C39.0144 24.2774 38.8012 24.3673 38.8012 24.3981C38.7958 24.5248 38.5444 24.7797 38.2521 24.9581C37.9624 25.1342 37.9433 25.1588 37.987 25.3151C38.0526 25.5404 37.8969 26.2666 37.7029 26.6445C37.5316 26.9275 37.2963 27.2018 37.0007 27.4631C36.2629 28.1524 35.711 28.7655 35.5662 29.051C35.4668 29.3252 35.4048 29.6019 35.3804 29.8795C35.3449 30.2044 35.2711 30.5245 35.2164 30.5897C35.1454 30.682 35.1427 30.7522 35.211 30.8925C35.2602 30.9935 35.293 31.22 35.2848 31.3972C35.2738 31.6434 35.3175 31.8034 35.476 32.0915C35.7493 32.5802 35.8094 32.8879 35.6755 33.0713C35.5935 33.1846 35.5006 33.2301 35.2219 33.2929C34.5744 33.4406 32.7656 33.5206 31.7819 33.4443ZM34.3776 33.0529C34.752 33.0048 35.0662 32.8571 35.0662 32.7291C35.0662 32.6737 34.9569 32.5039 34.8285 32.3524C34.5826 32.0693 34.1345 31.3221 34.1345 31.1978C34.1345 31.1313 34.1454 31.1301 34.3667 31.183L34.5989 31.2384L34.5935 31.103C34.5661 30.9794 34.5074 30.8576 34.4186 30.7399C34.2164 30.4654 34.1891 30.4592 32.9049 30.4272L32.0251 30.4063L31.7109 30.5454C31.5306 30.6259 31.3752 30.717 31.2491 30.8162C31.107 30.943 31.0524 31.1301 31.1453 31.1732C31.1672 31.1843 31.3775 31.1732 31.6098 31.1486C31.7478 31.1301 31.8897 31.1181 32.0333 31.1129C32.0333 31.119 31.7983 31.2027 31.5087 31.2988C30.2245 31.7271 29.7791 31.993 29.7791 32.3291C29.7791 32.6811 30.5059 32.9544 31.659 33.0356C32.4513 33.0922 33.9924 33.1021 34.3776 33.0529ZM51.7388 32.4805C52.0585 32.3057 52.0202 32.1296 51.6131 31.9265C51.3788 31.8188 51.1098 31.7275 50.8152 31.6557C50.5075 31.5828 50.2083 31.5027 49.919 31.4157C49.6841 31.3418 48.9299 31.1449 48.2469 30.9726C47.7572 30.8547 47.2769 30.729 46.8069 30.5959L46.6157 30.5282V29.2049C46.6157 27.9001 46.6102 27.8841 46.4572 27.9026C45.7113 27.9949 44.4735 28.0367 42.8997 28.0232L41.2084 28.0109L41.4489 28.2792C41.9052 28.7913 42.1429 29.4733 42.1401 30.2561C42.1401 30.5491 42.1019 30.6574 41.9407 30.8618C41.858 30.9634 41.7788 31.0656 41.703 31.1683C41.6729 31.2114 41.7904 31.2421 42.233 31.3012C42.5473 31.3443 43.0227 31.3886 43.2904 31.4022L43.7768 31.4243L43.7276 31.6471C43.673 31.8995 43.7358 32.1617 43.8752 32.2454C43.9544 32.2921 44.2823 32.3094 45.7605 32.3414C46.8862 32.366 48.1048 32.4177 49.0638 32.4817C49.8972 32.5371 50.7934 32.5851 51.0584 32.5863C51.5011 32.59 51.5502 32.5826 51.7388 32.4805ZM34.6563 30.2266C34.6973 30.2143 34.7574 29.9533 34.7847 29.6468C34.8694 28.7852 34.9405 28.6621 35.905 27.6908C36.6892 26.8981 37.1099 26.1583 37.0717 25.6315L37.0498 25.3188L36.7575 25.4493C36.1372 25.7262 36.5635 25.2893 37.2957 24.8991C37.8504 24.6036 38.0417 24.4374 38.1346 24.1765C38.1728 24.0706 38.263 24.0165 38.6264 23.8934C39.998 23.4194 40.9953 22.8224 41.6401 22.0925C41.7931 21.9189 42.1811 21.3293 42.5008 20.7803C43.0965 19.7635 43.4161 19.329 43.703 19.1394C43.8123 19.0668 43.8533 19.0557 43.826 19.1037C43.662 19.393 43.6074 19.51 43.4708 19.8879C43.3833 20.123 43.2249 20.5821 43.121 20.9071C42.9079 21.5619 42.6948 21.9854 42.4079 22.3153L42.2166 22.5344L42.7331 23.1314C43.2604 23.7432 43.5063 24.1839 43.5582 24.6147L43.5855 24.851L43.1648 24.8904C42.618 24.935 42.131 25.0736 41.8068 25.277C41.4352 25.5108 41.2385 25.7053 41.3341 25.7496C41.3751 25.7681 41.8997 25.8112 42.4953 25.842C43.4298 25.8912 43.7795 25.8937 45.0063 25.858C45.5359 25.8471 46.0639 25.8241 46.5884 25.789C46.7031 25.7706 46.8151 25.6647 47.0091 25.3914C47.4518 24.7636 47.5365 24.5384 47.4846 24.0989L47.4408 23.7087L47.6649 23.5795C48.1895 23.2791 48.5939 22.74 48.7578 22.1146C48.9627 21.3441 48.5939 19.7315 47.8971 18.3455C47.5693 17.6894 47.4326 17.2942 47.4326 17.0037V16.7489L46.9053 16.7736C45.0282 16.8671 42.7576 16.8413 41.3642 16.712C40.61 16.6431 38.6974 16.392 38.2766 16.307L37.9515 16.2418L37.905 16.408C37.8799 16.5015 37.8435 16.5944 37.7958 16.6862C37.7329 16.7908 37.7575 16.8117 38.1537 16.989C38.6455 17.2105 38.7985 17.3287 38.7985 17.4838C38.7985 17.5761 38.6756 17.6537 38.0799 17.9356C37.6427 18.1424 37.0854 18.3603 36.6591 18.4883L35.9596 18.7L35.67 19.1628C34.5935 20.8738 34.3913 22.4236 35.0962 23.5376L35.2711 23.8158L34.9296 24.0066C33.6454 24.7353 32.8912 25.288 32.7765 25.5945C32.7546 25.6561 32.6453 25.8592 32.536 26.0463C32.2628 26.5214 32.0497 27.2194 31.9568 27.974C31.8868 28.6061 31.792 29.2377 31.6726 29.8684L31.6262 30.0555L32.159 30.1294C32.4541 30.17 32.9049 30.2192 33.1617 30.2364C33.6372 30.2709 34.5252 30.2648 34.6591 30.2266H34.6563ZM45.02 27.5825C45.8479 27.5604 46.6075 27.5013 46.755 27.4471C46.8179 27.425 46.8916 27.324 46.919 27.2255L46.9654 27.0434L46.3097 27.1086C45.7886 27.154 45.2622 27.1861 44.7331 27.2046C43.4734 27.2297 42.2114 27.2132 40.957 27.1554C40.5417 27.1271 40.539 27.1283 40.6756 27.3733C40.7767 27.5579 40.7986 27.5628 41.8915 27.601C42.6183 27.6256 43.6238 27.6207 45.02 27.5825ZM44.3233 26.7455C45.4053 26.7049 46.766 26.6002 47.0283 26.5362C47.113 26.5153 47.1949 26.4451 47.225 26.3651L47.3233 26.1091L47.3725 25.9872L47.1102 26.0118C45.9271 26.1238 45.0282 26.1571 43.2303 26.1571C41.4844 26.1571 41.2849 26.1497 40.8259 26.0795C40.6475 26.045 40.4569 26.025 40.263 26.0204C40.1865 26.0414 40.1811 26.3159 40.2494 26.5067C40.2904 26.6236 40.3313 26.6433 40.5909 26.6765C41.4024 26.775 42.7658 26.8009 44.3233 26.7442V26.7455ZM24.5167 22.4088C27.249 22.0568 30.8229 21.0093 33.7437 19.7044C34.7 19.2761 34.8093 19.2158 34.9378 19.0274L35.1126 18.7825C35.1317 18.7628 34.9596 18.7271 34.7356 18.7025C34.1454 18.6384 33.7055 18.4883 33.7 18.3479C33.7 18.2667 33.5907 18.1855 33.2902 18.034C32.7792 17.778 32.6535 17.6672 32.5989 17.4223L32.5552 17.2278L31.965 17.0333C31.6262 16.9225 30.424 16.6246 29.1562 16.3378C28.1897 16.1248 27.2427 15.8945 26.3173 15.6472C25.2517 15.3223 24.5331 14.9382 24.1314 14.4815C24.0522 14.388 23.9593 14.3117 23.9265 14.3117C23.8363 14.3117 21.4401 15.358 20.4128 15.8467C17.8881 17.0493 16.1421 18.0931 15.0465 19.0594C14.7733 19.2995 14.4727 19.5826 14.3853 19.6884L14.2213 19.8817L14.4208 20.2017C14.5301 20.3778 14.776 20.6609 14.9672 20.8295C15.6394 21.4253 16.4454 21.786 17.7651 22.0789C19.1859 22.3953 20.4428 22.5049 22.5467 22.4938C23.6833 22.4876 24.0085 22.4753 24.5167 22.4088ZM2.95052 18.1953C4.74565 17.4789 7.22113 16.6935 10.2567 15.8787C12.2431 15.3457 19.91 13.6174 23.4429 12.9071C24.0823 12.7779 24.6615 12.6597 24.7271 12.6425C24.7899 12.6265 24.9757 12.4209 25.1397 12.1883C25.8938 11.1186 26.2654 10.9069 27.6206 10.769C27.7927 10.7518 27.8337 10.7271 27.8337 10.6471C27.8337 10.5117 28.0469 10.1867 28.2299 10.0427C28.3665 9.93194 28.3693 9.92579 28.2436 9.94179C28.1698 9.95287 27.7244 10.0107 27.2517 10.0723C20.7488 10.9179 15.0601 12.0418 10.1474 13.4475C4.90139 14.9493 1.89038 16.7465 1.01331 18.8994L0.94773 19.0594L1.58163 18.7751C1.92863 18.6187 2.54614 18.3566 2.95052 18.1953ZM51.2497 18.6015C51.7688 18.4809 52.5803 17.927 52.8809 17.4912C52.9704 17.3366 53.141 17.1939 53.3782 17.0751C54.176 16.6812 54.829 15.9611 54.8318 15.47C54.8318 14.7068 53.8782 14.4126 52.4738 14.7413C52.2989 14.7819 52.1432 14.809 52.1268 14.8003C52.0475 14.7646 52.4464 14.5911 52.9191 14.4557C53.5558 14.271 53.676 14.1603 53.676 13.759C53.676 13.4254 53.4875 13.1521 53.0612 12.8567C52.8699 12.7274 52.7934 12.6388 52.8235 12.5883L53.0202 12.2634C53.2825 11.8362 53.1869 11.3475 52.7798 11.0361C52.1595 10.5622 51.3972 10.3308 50.3371 10.2951L49.7223 10.2741L50.0885 10.4551C51.1595 10.9832 51.6814 11.6405 51.4765 12.203C51.3699 12.4886 51.2661 12.5477 50.6486 12.661L50.2934 12.7262L50.3344 12.9465C50.4054 13.3097 50.2688 13.5719 49.7551 14.0605C49.501 14.3043 49.307 14.5234 49.3261 14.5468C49.3944 14.6292 50.0912 14.7868 50.6458 14.8471L51.1923 14.9062L50.8508 14.9554C50.4109 15.0207 50.3098 15.1105 50.307 15.4441C50.307 15.7457 50.4027 15.87 50.8999 16.2024C51.1185 16.3476 51.2688 16.4941 51.2934 16.5815C51.3344 16.7182 51.3207 16.7268 51.0748 16.7674C50.798 16.801 50.5141 16.8217 50.2278 16.8289C49.225 16.8573 49.1485 16.8696 48.7032 17.0628C48.2933 17.2389 48.2851 17.2487 48.2851 17.4407C48.2851 17.7054 48.5037 18.2347 48.6458 18.3073C48.8207 18.3972 49.8371 18.6212 50.2305 18.6557C50.5737 18.6927 50.935 18.6735 51.2497 18.6015ZM36.4678 18.2396C37.1209 18.0094 37.6291 17.7792 37.9214 17.5811C38.099 17.4604 38.11 17.437 38.0198 17.3386C37.8777 17.1822 36.8968 16.7846 36.3504 16.6652C35.9881 16.5906 35.6032 16.5408 35.2083 16.5175L34.5361 16.4757L34.1153 16.2393C33.2574 15.7593 32.7765 15.3863 32.0879 14.6612C31.4978 14.0433 30.9704 13.6826 30.1398 13.3294C29.7983 13.1841 29.5469 13.0647 29.5769 13.0647C29.6097 13.0647 30.0168 13.1546 30.4868 13.2654C31.2737 13.4512 31.3639 13.4648 31.7191 13.4451C32.9896 13.3761 34.1044 12.7176 34.517 11.7956C34.6345 11.5322 34.864 11.2675 35.1126 11.11C35.1236 11.1038 35.6099 11.2515 36.1919 11.4386C37.6509 11.9064 37.9734 11.9753 38.8012 11.9901C39.3532 11.9999 39.6592 11.9802 40.6374 11.8744C42.7276 11.6454 44.9927 11.5519 46.3752 11.6368C47.1539 11.6848 48.266 11.8375 49.1075 12.0135C49.93 12.1858 50.0884 12.1957 50.3562 12.0898C50.5748 12.0036 50.5775 11.9913 50.5748 11.6688C50.5693 11.1937 50.1813 10.6791 49.5912 10.3726C49.2906 10.2138 48.4573 9.9541 47.6239 9.75592C47.3236 9.68493 47.0258 9.61188 46.7304 9.53681C46.3424 9.43464 45.8861 9.44695 44.6757 9.59097C43.2686 9.75715 42.8943 9.75469 41.2795 9.56881C39.916 9.41125 39.8259 9.40879 38.487 9.50357C37.7739 9.55404 35.9788 9.5245 35.3777 9.4531C35.078 9.41583 34.7817 9.37312 34.4897 9.32509C33.9705 9.23769 33.0634 9.22292 32.2437 9.28816C30.6043 9.41987 29.3638 9.81746 28.9157 10.3591C28.6862 10.6348 28.7163 10.7641 29.0305 10.8527C29.5141 10.9906 30.1671 11.3709 30.1671 11.5174C30.1671 11.5297 30.0141 11.4669 29.8256 11.3783C29.372 11.1641 28.9512 11.0693 28.4594 11.0693C28.1413 11.0725 27.8317 11.116 27.5659 11.1948C27.3001 11.2736 27.089 11.3846 26.9567 11.5149C26.8137 11.684 26.6924 11.8566 26.5933 12.0319C26.2927 12.5268 26.0304 12.7853 25.4675 13.1299C24.9593 13.4414 24.891 13.5805 25.0686 13.9313C25.5167 14.8163 26.2927 15.1758 29.5469 16.0067C31.2546 16.4424 32.1371 16.6874 32.7765 16.904C33.2656 17.0678 33.2792 17.0764 33.2355 17.2032C33.1344 17.49 33.5415 17.8063 34.3448 18.0587C34.5498 18.1227 34.6782 18.1904 34.6782 18.2347C34.6782 18.3233 35.2137 18.444 35.6154 18.444C35.834 18.444 36.0116 18.4021 36.4706 18.2396H36.4678ZM49.624 16.6221C50.8644 16.6382 50.9327 16.5988 50.2661 16.2516C49.572 15.8885 49.3835 15.5968 49.6376 15.2743L49.7387 15.1487L49.3043 15.0527C49.161 15.0181 49.0122 14.9884 48.8589 14.9641C48.7813 15.0906 48.7093 15.2178 48.6431 15.3457C48.4846 15.6411 48.2879 16.3993 48.2851 16.7243C48.2851 16.7526 48.3889 16.7403 48.572 16.6899C48.8234 16.6222 48.9545 16.6135 49.624 16.6221ZM45.4763 16.5914C46.2222 16.5729 46.9955 16.5471 47.1977 16.5348L47.5638 16.5126L47.6102 15.9562C47.6731 15.1684 47.9245 14.7031 48.684 13.9596C49.225 13.4303 49.4518 12.9662 49.3398 12.6228C49.2906 12.4726 49.2715 12.4628 48.8261 12.3754C48.0042 12.2286 47.1481 12.1241 46.2741 12.0639C45.4271 12.0086 42.9571 12.0406 42.0254 12.1193C41.6429 12.1513 40.9407 12.2178 40.468 12.2683C39.304 12.3914 38.6865 12.3754 37.8012 12.2006C36.9269 12.027 36.3695 11.8707 35.8421 11.6491C35.4296 11.4756 35.3913 11.4669 35.2793 11.5248C35.1973 11.5679 35.1509 11.6971 35.1236 11.9778C35.0853 12.4049 34.9432 12.6302 34.5224 12.9342C34.4284 12.9958 34.3496 13.0619 34.2875 13.1312C34.2875 13.146 34.6126 13.3109 35.0088 13.4955C36.3722 14.1356 37.0416 14.3006 38.1182 14.2637C38.4734 14.2513 38.7193 14.2563 38.7193 14.276C38.7193 14.3117 38.0253 14.5591 37.7329 14.628C37.6018 14.6588 37.569 14.6933 37.5908 14.7671L37.7548 15.2693C37.8531 15.5598 37.9296 15.6916 38.028 15.7309C38.2821 15.8294 39.6045 16.1372 40.4324 16.2873C41.5281 16.488 42.1183 16.5594 42.9571 16.5914C43.9763 16.6295 43.9981 16.6295 45.4763 16.5914ZM36.6509 16.0658C36.6728 16.0473 36.5908 15.7703 36.4597 15.4478C36.2875 15.0096 36.1919 14.8508 36.0853 14.8102C36.0034 14.7807 35.6126 14.6526 35.2137 14.5258C34.6988 14.3546 34.2088 14.1688 33.7465 13.9695L33.006 13.6445L32.618 13.7368L32.1972 13.839C32.2337 13.9144 32.2925 13.9873 32.3721 14.0556C32.4814 14.1701 32.7164 14.4532 32.8912 14.6834C33.3421 15.2853 33.6864 15.5734 34.5744 16.0965L34.9132 16.2947L35.5416 16.339C35.8859 16.3637 36.2438 16.3957 36.3367 16.4117C36.4897 16.4375 36.5088 16.4264 36.5553 16.2701C36.5691 16.2006 36.6003 16.1321 36.6482 16.0658H36.6509ZM50.1704 10.0833C50.7169 10.06 50.8098 10.0218 50.5721 9.91348C50.43 9.84824 50.083 9.84085 49.807 9.89871C49.6212 9.93687 49.583 9.92825 49.2961 9.78792C48.9955 9.63775 48.9791 9.63405 48.6021 9.65498C48.2605 9.67344 48.2086 9.66729 48.1649 9.60451C48.0294 9.50226 47.864 9.40869 47.6731 9.32632C47.4316 9.20132 47.1271 9.10423 46.7851 9.0432C46.1211 8.92995 45.7523 8.94226 45.1211 9.09859C43.2986 9.54789 43.3724 9.54296 41.6155 9.34109C39.9679 9.15152 38.7357 8.96319 38.345 8.84009C38.0171 8.73792 37.3094 8.63083 36.7247 8.5939C36.2875 8.56682 36.0034 8.6099 35.588 8.76623L35.3695 8.84748L35.5662 9.00504C35.8449 9.22784 35.8176 9.24015 35.3968 9.0789C34.9514 8.90656 34.4213 8.79085 34.0716 8.78962C33.8284 8.78962 33.1016 8.93118 33.0142 8.99642C32.9896 9.01365 33.2137 9.03704 33.5087 9.04935C33.823 9.06166 34.2492 9.10844 34.5361 9.16383C35.2793 9.30662 35.6673 9.3534 36.3504 9.3854C37.0963 9.41741 38.457 9.37925 38.6127 9.32016C38.692 9.28939 38.9269 9.28446 39.4215 9.3017C40.0718 9.32385 40.3423 9.35093 41.8888 9.53927C42.785 9.65006 43.4134 9.64144 44.4817 9.50727C44.9736 9.44572 45.5911 9.38417 45.8506 9.37186C46.2878 9.35094 46.3752 9.35955 47.0528 9.49865C48.1458 9.72022 48.7196 9.86301 49.042 9.99103C49.3617 10.1141 49.3972 10.1178 50.1704 10.0846V10.0833ZM44.0828 9.24138L44.7331 9.08874L44.7194 8.78716C44.7087 8.58389 44.6887 8.38074 44.6593 8.17784L44.6129 7.86887L43.9626 8.09537C43.5773 8.23077 43.203 8.33171 43.0363 8.34525C42.5691 8.38587 40.2603 8.34525 40.0417 8.29355C39.7572 8.19755 39.4913 8.0909 39.2466 7.97473L38.6455 7.70393L38.6373 7.86395C38.6373 7.95012 38.6073 8.10029 38.5717 8.19384C38.5116 8.36371 38.5171 8.36864 38.9269 8.60375C39.1564 8.73546 39.3422 8.8524 39.3422 8.86471C39.3422 8.95826 42.4243 9.38909 43.1183 9.39402C43.3396 9.39402 43.6211 9.3497 44.0828 9.24138ZM42.8478 8.14707C43.6183 8.0806 43.9954 7.82948 44.2768 7.19554C44.5774 6.5136 44.7304 5.44144 44.5856 4.98353C44.4571 4.57239 43.4407 4.38652 41.4817 4.41606C40.2685 4.43452 39.7658 4.48869 39.3532 4.64625C39.0963 4.74472 39.0909 4.75334 38.9789 5.20879C38.7603 6.084 39.0772 7.33095 39.6346 7.79994C39.8996 8.0252 40.1374 8.10768 40.6319 8.1446C41.1866 8.18769 42.3669 8.18892 42.8478 8.14707Z" fill="white" stroke="white" stroke-width="0.6" mask="url(#path-2-inside-1_9_52)"/>
</svg>
