<svg width="107" height="38" viewBox="0 0 107 38" fill="none" xmlns="http://www.w3.org/2000/svg">
<path d="M57.475 15.625C56.975 14.3083 56.1417 13.2583 54.975 12.475C53.825 11.6917 52.4583 11.3 50.875 11.3C49.4917 11.3 48.2417 11.625 47.125 12.275C46.0083 12.925 45.125 13.85 44.475 15.05C43.825 16.25 43.5 17.65 43.5 19.25C43.5 20.85 43.825 22.25 44.475 23.45C45.125 24.65 46.0083 25.575 47.125 26.225C48.2417 26.8583 49.4917 27.175 50.875 27.175C52.2083 27.175 53.4167 26.875 54.5 26.275C55.5833 25.675 56.45 24.825 57.1 23.725C57.75 22.6083 58.1083 21.3083 58.175 19.825H50.35V18.875H59.325V19.625C59.275 21.2583 58.8833 22.725 58.15 24.025C57.4167 25.325 56.4167 26.3417 55.15 27.075C53.8833 27.8083 52.4583 28.175 50.875 28.175C49.2583 28.175 47.8 27.8 46.5 27.05C45.2 26.2833 44.1833 25.225 43.45 23.875C42.7167 22.5083 42.35 20.9667 42.35 19.25C42.35 17.5167 42.7167 15.975 43.45 14.625C44.1833 13.2583 45.2 12.2 46.5 11.45C47.8 10.6833 49.2583 10.3 50.875 10.3C52.7583 10.3 54.3833 10.775 55.75 11.725C57.1333 12.6583 58.1417 13.9583 58.775 15.625H57.475ZM67.2527 28.2C65.7361 28.2 64.4944 27.8667 63.5277 27.2C62.5777 26.5333 62.0444 25.5833 61.9277 24.35H63.0777C63.1611 25.2333 63.5611 25.9333 64.2777 26.45C65.0111 26.9667 66.0027 27.225 67.2527 27.225C68.2861 27.225 69.1027 26.9667 69.7027 26.45C70.3194 25.9167 70.6277 25.2667 70.6277 24.5C70.6277 23.9667 70.4611 23.5333 70.1277 23.2C69.8111 22.85 69.4111 22.5833 68.9277 22.4C68.4444 22.2167 67.7861 22.0167 66.9527 21.8C65.9527 21.5333 65.1444 21.275 64.5277 21.025C63.9111 20.7583 63.3861 20.3667 62.9527 19.85C62.5194 19.3333 62.3027 18.6417 62.3027 17.775C62.3027 17.1417 62.4944 16.5583 62.8777 16.025C63.2611 15.475 63.7944 15.0417 64.4777 14.725C65.1611 14.4083 65.9361 14.25 66.8027 14.25C68.2194 14.25 69.3611 14.6083 70.2277 15.325C71.1111 16.025 71.5861 17 71.6527 18.25H70.5277C70.4777 17.35 70.1277 16.6167 69.4777 16.05C68.8277 15.4833 67.9277 15.2 66.7777 15.2C65.8111 15.2 65.0111 15.45 64.3777 15.95C63.7444 16.45 63.4277 17.0583 63.4277 17.775C63.4277 18.4083 63.6027 18.925 63.9527 19.325C64.3194 19.7083 64.7611 20.0083 65.2777 20.225C65.8111 20.425 66.5111 20.6417 67.3777 20.875C68.3277 21.125 69.0861 21.375 69.6527 21.625C70.2361 21.8583 70.7277 22.2083 71.1277 22.675C71.5277 23.125 71.7277 23.7333 71.7277 24.5C71.7277 25.2 71.5361 25.8333 71.1527 26.4C70.7694 26.9667 70.2361 27.4083 69.5527 27.725C68.8694 28.0417 68.1027 28.2 67.2527 28.2ZM74.4545 21.2C74.4545 19.8 74.7295 18.575 75.2795 17.525C75.8462 16.475 76.6212 15.6667 77.6045 15.1C78.6045 14.5333 79.7378 14.25 81.0045 14.25C82.4378 14.25 83.6545 14.6 84.6545 15.3C85.6545 16 86.3545 16.8917 86.7545 17.975V14.425H87.8795V28H86.7545V24.425C86.3545 25.525 85.6462 26.4333 84.6295 27.15C83.6295 27.85 82.4212 28.2 81.0045 28.2C79.7378 28.2 78.6045 27.9167 77.6045 27.35C76.6212 26.7667 75.8462 25.95 75.2795 24.9C74.7295 23.8333 74.4545 22.6 74.4545 21.2ZM86.7545 21.2C86.7545 20.0167 86.5045 18.975 86.0045 18.075C85.5212 17.1583 84.8545 16.4583 84.0045 15.975C83.1545 15.475 82.2045 15.225 81.1545 15.225C80.0545 15.225 79.0878 15.4667 78.2545 15.95C77.4212 16.4167 76.7712 17.1 76.3045 18C75.8378 18.9 75.6045 19.9667 75.6045 21.2C75.6045 22.4333 75.8378 23.5 76.3045 24.4C76.7712 25.3 77.4212 25.9917 78.2545 26.475C79.1045 26.9583 80.0712 27.2 81.1545 27.2C82.2045 27.2 83.1545 26.9583 84.0045 26.475C84.8712 25.975 85.5462 25.275 86.0295 24.375C86.5128 23.4583 86.7545 22.4 86.7545 21.2ZM93.1008 18C93.4841 16.9 94.1758 16 95.1758 15.3C96.1924 14.6 97.4174 14.25 98.8508 14.25C100.117 14.25 101.242 14.5333 102.226 15.1C103.226 15.6667 104.001 16.475 104.551 17.525C105.117 18.575 105.401 19.8 105.401 21.2C105.401 22.6 105.117 23.8333 104.551 24.9C104.001 25.95 103.226 26.7667 102.226 27.35C101.242 27.9167 100.117 28.2 98.8508 28.2C97.4341 28.2 96.2174 27.85 95.2008 27.15C94.2008 26.4333 93.5008 25.5333 93.1008 24.45V34.4H91.9758V14.425H93.1008V18ZM104.251 21.2C104.251 19.9667 104.017 18.9 103.551 18C103.084 17.1 102.426 16.4167 101.576 15.95C100.742 15.4667 99.7758 15.225 98.6758 15.225C97.6258 15.225 96.6758 15.475 95.8258 15.975C94.9758 16.4583 94.3091 17.1583 93.8258 18.075C93.3424 18.975 93.1008 20.0167 93.1008 21.2C93.1008 22.4 93.3424 23.4583 93.8258 24.375C94.3091 25.275 94.9758 25.975 95.8258 26.475C96.6758 26.9583 97.6258 27.2 98.6758 27.2C99.7758 27.2 100.742 26.9583 101.576 26.475C102.426 25.9917 103.084 25.3 103.551 24.4C104.017 23.5 104.251 22.4333 104.251 21.2Z" fill="white"/>
<mask id="path-2-inside-1_9_52" fill="white">
<path d="M18.8926 33.4443C18.3875 33.3791 17.8547 33.1981 17.5608 32.995C17.3552 32.8343 17.2399 32.6194 17.2392 32.3955C17.2392 32.174 17.3853 31.8539 17.6322 31.5388C17.7743 31.3586 17.8882 31.1665 17.9717 30.9664C18.0204 30.8273 18.1276 30.5971 18.2104 30.4531L18.3582 30.1921L18.3972 28.4245C18.4183 27.452 18.4573 26.5461 18.4833 26.4082C18.5674 26.004 18.705 25.6073 18.8942 25.224L19.0307 24.9668L18.8309 24.8769C18.6441 24.792 18.4898 24.6701 17.8888 24.1285C17.1466 23.4638 16.1721 23.0994 14.7899 22.9714C14.336 22.9389 13.881 22.9155 13.4255 22.9012C11.392 22.8298 10.2323 22.5085 9.18632 21.7294C8.4067 21.1459 7.99902 20.4676 7.83335 19.4693C7.60921 18.1178 7.36233 17.4223 6.90755 16.8597C6.79609 16.7213 6.66718 16.5915 6.52261 16.472L6.33745 16.3329L5.9314 16.5298C5.70563 16.6382 5.39703 16.7797 5.24436 16.8437C4.73995 17.0542 4.25386 17.289 3.78906 17.5466C2.65861 18.1707 1.41933 18.9523 0.740413 19.4693C0.435061 19.7008 0.274264 19.798 0.209295 19.7918C-0.258478 19.7389 0.102097 18.2162 0.852483 17.0714C1.81889 15.598 3.43985 14.2366 5.32232 13.3158C6.86532 12.5613 9.35849 11.5236 10.5133 11.158C12.5598 10.5093 15.2105 9.80639 17.0264 9.43095C17.4097 9.35217 17.6452 9.28077 17.8011 9.19707C18.1585 9.00873 18.5061 8.9201 18.9072 8.91395C19.2418 8.91026 19.2743 8.90164 19.5975 8.74162C19.9792 8.55451 20.088 8.5422 20.4713 8.64314L20.7215 8.71084L21.0252 8.55451L21.3306 8.39818L21.7691 8.40557C22.1021 8.41049 22.2547 8.39695 22.3977 8.34894C22.5828 8.2874 22.5893 8.28001 22.6413 8.04736C22.7582 7.54759 22.7712 7.29648 22.7014 6.99613C22.6072 6.5973 22.5991 5.04631 22.6884 4.74472C22.7842 4.41729 22.8459 4.35205 23.1675 4.23142C23.6499 4.05047 24.0105 4 24.8437 4C25.8572 4 26.3705 4.1034 26.7506 4.38159C27.0949 4.63517 27.1534 5.21864 26.9731 6.5973C26.8691 7.38757 26.8561 7.61037 26.8837 8.1286C26.9 8.46219 26.9276 8.77362 26.9438 8.81916C26.9714 8.89918 26.9958 8.9041 27.3645 8.91026C27.7235 8.91518 27.7868 8.92749 28.1295 9.06412C28.4609 9.1946 28.7077 9.35217 28.7565 9.46418C28.7662 9.4888 28.8214 9.49003 28.9254 9.46788C29.117 9.42479 29.2908 9.47157 29.4273 9.60205C29.5101 9.68206 29.5621 9.69806 29.757 9.69806C30.0168 9.69806 30.1078 9.74484 30.3238 9.9861C30.4254 10.0939 30.5634 10.179 30.7234 10.2323C31.0807 10.3677 31.5598 10.7419 31.7466 11.0373C32.0309 11.4829 32.091 11.9938 31.9107 12.4579C31.8457 12.6302 31.8457 12.6363 31.9789 12.805C32.2615 13.162 32.3638 13.6051 32.2501 13.9793L32.1835 14.2009L32.3752 14.3449C33.3221 15.0625 33.1824 16.2295 32.026 17.2746C31.9026 17.3853 31.758 17.5601 31.7044 17.666C31.477 18.1128 31.2269 18.4267 30.8939 18.6852L30.5626 18.9437H30.215C29.8739 18.9437 29.3948 18.8576 29.1024 18.7406C28.9806 18.6926 28.9725 18.6938 28.9968 18.7529C29.0781 18.9646 29.2632 19.8238 29.3298 20.2978C29.4321 21.0289 29.4013 22.0925 29.2648 22.5492C29.1678 22.8875 29.0053 23.2132 28.7824 23.5155C28.659 23.6706 28.6476 23.7063 28.6752 23.8897C28.7142 24.1568 28.6314 24.5987 28.4885 24.8904C28.3195 25.2314 28.2562 25.3914 28.2188 25.5625C28.1864 25.7127 28.1864 25.7139 28.326 25.7139C28.5128 25.7139 28.6103 25.7976 28.6103 25.9589C28.6103 26.0328 28.5291 26.4193 28.4284 26.8206C28.1506 27.9383 28.1328 28.0675 28.1295 29.1532C28.1246 30.2721 28.123 30.2635 28.4609 30.4297L29.2145 30.8015C29.863 31.1289 30.5582 31.3998 31.287 31.609C32.3476 31.9265 32.4938 32.0078 32.4938 32.2786C32.4938 32.3955 32.4629 32.4423 32.3313 32.5383C31.922 32.8374 31.1229 32.9039 29.5101 32.7747C28.6733 32.7143 27.8332 32.6835 26.9926 32.6823C24.7755 32.6577 24.4474 32.5999 24.1583 32.1801C23.9926 31.9401 24.0219 31.6262 24.2541 31.1116C24.3574 30.8853 24.4458 30.6553 24.5189 30.4223C24.6699 29.8622 24.5676 29.2 24.2135 28.4479L23.9131 27.8102C23.611 27.1603 23.4485 25.9712 23.6272 25.7029C23.6597 25.6536 23.7149 25.6413 23.8643 25.6487L24.0576 25.661L24.2135 25.4099C24.3354 25.2154 24.4702 25.0849 24.8307 24.8092L25.2936 24.4571L25.2709 24.2331C25.2482 24.0189 24.8762 22.9689 24.8226 22.9714C24.808 22.9714 24.704 23.0797 24.5887 23.2114C24.3126 23.529 23.6922 24.0214 23.3446 24.1986C23.1919 24.2774 23.0652 24.3673 23.0652 24.3981C23.062 24.5248 22.9125 24.7797 22.7387 24.9581C22.5666 25.1342 22.5552 25.1588 22.5812 25.3151C22.6202 25.5404 22.5276 26.2666 22.4123 26.6445C22.3105 26.9275 22.1706 27.2018 21.9949 27.4631C21.5563 28.1524 21.2282 28.7655 21.1421 29.051C21.0831 29.3252 21.0462 29.6019 21.0317 29.8795C21.0106 30.2044 20.9667 30.5245 20.9342 30.5897C20.892 30.682 20.8904 30.7522 20.931 30.8925C20.9602 30.9935 20.9797 31.22 20.9749 31.3972C20.9684 31.6434 20.9943 31.8034 21.0885 32.0915C21.251 32.5802 21.2867 32.8879 21.2071 33.0713C21.1584 33.1846 21.1032 33.2301 20.9375 33.2929C20.5526 33.4406 19.4773 33.5206 18.8926 33.4443ZM20.4356 33.0529C20.6581 33.0048 20.8449 32.8571 20.8449 32.7291C20.8449 32.6737 20.7799 32.5039 20.7036 32.3524C20.5574 32.0693 20.2911 31.3221 20.2911 31.1978C20.2911 31.1313 20.2976 31.1301 20.4291 31.183L20.5672 31.2384L20.5639 31.103C20.5476 30.9794 20.5128 30.8576 20.46 30.7399C20.3398 30.4654 20.3235 30.4592 19.5602 30.4272L19.0372 30.4063L18.8504 30.5454C18.7432 30.6259 18.6509 30.717 18.5759 30.8162C18.4914 30.943 18.4589 31.1301 18.5142 31.1732C18.5272 31.1843 18.6522 31.1732 18.7903 31.1486C18.8723 31.1301 18.9567 31.1181 19.042 31.1129C19.042 31.119 18.9024 31.2027 18.7302 31.2988C17.9668 31.7271 17.7021 31.993 17.7021 32.3291C17.7021 32.6811 18.1341 32.9544 18.8195 33.0356C19.2905 33.0922 20.2066 33.1021 20.4356 33.0529ZM30.7559 32.4805C30.9459 32.3057 30.9232 32.1296 30.6812 31.9265C30.5419 31.8188 30.382 31.7275 30.2069 31.6557C30.0239 31.5828 29.8461 31.5027 29.6741 31.4157C29.5345 31.3418 29.0862 31.1449 28.6801 30.9726C28.389 30.8547 28.1035 30.729 27.8242 30.5959L27.7105 30.5282V29.2049C27.7105 27.9001 27.7072 27.8841 27.6163 27.9026C27.1729 27.9949 26.4371 28.0367 25.5015 28.0232L24.4961 28.0109L24.6391 28.2792C24.9103 28.7913 25.0516 29.4733 25.05 30.2561C25.05 30.5491 25.0273 30.6574 24.9314 30.8618C24.8823 30.9634 24.8352 31.0656 24.7901 31.1683C24.7723 31.2114 24.8421 31.2421 25.1052 31.3012C25.292 31.3443 25.5746 31.3886 25.7338 31.4022L26.0229 31.4243L25.9937 31.6471C25.9612 31.8995 25.9985 32.1617 26.0814 32.2454C26.1285 32.2921 26.3234 32.3094 27.2021 32.3414C27.8713 32.366 28.5957 32.4177 29.1658 32.4817C29.6611 32.5371 30.1939 32.5851 30.3514 32.5863C30.6146 32.59 30.6438 32.5826 30.7559 32.4805ZM20.6013 30.2266C20.6256 30.2143 20.6614 29.9533 20.6776 29.6468C20.728 28.7852 20.7702 28.6621 21.3436 27.6908C21.8097 26.8981 22.0598 26.1583 22.0371 25.6315L22.0241 25.3188L21.8503 25.4493C21.4816 25.7262 21.735 25.2893 22.1703 24.8991C22.5 24.6036 22.6137 24.4374 22.6689 24.1765C22.6916 24.0706 22.7452 24.0165 22.9613 23.8934C23.7766 23.4194 24.3695 22.8224 24.7528 22.0925C24.8437 21.9189 25.0744 21.3293 25.2644 20.7803C25.6185 19.7635 25.8085 19.329 25.9791 19.1394C26.044 19.0668 26.0684 19.0557 26.0521 19.1037C25.9547 19.393 25.9222 19.51 25.841 19.8879C25.789 20.123 25.6948 20.5821 25.6331 20.9071C25.5064 21.5619 25.3797 21.9854 25.2092 22.3153L25.0955 22.5344L25.4025 23.1314C25.7159 23.7432 25.8621 24.1839 25.893 24.6147L25.9092 24.851L25.6591 24.8904C25.334 24.935 25.0446 25.0736 24.8519 25.277C24.631 25.5108 24.514 25.7053 24.5709 25.7496C24.5952 25.7681 24.9071 25.8112 25.2612 25.842C25.8166 25.8912 26.0245 25.8937 26.7538 25.858C27.0686 25.8471 27.3825 25.8241 27.6942 25.789C27.7624 25.7706 27.829 25.6647 27.9444 25.3914C28.2075 24.7636 28.2578 24.5384 28.227 24.0989L28.201 23.7087L28.3342 23.5795C28.646 23.2791 28.8864 22.74 28.9838 22.1146C29.1057 21.3441 28.8864 19.7315 28.4722 18.3455C28.2773 17.6894 28.1961 17.2942 28.1961 17.0037V16.7489L27.8826 16.7736C26.7668 16.8671 25.4171 16.8413 24.5887 16.712C24.1404 16.6431 23.0035 16.392 22.7534 16.307L22.5601 16.2418L22.5325 16.408C22.5175 16.5015 22.4959 16.5944 22.4675 16.6862C22.4301 16.7908 22.4448 16.8117 22.6803 16.989C22.9726 17.2105 23.0636 17.3287 23.0636 17.4838C23.0636 17.5761 22.9905 17.6537 22.6364 17.9356C22.3766 18.1424 22.0452 18.3603 21.7918 18.4883L21.376 18.7L21.2039 19.1628C20.5639 20.8738 20.4437 22.4236 20.8628 23.5376L20.9667 23.8158L20.7637 24.0066C20.0003 24.7353 19.552 25.288 19.4838 25.5945C19.4708 25.6561 19.4059 25.8592 19.3409 26.0463C19.1785 26.5214 19.0518 27.2194 18.9966 27.974C18.9549 28.6061 18.8986 29.2377 18.8276 29.8684L18.8 30.0555L19.1168 30.1294C19.2922 30.17 19.5602 30.2192 19.7128 30.2364C19.9955 30.2709 20.5233 30.2648 20.6029 30.2266H20.6013ZM26.7619 27.5825C27.2541 27.5604 27.7056 27.5013 27.7933 27.4471C27.8307 27.425 27.8745 27.324 27.8908 27.2255L27.9184 27.0434L27.5286 27.1086C27.2188 27.154 26.9059 27.1861 26.5914 27.2046C25.8426 27.2297 25.0924 27.2132 24.3467 27.1554C24.0998 27.1271 24.0982 27.1283 24.1794 27.3733C24.2395 27.5579 24.2525 27.5628 24.9022 27.601C25.3342 27.6256 25.932 27.6207 26.7619 27.5825ZM26.3478 26.7455C26.9909 26.7049 27.7998 26.6002 27.9557 26.5362C28.0061 26.5153 28.0548 26.4451 28.0727 26.3651L28.1311 26.1091L28.1604 25.9872L28.0044 26.0118C27.3012 26.1238 26.7668 26.1571 25.6981 26.1571C24.6602 26.1571 24.5416 26.1497 24.2688 26.0795C24.1627 26.045 24.0494 26.025 23.9342 26.0204C23.8887 26.0414 23.8854 26.3159 23.9261 26.5067C23.9504 26.6236 23.9748 26.6433 24.1291 26.6765C24.6115 26.775 25.4219 26.8009 26.3478 26.7442V26.7455ZM14.5738 22.4088C16.198 22.0568 18.3225 21.0093 20.0588 19.7044C20.6273 19.2761 20.6922 19.2158 20.7686 19.0274L20.8725 18.7825C20.8839 18.7628 20.7816 18.7271 20.6484 18.7025C20.2976 18.6384 20.0361 18.4883 20.0328 18.3479C20.0328 18.2667 19.9678 18.1855 19.7892 18.034C19.4855 17.778 19.4107 17.6672 19.3783 17.4223L19.3523 17.2278L19.0014 17.0333C18.8 16.9225 18.0854 16.6246 17.3317 16.3378C16.7573 16.1248 16.1943 15.8945 15.6442 15.6472C15.0107 15.3223 14.5836 14.9382 14.3448 14.4815C14.2977 14.388 14.2425 14.3117 14.223 14.3117C14.1694 14.3117 12.745 15.358 12.1343 15.8467C10.6335 17.0493 9.59562 18.0931 8.94431 19.0594C8.78189 19.2995 8.60323 19.5826 8.55125 19.6884L8.4538 19.8817L8.57237 20.2017C8.63733 20.3778 8.78351 20.6609 8.89721 20.8295C9.29676 21.4253 9.77591 21.786 10.5604 22.0789C11.405 22.3953 12.1521 22.5049 13.4028 22.4938C14.0784 22.4876 14.2717 22.4753 14.5738 22.4088ZM1.75392 18.1953C2.82103 17.4789 4.29257 16.6935 6.09707 15.8787C7.27787 15.3457 11.8354 13.6174 13.9355 12.9071C14.3156 12.7779 14.6599 12.6597 14.6989 12.6425C14.7363 12.6265 14.8467 12.4209 14.9442 12.1883C15.3924 11.1186 15.6133 10.9069 16.4189 10.769C16.5213 10.7518 16.5456 10.7271 16.5456 10.6471C16.5456 10.5117 16.6723 10.1867 16.7811 10.0427C16.8623 9.93194 16.864 9.92579 16.7893 9.94179C16.7454 9.95287 16.4807 10.0107 16.1997 10.0723C12.334 10.9179 8.95243 12.0418 6.0321 13.4475C2.91361 14.9493 1.12373 16.7465 0.602355 18.8994L0.563374 19.0594L0.940191 18.7751C1.14647 18.6187 1.51354 18.3566 1.75392 18.1953ZM30.4651 18.6015C30.7737 18.4809 31.2561 17.927 31.4348 17.4912C31.488 17.3366 31.5894 17.1939 31.7304 17.0751C32.2047 16.6812 32.5928 15.9611 32.5945 15.47C32.5945 14.7068 32.0276 14.4126 31.1928 14.7413C31.0888 14.7819 30.9962 14.809 30.9865 14.8003C30.9394 14.7646 31.1765 14.5911 31.4575 14.4557C31.836 14.271 31.9074 14.1603 31.9074 13.759C31.9074 13.4254 31.7954 13.1521 31.542 12.8567C31.4283 12.7274 31.3828 12.6388 31.4007 12.5883L31.5176 12.2634C31.6735 11.8362 31.6167 11.3475 31.3747 11.0361C31.006 10.5622 30.5528 10.3308 29.9226 10.2951L29.5572 10.2741L29.7748 10.4551C30.4115 10.9832 30.7218 11.6405 30.5999 12.203C30.5366 12.4886 30.4749 12.5477 30.1078 12.661L29.8967 12.7262L29.921 12.9465C29.9632 13.3097 29.882 13.5719 29.5767 14.0605C29.4256 14.3043 29.3103 14.5234 29.3217 14.5468C29.3623 14.6292 29.7765 14.7868 30.1062 14.8471L30.431 14.9062L30.228 14.9554C29.9665 15.0207 29.9064 15.1105 29.9048 15.4441C29.9048 15.7457 29.9616 15.87 30.2572 16.2024C30.3872 16.3476 30.4765 16.4941 30.4911 16.5815C30.5155 16.7182 30.5074 16.7268 30.3612 16.7674C30.1966 16.801 30.0279 16.8217 29.8577 16.8289C29.2616 16.8573 29.2161 16.8696 28.9514 17.0628C28.7077 17.2389 28.7029 17.2487 28.7029 17.4407C28.7029 17.7054 28.8328 18.2347 28.9173 18.3073C29.0212 18.3972 29.6254 18.6212 29.8593 18.6557C30.0633 18.6927 30.2781 18.6735 30.4651 18.6015ZM21.6781 18.2396C22.0663 18.0094 22.3684 17.7792 22.5422 17.5811C22.6478 17.4604 22.6543 17.437 22.6007 17.3386C22.5162 17.1822 21.9331 16.7846 21.6083 16.6652C21.393 16.5906 21.1641 16.5408 20.9294 16.5175L20.5298 16.4757L20.2797 16.2393C19.7697 15.7593 19.4838 15.3863 19.0745 14.6612C18.7237 14.0433 18.4102 13.6826 17.9165 13.3294C17.7134 13.1841 17.564 13.0647 17.5819 13.0647C17.6014 13.0647 17.8434 13.1546 18.1227 13.2654C18.5905 13.4512 18.6441 13.4648 18.8553 13.4451C19.6105 13.3761 20.2732 12.7176 20.5185 11.7956C20.5883 11.5322 20.7247 11.2675 20.8725 11.11C20.879 11.1038 21.1681 11.2515 21.5141 11.4386C22.3814 11.9064 22.5731 11.9753 23.0652 11.9901C23.3933 11.9999 23.5752 11.9802 24.1567 11.8744C25.3992 11.6454 26.7457 11.5519 27.5675 11.6368C28.0304 11.6848 28.6915 11.8375 29.1917 12.0135C29.6806 12.1858 29.7748 12.1957 29.934 12.0898C30.0639 12.0036 30.0656 11.9913 30.0639 11.6688C30.0607 11.1937 29.8301 10.6791 29.4792 10.3726C29.3006 10.2138 28.8052 9.9541 28.3098 9.75592C28.1313 9.68493 27.9542 9.61188 27.7787 9.53681C27.548 9.43464 27.2768 9.44695 26.5573 9.59097C25.7208 9.75715 25.4983 9.75469 24.5384 9.56881C23.7279 9.41125 23.6743 9.40879 22.8784 9.50357C22.4545 9.55404 21.3874 9.5245 21.0301 9.4531C20.8519 9.41583 20.6758 9.37312 20.5022 9.32509C20.1936 9.23769 19.6544 9.22292 19.1671 9.28816C18.1926 9.41987 17.4552 9.81746 17.1888 10.3591C17.0524 10.6348 17.0702 10.7641 17.257 10.8527C17.5445 10.9906 17.9327 11.3709 17.9327 11.5174C17.9327 11.5297 17.8417 11.4669 17.7297 11.3783C17.4601 11.1641 17.2099 11.0693 16.9176 11.0693C16.7285 11.0725 16.5444 11.116 16.3864 11.1948C16.2284 11.2736 16.1029 11.3846 16.0243 11.5149C15.9393 11.684 15.8671 11.8566 15.8082 12.0319C15.6296 12.5268 15.4736 12.7853 15.1391 13.1299C14.837 13.4414 14.7963 13.5805 14.9019 13.9313C15.1683 14.8163 15.6296 15.1758 17.564 16.0067C18.5791 16.4424 19.1038 16.6874 19.4838 16.904C19.7746 17.0678 19.7827 17.0764 19.7567 17.2032C19.6966 17.49 19.9386 17.8063 20.4161 18.0587C20.5379 18.1227 20.6143 18.1904 20.6143 18.2347C20.6143 18.3233 20.9326 18.444 21.1714 18.444C21.3013 18.444 21.4069 18.4021 21.6798 18.2396H21.6781ZM29.4987 16.6221C30.2361 16.6382 30.2767 16.5988 29.8804 16.2516C29.4679 15.8885 29.3558 15.5968 29.5068 15.2743L29.5669 15.1487L29.3087 15.0527C29.2236 15.0181 29.135 14.9884 29.0439 14.9641C28.9978 15.0906 28.955 15.2178 28.9156 15.3457C28.8214 15.6411 28.7045 16.3993 28.7029 16.7243C28.7029 16.7526 28.7646 16.7403 28.8734 16.6899C29.0228 16.6222 29.1008 16.6135 29.4987 16.6221ZM27.0332 16.5914C27.4766 16.5729 27.9362 16.5471 28.0564 16.5348L28.2741 16.5126L28.3017 15.9562C28.339 15.1684 28.4885 14.7031 28.94 13.9596C29.2616 13.4303 29.3964 12.9662 29.3298 12.6228C29.3006 12.4726 29.2892 12.4628 29.0245 12.3754C28.5359 12.2286 28.027 12.1241 27.5074 12.0639C27.0039 12.0086 25.5356 12.0406 24.9818 12.1193C24.7544 12.1513 24.337 12.2178 24.056 12.2683C23.3641 12.3914 22.997 12.3754 22.4708 12.2006C21.951 12.027 21.6197 11.8707 21.3062 11.6491C21.0609 11.4756 21.0382 11.4669 20.9716 11.5248C20.9229 11.5679 20.8953 11.6971 20.879 11.9778C20.8563 12.4049 20.7718 12.6302 20.5217 12.9342C20.4658 12.9958 20.419 13.0619 20.382 13.1312C20.382 13.146 20.5753 13.3109 20.8108 13.4955C21.6213 14.1356 22.0192 14.3006 22.6592 14.2637C22.8703 14.2513 23.0165 14.2563 23.0165 14.276C23.0165 14.3117 22.6039 14.5591 22.4301 14.628C22.3522 14.6588 22.3327 14.6933 22.3457 14.7671L22.4431 15.2693C22.5016 15.5598 22.5471 15.6916 22.6056 15.7309C22.7566 15.8294 23.5427 16.1372 24.0349 16.2873C24.6862 16.488 25.037 16.5594 25.5356 16.5914C26.1415 16.6295 26.1545 16.6295 27.0332 16.5914ZM21.787 16.0658C21.8 16.0473 21.7512 15.7703 21.6733 15.4478C21.5709 15.0096 21.5141 14.8508 21.4507 14.8102C21.402 14.7807 21.1698 14.6526 20.9326 14.5258C20.6266 14.3546 20.3352 14.1688 20.0604 13.9695L19.6203 13.6445L19.3896 13.7368L19.1395 13.839C19.1612 13.9144 19.1961 13.9873 19.2434 14.0556C19.3084 14.1701 19.4481 14.4532 19.552 14.6834C19.82 15.2853 20.0247 15.5734 20.5526 16.0965L20.754 16.2947L21.1275 16.339C21.3322 16.3637 21.545 16.3957 21.6002 16.4117C21.6911 16.4375 21.7025 16.4264 21.7301 16.2701C21.7383 16.2006 21.7569 16.1321 21.7853 16.0658H21.787ZM29.8236 10.0833C30.1484 10.06 30.2036 10.0218 30.0623 9.91348C29.9779 9.84824 29.7716 9.84085 29.6075 9.89871C29.4971 9.93687 29.4744 9.92825 29.3038 9.78792C29.1252 9.63775 29.1154 9.63405 28.8913 9.65498C28.6882 9.67344 28.6574 9.66729 28.6314 9.60451C28.5509 9.50226 28.4525 9.40869 28.339 9.32632C28.1955 9.20132 28.0145 9.10423 27.8112 9.0432C27.4165 8.92995 27.1972 8.94226 26.822 9.09859C25.7387 9.54789 25.7825 9.54296 24.7382 9.34109C23.7588 9.15152 23.0262 8.96319 22.794 8.84009C22.5991 8.73792 22.1784 8.63083 21.8308 8.5939C21.5709 8.56682 21.402 8.6099 21.1551 8.76623L21.0252 8.84748L21.1421 9.00504C21.3078 9.22784 21.2916 9.24015 21.0414 9.0789C20.7767 8.90656 20.4616 8.79085 20.2537 8.78962C20.1091 8.78962 19.6771 8.93118 19.6251 8.99642C19.6105 9.01365 19.7437 9.03704 19.9191 9.04935C20.1059 9.06166 20.3593 9.10844 20.5298 9.16383C20.9716 9.30662 21.2022 9.3534 21.6083 9.3854C22.0517 9.41741 22.8606 9.37925 22.9531 9.32016C23.0002 9.28939 23.1399 9.28446 23.4339 9.3017C23.8205 9.32385 23.9813 9.35093 24.9006 9.53927C25.4333 9.65006 25.8069 9.64144 26.442 9.50727C26.7343 9.44572 27.1014 9.38417 27.2557 9.37186C27.5156 9.35094 27.5675 9.35955 27.9703 9.49865C28.62 9.72022 28.9611 9.86301 29.1528 9.99103C29.3428 10.1141 29.3639 10.1178 29.8236 10.0846V10.0833ZM26.2048 9.24138L26.5914 9.08874L26.5833 8.78716C26.5769 8.58389 26.565 8.38074 26.5475 8.17784L26.5199 7.86887L26.1334 8.09537C25.9043 8.23077 25.6818 8.33171 25.5827 8.34525C25.305 8.38587 23.9325 8.34525 23.8026 8.29355C23.6335 8.19755 23.4754 8.0909 23.33 7.97473L22.9726 7.70393L22.9678 7.86395C22.9678 7.95012 22.9499 8.10029 22.9288 8.19384C22.8931 8.36371 22.8963 8.36864 23.1399 8.60375C23.2764 8.73546 23.3868 8.8524 23.3868 8.86471C23.3868 8.95826 25.2189 9.38909 25.6315 9.39402C25.763 9.39402 25.9303 9.3497 26.2048 9.24138ZM25.4707 8.14707C25.9287 8.0806 26.1528 7.82948 26.3201 7.19554C26.4988 6.5136 26.5898 5.44144 26.5037 4.98353C26.4273 4.57239 25.8231 4.38652 24.6586 4.41606C23.9374 4.43452 23.6386 4.48869 23.3933 4.64625C23.2406 4.74472 23.2374 4.75334 23.1708 5.20879C23.0409 6.084 23.2293 7.33095 23.5606 7.79994C23.7182 8.0252 23.8595 8.10768 24.1534 8.1446C24.4832 8.18769 25.1848 8.18892 25.4707 8.14707Z"/>
</mask>
<path d="M18.8926 33.4443C18.3875 33.3791 17.8547 33.1981 17.5608 32.995C17.3552 32.8343 17.2399 32.6194 17.2392 32.3955C17.2392 32.174 17.3853 31.8539 17.6322 31.5388C17.7743 31.3586 17.8882 31.1665 17.9717 30.9664C18.0204 30.8273 18.1276 30.5971 18.2104 30.4531L18.3582 30.1921L18.3972 28.4245C18.4183 27.452 18.4573 26.5461 18.4833 26.4082C18.5674 26.004 18.705 25.6073 18.8942 25.224L19.0307 24.9668L18.8309 24.8769C18.6441 24.792 18.4898 24.6701 17.8888 24.1285C17.1466 23.4638 16.1721 23.0994 14.7899 22.9714C14.336 22.9389 13.881 22.9155 13.4255 22.9012C11.392 22.8298 10.2323 22.5085 9.18632 21.7294C8.4067 21.1459 7.99902 20.4676 7.83335 19.4693C7.60921 18.1178 7.36233 17.4223 6.90755 16.8597C6.79609 16.7213 6.66718 16.5915 6.52261 16.472L6.33745 16.3329L5.9314 16.5298C5.70563 16.6382 5.39703 16.7797 5.24436 16.8437C4.73995 17.0542 4.25386 17.289 3.78906 17.5466C2.65861 18.1707 1.41933 18.9523 0.740413 19.4693C0.435061 19.7008 0.274264 19.798 0.209295 19.7918C-0.258478 19.7389 0.102097 18.2162 0.852483 17.0714C1.81889 15.598 3.43985 14.2366 5.32232 13.3158C6.86532 12.5613 9.35849 11.5236 10.5133 11.158C12.5598 10.5093 15.2105 9.80639 17.0264 9.43095C17.4097 9.35217 17.6452 9.28077 17.8011 9.19707C18.1585 9.00873 18.5061 8.9201 18.9072 8.91395C19.2418 8.91026 19.2743 8.90164 19.5975 8.74162C19.9792 8.55451 20.088 8.5422 20.4713 8.64314L20.7215 8.71084L21.0252 8.55451L21.3306 8.39818L21.7691 8.40557C22.1021 8.41049 22.2547 8.39695 22.3977 8.34894C22.5828 8.2874 22.5893 8.28001 22.6413 8.04736C22.7582 7.54759 22.7712 7.29648 22.7014 6.99613C22.6072 6.5973 22.5991 5.04631 22.6884 4.74472C22.7842 4.41729 22.8459 4.35205 23.1675 4.23142C23.6499 4.05047 24.0105 4 24.8437 4C25.8572 4 26.3705 4.1034 26.7506 4.38159C27.0949 4.63517 27.1534 5.21864 26.9731 6.5973C26.8691 7.38757 26.8561 7.61037 26.8837 8.1286C26.9 8.46219 26.9276 8.77362 26.9438 8.81916C26.9714 8.89918 26.9958 8.9041 27.3645 8.91026C27.7235 8.91518 27.7868 8.92749 28.1295 9.06412C28.4609 9.1946 28.7077 9.35217 28.7565 9.46418C28.7662 9.4888 28.8214 9.49003 28.9254 9.46788C29.117 9.42479 29.2908 9.47157 29.4273 9.60205C29.5101 9.68206 29.5621 9.69806 29.757 9.69806C30.0168 9.69806 30.1078 9.74484 30.3238 9.9861C30.4254 10.0939 30.5634 10.179 30.7234 10.2323C31.0807 10.3677 31.5598 10.7419 31.7466 11.0373C32.0309 11.4829 32.091 11.9938 31.9107 12.4579C31.8457 12.6302 31.8457 12.6363 31.9789 12.805C32.2615 13.162 32.3638 13.6051 32.2501 13.9793L32.1835 14.2009L32.3752 14.3449C33.3221 15.0625 33.1824 16.2295 32.026 17.2746C31.9026 17.3853 31.758 17.5601 31.7044 17.666C31.477 18.1128 31.2269 18.4267 30.8939 18.6852L30.5626 18.9437H30.215C29.8739 18.9437 29.3948 18.8576 29.1024 18.7406C28.9806 18.6926 28.9725 18.6938 28.9968 18.7529C29.0781 18.9646 29.2632 19.8238 29.3298 20.2978C29.4321 21.0289 29.4013 22.0925 29.2648 22.5492C29.1678 22.8875 29.0053 23.2132 28.7824 23.5155C28.659 23.6706 28.6476 23.7063 28.6752 23.8897C28.7142 24.1568 28.6314 24.5987 28.4885 24.8904C28.3195 25.2314 28.2562 25.3914 28.2188 25.5625C28.1864 25.7127 28.1864 25.7139 28.326 25.7139C28.5128 25.7139 28.6103 25.7976 28.6103 25.9589C28.6103 26.0328 28.5291 26.4193 28.4284 26.8206C28.1506 27.9383 28.1328 28.0675 28.1295 29.1532C28.1246 30.2721 28.123 30.2635 28.4609 30.4297L29.2145 30.8015C29.863 31.1289 30.5582 31.3998 31.287 31.609C32.3476 31.9265 32.4938 32.0078 32.4938 32.2786C32.4938 32.3955 32.4629 32.4423 32.3313 32.5383C31.922 32.8374 31.1229 32.9039 29.5101 32.7747C28.6733 32.7143 27.8332 32.6835 26.9926 32.6823C24.7755 32.6577 24.4474 32.5999 24.1583 32.1801C23.9926 31.9401 24.0219 31.6262 24.2541 31.1116C24.3574 30.8853 24.4458 30.6553 24.5189 30.4223C24.6699 29.8622 24.5676 29.2 24.2135 28.4479L23.9131 27.8102C23.611 27.1603 23.4485 25.9712 23.6272 25.7029C23.6597 25.6536 23.7149 25.6413 23.8643 25.6487L24.0576 25.661L24.2135 25.4099C24.3354 25.2154 24.4702 25.0849 24.8307 24.8092L25.2936 24.4571L25.2709 24.2331C25.2482 24.0189 24.8762 22.9689 24.8226 22.9714C24.808 22.9714 24.704 23.0797 24.5887 23.2114C24.3126 23.529 23.6922 24.0214 23.3446 24.1986C23.1919 24.2774 23.0652 24.3673 23.0652 24.3981C23.062 24.5248 22.9125 24.7797 22.7387 24.9581C22.5666 25.1342 22.5552 25.1588 22.5812 25.3151C22.6202 25.5404 22.5276 26.2666 22.4123 26.6445C22.3105 26.9275 22.1706 27.2018 21.9949 27.4631C21.5563 28.1524 21.2282 28.7655 21.1421 29.051C21.0831 29.3252 21.0462 29.6019 21.0317 29.8795C21.0106 30.2044 20.9667 30.5245 20.9342 30.5897C20.892 30.682 20.8904 30.7522 20.931 30.8925C20.9602 30.9935 20.9797 31.22 20.9749 31.3972C20.9684 31.6434 20.9943 31.8034 21.0885 32.0915C21.251 32.5802 21.2867 32.8879 21.2071 33.0713C21.1584 33.1846 21.1032 33.2301 20.9375 33.2929C20.5526 33.4406 19.4773 33.5206 18.8926 33.4443ZM20.4356 33.0529C20.6581 33.0048 20.8449 32.8571 20.8449 32.7291C20.8449 32.6737 20.7799 32.5039 20.7036 32.3524C20.5574 32.0693 20.2911 31.3221 20.2911 31.1978C20.2911 31.1313 20.2976 31.1301 20.4291 31.183L20.5672 31.2384L20.5639 31.103C20.5476 30.9794 20.5128 30.8576 20.46 30.7399C20.3398 30.4654 20.3235 30.4592 19.5602 30.4272L19.0372 30.4063L18.8504 30.5454C18.7432 30.6259 18.6509 30.717 18.5759 30.8162C18.4914 30.943 18.4589 31.1301 18.5142 31.1732C18.5272 31.1843 18.6522 31.1732 18.7903 31.1486C18.8723 31.1301 18.9567 31.1181 19.042 31.1129C19.042 31.119 18.9024 31.2027 18.7302 31.2988C17.9668 31.7271 17.7021 31.993 17.7021 32.3291C17.7021 32.6811 18.1341 32.9544 18.8195 33.0356C19.2905 33.0922 20.2066 33.1021 20.4356 33.0529ZM30.7559 32.4805C30.9459 32.3057 30.9232 32.1296 30.6812 31.9265C30.5419 31.8188 30.382 31.7275 30.2069 31.6557C30.0239 31.5828 29.8461 31.5027 29.6741 31.4157C29.5345 31.3418 29.0862 31.1449 28.6801 30.9726C28.389 30.8547 28.1035 30.729 27.8242 30.5959L27.7105 30.5282V29.2049C27.7105 27.9001 27.7072 27.8841 27.6163 27.9026C27.1729 27.9949 26.4371 28.0367 25.5015 28.0232L24.4961 28.0109L24.6391 28.2792C24.9103 28.7913 25.0516 29.4733 25.05 30.2561C25.05 30.5491 25.0273 30.6574 24.9314 30.8618C24.8823 30.9634 24.8352 31.0656 24.7901 31.1683C24.7723 31.2114 24.8421 31.2421 25.1052 31.3012C25.292 31.3443 25.5746 31.3886 25.7338 31.4022L26.0229 31.4243L25.9937 31.6471C25.9612 31.8995 25.9985 32.1617 26.0814 32.2454C26.1285 32.2921 26.3234 32.3094 27.2021 32.3414C27.8713 32.366 28.5957 32.4177 29.1658 32.4817C29.6611 32.5371 30.1939 32.5851 30.3514 32.5863C30.6146 32.59 30.6438 32.5826 30.7559 32.4805ZM20.6013 30.2266C20.6256 30.2143 20.6614 29.9533 20.6776 29.6468C20.728 28.7852 20.7702 28.6621 21.3436 27.6908C21.8097 26.8981 22.0598 26.1583 22.0371 25.6315L22.0241 25.3188L21.8503 25.4493C21.4816 25.7262 21.735 25.2893 22.1703 24.8991C22.5 24.6036 22.6137 24.4374 22.6689 24.1765C22.6916 24.0706 22.7452 24.0165 22.9613 23.8934C23.7766 23.4194 24.3695 22.8224 24.7528 22.0925C24.8437 21.9189 25.0744 21.3293 25.2644 20.7803C25.6185 19.7635 25.8085 19.329 25.9791 19.1394C26.044 19.0668 26.0684 19.0557 26.0521 19.1037C25.9547 19.393 25.9222 19.51 25.841 19.8879C25.789 20.123 25.6948 20.5821 25.6331 20.9071C25.5064 21.5619 25.3797 21.9854 25.2092 22.3153L25.0955 22.5344L25.4025 23.1314C25.7159 23.7432 25.8621 24.1839 25.893 24.6147L25.9092 24.851L25.6591 24.8904C25.334 24.935 25.0446 25.0736 24.8519 25.277C24.631 25.5108 24.514 25.7053 24.5709 25.7496C24.5952 25.7681 24.9071 25.8112 25.2612 25.842C25.8166 25.8912 26.0245 25.8937 26.7538 25.858C27.0686 25.8471 27.3825 25.8241 27.6942 25.789C27.7624 25.7706 27.829 25.6647 27.9444 25.3914C28.2075 24.7636 28.2578 24.5384 28.227 24.0989L28.201 23.7087L28.3342 23.5795C28.646 23.2791 28.8864 22.74 28.9838 22.1146C29.1057 21.3441 28.8864 19.7315 28.4722 18.3455C28.2773 17.6894 28.1961 17.2942 28.1961 17.0037V16.7489L27.8826 16.7736C26.7668 16.8671 25.4171 16.8413 24.5887 16.712C24.1404 16.6431 23.0035 16.392 22.7534 16.307L22.5601 16.2418L22.5325 16.408C22.5175 16.5015 22.4959 16.5944 22.4675 16.6862C22.4301 16.7908 22.4448 16.8117 22.6803 16.989C22.9726 17.2105 23.0636 17.3287 23.0636 17.4838C23.0636 17.5761 22.9905 17.6537 22.6364 17.9356C22.3766 18.1424 22.0452 18.3603 21.7918 18.4883L21.376 18.7L21.2039 19.1628C20.5639 20.8738 20.4437 22.4236 20.8628 23.5376L20.9667 23.8158L20.7637 24.0066C20.0003 24.7353 19.552 25.288 19.4838 25.5945C19.4708 25.6561 19.4059 25.8592 19.3409 26.0463C19.1785 26.5214 19.0518 27.2194 18.9966 27.974C18.9549 28.6061 18.8986 29.2377 18.8276 29.8684L18.8 30.0555L19.1168 30.1294C19.2922 30.17 19.5602 30.2192 19.7128 30.2364C19.9955 30.2709 20.5233 30.2648 20.6029 30.2266H20.6013ZM26.7619 27.5825C27.2541 27.5604 27.7056 27.5013 27.7933 27.4471C27.8307 27.425 27.8745 27.324 27.8908 27.2255L27.9184 27.0434L27.5286 27.1086C27.2188 27.154 26.9059 27.1861 26.5914 27.2046C25.8426 27.2297 25.0924 27.2132 24.3467 27.1554C24.0998 27.1271 24.0982 27.1283 24.1794 27.3733C24.2395 27.5579 24.2525 27.5628 24.9022 27.601C25.3342 27.6256 25.932 27.6207 26.7619 27.5825ZM26.3478 26.7455C26.9909 26.7049 27.7998 26.6002 27.9557 26.5362C28.0061 26.5153 28.0548 26.4451 28.0727 26.3651L28.1311 26.1091L28.1604 25.9872L28.0044 26.0118C27.3012 26.1238 26.7668 26.1571 25.6981 26.1571C24.6602 26.1571 24.5416 26.1497 24.2688 26.0795C24.1627 26.045 24.0494 26.025 23.9342 26.0204C23.8887 26.0414 23.8854 26.3159 23.9261 26.5067C23.9504 26.6236 23.9748 26.6433 24.1291 26.6765C24.6115 26.775 25.4219 26.8009 26.3478 26.7442V26.7455ZM14.5738 22.4088C16.198 22.0568 18.3225 21.0093 20.0588 19.7044C20.6273 19.2761 20.6922 19.2158 20.7686 19.0274L20.8725 18.7825C20.8839 18.7628 20.7816 18.7271 20.6484 18.7025C20.2976 18.6384 20.0361 18.4883 20.0328 18.3479C20.0328 18.2667 19.9678 18.1855 19.7892 18.034C19.4855 17.778 19.4107 17.6672 19.3783 17.4223L19.3523 17.2278L19.0014 17.0333C18.8 16.9225 18.0854 16.6246 17.3317 16.3378C16.7573 16.1248 16.1943 15.8945 15.6442 15.6472C15.0107 15.3223 14.5836 14.9382 14.3448 14.4815C14.2977 14.388 14.2425 14.3117 14.223 14.3117C14.1694 14.3117 12.745 15.358 12.1343 15.8467C10.6335 17.0493 9.59562 18.0931 8.94431 19.0594C8.78189 19.2995 8.60323 19.5826 8.55125 19.6884L8.4538 19.8817L8.57237 20.2017C8.63733 20.3778 8.78351 20.6609 8.89721 20.8295C9.29676 21.4253 9.77591 21.786 10.5604 22.0789C11.405 22.3953 12.1521 22.5049 13.4028 22.4938C14.0784 22.4876 14.2717 22.4753 14.5738 22.4088ZM1.75392 18.1953C2.82103 17.4789 4.29257 16.6935 6.09707 15.8787C7.27787 15.3457 11.8354 13.6174 13.9355 12.9071C14.3156 12.7779 14.6599 12.6597 14.6989 12.6425C14.7363 12.6265 14.8467 12.4209 14.9442 12.1883C15.3924 11.1186 15.6133 10.9069 16.4189 10.769C16.5213 10.7518 16.5456 10.7271 16.5456 10.6471C16.5456 10.5117 16.6723 10.1867 16.7811 10.0427C16.8623 9.93194 16.864 9.92579 16.7893 9.94179C16.7454 9.95287 16.4807 10.0107 16.1997 10.0723C12.334 10.9179 8.95243 12.0418 6.0321 13.4475C2.91361 14.9493 1.12373 16.7465 0.602355 18.8994L0.563374 19.0594L0.940191 18.7751C1.14647 18.6187 1.51354 18.3566 1.75392 18.1953ZM30.4651 18.6015C30.7737 18.4809 31.2561 17.927 31.4348 17.4912C31.488 17.3366 31.5894 17.1939 31.7304 17.0751C32.2047 16.6812 32.5928 15.9611 32.5945 15.47C32.5945 14.7068 32.0276 14.4126 31.1928 14.7413C31.0888 14.7819 30.9962 14.809 30.9865 14.8003C30.9394 14.7646 31.1765 14.5911 31.4575 14.4557C31.836 14.271 31.9074 14.1603 31.9074 13.759C31.9074 13.4254 31.7954 13.1521 31.542 12.8567C31.4283 12.7274 31.3828 12.6388 31.4007 12.5883L31.5176 12.2634C31.6735 11.8362 31.6167 11.3475 31.3747 11.0361C31.006 10.5622 30.5528 10.3308 29.9226 10.2951L29.5572 10.2741L29.7748 10.4551C30.4115 10.9832 30.7218 11.6405 30.5999 12.203C30.5366 12.4886 30.4749 12.5477 30.1078 12.661L29.8967 12.7262L29.921 12.9465C29.9632 13.3097 29.882 13.5719 29.5767 14.0605C29.4256 14.3043 29.3103 14.5234 29.3217 14.5468C29.3623 14.6292 29.7765 14.7868 30.1062 14.8471L30.431 14.9062L30.228 14.9554C29.9665 15.0207 29.9064 15.1105 29.9048 15.4441C29.9048 15.7457 29.9616 15.87 30.2572 16.2024C30.3872 16.3476 30.4765 16.4941 30.4911 16.5815C30.5155 16.7182 30.5074 16.7268 30.3612 16.7674C30.1966 16.801 30.0279 16.8217 29.8577 16.8289C29.2616 16.8573 29.2161 16.8696 28.9514 17.0628C28.7077 17.2389 28.7029 17.2487 28.7029 17.4407C28.7029 17.7054 28.8328 18.2347 28.9173 18.3073C29.0212 18.3972 29.6254 18.6212 29.8593 18.6557C30.0633 18.6927 30.2781 18.6735 30.4651 18.6015ZM21.6781 18.2396C22.0663 18.0094 22.3684 17.7792 22.5422 17.5811C22.6478 17.4604 22.6543 17.437 22.6007 17.3386C22.5162 17.1822 21.9331 16.7846 21.6083 16.6652C21.393 16.5906 21.1641 16.5408 20.9294 16.5175L20.5298 16.4757L20.2797 16.2393C19.7697 15.7593 19.4838 15.3863 19.0745 14.6612C18.7237 14.0433 18.4102 13.6826 17.9165 13.3294C17.7134 13.1841 17.564 13.0647 17.5819 13.0647C17.6014 13.0647 17.8434 13.1546 18.1227 13.2654C18.5905 13.4512 18.6441 13.4648 18.8553 13.4451C19.6105 13.3761 20.2732 12.7176 20.5185 11.7956C20.5883 11.5322 20.7247 11.2675 20.8725 11.11C20.879 11.1038 21.1681 11.2515 21.5141 11.4386C22.3814 11.9064 22.5731 11.9753 23.0652 11.9901C23.3933 11.9999 23.5752 11.9802 24.1567 11.8744C25.3992 11.6454 26.7457 11.5519 27.5675 11.6368C28.0304 11.6848 28.6915 11.8375 29.1917 12.0135C29.6806 12.1858 29.7748 12.1957 29.934 12.0898C30.0639 12.0036 30.0656 11.9913 30.0639 11.6688C30.0607 11.1937 29.8301 10.6791 29.4792 10.3726C29.3006 10.2138 28.8052 9.9541 28.3098 9.75592C28.1313 9.68493 27.9542 9.61188 27.7787 9.53681C27.548 9.43464 27.2768 9.44695 26.5573 9.59097C25.7208 9.75715 25.4983 9.75469 24.5384 9.56881C23.7279 9.41125 23.6743 9.40879 22.8784 9.50357C22.4545 9.55404 21.3874 9.5245 21.0301 9.4531C20.8519 9.41583 20.6758 9.37312 20.5022 9.32509C20.1936 9.23769 19.6544 9.22292 19.1671 9.28816C18.1926 9.41987 17.4552 9.81746 17.1888 10.3591C17.0524 10.6348 17.0702 10.7641 17.257 10.8527C17.5445 10.9906 17.9327 11.3709 17.9327 11.5174C17.9327 11.5297 17.8417 11.4669 17.7297 11.3783C17.4601 11.1641 17.2099 11.0693 16.9176 11.0693C16.7285 11.0725 16.5444 11.116 16.3864 11.1948C16.2284 11.2736 16.1029 11.3846 16.0243 11.5149C15.9393 11.684 15.8671 11.8566 15.8082 12.0319C15.6296 12.5268 15.4736 12.7853 15.1391 13.1299C14.837 13.4414 14.7963 13.5805 14.9019 13.9313C15.1683 14.8163 15.6296 15.1758 17.564 16.0067C18.5791 16.4424 19.1038 16.6874 19.4838 16.904C19.7746 17.0678 19.7827 17.0764 19.7567 17.2032C19.6966 17.49 19.9386 17.8063 20.4161 18.0587C20.5379 18.1227 20.6143 18.1904 20.6143 18.2347C20.6143 18.3233 20.9326 18.444 21.1714 18.444C21.3013 18.444 21.4069 18.4021 21.6798 18.2396H21.6781ZM29.4987 16.6221C30.2361 16.6382 30.2767 16.5988 29.8804 16.2516C29.4679 15.8885 29.3558 15.5968 29.5068 15.2743L29.5669 15.1487L29.3087 15.0527C29.2236 15.0181 29.135 14.9884 29.0439 14.9641C28.9978 15.0906 28.955 15.2178 28.9156 15.3457C28.8214 15.6411 28.7045 16.3993 28.7029 16.7243C28.7029 16.7526 28.7646 16.7403 28.8734 16.6899C29.0228 16.6222 29.1008 16.6135 29.4987 16.6221ZM27.0332 16.5914C27.4766 16.5729 27.9362 16.5471 28.0564 16.5348L28.2741 16.5126L28.3017 15.9562C28.339 15.1684 28.4885 14.7031 28.94 13.9596C29.2616 13.4303 29.3964 12.9662 29.3298 12.6228C29.3006 12.4726 29.2892 12.4628 29.0245 12.3754C28.5359 12.2286 28.027 12.1241 27.5074 12.0639C27.0039 12.0086 25.5356 12.0406 24.9818 12.1193C24.7544 12.1513 24.337 12.2178 24.056 12.2683C23.3641 12.3914 22.997 12.3754 22.4708 12.2006C21.951 12.027 21.6197 11.8707 21.3062 11.6491C21.0609 11.4756 21.0382 11.4669 20.9716 11.5248C20.9229 11.5679 20.8953 11.6971 20.879 11.9778C20.8563 12.4049 20.7718 12.6302 20.5217 12.9342C20.4658 12.9958 20.419 13.0619 20.382 13.1312C20.382 13.146 20.5753 13.3109 20.8108 13.4955C21.6213 14.1356 22.0192 14.3006 22.6592 14.2637C22.8703 14.2513 23.0165 14.2563 23.0165 14.276C23.0165 14.3117 22.6039 14.5591 22.4301 14.628C22.3522 14.6588 22.3327 14.6933 22.3457 14.7671L22.4431 15.2693C22.5016 15.5598 22.5471 15.6916 22.6056 15.7309C22.7566 15.8294 23.5427 16.1372 24.0349 16.2873C24.6862 16.488 25.037 16.5594 25.5356 16.5914C26.1415 16.6295 26.1545 16.6295 27.0332 16.5914ZM21.787 16.0658C21.8 16.0473 21.7512 15.7703 21.6733 15.4478C21.5709 15.0096 21.5141 14.8508 21.4507 14.8102C21.402 14.7807 21.1698 14.6526 20.9326 14.5258C20.6266 14.3546 20.3352 14.1688 20.0604 13.9695L19.6203 13.6445L19.3896 13.7368L19.1395 13.839C19.1612 13.9144 19.1961 13.9873 19.2434 14.0556C19.3084 14.1701 19.4481 14.4532 19.552 14.6834C19.82 15.2853 20.0247 15.5734 20.5526 16.0965L20.754 16.2947L21.1275 16.339C21.3322 16.3637 21.545 16.3957 21.6002 16.4117C21.6911 16.4375 21.7025 16.4264 21.7301 16.2701C21.7383 16.2006 21.7569 16.1321 21.7853 16.0658H21.787ZM29.8236 10.0833C30.1484 10.06 30.2036 10.0218 30.0623 9.91348C29.9779 9.84824 29.7716 9.84085 29.6075 9.89871C29.4971 9.93687 29.4744 9.92825 29.3038 9.78792C29.1252 9.63775 29.1154 9.63405 28.8913 9.65498C28.6882 9.67344 28.6574 9.66729 28.6314 9.60451C28.5509 9.50226 28.4525 9.40869 28.339 9.32632C28.1955 9.20132 28.0145 9.10423 27.8112 9.0432C27.4165 8.92995 27.1972 8.94226 26.822 9.09859C25.7387 9.54789 25.7825 9.54296 24.7382 9.34109C23.7588 9.15152 23.0262 8.96319 22.794 8.84009C22.5991 8.73792 22.1784 8.63083 21.8308 8.5939C21.5709 8.56682 21.402 8.6099 21.1551 8.76623L21.0252 8.84748L21.1421 9.00504C21.3078 9.22784 21.2916 9.24015 21.0414 9.0789C20.7767 8.90656 20.4616 8.79085 20.2537 8.78962C20.1091 8.78962 19.6771 8.93118 19.6251 8.99642C19.6105 9.01365 19.7437 9.03704 19.9191 9.04935C20.1059 9.06166 20.3593 9.10844 20.5298 9.16383C20.9716 9.30662 21.2022 9.3534 21.6083 9.3854C22.0517 9.41741 22.8606 9.37925 22.9531 9.32016C23.0002 9.28939 23.1399 9.28446 23.4339 9.3017C23.8205 9.32385 23.9813 9.35093 24.9006 9.53927C25.4333 9.65006 25.8069 9.64144 26.442 9.50727C26.7343 9.44572 27.1014 9.38417 27.2557 9.37186C27.5156 9.35094 27.5675 9.35955 27.9703 9.49865C28.62 9.72022 28.9611 9.86301 29.1528 9.99103C29.3428 10.1141 29.3639 10.1178 29.8236 10.0846V10.0833ZM26.2048 9.24138L26.5914 9.08874L26.5833 8.78716C26.5769 8.58389 26.565 8.38074 26.5475 8.17784L26.5199 7.86887L26.1334 8.09537C25.9043 8.23077 25.6818 8.33171 25.5827 8.34525C25.305 8.38587 23.9325 8.34525 23.8026 8.29355C23.6335 8.19755 23.4754 8.0909 23.33 7.97473L22.9726 7.70393L22.9678 7.86395C22.9678 7.95012 22.9499 8.10029 22.9288 8.19384C22.8931 8.36371 22.8963 8.36864 23.1399 8.60375C23.2764 8.73546 23.3868 8.8524 23.3868 8.86471C23.3868 8.95826 25.2189 9.38909 25.6315 9.39402C25.763 9.39402 25.9303 9.3497 26.2048 9.24138ZM25.4707 8.14707C25.9287 8.0806 26.1528 7.82948 26.3201 7.19554C26.4988 6.5136 26.5898 5.44144 26.5037 4.98353C26.4273 4.57239 25.8231 4.38652 24.6586 4.41606C23.9374 4.43452 23.6386 4.48869 23.3933 4.64625C23.2406 4.74472 23.2374 4.75334 23.1708 5.20879C23.0409 6.084 23.2293 7.33095 23.5606 7.79994C23.7182 8.0252 23.8595 8.10768 24.1534 8.1446C24.4832 8.18769 25.1848 8.18892 25.4707 8.14707Z" fill="white" stroke="white" stroke-width="0.6" mask="url(#path-2-inside-1_9_52)"/>
</svg>
