<svg width="101" height="37" viewBox="0 0 101 37" fill="none" xmlns="http://www.w3.org/2000/svg">
<path d="M51.5459 9.37305C52.5876 9.35677 53.4421 9.54395 54.1094 9.93457C54.793 10.3252 55.3464 10.7891 55.7695 11.3262C56.1927 11.8633 56.5182 12.4085 56.7461 12.9619C56.974 13.499 57.153 13.9222 57.2832 14.2314C57.3158 14.3128 57.3809 14.4186 57.4785 14.5488C57.5599 14.6628 57.6738 14.8011 57.8203 14.9639C57.9831 15.1104 58.1865 15.2812 58.4307 15.4766C57.9261 15.4928 57.4785 15.5091 57.0879 15.5254C56.6973 15.5254 56.3636 15.5335 56.0869 15.5498C55.7777 15.5661 55.501 15.5824 55.2568 15.5986C55.0127 15.6149 54.7116 15.6393 54.3535 15.6719C54.028 15.7044 53.6292 15.737 53.1572 15.7695C52.6852 15.8021 52.1074 15.8509 51.4238 15.916C51.8307 15.4277 52.1481 14.9964 52.376 14.6221C52.6201 14.2314 52.7992 13.8896 52.9131 13.5967C53.0433 13.2874 53.1165 13.0189 53.1328 12.791C53.1654 12.5632 53.1572 12.3678 53.1084 12.2051C53.0107 11.8307 52.7585 11.5622 52.3516 11.3994C51.1797 11.0739 50.1543 11.3343 49.2754 12.1807C48.4128 13.0107 47.7943 14.3779 47.4199 16.2822C47.2409 17.2262 47.07 18.2109 46.9072 19.2363C46.7607 20.2454 46.7038 21.1732 46.7363 22.0195C46.7689 22.8496 46.9316 23.5251 47.2246 24.0459C47.5176 24.5667 48.0221 24.8109 48.7383 24.7783C49.4382 24.7458 50.0322 24.6318 50.5205 24.4365C51.0088 24.2249 51.3994 23.9808 51.6924 23.7041C51.9854 23.4111 52.1888 23.1019 52.3027 22.7764C52.4329 22.4346 52.4818 22.1172 52.4492 21.8242C52.3841 21.5964 52.2132 21.3522 51.9365 21.0918C51.6924 20.8639 51.3262 20.6117 50.8379 20.335C50.3496 20.042 49.6497 19.7409 48.7383 19.4316C49.6009 19.3828 50.3089 19.3503 50.8623 19.334C51.432 19.3014 51.8796 19.2689 52.2051 19.2363C52.5957 19.2038 52.8968 19.1794 53.1084 19.1631C53.3037 19.1468 53.5885 19.1305 53.9629 19.1143C54.2884 19.098 54.7035 19.0898 55.208 19.0898C55.7288 19.0898 56.3799 19.0817 57.1611 19.0654C56.8682 19.3584 56.6403 19.627 56.4775 19.8711C56.3962 20.0013 56.3229 20.1152 56.2578 20.2129C56.1927 20.3757 56.1683 20.7093 56.1846 21.2139C56.1846 21.637 56.2171 22.2637 56.2822 23.0938C56.3473 23.9076 56.4694 25.0225 56.6484 26.4385L53.4014 26.8779L53.5479 23.582C53.1735 24.4772 52.7015 25.1445 52.1318 25.584C51.5785 26.0234 51.0495 26.3327 50.5449 26.5117C49.9427 26.7233 49.3161 26.821 48.665 26.8047C47.8187 26.7233 46.9723 26.528 46.126 26.2188C45.2796 25.9095 44.5309 25.4375 43.8799 24.8027C43.2288 24.1517 42.7243 23.3135 42.3662 22.2881C42.0244 21.2627 41.9186 19.9932 42.0488 18.4795C42.1953 16.9658 42.5534 15.6475 43.123 14.5244C43.709 13.3851 44.4333 12.4411 45.2959 11.6924C46.1585 10.9437 47.127 10.3822 48.2012 10.0078C49.2917 9.61719 50.4066 9.4056 51.5459 9.37305ZM69.1973 13.0596C69.0508 13.4176 68.9206 13.7432 68.8066 14.0361C68.709 14.3291 68.6195 14.5895 68.5381 14.8174C68.4567 15.0778 68.3835 15.3057 68.3184 15.501C68.2533 15.7288 68.18 15.9893 68.0986 16.2822C68.0173 16.5426 67.9115 16.8682 67.7812 17.2588C67.6673 17.6331 67.529 18.0807 67.3662 18.6016C67.236 17.8203 67 17.2018 66.6582 16.7461C66.3164 16.2741 65.9665 15.9079 65.6084 15.6475C65.1852 15.3545 64.7295 15.1429 64.2412 15.0127C63.3623 14.8662 62.7275 14.8825 62.3369 15.0615C61.9463 15.2406 61.6859 15.4684 61.5557 15.7451C61.4906 15.859 61.4173 16.0055 61.3359 16.1846C61.2708 16.3473 61.2139 16.5182 61.165 16.6973C61.1325 16.8763 61.1243 17.0553 61.1406 17.2344C61.1569 17.4134 61.2301 17.5599 61.3604 17.6738C61.4417 17.7552 61.6533 17.8691 61.9951 18.0156C62.3369 18.1458 62.7438 18.3005 63.2158 18.4795C63.7041 18.6423 64.2168 18.8213 64.7539 19.0166C65.3073 19.2119 65.8281 19.4072 66.3164 19.6025C66.8047 19.7979 67.2279 19.9932 67.5859 20.1885C67.944 20.3838 68.18 20.5628 68.2939 20.7256C68.3916 20.8883 68.4974 21.1081 68.6113 21.3848C68.7415 21.6452 68.8311 21.9382 68.8799 22.2637C68.945 22.5729 68.9613 22.8984 68.9287 23.2402C68.9124 23.5658 68.8229 23.8913 68.6602 24.2168C68.4974 24.5423 68.237 24.8434 67.8789 25.1201C67.5371 25.3968 67.0732 25.6247 66.4873 25.8037C65.8037 26.0153 65.1445 26.0723 64.5098 25.9746C63.875 25.877 63.2891 25.7305 62.752 25.5352C62.2311 25.3398 61.7754 25.1527 61.3848 24.9736C60.9941 24.7783 60.7174 24.6969 60.5547 24.7295C60.3757 24.762 60.1722 24.8516 59.9443 24.998C59.7165 25.1445 59.4967 25.2992 59.2852 25.4619C59.0898 25.6084 58.9189 25.7467 58.7725 25.877C58.626 25.9909 58.5527 26.0316 58.5527 25.999C58.5527 25.9665 58.5771 25.8688 58.626 25.7061C58.6911 25.5433 58.7562 25.348 58.8213 25.1201C58.9027 24.876 58.9759 24.6156 59.041 24.3389C59.1224 24.0459 59.1794 23.7692 59.2119 23.5088C59.2445 23.2972 59.2852 23.0368 59.334 22.7275C59.3665 22.4508 59.4072 22.1172 59.4561 21.7266C59.5212 21.3197 59.5944 20.8314 59.6758 20.2617C59.7572 20.6849 59.8711 21.0511 60.0176 21.3604C60.1803 21.6696 60.335 21.9382 60.4814 22.166C60.6605 22.4264 60.8314 22.6462 60.9941 22.8252C61.2383 23.0531 61.5231 23.2646 61.8486 23.46C62.1904 23.6553 62.5322 23.8262 62.874 23.9727C63.2158 24.1029 63.5413 24.1842 63.8506 24.2168C64.1598 24.2493 64.4202 24.2168 64.6318 24.1191C64.8434 24.0215 65.0225 23.8424 65.1689 23.582C65.3317 23.3216 65.4456 23.0368 65.5107 22.7275C65.5758 22.4183 65.6003 22.1253 65.584 21.8486C65.5677 21.5557 65.4945 21.3197 65.3643 21.1406C65.2666 21.0267 65.0387 20.8802 64.6807 20.7012C64.3389 20.5221 63.9238 20.3268 63.4355 20.1152C62.9635 19.9036 62.459 19.6839 61.9219 19.4561C61.401 19.2282 60.9046 19.0003 60.4326 18.7725C59.9769 18.5283 59.5944 18.3005 59.2852 18.0889C58.9922 17.861 58.8294 17.6576 58.7969 17.4785C58.7643 17.2181 58.7399 16.9333 58.7236 16.624C58.7074 16.2985 58.7236 15.9811 58.7725 15.6719C58.8376 15.3464 58.9515 15.0371 59.1143 14.7441C59.2933 14.4512 59.5537 14.207 59.8955 14.0117C60.1234 13.8815 60.4245 13.7839 60.7988 13.7188C61.1732 13.6536 61.5882 13.6211 62.0439 13.6211C62.4997 13.6048 62.9717 13.6211 63.46 13.6699C63.9482 13.7025 64.4121 13.7513 64.8516 13.8164C65.3073 13.8652 65.7142 13.9303 66.0723 14.0117C66.4466 14.0931 66.7314 14.1663 66.9268 14.2314C67.1546 14.3128 67.3988 14.321 67.6592 14.2559C67.887 14.207 68.1312 14.1012 68.3916 13.9385C68.652 13.7757 68.9206 13.4827 69.1973 13.0596ZM71.9072 17.1123C71.9886 17.0146 72.0374 16.8356 72.0537 16.5752C72.0863 16.2985 72.1514 15.9893 72.249 15.6475C72.363 15.3057 72.5501 14.9476 72.8105 14.5732C73.071 14.1989 73.4941 13.849 74.0801 13.5234C74.6497 13.1979 75.2031 13.0026 75.7402 12.9375C76.2773 12.8724 76.79 12.8968 77.2783 13.0107C77.7666 13.1247 78.2223 13.3037 78.6455 13.5479C79.085 13.792 79.4837 14.0605 79.8418 14.3535C80.0859 14.5488 80.2812 14.8337 80.4277 15.208C80.5742 15.5661 80.6882 15.973 80.7695 16.4287C80.8509 16.8844 80.9079 17.3646 80.9404 17.8691C80.9893 18.3574 81.0218 18.8376 81.0381 19.3096C81.0544 19.7653 81.0625 20.1885 81.0625 20.5791C81.0788 20.9535 81.1113 21.2627 81.1602 21.5068C81.2253 21.8649 81.3392 22.1742 81.502 22.4346C81.6647 22.6787 81.8438 22.8903 82.0391 23.0693C82.2344 23.2321 82.4297 23.3623 82.625 23.46C82.8203 23.5576 82.9912 23.6309 83.1377 23.6797C83.2354 23.7285 83.3249 23.7611 83.4062 23.7773C83.569 23.8424 83.6829 23.8424 83.748 23.7773C83.6504 24.0052 83.5609 24.2005 83.4795 24.3633C83.3981 24.526 83.333 24.6644 83.2842 24.7783C83.2191 24.9085 83.1621 25.0143 83.1133 25.0957C83.0645 25.1934 83.0075 25.2829 82.9424 25.3643C82.8936 25.4456 82.8285 25.5352 82.7471 25.6328C82.6657 25.7305 82.5843 25.8363 82.5029 25.9502C82.2913 25.8688 82.0879 25.7712 81.8926 25.6572C81.7135 25.5433 81.5508 25.4375 81.4043 25.3398C81.2253 25.2259 81.0625 25.112 80.916 24.998C80.7695 24.8841 80.6312 24.7539 80.501 24.6074C80.387 24.4772 80.265 24.3389 80.1348 24.1924C80.0208 24.0459 79.9232 23.8831 79.8418 23.7041C79.7441 23.9157 79.5081 24.2168 79.1338 24.6074C78.7757 24.998 78.3037 25.3561 77.7178 25.6816C77.1318 25.9909 76.4482 26.2106 75.667 26.3408C74.902 26.471 74.0557 26.3815 73.1279 26.0723C72.721 25.9421 72.3385 25.7549 71.9805 25.5107C71.6224 25.2503 71.3132 24.9411 71.0527 24.583C70.8086 24.2249 70.6296 23.818 70.5156 23.3623C70.418 22.8903 70.4261 22.3695 70.54 21.7998C70.654 21.2301 70.8574 20.75 71.1504 20.3594C71.4434 19.9688 71.7933 19.6514 72.2002 19.4072C72.6071 19.1631 73.0628 18.9759 73.5674 18.8457C74.0719 18.7155 74.5928 18.626 75.1299 18.5771C75.5531 18.5609 75.9762 18.5853 76.3994 18.6504C76.7575 18.7155 77.1318 18.8376 77.5225 19.0166C77.9131 19.1794 78.2467 19.4316 78.5234 19.7734C78.5072 18.9108 78.4746 18.2272 78.4258 17.7227C78.3932 17.2018 78.3607 16.8031 78.3281 16.5264C78.263 16.2008 78.2061 15.973 78.1572 15.8428C78.0758 15.7288 77.9863 15.5986 77.8887 15.4521C77.8073 15.3057 77.7015 15.1755 77.5713 15.0615C77.4411 14.9313 77.2783 14.8255 77.083 14.7441C76.8877 14.6628 76.6598 14.6302 76.3994 14.6465C76.1227 14.6628 75.903 14.736 75.7402 14.8662C75.5775 14.9964 75.4473 15.151 75.3496 15.3301C75.2682 15.4928 75.2194 15.6719 75.2031 15.8672C75.1868 16.0625 75.195 16.2334 75.2275 16.3799C75.2601 16.4775 75.3089 16.5833 75.374 16.6973C75.4391 16.7949 75.5286 16.9007 75.6426 17.0146C75.7565 17.1286 75.9111 17.2262 76.1064 17.3076C75.7321 17.3564 75.3984 17.3971 75.1055 17.4297C74.8125 17.446 74.5602 17.4704 74.3486 17.5029C74.1045 17.5355 73.8929 17.5599 73.7139 17.5762C73.5348 17.5924 73.3232 17.625 73.0791 17.6738C72.8675 17.7064 72.6071 17.7471 72.2979 17.7959C71.9886 17.8447 71.6305 17.9098 71.2236 17.9912C71.3213 17.8773 71.4108 17.7715 71.4922 17.6738C71.5736 17.5599 71.6468 17.4622 71.7119 17.3809C71.777 17.2832 71.8421 17.1937 71.9072 17.1123ZM75.5693 20.0176C75.2764 20.0339 74.9834 20.1071 74.6904 20.2373C74.3975 20.3512 74.137 20.5221 73.9092 20.75C73.6813 20.9616 73.486 21.2139 73.3232 21.5068C73.1768 21.7835 73.1035 22.0928 73.1035 22.4346C73.1035 22.7764 73.1849 23.0775 73.3477 23.3379C73.5267 23.582 73.7546 23.7855 74.0312 23.9482C74.3242 24.111 74.6335 24.2087 74.959 24.2412C75.3008 24.2738 75.6344 24.2412 75.96 24.1436C76.2692 24.0296 76.5622 23.8506 76.8389 23.6064C77.1156 23.346 77.3516 23.0693 77.5469 22.7764C77.7422 22.4671 77.8805 22.166 77.9619 21.873C78.0433 21.5638 78.0514 21.3115 77.9863 21.1162C77.8561 20.693 77.5632 20.4001 77.1074 20.2373C76.6517 20.0583 76.139 19.985 75.5693 20.0176ZM82.7715 15.623C83.2923 15.5417 83.7155 15.4766 84.041 15.4277C84.3828 15.3626 84.6595 15.3138 84.8711 15.2812C85.1152 15.2324 85.3024 15.1917 85.4326 15.1592C85.5628 15.1266 85.75 15.0778 85.9941 15.0127C86.2057 14.9476 86.4824 14.8743 86.8242 14.793C87.166 14.6953 87.5973 14.5651 88.1182 14.4023C87.988 14.5651 87.8822 14.7116 87.8008 14.8418C87.7357 14.9557 87.6706 15.0534 87.6055 15.1348C87.5404 15.2324 87.4834 15.3219 87.4346 15.4033C87.3857 15.4847 87.3369 15.6068 87.2881 15.7695C87.2555 15.8997 87.2148 16.0869 87.166 16.3311C87.1172 16.5589 87.0765 16.86 87.0439 17.2344C87.9229 16.681 88.7285 16.266 89.4609 15.9893C90.2096 15.7126 90.8607 15.5173 91.4141 15.4033C92.0651 15.2731 92.651 15.2243 93.1719 15.2568C93.8229 15.3057 94.4251 15.4521 94.9785 15.6963C95.5482 15.9242 96.0609 16.2008 96.5166 16.5264C96.9723 16.8519 97.3711 17.21 97.7129 17.6006C98.0547 17.9912 98.3232 18.3818 98.5186 18.7725C98.6488 19.0329 98.7301 19.4072 98.7627 19.8955C98.8115 20.3838 98.7627 20.9046 98.6162 21.458C98.4697 22.0114 98.2093 22.5566 97.835 23.0938C97.4769 23.6146 96.9642 24.0296 96.2969 24.3389C95.1413 24.8597 93.9938 25.1527 92.8545 25.2178C92.3662 25.2503 91.8617 25.234 91.3408 25.1689C90.8363 25.1038 90.3236 24.9655 89.8027 24.7539C89.2982 24.5423 88.8099 24.2412 88.3379 23.8506C87.8659 23.4437 87.4346 22.9229 87.0439 22.2881C86.9137 23.1182 86.8161 23.8424 86.751 24.4609C86.7021 25.0632 86.6696 25.5677 86.6533 25.9746C86.637 26.4466 86.637 26.8454 86.6533 27.1709C86.6859 27.4964 86.751 27.8464 86.8486 28.2207C86.93 28.5462 87.0439 28.9206 87.1904 29.3438C87.3532 29.7832 87.5566 30.2389 87.8008 30.7109C87.7031 30.6784 87.5648 30.654 87.3857 30.6377C87.223 30.6377 87.0521 30.654 86.873 30.6865C86.6777 30.7191 86.458 30.7516 86.2139 30.7842C85.986 30.833 85.7337 30.89 85.457 30.9551C85.2292 31.0039 84.9606 31.0609 84.6514 31.126C84.3584 31.2074 84.0573 31.2969 83.748 31.3945C83.9271 31.1829 84.0654 30.9388 84.1631 30.6621C84.277 30.4017 84.3665 30.1576 84.4316 29.9297C84.4967 29.653 84.5537 29.3763 84.6025 29.0996C84.6188 28.8555 84.6432 28.3916 84.6758 27.708C84.7246 27.0407 84.7653 26.2676 84.7979 25.3887C84.8304 24.4935 84.8548 23.5576 84.8711 22.5811C84.9036 21.6045 84.9199 20.7012 84.9199 19.8711C84.9362 19.0247 84.9362 18.3086 84.9199 17.7227C84.9036 17.1367 84.8711 16.7949 84.8223 16.6973C84.7572 16.5833 84.6351 16.4613 84.4561 16.3311C84.3096 16.2171 84.098 16.1032 83.8213 15.9893C83.5609 15.8753 83.2109 15.7533 82.7715 15.623ZM88.582 20.0664C88.4681 20.4408 88.4437 20.807 88.5088 21.165C88.5739 21.5231 88.7367 21.8568 88.9971 22.166C89.2738 22.4753 89.6562 22.752 90.1445 22.9961C90.6491 23.224 91.2757 23.3949 92.0244 23.5088C92.7731 23.6227 93.3428 23.6064 93.7334 23.46C94.124 23.3135 94.4089 23.0856 94.5879 22.7764C94.7832 22.4508 94.9134 22.0765 94.9785 21.6533C95.0436 21.2139 95.125 20.7581 95.2227 20.2861C95.3203 19.8304 95.304 19.3665 95.1738 18.8945C95.0436 18.4062 94.8564 17.9668 94.6123 17.5762C94.3844 17.1855 94.124 16.8682 93.8311 16.624C93.5544 16.3636 93.3102 16.2334 93.0986 16.2334C92.5941 16.2334 92.0977 16.3636 91.6094 16.624C91.1211 16.8844 90.6735 17.21 90.2666 17.6006C89.8597 17.9912 89.5016 18.4144 89.1924 18.8701C88.8994 19.3096 88.696 19.7083 88.582 20.0664Z" fill="white"/>
<path d="M19.8926 35.9651C19.3875 35.8876 18.8547 35.6728 18.5608 35.4316C18.3552 35.2407 18.2399 34.9855 18.2392 34.7197C18.2392 34.4566 18.3853 34.0765 18.6322 33.7023C18.7743 33.4883 18.8882 33.2602 18.9717 33.0226C19.0204 32.8574 19.1276 32.5841 19.2104 32.413L19.3582 32.1032L19.3972 30.0041C19.4183 28.8493 19.4573 27.7734 19.4833 27.6097C19.5674 27.1297 19.705 26.6586 19.8942 26.2035L20.0307 25.898L19.8309 25.7913C19.6441 25.6904 19.4898 25.5457 18.8888 24.9026C18.1466 24.1132 17.1721 23.6805 15.7899 23.5285C15.336 23.49 14.881 23.4622 14.4255 23.4452C12.392 23.3604 11.2323 22.9789 10.1863 22.0536C9.4067 21.3607 8.99902 20.5553 8.83335 19.3698C8.60921 17.7648 8.36233 16.9389 7.90755 16.2709C7.79609 16.1066 7.66718 15.9524 7.52261 15.8105L7.33745 15.6453L6.9314 15.8792C6.70563 16.0078 6.39703 16.1759 6.24436 16.2519C5.73995 16.5019 5.25386 16.7807 4.78906 17.0866C3.65861 17.8277 2.41933 18.7559 1.74041 19.3698C1.43506 19.6446 1.27426 19.7601 1.2093 19.7528C0.741522 19.69 1.1021 17.8818 1.85248 16.5223C2.81889 14.7726 4.43985 13.1559 6.32232 12.0625C7.86532 11.1665 10.3585 9.93423 11.5133 9.50009C13.5598 8.72974 16.2105 7.89508 18.0264 7.44925C18.4097 7.3557 18.6452 7.27092 18.8011 7.17152C19.1585 6.94787 19.5061 6.84262 19.9072 6.83531C20.2418 6.83093 20.2743 6.8207 20.5975 6.63067C20.9792 6.40848 21.088 6.39386 21.4713 6.51373L21.7215 6.59412L22.0252 6.40848L22.3306 6.22284L22.7691 6.23161C23.1021 6.23746 23.2547 6.22138 23.3977 6.16437C23.5828 6.09128 23.5893 6.08251 23.6413 5.80624C23.7582 5.21277 23.7712 4.91457 23.7014 4.5579C23.6072 4.0843 23.5991 2.24249 23.6884 1.88436C23.7842 1.49553 23.8459 1.41806 24.1675 1.27481C24.6499 1.05993 25.0105 1 25.8437 1C26.8572 1 27.3705 1.12279 27.7506 1.45314C28.0949 1.75426 28.1534 2.44713 27.9731 4.0843C27.8691 5.02274 27.8561 5.28732 27.8837 5.90272C27.9 6.29885 27.9276 6.66867 27.9438 6.72276C27.9714 6.81777 27.9958 6.82362 28.3645 6.83093C28.7235 6.83677 28.7868 6.85139 29.1295 7.01365C29.4609 7.16859 29.7077 7.3557 29.7565 7.48872C29.7662 7.51795 29.8214 7.51941 29.9254 7.4931C30.117 7.44194 30.2908 7.49749 30.4273 7.65243C30.5101 7.74745 30.5621 7.76645 30.757 7.76645C31.0168 7.76645 31.1078 7.822 31.3238 8.1085C31.4254 8.23653 31.5634 8.33753 31.7234 8.40085C32.0807 8.56164 32.5598 9.00601 32.7466 9.35683C33.0309 9.88599 33.091 10.4926 32.9107 11.0437C32.8457 11.2483 32.8457 11.2557 32.9789 11.4559C33.2615 11.8798 33.3638 12.406 33.2501 12.8504L33.1835 13.1135L33.3752 13.2846C34.3221 14.1368 34.1824 15.5225 33.026 16.7635C32.9026 16.8951 32.758 17.1027 32.7044 17.2284C32.477 17.759 32.2269 18.1317 31.8939 18.4387L31.5626 18.7457H31.215C30.8739 18.7457 30.3948 18.6433 30.1024 18.5045C29.9806 18.4475 29.9725 18.4489 29.9968 18.5191C30.0781 18.7705 30.2632 19.7908 30.3298 20.3536C30.4321 21.2219 30.4013 22.4848 30.2648 23.0271C30.1678 23.429 30.0053 23.8156 29.7824 24.1746C29.659 24.3588 29.6476 24.4012 29.6752 24.619C29.7142 24.9362 29.6314 25.461 29.4885 25.8074C29.3195 26.2123 29.2562 26.4023 29.2188 26.6055C29.1864 26.7838 29.1864 26.7853 29.326 26.7853C29.5128 26.7853 29.6103 26.8847 29.6103 27.0762C29.6103 27.1639 29.5291 27.6229 29.4284 28.0994C29.1506 29.4267 29.1328 29.5802 29.1295 30.8694C29.1246 32.1982 29.123 32.1879 29.4609 32.3853L30.2145 32.8267C30.863 33.2156 31.5582 33.5373 32.287 33.7856C33.3476 34.1628 33.4938 34.2592 33.4938 34.5808C33.4938 34.7197 33.4629 34.7752 33.3313 34.8893C32.922 35.2445 32.1229 35.3234 30.5101 35.1699C29.6733 35.0982 28.8332 35.0616 27.9926 35.0603C25.7755 35.031 25.4474 34.9623 25.1583 34.4639C24.9926 34.1788 25.0219 33.8061 25.2541 33.1951C25.3574 32.9263 25.4458 32.6531 25.5189 32.3765C25.6699 31.7114 25.5676 30.925 25.2135 30.0319L24.9131 29.2747C24.611 28.5029 24.4485 27.0908 24.6272 26.7721C24.6597 26.7137 24.7149 26.6991 24.8643 26.7078L25.0576 26.7224L25.2135 26.4242C25.3354 26.1933 25.4702 26.0383 25.8307 25.7109L26.2936 25.2929L26.2709 25.0268C26.2482 24.7725 25.8762 23.5256 25.8226 23.5285C25.808 23.5285 25.704 23.6572 25.5887 23.8136C25.3126 24.1907 24.6922 24.7754 24.3446 24.9859C24.1919 25.0794 24.0652 25.1861 24.0652 25.2227C24.062 25.3732 23.9125 25.6758 23.7387 25.8878C23.5666 26.0968 23.5552 26.126 23.5812 26.3117C23.6202 26.5792 23.5276 27.4416 23.4123 27.8904C23.3105 28.2264 23.1706 28.5521 22.9949 28.8624C22.5563 29.681 22.2282 30.409 22.1421 30.7481C22.0831 31.0737 22.0462 31.4022 22.0317 31.7319C22.0106 32.1178 21.9667 32.4978 21.9342 32.5753C21.892 32.6849 21.8904 32.7682 21.931 32.9349C21.9602 33.0548 21.9797 33.3237 21.9749 33.5342C21.9684 33.8266 21.9943 34.0166 22.0885 34.3586C22.251 34.939 22.2867 35.3044 22.2071 35.5222C22.1584 35.6567 22.1032 35.7108 21.9375 35.7853C21.5526 35.9607 20.4773 36.0557 19.8926 35.9651ZM21.4356 35.5003C21.6581 35.4433 21.8449 35.2678 21.8449 35.1158C21.8449 35.05 21.7799 34.8483 21.7036 34.6685C21.5574 34.3323 21.2911 33.445 21.2911 33.2974C21.2911 33.2185 21.2976 33.217 21.4291 33.2799L21.5672 33.3456L21.5639 33.1848C21.5476 33.038 21.5128 32.8933 21.46 32.7536C21.3398 32.4277 21.3235 32.4204 20.5602 32.3823L20.0372 32.3575L19.8504 32.5227C19.7432 32.6182 19.6509 32.7264 19.5759 32.8443C19.4914 32.9948 19.4589 33.217 19.5142 33.2682C19.5272 33.2813 19.6522 33.2682 19.7903 33.2389C19.8723 33.2169 19.9567 33.2027 20.042 33.1965C20.042 33.2039 19.9024 33.3032 19.7302 33.4173C18.9668 33.926 18.7021 34.2417 18.7021 34.6408C18.7021 35.0588 19.1341 35.3833 19.8195 35.4798C20.2905 35.547 21.2066 35.5587 21.4356 35.5003ZM31.7559 34.8205C31.9459 34.613 31.9232 34.4039 31.6812 34.1628C31.5419 34.0348 31.382 33.9264 31.2069 33.8412C31.0239 33.7545 30.8461 33.6594 30.6741 33.5561C30.5345 33.4684 30.0862 33.2346 29.6801 33.0299C29.389 32.8899 29.1035 32.7407 28.8242 32.5826L28.7105 32.5022V30.9308C28.7105 29.3814 28.7072 29.3624 28.6163 29.3843C28.1728 29.4939 27.4371 29.5436 26.5015 29.5275L25.4961 29.5129L25.6391 29.8316C25.9103 30.4397 26.0516 31.2495 26.05 32.1792C26.05 32.5271 26.0273 32.6557 25.9314 32.8983C25.8823 33.019 25.8352 33.1404 25.7901 33.2623C25.7723 33.3135 25.8421 33.35 26.1052 33.4202C26.292 33.4714 26.5746 33.524 26.7338 33.5401L27.0229 33.5664L26.9937 33.8309C26.9612 34.1306 26.9985 34.442 27.0814 34.5414C27.1285 34.5969 27.3234 34.6174 28.2021 34.6554C28.8713 34.6846 29.5957 34.746 30.1658 34.822C30.6611 34.8878 31.1939 34.9448 31.3514 34.9463C31.6146 34.9506 31.6438 34.9419 31.7559 34.8205ZM21.6013 32.1441C21.6256 32.1295 21.6614 31.8196 21.6776 31.4556C21.728 30.4324 21.7702 30.2862 22.3436 29.1329C22.8097 28.1915 23.0598 27.313 23.0371 26.6874L23.0241 26.3161L22.8503 26.471C22.4816 26.7999 22.735 26.281 23.1703 25.8176C23.5 25.4668 23.6137 25.2695 23.6689 24.9596C23.6916 24.8339 23.7452 24.7695 23.9613 24.6234C24.7766 24.0606 25.3695 23.3516 25.7528 22.4848C25.8437 22.2787 26.0744 21.5785 26.2644 20.9266C26.6185 19.7192 26.8085 19.2032 26.9791 18.9781C27.044 18.8918 27.0684 18.8787 27.0521 18.9357C26.9547 19.2792 26.9222 19.4181 26.841 19.8668C26.789 20.146 26.6948 20.6913 26.6331 21.0772C26.5064 21.8548 26.3797 22.3577 26.2092 22.7494L26.0955 23.0096L26.4025 23.7185C26.7159 24.445 26.8621 24.9683 26.893 25.48L26.9092 25.7606L26.6591 25.8074C26.334 25.8604 26.0446 26.0249 25.8519 26.2664C25.631 26.5441 25.514 26.7751 25.5709 26.8277C25.5952 26.8496 25.9071 26.9008 26.2612 26.9373C26.8166 26.9958 27.0245 26.9987 27.7538 26.9563C28.0686 26.9434 28.3825 26.9161 28.6942 26.8745C28.7624 26.8525 28.829 26.7268 28.9444 26.4023C29.2075 25.6568 29.2578 25.3893 29.227 24.8675L29.201 24.4041L29.3342 24.2506C29.646 23.894 29.8864 23.2537 29.9838 22.5111C30.1057 21.5961 29.8864 19.6812 29.4722 18.0353C29.2773 17.2561 29.1961 16.7869 29.1961 16.4419V16.1394L28.8826 16.1686C27.7668 16.2797 26.4171 16.249 25.5887 16.0955C25.1404 16.0137 24.0035 15.7155 23.7534 15.6146L23.5601 15.5371L23.5325 15.7345C23.5175 15.8456 23.4959 15.9558 23.4675 16.0648C23.4301 16.1891 23.4448 16.2139 23.6803 16.4244C23.9726 16.6875 24.0636 16.8278 24.0636 17.012C24.0636 17.1217 23.9905 17.2138 23.6364 17.5485C23.3766 17.7941 23.0452 18.0528 22.7918 18.2048L22.376 18.4562L22.2039 19.0059C21.5639 21.0377 21.4437 22.878 21.8628 24.2009L21.9667 24.5313L21.7637 24.7579C21.0003 25.6232 20.552 26.2795 20.4838 26.6435C20.4708 26.7166 20.4059 26.9578 20.3409 27.18C20.1785 27.7442 20.0518 28.573 19.9966 29.4691C19.9549 30.2198 19.8986 30.9698 19.8276 31.7187L19.8 31.9409L20.1168 32.0286C20.2922 32.0768 20.5602 32.1353 20.7128 32.1558C20.9955 32.1967 21.5233 32.1894 21.6029 32.1441H21.6013ZM27.7619 29.0042C28.2541 28.9779 28.7056 28.9078 28.7933 28.8434C28.8307 28.8171 28.8745 28.6973 28.8908 28.5803L28.9184 28.364L28.5286 28.4415C28.2188 28.4954 27.9059 28.5335 27.5914 28.5555C26.8426 28.5852 26.0924 28.5657 25.3467 28.497C25.0998 28.4634 25.0982 28.4649 25.1794 28.7557C25.2395 28.975 25.2525 28.9809 25.9022 29.0262C26.3342 29.0554 26.932 29.0496 27.7619 29.0042ZM27.3477 28.0102C27.9909 27.962 28.7998 27.8378 28.9557 27.7618C29.0061 27.7369 29.0548 27.6536 29.0727 27.5586L29.1311 27.2545L29.1604 27.1098L29.0044 27.139C28.3012 27.2721 27.7668 27.3115 26.6981 27.3115C25.6602 27.3115 25.5416 27.3028 25.2688 27.2194C25.1627 27.1785 25.0494 27.1547 24.9342 27.1493C24.8887 27.1741 24.8854 27.5001 24.9261 27.7267C24.9504 27.8655 24.9748 27.8889 25.1291 27.9284C25.6115 28.0453 26.4219 28.076 27.3477 28.0088V28.0102ZM15.5738 22.8605C17.198 22.4424 19.3225 21.1985 21.0588 19.649C21.6273 19.1403 21.6922 19.0687 21.7686 18.8451L21.8725 18.5542C21.8839 18.5308 21.7816 18.4884 21.6484 18.4592C21.2976 18.3832 21.0361 18.2048 21.0328 18.0382C21.0328 17.9417 20.9678 17.8452 20.7892 17.6654C20.4855 17.3614 20.4107 17.2298 20.3783 16.9389L20.3523 16.708L20.0014 16.477C19.8 16.3455 19.0854 15.9917 18.3317 15.6511C17.7573 15.3982 17.1943 15.1247 16.6442 14.8311C16.0107 14.4452 15.5836 13.9891 15.3448 13.4468C15.2977 13.3357 15.2425 13.2451 15.223 13.2451C15.1694 13.2451 13.745 14.4876 13.1343 15.0679C11.6335 16.496 10.5956 17.7356 9.94431 18.8831C9.78189 19.1681 9.60323 19.5043 9.55125 19.63L9.4538 19.8595L9.57237 20.2396C9.63733 20.4486 9.78351 20.7848 9.89721 20.9851C10.2968 21.6926 10.7759 22.1209 11.5604 22.4687C12.405 22.8444 13.1521 22.9745 14.4028 22.9614C15.0784 22.954 15.2717 22.9394 15.5738 22.8605ZM2.75392 17.8569C3.82103 17.0062 5.29257 16.0736 7.09707 15.1059C8.27787 14.473 12.8354 12.4207 14.9355 11.5772C15.3156 11.4238 15.6599 11.2834 15.6989 11.263C15.7363 11.244 15.8467 10.9998 15.9442 10.7236C16.3924 9.45331 16.6133 9.20189 17.4189 9.03817C17.5213 9.01771 17.5456 8.98847 17.5456 8.89346C17.5456 8.73267 17.6723 8.34676 17.7811 8.17574C17.8623 8.04418 17.864 8.03687 17.7893 8.05588C17.7454 8.06903 17.4807 8.13773 17.1997 8.21082C13.334 9.21504 9.95243 10.5496 7.0321 12.2189C3.91361 14.0023 2.12373 16.1364 1.60235 18.693L1.56337 18.8831L1.94019 18.5454C2.14647 18.3598 2.51354 18.0484 2.75392 17.8569ZM31.4651 18.3393C31.7737 18.196 32.2561 17.5383 32.4348 17.0208C32.488 16.8372 32.5894 16.6678 32.7304 16.5267C33.2047 16.059 33.5928 15.2038 33.5945 14.6206C33.5945 13.7143 33.0276 13.365 32.1928 13.7552C32.0888 13.8035 31.9962 13.8356 31.9865 13.8254C31.9394 13.783 32.1765 13.5769 32.4575 13.4161C32.836 13.1969 32.9074 13.0653 32.9074 12.5888C32.9074 12.1926 32.7954 11.8681 32.542 11.5173C32.4283 11.3638 32.3828 11.2586 32.4007 11.1986L32.5176 10.8127C32.6735 10.3055 32.6167 9.7252 32.3747 9.35537C32.006 8.7926 31.5528 8.51779 30.9226 8.4754L30.5572 8.45055L30.7748 8.66543C31.4115 9.29252 31.7218 10.0731 31.5999 10.7411C31.5366 11.0802 31.4749 11.1504 31.1078 11.2849L30.8967 11.3624L30.921 11.624C30.9632 12.0552 30.882 12.3666 30.5767 12.9469C30.4256 13.2363 30.3103 13.4965 30.3217 13.5243C30.3623 13.6222 30.7765 13.8093 31.1062 13.881L31.431 13.9511L31.228 14.0096C30.9665 14.0871 30.9064 14.1938 30.9048 14.5899C30.9048 14.948 30.9616 15.0957 31.2572 15.4903C31.3872 15.6628 31.4765 15.8368 31.4911 15.9406C31.5155 16.1028 31.5074 16.1131 31.3612 16.1613C31.1966 16.2012 31.0279 16.2257 30.8577 16.2344C30.2616 16.268 30.2161 16.2826 29.9514 16.5121C29.7077 16.7211 29.7029 16.7328 29.7029 16.9609C29.7029 17.2751 29.8328 17.9037 29.9173 17.9899C30.0212 18.0966 30.6254 18.3627 30.8593 18.4036C31.0633 18.4476 31.2781 18.4248 31.4651 18.3393ZM22.6781 17.9095C23.0663 17.6362 23.3684 17.3628 23.5422 17.1275C23.6478 16.9843 23.6543 16.9565 23.6007 16.8395C23.5162 16.6539 22.9331 16.1818 22.6083 16.04C22.393 15.9514 22.1641 15.8923 21.9294 15.8646L21.5298 15.8149L21.2797 15.5342C20.7697 14.9641 20.4838 14.5212 20.0745 13.6602C19.7237 12.9264 19.4102 12.4981 18.9165 12.0786C18.7134 11.9061 18.564 11.7643 18.5819 11.7643C18.6014 11.7643 18.8434 11.871 19.1227 12.0026C19.5905 12.2233 19.6441 12.2394 19.8553 12.216C20.6105 12.1342 21.2732 11.3521 21.5185 10.2573C21.5883 9.94446 21.7247 9.63018 21.8725 9.44308C21.879 9.43577 22.1681 9.61118 22.5141 9.83337C23.3814 10.3888 23.5731 10.4707 24.0652 10.4882C24.3933 10.4999 24.5752 10.4765 25.1567 10.3508C26.3992 10.0789 27.7457 9.96785 28.5675 10.0687C29.0304 10.1257 29.6915 10.307 30.1917 10.516C30.6806 10.7206 30.7748 10.7323 30.934 10.6066C31.0639 10.5043 31.0656 10.4897 31.0639 10.1067C31.0607 9.54248 30.8301 8.93146 30.4792 8.56749C30.3006 8.37892 29.8052 8.07049 29.3098 7.83515C29.1313 7.75085 28.9542 7.66411 28.7787 7.57496C28.548 7.45363 28.2768 7.46825 27.5573 7.63928C26.7208 7.83661 26.4983 7.83369 25.5384 7.61297C24.7279 7.42586 24.6743 7.42294 23.8784 7.53549C23.4545 7.59542 22.3874 7.56034 22.0301 7.47556C21.8519 7.4313 21.6758 7.38058 21.5022 7.32354C21.1936 7.21975 20.6544 7.20221 20.1671 7.27969C19.1926 7.43609 18.4552 7.90824 18.1888 8.55141C18.0524 8.87884 18.0702 9.03233 18.257 9.13757C18.5445 9.30129 18.9327 9.75297 18.9327 9.92692C18.9327 9.94154 18.8417 9.86699 18.7297 9.76174C18.4601 9.50739 18.2099 9.39484 17.9176 9.39484C17.7285 9.39864 17.5444 9.45029 17.3864 9.54387C17.2284 9.63746 17.1029 9.76919 17.0243 9.92399C16.9393 10.1248 16.8671 10.3297 16.8082 10.5379C16.6296 11.1256 16.4736 11.4325 16.1391 11.8418C15.837 12.2116 15.7963 12.3768 15.9019 12.7934C16.1683 13.8444 16.6296 14.2712 18.564 15.2579C19.5791 15.7754 20.1038 16.0663 20.4838 16.3235C20.7746 16.518 20.7827 16.5282 20.7567 16.6787C20.6966 17.0193 20.9386 17.395 21.4161 17.6947C21.5379 17.7707 21.6143 17.8511 21.6143 17.9037C21.6143 18.0089 21.9326 18.1522 22.1714 18.1522C22.3013 18.1522 22.4069 18.1025 22.6798 17.9095H22.6781ZM30.4987 15.9888C31.2361 16.0078 31.2767 15.961 30.8804 15.5488C30.4679 15.1176 30.3558 14.7712 30.5068 14.3882L30.5669 14.2391L30.3087 14.1251C30.2236 14.084 30.135 14.0488 30.0439 14.0198C29.9978 14.1701 29.955 14.3212 29.9156 14.473C29.8214 14.8238 29.7045 15.7242 29.7029 16.1101C29.7029 16.1437 29.7646 16.1291 29.8734 16.0692C30.0228 15.9888 30.1008 15.9786 30.4987 15.9888ZM28.0332 15.9523C28.4766 15.9303 28.9362 15.8996 29.0564 15.885L29.2741 15.8587L29.3017 15.198C29.339 14.2625 29.4885 13.7099 29.94 12.827C30.2616 12.1985 30.3964 11.6474 30.3298 11.2396C30.3006 11.0612 30.2892 11.0495 30.0245 10.9458C29.5359 10.7714 29.027 10.6474 28.5074 10.5759C28.0039 10.5102 26.5356 10.5482 25.9818 10.6417C25.7544 10.6797 25.337 10.7587 25.056 10.8186C24.3641 10.9648 23.997 10.9458 23.4708 10.7382C22.951 10.5321 22.6197 10.3464 22.3062 10.0833C22.0609 9.87722 22.0382 9.86699 21.9716 9.93569C21.9229 9.98685 21.8953 10.1403 21.879 10.4736C21.8563 10.9808 21.7718 11.2483 21.5217 11.6094C21.4658 11.6825 21.419 11.761 21.382 11.8433C21.382 11.8608 21.5753 12.0567 21.8108 12.276C22.6213 13.0361 23.0192 13.2319 23.6592 13.1881C23.8703 13.1735 24.0165 13.1793 24.0165 13.2027C24.0165 13.2451 23.6039 13.5389 23.4301 13.6208C23.3522 13.6573 23.3327 13.6982 23.3457 13.7859L23.4431 14.3823C23.5016 14.7273 23.5471 14.8837 23.6056 14.9305C23.7566 15.0474 24.5427 15.4129 25.0349 15.5912C25.6862 15.8295 26.037 15.9143 26.5356 15.9523C27.1415 15.9976 27.1545 15.9976 28.0332 15.9523ZM22.787 15.3281C22.8 15.3062 22.7512 14.9773 22.6733 14.5943C22.5709 14.0739 22.5141 13.8853 22.4508 13.8371C22.402 13.802 22.1698 13.65 21.9326 13.4994C21.6266 13.2961 21.3352 13.0754 21.0604 12.8387L20.6203 12.4528L20.3896 12.5625L20.1395 12.6838C20.1612 12.7733 20.1961 12.8599 20.2434 12.941C20.3084 13.077 20.4481 13.4132 20.552 13.6865C20.82 14.4013 21.0247 14.7434 21.5526 15.3646L21.754 15.6L22.1275 15.6526C22.3322 15.6818 22.545 15.7198 22.6002 15.7388C22.6911 15.7695 22.7025 15.7564 22.7301 15.5707C22.7383 15.4882 22.7569 15.4069 22.7853 15.3281H22.787ZM30.8236 8.22398C31.1484 8.1962 31.2036 8.15089 31.0623 8.02225C30.9779 7.94478 30.7716 7.93601 30.6075 8.00471C30.4971 8.05003 30.4744 8.0398 30.3038 7.87316C30.1252 7.69482 30.1154 7.69044 29.8913 7.71529C29.6882 7.73721 29.6574 7.7299 29.6314 7.65536C29.5509 7.53393 29.4525 7.42281 29.339 7.325C29.1955 7.17656 29.0145 7.06127 28.8112 6.9888C28.4165 6.85432 28.1972 6.86893 27.822 7.05458C26.7387 7.58812 26.7825 7.58227 25.7382 7.34254C24.7588 7.11743 24.0262 6.89378 23.794 6.74761C23.5991 6.62628 23.1784 6.49911 22.8308 6.45526C22.5709 6.4231 22.402 6.47426 22.1551 6.6599L22.0252 6.75638L22.1421 6.94348C22.3078 7.20806 22.2916 7.22268 22.0414 7.03119C21.7767 6.82654 21.4616 6.68914 21.2537 6.68768C21.1091 6.68768 20.6771 6.85578 20.6251 6.93325C20.6105 6.95371 20.7437 6.98149 20.9191 6.99611C21.1059 7.01072 21.3593 7.06627 21.5298 7.13205C21.9716 7.30161 22.2022 7.35716 22.6083 7.39516C23.0517 7.43317 23.8606 7.38786 23.9531 7.31769C24.0002 7.28115 24.1399 7.2753 24.4339 7.29576C24.8205 7.32208 24.9813 7.35423 25.9006 7.57788C26.4333 7.70944 26.8069 7.69921 27.442 7.53988C27.7343 7.46679 28.1014 7.3937 28.2557 7.37909C28.5156 7.35424 28.5675 7.36447 28.9703 7.52964C29.62 7.79276 29.9611 7.96232 30.1528 8.11435C30.3428 8.26052 30.3639 8.26491 30.8236 8.22544V8.22398ZM27.2048 7.22414L27.5914 7.04288L27.5833 6.68475C27.5769 6.44337 27.565 6.20213 27.5475 5.96118L27.5199 5.59429L27.1334 5.86325C26.9043 6.02404 26.6818 6.1439 26.5827 6.15998C26.305 6.20822 24.9325 6.15998 24.8026 6.09859C24.6335 5.98459 24.4754 5.85795 24.33 5.72L23.9726 5.39841L23.9678 5.58844C23.9678 5.69076 23.9499 5.86909 23.9288 5.98019C23.8931 6.18191 23.8963 6.18776 24.1399 6.46695C24.2764 6.62336 24.3868 6.76223 24.3868 6.77684C24.3868 6.88794 26.2189 7.39955 26.6315 7.4054C26.763 7.4054 26.9303 7.35277 27.2048 7.22414ZM26.4707 5.92464C26.9287 5.84571 27.1528 5.54751 27.3201 4.79471C27.4988 3.9849 27.5898 2.71171 27.5037 2.16794C27.4273 1.67971 26.8231 1.45899 25.6586 1.49407C24.9374 1.516 24.6386 1.58032 24.3933 1.76742C24.2406 1.88436 24.2374 1.89459 24.1708 2.43544C24.0409 3.47475 24.2293 4.9555 24.5606 5.51243C24.7182 5.77993 24.8595 5.87787 25.1534 5.92172C25.4832 5.97288 26.1848 5.97434 26.4707 5.92464Z" fill="white" stroke="white" stroke-width="0.3"/>
</svg>
