<svg width="87" height="38" viewBox="0 0 87 38" fill="none" xmlns="http://www.w3.org/2000/svg">
<path d="M41.55 10.45V28H40.425V19.5H30.175V28H29.05V10.45H30.175V18.55H40.425V10.45H41.55ZM55.376 10.45V11.4H50.376V28H49.251V11.4H44.251V10.45H55.376ZM74.4289 10.825V28H73.3039V13.175L66.7039 28H65.8039L59.1789 13.175V28H58.0539V10.825H59.2539L66.2539 26.525L73.2539 10.825H74.4289ZM79.6867 27.05H86.2117V28H78.5617V10.45H79.6867V27.05Z" fill="white"/>
<path d="M0 8L1.72682 27.4366L9.47526 30L17.2732 27.4366L19 8H0ZM15.2495 14.2808H6.15521L6.35807 16.7067H15.0466L14.3737 23.9942L9.52969 25.3201V25.3348H9.47526L4.59167 23.9942L4.29479 20.2719H6.65495L6.82813 22.1429L9.47526 22.8549L12.1323 22.1429L12.4292 19.0884H4.17109L3.53776 11.9384H15.4672L15.2495 14.2808Z" fill="white"/>
</svg>
