<svg width="87" height="26" viewBox="0 0 87 26" fill="none" xmlns="http://www.w3.org/2000/svg">
<path d="M33.66 19V4H37V10.66H40.34V4H43.66V19H40.34V12.34H37V19H33.66ZM48.6798 19V5.66H45.3398V4H55.3398V5.66H51.9998V19H48.6798ZM56.9998 19V4H57.7798L64.8998 11.1L71.9998 4H73.6798V19H70.3398V9.84L64.4998 15.68L58.6798 9.84V19H56.9998ZM76.9998 19V4H80.3398V17.34H85.3398V19H76.9998Z" fill="white"/>
<path d="M0 0L2.09036 22.9705L11.4701 26L20.9096 22.9705L23 0H0ZM18.4599 7.42277H7.45104L7.69661 10.2897H18.2143L17.3997 18.9022L11.5359 20.4692V20.4866H11.4701L5.55833 18.9022L5.19896 14.5031H8.05599L8.26562 16.7143L11.4701 17.5558L14.6865 16.7143L15.0458 13.1045H5.04922L4.28255 4.65446H18.7234L18.4599 7.42277Z" fill="white"/>
</svg>
