<svg width="180" height="38" viewBox="0 0 180 38" fill="none" xmlns="http://www.w3.org/2000/svg">
<path d="M70.4106 10.45V28H69.2856V19.5H59.0356V28H57.9106V10.45H59.0356V18.55H69.2856V10.45H70.4106ZM84.2365 10.45V11.4H79.2365V28H78.1115V11.4H73.1115V10.45H84.2365ZM103.289 10.825V28H102.164V13.175L95.5645 28H94.6645L88.0395 13.175V28H86.9145V10.825H88.1145L95.1145 26.525L102.114 10.825H103.289ZM108.547 27.05H115.072V28H107.422V10.45H108.547V27.05Z" fill="white"/>
<path d="M0 8L3.57274 27.4366L19.604 30L35.7377 27.4366L39.3104 8H0ZM31.5507 14.2808H12.7349L13.1547 16.7067H31.131L29.7387 23.9942L19.7166 25.3201V25.3348H19.604L9.50002 23.9942L8.88579 20.2719H13.7689L14.1272 22.1429L19.604 22.8549L25.1013 22.1429L25.7156 19.0884H8.62986L7.31952 11.9384H32.0011L31.5507 14.2808Z" fill="white"/>
</svg>
