<svg width="94" height="30" viewBox="0 0 94 30" fill="none" xmlns="http://www.w3.org/2000/svg">
<path d="M31.2432 6.66602C31.8128 6.73112 32.293 6.77995 32.6836 6.8125C33.0742 6.82878 33.3835 6.84505 33.6113 6.86133C33.888 6.8776 34.1077 6.88574 34.2705 6.88574C34.5472 6.88574 34.8646 6.8776 35.2227 6.86133C35.5319 6.84505 35.89 6.82064 36.2969 6.78809C36.7201 6.73926 37.1758 6.66602 37.6641 6.56836C37.4362 6.8125 37.249 7.0485 37.1025 7.27637C36.9561 7.48796 36.8421 7.68327 36.7607 7.8623C36.6631 8.05762 36.5817 8.23665 36.5166 8.39941C36.4515 8.611 36.3783 8.93652 36.2969 9.37598C36.2155 9.75033 36.126 10.2793 36.0283 10.9629C35.9469 11.6465 35.8411 12.5417 35.7109 13.6484C36.2643 13.6647 36.7445 13.6729 37.1514 13.6729C37.5583 13.6566 37.9001 13.6484 38.1768 13.6484H38.9824C39.2103 13.6322 39.4707 13.6159 39.7637 13.5996C40.252 13.5833 40.9925 13.5345 41.9854 13.4531C42.0667 12.7044 42.1074 12.0615 42.1074 11.5244C42.1237 10.971 42.1156 10.5072 42.083 10.1328C42.0505 9.70964 42.0016 9.35156 41.9365 9.05859C41.8877 8.89583 41.8145 8.70052 41.7168 8.47266C41.6354 8.27734 41.5215 8.04134 41.375 7.76465C41.2448 7.47168 41.0658 7.12174 40.8379 6.71484C41.2611 6.77995 41.6354 6.82878 41.9609 6.86133C42.3027 6.8776 42.5876 6.89388 42.8154 6.91016C43.0758 6.92643 43.2956 6.93457 43.4746 6.93457C43.6536 6.93457 43.8896 6.92643 44.1826 6.91016C44.4268 6.89388 44.7279 6.88574 45.0859 6.88574C45.444 6.86947 45.8835 6.84505 46.4043 6.8125C46.2741 7.04036 46.1602 7.27637 46.0625 7.52051C45.9648 7.76465 45.8835 7.98438 45.8184 8.17969C45.7533 8.40755 45.6882 8.63542 45.623 8.86328C45.5417 9.20508 45.4684 9.7015 45.4033 10.3525C45.3545 11.0036 45.3057 11.7279 45.2568 12.5254C45.2243 13.3229 45.1917 14.153 45.1592 15.0156C45.1429 15.8783 45.1266 16.6921 45.1104 17.457C45.1104 18.222 45.1185 18.9056 45.1348 19.5078C45.151 20.0938 45.1836 20.5088 45.2324 20.7529C45.2812 21.0459 45.3626 21.347 45.4766 21.6562C45.5742 21.9329 45.7044 22.234 45.8672 22.5596C46.0299 22.8688 46.2415 23.1618 46.502 23.4385L40.6182 23.8779C40.8623 23.6501 41.0576 23.4303 41.2041 23.2188C41.3506 22.9909 41.4645 22.7956 41.5459 22.6328C41.6273 22.4538 41.6842 22.2829 41.7168 22.1201C41.7331 21.9248 41.7575 21.583 41.79 21.0947C41.8226 20.6878 41.8551 20.11 41.8877 19.3613C41.9202 18.6126 41.9528 17.6198 41.9854 16.3828C41.7575 16.3828 41.4808 16.391 41.1553 16.4072C40.846 16.4072 40.5531 16.4154 40.2764 16.4316C39.9508 16.4479 39.609 16.4561 39.251 16.4561C38.8929 16.4723 38.5186 16.4886 38.1279 16.5049C37.8024 16.5374 37.4362 16.57 37.0293 16.6025C36.6387 16.6188 36.248 16.6432 35.8574 16.6758C35.8249 17.3594 35.8249 17.9616 35.8574 18.4824C35.89 18.987 35.9388 19.4183 36.0039 19.7764C36.069 20.1995 36.1504 20.5658 36.248 20.875C36.3457 21.168 36.4515 21.4609 36.5654 21.7539C36.6631 22.0143 36.777 22.291 36.9072 22.584C37.0537 22.877 37.2002 23.1374 37.3467 23.3652C37.0374 23.3327 36.7526 23.3083 36.4922 23.292C36.2318 23.2594 36.0039 23.2269 35.8086 23.1943C35.5807 23.1781 35.361 23.1618 35.1494 23.1455C34.9378 23.1455 34.6855 23.1374 34.3926 23.1211C34.1322 23.1048 33.8066 23.0967 33.416 23.0967C33.0254 23.0804 32.5697 23.0723 32.0488 23.0723C32.3581 22.763 32.6022 22.4619 32.7812 22.1689C32.9766 21.8597 33.1149 21.583 33.1963 21.3389C33.2939 21.0459 33.359 20.7773 33.3916 20.5332C33.4079 20.3216 33.416 19.9229 33.416 19.3369C33.4323 18.751 33.4323 18.0837 33.416 17.335C33.416 16.57 33.4079 15.7725 33.3916 14.9424C33.3753 14.096 33.3509 13.3066 33.3184 12.5742C33.3021 11.8418 33.2777 11.2152 33.2451 10.6943C33.2288 10.1572 33.2126 9.82357 33.1963 9.69336C33.1149 9.40039 32.9928 9.08301 32.8301 8.74121C32.6836 8.46452 32.4883 8.14714 32.2441 7.78906C32 7.41471 31.6663 7.04036 31.2432 6.66602ZM46.2578 6.17773C47.3483 6.30794 48.2923 6.4056 49.0898 6.4707C49.8874 6.51953 50.5465 6.56022 51.0674 6.59277C51.6696 6.62533 52.1742 6.63346 52.5811 6.61719C53.0042 6.60091 53.582 6.56022 54.3145 6.49512C54.9329 6.44629 55.7467 6.38118 56.7559 6.2998C57.765 6.20215 59.0264 6.07194 60.54 5.90918C60.5563 6.28353 60.5645 6.64974 60.5645 7.00781C60.5807 7.34961 60.597 7.65072 60.6133 7.91113C60.6296 8.22038 60.6377 8.50521 60.6377 8.76562C60.6377 9.04232 60.6214 9.39225 60.5889 9.81543C60.5563 10.1735 60.4993 10.6292 60.418 11.1826C60.3529 11.7197 60.2471 12.3626 60.1006 13.1113C59.8727 12.2324 59.653 11.5244 59.4414 10.9873C59.2298 10.4339 59.0345 9.99447 58.8555 9.66895C58.6602 9.2946 58.4648 9.00977 58.2695 8.81445C58.0579 8.66797 57.8057 8.5459 57.5127 8.44824C57.2523 8.36686 56.9186 8.30176 56.5117 8.25293C56.1211 8.2041 55.6572 8.21224 55.1201 8.27734C55.0387 10.4258 54.9818 12.1673 54.9492 13.502C54.9167 14.8366 54.8923 15.8783 54.876 16.627C54.8597 17.5221 54.8516 18.165 54.8516 18.5557C54.8678 19.109 54.9574 19.6543 55.1201 20.1914C55.2503 20.6471 55.4619 21.1191 55.7549 21.6074C56.0479 22.0957 56.471 22.527 57.0244 22.9014H54.0459C53.7692 22.9014 53.4274 22.9176 53.0205 22.9502C52.6787 22.9827 52.2393 23.0153 51.7021 23.0479C51.1813 23.0804 50.571 23.1374 49.8711 23.2188C50.1152 22.7956 50.3105 22.4131 50.457 22.0713C50.6035 21.7295 50.7174 21.4365 50.7988 21.1924C50.8965 20.8994 50.9697 20.639 51.0186 20.4111C51.0348 20.0856 51.0755 19.4264 51.1406 18.4336C51.1569 18.0267 51.1732 17.5221 51.1895 16.9199C51.222 16.3177 51.2546 15.6016 51.2871 14.7715C51.3359 13.9414 51.3766 12.9893 51.4092 11.915C51.458 10.8245 51.5068 9.5957 51.5557 8.22852C51.2627 8.14714 50.986 8.15527 50.7256 8.25293C50.4652 8.33431 50.2373 8.4401 50.042 8.57031C49.8141 8.73307 49.5944 8.92839 49.3828 9.15625C49.1712 9.43294 48.9352 9.79102 48.6748 10.2305C48.4469 10.6048 48.1865 11.1012 47.8936 11.7197C47.6006 12.3219 47.2669 13.0706 46.8926 13.9658C46.8112 13.0218 46.7542 12.2487 46.7217 11.6465C46.6891 11.028 46.6647 10.5479 46.6484 10.2061C46.6322 9.79915 46.624 9.49805 46.624 9.30273C46.624 9.1237 46.6077 8.8877 46.5752 8.59473C46.5426 8.35059 46.502 8.0332 46.4531 7.64258C46.4043 7.23568 46.3392 6.7474 46.2578 6.17773ZM59.7832 6.49512C60.304 6.51139 60.7598 6.51953 61.1504 6.51953C61.541 6.50326 61.8584 6.49512 62.1025 6.49512H62.8105C62.9896 6.47884 63.2093 6.4707 63.4697 6.4707C63.6976 6.4707 63.9743 6.4707 64.2998 6.4707C64.6253 6.4707 64.9997 6.47884 65.4229 6.49512C65.5531 6.95085 65.6995 7.39844 65.8623 7.83789C66.0413 8.26107 66.196 8.64355 66.3262 8.98535C66.4889 9.39225 66.6517 9.77474 66.8145 10.1328C66.9772 10.4909 67.1725 10.9222 67.4004 11.4268C67.5957 11.8499 67.8317 12.3708 68.1084 12.9893C68.3851 13.5915 68.7106 14.2832 69.085 15.0645C69.264 14.5599 69.4268 14.096 69.5732 13.6729C69.736 13.2497 69.8743 12.8835 69.9883 12.5742C70.1185 12.2161 70.2243 11.8906 70.3057 11.5977C70.387 11.3047 70.4766 10.9466 70.5742 10.5234C70.6556 10.1654 70.7451 9.73405 70.8428 9.22949C70.9567 8.72493 71.0706 8.139 71.1846 7.47168C71.6566 7.47168 72.0798 7.47168 72.4541 7.47168C72.8285 7.47168 73.154 7.46354 73.4307 7.44727C73.7399 7.44727 74.0166 7.43913 74.2607 7.42285C74.5212 7.42285 74.8711 7.40658 75.3105 7.37402C75.6849 7.34147 76.1813 7.31706 76.7998 7.30078C77.4346 7.26823 78.2158 7.22754 79.1436 7.17871C78.8018 7.42285 78.5251 7.66699 78.3135 7.91113C78.1182 8.139 77.9635 8.34245 77.8496 8.52148C77.7194 8.73307 77.638 8.93652 77.6055 9.13184C77.5729 9.2946 77.5404 9.66895 77.5078 10.2549C77.4915 10.8408 77.4671 11.5407 77.4346 12.3545C77.4183 13.152 77.402 14.0065 77.3857 14.918C77.3857 15.8294 77.3939 16.6921 77.4102 17.5059C77.4264 18.3197 77.4508 19.0277 77.4834 19.6299C77.5322 20.2158 77.5973 20.5902 77.6787 20.7529C77.7926 20.9482 77.9473 21.1761 78.1426 21.4365C78.3216 21.6644 78.5495 21.9248 78.8262 22.2178C79.1191 22.5107 79.5016 22.8363 79.9736 23.1943C79.2249 23.2269 78.5983 23.2513 78.0938 23.2676C77.6055 23.2839 77.1986 23.3001 76.873 23.3164C76.4987 23.3327 76.1976 23.3408 75.9697 23.3408C75.7256 23.3408 75.3919 23.349 74.9688 23.3652C74.5944 23.3815 74.098 23.4059 73.4795 23.4385C72.861 23.4548 72.0635 23.4873 71.0869 23.5361C71.3148 23.2757 71.5264 23.0153 71.7217 22.7549C71.917 22.4945 72.0798 22.2585 72.21 22.0469C72.3727 21.8027 72.5111 21.5667 72.625 21.3389C72.7389 21.0296 72.8285 20.4681 72.8936 19.6543C72.9587 18.9544 73.0075 17.9535 73.04 16.6514C73.0726 15.333 73.0726 13.5671 73.04 11.3535C72.7308 11.8581 72.4541 12.3626 72.21 12.8672C71.9821 13.3555 71.7786 13.8031 71.5996 14.21C71.4043 14.682 71.2253 15.1377 71.0625 15.5771C70.8997 16.0329 70.7288 16.5374 70.5498 17.0908C70.387 17.5628 70.1917 18.1243 69.9639 18.7754C69.7523 19.4264 69.5081 20.1426 69.2314 20.9238L68.3037 20.9727C68.1735 20.3216 68.0433 19.7357 67.9131 19.2148C67.7829 18.6777 67.6527 18.222 67.5225 17.8477C67.376 17.4082 67.2295 17.0176 67.083 16.6758C66.9202 16.334 66.7412 15.9515 66.5459 15.5283C66.3669 15.1702 66.1471 14.7471 65.8867 14.2588C65.6426 13.7705 65.3577 13.2253 65.0322 12.623C64.8695 14.2832 64.7718 15.6341 64.7393 16.6758C64.7067 17.7012 64.7067 18.4987 64.7393 19.0684C64.7718 19.752 64.8206 20.2484 64.8857 20.5576C64.9834 20.8343 65.138 21.1436 65.3496 21.4854C65.5286 21.7783 65.7728 22.1283 66.082 22.5352C66.4076 22.9258 66.8226 23.3652 67.3271 23.8535C66.9691 23.8535 66.5947 23.8535 66.2041 23.8535C65.8135 23.8535 65.4554 23.8617 65.1299 23.8779C64.7393 23.8942 64.3568 23.9023 63.9824 23.9023C63.5918 23.9186 63.1361 23.943 62.6152 23.9756C62.1595 24.0081 61.6143 24.0407 60.9795 24.0732C60.3447 24.1058 59.6123 24.1628 58.7822 24.2441C59.1403 24.0163 59.4333 23.7965 59.6611 23.585C59.889 23.3571 60.068 23.1536 60.1982 22.9746C60.361 22.763 60.4831 22.5514 60.5645 22.3398C60.6133 22.2096 60.654 21.9248 60.6865 21.4854C60.7354 21.0459 60.776 20.5088 60.8086 19.874C60.8574 19.2393 60.89 18.5312 60.9062 17.75C60.9388 16.9688 60.9632 16.1794 60.9795 15.3818C61.012 14.568 61.0365 13.7786 61.0527 13.0137C61.069 12.2324 61.0771 11.5326 61.0771 10.9141C61.0934 10.2793 61.1016 9.75033 61.1016 9.32715C61.1016 8.90397 61.1016 8.63542 61.1016 8.52148C61.0527 8.27734 60.9795 8.0332 60.8818 7.78906C60.8005 7.57747 60.6702 7.35775 60.4912 7.12988C60.3122 6.90202 60.0762 6.69043 59.7832 6.49512ZM80.0957 6.2998C80.5677 6.38118 80.9827 6.43815 81.3408 6.4707C81.7152 6.50326 82.0244 6.52767 82.2686 6.54395C82.5615 6.56022 82.8138 6.56836 83.0254 6.56836C83.237 6.56836 83.5381 6.55208 83.9287 6.51953C84.2542 6.48698 84.6774 6.44629 85.1982 6.39746C85.7354 6.34863 86.3945 6.26725 87.1758 6.15332C86.9479 6.21842 86.7363 6.4056 86.541 6.71484C86.362 7.00781 86.1992 7.3252 86.0527 7.66699C85.8737 8.07389 85.7191 8.52148 85.5889 9.00977C85.4749 9.44922 85.3285 10.0514 85.1494 10.8164C84.9867 11.5814 84.8239 12.4115 84.6611 13.3066C84.5146 14.2018 84.4007 15.1133 84.3193 16.041C84.238 16.9525 84.2217 17.7907 84.2705 18.5557C84.3356 19.3206 84.4902 19.9554 84.7344 20.46C84.9785 20.9482 85.3529 21.2087 85.8574 21.2412C86.6224 21.3063 87.2572 21.3145 87.7617 21.2656C88.2826 21.2005 88.7057 21.111 89.0312 20.9971C89.3568 20.8831 89.609 20.7529 89.7881 20.6064C89.9671 20.4437 90.1055 20.2891 90.2031 20.1426C90.4635 19.7682 90.7321 19.2881 91.0088 18.7021C91.2855 18.1162 91.5296 17.5547 91.7412 17.0176C91.9691 16.4805 92.1562 16.0247 92.3027 15.6504C92.4492 15.276 92.5225 15.097 92.5225 15.1133C92.5225 15.1458 92.5143 15.333 92.498 15.6748C92.498 16.0003 92.4899 16.3991 92.4736 16.8711C92.4736 17.3268 92.4655 17.807 92.4492 18.3115C92.4492 18.8161 92.4411 19.2474 92.4248 19.6055C92.4085 19.8984 92.3923 20.224 92.376 20.582C92.3597 20.8913 92.3434 21.2575 92.3271 21.6807C92.3271 22.1038 92.3109 22.5677 92.2783 23.0723C91.5947 23.0234 90.9437 22.9909 90.3252 22.9746C89.7067 22.9583 89.1615 22.9502 88.6895 22.9502C88.1361 22.9502 87.6234 22.9583 87.1514 22.9746C86.6468 22.9909 86.0609 23.0153 85.3936 23.0479C84.8239 23.0804 84.1159 23.1211 83.2695 23.1699C82.4232 23.2025 81.4466 23.2513 80.3398 23.3164C80.4701 23.0885 80.5758 22.877 80.6572 22.6816C80.7549 22.4863 80.8281 22.3236 80.877 22.1934C80.9421 22.0306 80.9827 21.8923 80.999 21.7783C81.0967 21.2575 81.1781 20.5983 81.2432 19.8008C81.3083 18.987 81.3571 18.1243 81.3896 17.2129C81.4385 16.3014 81.4629 15.3737 81.4629 14.4297C81.4792 13.4694 81.4792 12.5824 81.4629 11.7686C81.4466 10.9548 81.4141 10.2467 81.3652 9.64453C81.3327 9.04232 81.2839 8.62728 81.2188 8.39941C81.1374 8.139 81.0397 7.87858 80.9258 7.61816C80.8281 7.3903 80.7061 7.16243 80.5596 6.93457C80.4294 6.69043 80.2747 6.47884 80.0957 6.2998Z" fill="white"/>
<path d="M0 2L2.09036 24.9705L11.4701 28L20.9096 24.9705L23 2H0ZM18.4599 9.42277H7.45104L7.69661 12.2897H18.2143L17.3997 20.9022L11.5359 22.4692V22.4866H11.4701L5.55833 20.9022L5.19896 16.5031H8.05599L8.26562 18.7143L11.4701 19.5558L14.6865 18.7143L15.0458 15.1045H5.04922L4.28255 6.65446H18.7234L18.4599 9.42277Z" fill="white"/>
</svg>
