<svg width="180" height="38" viewBox="0 0 180 38" fill="none" xmlns="http://www.w3.org/2000/svg">
<path d="M59.8627 10.45V24.075C59.8627 25.2917 59.4877 26.2833 58.7377 27.05C57.9877 27.8 56.971 28.175 55.6877 28.175C54.3377 28.175 53.271 27.7667 52.4877 26.95C51.721 26.1167 51.3377 24.975 51.3377 23.525H52.4627C52.4627 24.5917 52.721 25.4667 53.2377 26.15C53.7544 26.8333 54.571 27.175 55.6877 27.175C56.7544 27.175 57.521 26.875 57.9877 26.275C58.471 25.6583 58.7127 24.925 58.7127 24.075V10.45H59.8627ZM63.41 21.2C63.41 19.8 63.685 18.575 64.235 17.525C64.8016 16.475 65.5766 15.6667 66.56 15.1C67.56 14.5333 68.6933 14.25 69.96 14.25C71.3933 14.25 72.61 14.6 73.61 15.3C74.61 16 75.31 16.8917 75.71 17.975V14.425H76.835V28H75.71V24.425C75.31 25.525 74.6016 26.4333 73.585 27.15C72.585 27.85 71.3766 28.2 69.96 28.2C68.6933 28.2 67.56 27.9167 66.56 27.35C65.5766 26.7667 64.8016 25.95 64.235 24.9C63.685 23.8333 63.41 22.6 63.41 21.2ZM75.71 21.2C75.71 20.0167 75.46 18.975 74.96 18.075C74.4766 17.1583 73.81 16.4583 72.96 15.975C72.11 15.475 71.16 15.225 70.11 15.225C69.01 15.225 68.0433 15.4667 67.21 15.95C66.3766 16.4167 65.7266 17.1 65.26 18C64.7933 18.9 64.56 19.9667 64.56 21.2C64.56 22.4333 64.7933 23.5 65.26 24.4C65.7266 25.3 66.3766 25.9917 67.21 26.475C68.06 26.9583 69.0266 27.2 70.11 27.2C71.16 27.2 72.11 26.9583 72.96 26.475C73.8266 25.975 74.5016 25.275 74.985 24.375C75.4683 23.4583 75.71 22.4 75.71 21.2ZM85.5313 26.775L90.5313 14.425H91.7313L86.1063 28H84.9313L79.3063 14.425H80.5313L85.5313 26.775ZM93.5125 21.2C93.5125 19.8 93.7875 18.575 94.3375 17.525C94.9042 16.475 95.6792 15.6667 96.6625 15.1C97.6625 14.5333 98.7958 14.25 100.063 14.25C101.496 14.25 102.713 14.6 103.713 15.3C104.713 16 105.413 16.8917 105.813 17.975V14.425H106.938V28H105.813V24.425C105.413 25.525 104.704 26.4333 103.688 27.15C102.688 27.85 101.479 28.2 100.063 28.2C98.7958 28.2 97.6625 27.9167 96.6625 27.35C95.6792 26.7667 94.9042 25.95 94.3375 24.9C93.7875 23.8333 93.5125 22.6 93.5125 21.2ZM105.813 21.2C105.813 20.0167 105.563 18.975 105.063 18.075C104.579 17.1583 103.913 16.4583 103.063 15.975C102.213 15.475 101.263 15.225 100.213 15.225C99.1125 15.225 98.1458 15.4667 97.3125 15.95C96.4792 16.4167 95.8292 17.1 95.3625 18C94.8958 18.9 94.6625 19.9667 94.6625 21.2C94.6625 22.4333 94.8958 23.5 95.3625 24.4C95.8292 25.3 96.4792 25.9917 97.3125 26.475C98.1625 26.9583 99.1292 27.2 100.213 27.2C101.263 27.2 102.213 26.9583 103.063 26.475C103.929 25.975 104.604 25.275 105.088 24.375C105.571 23.4583 105.813 22.4 105.813 21.2Z" fill="white"/>
<path d="M23.9686 20.8336C24.8234 20.5588 26.0097 20.3209 26.0097 20.3209C26.0097 20.3209 22.634 20.608 19.2758 20.7393C15.1674 20.8992 10.7537 20.9321 8.53815 20.7926C3.29581 20.4645 11.4166 19.558 11.4166 19.558C11.4166 19.558 8.26774 19.4596 4.38615 20.3373C-0.193264 21.3791 15.7256 21.8549 23.9686 20.8336ZM16.5194 19.517C14.8621 17.7657 9.27085 16.2276 16.5194 13.537C25.5613 10.182 20.9244 8 20.9244 8C22.7997 11.4658 14.33 12.5158 11.2683 14.6691C9.18363 16.1415 12.2889 17.7206 16.5194 19.517ZM26.5156 12.2902C26.5243 12.2902 11.2335 14.0866 18.5343 18.0405C20.6889 19.2053 17.9674 20.2553 17.9674 20.2553C17.9674 20.2553 23.4365 18.9264 20.9244 17.2653C18.578 15.7149 16.7811 14.9439 26.5156 12.2902ZM25.9835 23.3848C25.9359 23.4238 25.8772 23.4597 25.8091 23.4914C37.0003 22.1092 32.8832 18.6147 27.5362 19.5006C27.2474 19.5505 26.9978 19.6407 26.8209 19.759C27.1331 19.7059 27.454 19.6647 27.7804 19.636C30.4844 19.3694 34.366 21.3381 25.9835 23.3848ZM30.0971 25.94C30.0971 25.94 31.3619 26.4281 28.7102 26.8095C23.6598 27.5273 7.706 27.7447 3.27488 26.8382C1.67862 26.5142 4.67051 26.0589 5.61256 25.9646C6.5895 25.8662 7.15647 25.8826 7.15647 25.8826C5.38577 25.2961 -4.29642 27.0351 2.23688 27.5314C20.0521 28.8931 34.7202 26.9203 30.0971 25.94ZM10.5967 24.242C3.73195 25.1443 14.7749 27.0064 23.515 25.2468C22.6626 25.0911 21.8397 24.9018 21.0552 24.6808C17.1562 25.0295 15.3506 25.0541 11.8092 24.8654C8.88705 24.7095 10.5967 24.242 10.5967 24.242ZM26.2801 28.2286C19.4153 28.8357 10.9456 28.7659 5.93006 28.3763C5.93006 28.3722 6.95934 28.7741 12.2453 28.9341C20.2876 29.1761 32.6389 28.7987 32.9268 27.0105C32.9268 27.0105 32.3685 27.6872 26.2801 28.2286ZM22.477 22.4783C17.3132 22.9459 14.3213 22.9336 10.5444 22.749C7.62226 22.6055 9.53253 21.941 9.53253 21.941C1.96124 23.1223 13.7369 24.4594 24.3175 23.0033C23.6337 22.8898 23.0071 22.711 22.477 22.4783Z" fill="white"/>
</svg>
