<svg width="159" height="38" viewBox="0 0 159 38" fill="none" xmlns="http://www.w3.org/2000/svg">
<path d="M11.4049 29.39C11.0627 29.39 10.7154 29.3172 10.4141 29.1796L7.26277 27.7028C6.79288 27.4924 7.02272 27.4196 7.17594 27.3791C7.80415 27.2051 7.93184 27.1687 8.60091 26.8653C8.67242 26.8329 8.76435 26.845 8.83586 26.8815L11.2568 28.0184C11.3436 28.0589 11.4662 28.0589 11.5479 28.0184L20.9813 23.7053C21.0682 23.6649 21.1243 23.5839 21.1243 23.503V14.8769C21.1243 14.7919 21.0682 14.715 20.9762 14.6705L11.5479 10.3615C11.4611 10.321 11.3436 10.321 11.2568 10.3615L1.83357 14.6746C1.74163 14.715 1.68545 14.7959 1.68545 14.8809V23.503C1.68545 23.5839 1.74163 23.6649 1.83357 23.7013L4.41793 24.8827C5.82247 25.437 6.68052 24.7856 6.68052 24.1261V15.6132C6.68052 15.4919 6.8031 15.3988 6.95632 15.3988H8.15146C8.29958 15.3988 8.42726 15.4919 8.42726 15.6132V24.1302C8.42726 25.611 7.40577 26.4607 5.6335 26.4607C5.087 26.4607 4.65798 26.4607 3.46284 25.9913L0.990842 24.8625C0.37795 24.5833 0 24.0614 0 23.499V14.8769C0 14.3185 0.37795 13.7925 0.990842 13.5134L10.4141 9.20028C11.0116 8.93324 11.8033 8.93324 12.3957 9.20028L21.8292 13.5174C22.4421 13.7966 22.82 14.3185 22.82 14.8809V23.503C22.82 24.0614 22.4421 24.5833 21.8292 24.8665L12.3957 29.1796C12.0944 29.3172 11.7522 29.39 11.4049 29.39ZM19.0201 20.8893C19.0201 19.2749 17.6411 18.846 14.7452 18.5426C11.8135 18.2351 11.5173 18.0773 11.5173 17.5351C11.5173 17.086 11.7675 16.4872 13.9382 16.4872C15.8739 16.4872 16.5889 16.819 16.8852 17.8547C16.9107 17.9519 17.0231 18.0247 17.1508 18.0247H18.3765C18.4531 18.0247 18.5247 18.0004 18.5757 17.9559C18.6268 17.9114 18.6523 17.8507 18.6472 17.79C18.4583 16.0057 16.9618 15.1763 13.9382 15.1763C11.2466 15.1763 9.64283 16.0745 9.64283 17.5837C9.64283 19.2183 11.2415 19.6714 13.8207 19.8737C16.9107 20.1124 17.1508 20.4725 17.1508 20.954C17.1508 21.7875 16.3029 22.1435 14.3161 22.1435C11.8186 22.1435 11.2721 21.6459 11.0882 20.6627C11.0678 20.5575 10.9554 20.4806 10.8175 20.4806H9.59686C9.44364 20.4806 9.32617 20.5777 9.32617 20.6951C9.32617 21.9534 10.1893 23.4545 14.3212 23.4545C17.304 23.4504 19.0201 22.5158 19.0201 20.8893Z" fill="white"/>
<path d="M40.195 10.45V24.075C40.195 25.2917 39.82 26.2833 39.07 27.05C38.32 27.8 37.3033 28.175 36.02 28.175C34.67 28.175 33.6033 27.7667 32.82 26.95C32.0533 26.1167 31.67 24.975 31.67 23.525H32.795C32.795 24.5917 33.0533 25.4667 33.57 26.15C34.0867 26.8333 34.9033 27.175 36.02 27.175C37.0867 27.175 37.8533 26.875 38.32 26.275C38.8033 25.6583 39.045 24.925 39.045 24.075V10.45H40.195ZM43.7423 21.2C43.7423 19.8 44.0173 18.575 44.5673 17.525C45.1339 16.475 45.9089 15.6667 46.8923 15.1C47.8923 14.5333 49.0256 14.25 50.2923 14.25C51.7256 14.25 52.9423 14.6 53.9423 15.3C54.9423 16 55.6423 16.8917 56.0423 17.975V14.425H57.1673V28H56.0423V24.425C55.6423 25.525 54.9339 26.4333 53.9173 27.15C52.9173 27.85 51.7089 28.2 50.2923 28.2C49.0256 28.2 47.8923 27.9167 46.8923 27.35C45.9089 26.7667 45.1339 25.95 44.5673 24.9C44.0173 23.8333 43.7423 22.6 43.7423 21.2ZM56.0423 21.2C56.0423 20.0167 55.7923 18.975 55.2923 18.075C54.8089 17.1583 54.1423 16.4583 53.2923 15.975C52.4423 15.475 51.4923 15.225 50.4423 15.225C49.3423 15.225 48.3756 15.4667 47.5423 15.95C46.7089 16.4167 46.0589 17.1 45.5923 18C45.1256 18.9 44.8923 19.9667 44.8923 21.2C44.8923 22.4333 45.1256 23.5 45.5923 24.4C46.0589 25.3 46.7089 25.9917 47.5423 26.475C48.3923 26.9583 49.3589 27.2 50.4423 27.2C51.4923 27.2 52.4423 26.9583 53.2923 26.475C54.1589 25.975 54.8339 25.275 55.3173 24.375C55.8006 23.4583 56.0423 22.4 56.0423 21.2ZM65.8636 26.775L70.8636 14.425H72.0636L66.4386 28H65.2636L59.6386 14.425H60.8636L65.8636 26.775ZM73.8448 21.2C73.8448 19.8 74.1198 18.575 74.6698 17.525C75.2365 16.475 76.0115 15.6667 76.9948 15.1C77.9948 14.5333 79.1281 14.25 80.3948 14.25C81.8281 14.25 83.0448 14.6 84.0448 15.3C85.0448 16 85.7448 16.8917 86.1448 17.975V14.425H87.2698V28H86.1448V24.425C85.7448 25.525 85.0365 26.4333 84.0198 27.15C83.0198 27.85 81.8115 28.2 80.3948 28.2C79.1281 28.2 77.9948 27.9167 76.9948 27.35C76.0115 26.7667 75.2365 25.95 74.6698 24.9C74.1198 23.8333 73.8448 22.6 73.8448 21.2ZM86.1448 21.2C86.1448 20.0167 85.8948 18.975 85.3948 18.075C84.9115 17.1583 84.2448 16.4583 83.3948 15.975C82.5448 15.475 81.5948 15.225 80.5448 15.225C79.4448 15.225 78.4781 15.4667 77.6448 15.95C76.8115 16.4167 76.1615 17.1 75.6948 18C75.2281 18.9 74.9948 19.9667 74.9948 21.2C74.9948 22.4333 75.2281 23.5 75.6948 24.4C76.1615 25.3 76.8115 25.9917 77.6448 26.475C78.4948 26.9583 79.4615 27.2 80.5448 27.2C81.5948 27.2 82.5448 26.9583 83.3948 26.475C84.2615 25.975 84.9365 25.275 85.4198 24.375C85.9031 23.4583 86.1448 22.4 86.1448 21.2ZM96.4411 28.175C95.3078 28.175 94.3161 27.975 93.4661 27.575C92.6161 27.175 91.9494 26.6333 91.4661 25.95C90.9994 25.2667 90.7328 24.5083 90.6661 23.675H91.8411C91.9744 24.5917 92.3994 25.4083 93.1161 26.125C93.8494 26.8417 94.9578 27.2 96.4411 27.2C97.3078 27.2 98.0578 27.0417 98.6911 26.725C99.3411 26.4083 99.8411 25.975 100.191 25.425C100.541 24.875 100.716 24.2667 100.716 23.6C100.716 22.75 100.508 22.075 100.091 21.575C99.6911 21.075 99.1828 20.7 98.5661 20.45C97.9661 20.2 97.1494 19.9333 96.1161 19.65C94.9828 19.35 94.0661 19.05 93.3661 18.75C92.6828 18.45 92.0994 17.9917 91.6161 17.375C91.1494 16.7417 90.9161 15.8833 90.9161 14.8C90.9161 13.9667 91.1328 13.2083 91.5661 12.525C92.0161 11.825 92.6494 11.275 93.4661 10.875C94.2828 10.475 95.2244 10.275 96.2911 10.275C97.8411 10.275 99.0911 10.6583 100.041 11.425C100.991 12.1917 101.558 13.1333 101.741 14.25H100.541C100.441 13.8 100.216 13.3417 99.8661 12.875C99.5328 12.4083 99.0494 12.025 98.4161 11.725C97.7994 11.4083 97.0578 11.25 96.1911 11.25C95.0244 11.25 94.0411 11.575 93.2411 12.225C92.4411 12.8583 92.0411 13.7083 92.0411 14.775C92.0411 15.625 92.2494 16.3083 92.6661 16.825C93.0828 17.325 93.5911 17.7083 94.1911 17.975C94.8078 18.225 95.6328 18.4833 96.6661 18.75C97.8161 19.0667 98.7244 19.375 99.3911 19.675C100.074 19.9583 100.649 20.4167 101.116 21.05C101.599 21.6667 101.841 22.5083 101.841 23.575C101.841 24.3583 101.633 25.1 101.216 25.8C100.799 26.5 100.183 27.075 99.3661 27.525C98.5661 27.9583 97.5911 28.175 96.4411 28.175ZM104.509 21.2C104.509 19.7833 104.784 18.55 105.334 17.5C105.901 16.45 106.676 15.65 107.659 15.1C108.659 14.5333 109.801 14.25 111.084 14.25C112.784 14.25 114.176 14.675 115.259 15.525C116.359 16.375 117.042 17.5167 117.309 18.95H116.134C115.917 17.7833 115.351 16.8667 114.434 16.2C113.534 15.5333 112.417 15.2 111.084 15.2C110.084 15.2 109.176 15.425 108.359 15.875C107.542 16.3083 106.884 16.9833 106.384 17.9C105.901 18.8 105.659 19.9 105.659 21.2C105.659 22.5167 105.901 23.625 106.384 24.525C106.884 25.425 107.542 26.1 108.359 26.55C109.176 27 110.084 27.225 111.084 27.225C112.417 27.225 113.534 26.8917 114.434 26.225C115.351 25.5583 115.917 24.6417 116.134 23.475H117.309C117.042 24.8917 116.359 26.0333 115.259 26.9C114.159 27.7667 112.767 28.2 111.084 28.2C109.801 28.2 108.659 27.9167 107.659 27.35C106.676 26.7833 105.901 25.975 105.334 24.925C104.784 23.8583 104.509 22.6167 104.509 21.2ZM121.861 17.225C122.195 16.225 122.786 15.4667 123.636 14.95C124.486 14.4167 125.57 14.15 126.886 14.15V15.325H126.511C125.178 15.325 124.07 15.7083 123.186 16.475C122.303 17.225 121.861 18.4583 121.861 20.175V28H120.736V14.425H121.861V17.225ZM130.051 11.4C129.785 11.4 129.56 11.3167 129.376 11.15C129.193 10.9667 129.101 10.725 129.101 10.425C129.101 10.1417 129.193 9.90833 129.376 9.725C129.56 9.54167 129.785 9.45 130.051 9.45C130.318 9.45 130.543 9.54167 130.726 9.725C130.91 9.90833 131.001 10.1417 131.001 10.425C131.001 10.725 130.91 10.9667 130.726 11.15C130.543 11.3167 130.318 11.4 130.051 11.4ZM130.601 14.425V28H129.476V14.425H130.601ZM135.85 18C136.234 16.9 136.925 16 137.925 15.3C138.942 14.6 140.167 14.25 141.6 14.25C142.867 14.25 143.992 14.5333 144.975 15.1C145.975 15.6667 146.75 16.475 147.3 17.525C147.867 18.575 148.15 19.8 148.15 21.2C148.15 22.6 147.867 23.8333 147.3 24.9C146.75 25.95 145.975 26.7667 144.975 27.35C143.992 27.9167 142.867 28.2 141.6 28.2C140.184 28.2 138.967 27.85 137.95 27.15C136.95 26.4333 136.25 25.5333 135.85 24.45V34.4H134.725V14.425H135.85V18ZM147 21.2C147 19.9667 146.767 18.9 146.3 18C145.834 17.1 145.175 16.4167 144.325 15.95C143.492 15.4667 142.525 15.225 141.425 15.225C140.375 15.225 139.425 15.475 138.575 15.975C137.725 16.4583 137.059 17.1583 136.575 18.075C136.092 18.975 135.85 20.0167 135.85 21.2C135.85 22.4 136.092 23.4583 136.575 24.375C137.059 25.275 137.725 25.975 138.575 26.475C139.425 26.9583 140.375 27.2 141.425 27.2C142.525 27.2 143.492 26.9583 144.325 26.475C145.175 25.9917 145.834 25.3 146.3 24.4C146.767 23.5 147 22.4333 147 21.2ZM153.222 15.4V24.375C153.222 25.375 153.405 26.0667 153.772 26.45C154.138 26.8167 154.788 27 155.722 27H157.247V28H155.547C154.363 28 153.488 27.725 152.922 27.175C152.372 26.6083 152.097 25.675 152.097 24.375V15.4H150.047V14.425H152.097V10.975H153.222V14.425H157.247V15.4H153.222Z" fill="white"/>
</svg>
