<svg width="180" height="38" viewBox="0 0 180 38" fill="none" xmlns="http://www.w3.org/2000/svg">
<path d="M12.9258 29.39C12.538 29.39 12.1444 29.3172 11.8028 29.1796L8.2313 27.7028C7.69876 27.4924 7.95924 27.4196 8.1329 27.3791C8.84489 27.2051 8.9896 27.1687 9.7479 26.8653C9.82894 26.8329 9.93314 26.845 10.0142 26.8815L12.7579 28.0184C12.8563 28.0589 12.9953 28.0589 13.0879 28.0184L23.7793 23.7053C23.8777 23.6649 23.9414 23.5839 23.9414 23.503V14.8769C23.9414 14.7919 23.8777 14.715 23.7735 14.6705L13.0879 10.3615C12.9895 10.321 12.8563 10.321 12.7579 10.3615L2.07809 14.6746C1.97389 14.715 1.91022 14.7959 1.91022 14.8809V23.503C1.91022 23.5839 1.97389 23.6649 2.07809 23.7013L5.00709 24.8827C6.59894 25.437 7.57141 24.7856 7.57141 24.1261V15.6132C7.57141 15.4919 7.71034 15.3988 7.88399 15.3988H9.23851C9.40638 15.3988 9.55109 15.4919 9.55109 15.6132V24.1302C9.55109 25.611 8.39338 26.4607 6.38476 26.4607C5.76539 26.4607 5.27915 26.4607 3.92463 25.9913L1.12298 24.8625C0.428352 24.5833 0 24.0614 0 23.499V14.8769C0 14.3185 0.428352 13.7925 1.12298 13.5134L11.8028 9.20028C12.4801 8.93324 13.3773 8.93324 14.0488 9.20028L24.7402 13.5174C25.4348 13.7966 25.8632 14.3185 25.8632 14.8809V23.503C25.8632 24.0614 25.4348 24.5833 24.7402 24.8665L14.0488 29.1796C13.7073 29.3172 13.3194 29.39 12.9258 29.39ZM21.5565 20.8893C21.5565 19.2749 19.9936 18.846 16.7115 18.5426C13.3889 18.2351 13.0532 18.0773 13.0532 17.5351C13.0532 17.086 13.3368 16.4872 15.7969 16.4872C17.9908 16.4872 18.8012 16.819 19.1369 17.8547C19.1659 17.9519 19.2932 18.0247 19.4379 18.0247H20.8272C20.914 18.0247 20.995 18.0004 21.0529 17.9559C21.1108 17.9114 21.1397 17.8507 21.134 17.79C20.9198 16.0057 19.2237 15.1763 15.7969 15.1763C12.7464 15.1763 10.9288 16.0745 10.9288 17.5837C10.9288 19.2183 12.7406 19.6714 15.6638 19.8737C19.1659 20.1124 19.4379 20.4725 19.4379 20.954C19.4379 21.7875 18.477 22.1435 16.2253 22.1435C13.3947 22.1435 12.7753 21.6459 12.5669 20.6627C12.5438 20.5575 12.4164 20.4806 12.2601 20.4806H10.8767C10.703 20.4806 10.5699 20.5777 10.5699 20.6951C10.5699 21.9534 11.5481 23.4545 16.2311 23.4545C19.6116 23.4504 21.5565 22.5158 21.5565 20.8893Z" fill="white"/>
<path d="M44.3058 10.45V24.075C44.3058 25.2917 43.9308 26.2833 43.1808 27.05C42.4308 27.8 41.4141 28.175 40.1308 28.175C38.7808 28.175 37.7141 27.7667 36.9308 26.95C36.1641 26.1167 35.7808 24.975 35.7808 23.525H36.9058C36.9058 24.5917 37.1641 25.4667 37.6808 26.15C38.1975 26.8333 39.0141 27.175 40.1308 27.175C41.1975 27.175 41.9641 26.875 42.4308 26.275C42.9141 25.6583 43.1558 24.925 43.1558 24.075V10.45H44.3058ZM47.8531 21.2C47.8531 19.8 48.1281 18.575 48.6781 17.525C49.2447 16.475 50.0197 15.6667 51.0031 15.1C52.0031 14.5333 53.1364 14.25 54.4031 14.25C55.8364 14.25 57.0531 14.6 58.0531 15.3C59.0531 16 59.7531 16.8917 60.1531 17.975V14.425H61.2781V28H60.1531V24.425C59.7531 25.525 59.0447 26.4333 58.0281 27.15C57.0281 27.85 55.8197 28.2 54.4031 28.2C53.1364 28.2 52.0031 27.9167 51.0031 27.35C50.0197 26.7667 49.2447 25.95 48.6781 24.9C48.1281 23.8333 47.8531 22.6 47.8531 21.2ZM60.1531 21.2C60.1531 20.0167 59.9031 18.975 59.4031 18.075C58.9197 17.1583 58.2531 16.4583 57.4031 15.975C56.5531 15.475 55.6031 15.225 54.5531 15.225C53.4531 15.225 52.4864 15.4667 51.6531 15.95C50.8197 16.4167 50.1697 17.1 49.7031 18C49.2364 18.9 49.0031 19.9667 49.0031 21.2C49.0031 22.4333 49.2364 23.5 49.7031 24.4C50.1697 25.3 50.8197 25.9917 51.6531 26.475C52.5031 26.9583 53.4697 27.2 54.5531 27.2C55.6031 27.2 56.5531 26.9583 57.4031 26.475C58.2697 25.975 58.9447 25.275 59.4281 24.375C59.9114 23.4583 60.1531 22.4 60.1531 21.2ZM69.9743 26.775L74.9743 14.425H76.1743L70.5493 28H69.3743L63.7493 14.425H64.9743L69.9743 26.775ZM77.9556 21.2C77.9556 19.8 78.2306 18.575 78.7806 17.525C79.3473 16.475 80.1223 15.6667 81.1056 15.1C82.1056 14.5333 83.2389 14.25 84.5056 14.25C85.9389 14.25 87.1556 14.6 88.1556 15.3C89.1556 16 89.8556 16.8917 90.2556 17.975V14.425H91.3806V28H90.2556V24.425C89.8556 25.525 89.1473 26.4333 88.1306 27.15C87.1306 27.85 85.9223 28.2 84.5056 28.2C83.2389 28.2 82.1056 27.9167 81.1056 27.35C80.1223 26.7667 79.3473 25.95 78.7806 24.9C78.2306 23.8333 77.9556 22.6 77.9556 21.2ZM90.2556 21.2C90.2556 20.0167 90.0056 18.975 89.5056 18.075C89.0223 17.1583 88.3556 16.4583 87.5056 15.975C86.6556 15.475 85.7056 15.225 84.6556 15.225C83.5556 15.225 82.5889 15.4667 81.7556 15.95C80.9223 16.4167 80.2723 17.1 79.8056 18C79.3389 18.9 79.1056 19.9667 79.1056 21.2C79.1056 22.4333 79.3389 23.5 79.8056 24.4C80.2723 25.3 80.9223 25.9917 81.7556 26.475C82.6056 26.9583 83.5723 27.2 84.6556 27.2C85.7056 27.2 86.6556 26.9583 87.5056 26.475C88.3723 25.975 89.0473 25.275 89.5306 24.375C90.0139 23.4583 90.2556 22.4 90.2556 21.2ZM100.552 28.175C99.4185 28.175 98.4269 27.975 97.5769 27.575C96.7269 27.175 96.0602 26.6333 95.5769 25.95C95.1102 25.2667 94.8435 24.5083 94.7769 23.675H95.9519C96.0852 24.5917 96.5102 25.4083 97.2269 26.125C97.9602 26.8417 99.0685 27.2 100.552 27.2C101.419 27.2 102.169 27.0417 102.802 26.725C103.452 26.4083 103.952 25.975 104.302 25.425C104.652 24.875 104.827 24.2667 104.827 23.6C104.827 22.75 104.619 22.075 104.202 21.575C103.802 21.075 103.294 20.7 102.677 20.45C102.077 20.2 101.26 19.9333 100.227 19.65C99.0935 19.35 98.1769 19.05 97.4769 18.75C96.7935 18.45 96.2102 17.9917 95.7269 17.375C95.2602 16.7417 95.0269 15.8833 95.0269 14.8C95.0269 13.9667 95.2435 13.2083 95.6769 12.525C96.1269 11.825 96.7602 11.275 97.5769 10.875C98.3935 10.475 99.3352 10.275 100.402 10.275C101.952 10.275 103.202 10.6583 104.152 11.425C105.102 12.1917 105.669 13.1333 105.852 14.25H104.652C104.552 13.8 104.327 13.3417 103.977 12.875C103.644 12.4083 103.16 12.025 102.527 11.725C101.91 11.4083 101.169 11.25 100.302 11.25C99.1352 11.25 98.1519 11.575 97.3519 12.225C96.5519 12.8583 96.1519 13.7083 96.1519 14.775C96.1519 15.625 96.3602 16.3083 96.7769 16.825C97.1935 17.325 97.7019 17.7083 98.3019 17.975C98.9185 18.225 99.7435 18.4833 100.777 18.75C101.927 19.0667 102.835 19.375 103.502 19.675C104.185 19.9583 104.76 20.4167 105.227 21.05C105.71 21.6667 105.952 22.5083 105.952 23.575C105.952 24.3583 105.744 25.1 105.327 25.8C104.91 26.5 104.294 27.075 103.477 27.525C102.677 27.9583 101.702 28.175 100.552 28.175ZM108.62 21.2C108.62 19.7833 108.895 18.55 109.445 17.5C110.011 16.45 110.786 15.65 111.77 15.1C112.77 14.5333 113.911 14.25 115.195 14.25C116.895 14.25 118.286 14.675 119.37 15.525C120.47 16.375 121.153 17.5167 121.42 18.95H120.245C120.028 17.7833 119.461 16.8667 118.545 16.2C117.645 15.5333 116.528 15.2 115.195 15.2C114.195 15.2 113.286 15.425 112.47 15.875C111.653 16.3083 110.995 16.9833 110.495 17.9C110.011 18.8 109.77 19.9 109.77 21.2C109.77 22.5167 110.011 23.625 110.495 24.525C110.995 25.425 111.653 26.1 112.47 26.55C113.286 27 114.195 27.225 115.195 27.225C116.528 27.225 117.645 26.8917 118.545 26.225C119.461 25.5583 120.028 24.6417 120.245 23.475H121.42C121.153 24.8917 120.47 26.0333 119.37 26.9C118.27 27.7667 116.878 28.2 115.195 28.2C113.911 28.2 112.77 27.9167 111.77 27.35C110.786 26.7833 110.011 25.975 109.445 24.925C108.895 23.8583 108.62 22.6167 108.62 21.2ZM125.972 17.225C126.305 16.225 126.897 15.4667 127.747 14.95C128.597 14.4167 129.68 14.15 130.997 14.15V15.325H130.622C129.289 15.325 128.18 15.7083 127.297 16.475C126.414 17.225 125.972 18.4583 125.972 20.175V28H124.847V14.425H125.972V17.225ZM134.162 11.4C133.896 11.4 133.671 11.3167 133.487 11.15C133.304 10.9667 133.212 10.725 133.212 10.425C133.212 10.1417 133.304 9.90833 133.487 9.725C133.671 9.54167 133.896 9.45 134.162 9.45C134.429 9.45 134.654 9.54167 134.837 9.725C135.021 9.90833 135.112 10.1417 135.112 10.425C135.112 10.725 135.021 10.9667 134.837 11.15C134.654 11.3167 134.429 11.4 134.162 11.4ZM134.712 14.425V28H133.587V14.425H134.712ZM139.961 18C140.345 16.9 141.036 16 142.036 15.3C143.053 14.6 144.278 14.25 145.711 14.25C146.978 14.25 148.103 14.5333 149.086 15.1C150.086 15.6667 150.861 16.475 151.411 17.525C151.978 18.575 152.261 19.8 152.261 21.2C152.261 22.6 151.978 23.8333 151.411 24.9C150.861 25.95 150.086 26.7667 149.086 27.35C148.103 27.9167 146.978 28.2 145.711 28.2C144.295 28.2 143.078 27.85 142.061 27.15C141.061 26.4333 140.361 25.5333 139.961 24.45V34.4H138.836V14.425H139.961V18ZM151.111 21.2C151.111 19.9667 150.878 18.9 150.411 18C149.945 17.1 149.286 16.4167 148.436 15.95C147.603 15.4667 146.636 15.225 145.536 15.225C144.486 15.225 143.536 15.475 142.686 15.975C141.836 16.4583 141.17 17.1583 140.686 18.075C140.203 18.975 139.961 20.0167 139.961 21.2C139.961 22.4 140.203 23.4583 140.686 24.375C141.17 25.275 141.836 25.975 142.686 26.475C143.536 26.9583 144.486 27.2 145.536 27.2C146.636 27.2 147.603 26.9583 148.436 26.475C149.286 25.9917 149.945 25.3 150.411 24.4C150.878 23.5 151.111 22.4333 151.111 21.2ZM157.333 15.4V24.375C157.333 25.375 157.516 26.0667 157.883 26.45C158.249 26.8167 158.899 27 159.833 27H161.358V28H159.658C158.474 28 157.599 27.725 157.033 27.175C156.483 26.6083 156.208 25.675 156.208 24.375V15.4H154.158V14.425H156.208V10.975H157.333V14.425H161.358V15.4H157.333Z" fill="white"/>
</svg>
