<svg width="154" height="33" viewBox="0 0 154 33" fill="none" xmlns="http://www.w3.org/2000/svg">
<path d="M10.9033 28.6069C10.5762 28.6069 10.2441 28.519 9.95606 28.353L6.94336 26.5708C6.49414 26.3169 6.71387 26.229 6.86035 26.1802C7.46094 25.9702 7.58301 25.9263 8.22266 25.5601C8.29102 25.521 8.37891 25.5356 8.44727 25.5796L10.7617 26.9517C10.8447 27.0005 10.9619 27.0005 11.04 26.9517L20.0586 21.7466C20.1416 21.6978 20.1953 21.6001 20.1953 21.5024V11.0923C20.1953 10.9897 20.1416 10.897 20.0537 10.8433L11.04 5.64307C10.957 5.59424 10.8447 5.59424 10.7617 5.64307L1.75293 10.8481C1.66504 10.897 1.61133 10.9946 1.61133 11.0972V21.5024C1.61133 21.6001 1.66504 21.6978 1.75293 21.7417L4.22363 23.1675C5.56641 23.8364 6.38672 23.0503 6.38672 22.2544V11.981C6.38672 11.8345 6.50391 11.7222 6.65039 11.7222H7.79297C7.93457 11.7222 8.05664 11.8345 8.05664 11.981V22.2593C8.05664 24.0464 7.08008 25.0718 5.38574 25.0718C4.86328 25.0718 4.45313 25.0718 3.31055 24.5054L0.947266 23.1431C0.361328 22.8062 0 22.1763 0 21.4976V11.0923C0 10.4185 0.361328 9.78369 0.947266 9.44678L9.95606 4.2417C10.5273 3.91943 11.2842 3.91943 11.8506 4.2417L20.8691 9.45166C21.4551 9.78857 21.8164 10.4185 21.8164 11.0972V21.5024C21.8164 22.1763 21.4551 22.8062 20.8691 23.148L11.8506 28.353C11.5625 28.519 11.2354 28.6069 10.9033 28.6069ZM18.1836 18.3481C18.1836 16.3999 16.8652 15.8823 14.0967 15.5161C11.2939 15.145 11.0107 14.9546 11.0107 14.3003C11.0107 13.7583 11.25 13.0356 13.3252 13.0356C15.1758 13.0356 15.8594 13.436 16.1426 14.686C16.167 14.8032 16.2744 14.8911 16.3965 14.8911H17.5684C17.6416 14.8911 17.71 14.8618 17.7588 14.8081C17.8076 14.7544 17.832 14.6812 17.8271 14.6079C17.6465 12.4546 16.2158 11.4536 13.3252 11.4536C10.752 11.4536 9.21875 12.5376 9.21875 14.3589C9.21875 16.3315 10.7471 16.8784 13.2129 17.1226C16.167 17.4106 16.3965 17.8452 16.3965 18.4263C16.3965 19.4321 15.5859 19.8618 13.6865 19.8618C11.2988 19.8618 10.7764 19.2612 10.6006 18.0747C10.5811 17.9478 10.4736 17.855 10.3418 17.855H9.17481C9.02832 17.855 8.91602 17.9722 8.91602 18.1138C8.91602 19.6323 9.74121 21.4438 13.6914 21.4438C16.543 21.439 18.1836 20.311 18.1836 18.3481Z" fill="white"/>
<path d="M32.975 25.6C32.4583 25.6 31.925 25.525 31.375 25.375C30.8417 25.225 30.3167 25.0167 29.8 24.75L30.25 23.4C30.5667 23.5 30.8667 23.5833 31.15 23.65C31.4333 23.7167 31.7083 23.75 31.975 23.75C32.6583 23.75 33.125 23.525 33.375 23.075C33.6417 22.625 33.775 22.1 33.775 21.5C33.775 21.4667 33.7667 21.3917 33.75 21.275C33.75 21.1583 33.7333 20.9 33.7 20.5C33.6667 20.1 33.6083 19.45 33.525 18.55C33.4583 17.65 33.3583 16.4167 33.225 14.85C33.0917 13.2667 32.9167 11.2333 32.7 8.75L38.65 8.375L37.25 21.475C37.1333 22.5583 36.8667 23.4 36.45 24C36.05 24.6 35.5417 25.0167 34.925 25.25C34.325 25.4833 33.675 25.6 32.975 25.6ZM43.8975 25.575C43.7975 25.575 43.6891 25.575 43.5725 25.575C43.4725 25.575 43.3725 25.5667 43.2725 25.55C42.7058 25.1667 42.2475 24.6 41.8975 23.85C41.5641 23.0833 41.3975 22.2917 41.3975 21.475C41.3975 20.7917 41.5558 20.225 41.8725 19.775C42.1891 19.325 42.7558 18.9917 43.5725 18.775C44.4058 18.5417 45.5725 18.425 47.0725 18.425C47.4391 18.425 47.8308 18.4417 48.2475 18.475C48.6641 18.4917 49.1058 18.5333 49.5725 18.6L49.5225 18.05C49.4558 17.3667 49.1308 16.8333 48.5475 16.45C47.9808 16.0667 47.3058 15.875 46.5225 15.875C46.0891 15.875 45.6308 15.9417 45.1475 16.075C44.6808 16.2083 44.2141 16.4167 43.7475 16.7L42.6475 13.075C43.1975 12.8417 43.8975 12.6417 44.7475 12.475C45.6141 12.2917 46.5058 12.2 47.4225 12.2C48.6391 12.2 49.6975 12.375 50.5975 12.725C51.5141 13.075 52.2225 13.625 52.7225 14.375C53.2391 15.1083 53.4975 16.0833 53.4975 17.3C53.4975 17.45 53.4891 17.625 53.4725 17.825C53.4725 18.025 53.4641 18.1667 53.4475 18.25L52.7475 25.15L50.2725 25.375L49.8975 21.75H49.6975C49.1475 22.9167 48.3725 23.85 47.3725 24.55C46.3891 25.2333 45.2308 25.575 43.8975 25.575ZM45.7725 22.775C46.1391 22.7083 46.5725 22.5917 47.0725 22.425C47.5891 22.2417 48.0808 21.9417 48.5475 21.525C49.0308 21.0917 49.4058 20.4667 49.6725 19.65C49.4558 19.65 49.2391 19.65 49.0225 19.65C48.8058 19.6333 48.5808 19.625 48.3475 19.625C47.8308 19.625 47.3641 19.6333 46.9475 19.65C46.5308 19.6667 46.0975 19.7167 45.6475 19.8C45.5808 19.95 45.5058 20.1333 45.4225 20.35C45.3391 20.5667 45.2975 20.8417 45.2975 21.175C45.2975 21.4583 45.3475 21.7667 45.4475 22.1C45.5475 22.4167 45.6558 22.6417 45.7725 22.775ZM61.3244 25.375L55.7744 13L61.1244 12.175L62.7744 21.75H62.9744L66.1994 12.25L68.2244 12.8L63.3494 25.05L61.3244 25.375ZM72.3398 25.575C72.2398 25.575 72.1315 25.575 72.0148 25.575C71.9148 25.575 71.8148 25.5667 71.7148 25.55C71.1482 25.1667 70.6898 24.6 70.3398 23.85C70.0065 23.0833 69.8398 22.2917 69.8398 21.475C69.8398 20.7917 69.9982 20.225 70.3148 19.775C70.6315 19.325 71.1982 18.9917 72.0148 18.775C72.8482 18.5417 74.0148 18.425 75.5148 18.425C75.8815 18.425 76.2732 18.4417 76.6898 18.475C77.1065 18.4917 77.5482 18.5333 78.0148 18.6L77.9648 18.05C77.8982 17.3667 77.5732 16.8333 76.9898 16.45C76.4232 16.0667 75.7482 15.875 74.9648 15.875C74.5315 15.875 74.0732 15.9417 73.5898 16.075C73.1232 16.2083 72.6565 16.4167 72.1898 16.7L71.0898 13.075C71.6398 12.8417 72.3398 12.6417 73.1898 12.475C74.0565 12.2917 74.9482 12.2 75.8648 12.2C77.0815 12.2 78.1398 12.375 79.0398 12.725C79.9565 13.075 80.6648 13.625 81.1648 14.375C81.6815 15.1083 81.9398 16.0833 81.9398 17.3C81.9398 17.45 81.9315 17.625 81.9148 17.825C81.9148 18.025 81.9065 18.1667 81.8898 18.25L81.1898 25.15L78.7148 25.375L78.3398 21.75H78.1398C77.5898 22.9167 76.8148 23.85 75.8148 24.55C74.8315 25.2333 73.6732 25.575 72.3398 25.575ZM74.2148 22.775C74.5815 22.7083 75.0148 22.5917 75.5148 22.425C76.0315 22.2417 76.5232 21.9417 76.9898 21.525C77.4732 21.0917 77.8482 20.4667 78.1148 19.65C77.8982 19.65 77.6815 19.65 77.4648 19.65C77.2482 19.6333 77.0232 19.625 76.7898 19.625C76.2732 19.625 75.8065 19.6333 75.3898 19.65C74.9732 19.6667 74.5398 19.7167 74.0898 19.8C74.0232 19.95 73.9482 20.1333 73.8648 20.35C73.7815 20.5667 73.7398 20.8417 73.7398 21.175C73.7398 21.4583 73.7898 21.7667 73.8898 22.1C73.9898 22.4167 74.0982 22.6417 74.2148 22.775ZM87.4418 26.125L86.2418 24.5C87.0918 24.0167 87.6668 23.5667 87.9668 23.15C88.2668 22.7333 88.4168 22.3 88.4168 21.85C88.4168 21.3667 88.2918 20.9083 88.0418 20.475C87.7918 20.025 87.4835 19.575 87.1168 19.125C86.7501 18.675 86.3751 18.2 85.9918 17.7C85.6251 17.1833 85.3168 16.625 85.0668 16.025C84.8168 15.4083 84.6918 14.7333 84.6918 14C84.6918 12.6167 85.0418 11.4083 85.7418 10.375C86.4585 9.325 87.3585 8.36667 88.4418 7.5L93.0168 10.55C92.1168 11.1167 91.3751 11.7417 90.7918 12.425C90.2085 13.1083 89.9168 13.8583 89.9168 14.675C89.9168 15.225 90.0418 15.7417 90.2918 16.225C90.5585 16.7083 90.8501 17.1833 91.1668 17.65C91.5001 18.1 91.7918 18.5583 92.0418 19.025C92.3085 19.4917 92.4418 19.9917 92.4418 20.525C92.4418 21.8417 91.9835 22.9583 91.0668 23.875C90.1668 24.775 88.9585 25.525 87.4418 26.125ZM101.333 25.6C100.133 25.6 99.0417 25.4583 98.0584 25.175C97.0917 24.8917 96.3584 24.5417 95.8584 24.125C95.7251 23.4583 95.6251 22.8583 95.5584 22.325C95.5084 21.775 95.4834 21.2583 95.4834 20.775C95.4834 19.2917 95.7167 17.9333 96.1834 16.7C96.6501 15.45 97.2417 14.3833 97.9584 13.5C98.6751 12.6 99.4084 11.9417 100.158 11.525L104.483 14.35C102.417 15.4667 100.775 16.8 99.5584 18.35C98.3417 19.9 97.7334 21.5417 97.7334 23.275C98.4334 23.375 99.1584 23.425 99.9084 23.425C100.642 23.425 101.383 23.3667 102.133 23.25C102.9 23.1167 103.667 22.9 104.433 22.6L105.183 25.025C104.533 25.2417 103.883 25.3917 103.233 25.475C102.583 25.5583 101.95 25.6 101.333 25.6ZM108.632 25.375L107.357 12.975L112.707 12.15L112.207 16.15H112.382C113.016 14.7667 113.766 13.6833 114.632 12.9C115.516 12.1 116.466 11.6583 117.482 11.575L116.782 16.9C116.516 16.8667 116.257 16.8417 116.007 16.825C115.774 16.7917 115.541 16.775 115.307 16.775C114.591 16.775 113.974 16.9333 113.457 17.25C112.957 17.5667 112.541 18.1333 112.207 18.95C111.891 19.75 111.641 20.875 111.457 22.325L111.107 25.15L108.632 25.375ZM121.651 10.9C121.017 10.9 120.467 10.675 120.001 10.225C119.551 9.75833 119.326 9.20833 119.326 8.575C119.326 7.94167 119.551 7.4 120.001 6.95C120.467 6.48333 121.017 6.25 121.651 6.25C122.284 6.25 122.826 6.48333 123.276 6.95C123.742 7.4 123.976 7.94167 123.976 8.575C123.976 9.20833 123.742 9.75833 123.276 10.225C122.826 10.675 122.284 10.9 121.651 10.9ZM120.501 25.375L119.226 13L124.576 12.175L122.976 25.15L120.501 25.375ZM129.088 30.425L128.313 12.975L133.663 12.15L133.113 16.55H133.288C133.938 15.15 134.688 14.0333 135.538 13.2C136.388 12.35 137.28 11.925 138.213 11.925C138.53 11.925 138.838 11.975 139.138 12.075C139.538 12.5583 139.888 13.2083 140.188 14.025C140.505 14.8417 140.747 15.75 140.913 16.75C141.08 17.75 141.163 18.775 141.163 19.825C141.163 21.0917 141.005 22.1583 140.688 23.025C140.372 23.875 139.83 24.5167 139.063 24.95C138.313 25.3833 137.28 25.6 135.963 25.6C135.23 25.6 134.53 25.5167 133.863 25.35C133.213 25.2 132.622 25 132.088 24.75L131.413 30.2L129.088 30.425ZM134.988 24.05C135.605 24.05 136.13 23.9333 136.563 23.7C136.647 23.25 136.73 22.7083 136.813 22.075C136.897 21.4417 136.938 20.6167 136.938 19.6C136.938 19.0333 136.913 18.4333 136.863 17.8C136.813 17.1667 136.747 16.5833 136.663 16.05C136.597 15.5167 136.522 15.1333 136.438 14.9C136.138 15.0167 135.797 15.1833 135.413 15.4C135.03 15.6167 134.638 15.9917 134.238 16.525C133.855 17.0583 133.488 17.85 133.138 18.9C132.805 19.95 132.522 21.3667 132.288 23.15C132.672 23.45 133.097 23.675 133.563 23.825C134.047 23.975 134.522 24.05 134.988 24.05ZM147.007 25.375L145.932 15.275L143.632 15.6L143.482 13.025L145.682 12.925L145.307 9.425L151.532 8.6L151.032 12.65L153.507 12.525L153.432 14.2L150.782 14.575L149.482 25.15L147.007 25.375Z" fill="white"/>
</svg>
