<svg width="88" height="25" viewBox="0 0 88 25" fill="none" xmlns="http://www.w3.org/2000/svg">
<path d="M37.05 15.5C37.05 17.1833 36.9167 18.4333 36.65 19.25C36.4 20.0667 35.9 20.725 35.15 21.225C34.4167 21.7083 33.6167 21.95 32.75 21.95C31.9 21.95 31.1083 21.8167 30.375 21.55C29.6583 21.2833 28.8083 20.725 27.825 19.875L28.975 18.175C29.9417 18.875 30.675 19.3417 31.175 19.575C31.675 19.8083 32.1583 19.925 32.625 19.925C33.1083 19.925 33.55 19.75 33.95 19.4C34.35 19.05 34.6 18.6 34.7 18.05C34.8167 17.4833 34.875 16.6083 34.875 15.425V3.2H37.05V15.5ZM54.3605 21.5H52.3355V19.5C50.8522 21.1333 49.1439 21.95 47.2105 21.95C45.2772 21.95 43.6189 21.2417 42.2355 19.825C40.8689 18.3917 40.1855 16.6917 40.1855 14.725C40.1855 12.7417 40.8772 11.05 42.2605 9.65C43.6439 8.23333 45.3272 7.525 47.3105 7.525C49.3105 7.525 50.9855 8.33333 52.3355 9.95V7.875H54.3605V21.5ZM47.3605 20.025C48.7439 20.025 49.9355 19.525 50.9355 18.525C51.9355 17.525 52.4355 16.2833 52.4355 14.8C52.4355 13.3 51.9439 12.05 50.9605 11.05C49.9772 10.0333 48.7689 9.525 47.3355 9.525C45.9189 9.525 44.7189 10.05 43.7355 11.1C42.7522 12.1333 42.2605 13.3583 42.2605 14.775C42.2605 16.1917 42.7605 17.425 43.7605 18.475C44.7605 19.5083 45.9605 20.025 47.3605 20.025ZM69.526 7.875L63.301 21.95H62.801L56.526 7.875H58.701L63.026 17.725L67.351 7.875H69.526ZM85.2688 21.5H83.2438V19.5C81.7604 21.1333 80.0521 21.95 78.1188 21.95C76.1854 21.95 74.5271 21.2417 73.1438 19.825C71.7771 18.3917 71.0938 16.6917 71.0938 14.725C71.0938 12.7417 71.7854 11.05 73.1688 9.65C74.5521 8.23333 76.2354 7.525 78.2188 7.525C80.2188 7.525 81.8938 8.33333 83.2438 9.95V7.875H85.2688V21.5ZM78.2688 20.025C79.6521 20.025 80.8438 19.525 81.8438 18.525C82.8438 17.525 83.3438 16.2833 83.3438 14.8C83.3438 13.3 82.8521 12.05 81.8688 11.05C80.8854 10.0333 79.6771 9.525 78.2438 9.525C76.8271 9.525 75.6271 10.05 74.6438 11.1C73.6604 12.1333 73.1688 13.3583 73.1688 14.775C73.1688 16.1917 73.6688 17.425 74.6688 18.475C75.6688 19.5083 76.8688 20.025 78.2688 20.025Z" fill="white"/>
<path d="M13.4172 15.2783C13.8957 14.9512 14.5598 14.668 14.5598 14.668C14.5598 14.668 12.6701 15.0098 10.7903 15.166C8.49045 15.3564 6.01974 15.3955 4.77951 15.2295C1.84494 14.8389 6.39084 13.7598 6.39084 13.7598C6.39084 13.7598 4.62814 13.6426 2.45529 14.6875C-0.108186 15.9277 8.80295 16.4941 13.4172 15.2783ZM9.24728 13.7109C8.31955 11.626 5.18967 9.79492 9.24728 6.5918C14.3088 2.59766 11.7131 0 11.7131 0C12.7629 4.12598 8.0217 5.37598 6.30783 7.93945C5.14084 9.69238 6.87912 11.5723 9.24728 13.7109ZM14.843 5.10742C14.8479 5.10742 6.2883 7.24609 10.3752 11.9531C11.5813 13.3398 10.0578 14.5898 10.0578 14.5898C10.0578 14.5898 13.1194 13.0078 11.7131 11.0303C10.3996 9.18457 9.39377 8.2666 14.843 5.10742ZM14.5451 18.3154C14.5184 18.362 14.4856 18.4047 14.4475 18.4424C20.7121 16.7969 18.4074 12.6367 15.4143 13.6914C15.2526 13.7508 15.1129 13.8581 15.0139 13.999C15.1887 13.9358 15.3683 13.8868 15.551 13.8525C17.0647 13.5352 19.2375 15.8789 14.5451 18.3154ZM16.8479 21.3574C16.8479 21.3574 17.5559 21.9385 16.0715 22.3926C13.2444 23.2471 4.31369 23.5059 1.83322 22.4268C0.939666 22.041 2.61447 21.499 3.14181 21.3867C3.68869 21.2695 4.00607 21.2891 4.00607 21.2891C3.01486 20.5908 -2.40506 22.6611 1.25217 23.252C11.2248 24.873 19.4358 22.5244 16.8479 21.3574ZM5.93185 19.3359C2.08908 20.4102 8.27072 22.627 13.1633 20.5322C12.6861 20.3468 12.2255 20.1214 11.7863 19.8584C9.60373 20.2734 8.59299 20.3027 6.61056 20.0781C4.97482 19.8926 5.93185 19.3359 5.93185 19.3359ZM14.7111 24.082C10.8684 24.8047 6.12717 24.7217 3.31955 24.2578C3.31955 24.2529 3.89572 24.7314 6.8547 24.9219C11.3567 25.21 18.2707 24.7607 18.4319 22.6318C18.4319 22.6318 18.1194 23.4375 14.7111 24.082ZM12.5822 17.2363C9.69162 17.793 8.01681 17.7783 5.90256 17.5586C4.26681 17.3877 5.33615 16.5967 5.33615 16.5967C1.09787 18.0029 7.68966 19.5947 13.6125 17.8613C13.2297 17.7262 12.879 17.5134 12.5822 17.2363Z" fill="white"/>
</svg>
