<svg width="82" height="38" viewBox="0 0 82 38" fill="none" xmlns="http://www.w3.org/2000/svg">
<path d="M32.375 10.45V24.075C32.375 25.2917 32 26.2833 31.25 27.05C30.5 27.8 29.4833 28.175 28.2 28.175C26.85 28.175 25.7833 27.7667 25 26.95C24.2333 26.1167 23.85 24.975 23.85 23.525H24.975C24.975 24.5917 25.2333 25.4667 25.75 26.15C26.2667 26.8333 27.0833 27.175 28.2 27.175C29.2667 27.175 30.0333 26.875 30.5 26.275C30.9833 25.6583 31.225 24.925 31.225 24.075V10.45H32.375ZM35.9223 21.2C35.9223 19.8 36.1973 18.575 36.7473 17.525C37.3139 16.475 38.0889 15.6667 39.0723 15.1C40.0723 14.5333 41.2056 14.25 42.4723 14.25C43.9056 14.25 45.1223 14.6 46.1223 15.3C47.1223 16 47.8223 16.8917 48.2223 17.975V14.425H49.3473V28H48.2223V24.425C47.8223 25.525 47.1139 26.4333 46.0973 27.15C45.0973 27.85 43.8889 28.2 42.4723 28.2C41.2056 28.2 40.0723 27.9167 39.0723 27.35C38.0889 26.7667 37.3139 25.95 36.7473 24.9C36.1973 23.8333 35.9223 22.6 35.9223 21.2ZM48.2223 21.2C48.2223 20.0167 47.9723 18.975 47.4723 18.075C46.9889 17.1583 46.3223 16.4583 45.4723 15.975C44.6223 15.475 43.6723 15.225 42.6223 15.225C41.5223 15.225 40.5556 15.4667 39.7223 15.95C38.8889 16.4167 38.2389 17.1 37.7723 18C37.3056 18.9 37.0723 19.9667 37.0723 21.2C37.0723 22.4333 37.3056 23.5 37.7723 24.4C38.2389 25.3 38.8889 25.9917 39.7223 26.475C40.5723 26.9583 41.5389 27.2 42.6223 27.2C43.6723 27.2 44.6223 26.9583 45.4723 26.475C46.3389 25.975 47.0139 25.275 47.4973 24.375C47.9806 23.4583 48.2223 22.4 48.2223 21.2ZM58.0436 26.775L63.0436 14.425H64.2436L58.6186 28H57.4436L51.8186 14.425H53.0436L58.0436 26.775ZM66.0248 21.2C66.0248 19.8 66.2998 18.575 66.8498 17.525C67.4165 16.475 68.1915 15.6667 69.1748 15.1C70.1748 14.5333 71.3081 14.25 72.5748 14.25C74.0081 14.25 75.2248 14.6 76.2248 15.3C77.2248 16 77.9248 16.8917 78.3248 17.975V14.425H79.4498V28H78.3248V24.425C77.9248 25.525 77.2165 26.4333 76.1998 27.15C75.1998 27.85 73.9915 28.2 72.5748 28.2C71.3081 28.2 70.1748 27.9167 69.1748 27.35C68.1915 26.7667 67.4165 25.95 66.8498 24.9C66.2998 23.8333 66.0248 22.6 66.0248 21.2ZM78.3248 21.2C78.3248 20.0167 78.0748 18.975 77.5748 18.075C77.0915 17.1583 76.4248 16.4583 75.5748 15.975C74.7248 15.475 73.7748 15.225 72.7248 15.225C71.6248 15.225 70.6581 15.4667 69.8248 15.95C68.9915 16.4167 68.3415 17.1 67.8748 18C67.4081 18.9 67.1748 19.9667 67.1748 21.2C67.1748 22.4333 67.4081 23.5 67.8748 24.4C68.3415 25.3 68.9915 25.9917 69.8248 26.475C70.6748 26.9583 71.6415 27.2 72.7248 27.2C73.7748 27.2 74.7248 26.9583 75.5748 26.475C76.4415 25.975 77.1165 25.275 77.5998 24.375C78.0831 23.4583 78.3248 22.4 78.3248 21.2Z" fill="white"/>
<path d="M10.919 20.8336C11.3085 20.5588 11.8489 20.3209 11.8489 20.3209C11.8489 20.3209 10.3111 20.608 8.7812 20.7393C6.9096 20.8992 4.89892 20.9321 3.88961 20.7926C1.50143 20.4645 5.20092 19.558 5.20092 19.558C5.20092 19.558 3.76642 19.4596 1.99814 20.3373C-0.0880427 21.3791 7.16391 21.8549 10.919 20.8336ZM7.52552 19.517C6.77052 17.7657 4.22339 16.2276 7.52552 13.537C11.6446 10.182 9.53222 8 9.53222 8C10.3866 11.4658 6.52813 12.5158 5.13337 14.6691C4.18366 16.1415 5.59829 17.7206 7.52552 19.517ZM12.0793 12.2902C12.0833 12.2902 5.11747 14.0866 8.44344 18.0405C9.42494 19.2053 8.18515 20.2553 8.18515 20.2553C8.18515 20.2553 10.6766 18.9264 9.53222 17.2653C8.46331 15.7149 7.64473 14.9439 12.0793 12.2902ZM11.837 23.3848C11.8152 23.4238 11.7885 23.4597 11.7575 23.4914C16.8557 22.1092 14.9801 18.6147 12.5443 19.5006C12.4127 19.5505 12.299 19.6407 12.2184 19.759C12.3607 19.7059 12.5068 19.6647 12.6555 19.636C13.8874 19.3694 15.6557 21.3381 11.837 23.3848ZM13.7109 25.94C13.7109 25.94 14.2871 26.4281 13.0791 26.8095C10.7784 27.5273 3.51052 27.7447 1.49189 26.8382C0.764708 26.5142 2.12768 26.0589 2.55684 25.9646C3.00189 25.8662 3.26018 25.8826 3.26018 25.8826C2.45352 25.2961 -1.95726 27.0351 1.01902 27.5314C9.13486 28.8931 15.817 26.9203 13.7109 25.94ZM4.82739 24.242C1.70011 25.1443 6.73078 27.0064 10.7124 25.2468C10.3241 25.0911 9.94922 24.9018 9.59183 24.6808C7.8156 25.0295 6.99305 25.0541 5.37973 24.8654C4.04855 24.7095 4.82739 24.242 4.82739 24.242ZM11.9721 28.2286C8.84478 28.8357 4.98634 28.7659 2.70148 28.3763C2.70148 28.3722 3.17037 28.7741 5.57842 28.9341C9.24215 29.1761 14.8689 28.7987 15 27.0105C15 27.0105 14.7457 27.6872 11.9721 28.2286ZM10.2395 22.4783C7.88712 22.9459 6.52415 22.9336 4.80355 22.749C3.47237 22.6055 4.3426 21.941 4.3426 21.941C0.893455 23.1223 6.25792 24.4594 11.078 23.0033C10.7665 22.8898 10.481 22.711 10.2395 22.4783Z" fill="white"/>
</svg>
