<svg width="180" height="38" viewBox="0 0 180 38" fill="none" xmlns="http://www.w3.org/2000/svg">
<path d="M44.512 10.825V28H43.387V13.175L36.787 28H35.887L29.262 13.175V28H28.137V10.825H29.337L36.337 26.525L43.337 10.825H44.512ZM54.6198 28.2C53.3532 28.2 52.2115 27.9167 51.1948 27.35C50.1782 26.7833 49.3782 25.975 48.7948 24.925C48.2282 23.8583 47.9448 22.6167 47.9448 21.2C47.9448 19.8 48.2365 18.575 48.8198 17.525C49.4032 16.4583 50.2032 15.65 51.2198 15.1C52.2532 14.5333 53.4032 14.25 54.6698 14.25C55.9365 14.25 57.0782 14.5333 58.0948 15.1C59.1115 15.65 59.9032 16.45 60.4698 17.5C61.0532 18.55 61.3448 19.7833 61.3448 21.2C61.3448 22.6167 61.0532 23.8583 60.4698 24.925C59.8865 25.975 59.0782 26.7833 58.0448 27.35C57.0282 27.9167 55.8865 28.2 54.6198 28.2ZM54.6198 27.2C55.6032 27.2 56.5198 26.9833 57.3698 26.55C58.2365 26.1 58.9282 25.425 59.4448 24.525C59.9615 23.625 60.2198 22.5167 60.2198 21.2C60.2198 19.9 59.9615 18.8 59.4448 17.9C58.9282 17 58.2448 16.3333 57.3948 15.9C56.5448 15.45 55.6282 15.225 54.6448 15.225C53.6615 15.225 52.7448 15.45 51.8948 15.9C51.0615 16.3333 50.3865 17 49.8698 17.9C49.3532 18.8 49.0948 19.9 49.0948 21.2C49.0948 22.5167 49.3448 23.625 49.8448 24.525C50.3615 25.425 51.0365 26.1 51.8698 26.55C52.7198 26.9833 53.6365 27.2 54.6198 27.2ZM70.8831 14.15C72.4998 14.15 73.8164 14.65 74.8331 15.65C75.8498 16.6333 76.3581 18.1 76.3581 20.05V28H75.2581V20.125C75.2581 18.5083 74.8498 17.275 74.0331 16.425C73.2164 15.5583 72.1081 15.125 70.7081 15.125C69.2414 15.125 68.0664 15.5917 67.1831 16.525C66.3164 17.4583 65.8831 18.8417 65.8831 20.675V28H64.7581V14.425H65.8831V17.3C66.2664 16.2833 66.8998 15.5083 67.7831 14.975C68.6831 14.425 69.7164 14.15 70.8831 14.15ZM86.1843 14.25C87.6176 14.25 88.8343 14.6 89.8343 15.3C90.8343 15.9833 91.5343 16.8667 91.9343 17.95V14.425H93.0593V28.425C93.0593 29.675 92.7843 30.7667 92.2343 31.7C91.6843 32.65 90.9426 33.375 90.0093 33.875C89.0759 34.3917 88.0343 34.65 86.8843 34.65C85.1843 34.65 83.7759 34.2417 82.6593 33.425C81.5426 32.6083 80.8093 31.5083 80.4593 30.125H81.5843C81.9176 31.2083 82.5426 32.0667 83.4593 32.7C84.3759 33.35 85.5176 33.675 86.8843 33.675C87.8343 33.675 88.6926 33.4583 89.4593 33.025C90.2259 32.6083 90.8259 32 91.2593 31.2C91.7093 30.4167 91.9343 29.4917 91.9343 28.425V24.45C91.5343 25.5333 90.8259 26.4333 89.8093 27.15C88.8093 27.85 87.6009 28.2 86.1843 28.2C84.9176 28.2 83.7843 27.9167 82.7843 27.35C81.8009 26.7667 81.0259 25.95 80.4593 24.9C79.9093 23.8333 79.6343 22.6 79.6343 21.2C79.6343 19.8 79.9093 18.575 80.4593 17.525C81.0259 16.475 81.8009 15.6667 82.7843 15.1C83.7843 14.5333 84.9176 14.25 86.1843 14.25ZM91.9343 21.2C91.9343 20.0167 91.6843 18.975 91.1843 18.075C90.7009 17.1583 90.0343 16.4583 89.1843 15.975C88.3343 15.475 87.3843 15.225 86.3343 15.225C85.2343 15.225 84.2676 15.4667 83.4343 15.95C82.6009 16.4167 81.9509 17.1 81.4843 18C81.0176 18.9 80.7843 19.9667 80.7843 21.2C80.7843 22.4333 81.0176 23.5 81.4843 24.4C81.9509 25.3 82.6009 25.9917 83.4343 26.475C84.2843 26.9583 85.2509 27.2 86.3343 27.2C87.3843 27.2 88.3343 26.9583 89.1843 26.475C90.0509 25.975 90.7259 25.275 91.2093 24.375C91.6926 23.4583 91.9343 22.4 91.9343 21.2ZM103.131 28.2C101.864 28.2 100.722 27.9167 99.7056 27.35C98.6889 26.7833 97.8889 25.975 97.3056 24.925C96.7389 23.8583 96.4556 22.6167 96.4556 21.2C96.4556 19.8 96.7472 18.575 97.3306 17.525C97.9139 16.4583 98.7139 15.65 99.7306 15.1C100.764 14.5333 101.914 14.25 103.181 14.25C104.447 14.25 105.589 14.5333 106.606 15.1C107.622 15.65 108.414 16.45 108.981 17.5C109.564 18.55 109.856 19.7833 109.856 21.2C109.856 22.6167 109.564 23.8583 108.981 24.925C108.397 25.975 107.589 26.7833 106.556 27.35C105.539 27.9167 104.397 28.2 103.131 28.2ZM103.131 27.2C104.114 27.2 105.031 26.9833 105.881 26.55C106.747 26.1 107.439 25.425 107.956 24.525C108.472 23.625 108.731 22.5167 108.731 21.2C108.731 19.9 108.472 18.8 107.956 17.9C107.439 17 106.756 16.3333 105.906 15.9C105.056 15.45 104.139 15.225 103.156 15.225C102.172 15.225 101.256 15.45 100.406 15.9C99.5722 16.3333 98.8972 17 98.3806 17.9C97.8639 18.8 97.6056 19.9 97.6056 21.2C97.6056 22.5167 97.8556 23.625 98.3556 24.525C98.8722 25.425 99.5472 26.1 100.381 26.55C101.231 26.9833 102.147 27.2 103.131 27.2ZM118.194 10.45C121.161 10.45 123.444 11.225 125.044 12.775C126.661 14.325 127.469 16.4833 127.469 19.25C127.469 22.0167 126.661 24.1667 125.044 25.7C123.444 27.2333 121.161 28 118.194 28H113.269V10.45H118.194ZM118.194 27.05C120.844 27.05 122.861 26.3667 124.244 25C125.627 23.6167 126.319 21.7 126.319 19.25C126.319 16.7833 125.627 14.8583 124.244 13.475C122.861 12.0917 120.844 11.4 118.194 11.4H114.394V27.05H118.194ZM138.446 18.925C139.463 19.1083 140.313 19.6083 140.996 20.425C141.696 21.2417 142.046 22.2 142.046 23.3C142.046 24.2 141.83 25.0083 141.396 25.725C140.98 26.425 140.346 26.9833 139.496 27.4C138.663 27.8 137.646 28 136.446 28H130.871V10.45H136.346C138.096 10.45 139.413 10.8583 140.296 11.675C141.196 12.475 141.646 13.5167 141.646 14.8C141.646 15.9167 141.346 16.825 140.746 17.525C140.146 18.2083 139.38 18.675 138.446 18.925ZM131.996 18.425H136.396C137.713 18.425 138.721 18.1167 139.421 17.5C140.138 16.8667 140.496 16 140.496 14.9C140.496 13.8333 140.146 12.9917 139.446 12.375C138.746 11.7583 137.688 11.45 136.271 11.45H131.996V18.425ZM136.371 27.025C137.788 27.025 138.896 26.6917 139.696 26.025C140.513 25.3417 140.921 24.4083 140.921 23.225C140.921 22.0583 140.505 21.1333 139.671 20.45C138.855 19.75 137.73 19.4 136.296 19.4H131.996V27.025H136.371Z" fill="white"/>
<path d="M7.85168 8L8.76576 9.13636C8.97126 9.34607 9.1939 9.53168 9.45613 9.70455C10.2249 10.2071 10.9416 10.7434 11.6011 11.3099C13.1499 12.656 14.1946 14.1508 14.9406 15.7675C15.388 16.7551 15.631 17.7682 15.6492 18.7926C15.7241 21.8553 14.1378 24.4851 10.9396 26.6707C10.4194 27.0173 9.85741 27.3352 9.25919 27.6214C8.94236 27.6214 8.79252 27.4606 8.66193 27.3125C8.42413 27.038 8.26587 26.7364 8.19526 26.4234C8.08288 26.0529 8.00902 25.6824 8.04541 25.2998V25.1269C8.01972 25.0901 7.74036 8.08714 7.85168 8Z" fill="white"/>
<path d="M7.61758 8.02404C7.57996 7.97513 7.54234 8.01216 7.50472 8.03592C7.523 8.28048 7.39186 8.4985 7.18657 8.70673C6.96085 8.91356 6.66204 9.07218 6.36215 9.24267C4.69613 10.1804 3.3848 11.3131 2.33467 12.5799C0.937356 14.2849 0.217203 16.1122 0.0129807 18.0358C-0.0805317 18.7297 0.350485 21.1782 0.686915 21.8846C1.60484 23.7601 3.25367 25.3316 5.38941 26.6956C5.91394 27.024 6.47501 27.3286 7.05543 27.6214C7.22419 27.6214 7.24246 27.5236 7.28115 27.4509C7.35514 27.2954 7.41154 27.1366 7.44991 26.9758L7.82611 25.1492L7.61758 8.02404Z" fill="white"/>
<path d="M8.82578 28.347C8.87111 28.1376 9.11975 27.9637 9.3904 27.7904C9.11845 27.7449 8.91643 27.6543 8.75844 27.5532C8.62221 27.4575 8.50944 27.3567 8.42174 27.2521C8.10576 26.8689 8.03842 26.4667 7.94777 26.0751V25.8379C7.83511 25.8745 7.8118 26.1845 7.8118 26.2306C7.7459 26.6445 7.61004 27.0562 7.40517 27.4626C7.33783 27.627 7.29251 27.7909 7.04257 27.937C7.04257 27.9553 7.04257 27.9737 7.06459 28.0009C7.47122 28.4847 7.58259 28.9774 7.65122 29.4795V29.6628C7.65122 29.8817 7.62921 29.8356 8.07857 29.9089C8.25987 29.9361 8.46189 29.9456 8.64319 30C8.77916 30 8.80118 29.9545 8.80118 29.9178L8.73384 29.6167V28.7769C8.71182 28.6303 8.77916 28.4847 8.82449 28.3475L8.82578 28.347Z" fill="#C2BFBF"/>
</svg>
