<svg width="119" height="30" viewBox="0 0 119 30" fill="none" xmlns="http://www.w3.org/2000/svg">
<path d="M24.48 21V20.34L24.9 20.3C25.3 20.2467 25.6 20.1733 25.8 20.08C26 19.9733 26.1467 19.8067 26.24 19.58C26.3333 19.34 26.3933 19.0267 26.42 18.64L27.2 9.36C27.2533 8.77333 27.1733 8.36667 26.96 8.14C26.7467 7.91333 26.2933 7.76667 25.6 7.7L25.18 7.66V7H29.18L33.66 18.9H33.12L37.4 7H41.28V7.66L40.86 7.7C40.42 7.74 40.0933 7.81333 39.88 7.92C39.6667 8.02667 39.5333 8.19333 39.48 8.42C39.4267 8.64667 39.4133 8.96 39.44 9.36L40.26 18.38C40.3133 18.86 40.4 19.2333 40.52 19.5C40.6533 19.7667 40.84 19.9533 41.08 20.06C41.32 20.1667 41.6267 20.2467 42 20.3L42.46 20.34V21H36.64V20.34L37.3 20.28C37.8333 20.2267 38.1667 20.0667 38.3 19.8C38.4467 19.5333 38.4867 19.06 38.42 18.38L37.54 8.3L37.82 8.36L33.26 21H32.56L28.08 9.2L27.42 18.64C27.3933 19.04 27.42 19.36 27.5 19.6C27.58 19.84 27.74 20.0133 27.98 20.12C28.2333 20.2267 28.6133 20.2933 29.12 20.32L29.54 20.34V21H24.48ZM48.4227 21.2C47.356 21.2 46.416 20.9733 45.6027 20.52C44.7893 20.0667 44.156 19.4333 43.7027 18.62C43.2493 17.8067 43.0227 16.8667 43.0227 15.8C43.0227 14.76 43.2493 13.8333 43.7027 13.02C44.156 12.2067 44.7827 11.5667 45.5827 11.1C46.396 10.6333 47.3427 10.4 48.4227 10.4C49.5027 10.4 50.4493 10.6267 51.2627 11.08C52.076 11.5333 52.7093 12.1667 53.1627 12.98C53.616 13.78 53.8427 14.7133 53.8427 15.78C53.8427 16.82 53.616 17.7467 53.1627 18.56C52.7093 19.3733 52.076 20.02 51.2627 20.5C50.4627 20.9667 49.516 21.2 48.4227 21.2ZM48.7827 20.32C49.7027 20.32 50.4493 19.9867 51.0227 19.32C51.6093 18.64 51.9027 17.64 51.9027 16.32C51.9027 15.4 51.7493 14.56 51.4427 13.8C51.1493 13.0267 50.716 12.4133 50.1427 11.96C49.5827 11.5067 48.896 11.28 48.0827 11.28C47.1627 11.28 46.4093 11.62 45.8227 12.3C45.2493 12.9667 44.9627 13.9667 44.9627 15.3C44.9627 16.2067 45.1093 17.0467 45.4027 17.82C45.7093 18.58 46.1427 19.1867 46.7027 19.64C47.276 20.0933 47.9693 20.32 48.7827 20.32ZM55.1845 21V20.34L55.7245 20.26C56.1512 20.1933 56.4312 20.0733 56.5645 19.9C56.7112 19.7267 56.7845 19.4333 56.7845 19.02V13.18C56.7845 12.7267 56.6712 12.42 56.4445 12.26C56.2312 12.1 55.8245 11.9867 55.2245 11.92V11.36L58.2445 10.48H58.5245V11.94H58.6445C59.2845 11.38 59.8779 10.9867 60.4245 10.76C60.9712 10.52 61.6112 10.4 62.3445 10.4C63.2912 10.4 64.0312 10.64 64.5645 11.12C65.1112 11.5867 65.3845 12.2533 65.3845 13.12V19.02C65.3845 19.4333 65.4512 19.7267 65.5845 19.9C65.7312 20.0733 66.0179 20.1933 66.4445 20.26L66.9845 20.34V21H61.9845V20.34L62.5245 20.26C62.9512 20.1933 63.2312 20.0733 63.3645 19.9C63.5112 19.7267 63.5845 19.4333 63.5845 19.02V13.78C63.5845 13.2733 63.4912 12.8733 63.3045 12.58C63.1179 12.2733 62.8512 12.0533 62.5045 11.92C62.1712 11.7733 61.7512 11.7 61.2445 11.7C60.7112 11.7 60.2379 11.7867 59.8245 11.96C59.4245 12.1333 59.0112 12.4 58.5845 12.76V19.02C58.5845 19.4333 58.6512 19.7267 58.7845 19.9C58.9312 20.0733 59.2179 20.1933 59.6445 20.26L60.1845 20.34V21H55.1845ZM71.7003 26.14C70.567 26.14 69.6536 25.9133 68.9603 25.46C68.2803 25.0067 67.9403 24.42 67.9403 23.7C67.9403 23.42 68.0136 23.1 68.1603 22.74C68.3203 22.3933 68.627 21.9933 69.0803 21.54L70.1803 20.44L71.0003 20.56C70.5336 21.0933 70.1736 21.5267 69.9203 21.86C69.6803 22.1933 69.5603 22.5533 69.5603 22.94C69.5603 23.54 69.8403 23.9933 70.4003 24.3C70.9603 24.6067 71.7203 24.76 72.6803 24.76C73.827 24.76 74.7203 24.5467 75.3603 24.12C76.0003 23.6933 76.3203 23.1333 76.3203 22.44C76.3203 22 76.1736 21.68 75.8803 21.48C75.587 21.28 75.067 21.1533 74.3203 21.1L70.5803 20.82C69.9136 20.7667 69.3803 20.6133 68.9803 20.36C68.5936 20.0933 68.4003 19.7533 68.4003 19.34C68.4003 18.9933 68.5203 18.7067 68.7603 18.48C69.0003 18.2533 69.307 17.9667 69.6803 17.62L70.3003 17.02H71.2003L70.6003 17.7C70.387 17.9267 70.247 18.0933 70.1803 18.2C70.127 18.2933 70.1003 18.3933 70.1003 18.5C70.1003 18.6733 70.1736 18.8133 70.3203 18.92C70.467 19.0133 70.7136 19.0733 71.0603 19.1L74.8203 19.42C76.527 19.5533 77.3803 20.32 77.3803 21.72C77.3803 22.5467 77.1203 23.2933 76.6003 23.96C76.0936 24.6267 75.407 25.1533 74.5403 25.54C73.687 25.94 72.7403 26.14 71.7003 26.14ZM72.1003 17.48C71.3403 17.48 70.667 17.3333 70.0803 17.04C69.4936 16.7333 69.0336 16.3133 68.7003 15.78C68.367 15.2467 68.2003 14.6333 68.2003 13.94C68.2003 13.26 68.367 12.6533 68.7003 12.12C69.047 11.5867 69.5136 11.1667 70.1003 10.86C70.7003 10.5533 71.3803 10.4 72.1403 10.4L73.0403 10.56C73.9203 10.7067 74.6403 11.08 75.2003 11.68C75.7603 12.2667 76.0403 13.0067 76.0403 13.9C76.0403 14.58 75.867 15.1933 75.5203 15.74C75.187 16.2733 74.7203 16.7 74.1203 17.02C73.5336 17.3267 72.8603 17.48 72.1003 17.48ZM72.3003 16.64C72.927 16.64 73.4136 16.4333 73.7603 16.02C74.107 15.5933 74.2803 14.9933 74.2803 14.22C74.2803 13.6467 74.187 13.14 74.0003 12.7C73.8136 12.2467 73.547 11.8933 73.2003 11.64C72.8536 11.3733 72.4336 11.24 71.9403 11.24C71.3136 11.24 70.827 11.4533 70.4803 11.88C70.1336 12.2933 69.9603 12.8933 69.9603 13.68C69.9603 14.24 70.047 14.7467 70.2203 15.2C70.407 15.64 70.6736 15.9933 71.0203 16.26C71.3803 16.5133 71.807 16.64 72.3003 16.64ZM72.1403 10.76V10.4L77.0403 9.46H77.4803V10.76H72.1403ZM83.6961 21.2C82.6294 21.2 81.6894 20.9733 80.8761 20.52C80.0628 20.0667 79.4294 19.4333 78.9761 18.62C78.5228 17.8067 78.2961 16.8667 78.2961 15.8C78.2961 14.76 78.5228 13.8333 78.9761 13.02C79.4294 12.2067 80.0561 11.5667 80.8561 11.1C81.6694 10.6333 82.6161 10.4 83.6961 10.4C84.7761 10.4 85.7228 10.6267 86.5361 11.08C87.3494 11.5333 87.9828 12.1667 88.4361 12.98C88.8894 13.78 89.1161 14.7133 89.1161 15.78C89.1161 16.82 88.8894 17.7467 88.4361 18.56C87.9828 19.3733 87.3494 20.02 86.5361 20.5C85.7361 20.9667 84.7894 21.2 83.6961 21.2ZM84.0561 20.32C84.9761 20.32 85.7228 19.9867 86.2961 19.32C86.8828 18.64 87.1761 17.64 87.1761 16.32C87.1761 15.4 87.0228 14.56 86.7161 13.8C86.4228 13.0267 85.9894 12.4133 85.4161 11.96C84.8561 11.5067 84.1694 11.28 83.3561 11.28C82.4361 11.28 81.6828 11.62 81.0961 12.3C80.5228 12.9667 80.2361 13.9667 80.2361 15.3C80.2361 16.2067 80.3828 17.0467 80.6761 17.82C80.9828 18.58 81.4161 19.1867 81.9761 19.64C82.5494 20.0933 83.2428 20.32 84.0561 20.32ZM90.0706 21V20.34L90.7706 20.28C91.2906 20.24 91.6506 20.12 91.8506 19.92C92.0506 19.72 92.1506 19.3867 92.1506 18.92V9.08C92.1506 8.61333 92.0506 8.28 91.8506 8.08C91.6506 7.88 91.2906 7.76 90.7706 7.72L90.0706 7.66V7H96.5706C98.2373 7 99.6573 7.26 100.831 7.78C102.004 8.3 102.904 9.06667 103.531 10.08C104.157 11.08 104.471 12.32 104.471 13.8C104.471 15.28 104.144 16.56 103.491 17.64C102.851 18.7067 101.944 19.5333 100.771 20.12C99.5973 20.7067 98.2173 21 96.6306 21H90.0706ZM96.7506 20.14C98.5106 20.14 99.8973 19.6467 100.911 18.66C101.937 17.66 102.451 16.2267 102.451 14.36C102.451 13.0267 102.191 11.8733 101.671 10.9C101.164 9.91333 100.457 9.15333 99.5506 8.62C98.644 8.07333 97.6173 7.8 96.4706 7.8C96.0973 7.8 95.724 7.81333 95.3506 7.84C94.9773 7.85333 94.5373 7.88 94.0306 7.92V18.88C94.0306 19.2267 94.104 19.4933 94.2506 19.68C94.3973 19.8533 94.664 19.9733 95.0506 20.04C95.4506 20.1067 96.0173 20.14 96.7506 20.14ZM105.735 21V20.34L106.435 20.28C106.955 20.24 107.315 20.1267 107.515 19.94C107.715 19.74 107.815 19.4 107.815 18.92V9.08C107.815 8.6 107.715 8.26667 107.515 8.08C107.315 7.88 106.955 7.76 106.435 7.72L105.735 7.66V7H111.815C113.548 7 114.835 7.29333 115.675 7.88C116.515 8.45333 116.935 9.28667 116.935 10.38C116.935 12.1267 115.828 13.2467 113.615 13.74C114.828 13.9133 115.715 14.28 116.275 14.84C116.848 15.4 117.135 16.1533 117.135 17.1C117.135 17.8467 116.948 18.5133 116.575 19.1C116.215 19.6867 115.655 20.1533 114.895 20.5C114.148 20.8333 113.168 21 111.955 21H105.735ZM111.515 20.18C112.701 20.18 113.608 19.92 114.235 19.4C114.861 18.8667 115.175 18.1133 115.175 17.14C115.175 16.22 114.888 15.52 114.315 15.04C113.755 14.56 112.928 14.32 111.835 14.32H109.695V19.24C109.695 19.5733 109.828 19.8133 110.095 19.96C110.361 20.1067 110.835 20.18 111.515 20.18ZM109.695 13.48H111.875C112.768 13.48 113.508 13.2133 114.095 12.68C114.681 12.1333 114.975 11.3867 114.975 10.44C114.975 9.6 114.695 8.95333 114.135 8.5C113.575 8.04667 112.708 7.82 111.535 7.82C110.921 7.82 110.461 7.87333 110.155 7.98C109.848 8.07333 109.695 8.23333 109.695 8.46V13.48Z" fill="white"/>
<path d="M8.02667 2L8.96105 3.34299C9.17113 3.59082 9.39871 3.81019 9.66677 4.01449C10.4527 4.60839 11.1852 5.24225 11.8594 5.91175C13.4426 7.50258 14.5105 9.26923 15.2731 11.1799C15.7304 12.3471 15.9788 13.5444 15.9974 14.7551C16.074 18.3746 14.4525 21.4826 11.1832 24.0656C10.6515 24.4752 10.077 24.851 9.46545 25.1892C9.14159 25.1892 8.98841 24.9991 8.85492 24.8241C8.61184 24.4997 8.45006 24.1433 8.37788 23.7734C8.263 23.3355 8.1875 22.8976 8.2247 22.4454V22.2411C8.19845 22.1976 7.91288 2.10298 8.02667 2Z" fill="white"/>
<path d="M7.78684 2.02841C7.74839 1.9706 7.70993 2.01437 7.67148 2.04245C7.69016 2.33148 7.55611 2.58914 7.34625 2.83523C7.11552 3.07967 6.81007 3.26713 6.50352 3.46863C4.80047 4.57687 3.46001 5.91552 2.38654 7.41272C0.958184 9.4277 0.222029 11.5872 0.0132692 13.8607C-0.0823211 14.6807 0.358273 17.5744 0.702178 18.4093C1.6405 20.6257 3.32597 22.483 5.50916 24.095C6.04534 24.4831 6.61889 24.8432 7.2122 25.1892C7.38471 25.1892 7.40338 25.0736 7.44294 24.9877C7.51857 24.8039 7.57622 24.6162 7.61544 24.4261L8 22.2675L7.78684 2.02841Z" fill="white"/>
<path d="M9.02279 26.0466C9.06912 25.7991 9.32328 25.5937 9.59995 25.3888C9.32196 25.335 9.11545 25.228 8.95395 25.1085C8.81469 24.9954 8.69941 24.8763 8.60977 24.7527C8.28677 24.2997 8.21793 23.8245 8.12527 23.3616V23.0813C8.0101 23.1246 7.98627 23.491 7.98627 23.5454C7.91891 24.0346 7.78003 24.5211 7.57061 25.0015C7.50177 25.1958 7.45544 25.3895 7.19995 25.5621C7.19995 25.5838 7.19995 25.6054 7.22246 25.6376C7.63812 26.2094 7.75196 26.7917 7.82212 27.3851V27.6017C7.82212 27.8604 7.79962 27.8059 8.25897 27.8925C8.4443 27.9247 8.65081 27.9359 8.83613 28.0002C8.97513 28.0002 8.99763 27.9464 8.99763 27.9031L8.9288 27.5472V26.5547C8.90629 26.3814 8.97513 26.2094 9.02146 26.0473L9.02279 26.0466Z" fill="#C2BFBF"/>
</svg>
