<svg width="145" height="37" viewBox="0 0 145 37" fill="none" xmlns="http://www.w3.org/2000/svg">
<path d="M29.5 26V25.25L30.025 25.2C30.475 25.15 30.825 25.0583 31.075 24.925C31.325 24.7917 31.5083 24.575 31.625 24.275C31.7583 23.975 31.8417 23.5667 31.875 23.05L32.825 11.45C32.8917 10.6833 32.7917 10.1583 32.525 9.875C32.275 9.575 31.7333 9.38333 30.9 9.3L30.375 9.25V8.5H35.275L40.925 23.4H40.25L45.575 8.5H50.325V9.25L49.8 9.3C49.2833 9.35 48.8917 9.44167 48.625 9.575C48.375 9.70833 48.2167 9.925 48.15 10.225C48.0833 10.5083 48.075 10.9167 48.125 11.45L49.15 22.725C49.2 23.3083 49.2917 23.775 49.425 24.125C49.575 24.4583 49.7917 24.7083 50.075 24.875C50.3583 25.025 50.7417 25.1333 51.225 25.2L51.8 25.25V26H44.625V25.25L45.45 25.175C46.1 25.1083 46.5167 24.9167 46.7 24.6C46.8833 24.2667 46.9333 23.6417 46.85 22.725L45.725 10L46.075 10.075L40.375 26H39.55L33.85 11.125L33.075 23.05C33.0417 23.5833 33.075 24.0083 33.175 24.325C33.2917 24.625 33.5 24.8417 33.8 24.975C34.1167 25.1083 34.5583 25.1917 35.125 25.225L35.65 25.25V26H29.5ZM59.0621 26.25C57.7288 26.25 56.5538 25.9667 55.5371 25.4C54.5204 24.8333 53.7288 24.0417 53.1621 23.025C52.5954 22.0083 52.3121 20.8333 52.3121 19.5C52.3121 18.2333 52.5954 17.0917 53.1621 16.075C53.7288 15.0583 54.5121 14.25 55.5121 13.65C56.5288 13.05 57.7121 12.75 59.0621 12.75C60.4121 12.75 61.5954 13.0333 62.6121 13.6C63.6288 14.1667 64.4204 14.9583 64.9871 15.975C65.5538 16.975 65.8371 18.1417 65.8371 19.475C65.8371 20.7417 65.5538 21.8917 64.9871 22.925C64.4204 23.9417 63.6288 24.75 62.6121 25.35C61.6121 25.95 60.4288 26.25 59.0621 26.25ZM59.4621 25.275C60.5954 25.275 61.5371 24.85 62.2871 24C63.0371 23.15 63.4121 21.8667 63.4121 20.15C63.4121 19.0167 63.2288 17.9667 62.8621 17C62.5121 16.0167 61.9871 15.225 61.2871 14.625C60.5871 14.025 59.7204 13.725 58.6871 13.725C57.5538 13.725 56.6121 14.15 55.8621 15C55.1121 15.85 54.7371 17.1417 54.7371 18.875C54.7371 19.9917 54.9121 21.0417 55.2621 22.025C55.6288 22.9917 56.1621 23.775 56.8621 24.375C57.5621 24.975 58.4288 25.275 59.4621 25.275ZM67.2941 26V25.25L68.0441 25.125C68.5441 25.0417 68.8775 24.9083 69.0441 24.725C69.2108 24.525 69.2941 24.1667 69.2941 23.65V16.2C69.2941 15.6667 69.1775 15.2917 68.9441 15.075C68.7108 14.8417 68.1775 14.675 67.3441 14.575V13.95L71.1191 12.85H71.4691V14.675H71.6191C72.4191 13.975 73.1608 13.4833 73.8441 13.2C74.5275 12.9 75.3275 12.75 76.2441 12.75C77.4275 12.75 78.3525 13.05 79.0191 13.65C79.7025 14.2333 80.0441 15.0667 80.0441 16.15V23.65C80.0441 24.1667 80.1275 24.525 80.2941 24.725C80.4608 24.9083 80.7941 25.0417 81.2941 25.125L82.0441 25.25V26H75.7941V25.25L76.5441 25.125C77.0441 25.0417 77.3775 24.9083 77.5441 24.725C77.7108 24.525 77.7941 24.1667 77.7941 23.65V16.9C77.7941 16.2833 77.6858 15.7833 77.4691 15.4C77.2525 15.0167 76.9275 14.7333 76.4941 14.55C76.0775 14.35 75.5358 14.25 74.8691 14.25C74.2191 14.25 73.6358 14.3667 73.1191 14.6C72.6025 14.8167 72.0775 15.1667 71.5441 15.65V23.65C71.5441 24.1667 71.6275 24.525 71.7941 24.725C71.9608 24.9083 72.2941 25.0417 72.7941 25.125L73.5441 25.25V26H67.2941ZM87.7197 32.425C86.3031 32.425 85.1614 32.1417 84.2947 31.575C83.4447 31.0083 83.0197 30.275 83.0197 29.375C83.0197 29.025 83.1114 28.625 83.2947 28.175C83.4947 27.7417 83.8781 27.2417 84.4447 26.675L85.8197 25.3L86.7697 25.45C86.2031 26.1 85.7614 26.6333 85.4447 27.05C85.1447 27.4833 84.9947 27.9333 84.9947 28.4C84.9947 29.15 85.3531 29.7167 86.0697 30.1C86.8031 30.5 87.8031 30.7 89.0697 30.7C90.4697 30.7 91.5614 30.4333 92.3447 29.9C93.1447 29.3667 93.5447 28.6667 93.5447 27.8C93.5447 27.25 93.3614 26.85 92.9947 26.6C92.6281 26.35 91.9614 26.1917 90.9947 26.125L86.1697 25.775C85.4031 25.7083 84.7781 25.5167 84.2947 25.2C83.8281 24.8667 83.5947 24.4417 83.5947 23.925C83.5947 23.4917 83.7447 23.1333 84.0447 22.85C84.3447 22.5667 84.7281 22.2083 85.1947 21.775L85.9697 21.025H87.0447L86.2947 21.875C86.0614 22.1417 85.9031 22.3417 85.8197 22.475C85.7531 22.5917 85.7197 22.7167 85.7197 22.85C85.7197 23.0667 85.8031 23.2417 85.9697 23.375C86.1531 23.5083 86.4447 23.5917 86.8447 23.625L91.6197 24.025C93.7531 24.1917 94.8197 25.15 94.8197 26.9C94.8197 27.9333 94.4947 28.8667 93.8447 29.7C93.2114 30.5333 92.3614 31.1917 91.2947 31.675C90.2281 32.175 89.0364 32.425 87.7197 32.425ZM88.1947 21.6C87.2614 21.6 86.4281 21.4167 85.6947 21.05C84.9614 20.6667 84.3864 20.1417 83.9697 19.475C83.5531 18.8083 83.3447 18.05 83.3447 17.2C83.3447 16.3333 83.5531 15.5667 83.9697 14.9C84.4031 14.2333 84.9947 13.7083 85.7447 13.325C86.4947 12.9417 87.3447 12.75 88.2947 12.75L89.3197 12.825C90.4531 13.025 91.3697 13.5083 92.0697 14.275C92.7864 15.0417 93.1447 15.9833 93.1447 17.1C93.1447 17.9667 92.9281 18.7417 92.4947 19.425C92.0781 20.0917 91.4947 20.625 90.7447 21.025C89.9947 21.4083 89.1447 21.6 88.1947 21.6ZM88.4447 20.625C89.2447 20.625 89.8614 20.3583 90.2947 19.825C90.7281 19.275 90.9447 18.4917 90.9447 17.475C90.9447 16.7083 90.8281 16.05 90.5947 15.5C90.3614 14.9333 90.0281 14.5 89.5947 14.2C89.1614 13.8833 88.6447 13.725 88.0447 13.725C87.2447 13.725 86.6281 14 86.1947 14.55C85.7614 15.0833 85.5447 15.8583 85.5447 16.875C85.5447 17.6417 85.6614 18.3083 85.8947 18.875C86.1281 19.425 86.4614 19.8583 86.8947 20.175C87.3447 20.475 87.8614 20.625 88.4447 20.625ZM88.2947 13.125V12.75L94.4947 11.55H94.9697V13.125H88.2947ZM102.519 26.25C101.186 26.25 100.011 25.9667 98.9941 25.4C97.9775 24.8333 97.1858 24.0417 96.6191 23.025C96.0525 22.0083 95.7691 20.8333 95.7691 19.5C95.7691 18.2333 96.0525 17.0917 96.6191 16.075C97.1858 15.0583 97.9691 14.25 98.9691 13.65C99.9858 13.05 101.169 12.75 102.519 12.75C103.869 12.75 105.052 13.0333 106.069 13.6C107.086 14.1667 107.877 14.9583 108.444 15.975C109.011 16.975 109.294 18.1417 109.294 19.475C109.294 20.7417 109.011 21.8917 108.444 22.925C107.877 23.9417 107.086 24.75 106.069 25.35C105.069 25.95 103.886 26.25 102.519 26.25ZM102.919 25.275C104.052 25.275 104.994 24.85 105.744 24C106.494 23.15 106.869 21.8667 106.869 20.15C106.869 19.0167 106.686 17.9667 106.319 17C105.969 16.0167 105.444 15.225 104.744 14.625C104.044 14.025 103.177 13.725 102.144 13.725C101.011 13.725 100.069 14.15 99.3191 15C98.5691 15.85 98.1941 17.1417 98.1941 18.875C98.1941 19.9917 98.3691 21.0417 98.7191 22.025C99.0858 22.9917 99.6191 23.775 100.319 24.375C101.019 24.975 101.886 25.275 102.919 25.275ZM110.316 26V25.25L111.341 25.15C111.891 25.1 112.275 24.95 112.491 24.7C112.708 24.45 112.816 24.0333 112.816 23.45V11.05C112.816 10.4667 112.708 10.05 112.491 9.8C112.275 9.55 111.891 9.4 111.341 9.35L110.316 9.25V8.5H118.316C120.416 8.5 122.2 8.825 123.666 9.475C125.15 10.1083 126.275 11.0583 127.041 12.325C127.825 13.575 128.216 15.1333 128.216 17C128.216 18.85 127.8 20.45 126.966 21.8C126.15 23.1333 125 24.1667 123.516 24.9C122.05 25.6333 120.35 26 118.416 26H110.316ZM118.416 25C120.683 25 122.458 24.375 123.741 23.125C125.041 21.875 125.691 20.0667 125.691 17.7C125.691 16.0167 125.366 14.5583 124.716 13.325C124.066 12.075 123.166 11.1083 122.016 10.425C120.883 9.74167 119.591 9.4 118.141 9.4C117.708 9.4 117.266 9.41667 116.816 9.45C116.383 9.46667 115.833 9.5 115.166 9.55V23.525C115.166 23.9417 115.25 24.2583 115.416 24.475C115.583 24.675 115.9 24.8167 116.366 24.9C116.833 24.9667 117.516 25 118.416 25ZM129.604 26V25.25L130.629 25.15C131.179 25.1 131.562 24.95 131.779 24.7C131.995 24.45 132.104 24.0333 132.104 23.45V11.05C132.104 10.4667 131.995 10.05 131.779 9.8C131.562 9.55 131.179 9.4 130.629 9.35L129.604 9.25V8.5H137.029C139.245 8.5 140.879 8.86667 141.929 9.6C142.979 10.3167 143.504 11.3583 143.504 12.725C143.504 14.9083 142.07 16.325 139.204 16.975C140.804 17.1583 141.962 17.6 142.679 18.3C143.395 19 143.754 19.9417 143.754 21.125C143.754 22.0083 143.537 22.825 143.104 23.575C142.67 24.3083 141.97 24.9 141.004 25.35C140.054 25.7833 138.77 26 137.154 26H129.604ZM136.729 25C138.212 25 139.345 24.6667 140.129 24C140.912 23.3333 141.304 22.3917 141.304 21.175C141.304 20.025 140.945 19.15 140.229 18.55C139.529 17.9333 138.495 17.625 137.129 17.625H134.454V24.05C134.454 24.3833 134.612 24.625 134.929 24.775C135.262 24.925 135.862 25 136.729 25ZM134.454 16.625H137.179C138.279 16.625 139.195 16.2917 139.929 15.625C140.679 14.9583 141.054 14.0167 141.054 12.8C141.054 11.7667 140.712 10.9583 140.029 10.375C139.345 9.79167 138.262 9.5 136.779 9.5C136.045 9.5 135.47 9.56667 135.054 9.7C134.654 9.81667 134.454 10.0083 134.454 10.275V16.625Z" fill="white"/>
<path d="M10.0333 0L11.2013 1.91118C11.4639 2.26386 11.7484 2.57604 12.0835 2.86677C13.0658 3.71194 13.9815 4.61398 14.8243 5.56672C16.8033 7.83059 18.1381 10.3447 19.0914 13.0637C19.6631 14.7247 19.9735 16.4285 19.9968 18.1514C20.0925 23.3023 18.0656 27.7252 13.979 31.401C13.3143 31.9839 12.5962 32.5187 11.8318 33C11.427 33 11.2355 32.7295 11.0687 32.4805C10.7648 32.0187 10.5626 31.5116 10.4724 30.9852C10.3288 30.362 10.2344 29.7388 10.2809 29.0954V28.8047C10.2481 28.7427 9.8911 0.146555 10.0333 0Z" fill="white"/>
<path d="M9.73356 0.0404303C9.68549 -0.0418335 9.63742 0.020452 9.58935 0.0604087C9.6127 0.471728 9.44514 0.838389 9.18281 1.1886C8.89439 1.53646 8.51258 1.80323 8.1294 2.08997C6.00059 3.66709 4.32501 5.57208 2.98318 7.70271C1.19773 10.5702 0.277537 13.6433 0.0165864 16.8787C-0.102901 18.0456 0.447841 22.1635 0.877723 23.3516C2.05063 26.5059 4.15746 29.1489 6.88645 31.4429C7.55668 31.9952 8.27361 32.5076 9.01526 33C9.23088 33 9.25423 32.8355 9.30367 32.7133C9.39821 32.4517 9.47028 32.1846 9.5193 31.9141L10 28.8422L9.73356 0.0404303Z" fill="white"/>
<path d="M11.2785 34.2199C11.3365 33.8677 11.6542 33.5753 12 33.2838C11.6525 33.2072 11.3944 33.0549 11.1925 32.8849C11.0184 32.724 10.8743 32.5544 10.7623 32.3785C10.3585 31.7339 10.2725 31.0576 10.1566 30.3989V30C10.0127 30.0616 9.9829 30.583 9.9829 30.6605C9.8987 31.3567 9.7251 32.049 9.46332 32.7325C9.37727 33.0091 9.31936 33.2847 9 33.5304C9 33.5612 9 33.592 9.02813 33.6378C9.54771 34.4515 9.69002 35.2802 9.77772 36.1247V36.4329C9.77772 36.801 9.74959 36.7235 10.3238 36.8468C10.5554 36.8926 10.8136 36.9084 11.0452 37C11.219 37 11.2471 36.9234 11.2471 36.8617L11.1611 36.3554V34.9429C11.1329 34.6963 11.219 34.4515 11.2769 34.2208L11.2785 34.2199Z" fill="#C2BFBF"/>
</svg>
