<svg width="138" height="38" viewBox="0 0 138 38" fill="none" xmlns="http://www.w3.org/2000/svg">
<path d="M38.425 10.825V28H37.3V13.175L30.7 28H29.8L23.175 13.175V28H22.05V10.825H23.25L30.25 26.525L37.25 10.825H38.425ZM48.5328 28.2C47.2661 28.2 46.1245 27.9167 45.1078 27.35C44.0911 26.7833 43.2911 25.975 42.7078 24.925C42.1411 23.8583 41.8578 22.6167 41.8578 21.2C41.8578 19.8 42.1495 18.575 42.7328 17.525C43.3161 16.4583 44.1161 15.65 45.1328 15.1C46.1661 14.5333 47.3161 14.25 48.5828 14.25C49.8495 14.25 50.9911 14.5333 52.0078 15.1C53.0245 15.65 53.8161 16.45 54.3828 17.5C54.9661 18.55 55.2578 19.7833 55.2578 21.2C55.2578 22.6167 54.9661 23.8583 54.3828 24.925C53.7995 25.975 52.9911 26.7833 51.9578 27.35C50.9411 27.9167 49.7995 28.2 48.5328 28.2ZM48.5328 27.2C49.5161 27.2 50.4328 26.9833 51.2828 26.55C52.1495 26.1 52.8411 25.425 53.3578 24.525C53.8745 23.625 54.1328 22.5167 54.1328 21.2C54.1328 19.9 53.8745 18.8 53.3578 17.9C52.8411 17 52.1578 16.3333 51.3078 15.9C50.4578 15.45 49.5411 15.225 48.5578 15.225C47.5745 15.225 46.6578 15.45 45.8078 15.9C44.9745 16.3333 44.2995 17 43.7828 17.9C43.2661 18.8 43.0078 19.9 43.0078 21.2C43.0078 22.5167 43.2578 23.625 43.7578 24.525C44.2745 25.425 44.9495 26.1 45.7828 26.55C46.6328 26.9833 47.5495 27.2 48.5328 27.2ZM64.7961 14.15C66.4128 14.15 67.7294 14.65 68.7461 15.65C69.7628 16.6333 70.2711 18.1 70.2711 20.05V28H69.1711V20.125C69.1711 18.5083 68.7628 17.275 67.9461 16.425C67.1294 15.5583 66.0211 15.125 64.6211 15.125C63.1544 15.125 61.9794 15.5917 61.0961 16.525C60.2294 17.4583 59.7961 18.8417 59.7961 20.675V28H58.6711V14.425H59.7961V17.3C60.1794 16.2833 60.8128 15.5083 61.6961 14.975C62.5961 14.425 63.6294 14.15 64.7961 14.15ZM80.0973 14.25C81.5306 14.25 82.7473 14.6 83.7473 15.3C84.7473 15.9833 85.4473 16.8667 85.8473 17.95V14.425H86.9723V28.425C86.9723 29.675 86.6973 30.7667 86.1473 31.7C85.5973 32.65 84.8556 33.375 83.9223 33.875C82.9889 34.3917 81.9473 34.65 80.7973 34.65C79.0973 34.65 77.6889 34.2417 76.5723 33.425C75.4556 32.6083 74.7223 31.5083 74.3723 30.125H75.4973C75.8306 31.2083 76.4556 32.0667 77.3723 32.7C78.2889 33.35 79.4306 33.675 80.7973 33.675C81.7473 33.675 82.6056 33.4583 83.3723 33.025C84.1389 32.6083 84.7389 32 85.1723 31.2C85.6223 30.4167 85.8473 29.4917 85.8473 28.425V24.45C85.4473 25.5333 84.7389 26.4333 83.7223 27.15C82.7223 27.85 81.5139 28.2 80.0973 28.2C78.8306 28.2 77.6973 27.9167 76.6973 27.35C75.7139 26.7667 74.9389 25.95 74.3723 24.9C73.8223 23.8333 73.5473 22.6 73.5473 21.2C73.5473 19.8 73.8223 18.575 74.3723 17.525C74.9389 16.475 75.7139 15.6667 76.6973 15.1C77.6973 14.5333 78.8306 14.25 80.0973 14.25ZM85.8473 21.2C85.8473 20.0167 85.5973 18.975 85.0973 18.075C84.6139 17.1583 83.9473 16.4583 83.0973 15.975C82.2473 15.475 81.2973 15.225 80.2473 15.225C79.1473 15.225 78.1806 15.4667 77.3473 15.95C76.5139 16.4167 75.8639 17.1 75.3973 18C74.9306 18.9 74.6973 19.9667 74.6973 21.2C74.6973 22.4333 74.9306 23.5 75.3973 24.4C75.8639 25.3 76.5139 25.9917 77.3473 26.475C78.1973 26.9583 79.1639 27.2 80.2473 27.2C81.2973 27.2 82.2473 26.9583 83.0973 26.475C83.9639 25.975 84.6389 25.275 85.1223 24.375C85.6056 23.4583 85.8473 22.4 85.8473 21.2ZM97.0436 28.2C95.7769 28.2 94.6352 27.9167 93.6186 27.35C92.6019 26.7833 91.8019 25.975 91.2186 24.925C90.6519 23.8583 90.3686 22.6167 90.3686 21.2C90.3686 19.8 90.6602 18.575 91.2436 17.525C91.8269 16.4583 92.6269 15.65 93.6436 15.1C94.6769 14.5333 95.8269 14.25 97.0936 14.25C98.3602 14.25 99.5019 14.5333 100.519 15.1C101.535 15.65 102.327 16.45 102.894 17.5C103.477 18.55 103.769 19.7833 103.769 21.2C103.769 22.6167 103.477 23.8583 102.894 24.925C102.31 25.975 101.502 26.7833 100.469 27.35C99.4519 27.9167 98.3102 28.2 97.0436 28.2ZM97.0436 27.2C98.0269 27.2 98.9436 26.9833 99.7936 26.55C100.66 26.1 101.352 25.425 101.869 24.525C102.385 23.625 102.644 22.5167 102.644 21.2C102.644 19.9 102.385 18.8 101.869 17.9C101.352 17 100.669 16.3333 99.8186 15.9C98.9686 15.45 98.0519 15.225 97.0686 15.225C96.0852 15.225 95.1686 15.45 94.3186 15.9C93.4852 16.3333 92.8102 17 92.2936 17.9C91.7769 18.8 91.5186 19.9 91.5186 21.2C91.5186 22.5167 91.7686 23.625 92.2686 24.525C92.7852 25.425 93.4602 26.1 94.2936 26.55C95.1436 26.9833 96.0602 27.2 97.0436 27.2ZM112.107 10.45C115.074 10.45 117.357 11.225 118.957 12.775C120.574 14.325 121.382 16.4833 121.382 19.25C121.382 22.0167 120.574 24.1667 118.957 25.7C117.357 27.2333 115.074 28 112.107 28H107.182V10.45H112.107ZM112.107 27.05C114.757 27.05 116.774 26.3667 118.157 25C119.54 23.6167 120.232 21.7 120.232 19.25C120.232 16.7833 119.54 14.8583 118.157 13.475C116.774 12.0917 114.757 11.4 112.107 11.4H108.307V27.05H112.107ZM132.359 18.925C133.376 19.1083 134.226 19.6083 134.909 20.425C135.609 21.2417 135.959 22.2 135.959 23.3C135.959 24.2 135.743 25.0083 135.309 25.725C134.893 26.425 134.259 26.9833 133.409 27.4C132.576 27.8 131.559 28 130.359 28H124.784V10.45H130.259C132.009 10.45 133.326 10.8583 134.209 11.675C135.109 12.475 135.559 13.5167 135.559 14.8C135.559 15.9167 135.259 16.825 134.659 17.525C134.059 18.2083 133.293 18.675 132.359 18.925ZM125.909 18.425H130.309C131.626 18.425 132.634 18.1167 133.334 17.5C134.051 16.8667 134.409 16 134.409 14.9C134.409 13.8333 134.059 12.9917 133.359 12.375C132.659 11.7583 131.601 11.45 130.184 11.45H125.909V18.425ZM130.284 27.025C131.701 27.025 132.809 26.6917 133.609 26.025C134.426 25.3417 134.834 24.4083 134.834 23.225C134.834 22.0583 134.418 21.1333 133.584 20.45C132.768 19.75 131.643 19.4 130.209 19.4H125.909V27.025H130.284Z" fill="white"/>
<path d="M6.02 8L6.72079 9.13636C6.87835 9.34607 7.04903 9.53168 7.25008 9.70455C7.8395 10.2071 8.38891 10.7434 8.89456 11.3099C10.082 12.656 10.8829 14.1508 11.4548 15.7675C11.7978 16.7551 11.9841 17.7682 11.9981 18.7926C12.0555 21.8553 10.8394 24.4851 8.38743 26.6707C7.98859 27.0173 7.55772 27.3352 7.09909 27.6214C6.85619 27.6214 6.74131 27.4606 6.64119 27.3125C6.45888 27.038 6.33754 26.7364 6.28341 26.4234C6.19725 26.0529 6.14063 25.6824 6.16853 25.2998V25.1269C6.14883 25.0901 5.93466 8.08714 6.02 8Z" fill="white"/>
<path d="M5.84013 8.02404C5.81129 7.97513 5.78245 8.01216 5.75361 8.03592C5.76762 8.28048 5.66708 8.4985 5.50969 8.70673C5.33664 8.91356 5.10755 9.07218 4.87764 9.24267C3.60036 10.1804 2.59501 11.3131 1.78991 12.5799C0.718638 14.2849 0.166522 16.1122 0.00995187 18.0358C-0.0617408 18.7297 0.268705 21.1782 0.526634 21.8846C1.23038 23.7601 2.49447 25.3316 4.13187 26.6956C4.53401 27.024 4.96416 27.3286 5.40915 27.6214C5.53853 27.6214 5.55254 27.5236 5.5822 27.4509C5.63893 27.2954 5.68217 27.1366 5.71158 26.9758L6 25.1492L5.84013 8.02404Z" fill="white"/>
<path d="M6.76709 28.347C6.80184 28.1376 6.99246 27.9637 7.19996 27.7904C6.99147 27.7449 6.83659 27.6543 6.71546 27.5532C6.61102 27.4575 6.52456 27.3567 6.45733 27.2521C6.21508 26.8689 6.16345 26.4667 6.09395 26.0751V25.8379C6.00758 25.8745 5.9897 26.1845 5.9897 26.2306C5.93918 26.6445 5.83502 27.0562 5.67796 27.4626C5.62633 27.627 5.59158 27.7909 5.39996 27.937C5.39996 27.9553 5.39996 27.9737 5.41684 28.0009C5.72859 28.4847 5.81397 28.9774 5.86659 29.4795V29.6628C5.86659 29.8817 5.84972 29.8356 6.19423 29.9089C6.33322 29.9361 6.4881 29.9456 6.6271 30C6.73135 30 6.74823 29.9545 6.74823 29.9178L6.6966 29.6167V28.7769C6.67972 28.6303 6.73135 28.4847 6.7661 28.3475L6.76709 28.347Z" fill="#C2BFBF"/>
</svg>
