<svg width="130" height="38" viewBox="0 0 130 38" fill="none" xmlns="http://www.w3.org/2000/svg">
<path d="M15.3208 30C15.2191 30 15.1173 29.9663 15.0253 29.9102L14.0953 29.2704C13.9548 29.1806 14.0227 29.1469 14.0711 29.1301C14.2552 29.0571 14.2939 29.0403 14.4925 28.9056C14.5119 28.8943 14.5409 28.9 14.5603 28.9112L15.2772 29.4051C15.3014 29.4219 15.3402 29.4219 15.3644 29.4051L18.1641 27.5305C18.1883 27.5137 18.2077 27.48 18.2077 27.4407V23.6972C18.2077 23.6579 18.1931 23.6243 18.1641 23.6074L15.3644 21.7385C15.3402 21.7216 15.3062 21.7216 15.2772 21.7385L12.4775 23.6074C12.4484 23.6243 12.4339 23.6635 12.4339 23.6972V27.4407C12.4339 27.4744 12.4533 27.5081 12.4775 27.5249L13.2428 28.0356C13.6594 28.277 13.9161 27.9907 13.9161 27.7101V24.0115C13.9161 23.961 13.95 23.9161 13.9984 23.9161H14.352C14.3956 23.9161 14.4344 23.9554 14.4344 24.0115V27.7101C14.4344 28.3556 14.1341 28.7204 13.6061 28.7204C13.4462 28.7204 13.3155 28.7204 12.9619 28.5183L12.2256 28.03C12.0464 27.9066 11.9302 27.6821 11.9302 27.4407V23.6972C11.9302 23.4559 12.0416 23.2258 12.2256 23.1079L15.0253 21.2333C15.2045 21.1155 15.437 21.1155 15.6114 21.2333L18.4111 23.1079C18.5903 23.2314 18.7066 23.4559 18.7066 23.6972V27.4407C18.7066 27.6821 18.5952 27.9122 18.4111 28.03L15.6114 29.9046C15.5291 29.9663 15.4273 30 15.3208 30ZM17.5828 26.307C17.5828 25.6054 17.1759 25.4202 16.3137 25.2855C15.4419 25.1508 15.3547 25.0835 15.3547 24.8478C15.3547 24.6513 15.4273 24.3932 16.0716 24.3932C16.648 24.3932 16.8611 24.5391 16.9483 24.9881C16.958 25.033 16.987 25.061 17.0258 25.061H17.3891C17.4133 25.061 17.4327 25.0498 17.4472 25.033C17.4617 25.0105 17.4714 24.9881 17.4666 24.96C17.4084 24.1855 16.9677 23.8263 16.0716 23.8263C15.2723 23.8263 14.7977 24.2192 14.7977 24.8702C14.7977 25.583 15.2723 25.7738 16.0377 25.8636C16.9531 25.9703 17.0258 26.1218 17.0258 26.3295C17.0258 26.6943 16.7739 26.8458 16.183 26.8458C15.4419 26.8458 15.2772 26.6325 15.2239 26.206C15.2191 26.1611 15.1852 26.1274 15.1416 26.1274H14.7783C14.7347 26.1274 14.6959 26.1667 14.6959 26.2228C14.6959 26.7672 14.9527 27.4183 16.1781 27.4183C17.0742 27.4183 17.5828 27.0142 17.5828 26.307ZM20.2227 23.4952C20.2227 23.8375 19.9805 24.1181 19.685 24.1181C19.3895 24.1181 19.1473 23.8375 19.1473 23.4952C19.1473 23.1416 19.3992 22.8722 19.685 22.8722C19.9756 22.8666 20.2227 23.1416 20.2227 23.4952ZM20.1355 23.4952C20.1355 23.2033 19.932 22.9732 19.6802 22.9732C19.4331 22.9732 19.2297 23.2033 19.2297 23.4952C19.2297 23.787 19.4331 24.0227 19.6802 24.0227C19.932 24.0171 20.1355 23.7814 20.1355 23.4952ZM19.9175 23.8431H19.7916C19.7867 23.8095 19.7673 23.6299 19.7673 23.6243C19.7577 23.585 19.748 23.5625 19.7044 23.5625H19.5978V23.8431H19.4816V23.1416H19.6898C19.7625 23.1416 19.903 23.1416 19.903 23.3268C19.903 23.4559 19.8303 23.4839 19.7867 23.5008C19.8691 23.5064 19.8739 23.5681 19.8884 23.6579C19.8933 23.7141 19.903 23.8095 19.9175 23.8431ZM19.7819 23.3492C19.7819 23.2538 19.7237 23.2538 19.6947 23.2538H19.5978V23.4503H19.6898C19.7673 23.4503 19.7819 23.3885 19.7819 23.3492ZM6.65047 15.3515C6.65047 15.2 6.58266 15.0653 6.47125 14.9923L3.50203 13.0111C3.45359 12.9774 3.39547 12.9606 3.33734 12.955H3.30828C3.25016 12.955 3.19687 12.9774 3.14359 13.0111L0.179219 14.9923C0.0678125 15.0653 0 15.2056 0 15.3515L0.00484375 20.6833C0.00484375 20.7563 0.03875 20.8236 0.0920312 20.8629C0.145312 20.9022 0.213125 20.9022 0.27125 20.8629L2.03437 19.6899C2.14578 19.6113 2.21359 19.4767 2.21359 19.3307V16.8388C2.21359 16.6929 2.28141 16.5526 2.39281 16.4796L3.14359 15.9801C3.20172 15.9408 3.25984 15.924 3.32281 15.924C3.38578 15.924 3.44875 15.9408 3.50203 15.9801L4.25281 16.4796C4.36422 16.5526 4.43203 16.6929 4.43203 16.8388V19.3307C4.43203 19.4767 4.49984 19.617 4.61125 19.6899L6.37438 20.8629C6.42766 20.9022 6.50031 20.9022 6.55359 20.8629C6.60687 20.8293 6.64078 20.7563 6.64078 20.6833L6.65047 15.3515ZM22.8867 9.53138V19.4318C22.8867 19.5777 22.8189 19.718 22.7075 19.7909L19.7383 21.7778C19.6269 21.8507 19.4912 21.8507 19.3798 21.7778L16.4106 19.7909C16.2992 19.718 16.2314 19.5777 16.2314 19.4318V15.4581C16.2314 15.3122 16.2992 15.1719 16.4106 15.0989L19.3798 13.1121C19.4912 13.0392 19.6269 13.0392 19.7383 13.1121L20.4794 13.606C20.5617 13.6621 20.6683 13.5892 20.6683 13.4826V8.20685C20.6683 8.0497 20.8136 7.94867 20.9347 8.02725L22.7027 9.17219C22.8141 9.23954 22.8867 9.37985 22.8867 9.53138ZM20.6586 16.7658C20.6586 16.7265 20.6392 16.6929 20.615 16.676L19.5978 15.9913C19.5687 15.9745 19.5348 15.9745 19.5058 15.9913L18.4886 16.676C18.4595 16.6929 18.445 16.7265 18.445 16.7658V18.1297C18.445 18.1689 18.4644 18.2026 18.4886 18.2195L19.5058 18.8986C19.5348 18.9154 19.5687 18.9154 19.593 18.8986L20.6102 18.2195C20.6392 18.2026 20.6537 18.1689 20.6537 18.1297V16.7658H20.6586ZM30.8208 16.7265C30.9322 16.6536 31 16.5133 31 16.3674V15.4076C31 15.2617 30.9322 15.1214 30.8208 15.0484L27.8709 13.0616C27.7595 12.9887 27.6239 12.9887 27.5125 13.0616L24.5433 15.0484C24.4319 15.1214 24.3641 15.2617 24.3641 15.4076V19.3812C24.3641 19.5328 24.4319 19.6675 24.5433 19.7404L27.4931 21.688C27.5997 21.7609 27.7353 21.7609 27.8467 21.688L29.6292 20.5374C29.7503 20.4588 29.7503 20.2568 29.6292 20.1782L26.6406 18.1914C26.5825 18.1521 26.5486 18.0848 26.5486 18.0118V16.7658C26.5486 16.6929 26.5825 16.6255 26.6406 16.5862L27.5706 15.9633C27.6239 15.924 27.6966 15.924 27.7498 15.9633L28.6798 16.5862C28.7331 16.6255 28.7719 16.6929 28.7719 16.7658V17.7424C28.7719 17.8996 28.922 18.0006 29.0431 17.922L30.8208 16.7265ZM27.0766 16.923C27.0572 16.9398 27.0427 16.9623 27.0427 16.9903V17.7536C27.0427 17.7817 27.0572 17.8098 27.0766 17.821L27.6481 18.2026C27.6675 18.2195 27.6966 18.2195 27.7159 18.2026L28.2875 17.821C28.3069 17.8041 28.3214 17.7817 28.3214 17.7536V16.9903C28.3214 16.9623 28.3069 16.9342 28.2875 16.923L27.7159 16.5413C27.6966 16.5245 27.6675 16.5245 27.6481 16.5413L27.0766 16.923ZM14.7637 19.3644V15.4132C14.7637 15.2673 14.6862 15.127 14.5748 15.054L11.6153 13.0785C11.5136 13.0111 11.3731 12.9999 11.2569 13.0785L8.29734 15.054C8.18594 15.127 8.10844 15.2617 8.10844 15.4132V19.3644C8.10844 19.5216 8.20047 19.6562 8.30219 19.7236L11.2666 21.6992C11.3828 21.7778 11.5184 21.7721 11.625 21.6992L14.5797 19.7236C14.6669 19.6675 14.7298 19.5721 14.7541 19.4598C14.7589 19.4318 14.7637 19.3981 14.7637 19.3644ZM11.1648 12.3544L11.1261 12.3825H11.1794L11.1648 12.3544ZM14.8558 19.6619L14.8364 19.6226V19.6731L14.8558 19.6619Z" fill="white"/>
<path d="M53.6 28H52.475L42.175 12.3V28H41.05V10.475H42.175L52.475 26.125V10.475H53.6V28ZM63.6998 28.2C62.4331 28.2 61.2915 27.9167 60.2748 27.35C59.2581 26.7833 58.4581 25.975 57.8748 24.925C57.3081 23.8583 57.0248 22.6167 57.0248 21.2C57.0248 19.8 57.3165 18.575 57.8998 17.525C58.4831 16.4583 59.2831 15.65 60.2998 15.1C61.3331 14.5333 62.4831 14.25 63.7498 14.25C65.0165 14.25 66.1581 14.5333 67.1748 15.1C68.1915 15.65 68.9831 16.45 69.5498 17.5C70.1331 18.55 70.4248 19.7833 70.4248 21.2C70.4248 22.6167 70.1331 23.8583 69.5498 24.925C68.9665 25.975 68.1581 26.7833 67.1248 27.35C66.1081 27.9167 64.9665 28.2 63.6998 28.2ZM63.6998 27.2C64.6831 27.2 65.5998 26.9833 66.4498 26.55C67.3165 26.1 68.0081 25.425 68.5248 24.525C69.0415 23.625 69.2998 22.5167 69.2998 21.2C69.2998 19.9 69.0415 18.8 68.5248 17.9C68.0081 17 67.3248 16.3333 66.4748 15.9C65.6248 15.45 64.7081 15.225 63.7248 15.225C62.7415 15.225 61.8248 15.45 60.9748 15.9C60.1415 16.3333 59.4665 17 58.9498 17.9C58.4331 18.8 58.1748 19.9 58.1748 21.2C58.1748 22.5167 58.4248 23.625 58.9248 24.525C59.4415 25.425 60.1165 26.1 60.9498 26.55C61.7998 26.9833 62.7165 27.2 63.6998 27.2ZM73.1381 21.2C73.1381 19.8 73.4131 18.575 73.9631 17.525C74.5298 16.475 75.3048 15.6667 76.2881 15.1C77.2881 14.5333 78.4214 14.25 79.6881 14.25C81.0714 14.25 82.2714 14.6 83.2881 15.3C84.3048 15.9833 85.0214 16.875 85.4381 17.975V9.5H86.5631V28H85.4381V24.4C85.0381 25.5167 84.3381 26.4333 83.3381 27.15C82.3381 27.85 81.1214 28.2 79.6881 28.2C78.4214 28.2 77.2881 27.9167 76.2881 27.35C75.3048 26.7667 74.5298 25.95 73.9631 24.9C73.4131 23.8333 73.1381 22.6 73.1381 21.2ZM85.4381 21.2C85.4381 20.0167 85.1881 18.975 84.6881 18.075C84.2048 17.1583 83.5381 16.4583 82.6881 15.975C81.8381 15.475 80.8881 15.225 79.8381 15.225C78.7381 15.225 77.7714 15.4667 76.9381 15.95C76.1048 16.4167 75.4548 17.1 74.9881 18C74.5214 18.9 74.2881 19.9667 74.2881 21.2C74.2881 22.4333 74.5214 23.5 74.9881 24.4C75.4548 25.3 76.1048 25.9917 76.9381 26.475C77.7881 26.9583 78.7548 27.2 79.8381 27.2C80.8881 27.2 81.8381 26.9583 82.6881 26.475C83.5548 25.975 84.2298 25.275 84.7131 24.375C85.1964 23.4583 85.4381 22.4 85.4381 21.2ZM102.884 20.3C102.884 20.9 102.868 21.35 102.834 21.65H91.1094C91.1427 22.8667 91.4094 23.8917 91.9094 24.725C92.4094 25.5583 93.0677 26.1833 93.8844 26.6C94.701 27.0167 95.5927 27.225 96.5594 27.225C97.8927 27.225 99.0094 26.9 99.9094 26.25C100.809 25.5833 101.376 24.6833 101.609 23.55H102.784C102.518 24.9333 101.834 26.0583 100.734 26.925C99.6344 27.775 98.2427 28.2 96.5594 28.2C95.2927 28.2 94.1594 27.9167 93.1594 27.35C92.1594 26.7833 91.376 25.975 90.8094 24.925C90.2427 23.8583 89.9594 22.6167 89.9594 21.2C89.9594 19.7833 90.2344 18.55 90.7844 17.5C91.351 16.45 92.1344 15.65 93.1344 15.1C94.1344 14.5333 95.276 14.25 96.5594 14.25C97.8594 14.25 98.9844 14.5333 99.9344 15.1C100.901 15.65 101.634 16.3917 102.134 17.325C102.634 18.2417 102.884 19.2333 102.884 20.3ZM101.759 20.725C101.809 19.525 101.593 18.5083 101.109 17.675C100.643 16.8417 100.001 16.225 99.1844 15.825C98.3677 15.4083 97.4844 15.2 96.5344 15.2C95.5844 15.2 94.701 15.4083 93.8844 15.825C93.0844 16.225 92.426 16.8417 91.9094 17.675C91.4094 18.5083 91.1427 19.525 91.1094 20.725H101.759ZM113.609 10.45V24.075C113.609 25.2917 113.234 26.2833 112.484 27.05C111.734 27.8 110.718 28.175 109.434 28.175C108.084 28.175 107.018 27.7667 106.234 26.95C105.468 26.1167 105.084 24.975 105.084 23.525H106.209C106.209 24.5917 106.468 25.4667 106.984 26.15C107.501 26.8333 108.318 27.175 109.434 27.175C110.501 27.175 111.268 26.875 111.734 26.275C112.218 25.6583 112.459 24.925 112.459 24.075V10.45H113.609ZM122.932 28.175C121.798 28.175 120.807 27.975 119.957 27.575C119.107 27.175 118.44 26.6333 117.957 25.95C117.49 25.2667 117.223 24.5083 117.157 23.675H118.332C118.465 24.5917 118.89 25.4083 119.607 26.125C120.34 26.8417 121.448 27.2 122.932 27.2C123.798 27.2 124.548 27.0417 125.182 26.725C125.832 26.4083 126.332 25.975 126.682 25.425C127.032 24.875 127.207 24.2667 127.207 23.6C127.207 22.75 126.998 22.075 126.582 21.575C126.182 21.075 125.673 20.7 125.057 20.45C124.457 20.2 123.64 19.9333 122.607 19.65C121.473 19.35 120.557 19.05 119.857 18.75C119.173 18.45 118.59 17.9917 118.107 17.375C117.64 16.7417 117.407 15.8833 117.407 14.8C117.407 13.9667 117.623 13.2083 118.057 12.525C118.507 11.825 119.14 11.275 119.957 10.875C120.773 10.475 121.715 10.275 122.782 10.275C124.332 10.275 125.582 10.6583 126.532 11.425C127.482 12.1917 128.048 13.1333 128.232 14.25H127.032C126.932 13.8 126.707 13.3417 126.357 12.875C126.023 12.4083 125.54 12.025 124.907 11.725C124.29 11.4083 123.548 11.25 122.682 11.25C121.515 11.25 120.532 11.575 119.732 12.225C118.932 12.8583 118.532 13.7083 118.532 14.775C118.532 15.625 118.74 16.3083 119.157 16.825C119.573 17.325 120.082 17.7083 120.682 17.975C121.298 18.225 122.123 18.4833 123.157 18.75C124.307 19.0667 125.215 19.375 125.882 19.675C126.565 19.9583 127.14 20.4167 127.607 21.05C128.09 21.6667 128.332 22.5083 128.332 23.575C128.332 24.3583 128.123 25.1 127.707 25.8C127.29 26.5 126.673 27.075 125.857 27.525C125.057 27.9583 124.082 28.175 122.932 28.175Z" fill="white"/>
</svg>
