<svg width="180" height="38" viewBox="0 0 180 38" fill="none" xmlns="http://www.w3.org/2000/svg">
<path d="M21.2135 30C21.0726 30 20.9318 29.9663 20.8044 29.9102L19.5167 29.2704C19.3222 29.1806 19.4161 29.1469 19.4831 29.1301C19.738 29.0571 19.7916 29.0403 20.0666 28.9056C20.0935 28.8943 20.1337 28.9 20.1605 28.9112L21.1531 29.4051C21.1867 29.4219 21.2403 29.4219 21.2738 29.4051L25.1504 27.5305C25.1839 27.5137 25.2107 27.48 25.2107 27.4407V23.6972C25.2107 23.6579 25.1906 23.6243 25.1504 23.6074L21.2738 21.7385C21.2403 21.7216 21.1934 21.7216 21.1531 21.7385L17.2766 23.6074C17.2364 23.6243 17.2163 23.6635 17.2163 23.6972V27.4407C17.2163 27.4744 17.2431 27.5081 17.2766 27.5249L18.3363 28.0356C18.9131 28.277 19.2685 27.9907 19.2685 27.7101V24.0115C19.2685 23.961 19.3155 23.9161 19.3825 23.9161H19.8721C19.9325 23.9161 19.9861 23.9554 19.9861 24.0115V27.7101C19.9861 28.3556 19.5703 28.7204 18.8393 28.7204C18.618 28.7204 18.4369 28.7204 17.9473 28.5183L16.9279 28.03C16.6797 27.9066 16.5188 27.6821 16.5188 27.4407V23.6972C16.5188 23.4559 16.673 23.2258 16.9279 23.1079L20.8044 21.2333C21.0525 21.1155 21.3744 21.1155 21.6159 21.2333L25.4924 23.1079C25.7405 23.2314 25.9015 23.4559 25.9015 23.6972V27.4407C25.9015 27.6821 25.7473 27.9122 25.4924 28.03L21.6159 29.9046C21.5019 29.9663 21.361 30 21.2135 30ZM24.3455 26.307C24.3455 25.6054 23.7822 25.4202 22.5884 25.2855C21.3812 25.1508 21.2604 25.0835 21.2604 24.8478C21.2604 24.6513 21.361 24.3932 22.253 24.3932C23.0511 24.3932 23.3462 24.5391 23.467 24.9881C23.4804 25.033 23.5206 25.061 23.5743 25.061H24.0773C24.1108 25.061 24.1376 25.0498 24.1578 25.033C24.1779 25.0105 24.1913 24.9881 24.1846 24.96C24.1041 24.1855 23.4938 23.8263 22.253 23.8263C21.1464 23.8263 20.4892 24.2192 20.4892 24.8702C20.4892 25.583 21.1464 25.7738 22.2061 25.8636C23.4737 25.9703 23.5743 26.1218 23.5743 26.3295C23.5743 26.6943 23.2255 26.8458 22.4073 26.8458C21.3812 26.8458 21.1531 26.6325 21.0793 26.206C21.0726 26.1611 21.0257 26.1274 20.9653 26.1274H20.4623C20.402 26.1274 20.3483 26.1667 20.3483 26.2228C20.3483 26.7672 20.7038 27.4183 22.4006 27.4183C23.6413 27.4183 24.3455 27.0142 24.3455 26.307ZM28.0007 23.4952C28.0007 23.8375 27.6654 24.1181 27.2563 24.1181C26.8472 24.1181 26.5118 23.8375 26.5118 23.4952C26.5118 23.1416 26.8606 22.8722 27.2563 22.8722C27.6587 22.8666 28.0007 23.1416 28.0007 23.4952ZM27.88 23.4952C27.88 23.2033 27.5983 22.9732 27.2496 22.9732C26.9075 22.9732 26.6258 23.2033 26.6258 23.4952C26.6258 23.787 26.9075 24.0227 27.2496 24.0227C27.5983 24.0171 27.88 23.7814 27.88 23.4952ZM27.5782 23.8431H27.4038C27.3971 23.8095 27.3703 23.6299 27.3703 23.6243C27.3569 23.585 27.3435 23.5625 27.2831 23.5625H27.1356V23.8431H26.9746V23.1416H27.263C27.3636 23.1416 27.5581 23.1416 27.5581 23.3268C27.5581 23.4559 27.4575 23.4839 27.3971 23.5008C27.5111 23.5064 27.5178 23.5681 27.538 23.6579C27.5447 23.7141 27.5581 23.8095 27.5782 23.8431ZM27.3904 23.3492C27.3904 23.2538 27.3099 23.2538 27.2697 23.2538H27.1356V23.4503H27.263C27.3703 23.4503 27.3904 23.3885 27.3904 23.3492ZM9.20838 15.3515C9.20838 15.2 9.11449 15.0653 8.96023 14.9923L4.84899 13.0111C4.78192 12.9774 4.70144 12.9606 4.62096 12.955H4.58072C4.50024 12.955 4.42646 12.9774 4.35269 13.0111L0.24815 14.9923C0.0938946 15.0653 0 15.2056 0 15.3515L0.00670676 20.6833C0.00670676 20.7563 0.0536541 20.8236 0.127428 20.8629C0.201203 20.9022 0.295097 20.9022 0.375579 20.8629L2.81684 19.6899C2.97109 19.6113 3.06499 19.4767 3.06499 19.3307V16.8388C3.06499 16.6929 3.15888 16.5526 3.31314 16.4796L4.35269 15.9801C4.43317 15.9408 4.51365 15.924 4.60084 15.924C4.68803 15.924 4.77521 15.9408 4.84899 15.9801L5.88854 16.4796C6.04279 16.5526 6.13669 16.6929 6.13669 16.8388V19.3307C6.13669 19.4767 6.23058 19.617 6.38484 19.6899L8.8261 20.8629C8.89987 20.9022 9.00047 20.9022 9.07425 20.8629C9.14802 20.8293 9.19497 20.7563 9.19497 20.6833L9.20838 15.3515ZM31.6894 9.53138V19.4318C31.6894 19.5777 31.5955 19.718 31.4413 19.7909L27.33 21.7778C27.1758 21.8507 26.988 21.8507 26.8337 21.7778L22.7225 19.7909C22.5682 19.718 22.4744 19.5777 22.4744 19.4318V15.4581C22.4744 15.3122 22.5682 15.1719 22.7225 15.0989L26.8337 13.1121C26.988 13.0392 27.1758 13.0392 27.33 13.1121L28.3562 13.606C28.4702 13.6621 28.6177 13.5892 28.6177 13.4826V8.20685C28.6177 8.0497 28.8189 7.94867 28.9866 8.02725L31.4346 9.17219C31.5888 9.23954 31.6894 9.37985 31.6894 9.53138ZM28.6043 16.7658C28.6043 16.7265 28.5775 16.6929 28.544 16.676L27.1356 15.9913C27.0953 15.9745 27.0484 15.9745 27.0081 15.9913L25.5997 16.676C25.5595 16.6929 25.5393 16.7265 25.5393 16.7658V18.1297C25.5393 18.1689 25.5662 18.2026 25.5997 18.2195L27.0081 18.8986C27.0484 18.9154 27.0953 18.9154 27.1288 18.8986L28.5373 18.2195C28.5775 18.2026 28.5976 18.1689 28.5976 18.1297V16.7658H28.6043ZM42.6751 16.7265C42.8294 16.6536 42.9233 16.5133 42.9233 16.3674V15.4076C42.9233 15.2617 42.8294 15.1214 42.6751 15.0484L38.5907 13.0616C38.4364 12.9887 38.2487 12.9887 38.0944 13.0616L33.9832 15.0484C33.8289 15.1214 33.735 15.2617 33.735 15.4076V19.3812C33.735 19.5328 33.8289 19.6675 33.9832 19.7404L38.0676 21.688C38.2151 21.7609 38.4029 21.7609 38.5572 21.688L41.0253 20.5374C41.1929 20.4588 41.1929 20.2568 41.0253 20.1782L36.8872 18.1914C36.8067 18.1521 36.7598 18.0848 36.7598 18.0118V16.7658C36.7598 16.6929 36.8067 16.6255 36.8872 16.5862L38.1749 15.9633C38.2487 15.924 38.3493 15.924 38.423 15.9633L39.7107 16.5862C39.7845 16.6255 39.8382 16.6929 39.8382 16.7658V17.7424C39.8382 17.8996 40.0461 18.0006 40.2137 17.922L42.6751 16.7265ZM37.4908 16.923C37.464 16.9398 37.4438 16.9623 37.4438 16.9903V17.7536C37.4438 17.7817 37.464 17.8098 37.4908 17.821L38.2822 18.2026C38.309 18.2195 38.3493 18.2195 38.3761 18.2026L39.1675 17.821C39.1943 17.8041 39.2144 17.7817 39.2144 17.7536V16.9903C39.2144 16.9623 39.1943 16.9342 39.1675 16.923L38.3761 16.5413C38.3493 16.5245 38.309 16.5245 38.2822 16.5413L37.4908 16.923ZM20.4422 19.3644V15.4132C20.4422 15.2673 20.3349 15.127 20.1806 15.054L16.0828 13.0785C15.942 13.0111 15.7475 12.9999 15.5865 13.0785L11.4887 15.054C11.3344 15.127 11.2271 15.2617 11.2271 15.4132V19.3644C11.2271 19.5216 11.3545 19.6562 11.4954 19.7236L15.5999 21.6992C15.7609 21.7778 15.9487 21.7721 16.0962 21.6992L20.1873 19.7236C20.3081 19.6675 20.3953 19.5721 20.4288 19.4598C20.4355 19.4318 20.4422 19.3981 20.4422 19.3644ZM15.4591 12.3544L15.4054 12.3825H15.4792L15.4591 12.3544ZM20.5696 19.6619L20.5428 19.6226V19.6731L20.5696 19.6619Z" fill="white"/>
<path d="M68.5984 28H67.4734L57.1734 12.3V28H56.0484V10.475H57.1734L67.4734 26.125V10.475H68.5984V28ZM78.6982 28.2C77.4316 28.2 76.2899 27.9167 75.2732 27.35C74.2566 26.7833 73.4566 25.975 72.8732 24.925C72.3066 23.8583 72.0232 22.6167 72.0232 21.2C72.0232 19.8 72.3149 18.575 72.8982 17.525C73.4816 16.4583 74.2816 15.65 75.2982 15.1C76.3316 14.5333 77.4816 14.25 78.7482 14.25C80.0149 14.25 81.1566 14.5333 82.1732 15.1C83.1899 15.65 83.9816 16.45 84.5482 17.5C85.1316 18.55 85.4232 19.7833 85.4232 21.2C85.4232 22.6167 85.1316 23.8583 84.5482 24.925C83.9649 25.975 83.1566 26.7833 82.1232 27.35C81.1066 27.9167 79.9649 28.2 78.6982 28.2ZM78.6982 27.2C79.6816 27.2 80.5982 26.9833 81.4482 26.55C82.3149 26.1 83.0066 25.425 83.5232 24.525C84.0399 23.625 84.2982 22.5167 84.2982 21.2C84.2982 19.9 84.0399 18.8 83.5232 17.9C83.0066 17 82.3232 16.3333 81.4732 15.9C80.6232 15.45 79.7066 15.225 78.7232 15.225C77.7399 15.225 76.8232 15.45 75.9732 15.9C75.1399 16.3333 74.4649 17 73.9482 17.9C73.4316 18.8 73.1732 19.9 73.1732 21.2C73.1732 22.5167 73.4232 23.625 73.9232 24.525C74.4399 25.425 75.1149 26.1 75.9482 26.55C76.7982 26.9833 77.7149 27.2 78.6982 27.2ZM88.1365 21.2C88.1365 19.8 88.4115 18.575 88.9615 17.525C89.5282 16.475 90.3032 15.6667 91.2865 15.1C92.2865 14.5333 93.4198 14.25 94.6865 14.25C96.0698 14.25 97.2698 14.6 98.2865 15.3C99.3032 15.9833 100.02 16.875 100.436 17.975V9.5H101.561V28H100.436V24.4C100.036 25.5167 99.3365 26.4333 98.3365 27.15C97.3365 27.85 96.1198 28.2 94.6865 28.2C93.4198 28.2 92.2865 27.9167 91.2865 27.35C90.3032 26.7667 89.5282 25.95 88.9615 24.9C88.4115 23.8333 88.1365 22.6 88.1365 21.2ZM100.436 21.2C100.436 20.0167 100.186 18.975 99.6865 18.075C99.2032 17.1583 98.5365 16.4583 97.6865 15.975C96.8365 15.475 95.8865 15.225 94.8365 15.225C93.7365 15.225 92.7698 15.4667 91.9365 15.95C91.1032 16.4167 90.4532 17.1 89.9865 18C89.5198 18.9 89.2865 19.9667 89.2865 21.2C89.2865 22.4333 89.5198 23.5 89.9865 24.4C90.4532 25.3 91.1032 25.9917 91.9365 26.475C92.7865 26.9583 93.7532 27.2 94.8365 27.2C95.8865 27.2 96.8365 26.9583 97.6865 26.475C98.5532 25.975 99.2282 25.275 99.7115 24.375C100.195 23.4583 100.436 22.4 100.436 21.2ZM117.883 20.3C117.883 20.9 117.866 21.35 117.833 21.65H106.108C106.141 22.8667 106.408 23.8917 106.908 24.725C107.408 25.5583 108.066 26.1833 108.883 26.6C109.699 27.0167 110.591 27.225 111.558 27.225C112.891 27.225 114.008 26.9 114.908 26.25C115.808 25.5833 116.374 24.6833 116.608 23.55H117.783C117.516 24.9333 116.833 26.0583 115.733 26.925C114.633 27.775 113.241 28.2 111.558 28.2C110.291 28.2 109.158 27.9167 108.158 27.35C107.158 26.7833 106.374 25.975 105.808 24.925C105.241 23.8583 104.958 22.6167 104.958 21.2C104.958 19.7833 105.233 18.55 105.783 17.5C106.349 16.45 107.133 15.65 108.133 15.1C109.133 14.5333 110.274 14.25 111.558 14.25C112.858 14.25 113.983 14.5333 114.933 15.1C115.899 15.65 116.633 16.3917 117.133 17.325C117.633 18.2417 117.883 19.2333 117.883 20.3ZM116.758 20.725C116.808 19.525 116.591 18.5083 116.108 17.675C115.641 16.8417 114.999 16.225 114.183 15.825C113.366 15.4083 112.483 15.2 111.533 15.2C110.583 15.2 109.699 15.4083 108.883 15.825C108.083 16.225 107.424 16.8417 106.908 17.675C106.408 18.5083 106.141 19.525 106.108 20.725H116.758ZM128.608 10.45V24.075C128.608 25.2917 128.233 26.2833 127.483 27.05C126.733 27.8 125.716 28.175 124.433 28.175C123.083 28.175 122.016 27.7667 121.233 26.95C120.466 26.1167 120.083 24.975 120.083 23.525H121.208C121.208 24.5917 121.466 25.4667 121.983 26.15C122.499 26.8333 123.316 27.175 124.433 27.175C125.499 27.175 126.266 26.875 126.733 26.275C127.216 25.6583 127.458 24.925 127.458 24.075V10.45H128.608ZM137.93 28.175C136.797 28.175 135.805 27.975 134.955 27.575C134.105 27.175 133.438 26.6333 132.955 25.95C132.488 25.2667 132.222 24.5083 132.155 23.675H133.33C133.463 24.5917 133.888 25.4083 134.605 26.125C135.338 26.8417 136.447 27.2 137.93 27.2C138.797 27.2 139.547 27.0417 140.18 26.725C140.83 26.4083 141.33 25.975 141.68 25.425C142.03 24.875 142.205 24.2667 142.205 23.6C142.205 22.75 141.997 22.075 141.58 21.575C141.18 21.075 140.672 20.7 140.055 20.45C139.455 20.2 138.638 19.9333 137.605 19.65C136.472 19.35 135.555 19.05 134.855 18.75C134.172 18.45 133.588 17.9917 133.105 17.375C132.638 16.7417 132.405 15.8833 132.405 14.8C132.405 13.9667 132.622 13.2083 133.055 12.525C133.505 11.825 134.138 11.275 134.955 10.875C135.772 10.475 136.713 10.275 137.78 10.275C139.33 10.275 140.58 10.6583 141.53 11.425C142.48 12.1917 143.047 13.1333 143.23 14.25H142.03C141.93 13.8 141.705 13.3417 141.355 12.875C141.022 12.4083 140.538 12.025 139.905 11.725C139.288 11.4083 138.547 11.25 137.68 11.25C136.513 11.25 135.53 11.575 134.73 12.225C133.93 12.8583 133.53 13.7083 133.53 14.775C133.53 15.625 133.738 16.3083 134.155 16.825C134.572 17.325 135.08 17.7083 135.68 17.975C136.297 18.225 137.122 18.4833 138.155 18.75C139.305 19.0667 140.213 19.375 140.88 19.675C141.563 19.9583 142.138 20.4167 142.605 21.05C143.088 21.6667 143.33 22.5083 143.33 23.575C143.33 24.3583 143.122 25.1 142.705 25.8C142.288 26.5 141.672 27.075 140.855 27.525C140.055 27.9583 139.08 28.175 137.93 28.175Z" fill="white"/>
</svg>
