<svg width="118" height="29" viewBox="0 0 118 29" fill="none" xmlns="http://www.w3.org/2000/svg">
<path d="M16.8034 25C16.6919 25 16.5803 24.9617 16.4794 24.898L15.4594 24.1709C15.3053 24.0688 15.3797 24.0306 15.4328 24.0114C15.6347 23.9285 15.6772 23.9094 15.895 23.7563C15.9163 23.7436 15.9481 23.75 15.9694 23.7627L16.7556 24.324C16.7822 24.3431 16.8247 24.3431 16.8513 24.324L19.9219 22.1938C19.9484 22.1746 19.9697 22.1364 19.9697 22.0917V17.8377C19.9697 17.7931 19.9538 17.7548 19.9219 17.7357L16.8513 15.6119C16.8247 15.5928 16.7875 15.5928 16.7556 15.6119L13.685 17.7357C13.6531 17.7548 13.6372 17.7995 13.6372 17.8377V22.0917C13.6372 22.13 13.6584 22.1683 13.685 22.1874L14.5244 22.7678C14.9812 23.042 15.2628 22.7168 15.2628 22.3979V18.1949C15.2628 18.1375 15.3 18.0865 15.3531 18.0865H15.7409C15.7887 18.0865 15.8313 18.1311 15.8313 18.1949V22.3979C15.8313 23.1313 15.5019 23.5459 14.9228 23.5459C14.7475 23.5459 14.6041 23.5459 14.2163 23.3163L13.4087 22.7614C13.2122 22.6211 13.0847 22.366 13.0847 22.0917V17.8377C13.0847 17.5635 13.2069 17.302 13.4087 17.1681L16.4794 15.0379C16.6759 14.904 16.9309 14.904 17.1222 15.0379L20.1928 17.1681C20.3894 17.3084 20.5169 17.5635 20.5169 17.8377V22.0917C20.5169 22.366 20.3947 22.6275 20.1928 22.7614L17.1222 24.8916C17.0319 24.9617 16.9203 25 16.8034 25ZM19.2844 20.8034C19.2844 20.0062 18.8381 19.7957 17.8925 19.6427C16.9363 19.4896 16.8406 19.4131 16.8406 19.1452C16.8406 18.922 16.9203 18.6286 17.6269 18.6286C18.2591 18.6286 18.4928 18.7944 18.5884 19.3046C18.5991 19.3557 18.6309 19.3875 18.6734 19.3875H19.0719C19.0984 19.3875 19.1197 19.3748 19.1356 19.3557C19.1516 19.3301 19.1622 19.3046 19.1569 19.2727C19.0931 18.3926 18.6097 17.9844 17.6269 17.9844C16.7503 17.9844 16.2297 18.4309 16.2297 19.1707C16.2297 19.9807 16.7503 20.1975 17.5897 20.2996C18.5938 20.4207 18.6734 20.5929 18.6734 20.8289C18.6734 21.2435 18.3972 21.4157 17.7491 21.4157C16.9363 21.4157 16.7556 21.1733 16.6972 20.6886C16.6919 20.6376 16.6547 20.5993 16.6069 20.5993H16.2084C16.1606 20.5993 16.1181 20.644 16.1181 20.7077C16.1181 21.3264 16.3997 22.0662 17.7437 22.0662C18.7266 22.0662 19.2844 21.607 19.2844 20.8034ZM22.1797 17.6081C22.1797 17.9972 21.9141 18.3161 21.59 18.3161C21.2659 18.3161 21.0003 17.9972 21.0003 17.6081C21.0003 17.2063 21.2766 16.9002 21.59 16.9002C21.9088 16.8938 22.1797 17.2063 22.1797 17.6081ZM22.0841 17.6081C22.0841 17.2765 21.8609 17.015 21.5847 17.015C21.3137 17.015 21.0906 17.2765 21.0906 17.6081C21.0906 17.9398 21.3137 18.2077 21.5847 18.2077C21.8609 18.2013 22.0841 17.9334 22.0841 17.6081ZM21.845 18.0036H21.7069C21.7016 17.9653 21.6803 17.7612 21.6803 17.7548C21.6697 17.7102 21.6591 17.6847 21.6112 17.6847H21.4944V18.0036H21.3669V17.2063H21.5953C21.675 17.2063 21.8291 17.2063 21.8291 17.4168C21.8291 17.5635 21.7494 17.5954 21.7016 17.6145C21.7919 17.6209 21.7972 17.6911 21.8131 17.7931C21.8184 17.8569 21.8291 17.9653 21.845 18.0036ZM21.6963 17.4423C21.6963 17.3339 21.6325 17.3339 21.6006 17.3339H21.4944V17.5571H21.5953C21.6803 17.5571 21.6963 17.487 21.6963 17.4423ZM7.29406 8.35397C7.29406 8.18177 7.21969 8.02871 7.0975 7.9458L3.84094 5.69444C3.78781 5.65617 3.72406 5.63704 3.66031 5.63066H3.62844C3.56469 5.63066 3.50625 5.65617 3.44781 5.69444L0.196563 7.9458C0.074375 8.02871 0 8.18815 0 8.35397L0.0053125 14.4129C0.0053125 14.4958 0.0425 14.5723 0.100938 14.617C0.159375 14.6616 0.23375 14.6616 0.2975 14.617L2.23125 13.284C2.35344 13.1947 2.42781 13.0416 2.42781 12.8758V10.0441C2.42781 9.87827 2.50219 9.71882 2.62438 9.63591L3.44781 9.06829C3.51156 9.02364 3.57531 9.00451 3.64438 9.00451C3.71344 9.00451 3.7825 9.02364 3.84094 9.06829L4.66438 9.63591C4.78656 9.71882 4.86094 9.87827 4.86094 10.0441V12.8758C4.86094 13.0416 4.93531 13.2011 5.0575 13.284L6.99125 14.617C7.04969 14.6616 7.12938 14.6616 7.18781 14.617C7.24625 14.5787 7.28344 14.4958 7.28344 14.4129L7.29406 8.35397ZM25.1016 1.74021V12.9906C25.1016 13.1564 25.0272 13.3159 24.905 13.3988L21.6484 15.6565C21.5263 15.7395 21.3775 15.7395 21.2553 15.6565L17.9988 13.3988C17.8766 13.3159 17.8022 13.1564 17.8022 12.9906V8.47515C17.8022 8.30933 17.8766 8.14989 17.9988 8.06697L21.2553 5.80924C21.3775 5.72633 21.5263 5.72633 21.6484 5.80924L22.4613 6.37048C22.5516 6.43426 22.6684 6.35135 22.6684 6.23017V0.235052C22.6684 0.0564739 22.8278 -0.0583263 22.9606 0.0309627L24.8997 1.33203C25.0219 1.40856 25.1016 1.56801 25.1016 1.74021ZM22.6578 9.96118C22.6578 9.91653 22.6366 9.87827 22.61 9.85913L21.4944 9.08104C21.4625 9.06191 21.4253 9.06191 21.3934 9.08104L20.2778 9.85913C20.2459 9.87827 20.23 9.91653 20.23 9.96118V11.511C20.23 11.5556 20.2513 11.5939 20.2778 11.613L21.3934 12.3847C21.4253 12.4039 21.4625 12.4039 21.4891 12.3847L22.6047 11.613C22.6366 11.5939 22.6525 11.5556 22.6525 11.511V9.96118H22.6578ZM33.8034 9.91653C33.9256 9.83362 34 9.67418 34 9.50835V8.41775C34 8.25193 33.9256 8.09249 33.8034 8.00957L30.5681 5.75184C30.4459 5.66893 30.2972 5.66893 30.175 5.75184L26.9184 8.00957C26.7963 8.09249 26.7219 8.25193 26.7219 8.41775V12.9332C26.7219 13.1054 26.7963 13.2585 26.9184 13.3414L30.1537 15.5545C30.2706 15.6374 30.4194 15.6374 30.5416 15.5545L32.4966 14.247C32.6294 14.1578 32.6294 13.9282 32.4966 13.8389L29.2188 11.5811C29.155 11.5365 29.1178 11.46 29.1178 11.377V9.96118C29.1178 9.87827 29.155 9.80173 29.2188 9.75709L30.2388 9.04915C30.2972 9.00451 30.3769 9.00451 30.4353 9.04915L31.4553 9.75709C31.5138 9.80173 31.5563 9.87827 31.5563 9.96118V11.0709C31.5563 11.2495 31.7209 11.3643 31.8538 11.275L33.8034 9.91653ZM29.6969 10.1398C29.6756 10.1589 29.6597 10.1844 29.6597 10.2163V11.0837C29.6597 11.1156 29.6756 11.1474 29.6969 11.1602L30.3237 11.5939C30.345 11.613 30.3769 11.613 30.3981 11.5939L31.025 11.1602C31.0463 11.1411 31.0622 11.1156 31.0622 11.0837V10.2163C31.0622 10.1844 31.0463 10.1525 31.025 10.1398L30.3981 9.70607C30.3769 9.68693 30.345 9.68693 30.3237 9.70607L29.6969 10.1398ZM16.1925 12.9141V8.42413C16.1925 8.25831 16.1075 8.09886 15.9853 8.01595L12.7394 5.77097C12.6278 5.69444 12.4738 5.68168 12.3462 5.77097L9.10031 8.01595C8.97813 8.09886 8.89312 8.25193 8.89312 8.42413V12.9141C8.89312 13.0927 8.99406 13.2457 9.10563 13.3223L12.3569 15.5673C12.4844 15.6565 12.6331 15.6502 12.75 15.5673L15.9906 13.3223C16.0863 13.2585 16.1553 13.1501 16.1819 13.0225C16.1872 12.9906 16.1925 12.9524 16.1925 12.9141ZM12.2453 4.94824L12.2028 4.98013H12.2613L12.2453 4.94824ZM16.2934 13.2521L16.2722 13.2075V13.2649L16.2934 13.2521Z" fill="white"/>
<path d="M44.595 22C44.4117 22 44.32 21.9083 44.32 21.725V7.612C44.32 7.42867 44.4117 7.337 44.595 7.337H50.843C51.019 7.337 51.1657 7.39567 51.283 7.513L53.483 9.713C53.6077 9.83767 53.67 9.98433 53.67 10.153V21.725C53.67 21.9083 53.5783 22 53.395 22H50.282C50.0987 22 50.007 21.9083 50.007 21.725V10.263H47.983V21.725C47.983 21.9083 47.8913 22 47.708 22H44.595ZM59.7183 22C59.5496 22 59.4029 21.9377 59.2783 21.813L57.0783 19.613C56.9536 19.4957 56.8913 19.349 56.8913 19.173V12.727C56.8913 12.551 56.9536 12.4043 57.0783 12.287L59.2783 10.087C59.4029 9.96233 59.5496 9.9 59.7183 9.9H63.0513C63.2273 9.9 63.3739 9.96233 63.4913 10.087L65.6913 12.287C65.8159 12.4043 65.8783 12.551 65.8783 12.727V19.173C65.8783 19.349 65.8159 19.4957 65.6913 19.613L63.4913 21.813C63.3739 21.9377 63.2273 22 63.0513 22H59.7183ZM61.0053 19.437H61.7753C62.0099 19.437 62.1713 19.3893 62.2593 19.294C62.3473 19.1987 62.3913 19.03 62.3913 18.788V13.112C62.3913 12.87 62.3473 12.7013 62.2593 12.606C62.1713 12.5107 62.0099 12.463 61.7753 12.463H61.0053C60.7633 12.463 60.5983 12.5107 60.5103 12.606C60.4223 12.7013 60.3783 12.87 60.3783 13.112V18.788C60.3783 19.03 60.4223 19.1987 60.5103 19.294C60.5983 19.3893 60.7633 19.437 61.0053 19.437ZM71.8509 22C71.6823 22 71.5356 21.9377 71.4109 21.813L69.2109 19.613C69.0863 19.4957 69.0239 19.349 69.0239 19.173V12.727C69.0239 12.551 69.0863 12.4043 69.2109 12.287L71.4109 10.087C71.5356 9.96233 71.6823 9.9 71.8509 9.9H73.5339C73.7099 9.9 73.8566 9.96233 73.9739 10.087L74.5239 10.637V7.612C74.5239 7.42867 74.6156 7.337 74.7989 7.337H77.7359C77.9193 7.337 78.0109 7.42867 78.0109 7.612V21.725C78.0109 21.9083 77.9193 22 77.7359 22H75.4479C75.3526 22 75.2793 21.9817 75.2279 21.945C75.1839 21.9083 75.1326 21.8643 75.0739 21.813L74.5239 21.263L73.9739 21.813C73.8566 21.9377 73.7099 22 73.5339 22H71.8509ZM73.1379 19.437H73.9079C74.1426 19.437 74.3039 19.3893 74.3919 19.294C74.4799 19.1987 74.5239 19.03 74.5239 18.788V12.463H73.1379C72.8959 12.463 72.7309 12.5107 72.6429 12.606C72.5549 12.7013 72.5109 12.87 72.5109 13.112V18.788C72.5109 19.03 72.5549 19.1987 72.6429 19.294C72.7309 19.3893 72.8959 19.437 73.1379 19.437ZM86.1616 22C86.0883 22 86.0076 21.989 85.9196 21.967C85.8389 21.945 85.7619 21.9267 85.6886 21.912L83.7306 21.428L81.4866 20.68C81.2666 20.6067 81.1566 20.394 81.1566 20.042V12.727C81.1566 12.551 81.2189 12.4043 81.3436 12.287L83.5436 10.087C83.6683 9.96233 83.8149 9.9 83.9836 9.9H87.5036C87.6723 9.9 87.8189 9.96233 87.9436 10.087L90.1436 12.287C90.2683 12.4043 90.3306 12.551 90.3306 12.727V17.237H84.4236L84.3466 18.7L85.9086 19.217L88.7136 19.415C88.8383 19.437 88.9006 19.5213 88.9006 19.668V21.725C88.9006 21.9083 88.8089 22 88.6256 22H86.1616ZM85.7216 15.51H85.9306C86.2899 15.51 86.5759 15.3743 86.7886 15.103C87.0086 14.8317 87.1186 14.465 87.1186 14.003V13.783C87.1186 13.3283 87.0086 12.9653 86.7886 12.694C86.5759 12.4227 86.2899 12.287 85.9306 12.287H85.7106C85.3586 12.287 85.0763 12.4227 84.8636 12.694C84.6583 12.9653 84.5556 13.3283 84.5556 13.783V14.003C84.5556 14.465 84.6583 14.8317 84.8636 15.103C85.0763 15.3743 85.3623 15.51 85.7216 15.51ZM92.6753 23.837C92.492 23.837 92.4003 23.7453 92.4003 23.562V21.813C92.4003 21.6737 92.437 21.5637 92.5103 21.483L94.1383 19.855C94.2263 19.7743 94.2703 19.657 94.2703 19.503V7.612C94.2703 7.42867 94.362 7.337 94.5453 7.337H97.6583C97.8416 7.337 97.9333 7.42867 97.9333 7.612V21.043C97.9333 21.109 97.926 21.1713 97.9113 21.23C97.904 21.2813 97.871 21.3363 97.8123 21.395L95.5353 23.672C95.4253 23.782 95.3153 23.837 95.2053 23.837H92.6753ZM101.169 22C100.985 22 100.894 21.9083 100.894 21.725V19.657C100.894 19.5617 100.897 19.4847 100.905 19.426C100.919 19.3673 100.963 19.3197 101.037 19.283L103.919 17.963V16.005L101.081 14.245C100.956 14.1717 100.894 14.0617 100.894 13.915V9.878C100.894 9.76067 100.901 9.67633 100.916 9.625C100.93 9.56633 100.985 9.504 101.081 9.438L103.974 7.48C104.047 7.436 104.113 7.403 104.172 7.381C104.238 7.35167 104.318 7.337 104.414 7.337H107.384C107.567 7.337 107.659 7.42867 107.659 7.612V9.482C107.659 9.64333 107.604 9.75333 107.494 9.812L104.612 11V13.035L107.494 14.685C107.604 14.7363 107.659 14.8537 107.659 15.037V19.822C107.659 19.8807 107.648 19.943 107.626 20.009C107.611 20.075 107.574 20.1227 107.516 20.152L104.062 21.868C104.018 21.89 103.963 21.9193 103.897 21.956C103.838 21.9853 103.779 22 103.721 22H101.169Z" fill="white"/>
</svg>
