<svg width="141" height="34" viewBox="0 0 141 34" fill="none" xmlns="http://www.w3.org/2000/svg">
<path d="M16.8034 29C16.6919 29 16.5803 28.9617 16.4794 28.898L15.4594 28.1709C15.3053 28.0688 15.3797 28.0306 15.4328 28.0114C15.6347 27.9285 15.6772 27.9094 15.895 27.7563C15.9163 27.7436 15.9481 27.75 15.9694 27.7627L16.7556 28.324C16.7822 28.3431 16.8247 28.3431 16.8513 28.324L19.9219 26.1938C19.9484 26.1746 19.9697 26.1364 19.9697 26.0917V21.8377C19.9697 21.7931 19.9538 21.7548 19.9219 21.7357L16.8513 19.6119C16.8247 19.5928 16.7875 19.5928 16.7556 19.6119L13.685 21.7357C13.6531 21.7548 13.6372 21.7995 13.6372 21.8377V26.0917C13.6372 26.13 13.6584 26.1683 13.685 26.1874L14.5244 26.7678C14.9812 27.042 15.2628 26.7168 15.2628 26.3979V22.1949C15.2628 22.1375 15.3 22.0865 15.3531 22.0865H15.7409C15.7887 22.0865 15.8313 22.1311 15.8313 22.1949V26.3979C15.8313 27.1313 15.5019 27.5459 14.9228 27.5459C14.7475 27.5459 14.6041 27.5459 14.2163 27.3163L13.4087 26.7614C13.2122 26.6211 13.0847 26.366 13.0847 26.0917V21.8377C13.0847 21.5635 13.2069 21.302 13.4087 21.1681L16.4794 19.0379C16.6759 18.904 16.9309 18.904 17.1222 19.0379L20.1928 21.1681C20.3894 21.3084 20.5169 21.5635 20.5169 21.8377V26.0917C20.5169 26.366 20.3947 26.6275 20.1928 26.7614L17.1222 28.8916C17.0319 28.9617 16.9203 29 16.8034 29ZM19.2844 24.8034C19.2844 24.0062 18.8381 23.7957 17.8925 23.6427C16.9363 23.4896 16.8406 23.4131 16.8406 23.1452C16.8406 22.922 16.9203 22.6286 17.6269 22.6286C18.2591 22.6286 18.4928 22.7944 18.5884 23.3046C18.5991 23.3557 18.6309 23.3875 18.6734 23.3875H19.0719C19.0984 23.3875 19.1197 23.3748 19.1356 23.3557C19.1516 23.3301 19.1622 23.3046 19.1569 23.2727C19.0931 22.3926 18.6097 21.9844 17.6269 21.9844C16.7503 21.9844 16.2297 22.4309 16.2297 23.1707C16.2297 23.9807 16.7503 24.1975 17.5897 24.2996C18.5938 24.4207 18.6734 24.5929 18.6734 24.8289C18.6734 25.2435 18.3972 25.4157 17.7491 25.4157C16.9363 25.4157 16.7556 25.1733 16.6972 24.6886C16.6919 24.6376 16.6547 24.5993 16.6069 24.5993H16.2084C16.1606 24.5993 16.1181 24.644 16.1181 24.7077C16.1181 25.3264 16.3997 26.0662 17.7437 26.0662C18.7266 26.0662 19.2844 25.607 19.2844 24.8034ZM22.1797 21.6081C22.1797 21.9972 21.9141 22.3161 21.59 22.3161C21.2659 22.3161 21.0003 21.9972 21.0003 21.6081C21.0003 21.2063 21.2766 20.9002 21.59 20.9002C21.9088 20.8938 22.1797 21.2063 22.1797 21.6081ZM22.0841 21.6081C22.0841 21.2765 21.8609 21.015 21.5847 21.015C21.3137 21.015 21.0906 21.2765 21.0906 21.6081C21.0906 21.9398 21.3137 22.2077 21.5847 22.2077C21.8609 22.2013 22.0841 21.9334 22.0841 21.6081ZM21.845 22.0036H21.7069C21.7016 21.9653 21.6803 21.7612 21.6803 21.7548C21.6697 21.7102 21.6591 21.6847 21.6112 21.6847H21.4944V22.0036H21.3669V21.2063H21.5953C21.675 21.2063 21.8291 21.2063 21.8291 21.4168C21.8291 21.5635 21.7494 21.5954 21.7016 21.6145C21.7919 21.6209 21.7972 21.6911 21.8131 21.7931C21.8184 21.8569 21.8291 21.9653 21.845 22.0036ZM21.6963 21.4423C21.6963 21.3339 21.6325 21.3339 21.6006 21.3339H21.4944V21.5571H21.5953C21.6803 21.5571 21.6963 21.487 21.6963 21.4423ZM7.29406 12.354C7.29406 12.1818 7.21969 12.0287 7.0975 11.9458L3.84094 9.69444C3.78781 9.65617 3.72406 9.63704 3.66031 9.63066H3.62844C3.56469 9.63066 3.50625 9.65617 3.44781 9.69444L0.196563 11.9458C0.074375 12.0287 0 12.1882 0 12.354L0.0053125 18.4129C0.0053125 18.4958 0.0425 18.5723 0.100938 18.617C0.159375 18.6616 0.23375 18.6616 0.2975 18.617L2.23125 17.284C2.35344 17.1947 2.42781 17.0416 2.42781 16.8758V14.0441C2.42781 13.8783 2.50219 13.7188 2.62438 13.6359L3.44781 13.0683C3.51156 13.0236 3.57531 13.0045 3.64438 13.0045C3.71344 13.0045 3.7825 13.0236 3.84094 13.0683L4.66438 13.6359C4.78656 13.7188 4.86094 13.8783 4.86094 14.0441V16.8758C4.86094 17.0416 4.93531 17.2011 5.0575 17.284L6.99125 18.617C7.04969 18.6616 7.12938 18.6616 7.18781 18.617C7.24625 18.5787 7.28344 18.4958 7.28344 18.4129L7.29406 12.354ZM25.1016 5.74021V16.9906C25.1016 17.1564 25.0272 17.3159 24.905 17.3988L21.6484 19.6565C21.5263 19.7395 21.3775 19.7395 21.2553 19.6565L17.9988 17.3988C17.8766 17.3159 17.8022 17.1564 17.8022 16.9906V12.4752C17.8022 12.3093 17.8766 12.1499 17.9988 12.067L21.2553 9.80924C21.3775 9.72633 21.5263 9.72633 21.6484 9.80924L22.4613 10.3705C22.5516 10.4343 22.6684 10.3513 22.6684 10.2302V4.23505C22.6684 4.05647 22.8278 3.94167 22.9606 4.03096L24.8997 5.33203C25.0219 5.40856 25.1016 5.56801 25.1016 5.74021ZM22.6578 13.9612C22.6578 13.9165 22.6366 13.8783 22.61 13.8591L21.4944 13.081C21.4625 13.0619 21.4253 13.0619 21.3934 13.081L20.2778 13.8591C20.2459 13.8783 20.23 13.9165 20.23 13.9612V15.511C20.23 15.5556 20.2513 15.5939 20.2778 15.613L21.3934 16.3847C21.4253 16.4039 21.4625 16.4039 21.4891 16.3847L22.6047 15.613C22.6366 15.5939 22.6525 15.5556 22.6525 15.511V13.9612H22.6578ZM33.8034 13.9165C33.9256 13.8336 34 13.6742 34 13.5084V12.4178C34 12.2519 33.9256 12.0925 33.8034 12.0096L30.5681 9.75184C30.4459 9.66893 30.2972 9.66893 30.175 9.75184L26.9184 12.0096C26.7963 12.0925 26.7219 12.2519 26.7219 12.4178V16.9332C26.7219 17.1054 26.7963 17.2585 26.9184 17.3414L30.1537 19.5545C30.2706 19.6374 30.4194 19.6374 30.5416 19.5545L32.4966 18.247C32.6294 18.1578 32.6294 17.9282 32.4966 17.8389L29.2188 15.5811C29.155 15.5365 29.1178 15.46 29.1178 15.377V13.9612C29.1178 13.8783 29.155 13.8017 29.2188 13.7571L30.2388 13.0492C30.2972 13.0045 30.3769 13.0045 30.4353 13.0492L31.4553 13.7571C31.5138 13.8017 31.5563 13.8783 31.5563 13.9612V15.0709C31.5563 15.2495 31.7209 15.3643 31.8538 15.275L33.8034 13.9165ZM29.6969 14.1398C29.6756 14.1589 29.6597 14.1844 29.6597 14.2163V15.0837C29.6597 15.1156 29.6756 15.1474 29.6969 15.1602L30.3237 15.5939C30.345 15.613 30.3769 15.613 30.3981 15.5939L31.025 15.1602C31.0463 15.1411 31.0622 15.1156 31.0622 15.0837V14.2163C31.0622 14.1844 31.0463 14.1525 31.025 14.1398L30.3981 13.7061C30.3769 13.6869 30.345 13.6869 30.3237 13.7061L29.6969 14.1398ZM16.1925 16.9141V12.4241C16.1925 12.2583 16.1075 12.0989 15.9853 12.016L12.7394 9.77097C12.6278 9.69444 12.4738 9.68168 12.3462 9.77097L9.10031 12.016C8.97813 12.0989 8.89312 12.2519 8.89312 12.4241V16.9141C8.89312 17.0927 8.99406 17.2457 9.10563 17.3223L12.3569 19.5673C12.4844 19.6565 12.6331 19.6502 12.75 19.5673L15.9906 17.3223C16.0863 17.2585 16.1553 17.1501 16.1819 17.0225C16.1872 16.9906 16.1925 16.9524 16.1925 16.9141ZM12.2453 8.94824L12.2028 8.98013H12.2613L12.2453 8.94824ZM16.2934 17.2521L16.2722 17.2075V17.2649L16.2934 17.2521Z" fill="white"/>
<path d="M46.25 19.5L46.225 16.425C46.3083 12.5583 46.35 10.35 46.35 9.8C46.35 9.23333 46.3417 8.81667 46.325 8.55C46.3083 8.28333 46.3083 8.10833 46.325 8.025C46.3417 7.925 46.375 7.8 46.425 7.65C46.5083 7.41667 46.775 7.3 47.225 7.3C47.4583 7.3 47.825 7.56667 48.325 8.1C49.025 8.75 49.825 9.54167 50.725 10.475C51.625 11.4083 52.2083 12 52.475 12.25C52.7417 12.4833 54.2417 14 56.975 16.8C59.725 19.5833 61.2167 21.1 61.45 21.35C61.5333 20.6833 61.575 19.8833 61.575 18.95L61.6 15.8C61.6 14 61.6333 11.2667 61.7 7.6C62.5167 7.48333 62.9917 7.425 63.125 7.425C63.2583 7.425 63.3583 7.46667 63.425 7.55C63.4917 7.61667 63.525 7.81667 63.525 8.15L63.375 15.975C63.375 18.1917 63.3417 20.4 63.275 22.6L63.25 23.625C63.25 24.2917 63.1917 24.7333 63.075 24.95C62.9583 25.15 62.6917 25.25 62.275 25.25C62.0083 25.25 61.75 25.15 61.5 24.95C61.2667 24.7333 61.0917 24.575 60.975 24.475C60.8583 24.3583 60.7167 24.2083 60.55 24.025C60.3833 23.8417 60.2667 23.7167 60.2 23.65L57.65 21.05C53.4333 16.75 50.9333 14.2167 50.15 13.45C49.3833 12.6667 48.9583 12.225 48.875 12.125C48.7917 12.0083 48.7167 11.9167 48.65 11.85C48.4833 11.6833 48.325 11.6 48.175 11.6C48.075 11.6 48.025 11.7583 48.025 12.075L48.075 16.425L48 23.6V24.225C48 24.7917 47.6 25.075 46.8 25.075C46.5333 25.075 46.3667 25.0083 46.3 24.875C46.2333 24.7417 46.2 24.4333 46.2 23.95L46.25 19.5ZM81.5035 19.35C81.5035 21.0667 80.9118 22.4917 79.7285 23.625C78.5618 24.7417 77.1535 25.3 75.5035 25.3C73.8702 25.3 72.5118 24.7833 71.4285 23.75C70.3618 22.7167 69.8285 21.325 69.8285 19.575C69.8285 17.8083 70.3952 16.425 71.5285 15.425C72.6785 14.4083 74.2535 13.9 76.2535 13.9C77.3702 13.9 78.4785 14.25 79.5785 14.95C80.1452 15.3333 80.6035 15.9083 80.9535 16.675C81.3202 17.425 81.5035 18.3167 81.5035 19.35ZM75.8535 23.45C76.9035 23.45 77.7452 23.075 78.3785 22.325C79.0285 21.5583 79.3535 20.6167 79.3535 19.5C79.3535 18.3833 79.0702 17.4583 78.5035 16.725C77.9535 15.9917 77.1368 15.625 76.0535 15.625C74.9868 15.625 74.0868 15.9583 73.3535 16.625C72.6368 17.2917 72.2785 18.2417 72.2785 19.475C72.2785 20.7083 72.6118 21.6833 73.2785 22.4C73.9452 23.1 74.8035 23.45 75.8535 23.45ZM97.8457 8.625L97.8707 18.6V23.675C97.8707 23.825 97.8624 23.925 97.8457 23.975C97.8457 24.025 97.8374 24.1083 97.8207 24.225C97.8207 24.3417 97.8124 24.425 97.7957 24.475C97.729 24.675 97.6707 24.7917 97.6207 24.825C97.5874 24.8583 97.5457 24.8917 97.4957 24.925C97.379 24.9917 97.104 25.025 96.6707 25.025C96.2374 25.025 95.9457 25 95.7957 24.95C95.7624 24.8667 95.7374 24.7167 95.7207 24.5C95.704 24.2833 95.6874 24.1417 95.6707 24.075C95.3207 24.325 94.754 24.5917 93.9707 24.875C93.204 25.1583 92.5124 25.3 91.8957 25.3C90.3457 25.3 89.0874 24.775 88.1207 23.725C87.1707 22.675 86.6957 21.375 86.6957 19.825C86.6957 17.675 87.629 16.0167 89.4957 14.85C90.4124 14.2167 91.579 13.9 92.9957 13.9C93.379 13.9 94.229 14.075 95.5457 14.425L95.5707 13.325V12C95.5707 10.1333 95.579 9.04167 95.5957 8.725C95.629 8.40833 95.6457 8.1 95.6457 7.8C95.6457 7.5 95.654 7.30833 95.6707 7.225C95.6874 7.125 95.729 7.00833 95.7957 6.875C95.9124 6.675 96.179 6.575 96.5957 6.575C97.0124 6.575 97.2874 6.60833 97.4207 6.675C97.5707 6.74167 97.679 6.86667 97.7457 7.05C97.8124 7.3 97.8457 7.60833 97.8457 7.975V8.625ZM89.1707 19.275C89.1707 20.625 89.5207 21.6833 90.2207 22.45C90.9207 23.2 91.8707 23.575 93.0707 23.575C93.6707 23.575 94.1707 23.5167 94.5707 23.4C95.254 23.1833 95.5957 22.8833 95.5957 22.5V17.875C95.5957 16.775 95.5457 16.1667 95.4457 16.05C95.3457 15.8833 95.0374 15.7583 94.5207 15.675C94.0207 15.575 93.5207 15.525 93.0207 15.525C91.8874 15.525 90.9707 15.875 90.2707 16.575C89.5707 17.275 89.204 18.175 89.1707 19.275ZM113.305 18.825C113.305 18.825 111.396 18.8333 107.58 18.85C106.963 18.85 106.605 18.9 106.505 19C106.421 19.1167 106.38 19.3083 106.38 19.575C106.38 20.875 106.746 21.875 107.48 22.575C108.23 23.2583 109.08 23.6 110.03 23.6C110.98 23.6 111.721 23.475 112.255 23.225C112.271 23.225 112.438 23.1167 112.755 22.9C113.071 22.6833 113.288 22.575 113.405 22.575C113.538 22.575 113.638 22.625 113.705 22.725C113.771 22.825 113.805 22.925 113.805 23.025C113.805 23.6583 113.338 24.2 112.405 24.65C111.471 25.0833 110.38 25.3 109.13 25.3C107.896 25.3 106.713 24.8 105.58 23.8C104.463 22.8 103.905 21.45 103.905 19.75C103.905 18.05 104.43 16.65 105.48 15.55C106.546 14.45 107.971 13.9 109.755 13.9C111.055 13.9 112.105 14.2833 112.905 15.05C113.755 15.85 114.18 16.8167 114.18 17.95C114.18 18.5333 113.888 18.825 113.305 18.825ZM106.805 17.6C109.971 17.6 111.805 17.5833 112.305 17.55C112.255 16.8833 111.996 16.3333 111.53 15.9C111.08 15.4667 110.505 15.25 109.805 15.25C109.105 15.25 108.446 15.5 107.83 16C107.23 16.4833 106.888 17.0167 106.805 17.6ZM120.505 13.8C120.505 12.2667 120.513 11.2833 120.53 10.85C120.563 10.4 120.588 9.95 120.605 9.5C120.621 8.36667 120.68 7.75 120.78 7.65C120.88 7.55 121.238 7.5 121.855 7.5C122.471 7.5 122.805 7.525 122.855 7.575C122.988 7.70833 123.055 8.725 123.055 10.625V24.825C123.055 26.9583 122.63 28.6083 121.78 29.775C121.43 30.2583 120.921 30.675 120.255 31.025C119.605 31.375 118.921 31.55 118.205 31.55C116.788 31.55 116.08 31.3 116.08 30.8C116.08 30.3 116.205 29.95 116.455 29.75C117.121 29.8333 117.605 29.875 117.905 29.875C118.588 29.875 119.188 29.65 119.705 29.2C120.221 28.7667 120.48 28.025 120.48 26.975L120.505 13.8ZM137.513 9.225C136.963 9.04167 136.296 8.95 135.513 8.95C134.746 8.95 134.054 9.15 133.438 9.55C132.821 9.93333 132.513 10.4917 132.513 11.225C132.513 11.9417 132.729 12.5667 133.163 13.1C133.596 13.6333 134.121 14.125 134.738 14.575C135.354 15.0083 135.963 15.475 136.563 15.975C137.179 16.4583 137.704 17.0667 138.138 17.8C138.571 18.5333 138.788 19.3583 138.788 20.275C138.788 21.1917 138.404 22.1167 137.638 23.05C136.388 24.55 134.321 25.3 131.438 25.3C131.038 25.3 130.679 25.275 130.363 25.225C130.063 25.1917 129.829 25.1667 129.663 25.15C129.496 25.1333 129.321 25.1083 129.138 25.075C128.738 25.0083 128.538 24.9083 128.538 24.775C128.538 23.8917 128.696 23.35 129.013 23.15C129.696 23.3667 130.396 23.475 131.113 23.475C134.579 23.475 136.313 22.4833 136.313 20.5C136.313 19.4667 135.579 18.4083 134.113 17.325C133.496 16.875 132.879 16.4083 132.263 15.925C131.663 15.4417 131.146 14.8417 130.713 14.125C130.279 13.3917 130.063 12.5917 130.063 11.725C130.063 10.4083 130.629 9.325 131.763 8.475C132.913 7.625 134.254 7.2 135.788 7.2C136.121 7.2 136.563 7.24167 137.113 7.325C137.679 7.39167 137.979 7.48333 138.013 7.6C138.063 7.71667 138.088 7.85 138.088 8C138.088 8.15 138.038 8.375 137.938 8.675C137.838 8.95833 137.696 9.14167 137.513 9.225Z" fill="white"/>
</svg>
