<svg width="180" height="38" viewBox="0 0 180 38" fill="none" xmlns="http://www.w3.org/2000/svg">
<path d="M31.7648 10.8984C48.7789 10.8984 61.862 14.7594 61.862 19C61.862 23.2406 48.7689 27.1016 31.7648 27.1016C14.7508 27.1016 1.66765 23.2406 1.66765 19C1.66765 14.7594 14.7607 10.8984 31.7648 10.8984ZM31.7648 10C14.2247 10 0 14.0267 0 19C0 23.9733 14.2247 28 31.7648 28C49.305 28 63.5296 23.9733 63.5296 19C63.5296 14.0267 49.305 10 31.7648 10ZM21.6596 18.2781C20.8754 20.4439 18.1059 20.2193 14.7012 20.2193L16.0611 16.4439C19.8332 16.4439 22.3942 16.2246 21.6596 18.2781ZM9.66842 24.0428H13.3114L14.1751 21.6471C18.2548 21.6471 20.7861 21.8075 23.1288 20.6257C25.7196 19.3422 26.3946 17.0588 24.5482 15.9144C23.5854 15.3155 22.0368 15.0214 19.9324 15.0214H12.9144L9.66842 24.0428ZM28.1019 12.6203H31.7251L30.8615 15.016C33.9884 15.016 36.8869 14.893 38.2865 15.5882C39.7557 16.3155 39.0509 17.246 37.4626 21.6364H33.7898C35.3185 17.3904 35.6064 17.0374 35.0505 16.7166C34.5145 16.4064 33.2935 16.4706 30.3453 16.4706L28.4791 21.6364H24.856L28.1019 12.6203ZM50.1289 18.2781C49.3347 20.4759 46.4858 20.2193 43.1704 20.2193L44.5303 16.4439C48.3222 16.4439 50.8634 16.2246 50.1289 18.2781ZM38.1376 24.0428H41.7906L42.6542 21.6471C46.9424 21.6471 49.3149 21.7807 51.6079 20.6257C54.1987 19.3422 54.8737 17.0588 53.0274 15.9144C52.0645 15.3155 50.516 15.0214 48.4116 15.0214H41.3935L38.1376 24.0428Z" fill="white"/>
<path d="M93.1447 15.4C93.1447 16.95 92.6614 18.1583 91.6947 19.025C90.7281 19.875 89.2947 20.3 87.3947 20.3H83.6447V28H82.5197V10.45H87.3947C89.3281 10.45 90.7697 10.9 91.7197 11.8C92.6697 12.6833 93.1447 13.8833 93.1447 15.4ZM87.3947 19.3C90.4781 19.3 92.0197 18 92.0197 15.4C92.0197 14.1167 91.6531 13.1417 90.9197 12.475C90.1864 11.7917 89.0114 11.45 87.3947 11.45H83.6447V19.3H87.3947ZM102.317 14.15C103.917 14.15 105.226 14.65 106.242 15.65C107.259 16.6333 107.767 18.1 107.767 20.05V28H106.667V20.125C106.667 18.5083 106.259 17.275 105.442 16.425C104.626 15.5583 103.517 15.125 102.117 15.125C100.651 15.125 99.4755 15.5917 98.5922 16.525C97.7255 17.4583 97.2922 18.8417 97.2922 20.675V28H96.1672V9.5H97.2922V17.3C97.6755 16.2833 98.3172 15.5083 99.2172 14.975C100.117 14.425 101.151 14.15 102.317 14.15ZM112.868 18C113.252 16.9 113.943 16 114.943 15.3C115.96 14.6 117.185 14.25 118.618 14.25C119.885 14.25 121.01 14.5333 121.993 15.1C122.993 15.6667 123.768 16.475 124.318 17.525C124.885 18.575 125.168 19.8 125.168 21.2C125.168 22.6 124.885 23.8333 124.318 24.9C123.768 25.95 122.993 26.7667 121.993 27.35C121.01 27.9167 119.885 28.2 118.618 28.2C117.202 28.2 115.985 27.85 114.968 27.15C113.968 26.4333 113.268 25.5333 112.868 24.45V34.4H111.743V14.425H112.868V18ZM124.018 21.2C124.018 19.9667 123.785 18.9 123.318 18C122.852 17.1 122.193 16.4167 121.343 15.95C120.51 15.4667 119.543 15.225 118.443 15.225C117.393 15.225 116.443 15.475 115.593 15.975C114.743 16.4583 114.077 17.1583 113.593 18.075C113.11 18.975 112.868 20.0167 112.868 21.2C112.868 22.4 113.11 23.4583 113.593 24.375C114.077 25.275 114.743 25.975 115.593 26.475C116.443 26.9583 117.393 27.2 118.443 27.2C119.543 27.2 120.51 26.9583 121.343 26.475C122.193 25.9917 122.852 25.3 123.318 24.4C123.785 23.5 124.018 22.4333 124.018 21.2Z" fill="white"/>
</svg>
