<svg width="85" height="38" viewBox="0 0 85 38" fill="none" xmlns="http://www.w3.org/2000/svg">
<path d="M15 10.8984C23.0344 10.8984 29.2125 14.7594 29.2125 19C29.2125 23.2406 23.0297 27.1016 15 27.1016C6.96563 27.1016 0.7875 23.2406 0.7875 19C0.7875 14.7594 6.97031 10.8984 15 10.8984ZM15 10C6.71719 10 0 14.0267 0 19C0 23.9733 6.71719 28 15 28C23.2828 28 30 23.9733 30 19C30 14.0267 23.2828 10 15 10ZM10.2281 18.2781C9.85781 20.4439 8.55 20.2193 6.94219 20.2193L7.58438 16.4439C9.36563 16.4439 10.575 16.2246 10.2281 18.2781ZM4.56563 24.0428H6.28594L6.69375 21.6471C8.62031 21.6471 9.81562 21.8075 10.9219 20.6257C12.1453 19.3422 12.4641 17.0588 11.5922 15.9144C11.1375 15.3155 10.4063 15.0214 9.4125 15.0214H6.09844L4.56563 24.0428ZM13.2703 12.6203H14.9813L14.5734 15.016C16.05 15.016 17.4188 14.893 18.0797 15.5882C18.7734 16.3155 18.4406 17.246 17.6906 21.6364H15.9562C16.6781 17.3904 16.8141 17.0374 16.5516 16.7166C16.2984 16.4064 15.7219 16.4706 14.3297 16.4706L13.4484 21.6364H11.7375L13.2703 12.6203ZM23.6719 18.2781C23.2969 20.4759 21.9516 20.2193 20.3859 20.2193L21.0281 16.4439C22.8188 16.4439 24.0188 16.2246 23.6719 18.2781ZM18.0094 24.0428H19.7344L20.1422 21.6471C22.1672 21.6471 23.2875 21.7807 24.3703 20.6257C25.5938 19.3422 25.9125 17.0588 25.0406 15.9144C24.5859 15.3155 23.8547 15.0214 22.8609 15.0214H19.5469L18.0094 24.0428Z" fill="white"/>
<path d="M50.675 15.4C50.675 16.95 50.1917 18.1583 49.225 19.025C48.2583 19.875 46.825 20.3 44.925 20.3H41.175V28H40.05V10.45H44.925C46.8583 10.45 48.3 10.9 49.25 11.8C50.2 12.6833 50.675 13.8833 50.675 15.4ZM44.925 19.3C48.0083 19.3 49.55 18 49.55 15.4C49.55 14.1167 49.1833 13.1417 48.45 12.475C47.7167 11.7917 46.5417 11.45 44.925 11.45H41.175V19.3H44.925ZM59.8475 14.15C61.4475 14.15 62.7558 14.65 63.7725 15.65C64.7891 16.6333 65.2975 18.1 65.2975 20.05V28H64.1975V20.125C64.1975 18.5083 63.7891 17.275 62.9725 16.425C62.1558 15.5583 61.0475 15.125 59.6475 15.125C58.1808 15.125 57.0058 15.5917 56.1225 16.525C55.2558 17.4583 54.8225 18.8417 54.8225 20.675V28H53.6975V9.5H54.8225V17.3C55.2058 16.2833 55.8475 15.5083 56.7475 14.975C57.6475 14.425 58.6808 14.15 59.8475 14.15ZM70.3986 18C70.782 16.9 71.4736 16 72.4736 15.3C73.4903 14.6 74.7153 14.25 76.1486 14.25C77.4153 14.25 78.5403 14.5333 79.5236 15.1C80.5236 15.6667 81.2986 16.475 81.8486 17.525C82.4153 18.575 82.6986 19.8 82.6986 21.2C82.6986 22.6 82.4153 23.8333 81.8486 24.9C81.2986 25.95 80.5236 26.7667 79.5236 27.35C78.5403 27.9167 77.4153 28.2 76.1486 28.2C74.732 28.2 73.5153 27.85 72.4986 27.15C71.4986 26.4333 70.7986 25.5333 70.3986 24.45V34.4H69.2736V14.425H70.3986V18ZM81.5486 21.2C81.5486 19.9667 81.3153 18.9 80.8486 18C80.382 17.1 79.7236 16.4167 78.8736 15.95C78.0403 15.4667 77.0736 15.225 75.9736 15.225C74.9236 15.225 73.9736 15.475 73.1236 15.975C72.2736 16.4583 71.607 17.1583 71.1236 18.075C70.6403 18.975 70.3986 20.0167 70.3986 21.2C70.3986 22.4 70.6403 23.4583 71.1236 24.375C71.607 25.275 72.2736 25.975 73.1236 26.475C73.9736 26.9583 74.9236 27.2 75.9736 27.2C77.0736 27.2 78.0403 26.9583 78.8736 26.475C79.7236 25.9917 80.382 25.3 80.8486 24.4C81.3153 23.5 81.5486 22.4333 81.5486 21.2Z" fill="white"/>
</svg>
