<svg width="82" height="37" viewBox="0 0 82 37" fill="none" xmlns="http://www.w3.org/2000/svg">
<path d="M12.5 11.6563C19.1953 11.6563 24.3438 14.4766 24.3438 17.5742C24.3438 20.6719 19.1914 23.4922 12.5 23.4922C5.80469 23.4922 0.65625 20.6719 0.65625 17.5742C0.65625 14.4766 5.80859 11.6563 12.5 11.6563ZM12.5 11C5.59766 11 0 13.9414 0 17.5742C0 21.207 5.59766 24.1484 12.5 24.1484C19.4023 24.1484 25 21.207 25 17.5742C25 13.9414 19.4023 11 12.5 11ZM8.52344 17.0469C8.21484 18.6289 7.125 18.4648 5.78516 18.4648L6.32031 15.707C7.80469 15.707 8.8125 15.5469 8.52344 17.0469ZM3.80469 21.2578H5.23828L5.57812 19.5078C7.18359 19.5078 8.17969 19.625 9.10156 18.7617C10.1211 17.8242 10.3867 16.1562 9.66016 15.3203C9.28125 14.8828 8.67188 14.668 7.84375 14.668H5.08203L3.80469 21.2578ZM11.0586 12.9141H12.4844L12.1445 14.6641C13.375 14.6641 14.5156 14.5742 15.0664 15.082C15.6445 15.6133 15.3672 16.293 14.7422 19.5H13.2969C13.8984 16.3984 14.0117 16.1406 13.793 15.9062C13.582 15.6797 13.1016 15.7266 11.9414 15.7266L11.207 19.5H9.78125L11.0586 12.9141ZM19.7266 17.0469C19.4141 18.6523 18.293 18.4648 16.9883 18.4648L17.5234 15.707C19.0156 15.707 20.0156 15.5469 19.7266 17.0469ZM15.0078 21.2578H16.4453L16.7852 19.5078C18.4727 19.5078 19.4062 19.6055 20.3086 18.7617C21.3281 17.8242 21.5938 16.1562 20.8672 15.3203C20.4883 14.8828 19.8789 14.668 19.0508 14.668H16.2891L15.0078 21.2578Z" fill="white"/>
<path d="M52.55 13.525C52.55 14.4417 52.3167 15.3167 51.85 16.15C51.4 16.9833 50.7833 17.7167 50 18.35C49.2333 18.9667 48.325 19.4583 47.275 19.825C46.2417 20.1917 45.1417 20.375 43.975 20.375C43.5583 20.375 43.225 20.325 42.975 20.225C42.7417 20.1083 42.475 19.8917 42.175 19.575C41.3417 21.3917 40.6583 23.0667 40.125 24.6C39.6083 26.1167 39.2 27.5917 38.9 29.025C38.2667 28.875 37.75 28.6083 37.35 28.225C36.95 27.8583 36.5833 27.3917 36.25 26.825C36.4167 26.5083 36.6167 26.0917 36.85 25.575C37.0833 25.0583 37.3667 24.425 37.7 23.675C38.0333 22.9083 38.4167 22 38.85 20.95C39.3 19.8833 39.825 18.6417 40.425 17.225C40.6917 16.575 40.925 16.0083 41.125 15.525C41.325 15.0417 41.5 14.5917 41.65 14.175C41.8 13.7417 41.9333 13.3167 42.05 12.9C42.1833 12.4833 42.3167 12.025 42.45 11.525C41.6667 11.775 40.9417 12.0667 40.275 12.4C39.625 12.7333 39.0833 13.0833 38.65 13.45C38.5 13.35 38.3417 13.2 38.175 13C38.025 12.8 37.8833 12.5833 37.75 12.35C37.6167 12.1 37.5 11.85 37.4 11.6C37.3 11.35 37.2417 11.125 37.225 10.925C37.7083 10.5917 38.3083 10.2833 39.025 10C39.7417 9.71667 40.5083 9.475 41.325 9.275C42.1417 9.05833 42.9833 8.89167 43.85 8.775C44.7333 8.65833 45.575 8.6 46.375 8.6C47.325 8.6 48.1833 8.725 48.95 8.975C49.7167 9.20833 50.3667 9.54167 50.9 9.975C51.4333 10.4083 51.8417 10.925 52.125 11.525C52.4083 12.125 52.55 12.7917 52.55 13.525ZM48.1 10.525C47.4667 10.525 46.8167 10.575 46.15 10.675L46.45 11.125C46.2833 11.3417 46.075 11.6667 45.825 12.1C45.575 12.5333 45.3 13.0583 45 13.675C44.7 14.275 44.3667 14.95 44 15.7C43.65 16.45 43.275 17.2417 42.875 18.075C44.175 18.075 45.3583 17.9583 46.425 17.725C47.4917 17.475 48.4 17.1417 49.15 16.725C49.9167 16.2917 50.5083 15.7917 50.925 15.225C51.3583 14.6583 51.575 14.05 51.575 13.4C51.575 12.5333 51.2833 11.8417 50.7 11.325C50.1167 10.7917 49.25 10.525 48.1 10.525ZM54.44 26.575C54.44 25.9917 54.4984 25.3083 54.615 24.525C54.7317 23.725 54.8984 22.875 55.115 21.975C55.3484 21.075 55.615 20.1333 55.915 19.15C56.2317 18.1667 56.5817 17.1833 56.965 16.2C57.2984 15.3167 57.6817 14.425 58.115 13.525C58.565 12.625 59.0484 11.7417 59.565 10.875C60.0817 10.0083 60.615 9.18333 61.165 8.4C61.7317 7.61667 62.2984 6.9 62.865 6.25C63.1317 6.25 63.415 6.28333 63.715 6.35C64.0317 6.41667 64.3317 6.50833 64.615 6.625C64.915 6.725 65.1817 6.85 65.415 7C65.665 7.15 65.865 7.3 66.015 7.45C64.765 8.73333 63.64 10.0333 62.64 11.35C61.64 12.65 60.8484 13.875 60.265 15.025C59.9484 15.6583 59.6567 16.25 59.39 16.8C59.14 17.35 58.9067 17.9 58.69 18.45C58.4734 18.9833 58.2734 19.525 58.09 20.075C57.9234 20.6083 57.765 21.175 57.615 21.775C60.815 17.6917 63.19 15.65 64.74 15.65C65.1734 15.65 65.64 15.7917 66.14 16.075C66.64 16.3583 67.0817 16.7417 67.465 17.225C66.9484 17.7917 66.415 18.475 65.865 19.275C65.315 20.075 64.8067 20.8833 64.34 21.7C63.89 22.5 63.515 23.25 63.215 23.95C62.9317 24.6333 62.79 25.1417 62.79 25.475C62.79 25.6417 62.815 25.7583 62.865 25.825C62.915 25.875 63.0234 25.9 63.19 25.9C63.44 25.9 63.64 25.8667 63.79 25.8C63.94 25.7333 64.0317 25.7 64.065 25.7C64.1484 25.8333 64.1984 25.925 64.215 25.975C64.2317 26.025 64.24 26.0667 64.24 26.1C64.24 26.1667 64.14 26.2667 63.94 26.4C63.74 26.5167 63.4984 26.6417 63.215 26.775C62.9484 26.8917 62.6817 27 62.415 27.1C62.1484 27.2 61.9484 27.25 61.815 27.25C61.6484 27.25 61.4817 27.2 61.315 27.1C61.1484 27.0167 60.9984 26.9 60.865 26.75C60.7484 26.6 60.6484 26.4333 60.565 26.25C60.4984 26.0667 60.465 25.875 60.465 25.675C60.465 25.425 60.5317 25.0583 60.665 24.575C60.815 24.075 61.015 23.5 61.265 22.85C61.515 22.1833 61.815 21.4583 62.165 20.675C62.515 19.8917 62.89 19.0917 63.29 18.275C63.29 18.2083 63.2567 18.175 63.19 18.175C63.14 18.175 63.0067 18.2417 62.79 18.375C62.59 18.5083 62.3984 18.6417 62.215 18.775C61.615 19.225 61.0067 19.7833 60.39 20.45C59.79 21.1 59.1984 21.8167 58.615 22.6C58.0484 23.3833 57.5067 24.2167 56.99 25.1C56.49 25.9667 56.0567 26.8417 55.69 27.725C55.64 27.8417 55.565 27.95 55.465 28.05C55.365 28.15 55.2817 28.2 55.215 28.2C55.165 28.2 55.09 28.1417 54.99 28.025C54.9067 27.9083 54.8234 27.7583 54.74 27.575C54.6734 27.4083 54.6067 27.2333 54.54 27.05C54.4734 26.8667 54.44 26.7083 54.44 26.575ZM68.5551 35.275C68.3217 35.2083 68.1884 34.9583 68.1551 34.525C68.0884 34.3083 68.0384 34.05 68.0051 33.75C67.9884 33.45 67.9801 33.1083 67.9801 32.725C67.9801 32.375 68.0384 31.8917 68.1551 31.275C68.2717 30.675 68.4301 29.9917 68.6301 29.225C68.8467 28.4583 69.1051 27.6333 69.4051 26.75C69.7051 25.85 70.0384 24.9417 70.4051 24.025C70.8551 22.875 71.2467 21.8833 71.5801 21.05C71.9134 20.2 72.1884 19.4667 72.4051 18.85C72.6384 18.2333 72.8217 17.725 72.9551 17.325C73.1051 16.925 73.2217 16.5833 73.3051 16.3C73.3717 16.1 73.4717 15.8583 73.6051 15.575C73.7384 15.2917 73.8884 15.0083 74.0551 14.725C74.2384 14.425 74.4217 14.15 74.6051 13.9C74.7884 13.6333 74.9551 13.4333 75.1051 13.3C75.6884 13.3833 76.2384 13.5333 76.7551 13.75C77.2717 13.9667 77.5884 14.175 77.7051 14.375C77.4717 14.5917 77.2051 14.9333 76.9051 15.4C76.6051 15.85 76.3134 16.35 76.0301 16.9C75.7467 17.4333 75.4884 17.9833 75.2551 18.55C75.0217 19.1167 74.8467 19.6167 74.7301 20.05C74.8967 19.7667 75.1134 19.4583 75.3801 19.125C75.6467 18.7917 76.0551 18.3333 76.6051 17.75C77.2217 17.1167 77.7967 16.6333 78.3301 16.3C78.8801 15.95 79.3551 15.775 79.7551 15.775C80.3884 15.775 80.9051 15.95 81.3051 16.3C81.7217 16.65 81.9301 17.1 81.9301 17.65C81.9301 18.85 81.7301 20.0417 81.3301 21.225C80.9301 22.3917 80.3551 23.45 79.6051 24.4C79.3217 24.7667 78.9884 25.1167 78.6051 25.45C78.2217 25.7833 77.8217 26.0833 77.4051 26.35C76.9884 26.6 76.5801 26.8 76.1801 26.95C75.7801 27.1 75.4217 27.175 75.1051 27.175C74.8051 27.175 74.5384 27.1167 74.3051 27C74.0884 26.8667 73.9384 26.7083 73.8551 26.525C74.5051 26.1417 75.1384 25.6083 75.7551 24.925C76.3717 24.2417 76.9384 23.4583 77.4551 22.575C77.9884 21.675 78.4467 20.7083 78.8301 19.675C79.2301 18.6417 79.5301 17.5917 79.7301 16.525C79.0967 16.8583 78.5217 17.225 78.0051 17.625C77.5051 18.0083 77.0051 18.5167 76.5051 19.15C75.9051 19.8833 75.4301 20.475 75.0801 20.925C74.7301 21.375 74.4384 21.7583 74.2051 22.075C73.9884 22.3917 73.8051 22.6917 73.6551 22.975C73.5217 23.2417 73.3717 23.575 73.2051 23.975C72.9717 24.5083 72.6967 25.2167 72.3801 26.1C72.0801 26.9667 71.7634 27.9417 71.4301 29.025C71.1134 30.1083 70.7884 31.2583 70.4551 32.475C70.1384 33.7083 69.8301 34.9333 69.5301 36.15C69.3467 36.1167 69.1884 35.9833 69.0551 35.75C68.9217 35.6 68.8217 35.4917 68.7551 35.425C68.7051 35.3583 68.6384 35.3083 68.5551 35.275Z" fill="white"/>
</svg>
