<svg width="74" height="27" viewBox="0 0 74 27" fill="none" xmlns="http://www.w3.org/2000/svg">
<path d="M12.5 6.65625C19.1953 6.65625 24.3438 9.47656 24.3438 12.5742C24.3438 15.6719 19.1914 18.4922 12.5 18.4922C5.80469 18.4922 0.65625 15.6719 0.65625 12.5742C0.65625 9.47656 5.80859 6.65625 12.5 6.65625ZM12.5 6C5.59766 6 0 8.94141 0 12.5742C0 16.207 5.59766 19.1484 12.5 19.1484C19.4023 19.1484 25 16.207 25 12.5742C25 8.94141 19.4023 6 12.5 6ZM8.52344 12.0469C8.21484 13.6289 7.125 13.4648 5.78516 13.4648L6.32031 10.707C7.80469 10.707 8.8125 10.5469 8.52344 12.0469ZM3.80469 16.2578H5.23828L5.57812 14.5078C7.18359 14.5078 8.17969 14.625 9.10156 13.7617C10.1211 12.8242 10.3867 11.1562 9.66016 10.3203C9.28125 9.88281 8.67188 9.66797 7.84375 9.66797H5.08203L3.80469 16.2578ZM11.0586 7.91406H12.4844L12.1445 9.66406C13.375 9.66406 14.5156 9.57422 15.0664 10.082C15.6445 10.6133 15.3672 11.293 14.7422 14.5H13.2969C13.8984 11.3984 14.0117 11.1406 13.793 10.9062C13.582 10.6797 13.1016 10.7266 11.9414 10.7266L11.207 14.5H9.78125L11.0586 7.91406ZM19.7266 12.0469C19.4141 13.6523 18.293 13.4648 16.9883 13.4648L17.5234 10.707C19.0156 10.707 20.0156 10.5469 19.7266 12.0469ZM15.0078 16.2578H16.4453L16.7852 14.5078C18.4727 14.5078 19.4062 14.6055 20.3086 13.7617C21.3281 12.8242 21.5938 11.1562 20.8672 10.3203C20.4883 9.88281 19.8789 9.66797 19.0508 9.66797H16.2891L15.0078 16.2578Z" fill="white"/>
<path d="M41.5815 4.86523C41.5815 5.6709 41.4513 6.48063 41.1909 7.29443C40.9386 8.10824 40.5806 8.86914 40.1167 9.57715C39.661 10.2852 39.1117 10.9159 38.4688 11.4692C37.8258 12.0226 37.1219 12.4417 36.3569 12.7266C36.4058 13.402 36.4627 14.0734 36.5278 14.7407C36.5929 15.408 36.6825 16.0794 36.7964 16.7549C36.8208 16.877 36.8452 17.0031 36.8696 17.1333C36.9022 17.2635 36.9185 17.3978 36.9185 17.5361C36.9185 17.7477 36.8656 17.8901 36.7598 17.9634C36.654 18.0366 36.5034 18.0732 36.3081 18.0732C36.1698 18.0732 36.0029 18.057 35.8076 18.0244C35.6123 17.9919 35.4455 17.943 35.3071 17.8779C35.1444 17.7884 35.0345 17.6989 34.9775 17.6094C34.9287 17.5117 34.8921 17.3815 34.8677 17.2188C34.7293 16.527 34.6439 15.8353 34.6113 15.1436C34.5869 14.4518 34.5503 13.7601 34.5015 13.0684C34.3387 13.0521 34.2044 13.0114 34.0986 12.9463C33.9928 12.873 33.9399 12.751 33.9399 12.5801C33.9399 12.4173 33.9847 12.2464 34.0742 12.0674C34.1719 11.8883 34.2817 11.75 34.4038 11.6523C34.3306 10.1387 34.298 8.63721 34.3062 7.14795C34.3224 5.65869 34.3224 4.15723 34.3062 2.64355C34.2655 2.65983 34.2288 2.67204 34.1963 2.68018C34.1637 2.68831 34.1271 2.69238 34.0864 2.69238C33.9969 2.69238 33.9237 2.67204 33.8667 2.63135C33.8097 2.58252 33.7609 2.52555 33.7202 2.46045C33.6877 2.39535 33.6632 2.32617 33.647 2.25293C33.6307 2.17155 33.6226 2.09831 33.6226 2.0332C33.6226 1.78906 33.6836 1.6141 33.8057 1.5083C33.9277 1.39437 34.0946 1.29264 34.3062 1.20312C34.3062 1.11361 34.3062 1.01188 34.3062 0.897949C34.3143 0.775879 34.3306 0.666016 34.355 0.568359C34.3875 0.462565 34.4364 0.377116 34.5015 0.312012C34.5666 0.23877 34.6642 0.202148 34.7944 0.202148C35.006 0.202148 35.2095 0.242839 35.4048 0.324219C35.6001 0.405599 35.7466 0.543945 35.8442 0.739258C36.1291 0.69043 36.4058 0.645671 36.6743 0.60498C36.9429 0.56429 37.2196 0.543945 37.5044 0.543945C38.1473 0.543945 38.721 0.653809 39.2256 0.873535C39.7301 1.08512 40.1574 1.38623 40.5073 1.77686C40.8573 2.15934 41.1217 2.61507 41.3008 3.14404C41.488 3.67301 41.5815 4.24674 41.5815 4.86523ZM39.7505 4.64551C39.7505 4.27116 39.7017 3.92122 39.604 3.5957C39.5063 3.26204 39.3599 2.97721 39.1646 2.74121C38.9692 2.49707 38.721 2.30583 38.4199 2.16748C38.1188 2.02913 37.7648 1.95996 37.3579 1.95996C37.1382 1.95996 36.9144 1.97624 36.6865 2.00879C36.4668 2.04134 36.2511 2.09017 36.0396 2.15527C36.0396 3.64453 36.0477 5.12158 36.064 6.58643C36.0884 8.05127 36.1453 9.52018 36.2349 10.9932C36.7557 10.7246 37.2318 10.3503 37.6631 9.87012C38.0944 9.38997 38.4647 8.861 38.7739 8.2832C39.0832 7.69727 39.3232 7.09098 39.4941 6.46436C39.665 5.82959 39.7505 5.22331 39.7505 4.64551ZM51.0269 17.3408C51.0269 17.5036 50.974 17.6216 50.8682 17.6948C50.7624 17.7681 50.6322 17.8047 50.4775 17.8047C50.3799 17.8047 50.2782 17.7965 50.1724 17.7803C50.0666 17.7559 49.9648 17.7314 49.8672 17.707C49.6963 17.6582 49.562 17.5972 49.4644 17.5239C49.3748 17.4507 49.3057 17.3693 49.2568 17.2798C49.208 17.1821 49.1755 17.0763 49.1592 16.9624C49.151 16.8485 49.1429 16.7223 49.1348 16.584C49.1348 16.5433 49.1307 16.5067 49.1226 16.4741C49.1226 16.4416 49.1226 16.409 49.1226 16.3765C49.0981 15.9126 49.0737 15.4365 49.0493 14.9482C49.033 14.46 49.0249 13.9839 49.0249 13.52C49.0249 13.284 49.0249 13.048 49.0249 12.812C49.033 12.576 49.0412 12.34 49.0493 12.104C49.0575 11.868 49.0615 11.6361 49.0615 11.4082C49.0697 11.1722 49.0737 10.9362 49.0737 10.7002C49.0737 10.6514 49.0697 10.6066 49.0615 10.5659C49.0615 10.5171 49.0575 10.4683 49.0493 10.4194C48.8377 10.7287 48.6506 11.0745 48.4878 11.457C48.3332 11.8314 48.1948 12.222 48.0728 12.6289C47.9507 13.0277 47.8449 13.4305 47.7554 13.8374C47.674 14.2362 47.6048 14.6187 47.5479 14.9849L47.5112 15.2412C47.4705 15.526 47.4299 15.819 47.3892 16.1201C47.3485 16.4131 47.3281 16.7061 47.3281 16.999C47.3281 17.1211 47.3485 17.2554 47.3892 17.4019C47.4054 17.467 47.4176 17.5321 47.4258 17.5972C47.4421 17.6541 47.4502 17.7274 47.4502 17.8169C47.4502 18.0122 47.4014 18.1424 47.3037 18.2075C47.2061 18.2808 47.0758 18.3174 46.9131 18.3174C46.8154 18.3174 46.7056 18.3092 46.5835 18.293C46.4696 18.2767 46.3556 18.2482 46.2417 18.2075C46.1359 18.175 46.0342 18.1302 45.9365 18.0732C45.8389 18.0163 45.7616 17.943 45.7046 17.8535C45.6558 17.7477 45.6069 17.467 45.5581 17.0112C45.5174 16.5555 45.4767 15.9899 45.436 15.3145C45.4035 14.639 45.3709 13.8822 45.3384 13.0439C45.3058 12.1976 45.2733 11.3309 45.2407 10.4438C45.2163 9.5568 45.1919 8.6779 45.1675 7.80713C45.1512 6.93636 45.1349 6.13477 45.1187 5.40234C45.1105 4.66992 45.1024 4.03516 45.0942 3.49805C45.0861 2.9528 45.082 2.57031 45.082 2.35059C45.082 2.18783 45.1024 2.04134 45.1431 1.91113C45.1919 1.77279 45.3221 1.70361 45.5337 1.70361C45.7534 1.70361 45.9609 1.75651 46.1562 1.8623C46.3516 1.95996 46.494 2.11458 46.5835 2.32617C46.5998 2.35872 46.616 2.493 46.6323 2.729C46.6486 2.95687 46.6649 3.25391 46.6812 3.62012C46.6974 3.97819 46.7137 4.39323 46.73 4.86523C46.7463 5.3291 46.7625 5.81331 46.7788 6.31787C46.7951 6.81429 46.8114 7.31478 46.8276 7.81934C46.8439 8.32389 46.8602 8.7959 46.8765 9.23535L46.9375 11.042C47.0352 10.7897 47.1572 10.5252 47.3037 10.2485C47.4502 9.97184 47.617 9.71956 47.8042 9.4917C47.9995 9.26383 48.2152 9.07666 48.4512 8.93018C48.6953 8.78369 48.9639 8.71045 49.2568 8.71045C49.6149 8.71045 49.8957 8.80404 50.0991 8.99121C50.3026 9.17839 50.4531 9.41032 50.5508 9.68701C50.6566 9.9637 50.7217 10.2607 50.7461 10.5781C50.7705 10.8955 50.7827 11.1844 50.7827 11.4448C50.7827 11.6076 50.7786 11.7663 50.7705 11.9209C50.7705 12.0755 50.7664 12.2301 50.7583 12.3848C50.7502 12.5475 50.742 12.7103 50.7339 12.873C50.7339 13.0277 50.7339 13.1864 50.7339 13.3491C50.7339 13.9106 50.7461 14.4884 50.7705 15.0825C50.7949 15.6685 50.856 16.2463 50.9536 16.8159L50.978 16.9868C50.9943 17.0356 51.0065 17.0926 51.0146 17.1577C51.0228 17.2228 51.0269 17.2839 51.0269 17.3408ZM56.7612 14.8262C56.7612 15.2168 56.7572 15.5749 56.749 15.9004C56.749 16.2259 56.7572 16.584 56.7734 16.9746L56.9932 16.8159L57.1274 16.7305C57.5262 16.4131 57.8721 16.0265 58.165 15.5708C58.4661 15.1069 58.7144 14.6146 58.9097 14.0938C59.105 13.5729 59.2474 13.0399 59.3369 12.4946C59.4346 11.9412 59.4834 11.4163 59.4834 10.9199C59.4834 10.8223 59.4793 10.688 59.4712 10.5171C59.4712 10.3381 59.4549 10.1631 59.4224 9.99219C59.3898 9.82129 59.341 9.6748 59.2759 9.55273C59.2108 9.42253 59.1172 9.35742 58.9951 9.35742C58.7998 9.35742 58.6004 9.47542 58.397 9.71143C58.1935 9.94743 58.0023 10.2282 57.8232 10.5537C57.6523 10.8792 57.4977 11.2088 57.3594 11.5425C57.221 11.868 57.1193 12.1243 57.0542 12.3115C57.0542 12.3197 57.0501 12.3237 57.042 12.3237C57.042 12.3237 57.042 12.3278 57.042 12.3359V12.3481C56.9932 12.4621 56.9403 12.5841 56.8833 12.7144C56.8345 12.8446 56.8019 12.9666 56.7856 13.0806C56.7694 13.1945 56.7572 13.3247 56.749 13.4712C56.7409 13.6095 56.7368 13.756 56.7368 13.9106C56.7368 13.992 56.7368 14.0734 56.7368 14.1548C56.745 14.228 56.749 14.2972 56.749 14.3623C56.749 14.4518 56.749 14.5373 56.749 14.6187C56.7572 14.6919 56.7612 14.7611 56.7612 14.8262ZM57.4326 25.9834C57.4326 26.1624 57.3838 26.2845 57.2861 26.3496C57.1885 26.4147 57.0583 26.4473 56.8955 26.4473C56.7002 26.4473 56.4845 26.4147 56.2485 26.3496C56.0125 26.2926 55.8254 26.1828 55.687 26.02C55.6463 25.9631 55.6056 25.7962 55.5649 25.5195C55.5324 25.2428 55.4998 24.9173 55.4673 24.543C55.4347 24.1768 55.4062 23.7943 55.3818 23.3955C55.3574 23.0049 55.333 22.659 55.3086 22.3579L55.2598 21.7109C55.1621 19.9694 55.1133 18.2279 55.1133 16.4863C55.1133 15.4691 55.1296 14.4722 55.1621 13.4956C55.2028 12.5109 55.2435 11.514 55.2842 10.5049L55.333 9.22314C55.333 9.09294 55.333 8.9668 55.333 8.84473C55.3411 8.71452 55.3574 8.58838 55.3818 8.46631C55.4225 8.36051 55.4714 8.27913 55.5283 8.22217C55.5934 8.15706 55.6951 8.12451 55.8335 8.12451C56.1834 8.12451 56.4398 8.23031 56.6025 8.44189C56.7653 8.64535 56.8589 8.89762 56.8833 9.19873C57.1437 8.84066 57.453 8.55583 57.811 8.34424C58.1772 8.13265 58.5964 8.02686 59.0684 8.02686C59.4671 8.02686 59.8008 8.11637 60.0693 8.29541C60.346 8.47445 60.5658 8.70638 60.7285 8.99121C60.8913 9.2679 61.0052 9.58122 61.0703 9.93115C61.1436 10.2729 61.1802 10.6107 61.1802 10.9443C61.1802 11.5872 61.1232 12.2301 61.0093 12.873C60.8953 13.5078 60.7163 14.1263 60.4722 14.7285C60.2362 15.3226 59.9351 15.8882 59.5688 16.4253C59.2026 16.9543 58.7713 17.4263 58.2749 17.8413C58.2098 17.8983 58.1325 17.9593 58.043 18.0244C57.9535 18.0895 57.8599 18.1506 57.7622 18.2075C57.6646 18.2645 57.5628 18.3133 57.457 18.354C57.3594 18.3947 57.2699 18.415 57.1885 18.415C57.099 18.415 57.0216 18.3947 56.9565 18.354C56.8914 18.3133 56.8345 18.2645 56.7856 18.2075C56.8019 18.769 56.8223 19.3509 56.8467 19.9531C56.8792 20.5553 56.9159 21.1576 56.9565 21.7598C56.9972 22.3701 57.0461 22.9723 57.103 23.5664C57.1681 24.1605 57.2454 24.7342 57.335 25.2876C57.3594 25.3934 57.3797 25.5033 57.396 25.6172C57.4204 25.7393 57.4326 25.8613 57.4326 25.9834Z" fill="white"/>
</svg>
