<svg width="133" height="32" viewBox="0 0 133 32" fill="none" xmlns="http://www.w3.org/2000/svg">
<path d="M28.5879 10.37C28.2187 10.2414 27.8496 10.12 27.4805 10.0057C27.542 9.74144 27.5967 9.47717 27.6514 9.2129C28.4922 4.95598 27.9385 1.53474 26.0723 0.406228C24.2744 -0.672286 21.3418 0.449083 18.375 3.14894C18.0811 3.41321 17.7939 3.69177 17.5205 3.97032C17.3359 3.78462 17.1445 3.59891 16.9531 3.42035C13.8428 0.534792 10.7256 -0.679428 8.85938 0.456225C7.06836 1.54188 6.53516 4.76314 7.28711 8.7915C7.3623 9.19147 7.44434 9.58431 7.54004 9.98429C7.10254 10.1129 6.67187 10.2557 6.26855 10.4057C2.61816 11.7271 0 13.8127 0 15.9697C0 18.1981 2.78906 20.4337 6.58301 21.7908C6.89062 21.8979 7.19824 22.0051 7.51269 22.0979C7.41016 22.5265 7.32129 22.9479 7.23926 23.3836C6.52148 27.3476 7.08203 30.4903 8.87305 31.5688C10.7187 32.6831 13.8223 31.5403 16.8437 28.7761C17.083 28.5547 17.3223 28.3262 17.5615 28.0833C17.8623 28.3904 18.1768 28.6833 18.4912 28.969C21.417 31.5974 24.3086 32.6616 26.0928 31.5831C27.9385 30.4689 28.54 27.0905 27.7607 22.9765C27.6992 22.6622 27.6309 22.3408 27.5557 22.0122C27.7744 21.9479 27.9863 21.8765 28.1982 21.8051C32.1426 20.4409 35 18.2338 35 15.9697C35 13.8055 32.3066 11.7056 28.5879 10.37ZM19.3389 4.30602C21.8818 1.99186 24.2539 1.08476 25.334 1.73473C26.4893 2.42755 26.9336 5.2274 26.209 8.90577C26.1611 9.14862 26.1133 9.38432 26.0518 9.62002C24.5342 9.2629 22.9961 9.00577 21.4512 8.86292C20.5625 7.53442 19.5918 6.26306 18.5391 5.07026C18.8057 4.80599 19.0654 4.55601 19.3389 4.30602ZM11.4297 19.6766C11.7783 20.298 12.1338 20.9194 12.5098 21.5265C11.4434 21.4051 10.3838 21.2265 9.33789 20.9908C9.63867 19.9623 10.0146 18.8981 10.4521 17.8124C10.7666 18.441 11.0879 19.0624 11.4297 19.6766ZM9.3584 11.0842C10.3428 10.8557 11.3887 10.67 12.4756 10.5271C12.1133 11.1199 11.7578 11.7271 11.4229 12.3413C11.0879 12.9484 10.7598 13.5698 10.4521 14.1983C10.0215 13.1341 9.65918 12.0913 9.3584 11.0842ZM11.2314 16.0054C11.6826 15.0197 12.1748 14.0555 12.6943 13.1055C13.2139 12.1556 13.7744 11.2342 14.3623 10.3271C15.3877 10.2486 16.4336 10.2057 17.5 10.2057C18.5664 10.2057 19.6191 10.2486 20.6377 10.3271C21.2187 11.2271 21.7725 12.1485 22.2988 13.0913C22.8252 14.0341 23.3174 14.9983 23.7822 15.9768C23.3242 16.9625 22.832 17.9339 22.3057 18.891C21.7861 19.8409 21.2324 20.7623 20.6514 21.6765C19.6328 21.7551 18.5732 21.7908 17.5 21.7908C16.4268 21.7908 15.3877 21.7551 14.3828 21.6908C13.7881 20.7837 13.2275 19.8552 12.7012 18.9052C12.1748 17.9553 11.6895 16.9911 11.2314 16.0054ZM23.5771 19.6623C23.9258 19.0338 24.2539 18.3981 24.5752 17.7553C25.0127 18.791 25.3955 19.8409 25.7305 20.9194C24.6709 21.1694 23.5977 21.3623 22.5176 21.4908C22.8867 20.8908 23.2354 20.2766 23.5771 19.6623ZM24.5615 14.1983C24.2402 13.5698 23.9121 12.9413 23.5703 12.327C23.2353 11.7199 22.8867 11.1199 22.5244 10.5271C23.625 10.67 24.6777 10.8628 25.6621 11.0985C25.3477 12.1556 24.9785 13.1841 24.5615 14.1983ZM17.5137 6.16306C18.2314 6.97731 18.9082 7.8344 19.5371 8.72007C18.1836 8.65579 16.8232 8.65579 15.4697 8.72007C16.1396 7.79869 16.8301 6.94159 17.5137 6.16306ZM9.58398 1.78473C10.7324 1.08476 13.2822 2.08471 15.9687 4.57029C16.1396 4.72743 16.3105 4.89885 16.4883 5.07026C15.4287 6.26306 14.4512 7.53442 13.5557 8.86292C12.0107 9.00577 10.4795 9.25576 8.96191 9.60574C8.87305 9.24147 8.79785 8.87006 8.72266 8.49865C8.08008 5.04169 8.50391 2.43469 9.58398 1.78473ZM7.90918 20.6123C7.62207 20.5266 7.3418 20.4337 7.06152 20.3337C5.60547 19.8552 3.95117 19.0981 2.75488 18.1053C2.06445 17.6053 1.59961 16.8339 1.46973 15.9697C1.46973 14.6626 3.62988 12.9913 6.74707 11.8556C7.13672 11.7128 7.5332 11.5842 7.92969 11.4628C8.39453 13.0127 8.95508 14.534 9.60449 16.0054C8.94824 17.4982 8.38086 19.0409 7.90918 20.6123ZM15.8799 27.6119C14.752 28.6904 13.4463 29.5475 12.0244 30.1332C11.2656 30.5118 10.3906 30.5475 9.61133 30.2261C8.52441 29.569 8.07324 27.0477 8.68848 23.655C8.76367 23.255 8.8457 22.855 8.94141 22.4622C10.4727 22.805 12.0176 23.0407 13.583 23.1622C14.4854 24.4978 15.4766 25.7763 16.5361 26.9762C16.3174 27.1977 16.0986 27.4119 15.8799 27.6119ZM17.5547 25.8763C16.8574 25.0906 16.1602 24.2192 15.4834 23.2836C16.1396 23.3121 16.8164 23.3264 17.5 23.3264C18.2041 23.3264 18.8945 23.3121 19.5781 23.2764C18.9492 24.1835 18.2725 25.0478 17.5547 25.8763ZM26.4893 28.019C26.4277 28.8904 26.0176 29.7047 25.3613 30.2546C24.2744 30.9117 21.957 30.0546 19.4551 27.8119C19.168 27.5548 18.8809 27.2762 18.5869 26.9905C19.6328 25.7834 20.5967 24.5049 21.4717 23.1622C23.0371 23.0264 24.5957 22.7765 26.1338 22.4122C26.2021 22.705 26.2637 22.9979 26.3184 23.2836C26.6533 24.8264 26.708 26.4334 26.4893 28.019ZM27.7334 20.3409C27.542 20.4052 27.3506 20.4694 27.1523 20.5266C26.6738 18.9695 26.0859 17.4482 25.4092 15.9697C26.0654 14.5126 26.6191 13.0127 27.084 11.4771C27.4395 11.5842 27.7812 11.6985 28.1094 11.8128C31.2949 12.9556 33.5303 14.6555 33.5303 15.9554C33.5303 17.3553 31.1445 19.1624 27.7334 20.3409ZM17.5 19.2695C19.2295 19.2695 20.6309 17.8053 20.6309 15.9983C20.6309 14.1912 19.2295 12.727 17.5 12.727C15.7705 12.727 14.3691 14.1912 14.3691 15.9983C14.3691 17.8053 15.7705 19.2695 17.5 19.2695Z" fill="white"/>
<path d="M48.8 25.25C48.6 25.25 48.3917 25.2167 48.175 25.15C47.975 25.0833 47.8083 24.925 47.675 24.675C47.5417 24.425 47.475 24.0417 47.475 23.525C47.475 23.1917 47.5 22.7667 47.55 22.25C47.6167 21.7167 47.6833 21.2 47.75 20.7C47.8833 19.8667 48 18.95 48.1 17.95C48.2167 16.95 48.275 15.9583 48.275 14.975C48.275 14.625 48.2667 14.2583 48.25 13.875C48.2333 13.4917 48.2 13.125 48.15 12.775C48.05 12.825 47.9333 12.875 47.8 12.925C47.6833 12.9583 47.5833 12.975 47.5 12.975C47.3333 12.975 47.2167 12.8917 47.15 12.725C47.1 12.5417 47.075 12.3333 47.075 12.1C47.075 11.5667 47.2 11.1417 47.45 10.825C47.7167 10.4917 48.1083 10.1917 48.625 9.925C49.3083 9.54167 50.0333 9.26667 50.8 9.1C51.5833 8.91667 52.325 8.825 53.025 8.825C54.0583 8.825 54.975 9.00833 55.775 9.375C56.575 9.74167 57.2 10.2583 57.65 10.925C58.1 11.5917 58.325 12.3917 58.325 13.325C58.325 14.2917 58.0917 15.15 57.625 15.9C57.175 16.65 56.5917 17.2667 55.875 17.75C55.175 18.2167 54.4583 18.525 53.725 18.675C53.9917 19.0917 54.275 19.5083 54.575 19.925C54.8917 20.3417 55.2083 20.7167 55.525 21.05C56.475 22.0333 57.4417 22.525 58.425 22.525C58.6917 22.525 58.925 22.5083 59.125 22.475C59.225 22.4583 59.3083 22.5 59.375 22.6C59.4583 22.6833 59.5 22.8583 59.5 23.125C59.5 23.4417 59.4333 23.7667 59.3 24.1C59.1667 24.4167 58.9417 24.6833 58.625 24.9C58.3083 25.1167 57.875 25.225 57.325 25.225C56.675 25.225 56.05 25.0083 55.45 24.575C54.8667 24.1417 54.325 23.5917 53.825 22.925C53.325 22.2417 52.875 21.525 52.475 20.775C52.0917 20.025 51.7667 19.3333 51.5 18.7C51.4333 18.5167 51.375 18.3417 51.325 18.175C51.275 17.9917 51.25 17.8167 51.25 17.65C51.25 17.3667 51.3417 17.1333 51.525 16.95C51.6583 16.8167 51.8417 16.725 52.075 16.675C52.325 16.625 52.6833 16.6 53.15 16.6C54.0333 16.6 54.75 16.3583 55.3 15.875C55.85 15.3917 56.125 14.7667 56.125 14C56.125 13.1667 55.8083 12.5583 55.175 12.175C54.5583 11.7917 53.8 11.6 52.9 11.6C52.1667 11.6 51.4 11.7167 50.6 11.95C50.55 13.0333 50.4333 14.275 50.25 15.675C50.15 16.5083 50.0583 17.3333 49.975 18.15C49.9083 18.9667 49.875 19.7083 49.875 20.375C49.875 20.9583 49.925 21.475 50.025 21.925C50.1417 22.3583 50.3667 22.7333 50.7 23.05C50.9333 23.2833 51.05 23.5333 51.05 23.8C51.05 24.1667 50.8417 24.5 50.425 24.8C50.0083 25.1 49.4667 25.25 48.8 25.25ZM64.5713 25.325C63.3046 25.325 62.313 24.9667 61.5963 24.25C60.8963 23.5167 60.5463 22.5 60.5463 21.2C60.5463 20.0167 60.8046 18.9417 61.3213 17.975C61.838 17.0083 62.5296 16.2417 63.3963 15.675C64.2796 15.0917 65.2463 14.8 66.2963 14.8C67.2963 14.8 68.0963 15.05 68.6963 15.55C69.2963 16.0333 69.5963 16.6833 69.5963 17.5C69.5963 18.15 69.3963 18.75 68.9963 19.3C68.5963 19.85 68.063 20.2917 67.3963 20.625C66.7296 20.9417 65.988 21.1 65.1713 21.1C64.1713 21.1 63.3546 20.875 62.7213 20.425C62.738 21.1917 62.9963 21.8083 63.4963 22.275C64.013 22.7417 64.6713 22.975 65.4713 22.975C65.9546 22.975 66.4463 22.8917 66.9463 22.725C67.463 22.5417 67.9046 22.3 68.2713 22C68.5046 21.8 68.7213 21.7 68.9213 21.7C69.088 21.7 69.2213 21.7583 69.3213 21.875C69.438 21.975 69.4963 22.1083 69.4963 22.275C69.4963 22.6417 69.1796 23.125 68.5463 23.725C67.4296 24.7917 66.1046 25.325 64.5713 25.325ZM64.9463 19.45C65.5463 19.45 66.0463 19.325 66.4463 19.075C66.8463 18.825 67.0463 18.5083 67.0463 18.125C67.0463 17.8083 66.913 17.5667 66.6463 17.4C66.3796 17.2167 66.013 17.125 65.5463 17.125C64.9296 17.125 64.388 17.2917 63.9213 17.625C63.4713 17.9417 63.1463 18.3917 62.9463 18.975C63.1796 19.125 63.4796 19.2417 63.8463 19.325C64.213 19.4083 64.5796 19.45 64.9463 19.45ZM74.6105 25.325C73.6105 25.325 72.8022 25.0167 72.1855 24.4C71.5855 23.7667 71.2855 22.8667 71.2855 21.7C71.2855 20.8667 71.4439 20.0417 71.7605 19.225C72.0939 18.3917 72.5689 17.6417 73.1855 16.975C73.8022 16.3083 74.5439 15.775 75.4105 15.375C76.2772 14.975 77.2522 14.775 78.3355 14.775C79.3355 14.775 80.1855 14.95 80.8855 15.3C81.6022 15.6333 81.9605 16.0917 81.9605 16.675C81.9605 16.825 81.9439 17.025 81.9105 17.275C81.8772 17.5083 81.8355 17.7 81.7855 17.85C81.7355 17.9833 81.6605 18.1083 81.5605 18.225C81.4772 18.325 81.3605 18.375 81.2105 18.375C81.1439 18.375 81.0189 18.35 80.8355 18.3C80.7689 18.65 80.7189 18.9917 80.6855 19.325C80.6522 19.6583 80.6355 19.9917 80.6355 20.325C80.6355 20.9583 80.7272 21.525 80.9105 22.025C81.1105 22.5083 81.4939 22.8083 82.0605 22.925C82.2105 22.9583 82.3272 23.0083 82.4105 23.075C82.5105 23.1417 82.5605 23.2833 82.5605 23.5C82.5605 23.6833 82.5105 23.9167 82.4105 24.2C82.3272 24.4833 82.1522 24.7417 81.8855 24.975C81.6355 25.1917 81.2689 25.3 80.7855 25.3C80.1355 25.3 79.6355 25.0667 79.2855 24.6C78.9355 24.1167 78.7605 23.4333 78.7605 22.55C78.3105 23.3667 77.7355 24.0333 77.0355 24.55C76.3522 25.0667 75.5439 25.325 74.6105 25.325ZM75.4105 22.725C76.0772 22.725 76.6605 22.5167 77.1605 22.1C77.6772 21.6833 78.0772 21.1583 78.3605 20.525C78.5439 20.125 78.6855 19.6917 78.7855 19.225C78.8855 18.7417 78.9522 18.2667 78.9855 17.8C78.7022 17.6667 78.3772 17.5583 78.0105 17.475C77.6439 17.3917 77.2605 17.35 76.8605 17.35C75.8439 17.35 75.0022 17.65 74.3355 18.25C73.6855 18.85 73.3605 19.6 73.3605 20.5C73.3605 21.1667 73.5439 21.7083 73.9105 22.125C74.2772 22.525 74.7772 22.725 75.4105 22.725ZM87.7332 25.325C86.5665 25.325 85.6499 24.975 84.9832 24.275C84.3332 23.5583 84.0082 22.5667 84.0082 21.3C84.0082 20.05 84.2749 18.9333 84.8082 17.95C85.3415 16.9667 86.0749 16.1917 87.0082 15.625C87.9415 15.0583 88.9999 14.775 90.1832 14.775C90.9832 14.775 91.6165 14.9083 92.0832 15.175C92.5499 15.4417 92.7832 15.8083 92.7832 16.275C92.7832 16.6917 92.5832 17.1 92.1832 17.5C92.0332 17.65 91.8332 17.7917 91.5832 17.925C91.3499 18.0417 91.1665 18.1 91.0332 18.1C90.8832 18.1 90.7582 18.0417 90.6582 17.925C90.4915 17.7417 90.2749 17.5667 90.0082 17.4C89.7415 17.2333 89.3665 17.15 88.8832 17.15C88.0665 17.15 87.3999 17.4333 86.8832 18C86.3665 18.55 86.1082 19.275 86.1082 20.175C86.1082 20.9917 86.3415 21.65 86.8082 22.15C87.2749 22.65 87.8915 22.9 88.6582 22.9C89.0582 22.9 89.4915 22.8333 89.9582 22.7C90.4415 22.55 90.8665 22.3417 91.2332 22.075C91.4165 21.9083 91.6082 21.825 91.8082 21.825C92.1415 21.825 92.3082 22.0333 92.3082 22.45C92.3082 23 92.0332 23.525 91.4832 24.025C91.0665 24.4083 90.5082 24.725 89.8082 24.975C89.1249 25.2083 88.4332 25.325 87.7332 25.325ZM97.89 25.325C96.8734 25.325 96.14 24.9917 95.69 24.325C95.2567 23.6417 95.04 22.7667 95.04 21.7C95.04 21.3167 95.0567 20.9417 95.09 20.575C95.14 20.2083 95.19 19.8417 95.24 19.475C95.29 19.1083 95.34 18.75 95.39 18.4C95.44 18.05 95.4817 17.7167 95.515 17.4C95.165 17.5 94.815 17.55 94.465 17.55C94.0984 17.55 93.915 17.4 93.915 17.1C93.915 16.7833 94.0567 16.4 94.34 15.95C94.6234 15.4833 94.9734 15.025 95.39 14.575C95.8234 14.125 96.2484 13.75 96.665 13.45C97.0984 13.1333 97.465 12.975 97.765 12.975C98.1317 12.975 98.315 13.2917 98.315 13.925C98.315 14.0917 98.2984 14.2667 98.265 14.45C98.2484 14.6167 98.2234 14.7917 98.19 14.975C98.5067 14.9083 98.8234 14.85 99.14 14.8C99.4734 14.75 99.79 14.725 100.09 14.725C100.473 14.725 100.765 14.7917 100.965 14.925C101.182 15.0583 101.29 15.3167 101.29 15.7C101.29 16.1 101.19 16.5 100.99 16.9C100.807 17.3 100.598 17.5 100.365 17.5C100.315 17.5 100.232 17.4917 100.115 17.475C99.9984 17.4583 99.8567 17.4333 99.69 17.4C99.4734 17.35 99.1984 17.3 98.865 17.25C98.5317 17.2 98.1317 17.175 97.665 17.175C97.5484 17.6917 97.44 18.225 97.34 18.775C97.2567 19.3083 97.215 19.7917 97.215 20.225C97.215 21.1917 97.4567 21.85 97.94 22.2C98.4234 22.55 99.1234 22.725 100.04 22.725C100.323 22.725 100.523 22.775 100.64 22.875C100.757 22.9583 100.815 23.1167 100.815 23.35C100.815 23.9 100.532 24.3667 99.965 24.75C99.3984 25.1333 98.7067 25.325 97.89 25.325ZM106.614 25.325C105.164 25.325 104.064 24.9917 103.314 24.325C102.564 23.6417 102.189 22.6583 102.189 21.375C102.189 20.4583 102.347 19.7417 102.664 19.225C102.981 18.6917 103.272 18.2917 103.539 18.025C103.772 17.7917 103.964 17.65 104.114 17.6C104.264 17.5333 104.389 17.5 104.489 17.5C104.706 17.5 104.872 17.5583 104.989 17.675C105.122 17.7917 105.189 17.9417 105.189 18.125C105.189 18.2417 105.164 18.35 105.114 18.45C105.081 18.5333 105.039 18.6083 104.989 18.675C104.639 19.125 104.464 19.6833 104.464 20.35C104.464 21.1167 104.731 21.675 105.264 22.025C105.797 22.375 106.489 22.55 107.339 22.55C108.522 22.55 109.381 22.225 109.914 21.575C110.447 20.9083 110.756 20.0167 110.839 18.9C110.872 18.5 110.889 18.0417 110.889 17.525C110.906 17.0083 110.914 16.5167 110.914 16.05C110.881 14.3 110.739 12.8417 110.489 11.675C110.072 11.6417 109.622 11.6167 109.139 11.6C108.656 11.5833 108.197 11.575 107.764 11.575C106.264 11.575 105.089 11.6833 104.239 11.9C103.956 11.9667 103.722 12 103.539 12C103.406 12 103.306 11.975 103.239 11.925C103.189 11.8583 103.164 11.7167 103.164 11.5C103.164 11.2 103.214 10.9083 103.314 10.625C103.414 10.3417 103.547 10.0917 103.714 9.875C103.897 9.625 104.114 9.45 104.364 9.35C104.614 9.23333 104.922 9.15833 105.289 9.125C105.856 9.075 106.514 9.03333 107.264 9C108.031 8.95 108.897 8.925 109.864 8.925C110.664 8.925 111.306 8.94167 111.789 8.975C112.289 9.00833 112.639 9.04167 112.839 9.075C113.072 9.10833 113.239 9.18333 113.339 9.3C113.439 9.41667 113.489 9.60833 113.489 9.875C113.489 10.1083 113.447 10.35 113.364 10.6C113.297 10.85 113.197 11.0667 113.064 11.25C113.097 13.4833 113.056 15.5083 112.939 17.325C112.839 19.125 112.514 20.65 111.964 21.9C110.931 24.1833 109.147 25.325 106.614 25.325ZM119.333 25.325C118.516 25.325 117.758 25.2083 117.058 24.975C116.374 24.725 115.824 24.3833 115.408 23.95C114.991 23.5167 114.783 23.0083 114.783 22.425C114.783 22.0417 114.874 21.7083 115.058 21.425C115.241 21.125 115.491 20.975 115.808 20.975C116.008 20.975 116.216 21.05 116.433 21.2C116.849 21.5667 117.383 21.8917 118.033 22.175C118.699 22.4417 119.408 22.575 120.158 22.575C121.141 22.575 121.941 22.3833 122.558 22C123.191 21.6 123.508 21.0667 123.508 20.4C123.508 19.7667 123.216 19.3083 122.633 19.025C122.049 18.7417 121.241 18.475 120.208 18.225C119.441 18.0417 118.699 17.8083 117.983 17.525C117.283 17.2417 116.699 16.85 116.233 16.35C115.783 15.8333 115.558 15.15 115.558 14.3C115.558 13.65 115.699 13.0083 115.983 12.375C116.266 11.725 116.683 11.1333 117.233 10.6C117.783 10.0667 118.449 9.64167 119.233 9.325C120.016 8.99167 120.899 8.825 121.883 8.825C122.616 8.825 123.283 8.90833 123.883 9.075C124.499 9.24167 124.983 9.475 125.333 9.775C125.699 10.075 125.883 10.4417 125.883 10.875C125.883 11.2083 125.791 11.5 125.608 11.75C125.424 12 125.208 12.2 124.958 12.35C124.708 12.4833 124.491 12.55 124.308 12.55C124.141 12.55 123.916 12.475 123.633 12.325C123.166 12.075 122.641 11.8833 122.058 11.75C121.491 11.6 120.991 11.525 120.558 11.525C119.741 11.525 119.074 11.7083 118.558 12.075C118.058 12.425 117.808 12.8417 117.808 13.325C117.808 13.8583 118.124 14.3083 118.758 14.675C119.408 15.025 120.566 15.4 122.233 15.8C123.366 16.1 124.249 16.5167 124.883 17.05C125.516 17.5667 125.833 18.3917 125.833 19.525C125.833 20.5417 125.558 21.4917 125.008 22.375C124.474 23.2583 123.716 23.975 122.733 24.525C121.766 25.0583 120.633 25.325 119.333 25.325Z" fill="white"/>
</svg>
