<svg width="180" height="38" viewBox="0 0 180 38" fill="none" xmlns="http://www.w3.org/2000/svg">
<path d="M33.5126 14.0737C33.0799 13.9612 32.6471 13.855 32.2144 13.755C32.2865 13.5238 32.3506 13.2925 32.4147 13.0613C33.4004 9.33649 32.7513 6.3429 30.5636 5.35545C28.456 4.41175 25.0182 5.39295 21.5404 7.75532C21.1958 7.98656 20.8592 8.2303 20.5387 8.47403C20.3223 8.31154 20.0979 8.14905 19.8736 7.99281C16.2274 5.46794 12.5732 4.4055 10.3855 5.3992C8.28599 6.34915 7.66094 9.16775 8.54242 12.6926C8.63057 13.0425 8.72674 13.3863 8.83892 13.7363C8.32606 13.8487 7.82121 13.9737 7.34841 14.105C3.06918 15.2612 0 17.0861 0 18.9735C0 20.9234 3.26952 22.8795 7.71703 24.067C8.07764 24.1607 8.43825 24.2544 8.80687 24.3357C8.68667 24.7107 8.58249 25.0794 8.48633 25.4606C7.64491 28.9292 8.30202 31.679 10.4016 32.6227C12.5652 33.5977 16.2034 32.5977 19.7453 30.1791C20.0258 29.9854 20.3063 29.7854 20.5868 29.5729C20.9394 29.8416 21.308 30.0979 21.6766 30.3479C25.1064 32.6477 28.4961 33.5789 30.5876 32.6352C32.7513 31.6603 33.4565 28.7042 32.5429 25.1044C32.4708 24.8294 32.3907 24.5482 32.3025 24.2607C32.559 24.2044 32.8074 24.1419 33.0558 24.0794C37.6796 22.8858 41.0293 20.9546 41.0293 18.9735C41.0293 17.0798 37.8719 15.2424 33.5126 14.0737ZM22.6703 8.76777C25.6513 6.74288 28.432 5.94917 29.6981 6.51789C31.0524 7.12411 31.5733 9.57397 30.7239 12.7926C30.6678 13.005 30.6117 13.2113 30.5396 13.4175C28.7606 13.105 26.9575 12.88 25.1465 12.7551C24.1047 11.5926 22.9668 10.4802 21.7327 9.43648C22.0452 9.20524 22.3497 8.98651 22.6703 8.76777ZM13.3986 22.217C13.8073 22.7608 14.224 23.3045 14.6648 23.8357C13.4147 23.7295 12.1726 23.5732 10.9465 23.367C11.2991 22.467 11.7398 21.5358 12.2527 20.5859C12.6213 21.1359 12.9979 21.6796 13.3986 22.217ZM10.9705 14.6987C12.1245 14.4987 13.3505 14.3362 14.6247 14.2112C14.2 14.7299 13.7833 15.2612 13.3906 15.7986C12.9979 16.3299 12.6133 16.8736 12.2527 17.4236C11.7478 16.4924 11.3231 15.5799 10.9705 14.6987ZM13.1662 19.0047C13.6951 18.1423 14.2721 17.2986 14.8811 16.4674C15.4902 15.6362 16.1473 14.8299 16.8364 14.0362C18.0385 13.9675 19.2645 13.93 20.5146 13.93C21.7647 13.93 22.9988 13.9675 24.1928 14.0362C24.874 14.8237 25.5231 15.6299 26.1401 16.4549C26.7572 17.2798 27.3342 18.1235 27.8791 18.9797C27.3422 19.8422 26.7652 20.6921 26.1481 21.5296C25.5391 22.3608 24.89 23.167 24.2089 23.967C23.0149 24.0357 21.7728 24.067 20.5146 24.067C19.2565 24.067 18.0385 24.0357 16.8605 23.9795C16.1633 23.1857 15.5062 22.3733 14.8891 21.5421C14.2721 20.7109 13.7031 19.8672 13.1662 19.0047ZM27.6387 22.2045C28.0474 21.6546 28.432 21.0984 28.8086 20.5359C29.3215 21.4421 29.7703 22.3608 30.1629 23.3045C28.9208 23.5232 27.6627 23.692 26.3966 23.8045C26.8293 23.2795 27.238 22.742 27.6387 22.2045ZM28.7926 17.4236C28.416 16.8736 28.0313 16.3236 27.6307 15.7861C27.238 15.2549 26.8293 14.7299 26.4046 14.2112C27.6948 14.3362 28.9288 14.505 30.0828 14.7112C29.7142 15.6362 29.2814 16.5361 28.7926 17.4236ZM20.5307 10.3927C21.3721 11.1051 22.1654 11.8551 22.9027 12.6301C21.316 12.5738 19.7213 12.5738 18.1346 12.6301C18.9199 11.8239 19.7293 11.0739 20.5307 10.3927ZM11.235 6.56164C12.5812 5.94917 15.5703 6.82412 18.7196 8.99901C18.9199 9.1365 19.1203 9.28649 19.3286 9.43648C18.0865 10.4802 16.9406 11.5926 15.8908 12.7551C14.0798 12.88 12.2847 13.0988 10.5057 13.405C10.4016 13.0863 10.3134 12.7613 10.2253 12.4363C9.47199 9.41148 9.96883 7.13035 11.235 6.56164ZM9.27165 23.0358C8.93509 22.9608 8.60653 22.8795 8.27798 22.792C6.5711 22.3733 4.63182 21.7108 3.22945 20.8421C2.42009 20.4046 1.87517 19.7297 1.72291 18.9735C1.72291 17.8298 4.25518 16.3674 7.90935 15.3737C8.36613 15.2487 8.83091 15.1362 9.2957 15.0299C9.84062 16.3861 10.4977 17.7173 11.259 19.0047C10.4897 20.3109 9.82459 21.6608 9.27165 23.0358ZM18.6154 29.1604C17.2932 30.1041 15.7626 30.8541 14.0958 31.3666C13.2063 31.6978 12.1806 31.729 11.267 31.4478C9.99287 30.8728 9.46398 28.6667 10.1852 25.6981C10.2733 25.3481 10.3695 24.9982 10.4817 24.6544C12.2767 24.9544 14.0878 25.1606 15.9229 25.2669C16.9807 26.4356 18.1426 27.5543 19.3847 28.6042C19.1283 28.7979 18.8719 28.9854 18.6154 29.1604ZM20.5787 27.6418C19.7614 26.9543 18.944 26.1918 18.1506 25.3731C18.9199 25.3981 19.7133 25.4106 20.5146 25.4106C21.34 25.4106 22.1494 25.3981 22.9508 25.3669C22.2135 26.1606 21.4202 26.9168 20.5787 27.6418ZM31.0524 29.5167C30.9803 30.2791 30.4995 30.9916 29.7302 31.4728C28.456 32.0478 25.7395 31.2978 22.8065 29.3354C22.4699 29.1104 22.1334 28.8667 21.7888 28.6167C23.0149 27.5605 24.1448 26.4418 25.1705 25.2669C27.0056 25.1481 28.8327 24.9294 30.6357 24.6107C30.7159 24.8669 30.788 25.1231 30.8521 25.3731C31.2448 26.7231 31.3089 28.1292 31.0524 29.5167ZM32.5109 22.7983C32.2865 22.8545 32.0621 22.9108 31.8297 22.9608C31.2688 21.5983 30.5796 20.2672 29.7863 18.9735C30.5556 17.6985 31.2047 16.3861 31.7496 15.0424C32.1663 15.1362 32.567 15.2362 32.9516 15.3362C36.6859 16.3361 39.3064 17.8235 39.3064 18.961C39.3064 20.1859 36.5096 21.7671 32.5109 22.7983ZM20.5146 21.8608C22.5421 21.8608 24.1848 20.5796 24.1848 18.9985C24.1848 17.4173 22.5421 16.1361 20.5146 16.1361C18.4872 16.1361 16.8444 17.4173 16.8444 18.9985C16.8444 20.5796 18.4872 21.8608 20.5146 21.8608Z" fill="white"/>
<path d="M63.1437 28L58.6437 20.525H58.5437H54.7937V28H53.6687V10.45H58.4937C60.4437 10.45 61.9021 10.9083 62.8687 11.825C63.8521 12.7417 64.3437 13.9583 64.3437 15.475C64.3437 16.825 63.9604 17.9417 63.1937 18.825C62.4437 19.6917 61.3437 20.225 59.8937 20.425L64.4937 28H63.1437ZM54.7937 19.575H58.5437C60.0937 19.575 61.2521 19.2 62.0187 18.45C62.7854 17.7 63.1687 16.7083 63.1687 15.475C63.1687 12.7917 61.6104 11.45 58.4937 11.45H54.7937V19.575ZM79.9074 20.3C79.9074 20.9 79.8907 21.35 79.8574 21.65H68.1324C68.1657 22.8667 68.4324 23.8917 68.9324 24.725C69.4324 25.5583 70.0907 26.1833 70.9074 26.6C71.7241 27.0167 72.6157 27.225 73.5824 27.225C74.9157 27.225 76.0324 26.9 76.9324 26.25C77.8324 25.5833 78.3991 24.6833 78.6324 23.55H79.8074C79.5407 24.9333 78.8574 26.0583 77.7574 26.925C76.6574 27.775 75.2657 28.2 73.5824 28.2C72.3157 28.2 71.1824 27.9167 70.1824 27.35C69.1824 26.7833 68.3991 25.975 67.8324 24.925C67.2657 23.8583 66.9824 22.6167 66.9824 21.2C66.9824 19.7833 67.2574 18.55 67.8074 17.5C68.3741 16.45 69.1574 15.65 70.1574 15.1C71.1574 14.5333 72.2991 14.25 73.5824 14.25C74.8824 14.25 76.0074 14.5333 76.9574 15.1C77.9241 15.65 78.6574 16.3917 79.1574 17.325C79.6574 18.2417 79.9074 19.2333 79.9074 20.3ZM78.7824 20.725C78.8324 19.525 78.6157 18.5083 78.1324 17.675C77.6657 16.8417 77.0241 16.225 76.2074 15.825C75.3907 15.4083 74.5074 15.2 73.5574 15.2C72.6074 15.2 71.7241 15.4083 70.9074 15.825C70.1074 16.225 69.4491 16.8417 68.9324 17.675C68.4324 18.5083 68.1657 19.525 68.1324 20.725H78.7824ZM82.6074 21.2C82.6074 19.8 82.8824 18.575 83.4324 17.525C83.9991 16.475 84.7741 15.6667 85.7574 15.1C86.7574 14.5333 87.8907 14.25 89.1574 14.25C90.5907 14.25 91.8074 14.6 92.8074 15.3C93.8074 16 94.5074 16.8917 94.9074 17.975V14.425H96.0324V28H94.9074V24.425C94.5074 25.525 93.7991 26.4333 92.7824 27.15C91.7824 27.85 90.5741 28.2 89.1574 28.2C87.8907 28.2 86.7574 27.9167 85.7574 27.35C84.7741 26.7667 83.9991 25.95 83.4324 24.9C82.8824 23.8333 82.6074 22.6 82.6074 21.2ZM94.9074 21.2C94.9074 20.0167 94.6574 18.975 94.1574 18.075C93.6741 17.1583 93.0074 16.4583 92.1574 15.975C91.3074 15.475 90.3574 15.225 89.3074 15.225C88.2074 15.225 87.2407 15.4667 86.4074 15.95C85.5741 16.4167 84.9241 17.1 84.4574 18C83.9907 18.9 83.7574 19.9667 83.7574 21.2C83.7574 22.4333 83.9907 23.5 84.4574 24.4C84.9241 25.3 85.5741 25.9917 86.4074 26.475C87.2574 26.9583 88.2241 27.2 89.3074 27.2C90.3574 27.2 91.3074 26.9583 92.1574 26.475C93.0241 25.975 93.6991 25.275 94.1824 24.375C94.6657 23.4583 94.9074 22.4 94.9074 21.2ZM99.4287 21.2C99.4287 19.7833 99.7037 18.55 100.254 17.5C100.82 16.45 101.595 15.65 102.579 15.1C103.579 14.5333 104.72 14.25 106.004 14.25C107.704 14.25 109.095 14.675 110.179 15.525C111.279 16.375 111.962 17.5167 112.229 18.95H111.054C110.837 17.7833 110.27 16.8667 109.354 16.2C108.454 15.5333 107.337 15.2 106.004 15.2C105.004 15.2 104.095 15.425 103.279 15.875C102.462 16.3083 101.804 16.9833 101.304 17.9C100.82 18.8 100.579 19.9 100.579 21.2C100.579 22.5167 100.82 23.625 101.304 24.525C101.804 25.425 102.462 26.1 103.279 26.55C104.095 27 105.004 27.225 106.004 27.225C107.337 27.225 108.454 26.8917 109.354 26.225C110.27 25.5583 110.837 24.6417 111.054 23.475H112.229C111.962 24.8917 111.279 26.0333 110.179 26.9C109.079 27.7667 107.687 28.2 106.004 28.2C104.72 28.2 103.579 27.9167 102.579 27.35C101.595 26.7833 100.82 25.975 100.254 24.925C99.7037 23.8583 99.4287 22.6167 99.4287 21.2ZM117.331 15.4V24.375C117.331 25.375 117.514 26.0667 117.881 26.45C118.248 26.8167 118.898 27 119.831 27H121.356V28H119.656C118.473 28 117.598 27.725 117.031 27.175C116.481 26.6083 116.206 25.675 116.206 24.375V15.4H114.156V14.425H116.206V10.975H117.331V14.425H121.356V15.4H117.331ZM131.648 10.45V24.075C131.648 25.2917 131.273 26.2833 130.523 27.05C129.773 27.8 128.756 28.175 127.473 28.175C126.123 28.175 125.056 27.7667 124.273 26.95C123.506 26.1167 123.123 24.975 123.123 23.525H124.248C124.248 24.5917 124.506 25.4667 125.023 26.15C125.54 26.8333 126.356 27.175 127.473 27.175C128.54 27.175 129.306 26.875 129.773 26.275C130.256 25.6583 130.498 24.925 130.498 24.075V10.45H131.648ZM140.97 28.175C139.837 28.175 138.845 27.975 137.995 27.575C137.145 27.175 136.479 26.6333 135.995 25.95C135.529 25.2667 135.262 24.5083 135.195 23.675H136.37C136.504 24.5917 136.929 25.4083 137.645 26.125C138.379 26.8417 139.487 27.2 140.97 27.2C141.837 27.2 142.587 27.0417 143.22 26.725C143.87 26.4083 144.37 25.975 144.72 25.425C145.07 24.875 145.245 24.2667 145.245 23.6C145.245 22.75 145.037 22.075 144.62 21.575C144.22 21.075 143.712 20.7 143.095 20.45C142.495 20.2 141.679 19.9333 140.645 19.65C139.512 19.35 138.595 19.05 137.895 18.75C137.212 18.45 136.629 17.9917 136.145 17.375C135.679 16.7417 135.445 15.8833 135.445 14.8C135.445 13.9667 135.662 13.2083 136.095 12.525C136.545 11.825 137.179 11.275 137.995 10.875C138.812 10.475 139.754 10.275 140.82 10.275C142.37 10.275 143.62 10.6583 144.57 11.425C145.52 12.1917 146.087 13.1333 146.27 14.25H145.07C144.97 13.8 144.745 13.3417 144.395 12.875C144.062 12.4083 143.579 12.025 142.945 11.725C142.329 11.4083 141.587 11.25 140.72 11.25C139.554 11.25 138.57 11.575 137.77 12.225C136.97 12.8583 136.57 13.7083 136.57 14.775C136.57 15.625 136.779 16.3083 137.195 16.825C137.612 17.325 138.12 17.7083 138.72 17.975C139.337 18.225 140.162 18.4833 141.195 18.75C142.345 19.0667 143.254 19.375 143.92 19.675C144.604 19.9583 145.179 20.4167 145.645 21.05C146.129 21.6667 146.37 22.5083 146.37 23.575C146.37 24.3583 146.162 25.1 145.745 25.8C145.329 26.5 144.712 27.075 143.895 27.525C143.095 27.9583 142.12 28.175 140.97 28.175Z" fill="white"/>
</svg>
