<svg width="110" height="32" viewBox="0 0 110 32" fill="none" xmlns="http://www.w3.org/2000/svg">
<path d="M28.5879 10.37C28.2188 10.2414 27.8496 10.12 27.4805 10.0057C27.542 9.74144 27.5967 9.47717 27.6514 9.2129C28.4922 4.95598 27.9385 1.53474 26.0723 0.406228C24.2744 -0.672286 21.3418 0.449083 18.375 3.14894C18.0811 3.41321 17.7939 3.69177 17.5205 3.97032C17.3359 3.78462 17.1445 3.59891 16.9531 3.42035C13.8428 0.534792 10.7256 -0.679428 8.85938 0.456225C7.06836 1.54188 6.53516 4.76314 7.28711 8.7915C7.3623 9.19147 7.44434 9.58431 7.54004 9.98429C7.10254 10.1129 6.67187 10.2557 6.26855 10.4057C2.61816 11.7271 0 13.8127 0 15.9697C0 18.1981 2.78906 20.4337 6.58301 21.7908C6.89062 21.8979 7.19824 22.0051 7.51269 22.0979C7.41016 22.5265 7.32129 22.9479 7.23926 23.3836C6.52148 27.3476 7.08203 30.4903 8.87305 31.5688C10.7187 32.6831 13.8223 31.5403 16.8437 28.7761C17.083 28.5547 17.3223 28.3262 17.5615 28.0833C17.8623 28.3904 18.1768 28.6833 18.4912 28.969C21.417 31.5974 24.3086 32.6616 26.0928 31.5831C27.9385 30.4689 28.54 27.0905 27.7607 22.9765C27.6992 22.6622 27.6309 22.3408 27.5557 22.0122C27.7744 21.9479 27.9863 21.8765 28.1982 21.8051C32.1426 20.4409 35 18.2338 35 15.9697C35 13.8055 32.3066 11.7056 28.5879 10.37ZM19.3389 4.30602C21.8818 1.99186 24.2539 1.08476 25.334 1.73473C26.4893 2.42755 26.9336 5.2274 26.209 8.90577C26.1611 9.14862 26.1133 9.38432 26.0518 9.62002C24.5342 9.2629 22.9961 9.00577 21.4512 8.86292C20.5625 7.53442 19.5918 6.26306 18.5391 5.07026C18.8057 4.80599 19.0654 4.55601 19.3389 4.30602ZM11.4297 19.6766C11.7783 20.298 12.1338 20.9194 12.5098 21.5265C11.4434 21.4051 10.3838 21.2265 9.33789 20.9908C9.63867 19.9623 10.0146 18.8981 10.4521 17.8124C10.7666 18.441 11.0879 19.0624 11.4297 19.6766ZM9.3584 11.0842C10.3428 10.8557 11.3887 10.67 12.4756 10.5271C12.1133 11.1199 11.7578 11.7271 11.4229 12.3413C11.0879 12.9484 10.7598 13.5698 10.4521 14.1983C10.0215 13.1341 9.65918 12.0913 9.3584 11.0842ZM11.2314 16.0054C11.6826 15.0197 12.1748 14.0555 12.6943 13.1055C13.2139 12.1556 13.7744 11.2342 14.3623 10.3271C15.3877 10.2486 16.4336 10.2057 17.5 10.2057C18.5664 10.2057 19.6191 10.2486 20.6377 10.3271C21.2188 11.2271 21.7725 12.1485 22.2988 13.0913C22.8252 14.0341 23.3174 14.9983 23.7822 15.9768C23.3242 16.9625 22.832 17.9339 22.3057 18.891C21.7861 19.8409 21.2324 20.7623 20.6514 21.6765C19.6328 21.7551 18.5732 21.7908 17.5 21.7908C16.4268 21.7908 15.3877 21.7551 14.3828 21.6908C13.7881 20.7837 13.2275 19.8552 12.7012 18.9052C12.1748 17.9553 11.6895 16.9911 11.2314 16.0054ZM23.5771 19.6623C23.9258 19.0338 24.2539 18.3981 24.5752 17.7553C25.0127 18.791 25.3955 19.8409 25.7305 20.9194C24.6709 21.1694 23.5977 21.3623 22.5176 21.4908C22.8867 20.8908 23.2354 20.2766 23.5771 19.6623ZM24.5615 14.1983C24.2402 13.5698 23.9121 12.9413 23.5703 12.327C23.2353 11.7199 22.8867 11.1199 22.5244 10.5271C23.625 10.67 24.6777 10.8628 25.6621 11.0985C25.3477 12.1556 24.9785 13.1841 24.5615 14.1983ZM17.5137 6.16306C18.2314 6.97731 18.9082 7.8344 19.5371 8.72007C18.1836 8.65579 16.8232 8.65579 15.4697 8.72007C16.1396 7.79869 16.8301 6.94159 17.5137 6.16306ZM9.58398 1.78473C10.7324 1.08476 13.2822 2.08471 15.9688 4.57029C16.1396 4.72743 16.3105 4.89885 16.4883 5.07026C15.4287 6.26306 14.4512 7.53442 13.5557 8.86292C12.0107 9.00577 10.4795 9.25576 8.96191 9.60574C8.87305 9.24147 8.79785 8.87006 8.72266 8.49865C8.08008 5.04169 8.50391 2.43469 9.58398 1.78473ZM7.90918 20.6123C7.62207 20.5266 7.3418 20.4337 7.06152 20.3337C5.60547 19.8552 3.95117 19.0981 2.75488 18.1053C2.06445 17.6053 1.59961 16.8339 1.46973 15.9697C1.46973 14.6626 3.62988 12.9913 6.74707 11.8556C7.13672 11.7128 7.5332 11.5842 7.92969 11.4628C8.39453 13.0127 8.95508 14.534 9.60449 16.0054C8.94824 17.4982 8.38086 19.0409 7.90918 20.6123ZM15.8799 27.6119C14.752 28.6904 13.4463 29.5475 12.0244 30.1332C11.2656 30.5118 10.3906 30.5475 9.61133 30.2261C8.52441 29.569 8.07324 27.0477 8.68848 23.655C8.76367 23.255 8.8457 22.855 8.94141 22.4622C10.4727 22.805 12.0176 23.0407 13.583 23.1622C14.4854 24.4978 15.4766 25.7763 16.5361 26.9762C16.3174 27.1977 16.0986 27.4119 15.8799 27.6119ZM17.5547 25.8763C16.8574 25.0906 16.1602 24.2192 15.4834 23.2836C16.1396 23.3121 16.8164 23.3264 17.5 23.3264C18.2041 23.3264 18.8945 23.3121 19.5781 23.2764C18.9492 24.1835 18.2725 25.0478 17.5547 25.8763ZM26.4893 28.019C26.4277 28.8904 26.0176 29.7047 25.3613 30.2546C24.2744 30.9117 21.957 30.0546 19.4551 27.8119C19.168 27.5548 18.8809 27.2762 18.5869 26.9905C19.6328 25.7834 20.5967 24.5049 21.4717 23.1622C23.0371 23.0264 24.5957 22.7765 26.1338 22.4122C26.2021 22.705 26.2637 22.9979 26.3184 23.2836C26.6533 24.8264 26.708 26.4334 26.4893 28.019ZM27.7334 20.3409C27.542 20.4052 27.3506 20.4694 27.1523 20.5266C26.6738 18.9695 26.0859 17.4482 25.4092 15.9697C26.0654 14.5126 26.6191 13.0127 27.084 11.4771C27.4395 11.5842 27.7812 11.6985 28.1094 11.8128C31.2949 12.9556 33.5303 14.6555 33.5303 15.9554C33.5303 17.3553 31.1445 19.1624 27.7334 20.3409ZM17.5 19.2695C19.2295 19.2695 20.6309 17.8053 20.6309 15.9983C20.6309 14.1912 19.2295 12.727 17.5 12.727C15.7705 12.727 14.3691 14.1912 14.3691 15.9983C14.3691 17.8053 15.7705 19.2695 17.5 19.2695Z" fill="white"/>
<path d="M52.1 15.525C51.9167 15.575 51.825 15.6333 51.825 15.7C51.825 15.75 52.025 15.85 52.425 16C52.825 16.15 53.2 16.3833 53.55 16.7C53.9167 17.0167 54.175 17.4 54.325 17.85C54.5583 18.5333 54.675 19.2667 54.675 20.05C54.675 20.8333 54.7333 21.4833 54.85 22C54.9667 22.5 55.1083 22.8833 55.275 23.15C55.6083 23.7167 55.9167 24.0667 56.2 24.2L56.375 24.3C56.475 24.3667 56.525 24.45 56.525 24.55C56.525 24.8 56.1167 25.0167 55.3 25.2C54.4833 25.4 53.85 25.5 53.4 25.5C52.5167 25.5 51.95 25.15 51.7 24.45C51.4667 23.7333 51.35 22.5167 51.35 20.8V19.425C51.35 17.975 50.9167 17.05 50.05 16.65C49.7167 16.5 49.3167 16.425 48.85 16.425H48.825C48.675 16.425 48.6 16.2833 48.6 16C48.6 15.7 48.6833 15.4 48.85 15.1C49.0333 14.8 49.1917 14.65 49.325 14.65C49.875 14.65 50.35 14.55 50.75 14.35C51.15 14.1333 51.4417 13.875 51.625 13.575C52.0083 12.9417 52.2167 12.4 52.25 11.95V11.625C52.25 11.0083 52.15 10.4917 51.95 10.075C51.75 9.64167 51.5 9.34167 51.2 9.175C50.7 8.90833 50.1917 8.775 49.675 8.775C49.1583 8.775 48.7333 8.81667 48.4 8.9C47.9333 9.03333 47.7 9.175 47.7 9.325C47.55 11.5083 47.475 13.6167 47.475 15.65C47.475 17.6667 47.5 19.2167 47.55 20.3C47.6167 21.3667 47.675 22.2333 47.725 22.9C47.7917 23.55 47.825 23.9333 47.825 24.05C47.825 24.2667 47.7667 24.4167 47.65 24.5C46.9667 25.1333 45.8917 25.45 44.425 25.45C44.175 25.45 44.05 25.3667 44.05 25.2C44.05 25.15 44.075 25.0333 44.125 24.85C44.2917 24.4667 44.4083 23.25 44.475 21.2C44.5583 19.15 44.6 17.2833 44.6 15.6C44.6 13.9 44.5667 12.525 44.5 11.475C44.4 9.89167 44.2333 8.94167 44 8.625C43.8167 8.39167 43.725 8.23333 43.725 8.15C43.725 8.05 43.8167 7.95 44 7.85C45.0667 7.35 47 7.1 49.8 7.1C52.05 7.1 53.7333 7.73333 54.85 9C55.45 9.7 55.75 10.575 55.75 11.625C55.75 12.2583 55.625 12.825 55.375 13.325C55.125 13.825 54.8167 14.2083 54.45 14.475C53.75 15.0083 53.0917 15.3333 52.475 15.45L52.1 15.525ZM59.333 18.65L59.358 19.275C59.358 19.375 59.4247 19.425 59.558 19.425C60.0913 19.375 60.558 19.2417 60.958 19.025C61.358 18.7917 61.658 18.5333 61.858 18.25C62.258 17.6333 62.4747 17.1 62.508 16.65L62.533 16.35C62.533 15.45 62.1747 15 61.458 15C60.9247 15 60.4913 15.2333 60.158 15.7C59.608 16.4333 59.333 17.4167 59.333 18.65ZM64.783 21.975C64.783 22.6083 64.6497 23.1667 64.383 23.65C64.133 24.1167 63.8413 24.4667 63.508 24.7C63.1913 24.9167 62.8163 25.0917 62.383 25.225C61.833 25.3917 61.308 25.475 60.808 25.475C59.408 25.475 58.3747 24.95 57.708 23.9C57.0413 22.85 56.708 21.5167 56.708 19.9C56.708 18.2667 57.1163 16.8167 57.933 15.55C58.7663 14.2833 60.008 13.65 61.658 13.65C63.158 13.65 64.1747 14.175 64.708 15.225C64.9247 15.625 65.033 16.0083 65.033 16.375C65.033 16.725 65.0163 17.0083 64.983 17.225C64.9497 17.425 64.833 17.7333 64.633 18.15C64.433 18.5667 64.1663 18.9417 63.833 19.275C63.4997 19.6083 62.9747 19.925 62.258 20.225C61.5413 20.525 60.6997 20.725 59.733 20.825C59.5997 20.825 59.533 20.8833 59.533 21C59.533 21.15 59.583 21.375 59.683 21.675C59.7997 21.9583 59.9247 22.2 60.058 22.4C60.4247 22.8667 60.9663 23.1 61.683 23.1C62.3997 23.1 63.008 22.8667 63.508 22.4C63.7747 22.15 63.9913 21.8417 64.158 21.475C64.2247 21.3417 64.308 21.275 64.408 21.275C64.5247 21.275 64.6163 21.3667 64.683 21.55C64.7497 21.7333 64.783 21.875 64.783 21.975ZM74.1703 17.5L74.1203 20.7C74.1203 22.9167 74.362 24.25 74.8453 24.7C74.912 24.7667 74.9453 24.8417 74.9453 24.925C74.9453 25.175 74.4036 25.3 73.3203 25.3C72.2536 25.3 71.687 24.9833 71.6203 24.35C71.6036 24.2 71.5953 23.8917 71.5953 23.425L71.6953 19.425C71.6953 19.3083 71.6286 19.25 71.4953 19.25C70.6953 19.25 69.9453 19.475 69.2453 19.925C68.5453 20.375 68.1953 20.95 68.1953 21.65C68.1953 22.0167 68.2953 22.325 68.4953 22.575C68.6953 22.825 68.937 22.95 69.2203 22.95C69.5203 22.95 69.762 22.8917 69.9453 22.775C70.1453 22.6583 70.262 22.5917 70.2953 22.575C70.5786 22.6083 70.7203 22.9083 70.7203 23.475C70.7203 24.025 70.462 24.475 69.9453 24.825C69.4286 25.1583 68.887 25.325 68.3203 25.325C67.7536 25.325 67.262 25.225 66.8453 25.025C66.4453 24.825 66.1536 24.6 65.9703 24.35C65.787 24.1 65.637 23.8167 65.5203 23.5C65.4036 23.1167 65.3453 22.7833 65.3453 22.5C65.3453 21.3333 65.712 20.4 66.4453 19.7C67.1786 19 68.1203 18.5 69.2703 18.2C70.787 17.9 71.5786 17.625 71.6453 17.375C71.6953 17.1917 71.7203 16.8833 71.7203 16.45C71.7203 15.5667 71.2703 15.125 70.3703 15.125C69.987 15.125 69.6453 15.25 69.3453 15.5C69.0453 15.7333 68.8953 16.0333 68.8953 16.4L69.0453 17C69.012 17.2833 68.712 17.45 68.1453 17.5L67.8703 17.525C67.3703 17.525 66.9703 17.4 66.6703 17.15C66.387 16.9 66.2453 16.5667 66.2453 16.15C66.2453 15.8833 66.3286 15.5917 66.4953 15.275C66.6786 14.9417 66.9036 14.675 67.1703 14.475C67.437 14.275 67.8453 14.1 68.3953 13.95C68.962 13.7833 69.5036 13.7 70.0203 13.7C70.537 13.7 70.937 13.7167 71.2203 13.75C71.5036 13.7833 71.887 13.8667 72.3703 14C72.8703 14.1167 73.2786 14.35 73.5953 14.7C73.9286 15.05 74.1036 15.425 74.1203 15.825C74.1536 16.2083 74.1703 16.7667 74.1703 17.5ZM83.8586 22.125C83.8586 23.075 83.4753 23.8667 82.7086 24.5C81.9586 25.1167 81.0586 25.425 80.0086 25.425C78.4753 25.425 77.3503 24.9667 76.6336 24.05C75.9169 23.1167 75.5586 21.8583 75.5586 20.275C75.5586 18.5917 75.9336 17.1 76.6836 15.8C77.0503 15.1333 77.5753 14.6083 78.2586 14.225C78.9419 13.8417 79.7419 13.65 80.6586 13.65C82.0419 13.65 83.0169 14.1167 83.5836 15.05C83.8169 15.4333 83.9336 15.8833 83.9336 16.4C83.9336 17.2 83.6003 17.8 82.9336 18.2C82.6669 18.35 82.4169 18.425 82.1836 18.425C81.9669 18.425 81.7836 18.4167 81.6336 18.4C81.5003 18.3667 81.3169 18.25 81.0836 18.05C80.8503 17.85 80.7336 17.575 80.7336 17.225C80.7503 17.0417 80.8919 16.8917 81.1586 16.775C81.4086 16.625 81.5336 16.3583 81.5336 15.975C81.5336 15.325 81.1336 15 80.3336 15C80.1336 15 79.8919 15.0917 79.6086 15.275C79.3419 15.4417 79.1169 15.6667 78.9336 15.95C78.7503 16.2167 78.5753 16.65 78.4086 17.25C78.2586 17.8333 78.1836 18.4 78.1836 18.95C78.1836 19.4833 78.2003 19.8917 78.2336 20.175C78.2836 20.4417 78.3753 20.8167 78.5086 21.3C78.6586 21.7667 78.9253 22.15 79.3086 22.45C79.7086 22.75 80.2003 22.9 80.7836 22.9C81.4836 22.9 82.1003 22.6083 82.6336 22.025C82.8503 21.7917 83.0253 21.5083 83.1586 21.175C83.2253 21.0417 83.3086 20.975 83.4086 20.975C83.5586 20.975 83.6669 21.1167 83.7336 21.4C83.8169 21.6667 83.8586 21.9083 83.8586 22.125ZM84.8057 15.25L84.8807 14.25C84.8973 14.1 85.014 14.025 85.2307 14.025H86.1057L86.0057 12.025V11.925C86.0057 11.5417 86.2973 11.175 86.8807 10.825C87.464 10.475 87.9973 10.3 88.4807 10.3C88.6307 10.3 88.7057 10.3667 88.7057 10.5V10.525C88.639 10.975 88.5723 12.1333 88.5057 14C89.239 14 89.7057 13.9833 89.9057 13.95C90.1057 13.9167 90.214 13.9 90.2307 13.9C90.3473 13.9 90.4057 14 90.4057 14.2C90.4057 14.4 90.314 14.6583 90.1307 14.975C89.9473 15.275 89.7473 15.4333 89.5307 15.45H88.4807C88.464 16.0167 88.4557 16.975 88.4557 18.325C88.4557 19.6583 88.464 20.7583 88.4807 21.625C88.514 22.4917 88.5473 23.15 88.5807 23.6C88.614 24.0333 88.6473 24.3833 88.6807 24.65C88.7307 24.9167 88.764 25.1083 88.7807 25.225C88.814 25.3417 88.8307 25.4167 88.8307 25.45C88.8307 25.6167 88.7223 25.7083 88.5057 25.725C87.8557 25.725 87.2057 25.6333 86.5557 25.45C85.9223 25.2667 85.6057 24.95 85.6057 24.5C85.9557 21.7 86.1307 18.6917 86.1307 15.475C85.6807 15.475 85.339 15.4917 85.1057 15.525H85.0807C84.9307 15.525 84.839 15.4333 84.8057 15.25ZM91.8965 20.375L91.9465 15.325C91.9465 11.375 91.7548 9.14167 91.3715 8.625C91.1882 8.39167 91.0965 8.23333 91.0965 8.15C91.0965 8.05 91.2048 7.94167 91.4215 7.825C91.6548 7.69167 92.0965 7.55 92.7465 7.4C93.3965 7.25 93.9715 7.175 94.4715 7.175C94.9715 7.175 95.2215 7.29167 95.2215 7.525L95.1715 7.85C94.9715 9.65 94.8715 11.4083 94.8715 13.125C94.8715 14.8417 94.9215 16.7583 95.0215 18.875C95.1215 20.9917 95.1715 22.55 95.1715 23.55C95.1715 24.9 94.6465 26.0583 93.5965 27.025C92.5632 28.0083 91.3298 28.5417 89.8965 28.625C89.6132 28.5917 89.4715 28.4917 89.4715 28.325C89.4715 28.2083 89.5132 28.1167 89.5965 28.05C89.6632 27.9833 89.7465 27.9 89.8465 27.8C89.9465 27.7 90.1298 27.4417 90.3965 27.025C90.6632 26.6083 90.8965 26.1333 91.0965 25.6C91.2965 25.0833 91.4798 24.3583 91.6465 23.425C91.8132 22.4917 91.8965 21.475 91.8965 20.375ZM104.898 11.15L104.998 10.375C104.998 9.60833 104.698 9.11667 104.098 8.9C103.632 8.75 103.273 8.675 103.023 8.675H102.998C102.498 8.675 102.065 8.75833 101.698 8.925C101.332 9.075 101.065 9.26667 100.898 9.5C100.548 9.98333 100.348 10.4917 100.298 11.025C100.298 11.6583 100.582 12.2083 101.148 12.675C101.715 13.125 102.398 13.525 103.198 13.875C104.015 14.2083 104.823 14.575 105.623 14.975C106.44 15.375 107.132 15.95 107.698 16.7C108.265 17.45 108.548 18.35 108.548 19.4C108.548 21.45 107.898 22.9833 106.598 24C105.315 25.0167 103.848 25.525 102.198 25.525C100.565 25.525 99.2066 25.1583 98.1232 24.425C97.0566 23.675 96.5232 22.675 96.5232 21.425V21.4C96.5232 20.7833 96.6149 20.25 96.7982 19.8C96.9982 19.3333 97.2316 18.9917 97.4982 18.775C98.0482 18.325 98.5482 18.0833 98.9982 18.05L99.2982 18.025C99.7649 18.025 100.19 18.1417 100.573 18.375C100.957 18.5917 101.148 18.9 101.148 19.3C101.148 19.5 101.04 19.6667 100.823 19.8C100.607 19.9333 100.415 20.1333 100.248 20.4C100.098 20.6667 100.015 20.8917 99.9982 21.075L99.9482 21.35C99.9482 22.3667 100.415 23.0417 101.348 23.375C101.682 23.4917 101.948 23.55 102.148 23.55C103.065 23.55 103.798 23.275 104.348 22.725C104.915 22.175 105.198 21.475 105.198 20.625C105.198 19.6083 104.765 18.7833 103.898 18.15C103.248 17.6833 102.54 17.2917 101.773 16.975C101.023 16.6583 100.515 16.4333 100.248 16.3C99.9816 16.1667 99.6982 16.0083 99.3982 15.825C99.0982 15.6417 98.7649 15.3833 98.3982 15.05C97.5982 14.35 97.1982 13.4083 97.1982 12.225C97.1982 11.025 97.5232 10.0167 98.1732 9.2C99.3399 7.71667 101.09 6.975 103.423 6.975C104.657 6.975 105.698 7.21667 106.548 7.7C107.398 8.16667 107.823 8.81667 107.823 9.65C107.823 10.25 107.648 10.75 107.298 11.15C106.965 11.55 106.532 11.75 105.998 11.75C105.748 11.75 105.498 11.7 105.248 11.6C105.015 11.5 104.898 11.35 104.898 11.15Z" fill="white"/>
</svg>
