<svg width="136" height="38" viewBox="0 0 136 38" fill="none" xmlns="http://www.w3.org/2000/svg">
<path d="M25.3207 14.0737C24.9938 13.9612 24.6668 13.855 24.3398 13.755C24.3943 13.5238 24.4428 13.2925 24.4912 13.0613C25.2359 9.33649 24.7455 6.3429 23.0926 5.35545C21.5002 4.41175 18.9027 5.39295 16.275 7.75532C16.0146 7.98656 15.7604 8.2303 15.5182 8.47403C15.3547 8.31154 15.1852 8.14905 15.0156 7.99281C12.2607 5.46794 9.49981 4.4055 7.84688 5.3992C6.26055 6.34915 5.78828 9.16775 6.4543 12.6926C6.5209 13.0425 6.59355 13.3863 6.67832 13.7363C6.29082 13.8487 5.90937 13.9737 5.55215 14.105C2.31894 15.2612 0 17.0861 0 18.9735C0 20.9234 2.47031 22.8795 5.83066 24.067C6.10313 24.1607 6.37559 24.2544 6.6541 24.3357C6.56328 24.7107 6.48457 25.0794 6.41191 25.4606C5.77617 28.9292 6.27266 31.679 7.85898 32.6227C9.49375 33.5977 12.2426 32.5977 14.9187 30.1791C15.1307 29.9854 15.3426 29.7854 15.5545 29.5729C15.8209 29.8416 16.0994 30.0979 16.3779 30.3479C18.9693 32.6477 21.5305 33.5789 23.1107 32.6352C24.7455 31.6603 25.2783 28.7042 24.5881 25.1044C24.5336 24.8294 24.473 24.5482 24.4064 24.2607C24.6002 24.2044 24.7879 24.1419 24.9756 24.0794C28.4691 22.8858 31 20.9546 31 18.9735C31 17.0798 28.6145 15.2424 25.3207 14.0737ZM17.1287 8.76777C19.3811 6.74288 21.482 5.94917 22.4387 6.51789C23.4619 7.12411 23.8555 9.57397 23.2137 12.7926C23.1713 13.005 23.1289 13.2113 23.0744 13.4175C21.7303 13.105 20.368 12.88 18.9996 12.7551C18.2125 11.5926 17.3527 10.4802 16.4203 9.43648C16.6564 9.20524 16.8865 8.98651 17.1287 8.76777ZM10.1234 22.217C10.4322 22.7608 10.7471 23.3045 11.0801 23.8357C10.1355 23.7295 9.19707 23.5732 8.2707 23.367C8.53711 22.467 8.87012 21.5358 9.25762 20.5859C9.53613 21.1359 9.8207 21.6796 10.1234 22.217ZM8.28887 14.6987C9.16074 14.4987 10.0871 14.3362 11.0498 14.2112C10.7289 14.7299 10.4141 15.2612 10.1174 15.7986C9.8207 16.3299 9.53008 16.8736 9.25762 17.4236C8.87617 16.4924 8.55527 15.5799 8.28887 14.6987ZM9.94785 19.0047C10.3475 18.1423 10.7834 17.2986 11.2436 16.4674C11.7037 15.6362 12.2002 14.8299 12.7209 14.0362C13.6291 13.9675 14.5555 13.93 15.5 13.93C16.4445 13.93 17.377 13.9675 18.2791 14.0362C18.7938 14.8237 19.2842 15.6299 19.7504 16.4549C20.2166 17.2798 20.6525 18.1235 21.0643 18.9797C20.6586 19.8422 20.2227 20.6921 19.7564 21.5296C19.2963 22.3608 18.8059 23.167 18.2912 23.967C17.3891 24.0357 16.4506 24.067 15.5 24.067C14.5494 24.067 13.6291 24.0357 12.7391 23.9795C12.2123 23.1857 11.7158 22.3733 11.2496 21.5421C10.7834 20.7109 10.3535 19.8672 9.94785 19.0047ZM20.8826 22.2045C21.1914 21.6546 21.482 21.0984 21.7666 20.5359C22.1541 21.4421 22.4932 22.3608 22.7898 23.3045C21.8514 23.5232 20.9008 23.692 19.9441 23.8045C20.2711 23.2795 20.5799 22.742 20.8826 22.2045ZM21.7545 17.4236C21.4699 16.8736 21.1793 16.3236 20.8766 15.7861C20.5799 15.2549 20.2711 14.7299 19.9502 14.2112C20.925 14.3362 21.8574 14.505 22.7293 14.7112C22.4508 15.6362 22.1238 16.5361 21.7545 17.4236ZM15.5121 10.3927C16.1479 11.1051 16.7473 11.8551 17.3043 12.6301C16.1055 12.5738 14.9006 12.5738 13.7018 12.6301C14.2951 11.8239 14.9066 11.0739 15.5121 10.3927ZM8.48867 6.56164C9.50586 5.94917 11.7643 6.82412 14.1438 8.99901C14.2951 9.1365 14.4465 9.28649 14.6039 9.43648C13.6654 10.4802 12.7996 11.5926 12.0064 12.7551C10.6381 12.88 9.28184 13.0988 7.9377 13.405C7.85898 13.0863 7.79238 12.7613 7.72578 12.4363C7.15664 9.41148 7.53203 7.13035 8.48867 6.56164ZM7.00527 23.0358C6.75098 22.9608 6.50273 22.8795 6.25449 22.792C4.96484 22.3733 3.49961 21.7108 2.44004 20.8421C1.82852 20.4046 1.4168 19.7297 1.30176 18.9735C1.30176 17.8298 3.21504 16.3674 5.97598 15.3737C6.32109 15.2487 6.67227 15.1362 7.02344 15.0299C7.43516 16.3861 7.93164 17.7173 8.50684 19.0047C7.92559 20.3109 7.42305 21.6608 7.00527 23.0358ZM14.065 29.1604C13.066 30.1041 11.9096 30.8541 10.6502 31.3666C9.97812 31.6978 9.20313 31.729 8.51289 31.4478C7.5502 30.8728 7.15059 28.6667 7.69551 25.6981C7.76211 25.3481 7.83477 24.9982 7.91953 24.6544C9.27578 24.9544 10.6441 25.1606 12.0307 25.2669C12.8299 26.4356 13.7078 27.5543 14.6463 28.6042C14.4525 28.7979 14.2588 28.9854 14.065 29.1604ZM15.5484 27.6418C14.9309 26.9543 14.3133 26.1918 13.7139 25.3731C14.2951 25.3981 14.8945 25.4106 15.5 25.4106C16.1236 25.4106 16.7352 25.3981 17.3406 25.3669C16.7836 26.1606 16.1842 26.9168 15.5484 27.6418ZM23.4619 29.5167C23.4074 30.2791 23.0441 30.9916 22.4629 31.4728C21.5002 32.0478 19.4477 31.2978 17.2316 29.3354C16.9773 29.1104 16.723 28.8667 16.4627 28.6167C17.3891 27.5605 18.2428 26.4418 19.0178 25.2669C20.4043 25.1481 21.7848 24.9294 23.1471 24.6107C23.2076 24.8669 23.2621 25.1231 23.3105 25.3731C23.6072 26.7231 23.6557 28.1292 23.4619 29.5167ZM24.5639 22.7983C24.3943 22.8545 24.2248 22.9108 24.0492 22.9608C23.6254 21.5983 23.1047 20.2672 22.5053 18.9735C23.0865 17.6985 23.577 16.3861 23.9887 15.0424C24.3035 15.1362 24.6063 15.2362 24.8969 15.3362C27.7184 16.3361 29.6982 17.8235 29.6982 18.961C29.6982 20.1859 27.5852 21.7671 24.5639 22.7983ZM15.5 21.8608C17.0318 21.8608 18.273 20.5796 18.273 18.9985C18.273 17.4173 17.0318 16.1361 15.5 16.1361C13.9682 16.1361 12.727 17.4173 12.727 18.9985C12.727 20.5796 13.9682 21.8608 15.5 21.8608Z" fill="white"/>
<path d="M50.525 28L46.025 20.525H45.925H42.175V28H41.05V10.45H45.875C47.825 10.45 49.2833 10.9083 50.25 11.825C51.2333 12.7417 51.725 13.9583 51.725 15.475C51.725 16.825 51.3417 17.9417 50.575 18.825C49.825 19.6917 48.725 20.225 47.275 20.425L51.875 28H50.525ZM42.175 19.575H45.925C47.475 19.575 48.6333 19.2 49.4 18.45C50.1667 17.7 50.55 16.7083 50.55 15.475C50.55 12.7917 48.9917 11.45 45.875 11.45H42.175V19.575ZM67.2887 20.3C67.2887 20.9 67.272 21.35 67.2387 21.65H55.5137C55.547 22.8667 55.8137 23.8917 56.3137 24.725C56.8137 25.5583 57.472 26.1833 58.2887 26.6C59.1053 27.0167 59.997 27.225 60.9637 27.225C62.297 27.225 63.4137 26.9 64.3137 26.25C65.2137 25.5833 65.7803 24.6833 66.0137 23.55H67.1887C66.922 24.9333 66.2387 26.0583 65.1387 26.925C64.0387 27.775 62.647 28.2 60.9637 28.2C59.697 28.2 58.5637 27.9167 57.5637 27.35C56.5637 26.7833 55.7803 25.975 55.2137 24.925C54.647 23.8583 54.3637 22.6167 54.3637 21.2C54.3637 19.7833 54.6387 18.55 55.1887 17.5C55.7553 16.45 56.5387 15.65 57.5387 15.1C58.5387 14.5333 59.6803 14.25 60.9637 14.25C62.2637 14.25 63.3887 14.5333 64.3387 15.1C65.3053 15.65 66.0387 16.3917 66.5387 17.325C67.0387 18.2417 67.2887 19.2333 67.2887 20.3ZM66.1637 20.725C66.2137 19.525 65.997 18.5083 65.5137 17.675C65.047 16.8417 64.4053 16.225 63.5887 15.825C62.772 15.4083 61.8887 15.2 60.9387 15.2C59.9887 15.2 59.1053 15.4083 58.2887 15.825C57.4887 16.225 56.8303 16.8417 56.3137 17.675C55.8137 18.5083 55.547 19.525 55.5137 20.725H66.1637ZM69.9887 21.2C69.9887 19.8 70.2637 18.575 70.8137 17.525C71.3803 16.475 72.1553 15.6667 73.1387 15.1C74.1387 14.5333 75.272 14.25 76.5387 14.25C77.972 14.25 79.1887 14.6 80.1887 15.3C81.1887 16 81.8887 16.8917 82.2887 17.975V14.425H83.4137V28H82.2887V24.425C81.8887 25.525 81.1803 26.4333 80.1637 27.15C79.1637 27.85 77.9553 28.2 76.5387 28.2C75.272 28.2 74.1387 27.9167 73.1387 27.35C72.1553 26.7667 71.3803 25.95 70.8137 24.9C70.2637 23.8333 69.9887 22.6 69.9887 21.2ZM82.2887 21.2C82.2887 20.0167 82.0387 18.975 81.5387 18.075C81.0553 17.1583 80.3887 16.4583 79.5387 15.975C78.6887 15.475 77.7387 15.225 76.6887 15.225C75.5887 15.225 74.622 15.4667 73.7887 15.95C72.9553 16.4167 72.3053 17.1 71.8387 18C71.372 18.9 71.1387 19.9667 71.1387 21.2C71.1387 22.4333 71.372 23.5 71.8387 24.4C72.3053 25.3 72.9553 25.9917 73.7887 26.475C74.6387 26.9583 75.6053 27.2 76.6887 27.2C77.7387 27.2 78.6887 26.9583 79.5387 26.475C80.4053 25.975 81.0803 25.275 81.5637 24.375C82.047 23.4583 82.2887 22.4 82.2887 21.2ZM86.81 21.2C86.81 19.7833 87.085 18.55 87.635 17.5C88.2016 16.45 88.9766 15.65 89.96 15.1C90.96 14.5333 92.1016 14.25 93.385 14.25C95.085 14.25 96.4766 14.675 97.56 15.525C98.66 16.375 99.3433 17.5167 99.61 18.95H98.435C98.2183 17.7833 97.6516 16.8667 96.735 16.2C95.835 15.5333 94.7183 15.2 93.385 15.2C92.385 15.2 91.4766 15.425 90.66 15.875C89.8433 16.3083 89.185 16.9833 88.685 17.9C88.2016 18.8 87.96 19.9 87.96 21.2C87.96 22.5167 88.2016 23.625 88.685 24.525C89.185 25.425 89.8433 26.1 90.66 26.55C91.4766 27 92.385 27.225 93.385 27.225C94.7183 27.225 95.835 26.8917 96.735 26.225C97.6516 25.5583 98.2183 24.6417 98.435 23.475H99.61C99.3433 24.8917 98.66 26.0333 97.56 26.9C96.46 27.7667 95.0683 28.2 93.385 28.2C92.1016 28.2 90.96 27.9167 89.96 27.35C88.9766 26.7833 88.2016 25.975 87.635 24.925C87.085 23.8583 86.81 22.6167 86.81 21.2ZM104.712 15.4V24.375C104.712 25.375 104.896 26.0667 105.262 26.45C105.629 26.8167 106.279 27 107.212 27H108.737V28H107.037C105.854 28 104.979 27.725 104.412 27.175C103.862 26.6083 103.587 25.675 103.587 24.375V15.4H101.537V14.425H103.587V10.975H104.712V14.425H108.737V15.4H104.712ZM119.029 10.45V24.075C119.029 25.2917 118.654 26.2833 117.904 27.05C117.154 27.8 116.138 28.175 114.854 28.175C113.504 28.175 112.438 27.7667 111.654 26.95C110.888 26.1167 110.504 24.975 110.504 23.525H111.629C111.629 24.5917 111.888 25.4667 112.404 26.15C112.921 26.8333 113.738 27.175 114.854 27.175C115.921 27.175 116.688 26.875 117.154 26.275C117.638 25.6583 117.879 24.925 117.879 24.075V10.45H119.029ZM128.352 28.175C127.218 28.175 126.227 27.975 125.377 27.575C124.527 27.175 123.86 26.6333 123.377 25.95C122.91 25.2667 122.643 24.5083 122.577 23.675H123.752C123.885 24.5917 124.31 25.4083 125.027 26.125C125.76 26.8417 126.868 27.2 128.352 27.2C129.218 27.2 129.968 27.0417 130.602 26.725C131.252 26.4083 131.752 25.975 132.102 25.425C132.452 24.875 132.627 24.2667 132.627 23.6C132.627 22.75 132.418 22.075 132.002 21.575C131.602 21.075 131.093 20.7 130.477 20.45C129.877 20.2 129.06 19.9333 128.027 19.65C126.893 19.35 125.977 19.05 125.277 18.75C124.593 18.45 124.01 17.9917 123.527 17.375C123.06 16.7417 122.827 15.8833 122.827 14.8C122.827 13.9667 123.043 13.2083 123.477 12.525C123.927 11.825 124.56 11.275 125.377 10.875C126.193 10.475 127.135 10.275 128.202 10.275C129.752 10.275 131.002 10.6583 131.952 11.425C132.902 12.1917 133.468 13.1333 133.652 14.25H132.452C132.352 13.8 132.127 13.3417 131.777 12.875C131.443 12.4083 130.96 12.025 130.327 11.725C129.71 11.4083 128.968 11.25 128.102 11.25C126.935 11.25 125.952 11.575 125.152 12.225C124.352 12.8583 123.952 13.7083 123.952 14.775C123.952 15.625 124.16 16.3083 124.577 16.825C124.993 17.325 125.502 17.7083 126.102 17.975C126.718 18.225 127.543 18.4833 128.577 18.75C129.727 19.0667 130.635 19.375 131.302 19.675C131.985 19.9583 132.56 20.4167 133.027 21.05C133.51 21.6667 133.752 22.5083 133.752 23.575C133.752 24.3583 133.543 25.1 133.127 25.8C132.71 26.5 132.093 27.075 131.277 27.525C130.477 27.9583 129.502 28.175 128.352 28.175Z" fill="white"/>
</svg>
