<svg width="180" height="38" viewBox="0 0 180 38" fill="none" xmlns="http://www.w3.org/2000/svg">
<path d="M71.6527 10.45V11.4H66.6527V28H65.5277V11.4H60.5277V10.45H71.6527ZM73.6306 21.2C73.6306 19.8 73.9056 18.575 74.4556 17.525C75.0223 16.475 75.7973 15.6667 76.7806 15.1C77.7806 14.5333 78.914 14.25 80.1806 14.25C81.614 14.25 82.8306 14.6 83.8306 15.3C84.8306 16 85.5306 16.8917 85.9306 17.975V14.425H87.0556V28H85.9306V24.425C85.5306 25.525 84.8223 26.4333 83.8056 27.15C82.8056 27.85 81.5973 28.2 80.1806 28.2C78.914 28.2 77.7806 27.9167 76.7806 27.35C75.7973 26.7667 75.0223 25.95 74.4556 24.9C73.9056 23.8333 73.6306 22.6 73.6306 21.2ZM85.9306 21.2C85.9306 20.0167 85.6806 18.975 85.1806 18.075C84.6973 17.1583 84.0306 16.4583 83.1806 15.975C82.3306 15.475 81.3806 15.225 80.3306 15.225C79.2306 15.225 78.264 15.4667 77.4306 15.95C76.5973 16.4167 75.9473 17.1 75.4806 18C75.014 18.9 74.7806 19.9667 74.7806 21.2C74.7806 22.4333 75.014 23.5 75.4806 24.4C75.9473 25.3 76.5973 25.9917 77.4306 26.475C78.2806 26.9583 79.2473 27.2 80.3306 27.2C81.3806 27.2 82.3306 26.9583 83.1806 26.475C84.0473 25.975 84.7223 25.275 85.2056 24.375C85.689 23.4583 85.9306 22.4 85.9306 21.2ZM91.7269 11.4C91.4603 11.4 91.2353 11.3167 91.0519 11.15C90.8686 10.9667 90.7769 10.725 90.7769 10.425C90.7769 10.1417 90.8686 9.90833 91.0519 9.725C91.2353 9.54167 91.4603 9.45 91.7269 9.45C91.9936 9.45 92.2186 9.54167 92.4019 9.725C92.5853 9.90833 92.6769 10.1417 92.6769 10.425C92.6769 10.725 92.5853 10.9667 92.4019 11.15C92.2186 11.3167 91.9936 11.4 91.7269 11.4ZM92.2769 14.425V28H91.1519V14.425H92.2769ZM97.526 9.5V28H96.401V9.5H97.526ZM119.4 14.425L115.125 28H114.05L109.725 15.975L105.375 28H104.3L100.025 14.425H101.2L104.85 26.725L109.2 14.425H110.275L114.6 26.675L118.25 14.425H119.4ZM122.44 11.4C122.173 11.4 121.948 11.3167 121.765 11.15C121.581 10.9667 121.49 10.725 121.49 10.425C121.49 10.1417 121.581 9.90833 121.765 9.725C121.948 9.54167 122.173 9.45 122.44 9.45C122.706 9.45 122.931 9.54167 123.115 9.725C123.298 9.90833 123.39 10.1417 123.39 10.425C123.39 10.725 123.298 10.9667 123.115 11.15C122.931 11.3167 122.706 11.4 122.44 11.4ZM122.99 14.425V28H121.865V14.425H122.99ZM133.239 14.15C134.856 14.15 136.172 14.65 137.189 15.65C138.206 16.6333 138.714 18.1 138.714 20.05V28H137.614V20.125C137.614 18.5083 137.206 17.275 136.389 16.425C135.572 15.5583 134.464 15.125 133.064 15.125C131.597 15.125 130.422 15.5917 129.539 16.525C128.672 17.4583 128.239 18.8417 128.239 20.675V28H127.114V14.425H128.239V17.3C128.622 16.2833 129.256 15.5083 130.139 14.975C131.039 14.425 132.072 14.15 133.239 14.15ZM141.99 21.2C141.99 19.8 142.265 18.575 142.815 17.525C143.382 16.475 144.157 15.6667 145.14 15.1C146.14 14.5333 147.273 14.25 148.54 14.25C149.923 14.25 151.123 14.6 152.14 15.3C153.157 15.9833 153.873 16.875 154.29 17.975V9.5H155.415V28H154.29V24.4C153.89 25.5167 153.19 26.4333 152.19 27.15C151.19 27.85 149.973 28.2 148.54 28.2C147.273 28.2 146.14 27.9167 145.14 27.35C144.157 26.7667 143.382 25.95 142.815 24.9C142.265 23.8333 141.99 22.6 141.99 21.2ZM154.29 21.2C154.29 20.0167 154.04 18.975 153.54 18.075C153.057 17.1583 152.39 16.4583 151.54 15.975C150.69 15.475 149.74 15.225 148.69 15.225C147.59 15.225 146.623 15.4667 145.79 15.95C144.957 16.4167 144.307 17.1 143.84 18C143.373 18.9 143.14 19.9667 143.14 21.2C143.14 22.4333 143.373 23.5 143.84 24.4C144.307 25.3 144.957 25.9917 145.79 26.475C146.64 26.9583 147.607 27.2 148.69 27.2C149.74 27.2 150.69 26.9583 151.54 26.475C152.407 25.975 153.082 25.275 153.565 24.375C154.048 23.4583 154.29 22.4 154.29 21.2Z" fill="white"/>
<path d="M24.8807 9.5C28.0496 9.50001 30.4202 9.99682 32.3114 10.7256C33.6802 11.253 34.7738 11.8949 35.7108 12.5059L36.6004 13.1016L36.6483 13.1348C38.1349 14.1448 39.1754 14.8141 40.5311 15.041C41.8174 15.2562 42.9597 15.198 44.0282 14.8916C45.129 14.5759 46.2573 13.9654 47.3719 12.9707C47.6762 12.6993 48.3526 12.5511 48.9676 12.7227C49.2632 12.8051 49.4446 12.9351 49.5311 13.0439C49.5889 13.1167 49.6023 13.1727 49.5965 13.2197L49.5848 13.2637C48.7881 15.3958 47.3585 17.1019 45.1561 18.2812C42.9244 19.4759 40.0472 20.0498 36.6483 20.0498C33.4793 20.0498 31.1088 19.553 29.2176 18.8242C27.3925 18.1209 26.0564 17.2145 24.9286 16.4482L24.8807 16.416C23.3939 15.4061 22.3538 14.7356 20.9979 14.5088C19.7116 14.2936 18.5692 14.3518 17.5008 14.6582C16.4001 14.9739 15.2718 15.5845 14.1571 16.5791C13.8529 16.8505 13.1768 16.9988 12.5614 16.8271C12.2661 16.7447 12.0855 16.6146 11.9989 16.5059C11.922 16.4091 11.9231 16.3425 11.9442 16.2861C12.7408 14.154 14.171 12.4479 16.3739 11.2686C18.6054 10.074 21.4817 9.5 24.8807 9.5Z" stroke="white"/>
<path d="M13.4492 18.9499C16.6181 18.9499 18.9888 19.4467 20.8799 20.1755C22.2486 20.7029 23.3423 21.3447 24.2793 21.9557L25.1689 22.5515L25.2168 22.5847C26.7035 23.5946 27.7438 24.264 29.0996 24.4909C30.386 24.7061 31.5283 24.6479 32.5967 24.3415C33.6974 24.0258 34.8258 23.4153 35.9404 22.4206C36.2448 22.1492 36.9211 22.001 37.5361 22.1725C37.8317 22.255 38.0131 22.385 38.0996 22.4938C38.1575 22.5666 38.1708 22.6225 38.165 22.6696L38.1533 22.7136C37.3566 24.8457 35.927 26.5518 33.7246 27.7311C31.4928 28.9259 28.6159 29.4997 25.2168 29.4997C22.2459 29.4997 19.9768 29.063 18.1465 28.4079L17.7861 28.2741C15.961 27.5707 14.625 26.6643 13.4971 25.8981L13.4482 25.8649C11.9619 24.8552 10.922 24.1855 9.56641 23.9587C8.28005 23.7435 7.13774 23.8017 6.06934 24.1081C4.96863 24.4238 3.84031 25.0344 2.72559 26.029C2.42136 26.3004 1.7453 26.4487 1.12988 26.277C0.834598 26.1946 0.653969 26.0645 0.567383 25.9557C0.490486 25.859 0.49166 25.7923 0.512695 25.736C1.30929 23.6038 2.73956 21.8977 4.94238 20.7184C7.17393 19.5239 10.0502 18.9499 13.4492 18.9499Z" stroke="white"/>
</svg>
