<svg width="131" height="26" viewBox="0 0 131 26" fill="none" xmlns="http://www.w3.org/2000/svg">
<path d="M49.675 7.325C49.675 6.525 52.5417 6.125 58.275 6.125C59.5917 6.125 61.2833 6.18333 63.35 6.3C65.4167 6.4 66.4833 6.55 66.55 6.75C66.5167 7.5 65.825 7.875 64.475 7.875C64.0917 7.875 63.45 7.83333 62.55 7.75C61.65 7.66667 60.875 7.625 60.225 7.625C59.5917 7.625 59.275 7.76667 59.275 8.05C59.275 11.6333 59.1917 16.975 59.025 24.075C58.675 24.325 58.1583 24.45 57.475 24.45C57.4583 23.7167 57.45 22.8417 57.45 21.825L57.575 11.025C57.575 9.725 57.5583 8.63333 57.525 7.75C57.175 7.71667 56.7167 7.7 56.15 7.7C55.6 7.7 54.7333 7.75 53.55 7.85C52.3667 7.93333 51.5333 7.975 51.05 7.975C50.1333 7.975 49.675 7.75833 49.675 7.325ZM71.9727 16.8L71.8477 19.675C71.8477 21.125 72.0143 22.1 72.3477 22.6C72.5477 22.9333 72.8227 23.1 73.1727 23.1C73.2727 23.1 73.4143 23.075 73.5977 23.025C73.9477 22.925 74.2393 22.975 74.4727 23.175C74.356 23.7583 73.7727 24.05 72.7227 24.05C72.006 24.05 71.531 23.75 71.2977 23.15C71.1143 22.7 70.981 22.1417 70.8977 21.475C70.8143 20.7917 70.7477 20.325 70.6977 20.075C69.6143 22.1417 68.5643 23.4 67.5477 23.85C67.031 24.0833 66.431 24.2 65.7477 24.2C65.0643 24.2 64.531 23.875 64.1477 23.225C63.781 22.5583 63.5977 21.5917 63.5977 20.325C63.5977 19.0583 63.806 17.7333 64.2227 16.35C64.6393 14.95 65.2477 13.775 66.0477 12.825C66.8477 11.8583 67.7227 11.375 68.6727 11.375C70.0393 11.375 70.9477 11.9417 71.3977 13.075C71.781 14.0417 71.9727 15.2833 71.9727 16.8ZM65.8477 16C65.6143 16.9 65.4393 17.7583 65.3227 18.575C65.206 19.375 65.1477 20.0917 65.1477 20.725C65.1477 21.3417 65.2727 21.875 65.5227 22.325C65.7893 22.775 66.131 23 66.5477 23C67.4477 23 68.3143 22.15 69.1477 20.45C69.981 18.75 70.3977 17.1667 70.3977 15.7C70.3977 14.75 70.1477 13.9667 69.6477 13.35C69.3143 12.95 68.8727 12.75 68.3227 12.75C67.7893 12.75 67.2977 13.0667 66.8477 13.7C66.4143 14.3167 66.081 15.0833 65.8477 16ZM77.0781 5.6C77.0615 5.98333 77.0531 6.40833 77.0531 6.875C77.0531 7.34167 77.0781 7.825 77.1281 8.325C76.8948 8.59167 76.5781 8.725 76.1781 8.725C75.6781 8.725 75.4281 8.325 75.4281 7.525C75.4281 7.49167 75.4281 7.36667 75.4281 7.15C75.4281 6.93333 75.4281 6.74167 75.4281 6.575C75.4448 6.39167 75.4781 6.18333 75.5281 5.95C75.6448 5.55 75.9031 5.35 76.3031 5.35C76.7031 5.35 76.9615 5.43333 77.0781 5.6ZM75.4781 17.85C75.4781 14.5833 75.6448 12.7 75.9781 12.2C76.0948 12.0167 76.2365 11.925 76.4031 11.925C76.5698 11.925 76.8448 12.0167 77.2281 12.2C77.1448 13.6167 77.1031 15.1583 77.1031 16.825C77.1031 16.825 77.1198 18.6667 77.1531 22.35C77.1531 22.8667 77.0365 23.2333 76.8031 23.45C76.5865 23.65 76.3781 23.75 76.1781 23.75C75.9948 23.75 75.8031 23.7 75.6031 23.6C75.5198 21.4333 75.4781 19.5167 75.4781 17.85ZM81.133 9.05C81.133 7.4 80.908 6.29167 80.458 5.725C80.6747 5.40833 81.0497 5.25 81.583 5.25C81.683 5.25 81.7913 5.25833 81.908 5.275C82.3247 5.69167 82.533 6.9 82.533 8.9C82.533 9.98333 82.483 11.2417 82.383 12.675C82.183 15.175 82.083 17.0083 82.083 18.175C82.083 21.325 82.6913 22.9 83.908 22.9C83.908 22.9 84.2163 22.8417 84.833 22.725C84.983 22.725 85.108 22.7917 85.208 22.925C85.158 23.525 84.6663 23.825 83.733 23.825C82.8163 23.825 82.108 23.55 81.608 23C81.108 22.4333 80.7913 21.7333 80.658 20.9C80.5413 20.05 80.483 19.35 80.483 18.8C80.483 18.25 80.4913 17.65 80.508 17C80.5247 16.3333 80.5997 15.3833 80.733 14.15C80.9997 11.65 81.133 9.95 81.133 9.05ZM92.99 21.1C92.7234 21.8667 92.2067 22.5167 91.44 23.05C90.69 23.5833 89.865 23.85 88.965 23.85C88.0817 23.85 87.39 23.4083 86.89 22.525C86.4067 21.625 86.165 20.3833 86.165 18.8C86.165 14.3333 86.8234 12.1 88.14 12.1C88.3067 12.1 88.515 12.125 88.765 12.175C88.715 12.4417 88.5984 12.95 88.415 13.7C88.0484 15.1667 87.865 16.4583 87.865 17.575C87.865 18.6917 88.0234 19.875 88.34 21.125C88.6567 22.3583 89.1067 22.975 89.69 22.975C89.99 22.975 90.2817 22.7833 90.565 22.4C90.8484 22.0167 91.0734 21.6167 91.24 21.2C91.4067 20.7667 91.5817 20.275 91.765 19.725C91.9484 19.175 92.065 18.8417 92.115 18.725C91.865 17.7583 91.74 16.775 91.74 15.775C91.74 15.725 91.74 15.575 91.74 15.325C91.74 15.0583 91.7484 14.8 91.765 14.55C91.7817 14.3 91.8317 14 91.915 13.65C92.0817 12.95 92.5317 12.6 93.265 12.6C93.8817 12.6 94.19 13.5333 94.19 15.4C94.19 15.7333 94.14 16.2167 94.04 16.85C93.9567 17.4833 93.915 17.925 93.915 18.175C93.915 18.9417 94.2817 19.9333 95.015 21.15C95.7484 22.3667 96.4317 22.975 97.065 22.975C97.715 22.975 98.19 22.6083 98.49 21.875C98.79 21.1417 98.94 20.325 98.94 19.425C98.94 18.3917 98.8484 17.6083 98.665 17.075C98.4984 16.525 98.39 16.1667 98.34 16C98.3067 15.8333 98.1984 15.575 98.015 15.225C97.8484 14.8583 97.74 14.625 97.69 14.525C97.6567 14.425 97.5317 14.1833 97.315 13.8C97.0984 13.4167 96.9734 13.2 96.94 13.15C96.4567 12.3 96.1734 11.8333 96.09 11.75C96.5067 11.4 96.89 11.225 97.24 11.225C98.2567 11.9583 99.065 13.1583 99.665 14.825C100.265 16.475 100.565 17.9833 100.565 19.35C100.565 20.7 100.273 21.7667 99.69 22.55C99.1234 23.3167 98.2317 23.7 97.015 23.7C96.165 23.7 95.3567 23.4667 94.59 23C93.84 22.5167 93.3067 21.8833 92.99 21.1ZM104.837 5.6C104.82 5.98333 104.812 6.40833 104.812 6.875C104.812 7.34167 104.837 7.825 104.887 8.325C104.654 8.59167 104.337 8.725 103.937 8.725C103.437 8.725 103.187 8.325 103.187 7.525C103.187 7.49167 103.187 7.36667 103.187 7.15C103.187 6.93333 103.187 6.74167 103.187 6.575C103.204 6.39167 103.237 6.18333 103.287 5.95C103.404 5.55 103.662 5.35 104.062 5.35C104.462 5.35 104.72 5.43333 104.837 5.6ZM103.237 17.85C103.237 14.5833 103.404 12.7 103.737 12.2C103.854 12.0167 103.995 11.925 104.162 11.925C104.329 11.925 104.604 12.0167 104.987 12.2C104.904 13.6167 104.862 15.1583 104.862 16.825C104.862 16.825 104.879 18.6667 104.912 22.35C104.912 22.8667 104.795 23.2333 104.562 23.45C104.345 23.65 104.137 23.75 103.937 23.75C103.754 23.75 103.562 23.7 103.362 23.6C103.279 21.4333 103.237 19.5167 103.237 17.85ZM118.342 23.3C118.042 23.6167 117.7 23.775 117.317 23.775C116.6 23.775 116.067 23.3917 115.717 22.625C115.367 21.8583 115.158 20.925 115.092 19.825C115.042 18.725 115.008 17.625 114.992 16.525C114.975 15.425 114.883 14.4917 114.717 13.725C114.567 12.9583 114.275 12.575 113.842 12.575C113.258 12.575 112.758 13.1 112.342 14.15C111.942 15.2 111.658 16.3667 111.492 17.65C111.025 21.2333 110.575 23.2417 110.142 23.675C109.842 23.825 109.583 23.9 109.367 23.9C109.15 23.9 108.967 23.875 108.817 23.825C108.467 22.2917 108.242 19.65 108.142 15.9C108.108 14.0333 108.075 12.825 108.042 12.275C108.392 12.0417 108.692 11.925 108.942 11.925C109.192 11.925 109.392 11.95 109.542 12C109.625 12.7167 109.667 14.1833 109.667 16.4C109.683 18.6167 109.7 19.8917 109.717 20.225C109.8 19.875 109.9 19.3083 110.017 18.525C110.15 17.7417 110.267 17.1 110.367 16.6C110.467 16.0833 110.625 15.4833 110.842 14.8C111.058 14.1167 111.3 13.575 111.567 13.175C111.833 12.7583 112.2 12.4083 112.667 12.125C113.133 11.825 113.658 11.675 114.242 11.675C115.025 11.675 115.592 12.0333 115.942 12.75C116.308 13.45 116.508 14.325 116.542 15.375C116.575 16.425 116.592 17.4917 116.592 18.575C116.608 19.6583 116.742 20.65 116.992 21.55C117.258 22.45 117.708 23.0333 118.342 23.3ZM129.356 3.975C128.723 9.70833 128.406 13.8 128.406 16.25C128.406 18.6833 128.631 21.1167 129.081 23.55C128.748 23.8833 128.456 24.05 128.206 24.05C127.956 24.05 127.748 24.0167 127.581 23.95C127.231 22.7167 127.023 21.375 126.956 19.925C126.556 20.5583 126.256 21.0083 126.056 21.275C125.873 21.5417 125.548 21.9333 125.081 22.45C124.231 23.45 123.223 23.95 122.056 23.95C121.173 23.95 120.531 23.5417 120.131 22.725C119.748 21.8917 119.556 20.8333 119.556 19.55C119.556 18.25 119.698 17.0167 119.981 15.85C120.281 14.6667 120.79 13.65 121.506 12.8C122.223 11.9333 123.106 11.5 124.156 11.5C124.79 11.5 125.373 11.6333 125.906 11.9C126.44 12.1667 126.806 12.525 127.006 12.975C127.04 12.525 127.073 11.8333 127.106 10.9C127.14 9.96667 127.173 9.14167 127.206 8.425C127.256 7.69167 127.331 6.95 127.431 6.2C127.615 4.6 128.023 3.8 128.656 3.8C128.873 3.8 129.106 3.85833 129.356 3.975ZM126.431 13.875C126.231 13.5083 125.956 13.2417 125.606 13.075C125.256 12.8917 124.79 12.8 124.206 12.8C123.64 12.8 123.106 13.125 122.606 13.775C121.623 15.0583 121.131 16.9167 121.131 19.35C121.131 20.1333 121.256 20.9167 121.506 21.7C121.756 22.4667 122.123 22.85 122.606 22.85C123.306 22.85 123.99 22.3917 124.656 21.475C125.323 20.5583 125.84 19.5083 126.206 18.325C126.573 17.125 126.756 16.05 126.756 15.1C126.756 14.65 126.648 14.2417 126.431 13.875Z" fill="white"/>
<path d="M21.3626 1C18.5395 1 16.1124 1.66458 14.2072 3.08889C12.3157 4.50294 11.0784 6.56149 10.392 9.12731C10.2422 9.68728 10.5689 10.2612 11.1708 10.4957C11.7728 10.7301 12.4809 10.5592 12.8589 10.0881C13.7302 9.00256 14.6001 8.35026 15.4359 8.01551C16.2454 7.69132 17.1179 7.62563 18.1174 7.85913C19.126 8.09476 19.9067 8.78485 21.1325 9.94758L21.1721 9.98516C22.096 10.8617 23.2232 11.931 24.7648 12.7607C26.3645 13.6215 28.3552 14.2 30.9934 14.2C33.8164 14.2 36.2436 13.5354 38.1488 12.1111C40.04 10.697 41.2774 8.63848 41.964 6.07266C42.1137 5.51269 41.787 4.93873 41.185 4.70428C40.5832 4.46982 39.8749 4.64075 39.4968 5.11182C38.6257 6.19741 37.7559 6.84969 36.9199 7.18446C36.1104 7.50865 35.2379 7.57434 34.2385 7.34085C33.23 7.10521 32.4491 6.41512 31.2235 5.25237L31.1839 5.21478C30.2599 4.33823 29.1328 3.26891 27.5911 2.4393C25.9914 1.57842 24.0008 1 21.3626 1Z" stroke="white"/>
<path d="M12.0067 11.7999C9.18364 11.7999 6.75652 12.4644 4.85137 13.8888C2.95992 15.3028 1.72256 17.3613 1.03615 19.9272C0.886341 20.4872 1.21302 21.061 1.815 21.2955C2.41698 21.53 3.12503 21.3591 3.5031 20.888C4.37434 19.8024 5.24425 19.1501 6.08009 18.8154C6.88957 18.4912 7.76208 18.4255 8.76154 18.659C9.77012 18.8946 10.5509 19.5848 11.7766 20.7476L11.8162 20.785C12.7402 21.6615 13.8674 22.7309 15.409 23.5606C17.0087 24.4215 18.9993 24.9999 21.6375 24.9999C24.4606 24.9999 26.8877 24.3353 28.793 22.9109C30.6842 21.4968 31.9216 19.4384 32.6081 16.8725C32.7578 16.3125 32.4312 15.7386 31.8292 15.5041C31.2274 15.2697 30.5191 15.4406 30.141 15.9117C29.2698 16.9973 28.4 17.6496 27.5641 17.9843C26.7547 18.3085 25.8821 18.3742 24.8827 18.1407C23.8741 17.9051 23.0934 17.215 21.8676 16.0522L21.828 16.0146C20.904 15.1381 19.7769 14.0688 18.2353 13.2391C16.6356 12.3783 14.6449 11.7999 12.0067 11.7999Z" stroke="white"/>
</svg>
