<svg width="143" height="38" viewBox="0 0 143 38" fill="none" xmlns="http://www.w3.org/2000/svg">
<path d="M61.675 11.325C61.675 10.525 64.5417 10.125 70.275 10.125C71.5917 10.125 73.2833 10.1833 75.35 10.3C77.4167 10.4 78.4833 10.55 78.55 10.75C78.5167 11.5 77.825 11.875 76.475 11.875C76.0917 11.875 75.45 11.8333 74.55 11.75C73.65 11.6667 72.875 11.625 72.225 11.625C71.5917 11.625 71.275 11.7667 71.275 12.05C71.275 15.6333 71.1917 20.975 71.025 28.075C70.675 28.325 70.1583 28.45 69.475 28.45C69.4583 27.7167 69.45 26.8417 69.45 25.825L69.575 15.025C69.575 13.725 69.5583 12.6333 69.525 11.75C69.175 11.7167 68.7167 11.7 68.15 11.7C67.6 11.7 66.7333 11.75 65.55 11.85C64.3667 11.9333 63.5333 11.975 63.05 11.975C62.1333 11.975 61.675 11.7583 61.675 11.325ZM83.9727 20.8L83.8477 23.675C83.8477 25.125 84.0143 26.1 84.3477 26.6C84.5477 26.9333 84.8227 27.1 85.1727 27.1C85.2727 27.1 85.4143 27.075 85.5977 27.025C85.9477 26.925 86.2393 26.975 86.4727 27.175C86.356 27.7583 85.7727 28.05 84.7227 28.05C84.006 28.05 83.531 27.75 83.2977 27.15C83.1143 26.7 82.981 26.1417 82.8977 25.475C82.8143 24.7917 82.7477 24.325 82.6977 24.075C81.6143 26.1417 80.5643 27.4 79.5477 27.85C79.031 28.0833 78.431 28.2 77.7477 28.2C77.0643 28.2 76.531 27.875 76.1477 27.225C75.781 26.5583 75.5977 25.5917 75.5977 24.325C75.5977 23.0583 75.806 21.7333 76.2227 20.35C76.6393 18.95 77.2477 17.775 78.0477 16.825C78.8477 15.8583 79.7227 15.375 80.6727 15.375C82.0393 15.375 82.9477 15.9417 83.3977 17.075C83.781 18.0417 83.9727 19.2833 83.9727 20.8ZM77.8477 20C77.6143 20.9 77.4393 21.7583 77.3227 22.575C77.206 23.375 77.1477 24.0917 77.1477 24.725C77.1477 25.3417 77.2727 25.875 77.5227 26.325C77.7893 26.775 78.131 27 78.5477 27C79.4477 27 80.3143 26.15 81.1477 24.45C81.981 22.75 82.3977 21.1667 82.3977 19.7C82.3977 18.75 82.1477 17.9667 81.6477 17.35C81.3143 16.95 80.8727 16.75 80.3227 16.75C79.7893 16.75 79.2977 17.0667 78.8477 17.7C78.4143 18.3167 78.081 19.0833 77.8477 20ZM89.0781 9.6C89.0615 9.98333 89.0531 10.4083 89.0531 10.875C89.0531 11.3417 89.0781 11.825 89.1281 12.325C88.8948 12.5917 88.5781 12.725 88.1781 12.725C87.6781 12.725 87.4281 12.325 87.4281 11.525C87.4281 11.4917 87.4281 11.3667 87.4281 11.15C87.4281 10.9333 87.4281 10.7417 87.4281 10.575C87.4448 10.3917 87.4781 10.1833 87.5281 9.95C87.6448 9.55 87.9031 9.35 88.3031 9.35C88.7031 9.35 88.9615 9.43333 89.0781 9.6ZM87.4781 21.85C87.4781 18.5833 87.6448 16.7 87.9781 16.2C88.0948 16.0167 88.2365 15.925 88.4031 15.925C88.5698 15.925 88.8448 16.0167 89.2281 16.2C89.1448 17.6167 89.1031 19.1583 89.1031 20.825C89.1031 20.825 89.1198 22.6667 89.1531 26.35C89.1531 26.8667 89.0365 27.2333 88.8031 27.45C88.5865 27.65 88.3781 27.75 88.1781 27.75C87.9948 27.75 87.8031 27.7 87.6031 27.6C87.5198 25.4333 87.4781 23.5167 87.4781 21.85ZM93.133 13.05C93.133 11.4 92.908 10.2917 92.458 9.725C92.6747 9.40833 93.0497 9.25 93.583 9.25C93.683 9.25 93.7913 9.25833 93.908 9.275C94.3247 9.69167 94.533 10.9 94.533 12.9C94.533 13.9833 94.483 15.2417 94.383 16.675C94.183 19.175 94.083 21.0083 94.083 22.175C94.083 25.325 94.6913 26.9 95.908 26.9C95.908 26.9 96.2163 26.8417 96.833 26.725C96.983 26.725 97.108 26.7917 97.208 26.925C97.158 27.525 96.6663 27.825 95.733 27.825C94.8163 27.825 94.108 27.55 93.608 27C93.108 26.4333 92.7913 25.7333 92.658 24.9C92.5413 24.05 92.483 23.35 92.483 22.8C92.483 22.25 92.4913 21.65 92.508 21C92.5247 20.3333 92.5997 19.3833 92.733 18.15C92.9997 15.65 93.133 13.95 93.133 13.05ZM104.99 25.1C104.723 25.8667 104.207 26.5167 103.44 27.05C102.69 27.5833 101.865 27.85 100.965 27.85C100.082 27.85 99.39 27.4083 98.89 26.525C98.4067 25.625 98.165 24.3833 98.165 22.8C98.165 18.3333 98.8234 16.1 100.14 16.1C100.307 16.1 100.515 16.125 100.765 16.175C100.715 16.4417 100.598 16.95 100.415 17.7C100.048 19.1667 99.865 20.4583 99.865 21.575C99.865 22.6917 100.023 23.875 100.34 25.125C100.657 26.3583 101.107 26.975 101.69 26.975C101.99 26.975 102.282 26.7833 102.565 26.4C102.848 26.0167 103.073 25.6167 103.24 25.2C103.407 24.7667 103.582 24.275 103.765 23.725C103.948 23.175 104.065 22.8417 104.115 22.725C103.865 21.7583 103.74 20.775 103.74 19.775C103.74 19.725 103.74 19.575 103.74 19.325C103.74 19.0583 103.748 18.8 103.765 18.55C103.782 18.3 103.832 18 103.915 17.65C104.082 16.95 104.532 16.6 105.265 16.6C105.882 16.6 106.19 17.5333 106.19 19.4C106.19 19.7333 106.14 20.2167 106.04 20.85C105.957 21.4833 105.915 21.925 105.915 22.175C105.915 22.9417 106.282 23.9333 107.015 25.15C107.748 26.3667 108.432 26.975 109.065 26.975C109.715 26.975 110.19 26.6083 110.49 25.875C110.79 25.1417 110.94 24.325 110.94 23.425C110.94 22.3917 110.848 21.6083 110.665 21.075C110.498 20.525 110.39 20.1667 110.34 20C110.307 19.8333 110.198 19.575 110.015 19.225C109.848 18.8583 109.74 18.625 109.69 18.525C109.657 18.425 109.532 18.1833 109.315 17.8C109.098 17.4167 108.973 17.2 108.94 17.15C108.457 16.3 108.173 15.8333 108.09 15.75C108.507 15.4 108.89 15.225 109.24 15.225C110.257 15.9583 111.065 17.1583 111.665 18.825C112.265 20.475 112.565 21.9833 112.565 23.35C112.565 24.7 112.273 25.7667 111.69 26.55C111.123 27.3167 110.232 27.7 109.015 27.7C108.165 27.7 107.357 27.4667 106.59 27C105.84 26.5167 105.307 25.8833 104.99 25.1ZM116.837 9.6C116.82 9.98333 116.812 10.4083 116.812 10.875C116.812 11.3417 116.837 11.825 116.887 12.325C116.654 12.5917 116.337 12.725 115.937 12.725C115.437 12.725 115.187 12.325 115.187 11.525C115.187 11.4917 115.187 11.3667 115.187 11.15C115.187 10.9333 115.187 10.7417 115.187 10.575C115.204 10.3917 115.237 10.1833 115.287 9.95C115.404 9.55 115.662 9.35 116.062 9.35C116.462 9.35 116.72 9.43333 116.837 9.6ZM115.237 21.85C115.237 18.5833 115.404 16.7 115.737 16.2C115.854 16.0167 115.995 15.925 116.162 15.925C116.329 15.925 116.604 16.0167 116.987 16.2C116.904 17.6167 116.862 19.1583 116.862 20.825C116.862 20.825 116.879 22.6667 116.912 26.35C116.912 26.8667 116.795 27.2333 116.562 27.45C116.345 27.65 116.137 27.75 115.937 27.75C115.754 27.75 115.562 27.7 115.362 27.6C115.279 25.4333 115.237 23.5167 115.237 21.85ZM130.342 27.3C130.042 27.6167 129.7 27.775 129.317 27.775C128.6 27.775 128.067 27.3917 127.717 26.625C127.367 25.8583 127.158 24.925 127.092 23.825C127.042 22.725 127.008 21.625 126.992 20.525C126.975 19.425 126.883 18.4917 126.717 17.725C126.567 16.9583 126.275 16.575 125.842 16.575C125.258 16.575 124.758 17.1 124.342 18.15C123.942 19.2 123.658 20.3667 123.492 21.65C123.025 25.2333 122.575 27.2417 122.142 27.675C121.842 27.825 121.583 27.9 121.367 27.9C121.15 27.9 120.967 27.875 120.817 27.825C120.467 26.2917 120.242 23.65 120.142 19.9C120.108 18.0333 120.075 16.825 120.042 16.275C120.392 16.0417 120.692 15.925 120.942 15.925C121.192 15.925 121.392 15.95 121.542 16C121.625 16.7167 121.667 18.1833 121.667 20.4C121.683 22.6167 121.7 23.8917 121.717 24.225C121.8 23.875 121.9 23.3083 122.017 22.525C122.15 21.7417 122.267 21.1 122.367 20.6C122.467 20.0833 122.625 19.4833 122.842 18.8C123.058 18.1167 123.3 17.575 123.567 17.175C123.833 16.7583 124.2 16.4083 124.667 16.125C125.133 15.825 125.658 15.675 126.242 15.675C127.025 15.675 127.592 16.0333 127.942 16.75C128.308 17.45 128.508 18.325 128.542 19.375C128.575 20.425 128.592 21.4917 128.592 22.575C128.608 23.6583 128.742 24.65 128.992 25.55C129.258 26.45 129.708 27.0333 130.342 27.3ZM141.356 7.975C140.723 13.7083 140.406 17.8 140.406 20.25C140.406 22.6833 140.631 25.1167 141.081 27.55C140.748 27.8833 140.456 28.05 140.206 28.05C139.956 28.05 139.748 28.0167 139.581 27.95C139.231 26.7167 139.023 25.375 138.956 23.925C138.556 24.5583 138.256 25.0083 138.056 25.275C137.873 25.5417 137.548 25.9333 137.081 26.45C136.231 27.45 135.223 27.95 134.056 27.95C133.173 27.95 132.531 27.5417 132.131 26.725C131.748 25.8917 131.556 24.8333 131.556 23.55C131.556 22.25 131.698 21.0167 131.981 19.85C132.281 18.6667 132.79 17.65 133.506 16.8C134.223 15.9333 135.106 15.5 136.156 15.5C136.79 15.5 137.373 15.6333 137.906 15.9C138.44 16.1667 138.806 16.525 139.006 16.975C139.04 16.525 139.073 15.8333 139.106 14.9C139.14 13.9667 139.173 13.1417 139.206 12.425C139.256 11.6917 139.331 10.95 139.431 10.2C139.615 8.6 140.023 7.8 140.656 7.8C140.873 7.8 141.106 7.85833 141.356 7.975ZM138.431 17.875C138.231 17.5083 137.956 17.2417 137.606 17.075C137.256 16.8917 136.79 16.8 136.206 16.8C135.64 16.8 135.106 17.125 134.606 17.775C133.623 19.0583 133.131 20.9167 133.131 23.35C133.131 24.1333 133.256 24.9167 133.506 25.7C133.756 26.4667 134.123 26.85 134.606 26.85C135.306 26.85 135.99 26.3917 136.656 25.475C137.323 24.5583 137.84 23.5083 138.206 22.325C138.573 21.125 138.756 20.05 138.756 19.1C138.756 18.65 138.648 18.2417 138.431 17.875Z" fill="white"/>
<path d="M26 1C22.5801 1 19.6399 1.90466 17.3321 3.8435C15.0408 5.76838 13.5419 8.57059 12.7104 12.0633C12.5289 12.8256 12.9246 13.6069 13.6539 13.926C14.3831 14.2452 15.2408 14.0125 15.6988 13.3712C16.7542 11.8935 17.808 11.0055 18.8205 10.5499C19.8011 10.1086 20.8581 10.0191 22.0688 10.337C23.2906 10.6577 24.2364 11.5971 25.7212 13.1799L25.7692 13.2311C26.8885 14.4243 28.2539 15.8799 30.1214 17.0092C32.0592 18.1811 34.4707 18.9685 37.6667 18.9685C41.0863 18.9685 44.0267 18.0638 46.3346 16.125C48.6256 14.2001 50.1246 11.3979 50.9563 7.90516C51.1376 7.14291 50.7419 6.3616 50.0126 6.04245C49.2836 5.7233 48.4256 5.95597 47.9676 6.59722C46.9123 8.07498 45.8586 8.96289 44.846 9.4186C43.8653 9.85991 42.8083 9.94933 41.5977 9.63148C40.376 9.31073 39.43 8.37133 37.9454 6.78854L37.8974 6.73737C36.778 5.54417 35.4127 4.08856 33.5451 2.95925C31.6073 1.78738 29.1959 1 26 1Z" stroke="white" stroke-width="2"/>
<path d="M14.3334 15.7015C10.9136 15.7015 7.97338 16.6061 5.6655 18.545C3.37422 20.4699 1.8753 23.272 1.04379 26.7649C0.862315 27.5271 1.25805 28.3082 1.98728 28.6274C2.71651 28.9466 3.57423 28.714 4.03222 28.0727C5.08764 26.595 6.14143 25.707 7.15395 25.2513C8.13455 24.81 9.1915 24.7206 10.4022 25.0385C11.624 25.3592 12.5698 26.2987 14.0547 27.8815L14.1026 27.9325C15.2219 29.1256 16.5873 30.5814 18.4548 31.7108C20.3927 32.8827 22.8041 33.67 26 33.67C29.4199 33.67 32.36 32.7654 34.6681 30.8264C36.9591 28.9015 38.458 26.0994 39.2897 22.6066C39.471 21.8444 39.0754 21.0631 38.3461 20.7439C37.6171 20.4247 36.7591 20.6575 36.3011 21.2987C35.2457 22.7765 34.192 23.6644 33.1795 24.12C32.1989 24.5614 31.1419 24.6508 29.9312 24.333C28.7094 24.0122 27.7636 23.0728 26.2788 21.49L26.2308 21.4389C25.1115 20.2456 23.7461 18.79 21.8786 17.6607C19.9408 16.4889 17.5293 15.7015 14.3334 15.7015Z" stroke="white" stroke-width="2"/>
</svg>
