<svg width="147" height="38" viewBox="0 0 147 38" fill="none" xmlns="http://www.w3.org/2000/svg">
<path d="M60.6301 10.45V11.4H55.6301V28H54.5051V11.4H49.5051V10.45H60.6301ZM62.6081 21.2C62.6081 19.8 62.8831 18.575 63.4331 17.525C63.9997 16.475 64.7747 15.6667 65.7581 15.1C66.7581 14.5333 67.8914 14.25 69.1581 14.25C70.5914 14.25 71.8081 14.6 72.8081 15.3C73.8081 16 74.5081 16.8917 74.9081 17.975V14.425H76.0331V28H74.9081V24.425C74.5081 25.525 73.7997 26.4333 72.7831 27.15C71.7831 27.85 70.5747 28.2 69.1581 28.2C67.8914 28.2 66.7581 27.9167 65.7581 27.35C64.7747 26.7667 63.9997 25.95 63.4331 24.9C62.8831 23.8333 62.6081 22.6 62.6081 21.2ZM74.9081 21.2C74.9081 20.0167 74.6581 18.975 74.1581 18.075C73.6747 17.1583 73.0081 16.4583 72.1581 15.975C71.3081 15.475 70.3581 15.225 69.3081 15.225C68.2081 15.225 67.2414 15.4667 66.4081 15.95C65.5747 16.4167 64.9247 17.1 64.4581 18C63.9914 18.9 63.7581 19.9667 63.7581 21.2C63.7581 22.4333 63.9914 23.5 64.4581 24.4C64.9247 25.3 65.5747 25.9917 66.4081 26.475C67.2581 26.9583 68.2247 27.2 69.3081 27.2C70.3581 27.2 71.3081 26.9583 72.1581 26.475C73.0247 25.975 73.6997 25.275 74.1831 24.375C74.6664 23.4583 74.9081 22.4 74.9081 21.2ZM80.7043 11.4C80.4377 11.4 80.2127 11.3167 80.0293 11.15C79.846 10.9667 79.7543 10.725 79.7543 10.425C79.7543 10.1417 79.846 9.90833 80.0293 9.725C80.2127 9.54167 80.4377 9.45 80.7043 9.45C80.971 9.45 81.196 9.54167 81.3793 9.725C81.5627 9.90833 81.6543 10.1417 81.6543 10.425C81.6543 10.725 81.5627 10.9667 81.3793 11.15C81.196 11.3167 80.971 11.4 80.7043 11.4ZM81.2543 14.425V28H80.1293V14.425H81.2543ZM86.5034 9.5V28H85.3784V9.5H86.5034ZM108.377 14.425L104.102 28H103.027L98.7024 15.975L94.3524 28H93.2774L89.0024 14.425H90.1774L93.8274 26.725L98.1774 14.425H99.2524L103.577 26.675L107.227 14.425H108.377ZM111.417 11.4C111.151 11.4 110.926 11.3167 110.742 11.15C110.559 10.9667 110.467 10.725 110.467 10.425C110.467 10.1417 110.559 9.90833 110.742 9.725C110.926 9.54167 111.151 9.45 111.417 9.45C111.684 9.45 111.909 9.54167 112.092 9.725C112.276 9.90833 112.367 10.1417 112.367 10.425C112.367 10.725 112.276 10.9667 112.092 11.15C111.909 11.3167 111.684 11.4 111.417 11.4ZM111.967 14.425V28H110.842V14.425H111.967ZM122.216 14.15C123.833 14.15 125.15 14.65 126.166 15.65C127.183 16.6333 127.691 18.1 127.691 20.05V28H126.591V20.125C126.591 18.5083 126.183 17.275 125.366 16.425C124.55 15.5583 123.441 15.125 122.041 15.125C120.575 15.125 119.4 15.5917 118.516 16.525C117.65 17.4583 117.216 18.8417 117.216 20.675V28H116.091V14.425H117.216V17.3C117.6 16.2833 118.233 15.5083 119.116 14.975C120.016 14.425 121.05 14.15 122.216 14.15ZM130.967 21.2C130.967 19.8 131.242 18.575 131.792 17.525C132.359 16.475 133.134 15.6667 134.117 15.1C135.117 14.5333 136.251 14.25 137.517 14.25C138.901 14.25 140.101 14.6 141.117 15.3C142.134 15.9833 142.851 16.875 143.267 17.975V9.5H144.392V28H143.267V24.4C142.867 25.5167 142.167 26.4333 141.167 27.15C140.167 27.85 138.951 28.2 137.517 28.2C136.251 28.2 135.117 27.9167 134.117 27.35C133.134 26.7667 132.359 25.95 131.792 24.9C131.242 23.8333 130.967 22.6 130.967 21.2ZM143.267 21.2C143.267 20.0167 143.017 18.975 142.517 18.075C142.034 17.1583 141.367 16.4583 140.517 15.975C139.667 15.475 138.717 15.225 137.667 15.225C136.567 15.225 135.601 15.4667 134.767 15.95C133.934 16.4167 133.284 17.1 132.817 18C132.351 18.9 132.117 19.9667 132.117 21.2C132.117 22.4333 132.351 23.5 132.817 24.4C133.284 25.3 133.934 25.9917 134.767 26.475C135.617 26.9583 136.584 27.2 137.667 27.2C138.717 27.2 139.667 26.9583 140.517 26.475C141.384 25.975 142.059 25.275 142.542 24.375C143.026 23.4583 143.267 22.4 143.267 21.2Z" fill="white"/>
<path d="M20.3031 9.5C22.8656 9.50001 24.7771 9.99259 26.3002 10.7119C27.7735 11.4077 28.854 12.3049 29.7758 13.0723L29.8148 13.1055C31.0195 14.1085 31.892 14.8025 33.0404 15.0381C34.1165 15.2587 35.0799 15.1994 35.9808 14.8828C36.9059 14.5576 37.8401 13.9342 38.7533 12.9355C38.9745 12.6937 39.4615 12.563 39.9056 12.7148C40.3453 12.8651 40.4101 13.1469 40.3656 13.293C39.7099 15.4435 38.5394 17.1399 36.766 18.3037C34.9712 19.4812 32.6551 20.0498 29.9056 20.0498C27.3431 20.0498 25.4317 19.5582 23.9086 18.8389C22.8034 18.3169 21.9195 17.6811 21.1576 17.0723L20.433 16.4775L20.3939 16.4453L19.9564 16.084C18.9663 15.2757 18.1726 14.7178 17.1674 14.5117C16.0914 14.2912 15.1287 14.3504 14.2279 14.667C13.3029 14.9921 12.3687 15.6157 11.4554 16.6143C11.2344 16.856 10.7474 16.9876 10.3031 16.8359C9.86335 16.6856 9.79863 16.4028 9.84314 16.2568C10.4988 14.1064 11.6691 12.4098 13.4427 11.2461C15.2375 10.0686 17.5534 9.5 20.3031 9.5Z" stroke="white"/>
<path d="M10.9746 18.9499C13.5371 18.9499 15.4486 19.4425 16.9717 20.1618C18.4449 20.8577 19.5256 21.7548 20.4473 22.5222L20.4863 22.5554C21.6911 23.5583 22.5635 24.2524 23.7119 24.488C24.7881 24.7086 25.7515 24.6493 26.6523 24.3327C27.5774 24.0075 28.5116 23.3841 29.4248 22.3854C29.6459 22.1436 30.133 22.012 30.5771 22.1638V22.1647C31.0168 22.315 31.0816 22.5967 31.0371 22.7429C30.3814 24.8934 29.211 26.5898 27.4375 27.7536C25.6426 28.9312 23.3268 29.4997 20.5771 29.4997C18.0146 29.4997 16.1032 29.0081 14.5801 28.2888C13.1067 27.5928 12.0263 26.6948 11.1045 25.9274H11.1035L11.0645 25.8942C9.85983 24.8914 8.98732 24.1971 7.83887 23.9616C6.76285 23.7411 5.80022 23.8003 4.89941 24.1169C4.09 24.4014 3.27399 24.9149 2.4707 25.7077L2.12695 26.0641C1.90588 26.3059 1.41893 26.4376 0.974609 26.2858C0.534795 26.1355 0.470162 25.8526 0.514648 25.7067C1.1703 23.5562 2.34058 21.8597 4.11426 20.696C5.90899 19.5185 8.22492 18.9499 10.9746 18.9499Z" stroke="white"/>
</svg>
