<svg width="71" height="68" viewBox="0 0 71 68" fill="none" xmlns="http://www.w3.org/2000/svg">
<g clip-path="url(#clip0_17_2)">
<rect width="71" height="68" rx="34" fill="white"/>
<path d="M10.8218 27.1421C10.3774 25.8683 10.022 24.402 9.75537 22.7432C9.48877 21.0843 9.35547 19.4699 9.35547 17.8999C10.1257 15.7078 11.4587 13.8861 13.3545 12.4346C15.2799 10.9831 17.6349 10.2573 20.4194 10.2573C23.0854 10.2573 25.2331 11.1016 26.8623 12.79C28.5212 14.4489 29.9875 17.0557 31.2612 20.6104C32.5942 24.3428 33.6755 28.7565 34.5049 33.8516C35.3343 38.9466 35.9119 44.4416 36.2378 50.3364L37.5264 50.3809C38.8298 47.7741 39.9554 44.0565 40.9033 39.228C41.8512 34.37 42.34 29.7637 42.3696 25.4092L36.8154 24.4316C36.4303 22.9801 36.1637 21.7064 36.0156 20.6104C35.8675 19.4847 35.7935 18.2554 35.7935 16.9224L35.8379 15.6782C36.3711 14.908 37.2598 14.1082 38.5039 13.2788C39.748 12.4494 41.2292 11.7533 42.9473 11.1904C44.695 10.6276 46.5168 10.3462 48.4126 10.3462C56.0552 10.3462 59.8765 14.1823 59.8765 21.8545C59.8765 26.4163 59.0618 31.304 57.4326 36.5176C55.8034 41.7015 53.4484 46.6484 50.3677 51.3584C47.3166 56.0684 43.7174 59.9489 39.5703 63C38.1188 63.5924 36.1489 63.8887 33.6606 63.8887C32.3276 63.8887 30.8317 63.5924 29.1729 63C27.514 62.4372 26.2847 61.8447 25.4849 61.2227L24.5518 58.1123C22.4189 50.8844 20.4935 44.6637 18.7754 39.4502C17.0573 34.207 15.4873 30.3117 14.0654 27.7642L10.8218 27.1421Z" fill="url(#paint0_linear_17_2)"/>
</g>
<defs>
<linearGradient id="paint0_linear_17_2" x1="-91" y1="117.5" x2="52.5" y2="34" gradientUnits="userSpaceOnUse">
<stop offset="0.9999" stop-color="#040404"/>
</linearGradient>
<clipPath id="clip0_17_2">
<rect width="71" height="68" rx="34" fill="white"/>
</clipPath>
</defs>
</svg>
